<svg width="16" height="16" fill="none" xmlns="http://www.w3.org/2000/svg"><path fill-rule="evenodd" clip-rule="evenodd" d="M8 13.271C4.933 11.525 3.223 9.79 2.397 8.284c-.847-1.542-.773-2.84-.303-3.761.965-1.894 3.71-2.5 5.383-.384l.522.661.523-.661c1.673-2.116 4.418-1.51 5.384.384.47.921.543 2.22-.303 3.76-.827 1.507-2.537 3.242-5.603 4.989ZM8 2.737C5.647.502 2.176 1.426.906 3.917c-.697 1.368-.707 3.135.322 5.008 1.02 1.857 3.052 3.817 6.449 5.694l.322.179.323-.179c3.397-1.877 5.43-3.837 6.45-5.694 1.028-1.873 1.019-3.64.322-5.008C13.824 1.426 10.352.502 8 2.737Z" fill="#FF3F3A"/></svg>