<svg aria-hidden="true" style="position:absolute;width:0;height:0;overflow:hidden" xmlns="http://www.w3.org/2000/svg"><defs><symbol id="icon-line-1" viewBox="0 0 6688 32"><path fill="none" stroke="#d7dadd" style="stroke:var(--color1, #d7dadd)" stroke-linecap="round" stroke-width="32" d="M16 16h6656"/></symbol><symbol id="icon-sprite" viewBox="0 0 32 32"><path fill="none" stroke="#d7dadd" style="stroke:var(--color1, #d7dadd)" stroke-linecap="round" stroke-width="32" d="M16 16h6656"/></symbol><symbol id="icon-Right" viewBox="0 0 33 32"><path fill="#fff" style="fill:var(--color2, #fff)" d="M19.729 9.057a1.332 1.332 0 0 1 1.886 0l6 6a1.332 1.332 0 0 1 0 1.886l-6 6a1.333 1.333 0 0 1-1.884-1.886l3.724-3.724H5.34a1.333 1.333 0 0 1 0-2.666h18.115l-3.724-3.724a1.332 1.332 0 0 1 0-1.886z"/></symbol><symbol id="icon-Linked-In" viewBox="0 0 32 32"><path fill="#ff3f3a" style="fill:var(--color3, #ff3f3a)" d="M29.327 29.333h.007v-9.781c0-4.784-1.031-8.469-6.624-8.469-2.688 0-4.493 1.475-5.229 2.873h-.077v-2.427H12.1v17.803h5.523v-8.815c0-2.321.44-4.567 3.315-4.567 2.832 0 2.875 2.649 2.875 4.715v8.668h5.516zM3.107 11.531h5.529v17.803H3.107V11.531zm2.762-8.864A3.203 3.203 0 0 0 2.666 5.87c0 1.767 1.435 3.232 3.203 3.232 1.767 0 3.201-1.464 3.201-3.232S7.637 2.669 5.869 2.667z"/></symbol><symbol id="icon-Group" viewBox="0 0 32 32"><path fill="#ffcf2d" style="fill:var(--color4, #ffcf2d)" opacity=".2" d="m19.17 24.568 1.974 1.974-5.249 5.249-5.249-5.249 1.959-1.959 3.275 3.275 3.29-3.29z"/><path fill="#ffcf2d" style="fill:var(--color4, #ffcf2d)" opacity=".2" d="m19.17 17.48 1.959 1.959-5.249 5.249-5.234-5.234 1.974-1.974 3.275 3.275 3.275-3.275z"/><path fill="#ffcf2d" style="fill:var(--color4, #ffcf2d)" opacity=".2" d="m19.155 10.378 1.974 1.974-5.234 5.234-5.249-5.249 1.959-1.959 3.275 3.275 3.274-3.275z"/><path fill="#ffcf2d" style="fill:var(--color4, #ffcf2d)" opacity=".2" d="m19.17 3.275 1.974 1.974-5.249 5.249-5.249-5.249 1.974-1.974 3.275 3.275 3.275-3.275z"/></symbol><symbol id="icon-shapes" viewBox="0 0 59 32"><path fill="#fff" style="fill:var(--color2, #fff)" opacity=".6" d="M44.142 28.749c7.116 0 12.914-5.848 12.914-13.028S51.259 2.692 44.142 2.692v26.056zm-20.147 0c7.116 0 12.914-5.848 12.914-13.028S31.112 2.692 23.995 2.692v26.056zm-20.147 0c7.117 0 12.914-5.848 12.914-13.028S10.965 2.692 3.848 2.692v26.056z"/></symbol><symbol id="icon-circles" viewBox="0 0 16 32"><path fill="#fff" style="fill:var(--color2, #fff)" opacity=".4" d="M16.011 0C7.16 0 0 7.16 0 16.011c0 8.829 7.16 16.011 16.011 16.011 8.829 0 16.011-7.16 16.011-16.011C32 7.16 24.84 0 16.011 0zm0 30.99c-8.28 0-14.979-6.699-14.979-14.979S7.731 1.032 16.011 1.032 30.99 7.731 30.99 16.011c0 8.258-6.721 14.979-14.979 14.979z"/><path fill="#fff" style="fill:var(--color2, #fff)" opacity=".4" d="M16.011 3.448C9.093 3.448 3.47 9.071 3.47 15.989S9.092 28.53 16.011 28.53c6.918 0 12.541-5.601 12.541-12.519 0-6.94-5.622-12.563-12.541-12.563zm0 23.171c-5.864 0-10.63-4.766-10.63-10.63s4.766-10.63 10.63-10.63c5.864 0 10.63 4.766 10.63 10.63s-4.766 10.63-10.63 10.63z"/></symbol><symbol id="icon-dot-1-1" viewBox="0 0 331 32"><path fill="none" stroke="#b3b7bc" style="stroke:var(--color5, #b3b7bc)" stroke-linecap="round" stroke-width="32" d="M16.043 16h288"/></symbol><symbol id="icon-dot-2" viewBox="0 0 331 32"><path fill="none" stroke="#424551" style="stroke:var(--color6, #424551)" stroke-linecap="round" stroke-width="32" d="M16.043 16h288"/></symbol><symbol id="icon-braces" viewBox="0 0 46 32"><path fill="#ff3f3a" style="fill:var(--color3, #ff3f3a)" d="M28.806 14.28c0-.488.219-.926.564-1.219l.002-.002L44.806 0v30.4a1.6 1.6 0 0 1-1.6 1.6h-12.8a1.6 1.6 0 0 1-1.6-1.6V14.28zm-28.8 0c0-.488.219-.926.564-1.219l.002-.002L16.006 0v30.4a1.6 1.6 0 0 1-1.6 1.6h-12.8a1.6 1.6 0 0 1-1.6-1.6V14.28z"/></symbol><symbol id="icon-dots" viewBox="0 0 44 32"><path fill="#fff" style="fill:var(--color2, #fff)" d="M1.243 9.405c0 .355-.266.621-.622.621s-.622-.266-.622-.621.266-.621.622-.621.622.296.622.621zm5.3 0c0 .355-.267.621-.622.621s-.622-.266-.622-.621.266-.621.622-.621c.325 0 .622.296.622.621zm5.27 0c0 .355-.267.621-.622.621s-.622-.266-.622-.621.266-.621.622-.621.622.296.622.621zm5.3 0c0 .355-.266.621-.622.621s-.622-.266-.622-.621.266-.621.622-.621.622.296.622.621zm5.299 0c0 .355-.266.621-.622.621s-.622-.266-.622-.621.266-.621.622-.621c.326 0 .622.296.622.621zm5.3 0c0 .355-.267.621-.622.621s-.622-.266-.622-.621.266-.621.622-.621.622.296.622.621zm5.27 0c0 .355-.267.621-.622.621s-.622-.266-.622-.621.267-.621.622-.621.622.296.622.621zm5.299 0c0 .355-.266.621-.622.621s-.622-.266-.622-.621.266-.621.622-.621.622.296.622.621zm5.3 0c0 .355-.266.621-.622.621s-.622-.266-.622-.621.266-.621.622-.621c.326 0 .622.296.622.621zM1.243 13.812c0 .355-.266.621-.622.621s-.622-.266-.622-.621.266-.621.622-.621.622.266.622.621zm5.3 0c0 .355-.267.621-.622.621s-.622-.266-.622-.621.266-.621.622-.621c.325 0 .622.266.622.621zm5.27 0c0 .355-.267.621-.622.621s-.622-.266-.622-.621.266-.621.622-.621.622.266.622.621zm5.3 0c0 .355-.266.621-.622.621s-.622-.266-.622-.621.266-.621.622-.621.622.266.622.621zm5.299 0c0 .355-.266.621-.622.621s-.622-.266-.622-.621.266-.621.622-.621c.326 0 .622.266.622.621zm5.3 0c0 .355-.267.621-.622.621s-.622-.266-.622-.621.266-.621.622-.621.622.266.622.621zm5.27 0c0 .355-.267.621-.622.621s-.622-.266-.622-.621.267-.621.622-.621.622.266.622.621zm5.299 0c0 .355-.266.621-.622.621s-.622-.266-.622-.621.266-.621.622-.621.622.266.622.621zm5.3 0c0 .355-.266.621-.622.621s-.622-.266-.622-.621.266-.621.622-.621c.326 0 .622.266.622.621zM1.243.621c0 .355-.266.621-.622.621S-.001.976-.001.621.265 0 .621 0s.622.266.622.621zm5.3 0c0 .355-.267.621-.622.621S5.299.976 5.299.621 5.565 0 5.921 0c.325 0 .622.266.622.621zm5.27 0c0 .355-.267.621-.622.621s-.622-.266-.622-.621.296-.621.622-.621c.355 0 .622.266.622.621zm5.3 0c0 .355-.266.621-.622.621s-.622-.266-.622-.621S16.165 0 16.49 0s.622.266.622.621zm5.299 0c0 .355-.266.621-.622.621s-.622-.266-.622-.621S21.434 0 21.79 0c.326 0 .622.266.622.621zm5.3 0c0 .355-.267.621-.622.621s-.622-.266-.622-.621S26.734 0 27.09 0s.622.266.622.621zm5.27 0c0 .355-.267.621-.622.621s-.622-.266-.622-.621S32.005 0 32.36 0s.622.266.622.621zm5.299 0c0 .355-.266.621-.622.621s-.622-.266-.622-.621.266-.621.622-.621.622.266.622.621zm5.3 0c0 .355-.266.621-.622.621s-.622-.266-.622-.621.266-.621.622-.621c.326 0 .622.266.622.621zM1.243 5.028c0 .355-.266.621-.622.621s-.622-.296-.622-.621c0-.355.266-.621.622-.621s.622.266.622.621zm5.3 0c0 .355-.267.621-.622.621s-.622-.266-.622-.621.266-.621.622-.621c.325 0 .622.266.622.621zm5.27 0c0 .355-.267.621-.622.621s-.622-.266-.622-.621.266-.621.622-.621.622.266.622.621zm5.3 0c0 .355-.266.621-.622.621s-.622-.266-.622-.621.266-.621.622-.621.622.266.622.621zm5.299 0c0 .355-.266.621-.622.621s-.622-.266-.622-.621.266-.621.622-.621c.326 0 .622.266.622.621zm5.3 0c0 .355-.267.621-.622.621s-.622-.266-.622-.621.266-.621.622-.621.622.266.622.621zm5.27 0c0 .355-.267.621-.622.621s-.622-.266-.622-.621.267-.621.622-.621.622.266.622.621zm5.299 0c0 .355-.266.621-.622.621s-.622-.266-.622-.621.266-.621.622-.621.622.266.622.621zm5.3 0c0 .355-.266.621-.622.621s-.622-.266-.622-.621.266-.621.622-.621c.326 0 .622.266.622.621zM1.243 18.188c0 .355-.266.621-.622.621s-.622-.266-.622-.621.266-.621.622-.621.622.296.622.621zm5.3 0c0 .355-.267.621-.622.621s-.622-.266-.622-.621.266-.621.622-.621c.325 0 .622.296.622.621zm5.27 0c0 .355-.267.621-.622.621s-.622-.266-.622-.621.266-.621.622-.621.622.296.622.621zm5.3 0c0 .355-.266.621-.622.621s-.622-.266-.622-.621.266-.621.622-.621.622.296.622.621zm5.299 0c0 .355-.266.621-.622.621s-.622-.266-.622-.621.266-.621.622-.621c.326 0 .622.296.622.621zm5.3 0c0 .355-.267.621-.622.621s-.622-.266-.622-.621.266-.621.622-.621.622.296.622.621zm5.27 0c0 .355-.267.621-.622.621s-.622-.266-.622-.621.267-.621.622-.621.622.296.622.621zm5.299 0c0 .355-.266.621-.622.621s-.622-.266-.622-.621.266-.621.622-.621.622.296.622.621zm5.3 0c0 .355-.266.621-.622.621s-.622-.266-.622-.621.266-.621.622-.621c.326 0 .622.296.622.621zM1.243 22.595c0 .355-.266.621-.622.621s-.622-.266-.622-.621.266-.621.622-.621.622.266.622.621zm5.3 0c0 .355-.267.621-.622.621s-.622-.266-.622-.621.266-.621.622-.621c.325 0 .622.266.622.621zm5.27 0c0 .355-.267.621-.622.621s-.622-.266-.622-.621.266-.621.622-.621.622.266.622.621zm4.678.621a.621.621 0 1 0-.621-.621c0 .343.279.621.622.621zm5.921-.621c0 .355-.266.621-.622.621s-.622-.266-.622-.621.266-.621.622-.621c.326 0 .622.266.622.621zm5.3 0c0 .355-.267.621-.622.621s-.622-.266-.622-.621.266-.621.622-.621.622.266.622.621zm5.27 0c0 .355-.267.621-.622.621s-.622-.266-.622-.621.267-.621.622-.621.622.266.622.621zm4.678.621h.024a.621.621 0 1 0 0-1.242h-.025.001-.024a.621.621 0 1 0 0 1.242h.025-.001zm5.921-.621c0 .355-.266.621-.622.621s-.622-.266-.622-.621.266-.621.622-.621c.326 0 .622.266.622.621zM1.243 27.002c0 .355-.266.621-.622.621s-.622-.266-.622-.621.266-.621.622-.621.622.266.622.621zm5.3 0c0 .355-.267.621-.622.621s-.622-.266-.622-.621.266-.621.622-.621c.325 0 .622.266.622.621zm5.27 0c0 .355-.267.621-.622.621s-.622-.266-.622-.621.266-.621.622-.621.622.266.622.621zm5.3 0c0 .355-.266.621-.622.621s-.622-.266-.622-.621.266-.621.622-.621.622.266.622.621zm5.299 0c0 .355-.266.621-.622.621s-.622-.266-.622-.621.266-.621.622-.621c.326 0 .622.266.622.621zm5.3 0c0 .355-.267.621-.622.621s-.622-.266-.622-.621.266-.621.622-.621.622.266.622.621zm5.27 0c0 .355-.267.621-.622.621s-.622-.266-.622-.621.267-.621.622-.621.622.266.622.621zm5.299 0c0 .355-.266.621-.622.621s-.622-.266-.622-.621.266-.621.622-.621.622.266.622.621zm5.3 0c0 .355-.266.621-.622.621s-.622-.266-.622-.621.266-.621.622-.621c.326 0 .622.266.622.621zM1.243 31.379c0 .355-.266.621-.622.621s-.622-.266-.622-.621.266-.621.622-.621.622.296.622.621zm5.3 0c0 .355-.267.621-.622.621s-.622-.266-.622-.621.266-.621.622-.621c.325 0 .622.296.622.621zm5.27 0c0 .355-.267.621-.622.621s-.622-.266-.622-.621.266-.621.622-.621.622.296.622.621zm5.3 0c0 .355-.266.621-.622.621s-.622-.266-.622-.621.266-.621.622-.621.622.296.622.621zm5.299 0c0 .355-.266.621-.622.621s-.622-.266-.622-.621.266-.621.622-.621c.326 0 .622.296.622.621zm5.3 0c0 .355-.267.621-.622.621s-.622-.266-.622-.621.266-.621.622-.621.622.296.622.621zm5.27 0c0 .355-.267.621-.622.621s-.622-.266-.622-.621.267-.621.622-.621.622.296.622.621zm5.299 0c0 .355-.266.621-.622.621s-.622-.266-.622-.621.266-.621.622-.621.622.296.622.621zm5.3 0c0 .355-.266.621-.622.621s-.622-.266-.622-.621.266-.621.622-.621c.326 0 .622.296.622.621z"/></symbol><symbol id="icon-prev-btn" viewBox="0 0 32 32"><path fill="#424551" style="fill:var(--color6, #424551)" d="M12.276 22.943a1.332 1.332 0 0 1-1.886 0l-6-6a1.332 1.332 0 0 1 0-1.886l6-6a1.333 1.333 0 0 1 1.884 1.886L8.55 14.667h18.115a1.333 1.333 0 0 1 0 2.666H8.55l3.724 3.724a1.332 1.332 0 0 1 0 1.886z"/></symbol><symbol id="icon-Plus" viewBox="0 0 32 32"><path fill="#ff3f3a" style="fill:var(--color3, #ff3f3a)" d="M16 1.334c.736 0 1.333.597 1.333 1.333v12h12a1.334 1.334 0 1 1 0 2.668h-12v12a1.333 1.333 0 0 1-2.666 0v-12h-12a1.334 1.334 0 1 1 0-2.668h12v-12c0-.736.597-1.333 1.333-1.333z"/></symbol><symbol id="icon-Minus" viewBox="0 0 32 32"><path fill="#ff3f3a" style="fill:var(--color3, #ff3f3a)" d="M1.333 16c0-.736.597-1.334 1.334-1.334v2.667h-.002A1.333 1.333 0 0 1 1.332 16v-.002zm28 0v1.333H2.667v-2.667h26.666v1.333zm0 0v1.333a1.334 1.334 0 1 0 0-2.668v1.333z"/></symbol><symbol id="icon-CIRCLES" viewBox="0 0 32 32"><path fill="#ffcf2d" style="fill:var(--color4, #ffcf2d)" opacity=".12" d="M16.011 0C7.16 0 0 7.16 0 16.011c0 8.829 7.16 16.011 16.011 16.011 8.829 0 16.011-7.16 16.011-16.011C32 7.16 24.84 0 16.011 0zm0 30.99c-8.28 0-14.979-6.699-14.979-14.979S7.731 1.032 16.011 1.032 30.99 7.731 30.99 16.011c0 8.258-6.721 14.979-14.979 14.979z"/><path fill="#ffcf2d" style="fill:var(--color4, #ffcf2d)" opacity=".12" d="M16.011 3.448C9.093 3.448 3.47 9.07 3.47 15.989S9.092 28.53 16.011 28.53s12.541-5.601 12.541-12.519c0-6.94-5.622-12.563-12.541-12.563zm0 23.171c-5.864 0-10.63-4.766-10.63-10.63s4.766-10.63 10.63-10.63c5.864 0 10.63 4.766 10.63 10.63s-4.766 10.63-10.63 10.63z"/></symbol><symbol id="icon-Twitter" viewBox="0 0 32 32"><path fill="#787a80" style="fill:var(--color7, #787a80)" d="M30 7.696c-.961.42-2.076.725-3.243.861l-.055.005a5.603 5.603 0 0 0 2.513-3.001l.012-.039a11.68 11.68 0 0 1-3.574 1.321l-.075.012a5.832 5.832 0 0 0-4.159-1.736h-.036.002c-3.172 0-5.744 2.463-5.744 5.499 0 .431.051.851.149 1.253-4.773-.231-9.005-2.42-11.839-5.747a5.227 5.227 0 0 0-.777 2.758v.006c0 1.908 1.016 3.592 2.555 4.577a5.93 5.93 0 0 1-2.632-.706l.032.016v.069c0 2.663 1.98 4.887 4.605 5.392-.48.124-.988.193-1.513.193a5.7 5.7 0 0 1-1.116-.109l.036.006c.731 2.187 2.851 3.776 5.364 3.82a11.766 11.766 0 0 1-7.085 2.351h-.051.003c-.464 0-.92-.027-1.371-.076 2.494 1.554 5.523 2.475 8.766 2.475h.04-.002c10.567 0 16.343-8.38 16.343-15.648l-.02-.712a11.314 11.314 0 0 0 2.85-2.805l.024-.035z"/></symbol><symbol id="icon-behance" viewBox="0 0 32 32"><path fill="#787a80" style="fill:var(--color7, #787a80)" d="M16.487 20.192c0-2.629-1.172-4.572-3.593-5.3 1.767-.897 2.688-2.257 2.688-4.372 0-4.169-2.923-5.187-6.296-5.187H.001V26.27h9.547c3.579 0 6.94-1.825 6.94-6.08zM4.329 8.907H8.39c1.561 0 2.968.467 2.968 2.392 0 1.777-1.093 2.493-2.64 2.493H4.327V8.907zm-.001 13.806v-5.765h4.717c1.907 0 3.112.844 3.112 2.989 0 2.115-1.44 2.776-3.2 2.776H4.326zm20.739 3.954c3.405 0 5.611-1.632 6.672-5.099h-3.456c-.373 1.293-1.907 1.979-3.096 1.979-2.295 0-3.5-1.429-3.5-3.859h10.285c.325-4.861-2.213-9.004-6.907-9.004-4.347 0-7.297 3.472-7.297 8.023 0 4.721 2.796 7.96 7.297 7.96zm-.124-12.838c1.968 0 2.957 1.229 3.123 3.239h-6.373c.129-1.993 1.373-3.239 3.251-3.239zm-4.05-7.396h7.987v2.063h-7.987V6.433z"/></symbol><symbol id="icon-Facebook" viewBox="0 0 32 32"><path fill="#787a80" style="fill:var(--color7, #787a80)" d="m23.417 1.34-3.703-.007c-4.16 0-6.849 2.833-6.849 7.219v3.329H9.142a.59.59 0 0 0-.583.597v4.823c0 .331.261.599.583.599h3.723v12.168c0 .331.26.599.583.599h4.857a.59.59 0 0 0 .583-.591V17.9h4.353a.59.59 0 0 0 .581-.599l.003-4.823a.608.608 0 0 0-.171-.423.574.574 0 0 0-.413-.175h-4.354V9.057c0-1.356.315-2.044 2.033-2.044h2.495a.593.593 0 0 0 .583-.6V1.93a.591.591 0 0 0-.581-.591z"/></symbol><symbol id="icon-Profile" viewBox="0 0 32 32"><path fill="#ff3f3a" style="fill:var(--color3, #ff3f3a)" d="M16 4.332a4.667 4.667 0 0 0 0 9.334 4.666 4.666 0 1 0 0-9.334zM8.666 9a7.335 7.335 0 0 1 14.668 0A7.335 7.335 0 0 1 8.666 9zM8.14 20.332c-.926 0-1.648.45-1.94 1.098-.408.894-.774 1.96-.86 2.972-.04.45.148.784.408.946C7.12 26.2 10.3 27.666 16 27.666s8.88-1.466 10.252-2.32c.26-.16.448-.494.41-.946-.086-1.01-.454-2.076-.86-2.97-.294-.648-1.016-1.098-1.94-1.098H8.138zm-4.37-.004c.81-1.788 2.62-2.662 4.368-2.662h15.724c1.748 0 3.558.874 4.368 2.662.466 1.026.966 2.406 1.088 3.844.114 1.31-.432 2.678-1.658 3.44-1.804 1.12-5.474 2.72-11.66 2.72s-9.854-1.6-11.66-2.72c-1.226-.762-1.77-2.13-1.66-3.44.124-1.438.624-2.818 1.09-3.844z"/></symbol><symbol id="icon-Play" viewBox="0 0 32 32"><path fill="#ff3f3a" style="fill:var(--color3, #ff3f3a)" d="M21.424 13.882a2.664 2.664 0 0 1 .006 4.233l-.006.005-6.106 4.666c-1.756 1.34-4.286.09-4.286-2.118v-9.334c0-2.21 2.53-3.46 4.286-2.12l6.106 4.668zm-1.62 2.12-6.104-4.67v9.334L19.804 16z"/><path fill="#ff3f3a" style="fill:var(--color3, #ff3f3a)" d="M16 4C9.373 4 4 9.373 4 16s5.373 12 12 12 12-5.373 12-12S22.627 4 16 4zM1.334 16C1.334 7.9 7.9 1.334 16 1.334S30.666 7.9 30.666 16c0 8.1-6.566 14.666-14.666 14.666S1.334 24.1 1.334 16z"/></symbol><symbol id="icon-Star" viewBox="0 0 32 32"><path fill="#ff3f3a" style="fill:var(--color3, #ff3f3a)" d="M13.56 2.936c.926-2.136 3.954-2.136 4.88 0L21.246 9.4l7.01.668c2.32.22 3.254 3.102 1.51 4.644l-5.28 4.66 1.532 6.876c.506 2.272-1.946 4.054-3.95 2.87L16 25.536l-6.066 3.58c-2.004 1.184-4.454-.598-3.948-2.87l1.53-6.874-5.28-4.662c-1.744-1.54-.808-4.422 1.51-4.644l7.01-.666 2.804-6.46zm5.24 7.52L16 3.996l-2.804 6.46a2.667 2.667 0 0 1-2.177 1.589l-.011.001-7.012.668 5.28 4.662a2.665 2.665 0 0 1 .836 2.574L8.58 26.824l6.066-3.58c.387-.232.853-.369 1.352-.369s.965.137 1.364.376l-.012-.007 6.066 3.58-1.532-6.874a2.654 2.654 0 0 1 .833-2.572l.003-.002 5.28-4.66-7.01-.67a2.665 2.665 0 0 1-2.183-1.573l-.007-.017z"/></symbol><symbol id="icon-check" viewBox="0 0 32 32"><path fill="#ff3f3a" style="fill:var(--color3, #ff3f3a)" d="M16 30.668c8.086 0 14.666-6.58 14.666-14.668v-.022c0-1.449-.212-2.848-.606-4.169l.026.103a1.222 1.222 0 1 0-2.344.695l-.002-.009c.304 1.015.478 2.181.478 3.388 0 6.752-5.468 12.226-12.217 12.236H16c-6.746-.008-12.213-5.474-12.222-12.219v-.001C3.784 9.253 9.252 3.784 15.999 3.776h.034c2.529 0 4.878.774 6.823 2.097l-.042-.027a1.222 1.222 0 0 0 1.372-2.023l-.004-.003a14.448 14.448 0 0 0-8.142-2.486h-.042H16C7.912 1.334 1.332 7.914 1.332 16c0 8.088 6.58 14.668 14.666 14.668z"/><path fill="#ff3f3a" style="fill:var(--color3, #ff3f3a)" d="M29.724 3.058 16 16.78l-4.39-4.388a1.334 1.334 0 0 0-1.885 1.885l-.001-.001 5.334 5.334a1.325 1.325 0 0 0 1.884 0L31.61 4.944a1.334 1.334 0 0 0-1.887-1.885l.001-.001z"/></symbol><symbol id="icon-dots2" viewBox="0 0 37 32"><path fill="#fff" style="fill:var(--color2, #fff)" opacity=".8" d="M1.246 9.405c0 .355-.267.621-.623.621S0 9.76 0 9.405s.267-.621.623-.621.623.296.623.621zm5.312 0c0 .355-.267.621-.623.621s-.623-.266-.623-.621.267-.621.623-.621c.326 0 .623.296.623.621zm5.282 0c0 .355-.267.621-.623.621s-.623-.266-.623-.621.267-.621.623-.621.623.296.623.621zm5.311 0c0 .355-.267.621-.623.621s-.623-.266-.623-.621.267-.621.623-.621.623.296.623.621zm5.312 0c0 .355-.267.621-.623.621s-.623-.266-.623-.621.267-.621.623-.621c.326 0 .623.296.623.621zm5.311 0c0 .355-.267.621-.623.621s-.623-.266-.623-.621.267-.621.623-.621.623.296.623.621zm5.282 0c0 .355-.267.621-.623.621s-.623-.266-.623-.621.267-.621.623-.621.623.296.623.621zm-31.81 4.406c0 .355-.267.621-.623.621S0 14.166 0 13.811s.267-.621.623-.621.623.266.623.621zm5.312 0c0 .355-.267.621-.623.621s-.623-.266-.623-.621.267-.621.623-.621c.326 0 .623.266.623.621zm5.282 0c0 .355-.267.621-.623.621s-.623-.266-.623-.621.267-.621.623-.621.623.266.623.621zm5.311 0c0 .355-.267.621-.623.621s-.623-.266-.623-.621.267-.621.623-.621.623.266.623.621zm5.312 0c0 .355-.267.621-.623.621s-.623-.266-.623-.621.267-.621.623-.621c.326 0 .623.266.623.621zm5.311 0c0 .355-.267.621-.623.621s-.623-.266-.623-.621.267-.621.623-.621.623.266.623.621zm5.282 0c0 .355-.267.621-.623.621s-.623-.266-.623-.621.267-.621.623-.621.623.266.623.621zM1.246.621c0 .355-.267.621-.623.621S0 .976 0 .621.267 0 .623 0s.623.266.623.621zm5.312 0c0 .355-.267.621-.623.621S5.312.976 5.312.621 5.579 0 5.935 0c.326 0 .623.266.623.621zm5.282 0c0 .355-.267.621-.623.621s-.623-.266-.623-.621.297-.621.623-.621c.356 0 .623.266.623.621zm5.311 0c0 .355-.267.621-.623.621s-.623-.266-.623-.621.297-.621.623-.621.623.266.623.621zm5.312 0c0 .355-.267.621-.623.621s-.623-.266-.623-.621S21.484 0 21.84 0c.326 0 .623.266.623.621zm5.311 0c0 .355-.267.621-.623.621s-.623-.266-.623-.621.267-.621.623-.621.623.266.623.621zm5.282 0c0 .355-.267.621-.623.621S31.81.976 31.81.621 32.077 0 32.433 0s.623.266.623.621zM1.246 5.028c0 .355-.267.621-.623.621S0 5.353 0 5.028c0-.355.267-.621.623-.621s.623.266.623.621zm5.312 0c0 .355-.267.621-.623.621s-.623-.266-.623-.621.267-.621.623-.621c.326 0 .623.266.623.621zm5.282 0c0 .355-.267.621-.623.621s-.623-.266-.623-.621.267-.621.623-.621.623.266.623.621zm5.311 0c0 .355-.267.621-.623.621s-.623-.266-.623-.621.267-.621.623-.621.623.266.623.621zm5.312 0c0 .355-.267.621-.623.621s-.623-.266-.623-.621.267-.621.623-.621c.326 0 .623.266.623.621zm5.311 0c0 .355-.267.621-.623.621s-.623-.266-.623-.621.267-.621.623-.621.623.266.623.621zm5.282 0c0 .355-.267.621-.623.621s-.623-.266-.623-.621.267-.621.623-.621.623.266.623.621zM1.246 18.189c0 .355-.267.621-.623.621S0 18.544 0 18.189s.267-.621.623-.621.623.296.623.621zm5.312 0c0 .355-.267.621-.623.621s-.623-.266-.623-.621.267-.621.623-.621c.326 0 .623.296.623.621zm5.282 0c0 .355-.267.621-.623.621s-.623-.266-.623-.621.267-.621.623-.621.623.296.623.621zm5.311 0c0 .355-.267.621-.623.621s-.623-.266-.623-.621.267-.621.623-.621.623.296.623.621zm5.312 0c0 .355-.267.621-.623.621s-.623-.266-.623-.621.267-.621.623-.621c.326 0 .623.296.623.621zm5.311 0c0 .355-.267.621-.623.621s-.623-.266-.623-.621.267-.621.623-.621.623.296.623.621zm5.282 0c0 .355-.267.621-.623.621s-.623-.266-.623-.621.267-.621.623-.621.623.296.623.621zm-31.81 4.406c0 .355-.267.621-.623.621S0 22.95 0 22.595s.267-.621.623-.621.623.266.623.621zm5.312 0c0 .355-.267.621-.623.621s-.623-.266-.623-.621.267-.621.623-.621c.326 0 .623.266.623.621zm5.282 0c0 .355-.267.621-.623.621s-.623-.266-.623-.621.267-.621.623-.621.623.266.623.621zm4.688.621h.001a.622.622 0 0 0 .622-.621.622.622 0 0 0-.622-.621h-.002a.622.622 0 0 0-.622.621.622.622 0 0 0 .622.621h.001zm5.935-.621c0 .355-.267.621-.623.621s-.623-.266-.623-.621.267-.621.623-.621c.326 0 .623.266.623.621zm5.311 0c0 .355-.267.621-.623.621s-.623-.266-.623-.621.267-.621.623-.621.623.266.623.621zm5.282 0c0 .355-.267.621-.623.621s-.623-.266-.623-.621.267-.621.623-.621.623.266.623.621zm-31.81 4.407c0 .355-.267.621-.623.621S0 27.357 0 27.002s.267-.621.623-.621.623.266.623.621zm5.312 0c0 .355-.267.621-.623.621s-.623-.266-.623-.621.267-.621.623-.621c.326 0 .623.266.623.621zm5.282 0c0 .355-.267.621-.623.621s-.623-.266-.623-.621.267-.621.623-.621.623.266.623.621zm5.311 0c0 .355-.267.621-.623.621s-.623-.266-.623-.621.267-.621.623-.621.623.266.623.621zm5.312 0c0 .355-.267.621-.623.621s-.623-.266-.623-.621.267-.621.623-.621c.326 0 .623.266.623.621zm5.311 0c0 .355-.267.621-.623.621s-.623-.266-.623-.621.267-.621.623-.621.623.266.623.621zm5.282 0c0 .355-.267.621-.623.621s-.623-.266-.623-.621.267-.621.623-.621.623.266.623.621zm-31.81 4.377c0 .355-.267.621-.623.621S0 31.734 0 31.379s.267-.621.623-.621.623.296.623.621zm5.312 0c0 .355-.267.621-.623.621s-.623-.266-.623-.621.267-.621.623-.621c.326 0 .623.296.623.621zm5.282 0c0 .355-.267.621-.623.621s-.623-.266-.623-.621.267-.621.623-.621.623.296.623.621zm5.311 0c0 .355-.267.621-.623.621s-.623-.266-.623-.621.267-.621.623-.621.623.296.623.621zm5.312 0c0 .355-.267.621-.623.621s-.623-.266-.623-.621.267-.621.623-.621c.326 0 .623.296.623.621zm5.311 0c0 .355-.267.621-.623.621s-.623-.266-.623-.621.267-.621.623-.621.623.296.623.621zm5.282 0c0 .355-.267.621-.623.621s-.623-.266-.623-.621.267-.621.623-.621.623.296.623.621z"/></symbol><symbol id="icon-shapes2" viewBox="0 0 61 32"><path fill="#fff" style="fill:var(--color2, #fff)" opacity=".3" d="M53.154 20.04h7.537V0h-20.04v7.479h12.503V20.04z"/><path fill="#fff" style="fill:var(--color2, #fff)" opacity=".3" d="M39.623 33.57h7.479V13.53H27.12v7.537h12.503V33.57z"/><path fill="#fff" style="fill:var(--color2, #fff)" opacity=".3" d="M26.035 47.102h7.536V27.119h-20.04v7.48h12.504v12.504z"/></symbol><symbol id="icon-Group2" viewBox="0 0 40 32"><path fill="#fff" style="fill:var(--color2, #fff)" d="M6.979 0c-18.216 0-32.95 14.735-32.95 32.95 0 18.17 14.735 32.95 32.95 32.95 18.17 0 32.95-14.735 32.95-32.95C39.884 14.735 25.149 0 6.979 0zm0 63.776c-17.04 0-30.826-13.786-30.826-30.826S-10.061 2.124 6.979 2.124 37.805 15.91 37.805 32.95c0 16.995-13.831 30.826-30.826 30.826z"/><path fill="#fff" style="fill:var(--color2, #fff)" d="M6.979 7.096c-14.238 0-25.809 11.571-25.809 25.809S-7.259 58.714 6.979 58.714s25.808-11.526 25.808-25.763c0-14.283-11.571-25.854-25.809-25.854zm0 47.685c-12.068 0-21.876-9.808-21.876-21.876s9.808-21.876 21.876-21.876c12.068 0 21.876 9.808 21.876 21.876S19.047 54.781 6.979 54.781z"/><path fill="#fff" style="fill:var(--color2, #fff)" d="M6.979 18.441c-8 0-14.509 6.509-14.509 14.509s6.464 14.509 14.509 14.509c8 0 14.509-6.509 14.509-14.509-.045-8-6.509-14.509-14.509-14.509zm0 22.283c-4.294 0-7.774-3.48-7.774-7.774s3.48-7.774 7.774-7.774 7.774 3.48 7.774 7.774a7.773 7.773 0 0 1-7.774 7.774z"/></symbol></defs></svg>