<svg aria-hidden="true" style="position:absolute;width:0;height:0;overflow:hidden" xmlns="http://www.w3.org/2000/svg"><defs><symbol id="icon-heart" viewBox="0 0 32 32"><path fill="#ff3f3a" style="fill:var(--color1, #ff3f3a)" d="M16 26.542C9.866 23.05 6.446 19.58 4.794 16.568c-1.694-3.084-1.546-5.68-.606-7.522 1.93-3.788 7.42-5 10.766-.768L15.998 9.6l1.046-1.322c3.346-4.232 8.836-3.02 10.768.768.94 1.842 1.086 4.44-.606 7.52C25.552 19.58 22.132 23.05 16 26.544zm0-21.068c-4.706-4.47-11.648-2.622-14.188 2.36-1.394 2.736-1.414 6.27.644 10.016 2.04 3.714 6.104 7.634 12.898 11.388l.644.358.646-.358c6.794-3.754 10.86-7.674 12.9-11.388 2.056-3.746 2.038-7.28.644-10.016-2.54-4.982-9.484-6.83-14.188-2.36z"/></symbol><symbol id="icon-iPhone" viewBox="0 0 32 32"><path fill="#fff" style="fill:var(--color2, #fff)" d="M11.334 3.898a2 2 0 0 0-2 2v20.208a2 2 0 0 0 2 2h9.332a2 2 0 0 0 2-2V5.898a2 2 0 0 0-2-2h-.11l-.326.78c-.206.485-.679.82-1.23.82h-6a1.335 1.335 0 0 1-1.227-.811l-.003-.009-.326-.78h-.11zm-4.668 2v-.002a4.666 4.666 0 0 1 4.666-4.666H20.668a4.666 4.666 0 0 1 4.666 4.666V26.106a4.666 4.666 0 0 1-4.666 4.666H11.332a4.666 4.666 0 0 1-4.666-4.666V5.898z"/></symbol><symbol id="icon-Mail" viewBox="0 0 32 32"><path fill="#fff" style="fill:var(--color2, #fff)" d="M30.334 24V9.33a4 4 0 0 0-4-4H5.666a4 4 0 0 0-4 4v14.666a4 4 0 0 0 4 4h20.668a4 4 0 0 0 4-4zm-2.668-11.656V24c0 .736-.596 1.333-1.332 1.334H5.666A1.334 1.334 0 0 1 4.334 24V12.344l9.416 6.404c.63.434 1.41.693 2.25.693s1.62-.259 2.264-.702l-.014.009 9.416-6.404zm-.014-3.214-10.895 7.411a1.332 1.332 0 0 1-1.505.003L4.351 9.122a1.334 1.334 0 0 1 1.317-1.124H26.333c.665 0 1.217.487 1.319 1.132z"/></symbol></defs></svg>