<svg aria-hidden="true" style="position: absolute; width: 0; height: 0; overflow: hidden;" version="1.1" xmlns="http://www.w3.org/2000/svg" xmlns:xlink="http://www.w3.org/1999/xlink">
<defs>
<symbol id="icon-calendar" viewBox="0 0 34 32">
<path fill="#787a80" style="fill: var(--color1, #787a80)" d="M10.667 0.713c0.785 0 1.422 0.637 1.422 1.422v0.711l9.956 0v-0.711c0-0.785 0.637-1.422 1.422-1.422s1.422 0.637 1.422 1.422v0.711l1.778 0c3.142 0 5.689 2.547 5.689 5.689v17.067c0 3.142-2.547 5.689-5.689 5.689h-19.2c-3.142 0-5.689-2.547-5.689-5.689v-17.067c0-3.142 2.547-5.689 5.689-5.689h1.778v-0.711c0-0.785 0.637-1.422 1.422-1.422zM9.245 5.69h-1.778c-1.571 0-2.844 1.274-2.844 2.844v1.778h24.889v-1.778c0-1.571-1.274-2.844-2.844-2.844h-1.778v0.711c0 0.785-0.637 1.422-1.422 1.422s-1.422-0.637-1.422-1.422v-0.711l-9.956-0v0.711c0 0.785-0.637 1.422-1.422 1.422s-1.422-0.637-1.422-1.422v-0.711zM29.511 13.157h-24.889v12.445c0 1.571 1.274 2.844 2.844 2.844h19.2c1.571 0 2.844-1.274 2.844-2.845v-12.444z"></path>
</symbol>
<symbol id="icon-clock" viewBox="0 0 34 32">
<path fill="#787a80" style="fill: var(--color1, #787a80)" d="M18.489 8.176c0-0.785-0.637-1.422-1.422-1.422s-1.422 0.637-1.422 1.422v7.822c0 0.377 0.15 0.739 0.417 1.006l4.267 4.267c0.555 0.555 1.456 0.555 2.011 0s0.556-1.456 0-2.011l-3.85-3.85v-7.233z"></path>
<path fill="#787a80" style="fill: var(--color1, #787a80)" d="M17.066 0.354c-8.64 0-15.644 7.004-15.644 15.644s7.004 15.644 15.644 15.644c8.64 0 15.645-7.004 15.645-15.644s-7.004-15.644-15.645-15.644zM4.266 15.999c0-7.069 5.731-12.8 12.8-12.8s12.8 5.731 12.8 12.8c0 7.069-5.731 12.8-12.8 12.8s-12.8-5.731-12.8-12.8z"></path>
</symbol>
<symbol id="icon-Line-left" viewBox="0 0 51 32">
<path d="M19.209 29.886c-1.041 1.041-2.73 1.041-3.771 0l-12-12c-1.041-1.041-1.041-2.73 0-3.771l12-12c1.041-1.041 2.73-1.041 3.771 0s1.041 2.73 0 3.771l-7.448 7.448h36.229c1.473 0 2.667 1.194 2.667 2.667s-1.194 2.667-2.667 2.667h-36.229l7.448 7.448c1.041 1.041 1.041 2.73 0 3.771z"></path>
</symbol>
<symbol id="icon-Line-right" viewBox="0 0 48 32">
<path d="M31.448 2.114c1.041-1.041 2.73-1.041 3.771 0l12 12c1.041 1.041 1.041 2.73 0 3.771l-12 12c-1.041 1.041-2.73 1.041-3.771 0s-1.041-2.73 0-3.771l7.448-7.448h-36.229c-1.473 0-2.667-1.194-2.667-2.667s1.194-2.667 2.667-2.667h36.229l-7.448-7.448c-1.041-1.041-1.041-2.73 0-3.771z"></path>
</symbol>
</defs>
</svg>
