<svg width="105" height="20" viewBox="0 0 105 20" fill="none" xmlns="http://www.w3.org/2000/svg">
<path d="M-0.000183105 10.1008C-0.000183105 4.00078 3.29982 0.300781 8.69982 0.300781C12.7998 0.300781 16.0998 2.80078 16.6998 6.50078C16.7998 6.90078 16.4998 7.20078 16.0998 7.20078H13.4998C13.1998 7.20078 12.9998 7.00078 12.8998 6.70078C12.3998 4.80078 10.7998 3.60078 8.69982 3.60078C5.79982 3.60078 3.99982 6.10078 3.99982 10.1008C3.99982 14.1008 5.79982 16.6008 8.79982 16.6008C10.8998 16.6008 12.3998 15.5008 12.9998 13.7008C13.0998 13.4008 13.2998 13.2008 13.5998 13.2008H16.1998C16.5998 13.2008 16.8998 13.6008 16.7998 13.9008C16.1998 17.5008 12.9998 19.9008 8.79982 19.9008C3.29982 19.9008 -0.000183105 16.1008 -0.000183105 10.1008Z" fill="white"/>
<path d="M24.2995 19.401H21.3995C21.0995 19.401 20.8995 19.201 20.8995 18.901V1.60104C20.8995 1.20104 21.2995 0.801038 21.6995 0.801038H28.6995C32.7995 0.801038 35.2995 3.10104 35.2995 6.70104C35.2995 8.80104 34.2995 10.701 32.5995 11.701C32.1995 11.901 32.0995 12.401 32.2995 12.701L35.3995 18.601C35.5995 18.901 35.2995 19.301 34.9995 19.301H31.6995C31.4995 19.301 31.2995 19.201 31.1995 19.001L28.2995 13.001C28.1995 12.701 27.8995 12.601 27.5995 12.601H25.2995C24.9995 12.601 24.7995 12.801 24.7995 13.101V19.001C24.8995 19.201 24.5995 19.401 24.2995 19.401ZM24.8995 9.20104C24.8995 9.50104 25.0995 9.70104 25.3995 9.70104H28.3995C30.3995 9.70104 31.4995 8.60104 31.4995 6.80104C31.4995 5.00104 30.2995 3.90104 28.3995 3.90104H25.4995C25.1995 3.90104 24.9995 4.10104 24.9995 4.40104V9.20104H24.8995Z" fill="white"/>
<path d="M51.4996 19.401H40.4996C40.0996 19.401 39.7996 19.101 39.7996 18.701V1.50104C39.7996 1.10104 40.0996 0.801038 40.4996 0.801038H51.4996C51.8996 0.801038 52.1996 1.10104 52.1996 1.50104V3.40104C52.1996 3.80104 51.8996 4.10104 51.4996 4.10104H44.1996C43.8996 4.10104 43.6996 4.30104 43.6996 4.60104V8.00104C43.6996 8.30104 43.8996 8.50104 44.1996 8.50104H50.9996C51.3996 8.50104 51.6996 8.80104 51.6996 9.20104V10.901C51.6996 11.301 51.3996 11.601 50.9996 11.601H44.1996C43.8996 11.601 43.6996 11.801 43.6996 12.101V15.901C43.6996 16.201 43.8996 16.401 44.1996 16.401H51.4996C51.8996 16.401 52.1996 16.701 52.1996 17.101V19.001C52.1996 19.101 51.8996 19.401 51.4996 19.401Z" fill="white"/>
<path d="M66.9997 14.901H61.2997C60.9997 14.901 60.7997 15.101 60.6997 15.301L59.5997 19.001C59.4997 19.301 59.2997 19.401 58.9997 19.401H56.3997C55.9997 19.401 55.6997 19.001 55.7997 18.601L61.7997 1.20104C61.8997 1.00104 62.0997 0.801038 62.3997 0.801038H66.0997C66.3997 0.801038 66.5997 1.00104 66.6997 1.20104L72.6997 18.601C72.7997 19.001 72.4997 19.401 72.0997 19.401H69.1997C68.8997 19.401 68.6997 19.201 68.5997 19.001L67.4997 15.301C67.4997 15.101 67.1997 14.901 66.9997 14.901ZM62.0997 12.001H66.1997C66.3997 12.001 66.4997 11.801 66.4997 11.601L64.2997 4.60104H64.0997L61.8997 11.601C61.7997 11.801 61.8997 12.001 62.0997 12.001Z" fill="white"/>
<path d="M78.9999 18.7014V4.50143C78.9999 4.20143 78.7999 4.00143 78.4999 4.00143H74.0999C73.6999 4.00143 73.2999 3.70143 73.2999 3.20143V1.50143C73.2999 1.10143 73.5999 0.701427 74.0999 0.701427H87.6999C88.0999 0.701427 88.4999 1.00143 88.4999 1.50143V3.20143C88.4999 3.60143 88.1999 4.00143 87.6999 4.00143H83.2999C82.9999 4.00143 82.7999 4.20143 82.7999 4.50143V18.8014C82.7999 19.2014 82.4999 19.5014 82.0999 19.5014H79.5999C79.2999 19.4014 78.9999 19.1014 78.9999 18.7014Z" fill="white"/>
<path d="M103.8 19.401H92.7997C92.3997 19.401 92.0997 19.101 92.0997 18.701V1.50104C92.0997 1.10104 92.3997 0.801038 92.7997 0.801038H103.8C104.2 0.801038 104.5 1.10104 104.5 1.50104V3.40104C104.5 3.80104 104.2 4.10104 103.8 4.10104H96.4997C96.1997 4.10104 95.9997 4.30104 95.9997 4.60104V8.00104C95.9997 8.30104 96.1997 8.50104 96.4997 8.50104H103.3C103.7 8.50104 104 8.80104 104 9.20104V10.901C104 11.301 103.7 11.601 103.3 11.601H96.4997C96.1997 11.601 95.9997 11.801 95.9997 12.101V15.901C95.9997 16.201 96.1997 16.401 96.4997 16.401H103.8C104.2 16.401 104.5 16.701 104.5 17.101V19.001C104.5 19.101 104.2 19.401 103.8 19.401Z" fill="white"/>
</svg>
