<svg aria-hidden="true" style="position: absolute; width: 0; height: 0; overflow: hidden;" version="1.1" xmlns="http://www.w3.org/2000/svg" xmlns:xlink="http://www.w3.org/1999/xlink">
    <defs>
        <symbol id="icon-facebook" viewBox="0 0 32 32">
            <path d="M23.417 1.339l-3.703-0.006c-4.16 0-6.849 2.833-6.849 7.219v3.328h-3.723c-0.322 0-0.582 0.268-0.582 0.598v4.823c0 0.33 0.261 0.598 0.582 0.598h3.723v12.169c0 0.331 0.261 0.598 0.582 0.598h4.858c0.322 0 0.582-0.268 0.582-0.598v-12.169h4.353c0.322 0 0.582-0.268 0.582-0.598l0.002-4.823c0-0.159-0.061-0.311-0.171-0.423s-0.258-0.175-0.412-0.175h-4.355v-2.822c0-1.356 0.315-2.045 2.034-2.045l2.495-0.001c0.321 0 0.582-0.268 0.582-0.598v-4.478c0-0.33-0.26-0.598-0.581-0.598z"></path>
        </symbol>
        <symbol id="icon-grid" viewBox="0 0 32 32">
            <path fill="#ff3f3a" style="fill: var(--color2, #ff3f3a)" d="M1.333 4.666c0-1.841 1.492-3.333 3.333-3.333h6.667c1.841 0 3.333 1.492 3.333 3.333v6.667c0 1.841-1.492 3.333-3.333 3.333h-6.667c-1.841 0-3.333-1.492-3.333-3.333v-6.667zM4.667 3.999c-0.368 0-0.667 0.298-0.667 0.667v6.667c0 0.368 0.298 0.667 0.667 0.667h6.667c0.368 0 0.667-0.298 0.667-0.667v-6.667c0-0.368-0.298-0.667-0.667-0.667h-6.667z"></path>
            <path fill="#ff3f3a" style="fill: var(--color2, #ff3f3a)" d="M1.333 20.666c0-1.841 1.492-3.333 3.333-3.333h6.667c1.841 0 3.333 1.492 3.333 3.333v6.667c0 1.841-1.492 3.333-3.333 3.333h-6.667c-1.841 0-3.333-1.492-3.333-3.333v-6.667zM4.667 20c-0.368 0-0.667 0.298-0.667 0.667v6.667c0 0.368 0.298 0.667 0.667 0.667h6.667c0.368 0 0.667-0.299 0.667-0.667v-6.667c0-0.368-0.298-0.667-0.667-0.667h-6.667z"></path>
            <path fill="#ff3f3a" style="fill: var(--color2, #ff3f3a)" d="M17.333 4.666c0-1.841 1.492-3.333 3.333-3.333h6.667c1.841 0 3.333 1.492 3.333 3.333v6.667c0 1.841-1.492 3.333-3.333 3.333h-6.667c-1.841 0-3.333-1.492-3.333-3.333v-6.667zM20.667 3.999c-0.368 0-0.667 0.298-0.667 0.667v6.667c0 0.368 0.299 0.667 0.667 0.667h6.667c0.368 0 0.667-0.298 0.667-0.667v-6.667c0-0.368-0.298-0.667-0.667-0.667h-6.667z"></path>
            <path fill="#ff3f3a" style="fill: var(--color2, #ff3f3a)" d="M17.333 20.666c0-1.841 1.492-3.333 3.333-3.333h6.667c1.841 0 3.333 1.492 3.333 3.333v6.667c0 1.841-1.492 3.333-3.333 3.333h-6.667c-1.841 0-3.333-1.492-3.333-3.333v-6.667zM20.667 20c-0.368 0-0.667 0.298-0.667 0.667v6.667c0 0.368 0.299 0.667 0.667 0.667h6.667c0.368 0 0.667-0.299 0.667-0.667v-6.667c0-0.368-0.298-0.667-0.667-0.667h-6.667z"></path>
        </symbol>
        <symbol id="icon-heart" viewBox="0 0 32 32">
            <path fill="#ff3f3a" style="fill: var(--color2, #ff3f3a)" d="M15.999 26.543c-6.132-3.493-9.552-6.964-11.206-9.976-1.693-3.083-1.545-5.679-0.606-7.522 1.931-3.788 7.421-4.999 10.766-0.768l1.046 1.323 1.046-1.323c3.346-4.231 8.836-3.019 10.767 0.768 0.939 1.843 1.087 4.439-0.606 7.522-1.654 3.012-5.074 6.483-11.207 9.976zM15.999 5.475c-4.706-4.471-11.647-2.623-14.188 2.36-1.394 2.735-1.413 6.27 0.644 10.016 2.039 3.713 6.104 7.633 12.898 11.388l0.645 0.356 0.645-0.356c6.795-3.755 10.86-7.675 12.899-11.388 2.057-3.746 2.038-7.281 0.644-10.016-2.54-4.983-9.482-6.831-14.188-2.36z"></path>
        </symbol>
        <symbol id="icon-instagram" viewBox="0 0 32 32">
            <path d="M29.307 10.507c-0.062-1.417-0.292-2.391-0.62-3.235-0.339-0.896-0.86-1.698-1.542-2.365-0.667-0.677-1.474-1.203-2.36-1.537-0.849-0.328-1.818-0.557-3.235-0.62-1.428-0.068-1.881-0.083-5.501-0.083s-4.074 0.016-5.496 0.078c-1.417 0.062-2.391 0.292-3.235 0.62-0.896 0.339-1.698 0.86-2.365 1.542-0.677 0.667-1.203 1.474-1.537 2.36-0.328 0.849-0.557 1.818-0.62 3.235-0.068 1.427-0.083 1.881-0.083 5.501s0.016 4.074 0.078 5.496c0.062 1.417 0.292 2.391 0.62 3.235 0.339 0.896 0.865 1.698 1.542 2.365 0.667 0.677 1.474 1.203 2.36 1.537 0.849 0.328 1.818 0.557 3.235 0.62 1.422 0.063 1.875 0.078 5.496 0.078s4.074-0.015 5.496-0.078c1.417-0.062 2.391-0.292 3.235-0.62 1.792-0.693 3.209-2.11 3.902-3.902 0.328-0.849 0.557-1.818 0.62-3.235 0.063-1.422 0.078-1.875 0.078-5.496s-0.005-4.074-0.068-5.496zM26.906 21.394c-0.057 1.302-0.276 2.006-0.459 2.474-0.448 1.162-1.37 2.084-2.532 2.532-0.469 0.182-1.177 0.401-2.475 0.458-1.406 0.063-1.828 0.078-5.386 0.078s-3.985-0.015-5.387-0.078c-1.302-0.057-2.006-0.276-2.474-0.458-0.578-0.214-1.104-0.552-1.531-0.995-0.443-0.432-0.781-0.953-0.995-1.531-0.182-0.469-0.401-1.177-0.458-2.474-0.063-1.407-0.078-1.829-0.078-5.387s0.015-3.985 0.078-5.386c0.057-1.302 0.276-2.006 0.458-2.474 0.214-0.578 0.552-1.104 1-1.532 0.432-0.443 0.953-0.781 1.531-0.995 0.469-0.182 1.177-0.401 2.474-0.458 1.407-0.062 1.829-0.078 5.386-0.078 3.563 0 3.985 0.016 5.387 0.078 1.302 0.057 2.006 0.276 2.474 0.458 0.578 0.213 1.104 0.552 1.531 0.995 0.443 0.432 0.781 0.953 0.995 1.532 0.182 0.469 0.401 1.177 0.459 2.474 0.062 1.407 0.078 1.828 0.078 5.386s-0.016 3.975-0.078 5.381z"></path>
            <path d="M16.049 9.152c-3.782 0-6.85 3.068-6.85 6.85s3.068 6.85 6.85 6.85c3.782 0 6.85-3.068 6.85-6.85s-3.068-6.85-6.85-6.85zM16.049 20.446c-2.453 0-4.444-1.99-4.444-4.444s1.99-4.444 4.444-4.444c2.454 0 4.444 1.99 4.444 4.444s-1.99 4.444-4.444 4.444z"></path>
            <path d="M24.77 8.881c0 0.883-0.716 1.599-1.599 1.599s-1.599-0.716-1.599-1.599c0-0.883 0.716-1.599 1.599-1.599s1.599 0.716 1.599 1.599z"></path>
        </symbol>
        <symbol id="icon-iphone" viewBox="0 0 32 32">
            <path fill="#fff" style="fill: var(--color1, #fff)" d="M11.333 3.897c-1.105 0-2 0.895-2 2v20.208c0 1.105 0.895 2 2 2h9.333c1.105 0 2-0.895 2-2v-20.208c0-1.105-0.895-2-2-2h-0.111l-0.325 0.779c-0.207 0.497-0.692 0.82-1.231 0.82h-6c-0.538 0-1.024-0.324-1.231-0.82l-0.325-0.779h-0.111zM6.667 5.897c0-2.577 2.089-4.667 4.667-4.667h9.333c2.577 0 4.667 2.089 4.667 4.667v20.208c0 2.577-2.089 4.667-4.667 4.667h-9.333c-2.577 0-4.667-2.089-4.667-4.667v-20.208z"></path>
        </symbol>
        <symbol id="icon-linked-in" viewBox="0 0 32 32">
            <path d="M29.327 29.333l0.007-0.001v-9.78c0-4.785-1.030-8.47-6.623-8.47-2.689 0-4.493 1.476-5.23 2.874h-0.078v-2.428h-5.303v17.803h5.522v-8.816c0-2.321 0.44-4.566 3.315-4.566 2.832 0 2.874 2.649 2.874 4.715v8.668h5.517z"></path>
            <path d="M3.107 11.53h5.529v17.803h-5.529v-17.803z"></path>
            <path d="M5.869 2.667c-1.768 0-3.202 1.434-3.202 3.202s1.434 3.232 3.202 3.232c1.768 0 3.202-1.464 3.202-3.232-0.001-1.768-1.436-3.202-3.202-3.202z"></path>
        </symbol>
        <symbol id="icon-list" viewBox="0 0 32 32">
            <path fill="#424551" style="fill: var(--color3, #424551)" d="M1.333 4.666c0-1.841 1.492-3.333 3.333-3.333h22.667c1.841 0 3.333 1.492 3.333 3.333v6.667c0 1.841-1.492 3.333-3.333 3.333h-22.667c-1.841 0-3.333-1.492-3.333-3.333v-6.667zM4.667 3.999c-0.368 0-0.667 0.298-0.667 0.667v6.667c0 0.368 0.298 0.667 0.667 0.667h22.667c0.368 0 0.667-0.298 0.667-0.667v-6.667c0-0.368-0.298-0.667-0.667-0.667h-22.667z"></path>
            <path fill="#424551" style="fill: var(--color3, #424551)" d="M1.333 20.666c0-1.841 1.492-3.333 3.333-3.333h22.667c1.841 0 3.333 1.492 3.333 3.333v6.667c0 1.841-1.492 3.333-3.333 3.333h-22.667c-1.841 0-3.333-1.492-3.333-3.333v-6.667zM4.667 20c-0.368 0-0.667 0.298-0.667 0.667v6.667c0 0.368 0.298 0.667 0.667 0.667h22.667c0.368 0 0.667-0.299 0.667-0.667v-6.667c0-0.368-0.298-0.667-0.667-0.667h-22.667z"></path>
        </symbol>
        <symbol id="icon-logo-footer" viewBox="0 0 189 32">
            <path fill="#fff" style="fill: var(--color1, #fff)" d="M-0 16.147c0-8.873 4.8-14.255 12.655-14.255 5.964 0 10.764 3.636 11.636 9.018 0.145 0.582-0.291 1.018-0.873 1.018h-3.782c-0.436 0-0.727-0.291-0.873-0.727-0.727-2.764-3.055-4.509-6.109-4.509-4.218 0-6.836 3.636-6.836 9.455s2.618 9.455 6.982 9.455c3.055 0 5.236-1.6 6.109-4.218 0.145-0.436 0.436-0.727 0.873-0.727h3.782c0.582 0 1.018 0.582 0.873 1.018-0.873 5.236-5.527 8.727-11.636 8.727-8 0-12.8-5.527-12.8-14.255z"></path>
            <path fill="#fff" style="fill: var(--color1, #fff)" d="M35.345 29.674h-4.218c-0.436 0-0.727-0.291-0.727-0.727v-25.164c0-0.582 0.582-1.164 1.164-1.164h10.182c5.964 0 9.6 3.345 9.6 8.582 0 3.055-1.455 5.818-3.927 7.273-0.582 0.291-0.727 1.018-0.436 1.455l4.509 8.582c0.291 0.436-0.145 1.018-0.582 1.018h-4.8c-0.291 0-0.582-0.145-0.727-0.436l-4.218-8.727c-0.145-0.436-0.582-0.582-1.018-0.582h-3.345c-0.436 0-0.727 0.291-0.727 0.727v8.582c0.145 0.291-0.291 0.582-0.727 0.582zM36.217 14.838c0 0.436 0.291 0.727 0.727 0.727h4.364c2.909 0 4.509-1.6 4.509-4.218s-1.745-4.218-4.509-4.218h-4.218c-0.436 0-0.727 0.291-0.727 0.727v6.982h-0.145z"></path>
            <path fill="#fff" style="fill: var(--color1, #fff)" d="M74.909 29.674h-16c-0.582 0-1.018-0.436-1.018-1.018v-25.018c0-0.582 0.436-1.018 1.018-1.018h16c0.582 0 1.018 0.436 1.018 1.018v2.764c0 0.582-0.436 1.018-1.018 1.018h-10.618c-0.436 0-0.727 0.291-0.727 0.727v4.945c0 0.436 0.291 0.727 0.727 0.727h9.891c0.582 0 1.018 0.436 1.018 1.018v2.473c0 0.582-0.436 1.018-1.018 1.018h-9.891c-0.436 0-0.727 0.291-0.727 0.727v5.527c0 0.436 0.291 0.727 0.727 0.727h10.618c0.582 0 1.018 0.436 1.018 1.018v2.764c0 0.145-0.436 0.582-1.018 0.582z"></path>
            <path fill="#fff" style="fill: var(--color1, #fff)" d="M97.454 23.129h-8.291c-0.436 0-0.727 0.291-0.873 0.582l-1.6 5.382c-0.145 0.436-0.436 0.582-0.873 0.582h-3.782c-0.582 0-1.018-0.582-0.873-1.164l8.727-25.309c0.145-0.291 0.436-0.582 0.873-0.582h5.382c0.436 0 0.727 0.291 0.873 0.582l8.727 25.309c0.145 0.582-0.291 1.164-0.873 1.164h-4.218c-0.436 0-0.727-0.291-0.873-0.582l-1.6-5.382c0-0.291-0.436-0.582-0.727-0.582zM90.327 18.911h5.964c0.291 0 0.436-0.291 0.436-0.582l-3.2-10.182h-0.291l-3.2 10.182c-0.145 0.291 0 0.582 0.291 0.582z"></path>
            <path fill="#fff" style="fill: var(--color1, #fff)" d="M114.909 28.657v-20.654c0-0.436-0.291-0.727-0.727-0.727h-6.4c-0.582 0-1.164-0.436-1.164-1.164v-2.473c0-0.582 0.436-1.164 1.164-1.164h19.782c0.582 0 1.164 0.436 1.164 1.164v2.473c0 0.582-0.436 1.164-1.164 1.164h-6.4c-0.436 0-0.727 0.291-0.727 0.727v20.8c0 0.582-0.436 1.018-1.018 1.018h-3.636c-0.436-0.145-0.873-0.582-0.873-1.164z"></path>
            <path fill="#fff" style="fill: var(--color1, #fff)" d="M150.982 29.674h-16c-0.582 0-1.018-0.436-1.018-1.018v-25.018c0-0.582 0.436-1.018 1.018-1.018h16c0.582 0 1.018 0.436 1.018 1.018v2.764c0 0.582-0.436 1.018-1.018 1.018h-10.619c-0.436 0-0.727 0.291-0.727 0.727v4.945c0 0.436 0.291 0.727 0.727 0.727h9.891c0.582 0 1.018 0.436 1.018 1.018v2.473c0 0.582-0.436 1.018-1.018 1.018h-9.891c-0.436 0-0.727 0.291-0.727 0.727v5.527c0 0.436 0.291 0.727 0.727 0.727h10.619c0.582 0 1.018 0.436 1.018 1.018v2.764c0 0.145-0.436 0.582-1.018 0.582z"></path>
            <path fill="#ff3f3a" style="fill: var(--color2, #ff3f3a)" d="M171.2 14.109l-9.018-11.782c-0.582-0.582-1.309-0.873-2.036-0.873s-1.455 0.291-2.036 0.873c-1.018 1.164-1.018 2.909 0 4.073l7.127 9.6-7.127 9.6c-1.018 1.164-1.018 2.909 0 4.073 0.582 0.582 1.309 0.873 2.036 0.873s1.455-0.291 2.036-0.873l9.018-11.782c1.018-0.873 1.018-2.618 0-3.782z"></path>
            <path fill="#ff3f3a" style="fill: var(--color2, #ff3f3a)" d="M175.044 14.109l9.018-11.782c0.582-0.582 1.309-0.873 2.036-0.873s1.455 0.291 2.036 0.873c1.018 1.164 1.018 2.909 0 4.073l-7.127 9.6 7.127 9.6c1.018 1.164 1.018 2.909 0 4.073-0.582 0.582-1.309 0.873-2.036 0.873s-1.455-0.291-2.036-0.873l-9.018-11.782c-1.018-0.873-1.018-2.618 0-3.782z"></path>
        </symbol>
        <symbol id="icon-logo" viewBox="0 0 189 32">
            <path fill="#1e212c" style="fill: var(--color4, #1e212c)" d="M-0 16.145c0-8.873 4.8-14.255 12.655-14.255 5.964 0 10.764 3.636 11.636 9.018 0.145 0.582-0.291 1.018-0.873 1.018h-3.782c-0.436 0-0.727-0.291-0.873-0.727-0.727-2.764-3.055-4.509-6.109-4.509-4.218 0-6.836 3.636-6.836 9.455s2.618 9.455 6.982 9.455c3.055 0 5.236-1.6 6.109-4.218 0.145-0.436 0.436-0.727 0.873-0.727h3.782c0.582 0 1.018 0.582 0.873 1.018-0.873 5.236-5.527 8.727-11.636 8.727-8 0-12.8-5.527-12.8-14.255z"></path>
            <path fill="#1e212c" style="fill: var(--color4, #1e212c)" d="M35.345 29.673h-4.218c-0.436 0-0.727-0.291-0.727-0.727v-25.164c0-0.582 0.582-1.164 1.164-1.164h10.182c5.964 0 9.6 3.345 9.6 8.582 0 3.055-1.455 5.818-3.927 7.273-0.582 0.291-0.727 1.018-0.436 1.455l4.509 8.582c0.291 0.436-0.145 1.018-0.582 1.018h-4.8c-0.291 0-0.582-0.145-0.727-0.436l-4.218-8.727c-0.145-0.436-0.582-0.582-1.018-0.582h-3.345c-0.436 0-0.727 0.291-0.727 0.727v8.582c0.145 0.291-0.291 0.582-0.727 0.582zM36.217 14.836c0 0.436 0.291 0.727 0.727 0.727h4.364c2.909 0 4.509-1.6 4.509-4.218s-1.745-4.218-4.509-4.218h-4.218c-0.436 0-0.727 0.291-0.727 0.727v6.982h-0.145z"></path>
            <path fill="#1e212c" style="fill: var(--color4, #1e212c)" d="M74.909 29.673h-16c-0.582 0-1.018-0.436-1.018-1.018v-25.018c0-0.582 0.436-1.018 1.018-1.018h16c0.582 0 1.018 0.436 1.018 1.018v2.764c0 0.582-0.436 1.018-1.018 1.018h-10.618c-0.436 0-0.727 0.291-0.727 0.727v4.945c0 0.436 0.291 0.727 0.727 0.727h9.891c0.582 0 1.018 0.436 1.018 1.018v2.473c0 0.582-0.436 1.018-1.018 1.018h-9.891c-0.436 0-0.727 0.291-0.727 0.727v5.527c0 0.436 0.291 0.727 0.727 0.727h10.618c0.582 0 1.018 0.436 1.018 1.018v2.764c0 0.145-0.436 0.582-1.018 0.582z"></path>
            <path fill="#1e212c" style="fill: var(--color4, #1e212c)" d="M97.454 23.127h-8.291c-0.436 0-0.727 0.291-0.873 0.582l-1.6 5.382c-0.145 0.436-0.436 0.582-0.873 0.582h-3.782c-0.582 0-1.018-0.582-0.873-1.164l8.727-25.309c0.145-0.291 0.436-0.582 0.873-0.582h5.382c0.436 0 0.727 0.291 0.873 0.582l8.727 25.309c0.145 0.582-0.291 1.164-0.873 1.164h-4.218c-0.436 0-0.727-0.291-0.873-0.582l-1.6-5.382c0-0.291-0.436-0.582-0.727-0.582zM90.327 18.909h5.964c0.291 0 0.436-0.291 0.436-0.582l-3.2-10.182h-0.291l-3.2 10.182c-0.145 0.291 0 0.582 0.291 0.582z"></path>
            <path fill="#1e212c" style="fill: var(--color4, #1e212c)" d="M114.909 28.655v-20.655c0-0.436-0.291-0.727-0.727-0.727h-6.4c-0.582 0-1.164-0.436-1.164-1.164v-2.473c0-0.582 0.436-1.164 1.164-1.164h19.782c0.582 0 1.164 0.436 1.164 1.164v2.473c0 0.582-0.436 1.164-1.164 1.164h-6.4c-0.436 0-0.727 0.291-0.727 0.727v20.8c0 0.582-0.436 1.018-1.018 1.018h-3.636c-0.436-0.146-0.873-0.582-0.873-1.164z"></path>
            <path fill="#1e212c" style="fill: var(--color4, #1e212c)" d="M150.982 29.673h-16c-0.582 0-1.018-0.436-1.018-1.018v-25.018c0-0.582 0.436-1.018 1.018-1.018h16c0.582 0 1.018 0.436 1.018 1.018v2.764c0 0.582-0.436 1.018-1.018 1.018h-10.619c-0.436 0-0.727 0.291-0.727 0.727v4.945c0 0.436 0.291 0.727 0.727 0.727h9.891c0.582 0 1.018 0.436 1.018 1.018v2.473c0 0.582-0.436 1.018-1.018 1.018h-9.891c-0.436 0-0.727 0.291-0.727 0.727v5.527c0 0.436 0.291 0.727 0.727 0.727h10.619c0.582 0 1.018 0.436 1.018 1.018v2.764c0 0.145-0.436 0.582-1.018 0.582z"></path>
            <path fill="#ff3f3a" style="fill: var(--color2, #ff3f3a)" d="M171.2 14.109l-9.018-11.782c-0.582-0.582-1.309-0.873-2.036-0.873s-1.455 0.291-2.036 0.873c-1.018 1.164-1.018 2.909 0 4.073l7.127 9.6-7.127 9.6c-1.018 1.164-1.018 2.909 0 4.073 0.582 0.582 1.309 0.873 2.036 0.873s1.455-0.291 2.036-0.873l9.018-11.782c1.018-0.873 1.018-2.618 0-3.782z"></path>
            <path fill="#ff3f3a" style="fill: var(--color2, #ff3f3a)" d="M175.044 14.109l9.018-11.782c0.582-0.582 1.309-0.873 2.036-0.873s1.455 0.291 2.036 0.873c1.018 1.164 1.018 2.909 0 4.073l-7.127 9.6 7.127 9.6c1.018 1.164 1.018 2.909 0 4.073-0.582 0.582-1.309 0.873-2.036 0.873s-1.455-0.291-2.036-0.873l-9.018-11.782c-1.018-0.873-1.018-2.618 0-3.782z"></path>
        </symbol>
        <symbol id="icon-mail" viewBox="0 0 32 32">
            <path fill="#fff" style="fill: var(--color1, #fff)" d="M30.333 23.999v-14.667c0-2.209-1.791-4-4-4l-20.667 0c-2.209 0-4 1.791-4 4v14.667c0 2.209 1.791 4 4 4h20.667c2.209 0 4-1.791 4-4zM27.667 12.345v11.654c0 0.736-0.597 1.333-1.333 1.333h-20.667c-0.736 0-1.333-0.597-1.333-1.333v-11.654l9.418 6.404c1.357 0.923 3.141 0.923 4.498 0l9.417-6.404zM27.652 9.13l-10.902 7.413c-0.452 0.308-1.047 0.308-1.499 0l-10.902-7.413c0.097-0.64 0.65-1.131 1.318-1.131l20.667-0c0.668 0 1.221 0.491 1.318 1.131z"></path>
        </symbol>
        <symbol id="icon-person" viewBox="0 0 32 32">
            <path fill="#424551" style="fill: var(--color3, #424551)" d="M16 3.038c-2.864 0-5.185 2.321-5.185 5.185s2.321 5.185 5.185 5.185c2.864 0 5.185-2.321 5.185-5.185s-2.321-5.185-5.185-5.185zM7.852 8.223c0-4.5 3.648-8.148 8.148-8.148s8.148 3.648 8.148 8.148-3.648 8.148-8.148 8.148c-4.5 0-8.148-3.648-8.148-8.148z"></path>
            <path fill="#424551" style="fill: var(--color3, #424551)" d="M7.265 20.815c-1.027 0-1.83 0.5-2.156 1.219-0.451 0.994-0.859 2.178-0.956 3.302-0.043 0.502 0.166 0.872 0.455 1.051 1.525 0.947 5.058 2.577 11.392 2.577s9.867-1.63 11.392-2.577c0.288-0.179 0.498-0.549 0.455-1.051-0.096-1.123-0.505-2.307-0.956-3.302-0.326-0.719-1.129-1.219-2.156-1.219h-17.47zM2.411 20.81c0.901-1.986 2.912-2.958 4.854-2.958h17.47c1.942 0 3.954 0.972 4.854 2.958 0.517 1.141 1.072 2.674 1.21 4.272 0.125 1.455-0.48 2.974-1.843 3.821-2.005 1.246-6.082 3.023-12.955 3.023s-10.95-1.777-12.955-3.023c-1.363-0.847-1.968-2.366-1.843-3.821 0.137-1.598 0.692-3.131 1.21-4.272z"></path>
        </symbol>
        <symbol id="icon-right" viewBox="0 0 32 32">
            <path fill="#fff" style="fill: var(--color1, #fff)" d="M19.724 9.059c0.521-0.521 1.365-0.521 1.886 0l6 6c0.521 0.521 0.521 1.365 0 1.886l-6 6c-0.521 0.521-1.365 0.521-1.886 0s-0.521-1.365 0-1.886l3.724-3.724h-18.114c-0.736 0-1.333-0.597-1.333-1.333s0.597-1.333 1.333-1.333h18.114l-3.724-3.724c-0.521-0.521-0.521-1.365 0-1.886z"></path>
        </symbol>
        <symbol id="icon-subtract" viewBox="0 0 43 32">
            <path fill="#fff" style="fill: var(--color1, #fff)" d="M38.027 1.98c1.827 0.492 3.268 1.933 3.76 3.761 0.914 3.339 0.879 10.297 0.879 10.297s0 6.924-0.879 10.262c-0.492 1.827-1.933 3.268-3.761 3.76-3.339 0.879-16.694 0.879-16.694 0.879s-13.32 0-16.694-0.914c-1.828-0.492-3.269-1.933-3.761-3.761-0.879-3.304-0.879-10.262-0.879-10.262s0-6.924 0.879-10.262c0.492-1.827 1.968-3.304 3.76-3.796 3.339-0.879 16.694-0.879 16.694-0.879s13.355 0 16.694 0.914zM28.186 16.003l-11.106 6.396v-12.793l11.106 6.396z"></path>
        </symbol>
        <symbol id="icon-telegram" viewBox="0 0 32 32">
            <path d="M12.844 20.242l-0.485 7.445c0.694 0 0.995-0.325 1.355-0.716l3.255-3.393 6.744 5.388c1.237 0.752 2.108 0.356 2.442-1.241l4.427-22.629 0.001-0.001c0.392-1.995-0.661-2.775-1.866-2.285l-26.022 10.868c-1.776 0.752-1.749 1.832-0.302 2.321l6.653 2.257 15.453-10.548c0.727-0.525 1.388-0.235 0.845 0.291l-12.5 12.244z"></path>
        </symbol>
        <symbol id="icon-twitter" viewBox="0 0 32 32">
            <path d="M31.939 6.092c-1.18 0.519-2.44 0.872-3.767 1.033 1.352-0.815 2.392-2.099 2.884-3.631-1.268 0.74-2.673 1.279-4.169 1.579-1.195-1.279-2.897-2.079-4.788-2.079-3.623 0-6.56 2.937-6.56 6.556 0 0.52 0.060 1.020 0.169 1.499-5.453-0.257-10.287-2.876-13.521-6.835-0.569 0.963-0.888 2.081-0.888 3.3 0 2.28 1.16 4.284 2.917 5.461-1.076-0.035-2.088-0.331-2.971-0.821v0.081c0 3.18 2.257 5.832 5.261 6.436-0.551 0.148-1.132 0.228-1.728 0.228-0.419 0-0.82-0.040-1.221-0.115 0.841 2.604 3.26 4.503 6.139 4.556-2.24 1.759-5.079 2.807-8.136 2.807-0.52 0-1.039-0.031-1.56-0.089 2.919 1.859 6.357 2.945 10.076 2.945 12.072 0 18.665-9.995 18.665-18.648 0-0.279 0-0.56-0.020-0.84 1.281-0.919 2.4-2.080 3.28-3.397z"></path>
        </symbol>
        <symbol id="icon-vector-stroke" viewBox="0 0 37 32">
            <path fill="#ff3f3a" style="fill: var(--color2, #ff3f3a)" d="M18.285 28.049c-7.008-3.992-10.917-7.959-12.807-11.401-1.934-3.523-1.766-6.49-0.692-8.596 2.206-4.329 8.481-5.713 12.304-0.878l1.195 1.512 1.195-1.512c3.823-4.835 10.098-3.451 12.305 0.878 1.074 2.106 1.242 5.073-0.692 8.596-1.89 3.442-5.799 7.409-12.807 11.401zM18.285 3.971c-5.378-5.11-13.311-2.998-16.214 2.697-1.593 3.126-1.615 7.165 0.736 11.447 2.33 4.244 6.976 8.723 14.741 13.015l0.737 0.407 0.737-0.407c7.765-4.292 12.411-8.771 14.742-13.015 2.351-4.282 2.33-8.322 0.736-11.447-2.903-5.695-10.837-7.807-16.215-2.697z"></path>
        </symbol>
        <symbol id="icon-vector" viewBox="0 0 32 32">
            <path fill="#ff3f3a" style="fill: var(--color2, #ff3f3a)" d="M1.333 4.666c0-1.841 1.492-3.333 3.333-3.333h6.667c1.841 0 3.333 1.492 3.333 3.333v6.667c0 1.841-1.492 3.333-3.333 3.333h-6.667c-1.841 0-3.333-1.492-3.333-3.333v-6.667zM4.667 3.999c-0.368 0-0.667 0.298-0.667 0.667v6.667c0 0.368 0.298 0.667 0.667 0.667h6.667c0.368 0 0.667-0.298 0.667-0.667v-6.667c0-0.368-0.298-0.667-0.667-0.667h-6.667z"></path>
            <path fill="#ff3f3a" style="fill: var(--color2, #ff3f3a)" d="M1.333 20.666c0-1.841 1.492-3.333 3.333-3.333h6.667c1.841 0 3.333 1.492 3.333 3.333v6.667c0 1.841-1.492 3.333-3.333 3.333h-6.667c-1.841 0-3.333-1.492-3.333-3.333v-6.667zM4.667 20c-0.368 0-0.667 0.298-0.667 0.667v6.667c0 0.368 0.298 0.667 0.667 0.667h6.667c0.368 0 0.667-0.299 0.667-0.667v-6.667c0-0.368-0.298-0.667-0.667-0.667h-6.667z"></path>
            <path fill="#ff3f3a" style="fill: var(--color2, #ff3f3a)" d="M17.333 4.666c0-1.841 1.492-3.333 3.333-3.333h6.667c1.841 0 3.333 1.492 3.333 3.333v6.667c0 1.841-1.492 3.333-3.333 3.333h-6.667c-1.841 0-3.333-1.492-3.333-3.333v-6.667zM20.667 3.999c-0.368 0-0.667 0.298-0.667 0.667v6.667c0 0.368 0.299 0.667 0.667 0.667h6.667c0.368 0 0.667-0.298 0.667-0.667v-6.667c0-0.368-0.298-0.667-0.667-0.667h-6.667z"></path>
            <path fill="#ff3f3a" style="fill: var(--color2, #ff3f3a)" d="M17.333 20.666c0-1.841 1.492-3.333 3.333-3.333h6.667c1.841 0 3.333 1.492 3.333 3.333v6.667c0 1.841-1.492 3.333-3.333 3.333h-6.667c-1.841 0-3.333-1.492-3.333-3.333v-6.667zM20.667 20c-0.368 0-0.667 0.298-0.667 0.667v6.667c0 0.368 0.299 0.667 0.667 0.667h6.667c0.368 0 0.667-0.299 0.667-0.667v-6.667c0-0.368-0.298-0.667-0.667-0.667h-6.667z"></path>
        </symbol>
        <symbol id="icon-right-g" viewBox="0 0 32 32">
            <path d="M19.724 9.057c0.521-0.521 1.365-0.521 1.886 0l6 6c0.521 0.521 0.521 1.365 0 1.886l-6 6c-0.521 0.521-1.365 0.521-1.886 0s-0.521-1.365 0-1.886l3.724-3.724h-18.114c-0.736 0-1.333-0.597-1.333-1.333s0.597-1.333 1.333-1.333h18.114l-3.724-3.724c-0.521-0.521-0.521-1.365 0-1.886z"></path>
        </symbol>
        <symbol id="icon-youtube" viewBox="0 0 32 32">
            <path d="M31.327 8.273c-0.386-1.353-1.431-2.398-2.756-2.777l-0.028-0.007c-2.493-0.668-12.528-0.668-12.528-0.668s-10.009-0.013-12.528 0.668c-1.353 0.386-2.398 1.431-2.777 2.756l-0.007 0.028c-0.443 2.281-0.696 4.903-0.696 7.585 0 0.054 0 0.109 0 0.163l-0-0.008c-0 0.037-0 0.082-0 0.126 0 2.682 0.253 5.304 0.737 7.845l-0.041-0.26c0.386 1.353 1.431 2.398 2.756 2.777l0.028 0.007c2.491 0.669 12.528 0.669 12.528 0.669s10.008 0 12.528-0.669c1.353-0.386 2.398-1.431 2.777-2.756l0.007-0.028c0.425-2.233 0.668-4.803 0.668-7.429 0-0.099-0-0.198-0.001-0.297l0 0.015c0.001-0.092 0.001-0.201 0.001-0.31 0-2.626-0.243-5.196-0.708-7.687l0.040 0.258zM12.812 20.801v-9.591l8.352 4.803z"></path>
        </symbol>
        <symbol id="icon-youtube-play" viewBox="0 0 28 28">
            <path d="M11.109 17.625l7.562-3.906-7.562-3.953v7.859zM14 4.156c5.891 0 9.797 0.281 9.797 0.281 0.547 0.063 1.75 0.063 2.812 1.188 0 0 0.859 0.844 1.109 2.781 0.297 2.266 0.281 4.531 0.281 4.531v2.125s0.016 2.266-0.281 4.531c-0.25 1.922-1.109 2.781-1.109 2.781-1.062 1.109-2.266 1.109-2.812 1.172 0 0-3.906 0.297-9.797 0.297v0c-7.281-0.063-9.516-0.281-9.516-0.281-0.625-0.109-2.031-0.078-3.094-1.188 0 0-0.859-0.859-1.109-2.781-0.297-2.266-0.281-4.531-0.281-4.531v-2.125s-0.016-2.266 0.281-4.531c0.25-1.937 1.109-2.781 1.109-2.781 1.062-1.125 2.266-1.125 2.812-1.188 0 0 3.906-0.281 9.797-0.281v0z"></path>
        </symbol>
        <symbol id="icon-youtube1" viewBox="0 0 32 32">
            <path d="M31.681 9.6c0 0-0.313-2.206-1.275-3.175-1.219-1.275-2.581-1.281-3.206-1.356-4.475-0.325-11.194-0.325-11.194-0.325h-0.012c0 0-6.719 0-11.194 0.325-0.625 0.075-1.987 0.081-3.206 1.356-0.963 0.969-1.269 3.175-1.269 3.175s-0.319 2.588-0.319 5.181v2.425c0 2.587 0.319 5.181 0.319 5.181s0.313 2.206 1.269 3.175c1.219 1.275 2.819 1.231 3.531 1.369 2.563 0.244 10.881 0.319 10.881 0.319s6.725-0.012 11.2-0.331c0.625-0.075 1.988-0.081 3.206-1.356 0.962-0.969 1.275-3.175 1.275-3.175s0.319-2.587 0.319-5.181v-2.425c-0.006-2.588-0.325-5.181-0.325-5.181zM12.694 20.15v-8.994l8.644 4.513-8.644 4.481z"></path>
        </symbol>
    </defs>
</svg>