<svg width="16" height="14" viewBox="0 0 16 14" fill="none" xmlns="http://www.w3.org/2000/svg">
<path fill-rule="evenodd" clip-rule="evenodd" d="M7.99962 12.2715C4.93358 10.5252 3.22354 8.78955 2.39663 7.28361C1.55029 5.74228 1.62413 4.4441 2.09377 3.52273C3.05908 1.62892 5.80415 1.02333 7.47666 3.13865L7.99958 3.80001L8.52254 3.13868C10.1953 1.02327 12.9406 1.62896 13.9058 3.52273C14.3755 4.44409 14.4493 5.74226 13.6029 7.28359C12.7759 8.78954 11.0658 10.5252 7.99962 12.2715ZM7.99964 1.73726C5.64684 -0.498482 2.17591 0.425546 0.905854 2.91723C0.208826 4.2847 0.199305 6.05212 1.2279 7.92536C2.24736 9.78198 4.27997 11.7417 7.67712 13.6194L7.99961 13.7976L8.3221 13.6194C11.7194 11.7417 13.7521 9.78199 14.7716 7.92537C15.8003 6.05214 15.7908 4.28472 15.0938 2.91723C13.8237 0.425498 10.3527 -0.498448 7.99964 1.73726Z" fill="#FF3F3A"/>
</svg>
