<svg width="22" height="20" viewBox="0 0 22 20" fill="none" xmlns="http://www.w3.org/2000/svg">
<path d="M9.69978 8.7L3.4998 0.6C3.0998 0.2 2.5998 0 2.0998 0C1.5998 0 1.0998 0.2 0.699803 0.6C-0.000194848 1.4 -0.000194848 2.6 0.699803 3.4L5.59979 10L0.699803 16.6C-0.000194848 17.4 -0.000194848 18.6 0.699803 19.4C1.0998 19.8 1.5998 20 2.0998 20C2.5998 20 3.0998 19.8 3.4998 19.4L9.69978 11.3C10.3998 10.7 10.3998 9.5 9.69978 8.7Z" fill="#FF3F3A"/>
<path d="M12.3426 8.7L18.5426 0.6C18.9426 0.2 19.4426 0 19.9426 0C20.4426 0 20.9426 0.2 21.3426 0.6C22.0426 1.4 22.0426 2.6 21.3426 3.4L16.4426 10L21.3426 16.6C22.0426 17.4 22.0426 18.6 21.3426 19.4C20.9426 19.8 20.4426 20 19.9426 20C19.4426 20 18.9426 19.8 18.5426 19.4L12.3426 11.3C11.6426 10.7 11.6426 9.5 12.3426 8.7Z" fill="#FF3F3A"/>
</svg>
