<svg width="105" height="20" viewBox="0 0 105 20" fill="none" xmlns="http://www.w3.org/2000/svg">
<path d="M-0.000244141 10.0998C-0.000244141 3.9998 3.29976 0.299805 8.69976 0.299805C12.7998 0.299805 16.0998 2.7998 16.6998 6.4998C16.7998 6.8998 16.4998 7.1998 16.0998 7.1998H13.4998C13.1998 7.1998 12.9998 6.9998 12.8998 6.6998C12.3998 4.7998 10.7998 3.5998 8.69976 3.5998C5.79976 3.5998 3.99976 6.0998 3.99976 10.0998C3.99976 14.0998 5.79976 16.5998 8.79976 16.5998C10.8998 16.5998 12.3998 15.4998 12.9998 13.6998C13.0998 13.3998 13.2998 13.1998 13.5998 13.1998H16.1998C16.5998 13.1998 16.8998 13.5998 16.7998 13.8998C16.1998 17.4998 12.9998 19.8998 8.79976 19.8998C3.29976 19.8998 -0.000244141 16.0998 -0.000244141 10.0998Z" fill="#1E212C"/>
<path d="M24.2994 19.4001H21.3994C21.0994 19.4001 20.8994 19.2001 20.8994 18.9001V1.60006C20.8994 1.20006 21.2994 0.800061 21.6994 0.800061H28.6994C32.7994 0.800061 35.2994 3.10006 35.2994 6.70006C35.2994 8.80006 34.2994 10.7001 32.5994 11.7001C32.1994 11.9001 32.0994 12.4001 32.2994 12.7001L35.3994 18.6001C35.5994 18.9001 35.2994 19.3001 34.9994 19.3001H31.6994C31.4994 19.3001 31.2994 19.2001 31.1994 19.0001L28.2994 13.0001C28.1994 12.7001 27.8994 12.6001 27.5994 12.6001H25.2994C24.9994 12.6001 24.7994 12.8001 24.7994 13.1001V19.0001C24.8994 19.2001 24.5994 19.4001 24.2994 19.4001ZM24.8994 9.20006C24.8994 9.50006 25.0994 9.70006 25.3994 9.70006H28.3994C30.3994 9.70006 31.4994 8.60006 31.4994 6.80006C31.4994 5.00006 30.2994 3.90006 28.3994 3.90006H25.4994C25.1994 3.90006 24.9994 4.10006 24.9994 4.40006V9.20006H24.8994Z" fill="#1E212C"/>
<path d="M51.4996 19.4001H40.4996C40.0996 19.4001 39.7996 19.1001 39.7996 18.7001V1.50006C39.7996 1.10006 40.0996 0.800061 40.4996 0.800061H51.4996C51.8996 0.800061 52.1996 1.10006 52.1996 1.50006V3.40006C52.1996 3.80006 51.8996 4.10006 51.4996 4.10006H44.1996C43.8996 4.10006 43.6996 4.30006 43.6996 4.60006V8.00006C43.6996 8.30006 43.8996 8.50006 44.1996 8.50006H50.9996C51.3996 8.50006 51.6996 8.80006 51.6996 9.20006V10.9001C51.6996 11.3001 51.3996 11.6001 50.9996 11.6001H44.1996C43.8996 11.6001 43.6996 11.8001 43.6996 12.1001V15.9001C43.6996 16.2001 43.8996 16.4001 44.1996 16.4001H51.4996C51.8996 16.4001 52.1996 16.7001 52.1996 17.1001V19.0001C52.1996 19.1001 51.8996 19.4001 51.4996 19.4001Z" fill="#1E212C"/>
<path d="M66.9997 14.9001H61.2997C60.9997 14.9001 60.7997 15.1001 60.6997 15.3001L59.5997 19.0001C59.4997 19.3001 59.2997 19.4001 58.9997 19.4001H56.3997C55.9997 19.4001 55.6997 19.0001 55.7997 18.6001L61.7997 1.20006C61.8997 1.00006 62.0997 0.800061 62.3997 0.800061H66.0997C66.3997 0.800061 66.5997 1.00006 66.6997 1.20006L72.6997 18.6001C72.7997 19.0001 72.4997 19.4001 72.0997 19.4001H69.1997C68.8997 19.4001 68.6997 19.2001 68.5997 19.0001L67.4997 15.3001C67.4997 15.1001 67.1997 14.9001 66.9997 14.9001ZM62.0997 12.0001H66.1997C66.3997 12.0001 66.4997 11.8001 66.4997 11.6001L64.2997 4.60006H64.0997L61.8997 11.6001C61.7997 11.8001 61.8997 12.0001 62.0997 12.0001Z" fill="#1E212C"/>
<path d="M78.9999 18.7005V4.50045C78.9999 4.20045 78.7999 4.00045 78.4999 4.00045H74.0999C73.6999 4.00045 73.2999 3.70045 73.2999 3.20045V1.50045C73.2999 1.10045 73.5999 0.700451 74.0999 0.700451H87.6998C88.0998 0.700451 88.4998 1.00045 88.4998 1.50045V3.20045C88.4998 3.60045 88.1998 4.00045 87.6998 4.00045H83.2999C82.9999 4.00045 82.7999 4.20045 82.7999 4.50045V18.8004C82.7999 19.2004 82.4999 19.5005 82.0999 19.5005H79.5999C79.2999 19.4004 78.9999 19.1005 78.9999 18.7005Z" fill="#1E212C"/>
<path d="M103.8 19.4001H92.7996C92.3996 19.4001 92.0996 19.1001 92.0996 18.7001V1.50006C92.0996 1.10006 92.3996 0.800061 92.7996 0.800061H103.8C104.2 0.800061 104.5 1.10006 104.5 1.50006V3.40006C104.5 3.80006 104.2 4.10006 103.8 4.10006H96.4996C96.1996 4.10006 95.9996 4.30006 95.9996 4.60006V8.00006C95.9996 8.30006 96.1996 8.50006 96.4996 8.50006H103.3C103.7 8.50006 104 8.80006 104 9.20006V10.9001C104 11.3001 103.7 11.6001 103.3 11.6001H96.4996C96.1996 11.6001 95.9996 11.8001 95.9996 12.1001V15.9001C95.9996 16.2001 96.1996 16.4001 96.4996 16.4001H103.8C104.2 16.4001 104.5 16.7001 104.5 17.1001V19.0001C104.5 19.1001 104.2 19.4001 103.8 19.4001Z" fill="#1E212C"/>
</svg>
