<svg width="107" height="26" viewBox="0 0 107 26" fill="none" xmlns="http://www.w3.org/2000/svg">
<path fill-rule="evenodd" clip-rule="evenodd" d="M14.6153 12.0456C14.5204 12.7034 14.2954 13.3286 13.9619 13.9036C13.9869 14.0459 13.9997 14.1898 13.9997 14.3343C13.9997 14.8362 13.8543 15.3165 13.5849 15.7529C13.4504 15.9707 13.4158 16.226 13.4025 16.3946C13.3873 16.5879 13.3924 16.7994 13.4062 17.0025C13.4217 17.2304 13.4497 17.4697 13.4818 17.6954C13.2216 17.6196 12.9395 17.5434 12.6704 17.4826C12.4465 17.4321 12.2174 17.3891 12.0099 17.3676C11.8289 17.349 11.5674 17.3345 11.3335 17.4101C10.8221 17.5754 10.2594 17.6676 9.66636 17.6676C8.96109 17.6676 8.31335 17.5424 7.74559 17.325C7.60903 17.3312 7.47146 17.3343 7.33301 17.3343C6.52993 17.3343 5.75701 17.2287 5.03385 17.0335C6.08516 18.2494 7.81828 19.001 9.66636 19.001C10.3883 19.001 11.0812 18.8901 11.7198 18.6864C11.7209 18.6865 11.723 18.6864 11.726 18.6864C11.7424 18.686 11.7879 18.6851 11.8729 18.6939C12.0067 18.7077 12.1786 18.7385 12.377 18.7833C12.7719 18.8724 13.2157 19.0038 13.5615 19.1136C14.2949 19.3464 15.0056 18.7064 14.8745 17.9621C14.8181 17.6418 14.7595 17.2508 14.7365 16.9122C14.7249 16.7419 14.7236 16.6021 14.7317 16.4995C14.7351 16.457 14.7394 16.4304 14.7421 16.4162C15.1172 15.7949 15.333 15.0874 15.333 14.3343C15.333 13.4853 15.0693 12.7099 14.6153 12.0456Z" fill="#9A9CA5"/>
<path fill-rule="evenodd" clip-rule="evenodd" d="M3.73109 8.79943C2.83245 9.48662 2.33306 10.3887 2.33306 11.334C2.33306 11.8053 2.45577 12.2593 2.68599 12.6815C2.77367 12.8423 2.79854 13.0081 2.80744 13.1204C2.81714 13.2428 2.8123 13.3687 2.80166 13.4863C2.78034 13.7219 2.72949 13.9888 2.66849 14.2517C2.59715 14.5593 2.50572 14.8872 2.41296 15.1952C2.76512 15.0672 3.15003 14.936 3.51493 14.8296C3.80985 14.7435 4.10767 14.6689 4.37274 14.6269C4.60108 14.5908 4.93243 14.5554 5.2177 14.6541C5.85792 14.8756 6.57411 15.0007 7.33306 15.0007C8.76451 15.0007 10.0358 14.5562 10.935 13.8685C11.8337 13.1813 12.3331 12.2793 12.3331 11.334C12.3331 10.3887 11.8337 9.48662 10.935 8.79943C10.0358 8.11176 8.76451 7.66732 7.33306 7.66732C5.90162 7.66732 4.63034 8.11176 3.73109 8.79943ZM2.92116 7.74028C4.07283 6.85959 5.6349 6.33398 7.33306 6.33398C9.03123 6.33398 10.5933 6.85959 11.745 7.74028C12.8973 8.62145 13.6664 9.88602 13.6664 11.334C13.6664 12.7819 12.8973 14.0465 11.745 14.9277C10.5933 15.8084 9.03123 16.334 7.33306 16.334C6.43769 16.334 5.58244 16.188 4.80591 15.9224C4.80513 15.9246 4.74215 15.9184 4.58098 15.9439C4.39521 15.9733 4.15809 16.0308 3.88836 16.1095C3.35138 16.2662 2.74835 16.4878 2.28902 16.6666C1.49327 16.9763 0.682633 16.212 0.95074 15.3979C1.09284 14.9665 1.26043 14.4212 1.36966 13.9504C1.42468 13.7132 1.46039 13.5138 1.47375 13.3662C1.47839 13.3149 1.47958 13.2776 1.47932 13.2523C1.17246 12.6659 0.99973 12.0175 0.99973 11.334C0.99973 9.88602 1.76887 8.62145 2.92116 7.74028Z" fill="#9A9CA5"/>
<path d="M33.2711 16.272C33.3884 16.272 33.4924 16.3173 33.5831 16.408L34.4311 17.328C33.9617 17.9093 33.3831 18.3547 32.6951 18.664C32.0124 18.9733 31.1911 19.128 30.2311 19.128C29.3724 19.128 28.5991 18.9813 27.9111 18.688C27.2284 18.3947 26.6444 17.9867 26.1591 17.464C25.6737 16.9413 25.3004 16.3173 25.0391 15.592C24.7831 14.8667 24.6551 14.0747 24.6551 13.216C24.6551 12.3467 24.7937 11.552 25.0711 10.832C25.3484 10.1067 25.7377 9.48267 26.2391 8.96C26.7457 8.43733 27.3484 8.032 28.0471 7.744C28.7457 7.45067 29.5191 7.304 30.3671 7.304C31.2097 7.304 31.9564 7.44267 32.6071 7.72C33.2631 7.99733 33.8204 8.36 34.2791 8.808L33.5591 9.808C33.5164 9.872 33.4604 9.928 33.3911 9.976C33.3271 10.024 33.2364 10.048 33.1191 10.048C33.0391 10.048 32.9564 10.0267 32.8711 9.984C32.7857 9.936 32.6924 9.88 32.5911 9.816C32.4897 9.74667 32.3724 9.672 32.2391 9.592C32.1057 9.512 31.9511 9.44 31.7751 9.376C31.5991 9.30667 31.3937 9.25067 31.1591 9.208C30.9297 9.16 30.6631 9.136 30.3591 9.136C29.8417 9.136 29.3671 9.22933 28.9351 9.416C28.5084 9.59733 28.1404 9.864 27.8311 10.216C27.5217 10.5627 27.2817 10.9893 27.1111 11.496C26.9404 11.9973 26.8551 12.5707 26.8551 13.216C26.8551 13.8667 26.9457 14.4453 27.1271 14.952C27.3137 15.4587 27.5644 15.8853 27.8791 16.232C28.1937 16.5787 28.5644 16.8453 28.9911 17.032C29.4177 17.2133 29.8764 17.304 30.3671 17.304C30.6604 17.304 30.9244 17.288 31.1591 17.256C31.3991 17.224 31.6177 17.1733 31.8151 17.104C32.0177 17.0347 32.2071 16.9467 32.3831 16.84C32.5644 16.728 32.7431 16.592 32.9191 16.432C32.9724 16.384 33.0284 16.3467 33.0871 16.32C33.1457 16.288 33.2071 16.272 33.2711 16.272ZM39.0533 10.664C39.6613 10.664 40.2133 10.7627 40.7093 10.96C41.2106 11.1573 41.6373 11.4373 41.9893 11.8C42.3466 12.1627 42.6213 12.6053 42.8133 13.128C43.0053 13.6507 43.1013 14.2347 43.1013 14.88C43.1013 15.5307 43.0053 16.1173 42.8133 16.64C42.6213 17.1627 42.3466 17.608 41.9893 17.976C41.6373 18.344 41.2106 18.6267 40.7093 18.824C40.2133 19.0213 39.6613 19.12 39.0533 19.12C38.44 19.12 37.8826 19.0213 37.3813 18.824C36.88 18.6267 36.4506 18.344 36.0933 17.976C35.7413 17.608 35.4666 17.1627 35.2693 16.64C35.0773 16.1173 34.9813 15.5307 34.9813 14.88C34.9813 14.2347 35.0773 13.6507 35.2693 13.128C35.4666 12.6053 35.7413 12.1627 36.0933 11.8C36.4506 11.4373 36.88 11.1573 37.3813 10.96C37.8826 10.7627 38.44 10.664 39.0533 10.664ZM39.0533 17.6C39.736 17.6 40.24 17.3707 40.5653 16.912C40.896 16.4533 41.0613 15.7813 41.0613 14.896C41.0613 14.0107 40.896 13.336 40.5653 12.872C40.24 12.408 39.736 12.176 39.0533 12.176C38.36 12.176 37.8453 12.4107 37.5093 12.88C37.1786 13.344 37.0133 14.016 37.0133 14.896C37.0133 15.776 37.1786 16.448 37.5093 16.912C37.8453 17.3707 38.36 17.6 39.0533 17.6ZM44.6088 19V10.792H45.8168C46.0728 10.792 46.2408 10.912 46.3208 11.152L46.4488 11.76C46.5928 11.6 46.7421 11.4533 46.8968 11.32C47.0568 11.1867 47.2248 11.072 47.4008 10.976C47.5821 10.88 47.7741 10.8053 47.9768 10.752C48.1848 10.6933 48.4115 10.664 48.6568 10.664C49.1741 10.664 49.5981 10.8053 49.9288 11.088C50.2648 11.3653 50.5155 11.736 50.6808 12.2C50.8088 11.928 50.9688 11.696 51.1608 11.504C51.3528 11.3067 51.5635 11.1467 51.7928 11.024C52.0221 10.9013 52.2648 10.8107 52.5208 10.752C52.7821 10.6933 53.0435 10.664 53.3048 10.664C53.7581 10.664 54.1608 10.7333 54.5128 10.872C54.8648 11.0107 55.1608 11.2133 55.4008 11.48C55.6408 11.7467 55.8221 12.072 55.9448 12.456C56.0728 12.84 56.1368 13.28 56.1368 13.776V19H54.1608V13.776C54.1608 13.2533 54.0461 12.8613 53.8168 12.6C53.5875 12.3333 53.2515 12.2 52.8088 12.2C52.6061 12.2 52.4168 12.2347 52.2408 12.304C52.0701 12.3733 51.9181 12.4747 51.7848 12.608C51.6568 12.736 51.5555 12.8987 51.4808 13.096C51.4061 13.2933 51.3688 13.52 51.3688 13.776V19H49.3848V13.776C49.3848 13.2267 49.2728 12.8267 49.0488 12.576C48.8301 12.3253 48.5075 12.2 48.0808 12.2C47.7928 12.2 47.5235 12.272 47.2728 12.416C47.0275 12.5547 46.7981 12.7467 46.5848 12.992V19H44.6088ZM58.0151 19V10.792H59.2231C59.4791 10.792 59.6471 10.912 59.7271 11.152L59.8551 11.76C59.9991 11.6 60.1484 11.4533 60.3031 11.32C60.4631 11.1867 60.6311 11.072 60.8071 10.976C60.9884 10.88 61.1804 10.8053 61.3831 10.752C61.5911 10.6933 61.8177 10.664 62.0631 10.664C62.5804 10.664 63.0044 10.8053 63.3351 11.088C63.6711 11.3653 63.9217 11.736 64.0871 12.2C64.2151 11.928 64.3751 11.696 64.5671 11.504C64.7591 11.3067 64.9697 11.1467 65.1991 11.024C65.4284 10.9013 65.6711 10.8107 65.9271 10.752C66.1884 10.6933 66.4497 10.664 66.7111 10.664C67.1644 10.664 67.5671 10.7333 67.9191 10.872C68.2711 11.0107 68.5671 11.2133 68.8071 11.48C69.0471 11.7467 69.2284 12.072 69.3511 12.456C69.4791 12.84 69.5431 13.28 69.5431 13.776V19H67.5671V13.776C67.5671 13.2533 67.4524 12.8613 67.2231 12.6C66.9937 12.3333 66.6577 12.2 66.2151 12.2C66.0124 12.2 65.8231 12.2347 65.6471 12.304C65.4764 12.3733 65.3244 12.4747 65.1911 12.608C65.0631 12.736 64.9617 12.8987 64.8871 13.096C64.8124 13.2933 64.7751 13.52 64.7751 13.776V19H62.7911V13.776C62.7911 13.2267 62.6791 12.8267 62.4551 12.576C62.2364 12.3253 61.9137 12.2 61.4871 12.2C61.1991 12.2 60.9297 12.272 60.6791 12.416C60.4337 12.5547 60.2044 12.7467 59.9911 12.992V19H58.0151ZM78.4933 10.792V19H77.2853C77.024 19 76.8586 18.88 76.7893 18.64L76.6533 17.984C76.3173 18.3253 75.9466 18.6027 75.5413 18.816C75.136 19.024 74.6586 19.128 74.1093 19.128C73.6613 19.128 73.264 19.0533 72.9173 18.904C72.576 18.7493 72.288 18.5333 72.0533 18.256C71.8186 17.9787 71.64 17.6507 71.5173 17.272C71.4 16.888 71.3413 16.4667 71.3413 16.008V10.792H73.3173V16.008C73.3173 16.5093 73.432 16.8987 73.6613 17.176C73.896 17.448 74.2453 17.584 74.7093 17.584C75.0506 17.584 75.3706 17.5093 75.6693 17.36C75.968 17.2053 76.2506 16.9947 76.5173 16.728V10.792H78.4933ZM82.3006 11.8C82.4659 11.6347 82.6392 11.4827 82.8206 11.344C83.0072 11.2 83.2019 11.08 83.4046 10.984C83.6126 10.8827 83.8339 10.8053 84.0686 10.752C84.3032 10.6933 84.5592 10.664 84.8366 10.664C85.2846 10.664 85.6819 10.7413 86.0286 10.896C86.3752 11.0453 86.6632 11.2587 86.8926 11.536C87.1272 11.808 87.3032 12.136 87.4206 12.52C87.5432 12.8987 87.6046 13.3173 87.6046 13.776V19H85.6286V13.776C85.6286 13.2747 85.5139 12.888 85.2846 12.616C85.0552 12.3387 84.7059 12.2 84.2366 12.2C83.8952 12.2 83.5752 12.2773 83.2766 12.432C82.9779 12.5867 82.6952 12.7973 82.4286 13.064V19H80.4526V10.792H81.6606C81.9166 10.792 82.0846 10.912 82.1646 11.152L82.3006 11.8ZM91.5318 10.792V19H89.5478V10.792H91.5318ZM91.8038 8.4C91.8038 8.57067 91.7691 8.73067 91.6998 8.88C91.6305 9.02933 91.5371 9.16 91.4198 9.272C91.3078 9.384 91.1745 9.47467 91.0198 9.544C90.8651 9.608 90.6998 9.64 90.5238 9.64C90.3531 9.64 90.1905 9.608 90.0358 9.544C89.8865 9.47467 89.7558 9.384 89.6438 9.272C89.5318 9.16 89.4411 9.02933 89.3718 8.88C89.3078 8.73067 89.2758 8.57067 89.2758 8.4C89.2758 8.224 89.3078 8.05867 89.3718 7.904C89.4411 7.74933 89.5318 7.616 89.6438 7.504C89.7558 7.392 89.8865 7.304 90.0358 7.24C90.1905 7.17067 90.3531 7.136 90.5238 7.136C90.6998 7.136 90.8651 7.17067 91.0198 7.24C91.1745 7.304 91.3078 7.392 91.4198 7.504C91.5371 7.616 91.6305 7.74933 91.6998 7.904C91.7691 8.05867 91.8038 8.224 91.8038 8.4ZM96.2823 19.128C95.5676 19.128 95.0183 18.928 94.6343 18.528C94.2556 18.1227 94.0663 17.5653 94.0663 16.856V12.272H93.2263C93.1196 12.272 93.029 12.2373 92.9543 12.168C92.8796 12.0987 92.8423 11.9947 92.8423 11.856V11.072L94.1623 10.856L94.5783 8.616C94.605 8.50933 94.6556 8.42667 94.7303 8.368C94.805 8.30933 94.901 8.28 95.0183 8.28H96.0423V10.864H98.2343V12.272H96.0423V16.72C96.0423 16.976 96.1036 17.176 96.2263 17.32C96.3543 17.464 96.5276 17.536 96.7463 17.536C96.869 17.536 96.9703 17.5227 97.0503 17.496C97.1356 17.464 97.2076 17.432 97.2663 17.4C97.3303 17.368 97.3863 17.3387 97.4343 17.312C97.4823 17.28 97.5303 17.264 97.5783 17.264C97.637 17.264 97.685 17.28 97.7223 17.312C97.7596 17.3387 97.7996 17.3813 97.8423 17.44L98.4343 18.4C98.1463 18.64 97.8156 18.8213 97.4423 18.944C97.069 19.0667 96.6823 19.128 96.2823 19.128ZM106.955 10.792L102.483 21.256C102.425 21.3947 102.347 21.4987 102.251 21.568C102.161 21.6427 102.019 21.68 101.827 21.68H100.355L101.891 18.384L98.5714 10.792H100.307C100.462 10.792 100.582 10.8293 100.667 10.904C100.758 10.9787 100.825 11.064 100.867 11.16L102.611 15.416C102.67 15.56 102.718 15.704 102.755 15.848C102.798 15.992 102.838 16.1387 102.875 16.288C102.923 16.1387 102.971 15.992 103.019 15.848C103.067 15.6987 103.121 15.552 103.179 15.408L104.827 11.16C104.87 11.0533 104.939 10.9653 105.035 10.896C105.137 10.8267 105.249 10.792 105.371 10.792H106.955Z" fill="#9A9CA5"/>
</svg>
