<svg width="161" height="26" viewBox="0 0 161 26" fill="none" xmlns="http://www.w3.org/2000/svg">
<path fill-rule="evenodd" clip-rule="evenodd" d="M6.77932 6.46709C7.24248 5.39899 8.75719 5.39899 9.22036 6.46709L10.6214 9.69809L14.1273 10.0322C15.2862 10.1426 15.7543 11.5832 14.8816 12.3537L12.2417 14.6847L13.0073 18.1221C13.2604 19.2585 12.035 20.1488 11.0325 19.5569L7.99984 17.7665L4.96721 19.5569C3.96469 20.1488 2.73926 19.2585 2.99236 18.1221L3.75801 14.6847L1.11809 12.3537C0.245398 11.5832 0.71347 10.1426 1.87242 10.0322L5.37824 9.69809L6.77932 6.46709ZM9.40091 10.2274L7.99984 6.99635L6.59876 10.2274C6.406 10.6719 5.98678 10.9765 5.50444 11.0224L1.99861 11.3565L4.63852 13.6874C5.00174 14.0081 5.16186 14.5009 5.05652 14.9739L4.29088 18.4114L7.32351 16.621C7.74075 16.3746 8.25893 16.3746 8.67617 16.621L11.7088 18.4114L10.9432 14.9739C10.8378 14.5009 10.9979 14.0081 11.3612 13.6874L14.0011 11.3565L10.4952 11.0224C10.0129 10.9765 9.59368 10.6719 9.40091 10.2274Z" fill="#FF3F3A"/>
<path d="M27.6433 9.144V12.352H31.6913V14.008H27.6433V17.28H32.7793V19H25.4833V7.432H32.7793V9.144H27.6433ZM41.7024 19H39.7984C39.6544 19 39.5371 18.9627 39.4464 18.888C39.3611 18.8133 39.2891 18.728 39.2304 18.632L37.4944 15.776C37.4678 15.8667 37.4358 15.952 37.3984 16.032C37.3664 16.112 37.3291 16.1867 37.2864 16.256L35.7504 18.632C35.6918 18.7227 35.6198 18.808 35.5344 18.888C35.4491 18.9627 35.3424 19 35.2144 19H33.4464L36.2624 14.768L33.5584 10.792H35.4624C35.6064 10.792 35.7131 10.8133 35.7824 10.856C35.8518 10.8933 35.9131 10.9573 35.9664 11.048L37.6864 13.784C37.7451 13.6027 37.8278 13.424 37.9344 13.248L39.3184 11.088C39.4358 10.8907 39.5878 10.792 39.7744 10.792H41.5904L38.8944 14.68L41.7024 19ZM44.7098 16.872C44.9338 17.144 45.1765 17.336 45.4378 17.448C45.7045 17.56 45.9925 17.616 46.3018 17.616C46.6005 17.616 46.8698 17.56 47.1098 17.448C47.3498 17.336 47.5525 17.1653 47.7178 16.936C47.8885 16.7067 48.0191 16.4187 48.1098 16.072C48.2005 15.72 48.2458 15.3067 48.2458 14.832C48.2458 14.352 48.2058 13.9467 48.1258 13.616C48.0511 13.28 47.9418 13.008 47.7978 12.8C47.6538 12.592 47.4778 12.44 47.2698 12.344C47.0671 12.248 46.8351 12.2 46.5738 12.2C46.1631 12.2 45.8138 12.288 45.5258 12.464C45.2378 12.6347 44.9658 12.8773 44.7098 13.192V16.872ZM44.6058 11.912C44.9418 11.5333 45.3231 11.2267 45.7498 10.992C46.1765 10.7573 46.6778 10.64 47.2538 10.64C47.7018 10.64 48.1098 10.7333 48.4778 10.92C48.8511 11.1067 49.1711 11.3787 49.4378 11.736C49.7098 12.088 49.9178 12.5253 50.0618 13.048C50.2111 13.5653 50.2858 14.16 50.2858 14.832C50.2858 15.4453 50.2031 16.0133 50.0378 16.536C49.8725 17.0587 49.6351 17.512 49.3258 17.896C49.0218 18.28 48.6511 18.5813 48.2138 18.8C47.7818 19.0133 47.2965 19.12 46.7578 19.12C46.2991 19.12 45.9071 19.0507 45.5818 18.912C45.2565 18.768 44.9658 18.5707 44.7098 18.32V21.68H42.7338V10.792H43.9418C44.1978 10.792 44.3658 10.912 44.4458 11.152L44.6058 11.912ZM57.1156 13.952C57.1156 13.696 57.0782 13.456 57.0036 13.232C56.9342 13.0027 56.8276 12.8027 56.6836 12.632C56.5396 12.4613 56.3556 12.328 56.1316 12.232C55.9129 12.1307 55.6569 12.08 55.3636 12.08C54.7929 12.08 54.3422 12.2427 54.0116 12.568C53.6862 12.8933 53.4782 13.3547 53.3876 13.952H57.1156ZM53.3476 15.144C53.3796 15.5653 53.4542 15.9307 53.5716 16.24C53.6889 16.544 53.8436 16.7973 54.0356 17C54.2276 17.1973 54.4542 17.3467 54.7156 17.448C54.9822 17.544 55.2756 17.592 55.5956 17.592C55.9156 17.592 56.1902 17.5547 56.4196 17.48C56.6542 17.4053 56.8569 17.3227 57.0276 17.232C57.2036 17.1413 57.3556 17.0587 57.4836 16.984C57.6169 16.9093 57.7449 16.872 57.8676 16.872C58.0329 16.872 58.1556 16.9333 58.2356 17.056L58.8036 17.776C58.5849 18.032 58.3396 18.248 58.0676 18.424C57.7956 18.5947 57.5102 18.7333 57.2116 18.84C56.9182 18.9413 56.6169 19.0133 56.3076 19.056C56.0036 19.0987 55.7076 19.12 55.4196 19.12C54.8489 19.12 54.3182 19.0267 53.8276 18.84C53.3369 18.648 52.9102 18.368 52.5476 18C52.1849 17.6267 51.8996 17.168 51.6916 16.624C51.4836 16.0747 51.3796 15.44 51.3796 14.72C51.3796 14.16 51.4702 13.6347 51.6516 13.144C51.8329 12.648 52.0916 12.2187 52.4276 11.856C52.7689 11.488 53.1822 11.1973 53.6676 10.984C54.1582 10.7707 54.7102 10.664 55.3236 10.664C55.8409 10.664 56.3182 10.7467 56.7556 10.912C57.1929 11.0773 57.5689 11.32 57.8836 11.64C58.1982 11.9547 58.4436 12.344 58.6196 12.808C58.8009 13.2667 58.8916 13.792 58.8916 14.384C58.8916 14.6827 58.8596 14.8853 58.7956 14.992C58.7316 15.0933 58.6089 15.144 58.4276 15.144H53.3476ZM62.2384 12.216C62.4944 11.7253 62.7984 11.3413 63.1504 11.064C63.5024 10.7813 63.9184 10.64 64.3984 10.64C64.7771 10.64 65.0811 10.7227 65.3104 10.888L65.1824 12.368C65.1558 12.464 65.1158 12.5333 65.0624 12.576C65.0144 12.6133 64.9478 12.632 64.8624 12.632C64.7824 12.632 64.6624 12.6187 64.5024 12.592C64.3478 12.5653 64.1958 12.552 64.0464 12.552C63.8278 12.552 63.6331 12.584 63.4624 12.648C63.2918 12.712 63.1371 12.8053 62.9984 12.928C62.8651 13.0453 62.7451 13.1893 62.6384 13.36C62.5371 13.5307 62.4411 13.7253 62.3504 13.944V19H60.3744V10.792H61.5344C61.7371 10.792 61.8784 10.8293 61.9584 10.904C62.0384 10.9733 62.0918 11.1013 62.1184 11.288L62.2384 12.216ZM68.3912 10.792V19H66.4072V10.792H68.3912ZM68.6632 8.4C68.6632 8.57067 68.6285 8.73067 68.5592 8.88C68.4899 9.02933 68.3965 9.16 68.2792 9.272C68.1672 9.384 68.0339 9.47467 67.8792 9.544C67.7245 9.608 67.5592 9.64 67.3832 9.64C67.2125 9.64 67.0499 9.608 66.8952 9.544C66.7459 9.47467 66.6152 9.384 66.5032 9.272C66.3912 9.16 66.3005 9.02933 66.2312 8.88C66.1672 8.73067 66.1352 8.57067 66.1352 8.4C66.1352 8.224 66.1672 8.05867 66.2312 7.904C66.3005 7.74933 66.3912 7.616 66.5032 7.504C66.6152 7.392 66.7459 7.304 66.8952 7.24C67.0499 7.17067 67.2125 7.136 67.3832 7.136C67.5592 7.136 67.7245 7.17067 67.8792 7.24C68.0339 7.304 68.1672 7.392 68.2792 7.504C68.3965 7.616 68.4899 7.74933 68.5592 7.904C68.6285 8.05867 68.6632 8.224 68.6632 8.4ZM75.6937 13.952C75.6937 13.696 75.6564 13.456 75.5817 13.232C75.5124 13.0027 75.4057 12.8027 75.2617 12.632C75.1177 12.4613 74.9337 12.328 74.7097 12.232C74.491 12.1307 74.235 12.08 73.9417 12.08C73.371 12.08 72.9204 12.2427 72.5897 12.568C72.2644 12.8933 72.0564 13.3547 71.9657 13.952H75.6937ZM71.9257 15.144C71.9577 15.5653 72.0324 15.9307 72.1497 16.24C72.267 16.544 72.4217 16.7973 72.6137 17C72.8057 17.1973 73.0324 17.3467 73.2937 17.448C73.5604 17.544 73.8537 17.592 74.1737 17.592C74.4937 17.592 74.7684 17.5547 74.9977 17.48C75.2324 17.4053 75.435 17.3227 75.6057 17.232C75.7817 17.1413 75.9337 17.0587 76.0617 16.984C76.195 16.9093 76.323 16.872 76.4457 16.872C76.611 16.872 76.7337 16.9333 76.8137 17.056L77.3817 17.776C77.163 18.032 76.9177 18.248 76.6457 18.424C76.3737 18.5947 76.0884 18.7333 75.7897 18.84C75.4964 18.9413 75.195 19.0133 74.8857 19.056C74.5817 19.0987 74.2857 19.12 73.9977 19.12C73.427 19.12 72.8964 19.0267 72.4057 18.84C71.915 18.648 71.4884 18.368 71.1257 18C70.763 17.6267 70.4777 17.168 70.2697 16.624C70.0617 16.0747 69.9577 15.44 69.9577 14.72C69.9577 14.16 70.0484 13.6347 70.2297 13.144C70.411 12.648 70.6697 12.2187 71.0057 11.856C71.347 11.488 71.7604 11.1973 72.2457 10.984C72.7364 10.7707 73.2884 10.664 73.9017 10.664C74.419 10.664 74.8964 10.7467 75.3337 10.912C75.771 11.0773 76.147 11.32 76.4617 11.64C76.7764 11.9547 77.0217 12.344 77.1977 12.808C77.379 13.2667 77.4697 13.792 77.4697 14.384C77.4697 14.6827 77.4377 14.8853 77.3737 14.992C77.3097 15.0933 77.187 15.144 77.0057 15.144H71.9257ZM80.8006 11.8C80.9659 11.6347 81.1392 11.4827 81.3206 11.344C81.5072 11.2 81.7019 11.08 81.9046 10.984C82.1126 10.8827 82.3339 10.8053 82.5686 10.752C82.8032 10.6933 83.0592 10.664 83.3366 10.664C83.7846 10.664 84.1819 10.7413 84.5286 10.896C84.8752 11.0453 85.1632 11.2587 85.3926 11.536C85.6272 11.808 85.8032 12.136 85.9206 12.52C86.0432 12.8987 86.1046 13.3173 86.1046 13.776V19H84.1286V13.776C84.1286 13.2747 84.0139 12.888 83.7846 12.616C83.5552 12.3387 83.2059 12.2 82.7366 12.2C82.3952 12.2 82.0752 12.2773 81.7766 12.432C81.4779 12.5867 81.1952 12.7973 80.9286 13.064V19H78.9526V10.792H80.1606C80.4166 10.792 80.5846 10.912 80.6646 11.152L80.8006 11.8ZM93.8638 12.528C93.8051 12.6027 93.7465 12.6613 93.6878 12.704C93.6345 12.7467 93.5545 12.768 93.4478 12.768C93.3465 12.768 93.2478 12.7387 93.1518 12.68C93.0558 12.616 92.9411 12.5467 92.8078 12.472C92.6745 12.392 92.5145 12.3227 92.3278 12.264C92.1465 12.2 91.9198 12.168 91.6478 12.168C91.3011 12.168 90.9971 12.232 90.7358 12.36C90.4745 12.4827 90.2558 12.6613 90.0798 12.896C89.9091 13.1307 89.7811 13.416 89.6958 13.752C89.6105 14.0827 89.5678 14.4587 89.5678 14.88C89.5678 15.3173 89.6131 15.7067 89.7038 16.048C89.7998 16.3893 89.9358 16.6773 90.1118 16.912C90.2878 17.1413 90.5011 17.3173 90.7518 17.44C91.0025 17.5573 91.2851 17.616 91.5998 17.616C91.9145 17.616 92.1678 17.5787 92.3598 17.504C92.5571 17.424 92.7225 17.3387 92.8558 17.248C92.9891 17.152 93.1038 17.0667 93.1998 16.992C93.3011 16.912 93.4131 16.872 93.5358 16.872C93.6958 16.872 93.8158 16.9333 93.8958 17.056L94.4638 17.776C94.2451 18.032 94.0078 18.248 93.7518 18.424C93.4958 18.5947 93.2291 18.7333 92.9518 18.84C92.6798 18.9413 92.3971 19.0133 92.1038 19.056C91.8158 19.0987 91.5278 19.12 91.2398 19.12C90.7331 19.12 90.2558 19.0267 89.8078 18.84C89.3598 18.648 88.9678 18.3707 88.6318 18.008C88.2958 17.6453 88.0291 17.2027 87.8318 16.68C87.6398 16.152 87.5438 15.552 87.5438 14.88C87.5438 14.2773 87.6291 13.72 87.7998 13.208C87.9758 12.6907 88.2318 12.2453 88.5678 11.872C88.9038 11.4933 89.3198 11.1973 89.8158 10.984C90.3118 10.7707 90.8825 10.664 91.5278 10.664C92.1411 10.664 92.6771 10.7627 93.1358 10.96C93.5998 11.1573 94.0158 11.44 94.3838 11.808L93.8638 12.528ZM100.85 13.952C100.85 13.696 100.813 13.456 100.738 13.232C100.669 13.0027 100.562 12.8027 100.418 12.632C100.274 12.4613 100.09 12.328 99.8659 12.232C99.6473 12.1307 99.3913 12.08 99.0979 12.08C98.5273 12.08 98.0766 12.2427 97.7459 12.568C97.4206 12.8933 97.2126 13.3547 97.1219 13.952H100.85ZM97.0819 15.144C97.1139 15.5653 97.1886 15.9307 97.3059 16.24C97.4233 16.544 97.5779 16.7973 97.7699 17C97.9619 17.1973 98.1886 17.3467 98.4499 17.448C98.7166 17.544 99.0099 17.592 99.3299 17.592C99.6499 17.592 99.9246 17.5547 100.154 17.48C100.389 17.4053 100.591 17.3227 100.762 17.232C100.938 17.1413 101.09 17.0587 101.218 16.984C101.351 16.9093 101.479 16.872 101.602 16.872C101.767 16.872 101.89 16.9333 101.97 17.056L102.538 17.776C102.319 18.032 102.074 18.248 101.802 18.424C101.53 18.5947 101.245 18.7333 100.946 18.84C100.653 18.9413 100.351 19.0133 100.042 19.056C99.7379 19.0987 99.4419 19.12 99.1539 19.12C98.5833 19.12 98.0526 19.0267 97.5619 18.84C97.0713 18.648 96.6446 18.368 96.2819 18C95.9193 17.6267 95.6339 17.168 95.4259 16.624C95.2179 16.0747 95.1139 15.44 95.1139 14.72C95.1139 14.16 95.2046 13.6347 95.3859 13.144C95.5673 12.648 95.8259 12.2187 96.1619 11.856C96.5033 11.488 96.9166 11.1973 97.4019 10.984C97.8926 10.7707 98.4446 10.664 99.0579 10.664C99.5753 10.664 100.053 10.7467 100.49 10.912C100.927 11.0773 101.303 11.32 101.618 11.64C101.933 11.9547 102.178 12.344 102.354 12.808C102.535 13.2667 102.626 13.792 102.626 14.384C102.626 14.6827 102.594 14.8853 102.53 14.992C102.466 15.0933 102.343 15.144 102.162 15.144H97.0819ZM109.261 12.888C109.037 12.616 108.791 12.424 108.525 12.312C108.263 12.2 107.981 12.144 107.677 12.144C107.378 12.144 107.109 12.2 106.869 12.312C106.629 12.424 106.423 12.5947 106.253 12.824C106.082 13.048 105.951 13.336 105.861 13.688C105.77 14.0347 105.725 14.4453 105.725 14.92C105.725 15.4 105.762 15.808 105.837 16.144C105.917 16.4747 106.029 16.7467 106.173 16.96C106.317 17.168 106.493 17.32 106.701 17.416C106.909 17.5067 107.141 17.552 107.397 17.552C107.807 17.552 108.157 17.4667 108.445 17.296C108.733 17.1253 109.005 16.8827 109.261 16.568V12.888ZM111.237 7.112V19H110.029C109.767 19 109.602 18.88 109.533 18.64L109.365 17.848C109.034 18.2267 108.653 18.5333 108.221 18.768C107.794 19.0027 107.295 19.12 106.725 19.12C106.277 19.12 105.866 19.0267 105.493 18.84C105.119 18.6533 104.797 18.384 104.525 18.032C104.258 17.6747 104.05 17.2347 103.901 16.712C103.757 16.1893 103.685 15.592 103.685 14.92C103.685 14.312 103.767 13.7467 103.933 13.224C104.098 12.7013 104.335 12.248 104.645 11.864C104.954 11.48 105.325 11.1813 105.757 10.968C106.189 10.7493 106.674 10.64 107.213 10.64C107.671 10.64 108.063 10.712 108.389 10.856C108.714 11 109.005 11.1947 109.261 11.44V7.112H111.237ZM124.985 9.2H121.497V19H119.345V9.2H115.857V7.432H124.985V9.2ZM131.775 10.792V19H130.567C130.305 19 130.14 18.88 130.071 18.64L129.935 17.984C129.599 18.3253 129.228 18.6027 128.823 18.816C128.417 19.024 127.94 19.128 127.391 19.128C126.943 19.128 126.545 19.0533 126.199 18.904C125.857 18.7493 125.569 18.5333 125.335 18.256C125.1 17.9787 124.921 17.6507 124.799 17.272C124.681 16.888 124.623 16.4667 124.623 16.008V10.792H126.599V16.008C126.599 16.5093 126.713 16.8987 126.943 17.176C127.177 17.448 127.527 17.584 127.991 17.584C128.332 17.584 128.652 17.5093 128.951 17.36C129.249 17.2053 129.532 16.9947 129.799 16.728V10.792H131.775ZM136.47 19.128C135.755 19.128 135.206 18.928 134.822 18.528C134.443 18.1227 134.254 17.5653 134.254 16.856V12.272H133.414C133.307 12.272 133.216 12.2373 133.142 12.168C133.067 12.0987 133.03 11.9947 133.03 11.856V11.072L134.35 10.856L134.766 8.616C134.792 8.50933 134.843 8.42667 134.918 8.368C134.992 8.30933 135.088 8.28 135.206 8.28H136.23V10.864H138.422V12.272H136.23V16.72C136.23 16.976 136.291 17.176 136.414 17.32C136.542 17.464 136.715 17.536 136.934 17.536C137.056 17.536 137.158 17.5227 137.238 17.496C137.323 17.464 137.395 17.432 137.454 17.4C137.518 17.368 137.574 17.3387 137.622 17.312C137.67 17.28 137.718 17.264 137.766 17.264C137.824 17.264 137.872 17.28 137.91 17.312C137.947 17.3387 137.987 17.3813 138.03 17.44L138.622 18.4C138.334 18.64 138.003 18.8213 137.63 18.944C137.256 19.0667 136.87 19.128 136.47 19.128ZM143.256 10.664C143.864 10.664 144.416 10.7627 144.912 10.96C145.414 11.1573 145.84 11.4373 146.192 11.8C146.55 12.1627 146.824 12.6053 147.016 13.128C147.208 13.6507 147.304 14.2347 147.304 14.88C147.304 15.5307 147.208 16.1173 147.016 16.64C146.824 17.1627 146.55 17.608 146.192 17.976C145.84 18.344 145.414 18.6267 144.912 18.824C144.416 19.0213 143.864 19.12 143.256 19.12C142.643 19.12 142.086 19.0213 141.584 18.824C141.083 18.6267 140.654 18.344 140.296 17.976C139.944 17.608 139.67 17.1627 139.472 16.64C139.28 16.1173 139.184 15.5307 139.184 14.88C139.184 14.2347 139.28 13.6507 139.472 13.128C139.67 12.6053 139.944 12.1627 140.296 11.8C140.654 11.4373 141.083 11.1573 141.584 10.96C142.086 10.7627 142.643 10.664 143.256 10.664ZM143.256 17.6C143.939 17.6 144.443 17.3707 144.768 16.912C145.099 16.4533 145.264 15.7813 145.264 14.896C145.264 14.0107 145.099 13.336 144.768 12.872C144.443 12.408 143.939 12.176 143.256 12.176C142.563 12.176 142.048 12.4107 141.712 12.88C141.382 13.344 141.216 14.016 141.216 14.896C141.216 15.776 141.382 16.448 141.712 16.912C142.048 17.3707 142.563 17.6 143.256 17.6ZM150.676 12.216C150.932 11.7253 151.236 11.3413 151.588 11.064C151.94 10.7813 152.356 10.64 152.836 10.64C153.215 10.64 153.519 10.7227 153.748 10.888L153.62 12.368C153.593 12.464 153.553 12.5333 153.5 12.576C153.452 12.6133 153.385 12.632 153.3 12.632C153.22 12.632 153.1 12.6187 152.94 12.592C152.785 12.5653 152.633 12.552 152.484 12.552C152.265 12.552 152.071 12.584 151.9 12.648C151.729 12.712 151.575 12.8053 151.436 12.928C151.303 13.0453 151.183 13.1893 151.076 13.36C150.975 13.5307 150.879 13.7253 150.788 13.944V19H148.812V10.792H149.972C150.175 10.792 150.316 10.8293 150.396 10.904C150.476 10.9733 150.529 11.1013 150.556 11.288L150.676 12.216ZM159.757 12.392C159.704 12.4773 159.648 12.5387 159.589 12.576C159.531 12.608 159.456 12.624 159.365 12.624C159.269 12.624 159.165 12.5973 159.053 12.544C158.947 12.4907 158.821 12.432 158.677 12.368C158.533 12.2987 158.368 12.2373 158.181 12.184C158 12.1307 157.784 12.104 157.533 12.104C157.144 12.104 156.837 12.1867 156.613 12.352C156.395 12.5173 156.285 12.7333 156.285 13C156.285 13.176 156.341 13.3253 156.453 13.448C156.571 13.5653 156.723 13.6693 156.909 13.76C157.101 13.8507 157.317 13.9333 157.557 14.008C157.797 14.0773 158.04 14.1547 158.285 14.24C158.536 14.3253 158.781 14.424 159.021 14.536C159.261 14.6427 159.475 14.7813 159.661 14.952C159.853 15.1173 160.005 15.3173 160.117 15.552C160.235 15.7867 160.293 16.0693 160.293 16.4C160.293 16.7947 160.221 17.16 160.077 17.496C159.939 17.8267 159.731 18.1147 159.453 18.36C159.176 18.6 158.832 18.7893 158.421 18.928C158.016 19.0613 157.547 19.128 157.013 19.128C156.731 19.128 156.453 19.1013 156.181 19.048C155.915 19 155.656 18.9307 155.405 18.84C155.16 18.7493 154.931 18.6427 154.717 18.52C154.509 18.3973 154.325 18.264 154.165 18.12L154.621 17.368C154.68 17.2773 154.749 17.208 154.829 17.16C154.909 17.112 155.011 17.088 155.133 17.088C155.256 17.088 155.371 17.1227 155.477 17.192C155.589 17.2613 155.717 17.336 155.861 17.416C156.005 17.496 156.173 17.5707 156.365 17.64C156.563 17.7093 156.811 17.744 157.109 17.744C157.344 17.744 157.544 17.7173 157.709 17.664C157.88 17.6053 158.019 17.5307 158.125 17.44C158.237 17.3493 158.317 17.2453 158.365 17.128C158.419 17.0053 158.445 16.88 158.445 16.752C158.445 16.56 158.387 16.4027 158.269 16.28C158.157 16.1573 158.005 16.0507 157.813 15.96C157.627 15.8693 157.411 15.7893 157.165 15.72C156.925 15.6453 156.677 15.5653 156.421 15.48C156.171 15.3947 155.923 15.296 155.677 15.184C155.437 15.0667 155.221 14.92 155.029 14.744C154.843 14.568 154.691 14.352 154.573 14.096C154.461 13.84 154.405 13.5307 154.405 13.168C154.405 12.832 154.472 12.512 154.605 12.208C154.739 11.904 154.933 11.64 155.189 11.416C155.451 11.1867 155.773 11.0053 156.157 10.872C156.547 10.7333 156.995 10.664 157.501 10.664C158.067 10.664 158.581 10.7573 159.045 10.944C159.509 11.1307 159.896 11.376 160.205 11.68L159.757 12.392Z"/>
</svg>
