<svg width="169" height="26" viewBox="0 0 169 26" fill="none" xmlns="http://www.w3.org/2000/svg">
<path fill-rule="evenodd" clip-rule="evenodd" d="M9.4547 7.16732C9.36168 7.16732 9.27547 7.21676 9.22843 7.29736L9.22433 7.30438L6.16683 12.2612V18.834H11.8907C12.0135 18.834 12.1198 18.7487 12.1464 18.629L12.1487 18.6186L13.8487 11.9788C13.8798 11.8179 13.7565 11.6673 13.5915 11.6673H11.0002C10.566 11.6673 10.1268 11.5223 9.80696 11.2101C9.47075 10.882 9.31488 10.412 9.41491 9.90572L9.89414 7.48001C9.92614 7.31806 9.80219 7.16732 9.63725 7.16732H9.4547ZM4.8335 18.834V12.7387H2.47118C2.32739 12.7387 2.2104 12.8548 2.20929 12.9987C2.20929 12.9987 2.20929 12.9987 2.20929 12.9987L2.16684 18.5701C2.16572 18.7154 2.28327 18.834 2.42868 18.834H4.8335ZM5.12809 11.4054L8.08155 6.61731C8.36843 6.13222 8.89032 5.83398 9.4547 5.83398H9.63725C10.6424 5.83398 11.397 6.75237 11.2022 7.73844L10.723 10.1641C10.7144 10.2073 10.72 10.2269 10.7213 10.2312C10.7228 10.236 10.726 10.244 10.7383 10.256C10.7661 10.2832 10.8492 10.334 11.0002 10.334H13.5915C14.6121 10.334 15.3701 11.2792 15.1487 12.2754L15.1464 12.2858L13.4453 18.93C13.2788 19.6537 12.6343 20.1673 11.8907 20.1673H2.42868C1.54298 20.1673 0.826756 19.4457 0.833544 18.56C0.833544 18.56 0.833544 18.56 0.833544 18.56L0.875993 12.9885C0.88271 12.1124 1.59485 11.4054 2.47118 11.4054H5.12809Z" fill="#9A9CA5"/>
<path d="M27.7918 9.144V12.568H32.1278V14.288H27.7918V19H25.6318V7.432H32.9278V9.144H27.7918ZM38.9515 13.952C38.9515 13.696 38.9142 13.456 38.8395 13.232C38.7702 13.0027 38.6635 12.8027 38.5195 12.632C38.3755 12.4613 38.1915 12.328 37.9675 12.232C37.7488 12.1307 37.4928 12.08 37.1995 12.08C36.6288 12.08 36.1782 12.2427 35.8475 12.568C35.5222 12.8933 35.3142 13.3547 35.2235 13.952H38.9515ZM35.1835 15.144C35.2155 15.5653 35.2902 15.9307 35.4075 16.24C35.5248 16.544 35.6795 16.7973 35.8715 17C36.0635 17.1973 36.2902 17.3467 36.5515 17.448C36.8182 17.544 37.1115 17.592 37.4315 17.592C37.7515 17.592 38.0262 17.5547 38.2555 17.48C38.4902 17.4053 38.6928 17.3227 38.8635 17.232C39.0395 17.1413 39.1915 17.0587 39.3195 16.984C39.4528 16.9093 39.5808 16.872 39.7035 16.872C39.8688 16.872 39.9915 16.9333 40.0715 17.056L40.6395 17.776C40.4208 18.032 40.1755 18.248 39.9035 18.424C39.6315 18.5947 39.3462 18.7333 39.0475 18.84C38.7542 18.9413 38.4528 19.0133 38.1435 19.056C37.8395 19.0987 37.5435 19.12 37.2555 19.12C36.6848 19.12 36.1542 19.0267 35.6635 18.84C35.1728 18.648 34.7462 18.368 34.3835 18C34.0208 17.6267 33.7355 17.168 33.5275 16.624C33.3195 16.0747 33.2155 15.44 33.2155 14.72C33.2155 14.16 33.3062 13.6347 33.4875 13.144C33.6688 12.648 33.9275 12.2187 34.2635 11.856C34.6048 11.488 35.0182 11.1973 35.5035 10.984C35.9942 10.7707 36.5462 10.664 37.1595 10.664C37.6768 10.664 38.1542 10.7467 38.5915 10.912C39.0288 11.0773 39.4048 11.32 39.7195 11.64C40.0342 11.9547 40.2795 12.344 40.4555 12.808C40.6368 13.2667 40.7275 13.792 40.7275 14.384C40.7275 14.6827 40.6955 14.8853 40.6315 14.992C40.5675 15.0933 40.4448 15.144 40.2635 15.144H35.1835ZM47.4984 13.952C47.4984 13.696 47.461 13.456 47.3864 13.232C47.317 13.0027 47.2104 12.8027 47.0664 12.632C46.9224 12.4613 46.7384 12.328 46.5144 12.232C46.2957 12.1307 46.0397 12.08 45.7464 12.08C45.1757 12.08 44.725 12.2427 44.3944 12.568C44.069 12.8933 43.861 13.3547 43.7704 13.952H47.4984ZM43.7304 15.144C43.7624 15.5653 43.837 15.9307 43.9544 16.24C44.0717 16.544 44.2264 16.7973 44.4184 17C44.6104 17.1973 44.837 17.3467 45.0984 17.448C45.365 17.544 45.6584 17.592 45.9784 17.592C46.2984 17.592 46.573 17.5547 46.8024 17.48C47.037 17.4053 47.2397 17.3227 47.4104 17.232C47.5864 17.1413 47.7384 17.0587 47.8664 16.984C47.9997 16.9093 48.1277 16.872 48.2504 16.872C48.4157 16.872 48.5384 16.9333 48.6184 17.056L49.1864 17.776C48.9677 18.032 48.7224 18.248 48.4504 18.424C48.1784 18.5947 47.893 18.7333 47.5944 18.84C47.301 18.9413 46.9997 19.0133 46.6904 19.056C46.3864 19.0987 46.0904 19.12 45.8024 19.12C45.2317 19.12 44.701 19.0267 44.2104 18.84C43.7197 18.648 43.293 18.368 42.9304 18C42.5677 17.6267 42.2824 17.168 42.0744 16.624C41.8664 16.0747 41.7624 15.44 41.7624 14.72C41.7624 14.16 41.853 13.6347 42.0344 13.144C42.2157 12.648 42.4744 12.2187 42.8104 11.856C43.1517 11.488 43.565 11.1973 44.0504 10.984C44.541 10.7707 45.093 10.664 45.7064 10.664C46.2237 10.664 46.701 10.7467 47.1384 10.912C47.5757 11.0773 47.9517 11.32 48.2664 11.64C48.581 11.9547 48.8264 12.344 49.0024 12.808C49.1837 13.2667 49.2744 13.792 49.2744 14.384C49.2744 14.6827 49.2424 14.8853 49.1784 14.992C49.1144 15.0933 48.9917 15.144 48.8104 15.144H43.7304ZM55.9093 12.888C55.6853 12.616 55.4399 12.424 55.1733 12.312C54.9119 12.2 54.6293 12.144 54.3253 12.144C54.0266 12.144 53.7573 12.2 53.5173 12.312C53.2773 12.424 53.0719 12.5947 52.9013 12.824C52.7306 13.048 52.5999 13.336 52.5093 13.688C52.4186 14.0347 52.3733 14.4453 52.3733 14.92C52.3733 15.4 52.4106 15.808 52.4853 16.144C52.5653 16.4747 52.6773 16.7467 52.8213 16.96C52.9653 17.168 53.1413 17.32 53.3493 17.416C53.5573 17.5067 53.7893 17.552 54.0453 17.552C54.4559 17.552 54.8053 17.4667 55.0933 17.296C55.3813 17.1253 55.6533 16.8827 55.9093 16.568V12.888ZM57.8853 7.112V19H56.6773C56.4159 19 56.2506 18.88 56.1813 18.64L56.0133 17.848C55.6826 18.2267 55.3013 18.5333 54.8693 18.768C54.4426 19.0027 53.9439 19.12 53.3733 19.12C52.9253 19.12 52.5146 19.0267 52.1413 18.84C51.7679 18.6533 51.4453 18.384 51.1733 18.032C50.9066 17.6747 50.6986 17.2347 50.5493 16.712C50.4053 16.1893 50.3333 15.592 50.3333 14.92C50.3333 14.312 50.4159 13.7467 50.5813 13.224C50.7466 12.7013 50.9839 12.248 51.2933 11.864C51.6026 11.48 51.9733 11.1813 52.4053 10.968C52.8373 10.7493 53.3226 10.64 53.8613 10.64C54.3199 10.64 54.7119 10.712 55.0373 10.856C55.3626 11 55.6533 11.1947 55.9093 11.44V7.112H57.8853ZM61.8114 16.872C62.0354 17.144 62.278 17.336 62.5394 17.448C62.806 17.56 63.086 17.616 63.3794 17.616C63.6834 17.616 63.9554 17.5627 64.1954 17.456C64.4407 17.344 64.6487 17.1733 64.8194 16.944C64.99 16.7093 65.1207 16.4133 65.2114 16.056C65.302 15.6933 65.3474 15.2613 65.3474 14.76C65.3474 13.8587 65.198 13.208 64.8994 12.808C64.6007 12.4027 64.1714 12.2 63.6114 12.2C63.2327 12.2 62.902 12.288 62.6194 12.464C62.3367 12.6347 62.0674 12.8773 61.8114 13.192V16.872ZM61.8114 11.8C62.142 11.4533 62.5074 11.1787 62.9074 10.976C63.3127 10.768 63.774 10.664 64.2914 10.664C64.766 10.664 65.1927 10.7573 65.5714 10.944C65.9554 11.1307 66.2807 11.4 66.5474 11.752C66.8194 12.0987 67.0274 12.52 67.1714 13.016C67.3154 13.512 67.3874 14.0693 67.3874 14.688C67.3874 15.3547 67.3047 15.96 67.1394 16.504C66.974 17.048 66.7367 17.5147 66.4274 17.904C66.1234 18.288 65.7554 18.5867 65.3234 18.8C64.8914 19.0133 64.4114 19.12 63.8834 19.12C63.6274 19.12 63.3954 19.0933 63.1874 19.04C62.9794 18.992 62.7874 18.9227 62.6114 18.832C62.4354 18.7413 62.2727 18.632 62.1234 18.504C61.9794 18.3707 61.8407 18.224 61.7074 18.064L61.6194 18.616C61.5874 18.7547 61.5314 18.8533 61.4514 18.912C61.3767 18.9707 61.2727 19 61.1394 19H59.8354V7.112H61.8114V11.8ZM73.2495 15.496C72.6788 15.5227 72.1988 15.5733 71.8095 15.648C71.4202 15.7173 71.1082 15.808 70.8735 15.92C70.6388 16.032 70.4708 16.1627 70.3695 16.312C70.2682 16.4613 70.2175 16.624 70.2175 16.8C70.2175 17.1467 70.3188 17.3947 70.5215 17.544C70.7295 17.6933 70.9988 17.768 71.3295 17.768C71.7348 17.768 72.0842 17.696 72.3775 17.552C72.6762 17.4027 72.9668 17.1787 73.2495 16.88V15.496ZM68.7215 11.936C69.6655 11.072 70.8015 10.64 72.1295 10.64C72.6095 10.64 73.0388 10.72 73.4175 10.88C73.7962 11.0347 74.1162 11.2533 74.3775 11.536C74.6388 11.8133 74.8362 12.1467 74.9695 12.536C75.1082 12.9253 75.1775 13.352 75.1775 13.816V19H74.2815C74.0948 19 73.9508 18.9733 73.8495 18.92C73.7482 18.8613 73.6682 18.7467 73.6095 18.576L73.4335 17.984C73.2255 18.1707 73.0228 18.336 72.8255 18.48C72.6282 18.6187 72.4228 18.736 72.2095 18.832C71.9962 18.928 71.7668 19 71.5215 19.048C71.2815 19.1013 71.0148 19.128 70.7215 19.128C70.3748 19.128 70.0548 19.0827 69.7615 18.992C69.4682 18.896 69.2148 18.7547 69.0015 18.568C68.7882 18.3813 68.6228 18.1493 68.5055 17.872C68.3882 17.5947 68.3295 17.272 68.3295 16.904C68.3295 16.696 68.3642 16.4907 68.4335 16.288C68.5028 16.08 68.6148 15.8827 68.7695 15.696C68.9295 15.5093 69.1348 15.3333 69.3855 15.168C69.6362 15.0027 69.9428 14.8587 70.3055 14.736C70.6735 14.6133 71.1002 14.5147 71.5855 14.44C72.0708 14.36 72.6255 14.312 73.2495 14.296V13.816C73.2495 13.2667 73.1322 12.8613 72.8975 12.6C72.6628 12.3333 72.3242 12.2 71.8815 12.2C71.5615 12.2 71.2948 12.2373 71.0815 12.312C70.8735 12.3867 70.6895 12.472 70.5295 12.568C70.3695 12.6587 70.2228 12.7413 70.0895 12.816C69.9615 12.8907 69.8175 12.928 69.6575 12.928C69.5188 12.928 69.4015 12.8933 69.3055 12.824C69.2095 12.7493 69.1322 12.664 69.0735 12.568L68.7215 11.936ZM82.9185 12.528C82.8598 12.6027 82.8012 12.6613 82.7425 12.704C82.6892 12.7467 82.6092 12.768 82.5025 12.768C82.4012 12.768 82.3025 12.7387 82.2065 12.68C82.1105 12.616 81.9958 12.5467 81.8625 12.472C81.7292 12.392 81.5692 12.3227 81.3825 12.264C81.2012 12.2 80.9745 12.168 80.7025 12.168C80.3558 12.168 80.0518 12.232 79.7905 12.36C79.5292 12.4827 79.3105 12.6613 79.1345 12.896C78.9638 13.1307 78.8358 13.416 78.7505 13.752C78.6652 14.0827 78.6225 14.4587 78.6225 14.88C78.6225 15.3173 78.6678 15.7067 78.7585 16.048C78.8545 16.3893 78.9905 16.6773 79.1665 16.912C79.3425 17.1413 79.5558 17.3173 79.8065 17.44C80.0572 17.5573 80.3398 17.616 80.6545 17.616C80.9692 17.616 81.2225 17.5787 81.4145 17.504C81.6118 17.424 81.7772 17.3387 81.9105 17.248C82.0438 17.152 82.1585 17.0667 82.2545 16.992C82.3558 16.912 82.4678 16.872 82.5905 16.872C82.7505 16.872 82.8705 16.9333 82.9505 17.056L83.5185 17.776C83.2998 18.032 83.0625 18.248 82.8065 18.424C82.5505 18.5947 82.2838 18.7333 82.0065 18.84C81.7345 18.9413 81.4518 19.0133 81.1585 19.056C80.8705 19.0987 80.5825 19.12 80.2945 19.12C79.7878 19.12 79.3105 19.0267 78.8625 18.84C78.4145 18.648 78.0225 18.3707 77.6865 18.008C77.3505 17.6453 77.0838 17.2027 76.8865 16.68C76.6945 16.152 76.5985 15.552 76.5985 14.88C76.5985 14.2773 76.6838 13.72 76.8545 13.208C77.0305 12.6907 77.2865 12.2453 77.6225 11.872C77.9585 11.4933 78.3745 11.1973 78.8705 10.984C79.3665 10.7707 79.9372 10.664 80.5825 10.664C81.1958 10.664 81.7318 10.7627 82.1905 10.96C82.6545 11.1573 83.0705 11.44 83.4385 11.808L82.9185 12.528ZM86.7333 7.112V13.92H87.1013C87.2346 13.92 87.3386 13.904 87.4133 13.872C87.4933 13.8347 87.5733 13.7627 87.6533 13.656L89.6933 11.136C89.7786 11.024 89.8719 10.9387 89.9733 10.88C90.0799 10.8213 90.2159 10.792 90.3813 10.792H92.1892L89.6373 13.84C89.4559 14.08 89.2586 14.264 89.0453 14.392C89.1573 14.472 89.2559 14.5653 89.3413 14.672C89.4319 14.7787 89.5173 14.8933 89.5973 15.016L92.3333 19H90.5493C90.3946 19 90.2613 18.976 90.1493 18.928C90.0373 18.8747 89.9439 18.7813 89.8693 18.648L87.7733 15.536C87.6986 15.4133 87.6213 15.3333 87.5413 15.296C87.4613 15.2587 87.3413 15.24 87.1813 15.24H86.7333V19H84.7573V7.112H86.7333ZM100.043 13.592C99.6161 13.8693 99.3041 14.184 99.1068 14.536C98.9148 14.8827 98.8188 15.256 98.8188 15.656C98.8188 15.9493 98.8694 16.2133 98.9708 16.448C99.0721 16.6827 99.2081 16.8827 99.3788 17.048C99.5548 17.208 99.7574 17.3333 99.9868 17.424C100.221 17.5093 100.469 17.552 100.731 17.552C101.2 17.552 101.629 17.48 102.019 17.336C102.408 17.1867 102.76 16.9813 103.075 16.72L100.043 13.592ZM107.747 19H105.811C105.608 19 105.443 18.976 105.315 18.928C105.192 18.88 105.061 18.7787 104.923 18.624L104.123 17.8C103.616 18.216 103.048 18.5413 102.419 18.776C101.789 19.0107 101.109 19.128 100.379 19.128C99.9361 19.128 99.4988 19.0533 99.0668 18.904C98.6401 18.7493 98.2588 18.528 97.9228 18.24C97.5868 17.952 97.3148 17.6053 97.1068 17.2C96.9041 16.7893 96.8028 16.328 96.8028 15.816C96.8028 15.4533 96.8614 15.112 96.9788 14.792C97.0961 14.4667 97.2588 14.1653 97.4668 13.888C97.6748 13.6107 97.9228 13.3627 98.2108 13.144C98.4988 12.92 98.8134 12.728 99.1548 12.568C98.8668 12.168 98.6588 11.7787 98.5308 11.4C98.4028 11.016 98.3388 10.6347 98.3388 10.256C98.3388 9.856 98.4108 9.47733 98.5548 9.12C98.7041 8.75733 98.9174 8.44267 99.1948 8.176C99.4721 7.90933 99.8134 7.69867 100.219 7.544C100.624 7.384 101.083 7.304 101.595 7.304C102.064 7.304 102.483 7.376 102.851 7.52C103.224 7.664 103.541 7.856 103.803 8.096C104.069 8.336 104.277 8.61067 104.427 8.92C104.581 9.22933 104.672 9.54933 104.699 9.88L103.443 10.144C103.208 10.192 103.037 10.0907 102.931 9.84C102.883 9.70133 102.819 9.57067 102.739 9.448C102.664 9.32 102.573 9.21067 102.467 9.12C102.36 9.024 102.235 8.94933 102.091 8.896C101.947 8.83733 101.781 8.808 101.595 8.808C101.371 8.808 101.171 8.848 100.995 8.928C100.819 9.00267 100.669 9.10667 100.547 9.24C100.429 9.368 100.339 9.52 100.275 9.696C100.211 9.86667 100.179 10.048 100.179 10.24C100.179 10.4 100.195 10.5547 100.227 10.704C100.259 10.8533 100.312 11.0027 100.387 11.152C100.461 11.3013 100.557 11.456 100.675 11.616C100.797 11.7707 100.947 11.9387 101.123 12.12L104.195 15.312C104.371 14.976 104.512 14.6213 104.619 14.248C104.725 13.8747 104.795 13.496 104.827 13.112C104.843 12.9893 104.885 12.8907 104.955 12.816C105.024 12.7413 105.12 12.704 105.243 12.704H106.475C106.469 13.408 106.368 14.08 106.171 14.72C105.973 15.36 105.691 15.9493 105.323 16.488L107.747 19ZM119.136 9.536C119.072 9.648 119.002 9.73067 118.928 9.784C118.858 9.832 118.77 9.856 118.664 9.856C118.552 9.856 118.429 9.816 118.296 9.736C118.168 9.65067 118.013 9.55733 117.832 9.456C117.65 9.35467 117.437 9.264 117.192 9.184C116.952 9.09867 116.666 9.056 116.336 9.056C116.037 9.056 115.776 9.09333 115.552 9.168C115.328 9.23733 115.138 9.336 114.984 9.464C114.834 9.592 114.722 9.74667 114.648 9.928C114.573 10.104 114.536 10.2987 114.536 10.512C114.536 10.784 114.61 11.0107 114.76 11.192C114.914 11.3733 115.117 11.528 115.368 11.656C115.618 11.784 115.904 11.8987 116.224 12C116.544 12.1013 116.872 12.2107 117.208 12.328C117.544 12.44 117.872 12.5733 118.192 12.728C118.512 12.8773 118.797 13.0693 119.048 13.304C119.298 13.5333 119.498 13.816 119.648 14.152C119.802 14.488 119.88 14.896 119.88 15.376C119.88 15.8987 119.789 16.3893 119.608 16.848C119.432 17.3013 119.17 17.6987 118.824 18.04C118.482 18.376 118.064 18.6427 117.568 18.84C117.072 19.032 116.504 19.128 115.864 19.128C115.496 19.128 115.133 19.0907 114.776 19.016C114.418 18.9467 114.074 18.8453 113.743 18.712C113.418 18.5787 113.112 18.4187 112.824 18.232C112.536 18.0453 112.28 17.8373 112.056 17.608L112.688 16.576C112.741 16.5013 112.81 16.44 112.896 16.392C112.981 16.3387 113.072 16.312 113.168 16.312C113.301 16.312 113.445 16.368 113.6 16.48C113.754 16.5867 113.938 16.7067 114.152 16.84C114.365 16.9733 114.613 17.096 114.896 17.208C115.184 17.3147 115.528 17.368 115.928 17.368C116.541 17.368 117.016 17.224 117.352 16.936C117.688 16.6427 117.856 16.224 117.856 15.68C117.856 15.376 117.778 15.128 117.624 14.936C117.474 14.744 117.274 14.584 117.024 14.456C116.773 14.3227 116.488 14.2107 116.168 14.12C115.848 14.0293 115.522 13.9307 115.192 13.824C114.861 13.7173 114.536 13.5893 114.216 13.44C113.896 13.2907 113.61 13.096 113.36 12.856C113.109 12.616 112.906 12.3173 112.752 11.96C112.602 11.5973 112.528 11.152 112.528 10.624C112.528 10.2027 112.61 9.792 112.776 9.392C112.946 8.992 113.192 8.63733 113.512 8.328C113.832 8.01867 114.226 7.77067 114.696 7.584C115.165 7.39733 115.704 7.304 116.312 7.304C116.994 7.304 117.624 7.41067 118.2 7.624C118.776 7.83733 119.266 8.136 119.672 8.52L119.136 9.536ZM128.376 10.792V19H127.168C126.907 19 126.741 18.88 126.672 18.64L126.536 17.984C126.2 18.3253 125.829 18.6027 125.424 18.816C125.019 19.024 124.541 19.128 123.992 19.128C123.544 19.128 123.147 19.0533 122.8 18.904C122.459 18.7493 122.171 18.5333 121.936 18.256C121.701 17.9787 121.523 17.6507 121.4 17.272C121.283 16.888 121.224 16.4667 121.224 16.008V10.792H123.2V16.008C123.2 16.5093 123.315 16.8987 123.544 17.176C123.779 17.448 124.128 17.584 124.592 17.584C124.933 17.584 125.253 17.5093 125.552 17.36C125.851 17.2053 126.133 16.9947 126.4 16.728V10.792H128.376ZM132.311 16.872C132.535 17.144 132.778 17.336 133.039 17.448C133.306 17.56 133.594 17.616 133.903 17.616C134.202 17.616 134.471 17.56 134.711 17.448C134.951 17.336 135.154 17.1653 135.319 16.936C135.49 16.7067 135.621 16.4187 135.711 16.072C135.802 15.72 135.847 15.3067 135.847 14.832C135.847 14.352 135.807 13.9467 135.727 13.616C135.653 13.28 135.543 13.008 135.399 12.8C135.255 12.592 135.079 12.44 134.871 12.344C134.669 12.248 134.437 12.2 134.175 12.2C133.765 12.2 133.415 12.288 133.127 12.464C132.839 12.6347 132.567 12.8773 132.311 13.192V16.872ZM132.207 11.912C132.543 11.5333 132.925 11.2267 133.351 10.992C133.778 10.7573 134.279 10.64 134.855 10.64C135.303 10.64 135.711 10.7333 136.079 10.92C136.453 11.1067 136.773 11.3787 137.039 11.736C137.311 12.088 137.519 12.5253 137.663 13.048C137.813 13.5653 137.887 14.16 137.887 14.832C137.887 15.4453 137.805 16.0133 137.639 16.536C137.474 17.0587 137.237 17.512 136.927 17.896C136.623 18.28 136.253 18.5813 135.815 18.8C135.383 19.0133 134.898 19.12 134.359 19.12C133.901 19.12 133.509 19.0507 133.183 18.912C132.858 18.768 132.567 18.5707 132.311 18.32V21.68H130.335V10.792H131.543C131.799 10.792 131.967 10.912 132.047 11.152L132.207 11.912ZM141.405 16.872C141.629 17.144 141.872 17.336 142.133 17.448C142.4 17.56 142.688 17.616 142.997 17.616C143.296 17.616 143.565 17.56 143.805 17.448C144.045 17.336 144.248 17.1653 144.413 16.936C144.584 16.7067 144.714 16.4187 144.805 16.072C144.896 15.72 144.941 15.3067 144.941 14.832C144.941 14.352 144.901 13.9467 144.821 13.616C144.746 13.28 144.637 13.008 144.493 12.8C144.349 12.592 144.173 12.44 143.965 12.344C143.762 12.248 143.53 12.2 143.269 12.2C142.858 12.2 142.509 12.288 142.221 12.464C141.933 12.6347 141.661 12.8773 141.405 13.192V16.872ZM141.301 11.912C141.637 11.5333 142.018 11.2267 142.445 10.992C142.872 10.7573 143.373 10.64 143.949 10.64C144.397 10.64 144.805 10.7333 145.173 10.92C145.546 11.1067 145.866 11.3787 146.133 11.736C146.405 12.088 146.613 12.5253 146.757 13.048C146.906 13.5653 146.981 14.16 146.981 14.832C146.981 15.4453 146.898 16.0133 146.733 16.536C146.568 17.0587 146.33 17.512 146.021 17.896C145.717 18.28 145.346 18.5813 144.909 18.8C144.477 19.0133 143.992 19.12 143.453 19.12C142.994 19.12 142.602 19.0507 142.277 18.912C141.952 18.768 141.661 18.5707 141.405 18.32V21.68H139.429V10.792H140.637C140.893 10.792 141.061 10.912 141.141 11.152L141.301 11.912ZM152.155 10.664C152.763 10.664 153.315 10.7627 153.811 10.96C154.312 11.1573 154.739 11.4373 155.091 11.8C155.448 12.1627 155.723 12.6053 155.915 13.128C156.107 13.6507 156.203 14.2347 156.203 14.88C156.203 15.5307 156.107 16.1173 155.915 16.64C155.723 17.1627 155.448 17.608 155.091 17.976C154.739 18.344 154.312 18.6267 153.811 18.824C153.315 19.0213 152.763 19.12 152.155 19.12C151.542 19.12 150.984 19.0213 150.483 18.824C149.982 18.6267 149.552 18.344 149.195 17.976C148.843 17.608 148.568 17.1627 148.371 16.64C148.179 16.1173 148.083 15.5307 148.083 14.88C148.083 14.2347 148.179 13.6507 148.371 13.128C148.568 12.6053 148.843 12.1627 149.195 11.8C149.552 11.4373 149.982 11.1573 150.483 10.96C150.984 10.7627 151.542 10.664 152.155 10.664ZM152.155 17.6C152.838 17.6 153.342 17.3707 153.667 16.912C153.998 16.4533 154.163 15.7813 154.163 14.896C154.163 14.0107 153.998 13.336 153.667 12.872C153.342 12.408 152.838 12.176 152.155 12.176C151.462 12.176 150.947 12.4107 150.611 12.88C150.28 13.344 150.115 14.016 150.115 14.896C150.115 15.776 150.28 16.448 150.611 16.912C150.947 17.3707 151.462 17.6 152.155 17.6ZM159.574 12.216C159.83 11.7253 160.134 11.3413 160.486 11.064C160.838 10.7813 161.254 10.64 161.734 10.64C162.113 10.64 162.417 10.7227 162.646 10.888L162.518 12.368C162.492 12.464 162.452 12.5333 162.398 12.576C162.35 12.6133 162.284 12.632 162.198 12.632C162.118 12.632 161.998 12.6187 161.838 12.592C161.684 12.5653 161.532 12.552 161.382 12.552C161.164 12.552 160.969 12.584 160.798 12.648C160.628 12.712 160.473 12.8053 160.334 12.928C160.201 13.0453 160.081 13.1893 159.974 13.36C159.873 13.5307 159.777 13.7253 159.686 13.944V19H157.71V10.792H158.87C159.073 10.792 159.214 10.8293 159.294 10.904C159.374 10.9733 159.428 11.1013 159.454 11.288L159.574 12.216ZM166.415 19.128C165.7 19.128 165.151 18.928 164.767 18.528C164.388 18.1227 164.199 17.5653 164.199 16.856V12.272H163.359C163.252 12.272 163.162 12.2373 163.087 12.168C163.012 12.0987 162.975 11.9947 162.975 11.856V11.072L164.295 10.856L164.711 8.616C164.738 8.50933 164.788 8.42667 164.863 8.368C164.938 8.30933 165.034 8.28 165.151 8.28H166.175V10.864H168.367V12.272H166.175V16.72C166.175 16.976 166.236 17.176 166.359 17.32C166.487 17.464 166.66 17.536 166.879 17.536C167.002 17.536 167.103 17.5227 167.183 17.496C167.268 17.464 167.34 17.432 167.399 17.4C167.463 17.368 167.519 17.3387 167.567 17.312C167.615 17.28 167.663 17.264 167.711 17.264C167.77 17.264 167.818 17.28 167.855 17.312C167.892 17.3387 167.932 17.3813 167.975 17.44L168.567 18.4C168.279 18.64 167.948 18.8213 167.575 18.944C167.202 19.0667 166.815 19.128 166.415 19.128Z" fill="#9A9CA5"/>
</svg>
