<svg aria-hidden="true" style="position: absolute; width: 0; height: 0; overflow: hidden;" version="1.1" xmlns="http://www.w3.org/2000/svg" xmlns:xlink="http://www.w3.org/1999/xlink">
    <defs>
        <symbol id="online-libruary" viewBox="0 0 165 26">
            <path fill-rule="evenodd" clip-rule="evenodd" d="M7.70184 5.7364C7.88953 5.64255 8.11044 5.64255 8.29813 5.7364L14.9648 9.06973C15.1906 9.18266 15.3333 9.4135 15.3333 9.66602C15.3333 9.91853 15.1906 10.1494 14.9648 10.2623L8.29813 13.5956C8.11044 13.6895 7.88953 13.6895 7.70184 13.5956L1.03517 10.2623C0.809318 10.1494 0.66665 9.91853 0.66665 9.66602C0.66665 9.4135 0.809318 9.18266 1.03517 9.06973L7.70184 5.7364ZM2.82403 9.66602L7.99998 12.254L13.1759 9.66602L7.99998 7.07804L2.82403 9.66602Z"></path>
            <path fill-rule="evenodd" clip-rule="evenodd" d="M0.737032 12.7012C0.901691 12.3719 1.30214 12.2384 1.63146 12.4031L7.99998 15.5873L14.3685 12.4031C14.6978 12.2384 15.0983 12.3719 15.2629 12.7012C15.4276 13.0305 15.2941 13.431 14.9648 13.5956L8.29813 16.929C8.11044 17.0228 7.88953 17.0228 7.70184 16.929L1.03517 13.5956C0.705855 13.431 0.572372 13.0305 0.737032 12.7012Z"></path>
            <path fill-rule="evenodd" clip-rule="evenodd" d="M0.737032 16.0345C0.901691 15.7052 1.30214 15.5717 1.63146 15.7364L7.99998 18.9207L14.3685 15.7364C14.6978 15.5717 15.0983 15.7052 15.2629 16.0345C15.4276 16.3639 15.2941 16.7643 14.9648 16.929L8.29813 20.2623C8.11044 20.3561 7.88953 20.3561 7.70184 20.2623L1.03517 16.929C0.705855 16.7643 0.572372 16.3639 0.737032 16.0345Z"></path>
            <path d="M32.1761 17.16C32.3895 17.16 32.5575 17.2213 32.6801 17.344C32.8081 17.4613 32.8721 17.6187 32.8721 17.816V19H24.9361V18.344C24.9361 18.2107 24.9628 18.072 25.0161 17.928C25.0748 17.7787 25.1655 17.6453 25.2881 17.528L28.8001 14.008C29.0935 13.7093 29.3548 13.424 29.5841 13.152C29.8188 12.88 30.0135 12.6107 30.1681 12.344C30.3228 12.0773 30.4401 11.808 30.5201 11.536C30.6055 11.2587 30.6481 10.968 30.6481 10.664C30.6481 10.3867 30.6081 10.144 30.5281 9.936C30.4481 9.72267 30.3335 9.544 30.1841 9.4C30.0401 9.256 29.8641 9.14933 29.6561 9.08C29.4535 9.00533 29.2241 8.968 28.9681 8.968C28.7335 8.968 28.5148 9.00267 28.3121 9.072C28.1148 9.136 27.9388 9.22933 27.7841 9.352C27.6295 9.46933 27.4988 9.608 27.3921 9.768C27.2855 9.928 27.2055 10.104 27.1521 10.296C27.0615 10.5413 26.9441 10.704 26.8001 10.784C26.6561 10.864 26.4481 10.8827 26.1761 10.84L25.1361 10.656C25.2161 10.1013 25.3708 9.616 25.6001 9.2C25.8295 8.77867 26.1148 8.42933 26.4561 8.152C26.8028 7.86933 27.1975 7.65867 27.6401 7.52C28.0881 7.376 28.5681 7.304 29.0801 7.304C29.6135 7.304 30.1015 7.384 30.5441 7.544C30.9868 7.69867 31.3655 7.92 31.6801 8.208C31.9948 8.496 32.2401 8.84267 32.4161 9.248C32.5921 9.65333 32.6801 10.104 32.6801 10.6C32.6801 11.0267 32.6161 11.4213 32.4881 11.784C32.3655 12.1467 32.1975 12.4933 31.9841 12.824C31.7761 13.1547 31.5308 13.4747 31.2481 13.784C30.9655 14.0933 30.6695 14.408 30.3601 14.728L27.7521 17.392C28.0028 17.3173 28.2508 17.2613 28.4961 17.224C28.7468 17.1813 28.9841 17.16 29.2081 17.16H32.1761ZM39.3054 14.64V10.856C39.3054 10.4987 39.3294 10.104 39.3774 9.672L35.7854 14.64H39.3054ZM42.4814 14.64V15.784C42.4814 15.8907 42.4467 15.984 42.3774 16.064C42.308 16.1387 42.2094 16.176 42.0814 16.176H41.0254V19H39.3054V16.176H34.4254C34.292 16.176 34.1747 16.136 34.0734 16.056C33.972 15.9707 33.908 15.8667 33.8814 15.744L33.6734 14.744L39.1534 7.424H41.0254V14.64H42.4814ZM45.2426 19.024C45.152 19.2693 45.0053 19.4533 44.8026 19.576C44.6053 19.6987 44.4026 19.76 44.1946 19.76H43.3546L48.0266 7.808C48.112 7.584 48.2426 7.41333 48.4186 7.296C48.5946 7.17333 48.8 7.112 49.0346 7.112H49.8826L45.2426 19.024ZM59.0798 7.432V8.288C59.0798 8.544 59.0531 8.752 58.9998 8.912C58.9464 9.06667 58.8931 9.19733 58.8398 9.304L54.4557 18.328C54.3651 18.5147 54.2371 18.6747 54.0718 18.808C53.9064 18.936 53.6851 19 53.4078 19H51.9758L56.4478 10.16C56.5491 9.97867 56.6478 9.81333 56.7438 9.664C56.8451 9.50933 56.9571 9.36267 57.0798 9.224H51.5438C51.4211 9.224 51.3144 9.17867 51.2238 9.088C51.1331 8.99733 51.0878 8.89067 51.0878 8.768V7.432H59.0798ZM75.8356 13.216C75.8356 14.064 75.6943 14.8507 75.4116 15.576C75.1343 16.296 74.7396 16.92 74.2276 17.448C73.7156 17.976 73.0996 18.3893 72.3796 18.688C71.6596 18.9813 70.8596 19.128 69.9796 19.128C69.105 19.128 68.3076 18.9813 67.5876 18.688C66.8676 18.3893 66.249 17.976 65.7316 17.448C65.2196 16.92 64.8223 16.296 64.5396 15.576C64.257 14.8507 64.1156 14.064 64.1156 13.216C64.1156 12.368 64.257 11.584 64.5396 10.864C64.8223 10.1387 65.2196 9.512 65.7316 8.984C66.249 8.456 66.8676 8.04533 67.5876 7.752C68.3076 7.45333 69.105 7.304 69.9796 7.304C70.5663 7.304 71.1183 7.37333 71.6356 7.512C72.153 7.64533 72.6276 7.83733 73.0596 8.088C73.4916 8.33333 73.8783 8.63467 74.2196 8.992C74.5663 9.344 74.8596 9.73867 75.0996 10.176C75.3396 10.6133 75.521 11.088 75.6436 11.6C75.7716 12.112 75.8356 12.6507 75.8356 13.216ZM73.6356 13.216C73.6356 12.5813 73.5503 12.0133 73.3796 11.512C73.209 11.0053 72.9663 10.576 72.6516 10.224C72.337 9.872 71.953 9.60267 71.4996 9.416C71.0516 9.22933 70.545 9.136 69.9796 9.136C69.4143 9.136 68.905 9.22933 68.4516 9.416C68.0036 9.60267 67.6196 9.872 67.2996 10.224C66.985 10.576 66.7423 11.0053 66.5716 11.512C66.401 12.0133 66.3156 12.5813 66.3156 13.216C66.3156 13.8507 66.401 14.4213 66.5716 14.928C66.7423 15.4293 66.985 15.856 67.2996 16.208C67.6196 16.5547 68.0036 16.8213 68.4516 17.008C68.905 17.1947 69.4143 17.288 69.9796 17.288C70.545 17.288 71.0516 17.1947 71.4996 17.008C71.953 16.8213 72.337 16.5547 72.6516 16.208C72.9663 15.856 73.209 15.4293 73.3796 14.928C73.5503 14.4213 73.6356 13.8507 73.6356 13.216ZM79.1209 11.8C79.2862 11.6347 79.4595 11.4827 79.6409 11.344C79.8275 11.2 80.0222 11.08 80.2249 10.984C80.4329 10.8827 80.6542 10.8053 80.8889 10.752C81.1235 10.6933 81.3795 10.664 81.6569 10.664C82.1049 10.664 82.5022 10.7413 82.8489 10.896C83.1955 11.0453 83.4835 11.2587 83.7129 11.536C83.9475 11.808 84.1235 12.136 84.2409 12.52C84.3635 12.8987 84.4249 13.3173 84.4249 13.776V19H82.4489V13.776C82.4489 13.2747 82.3342 12.888 82.1049 12.616C81.8755 12.3387 81.5262 12.2 81.0569 12.2C80.7155 12.2 80.3955 12.2773 80.0969 12.432C79.7982 12.5867 79.5155 12.7973 79.2489 13.064V19H77.2729V10.792H78.4809C78.7369 10.792 78.9049 10.912 78.9849 11.152L79.1209 11.8ZM88.3041 7.112V19H86.3281V7.112H88.3041ZM92.3209 10.792V19H90.3369V10.792H92.3209ZM92.5929 8.4C92.5929 8.57067 92.5582 8.73067 92.4889 8.88C92.4195 9.02933 92.3262 9.16 92.2089 9.272C92.0969 9.384 91.9635 9.47467 91.8089 9.544C91.6542 9.608 91.4889 9.64 91.3129 9.64C91.1422 9.64 90.9795 9.608 90.8249 9.544C90.6755 9.47467 90.5449 9.384 90.4329 9.272C90.3209 9.16 90.2302 9.02933 90.1609 8.88C90.0969 8.73067 90.0649 8.57067 90.0649 8.4C90.0649 8.224 90.0969 8.05867 90.1609 7.904C90.2302 7.74933 90.3209 7.616 90.4329 7.504C90.5449 7.392 90.6755 7.304 90.8249 7.24C90.9795 7.17067 91.1422 7.136 91.3129 7.136C91.4889 7.136 91.6542 7.17067 91.8089 7.24C91.9635 7.304 92.0969 7.392 92.2089 7.504C92.3262 7.616 92.4195 7.74933 92.4889 7.904C92.5582 8.05867 92.5929 8.224 92.5929 8.4ZM96.1834 11.8C96.3487 11.6347 96.522 11.4827 96.7034 11.344C96.89 11.2 97.0847 11.08 97.2874 10.984C97.4954 10.8827 97.7167 10.8053 97.9514 10.752C98.186 10.6933 98.442 10.664 98.7194 10.664C99.1674 10.664 99.5647 10.7413 99.9114 10.896C100.258 11.0453 100.546 11.2587 100.775 11.536C101.01 11.808 101.186 12.136 101.303 12.52C101.426 12.8987 101.487 13.3173 101.487 13.776V19H99.5114V13.776C99.5114 13.2747 99.3967 12.888 99.1674 12.616C98.938 12.3387 98.5887 12.2 98.1194 12.2C97.778 12.2 97.458 12.2773 97.1594 12.432C96.8607 12.5867 96.578 12.7973 96.3114 13.064V19H94.3354V10.792H95.5434C95.7994 10.792 95.9674 10.912 96.0474 11.152L96.1834 11.8ZM108.655 13.952C108.655 13.696 108.617 13.456 108.543 13.232C108.473 13.0027 108.367 12.8027 108.223 12.632C108.079 12.4613 107.895 12.328 107.671 12.232C107.452 12.1307 107.196 12.08 106.903 12.08C106.332 12.08 105.881 12.2427 105.551 12.568C105.225 12.8933 105.017 13.3547 104.927 13.952H108.655ZM104.887 15.144C104.919 15.5653 104.993 15.9307 105.111 16.24C105.228 16.544 105.383 16.7973 105.575 17C105.767 17.1973 105.993 17.3467 106.255 17.448C106.521 17.544 106.815 17.592 107.135 17.592C107.455 17.592 107.729 17.5547 107.959 17.48C108.193 17.4053 108.396 17.3227 108.567 17.232C108.743 17.1413 108.895 17.0587 109.023 16.984C109.156 16.9093 109.284 16.872 109.407 16.872C109.572 16.872 109.695 16.9333 109.775 17.056L110.343 17.776C110.124 18.032 109.879 18.248 109.607 18.424C109.335 18.5947 109.049 18.7333 108.751 18.84C108.457 18.9413 108.156 19.0133 107.847 19.056C107.543 19.0987 107.247 19.12 106.959 19.12C106.388 19.12 105.857 19.0267 105.367 18.84C104.876 18.648 104.449 18.368 104.087 18C103.724 17.6267 103.439 17.168 103.231 16.624C103.023 16.0747 102.919 15.44 102.919 14.72C102.919 14.16 103.009 13.6347 103.191 13.144C103.372 12.648 103.631 12.2187 103.967 11.856C104.308 11.488 104.721 11.1973 105.207 10.984C105.697 10.7707 106.249 10.664 106.863 10.664C107.38 10.664 107.857 10.7467 108.295 10.912C108.732 11.0773 109.108 11.32 109.423 11.64C109.737 11.9547 109.983 12.344 110.159 12.808C110.34 13.2667 110.431 13.792 110.431 14.384C110.431 14.6827 110.399 14.8853 110.335 14.992C110.271 15.0933 110.148 15.144 109.967 15.144H104.887ZM122.892 17.224V19H116.116V7.432H118.268V17.224H122.892ZM126.165 10.792V19H124.181V10.792H126.165ZM126.437 8.4C126.437 8.57067 126.402 8.73067 126.333 8.88C126.263 9.02933 126.17 9.16 126.053 9.272C125.941 9.384 125.807 9.47467 125.653 9.544C125.498 9.608 125.333 9.64 125.157 9.64C124.986 9.64 124.823 9.608 124.669 9.544C124.519 9.47467 124.389 9.384 124.277 9.272C124.165 9.16 124.074 9.02933 124.005 8.88C123.941 8.73067 123.909 8.57067 123.909 8.4C123.909 8.224 123.941 8.05867 124.005 7.904C124.074 7.74933 124.165 7.616 124.277 7.504C124.389 7.392 124.519 7.304 124.669 7.24C124.823 7.17067 124.986 7.136 125.157 7.136C125.333 7.136 125.498 7.17067 125.653 7.24C125.807 7.304 125.941 7.392 126.053 7.504C126.17 7.616 126.263 7.74933 126.333 7.904C126.402 8.05867 126.437 8.224 126.437 8.4ZM130.155 16.872C130.379 17.144 130.622 17.336 130.883 17.448C131.15 17.56 131.43 17.616 131.723 17.616C132.027 17.616 132.299 17.5627 132.539 17.456C132.784 17.344 132.992 17.1733 133.163 16.944C133.334 16.7093 133.464 16.4133 133.555 16.056C133.646 15.6933 133.691 15.2613 133.691 14.76C133.691 13.8587 133.542 13.208 133.243 12.808C132.944 12.4027 132.515 12.2 131.955 12.2C131.576 12.2 131.246 12.288 130.963 12.464C130.68 12.6347 130.411 12.8773 130.155 13.192V16.872ZM130.155 11.8C130.486 11.4533 130.851 11.1787 131.251 10.976C131.656 10.768 132.118 10.664 132.635 10.664C133.11 10.664 133.536 10.7573 133.915 10.944C134.299 11.1307 134.624 11.4 134.891 11.752C135.163 12.0987 135.371 12.52 135.515 13.016C135.659 13.512 135.731 14.0693 135.731 14.688C135.731 15.3547 135.648 15.96 135.483 16.504C135.318 17.048 135.08 17.5147 134.771 17.904C134.467 18.288 134.099 18.5867 133.667 18.8C133.235 19.0133 132.755 19.12 132.227 19.12C131.971 19.12 131.739 19.0933 131.531 19.04C131.323 18.992 131.131 18.9227 130.955 18.832C130.779 18.7413 130.616 18.632 130.467 18.504C130.323 18.3707 130.184 18.224 130.051 18.064L129.963 18.616C129.931 18.7547 129.875 18.8533 129.795 18.912C129.72 18.9707 129.616 19 129.483 19H128.179V7.112H130.155V11.8ZM139.121 12.216C139.377 11.7253 139.681 11.3413 140.033 11.064C140.385 10.7813 140.801 10.64 141.281 10.64C141.66 10.64 141.964 10.7227 142.193 10.888L142.065 12.368C142.039 12.464 141.999 12.5333 141.945 12.576C141.897 12.6133 141.831 12.632 141.745 12.632C141.665 12.632 141.545 12.6187 141.385 12.592C141.231 12.5653 141.079 12.552 140.929 12.552C140.711 12.552 140.516 12.584 140.345 12.648C140.175 12.712 140.02 12.8053 139.881 12.928C139.748 13.0453 139.628 13.1893 139.521 13.36C139.42 13.5307 139.324 13.7253 139.233 13.944V19H137.257V10.792H138.417C138.62 10.792 138.761 10.8293 138.841 10.904C138.921 10.9733 138.975 11.1013 139.001 11.288L139.121 12.216ZM147.453 15.496C146.882 15.5227 146.402 15.5733 146.013 15.648C145.623 15.7173 145.311 15.808 145.077 15.92C144.842 16.032 144.674 16.1627 144.573 16.312C144.471 16.4613 144.421 16.624 144.421 16.8C144.421 17.1467 144.522 17.3947 144.725 17.544C144.933 17.6933 145.202 17.768 145.533 17.768C145.938 17.768 146.287 17.696 146.581 17.552C146.879 17.4027 147.17 17.1787 147.453 16.88V15.496ZM142.925 11.936C143.869 11.072 145.005 10.64 146.333 10.64C146.813 10.64 147.242 10.72 147.621 10.88C147.999 11.0347 148.319 11.2533 148.581 11.536C148.842 11.8133 149.039 12.1467 149.173 12.536C149.311 12.9253 149.381 13.352 149.381 13.816V19H148.485C148.298 19 148.154 18.9733 148.053 18.92C147.951 18.8613 147.871 18.7467 147.813 18.576L147.637 17.984C147.429 18.1707 147.226 18.336 147.029 18.48C146.831 18.6187 146.626 18.736 146.413 18.832C146.199 18.928 145.97 19 145.725 19.048C145.485 19.1013 145.218 19.128 144.925 19.128C144.578 19.128 144.258 19.0827 143.965 18.992C143.671 18.896 143.418 18.7547 143.205 18.568C142.991 18.3813 142.826 18.1493 142.709 17.872C142.591 17.5947 142.533 17.272 142.533 16.904C142.533 16.696 142.567 16.4907 142.637 16.288C142.706 16.08 142.818 15.8827 142.973 15.696C143.133 15.5093 143.338 15.3333 143.589 15.168C143.839 15.0027 144.146 14.8587 144.509 14.736C144.877 14.6133 145.303 14.5147 145.789 14.44C146.274 14.36 146.829 14.312 147.453 14.296V13.816C147.453 13.2667 147.335 12.8613 147.101 12.6C146.866 12.3333 146.527 12.2 146.085 12.2C145.765 12.2 145.498 12.2373 145.285 12.312C145.077 12.3867 144.893 12.472 144.733 12.568C144.573 12.6587 144.426 12.7413 144.293 12.816C144.165 12.8907 144.021 12.928 143.861 12.928C143.722 12.928 143.605 12.8933 143.509 12.824C143.413 12.7493 143.335 12.664 143.277 12.568L142.925 11.936ZM153.106 12.216C153.362 11.7253 153.666 11.3413 154.018 11.064C154.37 10.7813 154.786 10.64 155.266 10.64C155.644 10.64 155.948 10.7227 156.178 10.888L156.05 12.368C156.023 12.464 155.983 12.5333 155.93 12.576C155.882 12.6133 155.815 12.632 155.73 12.632C155.65 12.632 155.53 12.6187 155.37 12.592C155.215 12.5653 155.063 12.552 154.914 12.552C154.695 12.552 154.5 12.584 154.33 12.648C154.159 12.712 154.004 12.8053 153.866 12.928C153.732 13.0453 153.612 13.1893 153.506 13.36C153.404 13.5307 153.308 13.7253 153.218 13.944V19H151.242V10.792H152.402C152.604 10.792 152.746 10.8293 152.826 10.904C152.906 10.9733 152.959 11.1013 152.986 11.288L153.106 12.216ZM164.666 10.792L160.194 21.256C160.136 21.3947 160.058 21.4987 159.962 21.568C159.872 21.6427 159.73 21.68 159.538 21.68H158.066L159.602 18.384L156.282 10.792H158.018C158.173 10.792 158.293 10.8293 158.378 10.904C158.469 10.9787 158.536 11.064 158.578 11.16L160.322 15.416C160.381 15.56 160.429 15.704 160.466 15.848C160.509 15.992 160.549 16.1387 160.586 16.288C160.634 16.1387 160.682 15.992 160.73 15.848C160.778 15.6987 160.832 15.552 160.89 15.408L162.538 11.16C162.581 11.0533 162.65 10.9653 162.746 10.896C162.848 10.8267 162.96 10.792 163.082 10.792H164.666Z"></path>
        </symbol>
        <symbol id="fidback-support"  viewBox="0 0 169 26">
            <path fill-rule="evenodd" clip-rule="evenodd" d="M9.4547 7.16732C9.36168 7.16732 9.27547 7.21676 9.22843 7.29736L9.22433 7.30438L6.16683 12.2612V18.834H11.8907C12.0135 18.834 12.1198 18.7487 12.1464 18.629L12.1487 18.6186L13.8487 11.9788C13.8798 11.8179 13.7565 11.6673 13.5915 11.6673H11.0002C10.566 11.6673 10.1268 11.5223 9.80696 11.2101C9.47075 10.882 9.31488 10.412 9.41491 9.90572L9.89414 7.48001C9.92614 7.31806 9.80219 7.16732 9.63725 7.16732H9.4547ZM4.8335 18.834V12.7387H2.47118C2.32739 12.7387 2.2104 12.8548 2.20929 12.9987C2.20929 12.9987 2.20929 12.9987 2.20929 12.9987L2.16684 18.5701C2.16572 18.7154 2.28327 18.834 2.42868 18.834H4.8335ZM5.12809 11.4054L8.08155 6.61731C8.36843 6.13222 8.89032 5.83398 9.4547 5.83398H9.63725C10.6424 5.83398 11.397 6.75237 11.2022 7.73844L10.723 10.1641C10.7144 10.2073 10.72 10.2269 10.7213 10.2312C10.7228 10.236 10.726 10.244 10.7383 10.256C10.7661 10.2832 10.8492 10.334 11.0002 10.334H13.5915C14.6121 10.334 15.3701 11.2792 15.1487 12.2754L15.1464 12.2858L13.4453 18.93C13.2788 19.6537 12.6343 20.1673 11.8907 20.1673H2.42868C1.54298 20.1673 0.826756 19.4457 0.833544 18.56C0.833544 18.56 0.833544 18.56 0.833544 18.56L0.875993 12.9885C0.88271 12.1124 1.59485 11.4054 2.47118 11.4054H5.12809Z"></path>
            <path d="M27.7918 9.144V12.568H32.1278V14.288H27.7918V19H25.6318V7.432H32.9278V9.144H27.7918ZM38.9515 13.952C38.9515 13.696 38.9142 13.456 38.8395 13.232C38.7702 13.0027 38.6635 12.8027 38.5195 12.632C38.3755 12.4613 38.1915 12.328 37.9675 12.232C37.7488 12.1307 37.4928 12.08 37.1995 12.08C36.6288 12.08 36.1782 12.2427 35.8475 12.568C35.5222 12.8933 35.3142 13.3547 35.2235 13.952H38.9515ZM35.1835 15.144C35.2155 15.5653 35.2902 15.9307 35.4075 16.24C35.5248 16.544 35.6795 16.7973 35.8715 17C36.0635 17.1973 36.2902 17.3467 36.5515 17.448C36.8182 17.544 37.1115 17.592 37.4315 17.592C37.7515 17.592 38.0262 17.5547 38.2555 17.48C38.4902 17.4053 38.6928 17.3227 38.8635 17.232C39.0395 17.1413 39.1915 17.0587 39.3195 16.984C39.4528 16.9093 39.5808 16.872 39.7035 16.872C39.8688 16.872 39.9915 16.9333 40.0715 17.056L40.6395 17.776C40.4208 18.032 40.1755 18.248 39.9035 18.424C39.6315 18.5947 39.3462 18.7333 39.0475 18.84C38.7542 18.9413 38.4528 19.0133 38.1435 19.056C37.8395 19.0987 37.5435 19.12 37.2555 19.12C36.6848 19.12 36.1542 19.0267 35.6635 18.84C35.1728 18.648 34.7462 18.368 34.3835 18C34.0208 17.6267 33.7355 17.168 33.5275 16.624C33.3195 16.0747 33.2155 15.44 33.2155 14.72C33.2155 14.16 33.3062 13.6347 33.4875 13.144C33.6688 12.648 33.9275 12.2187 34.2635 11.856C34.6048 11.488 35.0182 11.1973 35.5035 10.984C35.9942 10.7707 36.5462 10.664 37.1595 10.664C37.6768 10.664 38.1542 10.7467 38.5915 10.912C39.0288 11.0773 39.4048 11.32 39.7195 11.64C40.0342 11.9547 40.2795 12.344 40.4555 12.808C40.6368 13.2667 40.7275 13.792 40.7275 14.384C40.7275 14.6827 40.6955 14.8853 40.6315 14.992C40.5675 15.0933 40.4448 15.144 40.2635 15.144H35.1835ZM47.4984 13.952C47.4984 13.696 47.461 13.456 47.3864 13.232C47.317 13.0027 47.2104 12.8027 47.0664 12.632C46.9224 12.4613 46.7384 12.328 46.5144 12.232C46.2957 12.1307 46.0397 12.08 45.7464 12.08C45.1757 12.08 44.725 12.2427 44.3944 12.568C44.069 12.8933 43.861 13.3547 43.7704 13.952H47.4984ZM43.7304 15.144C43.7624 15.5653 43.837 15.9307 43.9544 16.24C44.0717 16.544 44.2264 16.7973 44.4184 17C44.6104 17.1973 44.837 17.3467 45.0984 17.448C45.365 17.544 45.6584 17.592 45.9784 17.592C46.2984 17.592 46.573 17.5547 46.8024 17.48C47.037 17.4053 47.2397 17.3227 47.4104 17.232C47.5864 17.1413 47.7384 17.0587 47.8664 16.984C47.9997 16.9093 48.1277 16.872 48.2504 16.872C48.4157 16.872 48.5384 16.9333 48.6184 17.056L49.1864 17.776C48.9677 18.032 48.7224 18.248 48.4504 18.424C48.1784 18.5947 47.893 18.7333 47.5944 18.84C47.301 18.9413 46.9997 19.0133 46.6904 19.056C46.3864 19.0987 46.0904 19.12 45.8024 19.12C45.2317 19.12 44.701 19.0267 44.2104 18.84C43.7197 18.648 43.293 18.368 42.9304 18C42.5677 17.6267 42.2824 17.168 42.0744 16.624C41.8664 16.0747 41.7624 15.44 41.7624 14.72C41.7624 14.16 41.853 13.6347 42.0344 13.144C42.2157 12.648 42.4744 12.2187 42.8104 11.856C43.1517 11.488 43.565 11.1973 44.0504 10.984C44.541 10.7707 45.093 10.664 45.7064 10.664C46.2237 10.664 46.701 10.7467 47.1384 10.912C47.5757 11.0773 47.9517 11.32 48.2664 11.64C48.581 11.9547 48.8264 12.344 49.0024 12.808C49.1837 13.2667 49.2744 13.792 49.2744 14.384C49.2744 14.6827 49.2424 14.8853 49.1784 14.992C49.1144 15.0933 48.9917 15.144 48.8104 15.144H43.7304ZM55.9093 12.888C55.6853 12.616 55.4399 12.424 55.1733 12.312C54.9119 12.2 54.6293 12.144 54.3253 12.144C54.0266 12.144 53.7573 12.2 53.5173 12.312C53.2773 12.424 53.0719 12.5947 52.9013 12.824C52.7306 13.048 52.5999 13.336 52.5093 13.688C52.4186 14.0347 52.3733 14.4453 52.3733 14.92C52.3733 15.4 52.4106 15.808 52.4853 16.144C52.5653 16.4747 52.6773 16.7467 52.8213 16.96C52.9653 17.168 53.1413 17.32 53.3493 17.416C53.5573 17.5067 53.7893 17.552 54.0453 17.552C54.4559 17.552 54.8053 17.4667 55.0933 17.296C55.3813 17.1253 55.6533 16.8827 55.9093 16.568V12.888ZM57.8853 7.112V19H56.6773C56.4159 19 56.2506 18.88 56.1813 18.64L56.0133 17.848C55.6826 18.2267 55.3013 18.5333 54.8693 18.768C54.4426 19.0027 53.9439 19.12 53.3733 19.12C52.9253 19.12 52.5146 19.0267 52.1413 18.84C51.7679 18.6533 51.4453 18.384 51.1733 18.032C50.9066 17.6747 50.6986 17.2347 50.5493 16.712C50.4053 16.1893 50.3333 15.592 50.3333 14.92C50.3333 14.312 50.4159 13.7467 50.5813 13.224C50.7466 12.7013 50.9839 12.248 51.2933 11.864C51.6026 11.48 51.9733 11.1813 52.4053 10.968C52.8373 10.7493 53.3226 10.64 53.8613 10.64C54.3199 10.64 54.7119 10.712 55.0373 10.856C55.3626 11 55.6533 11.1947 55.9093 11.44V7.112H57.8853ZM61.8114 16.872C62.0354 17.144 62.278 17.336 62.5394 17.448C62.806 17.56 63.086 17.616 63.3794 17.616C63.6834 17.616 63.9554 17.5627 64.1954 17.456C64.4407 17.344 64.6487 17.1733 64.8194 16.944C64.99 16.7093 65.1207 16.4133 65.2114 16.056C65.302 15.6933 65.3474 15.2613 65.3474 14.76C65.3474 13.8587 65.198 13.208 64.8994 12.808C64.6007 12.4027 64.1714 12.2 63.6114 12.2C63.2327 12.2 62.902 12.288 62.6194 12.464C62.3367 12.6347 62.0674 12.8773 61.8114 13.192V16.872ZM61.8114 11.8C62.142 11.4533 62.5074 11.1787 62.9074 10.976C63.3127 10.768 63.774 10.664 64.2914 10.664C64.766 10.664 65.1927 10.7573 65.5714 10.944C65.9554 11.1307 66.2807 11.4 66.5474 11.752C66.8194 12.0987 67.0274 12.52 67.1714 13.016C67.3154 13.512 67.3874 14.0693 67.3874 14.688C67.3874 15.3547 67.3047 15.96 67.1394 16.504C66.974 17.048 66.7367 17.5147 66.4274 17.904C66.1234 18.288 65.7554 18.5867 65.3234 18.8C64.8914 19.0133 64.4114 19.12 63.8834 19.12C63.6274 19.12 63.3954 19.0933 63.1874 19.04C62.9794 18.992 62.7874 18.9227 62.6114 18.832C62.4354 18.7413 62.2727 18.632 62.1234 18.504C61.9794 18.3707 61.8407 18.224 61.7074 18.064L61.6194 18.616C61.5874 18.7547 61.5314 18.8533 61.4514 18.912C61.3767 18.9707 61.2727 19 61.1394 19H59.8354V7.112H61.8114V11.8ZM73.2495 15.496C72.6788 15.5227 72.1988 15.5733 71.8095 15.648C71.4202 15.7173 71.1082 15.808 70.8735 15.92C70.6388 16.032 70.4708 16.1627 70.3695 16.312C70.2682 16.4613 70.2175 16.624 70.2175 16.8C70.2175 17.1467 70.3188 17.3947 70.5215 17.544C70.7295 17.6933 70.9988 17.768 71.3295 17.768C71.7348 17.768 72.0842 17.696 72.3775 17.552C72.6762 17.4027 72.9668 17.1787 73.2495 16.88V15.496ZM68.7215 11.936C69.6655 11.072 70.8015 10.64 72.1295 10.64C72.6095 10.64 73.0388 10.72 73.4175 10.88C73.7962 11.0347 74.1162 11.2533 74.3775 11.536C74.6388 11.8133 74.8362 12.1467 74.9695 12.536C75.1082 12.9253 75.1775 13.352 75.1775 13.816V19H74.2815C74.0948 19 73.9508 18.9733 73.8495 18.92C73.7482 18.8613 73.6682 18.7467 73.6095 18.576L73.4335 17.984C73.2255 18.1707 73.0228 18.336 72.8255 18.48C72.6282 18.6187 72.4228 18.736 72.2095 18.832C71.9962 18.928 71.7668 19 71.5215 19.048C71.2815 19.1013 71.0148 19.128 70.7215 19.128C70.3748 19.128 70.0548 19.0827 69.7615 18.992C69.4682 18.896 69.2148 18.7547 69.0015 18.568C68.7882 18.3813 68.6228 18.1493 68.5055 17.872C68.3882 17.5947 68.3295 17.272 68.3295 16.904C68.3295 16.696 68.3642 16.4907 68.4335 16.288C68.5028 16.08 68.6148 15.8827 68.7695 15.696C68.9295 15.5093 69.1348 15.3333 69.3855 15.168C69.6362 15.0027 69.9428 14.8587 70.3055 14.736C70.6735 14.6133 71.1002 14.5147 71.5855 14.44C72.0708 14.36 72.6255 14.312 73.2495 14.296V13.816C73.2495 13.2667 73.1322 12.8613 72.8975 12.6C72.6628 12.3333 72.3242 12.2 71.8815 12.2C71.5615 12.2 71.2948 12.2373 71.0815 12.312C70.8735 12.3867 70.6895 12.472 70.5295 12.568C70.3695 12.6587 70.2228 12.7413 70.0895 12.816C69.9615 12.8907 69.8175 12.928 69.6575 12.928C69.5188 12.928 69.4015 12.8933 69.3055 12.824C69.2095 12.7493 69.1322 12.664 69.0735 12.568L68.7215 11.936ZM82.9185 12.528C82.8598 12.6027 82.8012 12.6613 82.7425 12.704C82.6892 12.7467 82.6092 12.768 82.5025 12.768C82.4012 12.768 82.3025 12.7387 82.2065 12.68C82.1105 12.616 81.9958 12.5467 81.8625 12.472C81.7292 12.392 81.5692 12.3227 81.3825 12.264C81.2012 12.2 80.9745 12.168 80.7025 12.168C80.3558 12.168 80.0518 12.232 79.7905 12.36C79.5292 12.4827 79.3105 12.6613 79.1345 12.896C78.9638 13.1307 78.8358 13.416 78.7505 13.752C78.6652 14.0827 78.6225 14.4587 78.6225 14.88C78.6225 15.3173 78.6678 15.7067 78.7585 16.048C78.8545 16.3893 78.9905 16.6773 79.1665 16.912C79.3425 17.1413 79.5558 17.3173 79.8065 17.44C80.0572 17.5573 80.3398 17.616 80.6545 17.616C80.9692 17.616 81.2225 17.5787 81.4145 17.504C81.6118 17.424 81.7772 17.3387 81.9105 17.248C82.0438 17.152 82.1585 17.0667 82.2545 16.992C82.3558 16.912 82.4678 16.872 82.5905 16.872C82.7505 16.872 82.8705 16.9333 82.9505 17.056L83.5185 17.776C83.2998 18.032 83.0625 18.248 82.8065 18.424C82.5505 18.5947 82.2838 18.7333 82.0065 18.84C81.7345 18.9413 81.4518 19.0133 81.1585 19.056C80.8705 19.0987 80.5825 19.12 80.2945 19.12C79.7878 19.12 79.3105 19.0267 78.8625 18.84C78.4145 18.648 78.0225 18.3707 77.6865 18.008C77.3505 17.6453 77.0838 17.2027 76.8865 16.68C76.6945 16.152 76.5985 15.552 76.5985 14.88C76.5985 14.2773 76.6838 13.72 76.8545 13.208C77.0305 12.6907 77.2865 12.2453 77.6225 11.872C77.9585 11.4933 78.3745 11.1973 78.8705 10.984C79.3665 10.7707 79.9372 10.664 80.5825 10.664C81.1958 10.664 81.7318 10.7627 82.1905 10.96C82.6545 11.1573 83.0705 11.44 83.4385 11.808L82.9185 12.528ZM86.7333 7.112V13.92H87.1013C87.2346 13.92 87.3386 13.904 87.4133 13.872C87.4933 13.8347 87.5733 13.7627 87.6533 13.656L89.6933 11.136C89.7786 11.024 89.8719 10.9387 89.9733 10.88C90.0799 10.8213 90.2159 10.792 90.3813 10.792H92.1892L89.6373 13.84C89.4559 14.08 89.2586 14.264 89.0453 14.392C89.1573 14.472 89.2559 14.5653 89.3413 14.672C89.4319 14.7787 89.5173 14.8933 89.5973 15.016L92.3333 19H90.5493C90.3946 19 90.2613 18.976 90.1493 18.928C90.0373 18.8747 89.9439 18.7813 89.8693 18.648L87.7733 15.536C87.6986 15.4133 87.6213 15.3333 87.5413 15.296C87.4613 15.2587 87.3413 15.24 87.1813 15.24H86.7333V19H84.7573V7.112H86.7333ZM100.043 13.592C99.6161 13.8693 99.3041 14.184 99.1068 14.536C98.9148 14.8827 98.8188 15.256 98.8188 15.656C98.8188 15.9493 98.8694 16.2133 98.9708 16.448C99.0721 16.6827 99.2081 16.8827 99.3788 17.048C99.5548 17.208 99.7574 17.3333 99.9868 17.424C100.221 17.5093 100.469 17.552 100.731 17.552C101.2 17.552 101.629 17.48 102.019 17.336C102.408 17.1867 102.76 16.9813 103.075 16.72L100.043 13.592ZM107.747 19H105.811C105.608 19 105.443 18.976 105.315 18.928C105.192 18.88 105.061 18.7787 104.923 18.624L104.123 17.8C103.616 18.216 103.048 18.5413 102.419 18.776C101.789 19.0107 101.109 19.128 100.379 19.128C99.9361 19.128 99.4988 19.0533 99.0668 18.904C98.6401 18.7493 98.2588 18.528 97.9228 18.24C97.5868 17.952 97.3148 17.6053 97.1068 17.2C96.9041 16.7893 96.8028 16.328 96.8028 15.816C96.8028 15.4533 96.8614 15.112 96.9788 14.792C97.0961 14.4667 97.2588 14.1653 97.4668 13.888C97.6748 13.6107 97.9228 13.3627 98.2108 13.144C98.4988 12.92 98.8134 12.728 99.1548 12.568C98.8668 12.168 98.6588 11.7787 98.5308 11.4C98.4028 11.016 98.3388 10.6347 98.3388 10.256C98.3388 9.856 98.4108 9.47733 98.5548 9.12C98.7041 8.75733 98.9174 8.44267 99.1948 8.176C99.4721 7.90933 99.8134 7.69867 100.219 7.544C100.624 7.384 101.083 7.304 101.595 7.304C102.064 7.304 102.483 7.376 102.851 7.52C103.224 7.664 103.541 7.856 103.803 8.096C104.069 8.336 104.277 8.61067 104.427 8.92C104.581 9.22933 104.672 9.54933 104.699 9.88L103.443 10.144C103.208 10.192 103.037 10.0907 102.931 9.84C102.883 9.70133 102.819 9.57067 102.739 9.448C102.664 9.32 102.573 9.21067 102.467 9.12C102.36 9.024 102.235 8.94933 102.091 8.896C101.947 8.83733 101.781 8.808 101.595 8.808C101.371 8.808 101.171 8.848 100.995 8.928C100.819 9.00267 100.669 9.10667 100.547 9.24C100.429 9.368 100.339 9.52 100.275 9.696C100.211 9.86667 100.179 10.048 100.179 10.24C100.179 10.4 100.195 10.5547 100.227 10.704C100.259 10.8533 100.312 11.0027 100.387 11.152C100.461 11.3013 100.557 11.456 100.675 11.616C100.797 11.7707 100.947 11.9387 101.123 12.12L104.195 15.312C104.371 14.976 104.512 14.6213 104.619 14.248C104.725 13.8747 104.795 13.496 104.827 13.112C104.843 12.9893 104.885 12.8907 104.955 12.816C105.024 12.7413 105.12 12.704 105.243 12.704H106.475C106.469 13.408 106.368 14.08 106.171 14.72C105.973 15.36 105.691 15.9493 105.323 16.488L107.747 19ZM119.136 9.536C119.072 9.648 119.002 9.73067 118.928 9.784C118.858 9.832 118.77 9.856 118.664 9.856C118.552 9.856 118.429 9.816 118.296 9.736C118.168 9.65067 118.013 9.55733 117.832 9.456C117.65 9.35467 117.437 9.264 117.192 9.184C116.952 9.09867 116.666 9.056 116.336 9.056C116.037 9.056 115.776 9.09333 115.552 9.168C115.328 9.23733 115.138 9.336 114.984 9.464C114.834 9.592 114.722 9.74667 114.648 9.928C114.573 10.104 114.536 10.2987 114.536 10.512C114.536 10.784 114.61 11.0107 114.76 11.192C114.914 11.3733 115.117 11.528 115.368 11.656C115.618 11.784 115.904 11.8987 116.224 12C116.544 12.1013 116.872 12.2107 117.208 12.328C117.544 12.44 117.872 12.5733 118.192 12.728C118.512 12.8773 118.797 13.0693 119.048 13.304C119.298 13.5333 119.498 13.816 119.648 14.152C119.802 14.488 119.88 14.896 119.88 15.376C119.88 15.8987 119.789 16.3893 119.608 16.848C119.432 17.3013 119.17 17.6987 118.824 18.04C118.482 18.376 118.064 18.6427 117.568 18.84C117.072 19.032 116.504 19.128 115.864 19.128C115.496 19.128 115.133 19.0907 114.776 19.016C114.418 18.9467 114.074 18.8453 113.743 18.712C113.418 18.5787 113.112 18.4187 112.824 18.232C112.536 18.0453 112.28 17.8373 112.056 17.608L112.688 16.576C112.741 16.5013 112.81 16.44 112.896 16.392C112.981 16.3387 113.072 16.312 113.168 16.312C113.301 16.312 113.445 16.368 113.6 16.48C113.754 16.5867 113.938 16.7067 114.152 16.84C114.365 16.9733 114.613 17.096 114.896 17.208C115.184 17.3147 115.528 17.368 115.928 17.368C116.541 17.368 117.016 17.224 117.352 16.936C117.688 16.6427 117.856 16.224 117.856 15.68C117.856 15.376 117.778 15.128 117.624 14.936C117.474 14.744 117.274 14.584 117.024 14.456C116.773 14.3227 116.488 14.2107 116.168 14.12C115.848 14.0293 115.522 13.9307 115.192 13.824C114.861 13.7173 114.536 13.5893 114.216 13.44C113.896 13.2907 113.61 13.096 113.36 12.856C113.109 12.616 112.906 12.3173 112.752 11.96C112.602 11.5973 112.528 11.152 112.528 10.624C112.528 10.2027 112.61 9.792 112.776 9.392C112.946 8.992 113.192 8.63733 113.512 8.328C113.832 8.01867 114.226 7.77067 114.696 7.584C115.165 7.39733 115.704 7.304 116.312 7.304C116.994 7.304 117.624 7.41067 118.2 7.624C118.776 7.83733 119.266 8.136 119.672 8.52L119.136 9.536ZM128.376 10.792V19H127.168C126.907 19 126.741 18.88 126.672 18.64L126.536 17.984C126.2 18.3253 125.829 18.6027 125.424 18.816C125.019 19.024 124.541 19.128 123.992 19.128C123.544 19.128 123.147 19.0533 122.8 18.904C122.459 18.7493 122.171 18.5333 121.936 18.256C121.701 17.9787 121.523 17.6507 121.4 17.272C121.283 16.888 121.224 16.4667 121.224 16.008V10.792H123.2V16.008C123.2 16.5093 123.315 16.8987 123.544 17.176C123.779 17.448 124.128 17.584 124.592 17.584C124.933 17.584 125.253 17.5093 125.552 17.36C125.851 17.2053 126.133 16.9947 126.4 16.728V10.792H128.376ZM132.311 16.872C132.535 17.144 132.778 17.336 133.039 17.448C133.306 17.56 133.594 17.616 133.903 17.616C134.202 17.616 134.471 17.56 134.711 17.448C134.951 17.336 135.154 17.1653 135.319 16.936C135.49 16.7067 135.621 16.4187 135.711 16.072C135.802 15.72 135.847 15.3067 135.847 14.832C135.847 14.352 135.807 13.9467 135.727 13.616C135.653 13.28 135.543 13.008 135.399 12.8C135.255 12.592 135.079 12.44 134.871 12.344C134.669 12.248 134.437 12.2 134.175 12.2C133.765 12.2 133.415 12.288 133.127 12.464C132.839 12.6347 132.567 12.8773 132.311 13.192V16.872ZM132.207 11.912C132.543 11.5333 132.925 11.2267 133.351 10.992C133.778 10.7573 134.279 10.64 134.855 10.64C135.303 10.64 135.711 10.7333 136.079 10.92C136.453 11.1067 136.773 11.3787 137.039 11.736C137.311 12.088 137.519 12.5253 137.663 13.048C137.813 13.5653 137.887 14.16 137.887 14.832C137.887 15.4453 137.805 16.0133 137.639 16.536C137.474 17.0587 137.237 17.512 136.927 17.896C136.623 18.28 136.253 18.5813 135.815 18.8C135.383 19.0133 134.898 19.12 134.359 19.12C133.901 19.12 133.509 19.0507 133.183 18.912C132.858 18.768 132.567 18.5707 132.311 18.32V21.68H130.335V10.792H131.543C131.799 10.792 131.967 10.912 132.047 11.152L132.207 11.912ZM141.405 16.872C141.629 17.144 141.872 17.336 142.133 17.448C142.4 17.56 142.688 17.616 142.997 17.616C143.296 17.616 143.565 17.56 143.805 17.448C144.045 17.336 144.248 17.1653 144.413 16.936C144.584 16.7067 144.714 16.4187 144.805 16.072C144.896 15.72 144.941 15.3067 144.941 14.832C144.941 14.352 144.901 13.9467 144.821 13.616C144.746 13.28 144.637 13.008 144.493 12.8C144.349 12.592 144.173 12.44 143.965 12.344C143.762 12.248 143.53 12.2 143.269 12.2C142.858 12.2 142.509 12.288 142.221 12.464C141.933 12.6347 141.661 12.8773 141.405 13.192V16.872ZM141.301 11.912C141.637 11.5333 142.018 11.2267 142.445 10.992C142.872 10.7573 143.373 10.64 143.949 10.64C144.397 10.64 144.805 10.7333 145.173 10.92C145.546 11.1067 145.866 11.3787 146.133 11.736C146.405 12.088 146.613 12.5253 146.757 13.048C146.906 13.5653 146.981 14.16 146.981 14.832C146.981 15.4453 146.898 16.0133 146.733 16.536C146.568 17.0587 146.33 17.512 146.021 17.896C145.717 18.28 145.346 18.5813 144.909 18.8C144.477 19.0133 143.992 19.12 143.453 19.12C142.994 19.12 142.602 19.0507 142.277 18.912C141.952 18.768 141.661 18.5707 141.405 18.32V21.68H139.429V10.792H140.637C140.893 10.792 141.061 10.912 141.141 11.152L141.301 11.912ZM152.155 10.664C152.763 10.664 153.315 10.7627 153.811 10.96C154.312 11.1573 154.739 11.4373 155.091 11.8C155.448 12.1627 155.723 12.6053 155.915 13.128C156.107 13.6507 156.203 14.2347 156.203 14.88C156.203 15.5307 156.107 16.1173 155.915 16.64C155.723 17.1627 155.448 17.608 155.091 17.976C154.739 18.344 154.312 18.6267 153.811 18.824C153.315 19.0213 152.763 19.12 152.155 19.12C151.542 19.12 150.984 19.0213 150.483 18.824C149.982 18.6267 149.552 18.344 149.195 17.976C148.843 17.608 148.568 17.1627 148.371 16.64C148.179 16.1173 148.083 15.5307 148.083 14.88C148.083 14.2347 148.179 13.6507 148.371 13.128C148.568 12.6053 148.843 12.1627 149.195 11.8C149.552 11.4373 149.982 11.1573 150.483 10.96C150.984 10.7627 151.542 10.664 152.155 10.664ZM152.155 17.6C152.838 17.6 153.342 17.3707 153.667 16.912C153.998 16.4533 154.163 15.7813 154.163 14.896C154.163 14.0107 153.998 13.336 153.667 12.872C153.342 12.408 152.838 12.176 152.155 12.176C151.462 12.176 150.947 12.4107 150.611 12.88C150.28 13.344 150.115 14.016 150.115 14.896C150.115 15.776 150.28 16.448 150.611 16.912C150.947 17.3707 151.462 17.6 152.155 17.6ZM159.574 12.216C159.83 11.7253 160.134 11.3413 160.486 11.064C160.838 10.7813 161.254 10.64 161.734 10.64C162.113 10.64 162.417 10.7227 162.646 10.888L162.518 12.368C162.492 12.464 162.452 12.5333 162.398 12.576C162.35 12.6133 162.284 12.632 162.198 12.632C162.118 12.632 161.998 12.6187 161.838 12.592C161.684 12.5653 161.532 12.552 161.382 12.552C161.164 12.552 160.969 12.584 160.798 12.648C160.628 12.712 160.473 12.8053 160.334 12.928C160.201 13.0453 160.081 13.1893 159.974 13.36C159.873 13.5307 159.777 13.7253 159.686 13.944V19H157.71V10.792H158.87C159.073 10.792 159.214 10.8293 159.294 10.904C159.374 10.9733 159.428 11.1013 159.454 11.288L159.574 12.216ZM166.415 19.128C165.7 19.128 165.151 18.928 164.767 18.528C164.388 18.1227 164.199 17.5653 164.199 16.856V12.272H163.359C163.252 12.272 163.162 12.2373 163.087 12.168C163.012 12.0987 162.975 11.9947 162.975 11.856V11.072L164.295 10.856L164.711 8.616C164.738 8.50933 164.788 8.42667 164.863 8.368C164.938 8.30933 165.034 8.28 165.151 8.28H166.175V10.864H168.367V12.272H166.175V16.72C166.175 16.976 166.236 17.176 166.359 17.32C166.487 17.464 166.66 17.536 166.879 17.536C167.002 17.536 167.103 17.5227 167.183 17.496C167.268 17.464 167.34 17.432 167.399 17.4C167.463 17.368 167.519 17.3387 167.567 17.312C167.615 17.28 167.663 17.264 167.711 17.264C167.77 17.264 167.818 17.28 167.855 17.312C167.892 17.3387 167.932 17.3813 167.975 17.44L168.567 18.4C168.279 18.64 167.948 18.8213 167.575 18.944C167.202 19.0667 166.815 19.128 166.415 19.128Z"></path>
        </symbol>
        <symbol id="experlenced-tutors" viewBox="0 0 161 26">
            <path fill-rule="evenodd" clip-rule="evenodd" d="M6.77932 6.46709C7.24248 5.39899 8.75719 5.39899 9.22036 6.46709L10.6214 9.69809L14.1273 10.0322C15.2862 10.1426 15.7543 11.5832 14.8816 12.3537L12.2417 14.6847L13.0073 18.1221C13.2604 19.2585 12.035 20.1488 11.0325 19.5569L7.99984 17.7665L4.96721 19.5569C3.96469 20.1488 2.73926 19.2585 2.99236 18.1221L3.75801 14.6847L1.11809 12.3537C0.245398 11.5832 0.71347 10.1426 1.87242 10.0322L5.37824 9.69809L6.77932 6.46709ZM9.40091 10.2274L7.99984 6.99635L6.59876 10.2274C6.406 10.6719 5.98678 10.9765 5.50444 11.0224L1.99861 11.3565L4.63852 13.6874C5.00174 14.0081 5.16186 14.5009 5.05652 14.9739L4.29088 18.4114L7.32351 16.621C7.74075 16.3746 8.25893 16.3746 8.67617 16.621L11.7088 18.4114L10.9432 14.9739C10.8378 14.5009 10.9979 14.0081 11.3612 13.6874L14.0011 11.3565L10.4952 11.0224C10.0129 10.9765 9.59368 10.6719 9.40091 10.2274Z"></path>
            <path d="M27.6433 9.144V12.352H31.6913V14.008H27.6433V17.28H32.7793V19H25.4833V7.432H32.7793V9.144H27.6433ZM41.7024 19H39.7984C39.6544 19 39.5371 18.9627 39.4464 18.888C39.3611 18.8133 39.2891 18.728 39.2304 18.632L37.4944 15.776C37.4678 15.8667 37.4358 15.952 37.3984 16.032C37.3664 16.112 37.3291 16.1867 37.2864 16.256L35.7504 18.632C35.6918 18.7227 35.6198 18.808 35.5344 18.888C35.4491 18.9627 35.3424 19 35.2144 19H33.4464L36.2624 14.768L33.5584 10.792H35.4624C35.6064 10.792 35.7131 10.8133 35.7824 10.856C35.8518 10.8933 35.9131 10.9573 35.9664 11.048L37.6864 13.784C37.7451 13.6027 37.8278 13.424 37.9344 13.248L39.3184 11.088C39.4358 10.8907 39.5878 10.792 39.7744 10.792H41.5904L38.8944 14.68L41.7024 19ZM44.7098 16.872C44.9338 17.144 45.1765 17.336 45.4378 17.448C45.7045 17.56 45.9925 17.616 46.3018 17.616C46.6005 17.616 46.8698 17.56 47.1098 17.448C47.3498 17.336 47.5525 17.1653 47.7178 16.936C47.8885 16.7067 48.0191 16.4187 48.1098 16.072C48.2005 15.72 48.2458 15.3067 48.2458 14.832C48.2458 14.352 48.2058 13.9467 48.1258 13.616C48.0511 13.28 47.9418 13.008 47.7978 12.8C47.6538 12.592 47.4778 12.44 47.2698 12.344C47.0671 12.248 46.8351 12.2 46.5738 12.2C46.1631 12.2 45.8138 12.288 45.5258 12.464C45.2378 12.6347 44.9658 12.8773 44.7098 13.192V16.872ZM44.6058 11.912C44.9418 11.5333 45.3231 11.2267 45.7498 10.992C46.1765 10.7573 46.6778 10.64 47.2538 10.64C47.7018 10.64 48.1098 10.7333 48.4778 10.92C48.8511 11.1067 49.1711 11.3787 49.4378 11.736C49.7098 12.088 49.9178 12.5253 50.0618 13.048C50.2111 13.5653 50.2858 14.16 50.2858 14.832C50.2858 15.4453 50.2031 16.0133 50.0378 16.536C49.8725 17.0587 49.6351 17.512 49.3258 17.896C49.0218 18.28 48.6511 18.5813 48.2138 18.8C47.7818 19.0133 47.2965 19.12 46.7578 19.12C46.2991 19.12 45.9071 19.0507 45.5818 18.912C45.2565 18.768 44.9658 18.5707 44.7098 18.32V21.68H42.7338V10.792H43.9418C44.1978 10.792 44.3658 10.912 44.4458 11.152L44.6058 11.912ZM57.1156 13.952C57.1156 13.696 57.0782 13.456 57.0036 13.232C56.9342 13.0027 56.8276 12.8027 56.6836 12.632C56.5396 12.4613 56.3556 12.328 56.1316 12.232C55.9129 12.1307 55.6569 12.08 55.3636 12.08C54.7929 12.08 54.3422 12.2427 54.0116 12.568C53.6862 12.8933 53.4782 13.3547 53.3876 13.952H57.1156ZM53.3476 15.144C53.3796 15.5653 53.4542 15.9307 53.5716 16.24C53.6889 16.544 53.8436 16.7973 54.0356 17C54.2276 17.1973 54.4542 17.3467 54.7156 17.448C54.9822 17.544 55.2756 17.592 55.5956 17.592C55.9156 17.592 56.1902 17.5547 56.4196 17.48C56.6542 17.4053 56.8569 17.3227 57.0276 17.232C57.2036 17.1413 57.3556 17.0587 57.4836 16.984C57.6169 16.9093 57.7449 16.872 57.8676 16.872C58.0329 16.872 58.1556 16.9333 58.2356 17.056L58.8036 17.776C58.5849 18.032 58.3396 18.248 58.0676 18.424C57.7956 18.5947 57.5102 18.7333 57.2116 18.84C56.9182 18.9413 56.6169 19.0133 56.3076 19.056C56.0036 19.0987 55.7076 19.12 55.4196 19.12C54.8489 19.12 54.3182 19.0267 53.8276 18.84C53.3369 18.648 52.9102 18.368 52.5476 18C52.1849 17.6267 51.8996 17.168 51.6916 16.624C51.4836 16.0747 51.3796 15.44 51.3796 14.72C51.3796 14.16 51.4702 13.6347 51.6516 13.144C51.8329 12.648 52.0916 12.2187 52.4276 11.856C52.7689 11.488 53.1822 11.1973 53.6676 10.984C54.1582 10.7707 54.7102 10.664 55.3236 10.664C55.8409 10.664 56.3182 10.7467 56.7556 10.912C57.1929 11.0773 57.5689 11.32 57.8836 11.64C58.1982 11.9547 58.4436 12.344 58.6196 12.808C58.8009 13.2667 58.8916 13.792 58.8916 14.384C58.8916 14.6827 58.8596 14.8853 58.7956 14.992C58.7316 15.0933 58.6089 15.144 58.4276 15.144H53.3476ZM62.2384 12.216C62.4944 11.7253 62.7984 11.3413 63.1504 11.064C63.5024 10.7813 63.9184 10.64 64.3984 10.64C64.7771 10.64 65.0811 10.7227 65.3104 10.888L65.1824 12.368C65.1558 12.464 65.1158 12.5333 65.0624 12.576C65.0144 12.6133 64.9478 12.632 64.8624 12.632C64.7824 12.632 64.6624 12.6187 64.5024 12.592C64.3478 12.5653 64.1958 12.552 64.0464 12.552C63.8278 12.552 63.6331 12.584 63.4624 12.648C63.2918 12.712 63.1371 12.8053 62.9984 12.928C62.8651 13.0453 62.7451 13.1893 62.6384 13.36C62.5371 13.5307 62.4411 13.7253 62.3504 13.944V19H60.3744V10.792H61.5344C61.7371 10.792 61.8784 10.8293 61.9584 10.904C62.0384 10.9733 62.0918 11.1013 62.1184 11.288L62.2384 12.216ZM68.3912 10.792V19H66.4072V10.792H68.3912ZM68.6632 8.4C68.6632 8.57067 68.6285 8.73067 68.5592 8.88C68.4899 9.02933 68.3965 9.16 68.2792 9.272C68.1672 9.384 68.0339 9.47467 67.8792 9.544C67.7245 9.608 67.5592 9.64 67.3832 9.64C67.2125 9.64 67.0499 9.608 66.8952 9.544C66.7459 9.47467 66.6152 9.384 66.5032 9.272C66.3912 9.16 66.3005 9.02933 66.2312 8.88C66.1672 8.73067 66.1352 8.57067 66.1352 8.4C66.1352 8.224 66.1672 8.05867 66.2312 7.904C66.3005 7.74933 66.3912 7.616 66.5032 7.504C66.6152 7.392 66.7459 7.304 66.8952 7.24C67.0499 7.17067 67.2125 7.136 67.3832 7.136C67.5592 7.136 67.7245 7.17067 67.8792 7.24C68.0339 7.304 68.1672 7.392 68.2792 7.504C68.3965 7.616 68.4899 7.74933 68.5592 7.904C68.6285 8.05867 68.6632 8.224 68.6632 8.4ZM75.6937 13.952C75.6937 13.696 75.6564 13.456 75.5817 13.232C75.5124 13.0027 75.4057 12.8027 75.2617 12.632C75.1177 12.4613 74.9337 12.328 74.7097 12.232C74.491 12.1307 74.235 12.08 73.9417 12.08C73.371 12.08 72.9204 12.2427 72.5897 12.568C72.2644 12.8933 72.0564 13.3547 71.9657 13.952H75.6937ZM71.9257 15.144C71.9577 15.5653 72.0324 15.9307 72.1497 16.24C72.267 16.544 72.4217 16.7973 72.6137 17C72.8057 17.1973 73.0324 17.3467 73.2937 17.448C73.5604 17.544 73.8537 17.592 74.1737 17.592C74.4937 17.592 74.7684 17.5547 74.9977 17.48C75.2324 17.4053 75.435 17.3227 75.6057 17.232C75.7817 17.1413 75.9337 17.0587 76.0617 16.984C76.195 16.9093 76.323 16.872 76.4457 16.872C76.611 16.872 76.7337 16.9333 76.8137 17.056L77.3817 17.776C77.163 18.032 76.9177 18.248 76.6457 18.424C76.3737 18.5947 76.0884 18.7333 75.7897 18.84C75.4964 18.9413 75.195 19.0133 74.8857 19.056C74.5817 19.0987 74.2857 19.12 73.9977 19.12C73.427 19.12 72.8964 19.0267 72.4057 18.84C71.915 18.648 71.4884 18.368 71.1257 18C70.763 17.6267 70.4777 17.168 70.2697 16.624C70.0617 16.0747 69.9577 15.44 69.9577 14.72C69.9577 14.16 70.0484 13.6347 70.2297 13.144C70.411 12.648 70.6697 12.2187 71.0057 11.856C71.347 11.488 71.7604 11.1973 72.2457 10.984C72.7364 10.7707 73.2884 10.664 73.9017 10.664C74.419 10.664 74.8964 10.7467 75.3337 10.912C75.771 11.0773 76.147 11.32 76.4617 11.64C76.7764 11.9547 77.0217 12.344 77.1977 12.808C77.379 13.2667 77.4697 13.792 77.4697 14.384C77.4697 14.6827 77.4377 14.8853 77.3737 14.992C77.3097 15.0933 77.187 15.144 77.0057 15.144H71.9257ZM80.8006 11.8C80.9659 11.6347 81.1392 11.4827 81.3206 11.344C81.5072 11.2 81.7019 11.08 81.9046 10.984C82.1126 10.8827 82.3339 10.8053 82.5686 10.752C82.8032 10.6933 83.0592 10.664 83.3366 10.664C83.7846 10.664 84.1819 10.7413 84.5286 10.896C84.8752 11.0453 85.1632 11.2587 85.3926 11.536C85.6272 11.808 85.8032 12.136 85.9206 12.52C86.0432 12.8987 86.1046 13.3173 86.1046 13.776V19H84.1286V13.776C84.1286 13.2747 84.0139 12.888 83.7846 12.616C83.5552 12.3387 83.2059 12.2 82.7366 12.2C82.3952 12.2 82.0752 12.2773 81.7766 12.432C81.4779 12.5867 81.1952 12.7973 80.9286 13.064V19H78.9526V10.792H80.1606C80.4166 10.792 80.5846 10.912 80.6646 11.152L80.8006 11.8ZM93.8638 12.528C93.8051 12.6027 93.7465 12.6613 93.6878 12.704C93.6345 12.7467 93.5545 12.768 93.4478 12.768C93.3465 12.768 93.2478 12.7387 93.1518 12.68C93.0558 12.616 92.9411 12.5467 92.8078 12.472C92.6745 12.392 92.5145 12.3227 92.3278 12.264C92.1465 12.2 91.9198 12.168 91.6478 12.168C91.3011 12.168 90.9971 12.232 90.7358 12.36C90.4745 12.4827 90.2558 12.6613 90.0798 12.896C89.9091 13.1307 89.7811 13.416 89.6958 13.752C89.6105 14.0827 89.5678 14.4587 89.5678 14.88C89.5678 15.3173 89.6131 15.7067 89.7038 16.048C89.7998 16.3893 89.9358 16.6773 90.1118 16.912C90.2878 17.1413 90.5011 17.3173 90.7518 17.44C91.0025 17.5573 91.2851 17.616 91.5998 17.616C91.9145 17.616 92.1678 17.5787 92.3598 17.504C92.5571 17.424 92.7225 17.3387 92.8558 17.248C92.9891 17.152 93.1038 17.0667 93.1998 16.992C93.3011 16.912 93.4131 16.872 93.5358 16.872C93.6958 16.872 93.8158 16.9333 93.8958 17.056L94.4638 17.776C94.2451 18.032 94.0078 18.248 93.7518 18.424C93.4958 18.5947 93.2291 18.7333 92.9518 18.84C92.6798 18.9413 92.3971 19.0133 92.1038 19.056C91.8158 19.0987 91.5278 19.12 91.2398 19.12C90.7331 19.12 90.2558 19.0267 89.8078 18.84C89.3598 18.648 88.9678 18.3707 88.6318 18.008C88.2958 17.6453 88.0291 17.2027 87.8318 16.68C87.6398 16.152 87.5438 15.552 87.5438 14.88C87.5438 14.2773 87.6291 13.72 87.7998 13.208C87.9758 12.6907 88.2318 12.2453 88.5678 11.872C88.9038 11.4933 89.3198 11.1973 89.8158 10.984C90.3118 10.7707 90.8825 10.664 91.5278 10.664C92.1411 10.664 92.6771 10.7627 93.1358 10.96C93.5998 11.1573 94.0158 11.44 94.3838 11.808L93.8638 12.528ZM100.85 13.952C100.85 13.696 100.813 13.456 100.738 13.232C100.669 13.0027 100.562 12.8027 100.418 12.632C100.274 12.4613 100.09 12.328 99.8659 12.232C99.6473 12.1307 99.3913 12.08 99.0979 12.08C98.5273 12.08 98.0766 12.2427 97.7459 12.568C97.4206 12.8933 97.2126 13.3547 97.1219 13.952H100.85ZM97.0819 15.144C97.1139 15.5653 97.1886 15.9307 97.3059 16.24C97.4233 16.544 97.5779 16.7973 97.7699 17C97.9619 17.1973 98.1886 17.3467 98.4499 17.448C98.7166 17.544 99.0099 17.592 99.3299 17.592C99.6499 17.592 99.9246 17.5547 100.154 17.48C100.389 17.4053 100.591 17.3227 100.762 17.232C100.938 17.1413 101.09 17.0587 101.218 16.984C101.351 16.9093 101.479 16.872 101.602 16.872C101.767 16.872 101.89 16.9333 101.97 17.056L102.538 17.776C102.319 18.032 102.074 18.248 101.802 18.424C101.53 18.5947 101.245 18.7333 100.946 18.84C100.653 18.9413 100.351 19.0133 100.042 19.056C99.7379 19.0987 99.4419 19.12 99.1539 19.12C98.5833 19.12 98.0526 19.0267 97.5619 18.84C97.0713 18.648 96.6446 18.368 96.2819 18C95.9193 17.6267 95.6339 17.168 95.4259 16.624C95.2179 16.0747 95.1139 15.44 95.1139 14.72C95.1139 14.16 95.2046 13.6347 95.3859 13.144C95.5673 12.648 95.8259 12.2187 96.1619 11.856C96.5033 11.488 96.9166 11.1973 97.4019 10.984C97.8926 10.7707 98.4446 10.664 99.0579 10.664C99.5753 10.664 100.053 10.7467 100.49 10.912C100.927 11.0773 101.303 11.32 101.618 11.64C101.933 11.9547 102.178 12.344 102.354 12.808C102.535 13.2667 102.626 13.792 102.626 14.384C102.626 14.6827 102.594 14.8853 102.53 14.992C102.466 15.0933 102.343 15.144 102.162 15.144H97.0819ZM109.261 12.888C109.037 12.616 108.791 12.424 108.525 12.312C108.263 12.2 107.981 12.144 107.677 12.144C107.378 12.144 107.109 12.2 106.869 12.312C106.629 12.424 106.423 12.5947 106.253 12.824C106.082 13.048 105.951 13.336 105.861 13.688C105.77 14.0347 105.725 14.4453 105.725 14.92C105.725 15.4 105.762 15.808 105.837 16.144C105.917 16.4747 106.029 16.7467 106.173 16.96C106.317 17.168 106.493 17.32 106.701 17.416C106.909 17.5067 107.141 17.552 107.397 17.552C107.807 17.552 108.157 17.4667 108.445 17.296C108.733 17.1253 109.005 16.8827 109.261 16.568V12.888ZM111.237 7.112V19H110.029C109.767 19 109.602 18.88 109.533 18.64L109.365 17.848C109.034 18.2267 108.653 18.5333 108.221 18.768C107.794 19.0027 107.295 19.12 106.725 19.12C106.277 19.12 105.866 19.0267 105.493 18.84C105.119 18.6533 104.797 18.384 104.525 18.032C104.258 17.6747 104.05 17.2347 103.901 16.712C103.757 16.1893 103.685 15.592 103.685 14.92C103.685 14.312 103.767 13.7467 103.933 13.224C104.098 12.7013 104.335 12.248 104.645 11.864C104.954 11.48 105.325 11.1813 105.757 10.968C106.189 10.7493 106.674 10.64 107.213 10.64C107.671 10.64 108.063 10.712 108.389 10.856C108.714 11 109.005 11.1947 109.261 11.44V7.112H111.237ZM124.985 9.2H121.497V19H119.345V9.2H115.857V7.432H124.985V9.2ZM131.775 10.792V19H130.567C130.305 19 130.14 18.88 130.071 18.64L129.935 17.984C129.599 18.3253 129.228 18.6027 128.823 18.816C128.417 19.024 127.94 19.128 127.391 19.128C126.943 19.128 126.545 19.0533 126.199 18.904C125.857 18.7493 125.569 18.5333 125.335 18.256C125.1 17.9787 124.921 17.6507 124.799 17.272C124.681 16.888 124.623 16.4667 124.623 16.008V10.792H126.599V16.008C126.599 16.5093 126.713 16.8987 126.943 17.176C127.177 17.448 127.527 17.584 127.991 17.584C128.332 17.584 128.652 17.5093 128.951 17.36C129.249 17.2053 129.532 16.9947 129.799 16.728V10.792H131.775ZM136.47 19.128C135.755 19.128 135.206 18.928 134.822 18.528C134.443 18.1227 134.254 17.5653 134.254 16.856V12.272H133.414C133.307 12.272 133.216 12.2373 133.142 12.168C133.067 12.0987 133.03 11.9947 133.03 11.856V11.072L134.35 10.856L134.766 8.616C134.792 8.50933 134.843 8.42667 134.918 8.368C134.992 8.30933 135.088 8.28 135.206 8.28H136.23V10.864H138.422V12.272H136.23V16.72C136.23 16.976 136.291 17.176 136.414 17.32C136.542 17.464 136.715 17.536 136.934 17.536C137.056 17.536 137.158 17.5227 137.238 17.496C137.323 17.464 137.395 17.432 137.454 17.4C137.518 17.368 137.574 17.3387 137.622 17.312C137.67 17.28 137.718 17.264 137.766 17.264C137.824 17.264 137.872 17.28 137.91 17.312C137.947 17.3387 137.987 17.3813 138.03 17.44L138.622 18.4C138.334 18.64 138.003 18.8213 137.63 18.944C137.256 19.0667 136.87 19.128 136.47 19.128ZM143.256 10.664C143.864 10.664 144.416 10.7627 144.912 10.96C145.414 11.1573 145.84 11.4373 146.192 11.8C146.55 12.1627 146.824 12.6053 147.016 13.128C147.208 13.6507 147.304 14.2347 147.304 14.88C147.304 15.5307 147.208 16.1173 147.016 16.64C146.824 17.1627 146.55 17.608 146.192 17.976C145.84 18.344 145.414 18.6267 144.912 18.824C144.416 19.0213 143.864 19.12 143.256 19.12C142.643 19.12 142.086 19.0213 141.584 18.824C141.083 18.6267 140.654 18.344 140.296 17.976C139.944 17.608 139.67 17.1627 139.472 16.64C139.28 16.1173 139.184 15.5307 139.184 14.88C139.184 14.2347 139.28 13.6507 139.472 13.128C139.67 12.6053 139.944 12.1627 140.296 11.8C140.654 11.4373 141.083 11.1573 141.584 10.96C142.086 10.7627 142.643 10.664 143.256 10.664ZM143.256 17.6C143.939 17.6 144.443 17.3707 144.768 16.912C145.099 16.4533 145.264 15.7813 145.264 14.896C145.264 14.0107 145.099 13.336 144.768 12.872C144.443 12.408 143.939 12.176 143.256 12.176C142.563 12.176 142.048 12.4107 141.712 12.88C141.382 13.344 141.216 14.016 141.216 14.896C141.216 15.776 141.382 16.448 141.712 16.912C142.048 17.3707 142.563 17.6 143.256 17.6ZM150.676 12.216C150.932 11.7253 151.236 11.3413 151.588 11.064C151.94 10.7813 152.356 10.64 152.836 10.64C153.215 10.64 153.519 10.7227 153.748 10.888L153.62 12.368C153.593 12.464 153.553 12.5333 153.5 12.576C153.452 12.6133 153.385 12.632 153.3 12.632C153.22 12.632 153.1 12.6187 152.94 12.592C152.785 12.5653 152.633 12.552 152.484 12.552C152.265 12.552 152.071 12.584 151.9 12.648C151.729 12.712 151.575 12.8053 151.436 12.928C151.303 13.0453 151.183 13.1893 151.076 13.36C150.975 13.5307 150.879 13.7253 150.788 13.944V19H148.812V10.792H149.972C150.175 10.792 150.316 10.8293 150.396 10.904C150.476 10.9733 150.529 11.1013 150.556 11.288L150.676 12.216ZM159.757 12.392C159.704 12.4773 159.648 12.5387 159.589 12.576C159.531 12.608 159.456 12.624 159.365 12.624C159.269 12.624 159.165 12.5973 159.053 12.544C158.947 12.4907 158.821 12.432 158.677 12.368C158.533 12.2987 158.368 12.2373 158.181 12.184C158 12.1307 157.784 12.104 157.533 12.104C157.144 12.104 156.837 12.1867 156.613 12.352C156.395 12.5173 156.285 12.7333 156.285 13C156.285 13.176 156.341 13.3253 156.453 13.448C156.571 13.5653 156.723 13.6693 156.909 13.76C157.101 13.8507 157.317 13.9333 157.557 14.008C157.797 14.0773 158.04 14.1547 158.285 14.24C158.536 14.3253 158.781 14.424 159.021 14.536C159.261 14.6427 159.475 14.7813 159.661 14.952C159.853 15.1173 160.005 15.3173 160.117 15.552C160.235 15.7867 160.293 16.0693 160.293 16.4C160.293 16.7947 160.221 17.16 160.077 17.496C159.939 17.8267 159.731 18.1147 159.453 18.36C159.176 18.6 158.832 18.7893 158.421 18.928C158.016 19.0613 157.547 19.128 157.013 19.128C156.731 19.128 156.453 19.1013 156.181 19.048C155.915 19 155.656 18.9307 155.405 18.84C155.16 18.7493 154.931 18.6427 154.717 18.52C154.509 18.3973 154.325 18.264 154.165 18.12L154.621 17.368C154.68 17.2773 154.749 17.208 154.829 17.16C154.909 17.112 155.011 17.088 155.133 17.088C155.256 17.088 155.371 17.1227 155.477 17.192C155.589 17.2613 155.717 17.336 155.861 17.416C156.005 17.496 156.173 17.5707 156.365 17.64C156.563 17.7093 156.811 17.744 157.109 17.744C157.344 17.744 157.544 17.7173 157.709 17.664C157.88 17.6053 158.019 17.5307 158.125 17.44C158.237 17.3493 158.317 17.2453 158.365 17.128C158.419 17.0053 158.445 16.88 158.445 16.752C158.445 16.56 158.387 16.4027 158.269 16.28C158.157 16.1573 158.005 16.0507 157.813 15.96C157.627 15.8693 157.411 15.7893 157.165 15.72C156.925 15.6453 156.677 15.5653 156.421 15.48C156.171 15.3947 155.923 15.296 155.677 15.184C155.437 15.0667 155.221 14.92 155.029 14.744C154.843 14.568 154.691 14.352 154.573 14.096C154.461 13.84 154.405 13.5307 154.405 13.168C154.405 12.832 154.472 12.512 154.605 12.208C154.739 11.904 154.933 11.64 155.189 11.416C155.451 11.1867 155.773 11.0053 156.157 10.872C156.547 10.7333 156.995 10.664 157.501 10.664C158.067 10.664 158.581 10.7573 159.045 10.944C159.509 11.1307 159.896 11.376 160.205 11.68L159.757 12.392Z"></path>
        </symbol>
        <symbol id="community" viewBox="0 0 107 26">
            <path fill-rule="evenodd" clip-rule="evenodd" d="M14.6153 12.0456C14.5204 12.7034 14.2954 13.3286 13.9619 13.9036C13.9869 14.0459 13.9997 14.1898 13.9997 14.3343C13.9997 14.8362 13.8543 15.3165 13.5849 15.7529C13.4504 15.9707 13.4158 16.226 13.4025 16.3946C13.3873 16.5879 13.3924 16.7994 13.4062 17.0025C13.4217 17.2304 13.4497 17.4697 13.4818 17.6954C13.2216 17.6196 12.9395 17.5434 12.6704 17.4826C12.4465 17.4321 12.2174 17.3891 12.0099 17.3676C11.8289 17.349 11.5674 17.3345 11.3335 17.4101C10.8221 17.5754 10.2594 17.6676 9.66636 17.6676C8.96109 17.6676 8.31335 17.5424 7.74559 17.325C7.60903 17.3312 7.47146 17.3343 7.33301 17.3343C6.52993 17.3343 5.75701 17.2287 5.03385 17.0335C6.08516 18.2494 7.81828 19.001 9.66636 19.001C10.3883 19.001 11.0812 18.8901 11.7198 18.6864C11.7209 18.6865 11.723 18.6864 11.726 18.6864C11.7424 18.686 11.7879 18.6851 11.8729 18.6939C12.0067 18.7077 12.1786 18.7385 12.377 18.7833C12.7719 18.8724 13.2157 19.0038 13.5615 19.1136C14.2949 19.3464 15.0056 18.7064 14.8745 17.9621C14.8181 17.6418 14.7595 17.2508 14.7365 16.9122C14.7249 16.7419 14.7236 16.6021 14.7317 16.4995C14.7351 16.457 14.7394 16.4304 14.7421 16.4162C15.1172 15.7949 15.333 15.0874 15.333 14.3343C15.333 13.4853 15.0693 12.7099 14.6153 12.0456Z"></path>
            <path fill-rule="evenodd" clip-rule="evenodd" d="M3.73109 8.79943C2.83245 9.48662 2.33306 10.3887 2.33306 11.334C2.33306 11.8053 2.45577 12.2593 2.68599 12.6815C2.77367 12.8423 2.79854 13.0081 2.80744 13.1204C2.81714 13.2428 2.8123 13.3687 2.80166 13.4863C2.78034 13.7219 2.72949 13.9888 2.66849 14.2517C2.59715 14.5593 2.50572 14.8872 2.41296 15.1952C2.76512 15.0672 3.15003 14.936 3.51493 14.8296C3.80985 14.7435 4.10767 14.6689 4.37274 14.6269C4.60108 14.5908 4.93243 14.5554 5.2177 14.6541C5.85792 14.8756 6.57411 15.0007 7.33306 15.0007C8.76451 15.0007 10.0358 14.5562 10.935 13.8685C11.8337 13.1813 12.3331 12.2793 12.3331 11.334C12.3331 10.3887 11.8337 9.48662 10.935 8.79943C10.0358 8.11176 8.76451 7.66732 7.33306 7.66732C5.90162 7.66732 4.63034 8.11176 3.73109 8.79943ZM2.92116 7.74028C4.07283 6.85959 5.6349 6.33398 7.33306 6.33398C9.03123 6.33398 10.5933 6.85959 11.745 7.74028C12.8973 8.62145 13.6664 9.88602 13.6664 11.334C13.6664 12.7819 12.8973 14.0465 11.745 14.9277C10.5933 15.8084 9.03123 16.334 7.33306 16.334C6.43769 16.334 5.58244 16.188 4.80591 15.9224C4.80513 15.9246 4.74215 15.9184 4.58098 15.9439C4.39521 15.9733 4.15809 16.0308 3.88836 16.1095C3.35138 16.2662 2.74835 16.4878 2.28902 16.6666C1.49327 16.9763 0.682633 16.212 0.95074 15.3979C1.09284 14.9665 1.26043 14.4212 1.36966 13.9504C1.42468 13.7132 1.46039 13.5138 1.47375 13.3662C1.47839 13.3149 1.47958 13.2776 1.47932 13.2523C1.17246 12.6659 0.99973 12.0175 0.99973 11.334C0.99973 9.88602 1.76887 8.62145 2.92116 7.74028Z"></path>
            <path d="M33.2711 16.272C33.3884 16.272 33.4924 16.3173 33.5831 16.408L34.4311 17.328C33.9617 17.9093 33.3831 18.3547 32.6951 18.664C32.0124 18.9733 31.1911 19.128 30.2311 19.128C29.3724 19.128 28.5991 18.9813 27.9111 18.688C27.2284 18.3947 26.6444 17.9867 26.1591 17.464C25.6737 16.9413 25.3004 16.3173 25.0391 15.592C24.7831 14.8667 24.6551 14.0747 24.6551 13.216C24.6551 12.3467 24.7937 11.552 25.0711 10.832C25.3484 10.1067 25.7377 9.48267 26.2391 8.96C26.7457 8.43733 27.3484 8.032 28.0471 7.744C28.7457 7.45067 29.5191 7.304 30.3671 7.304C31.2097 7.304 31.9564 7.44267 32.6071 7.72C33.2631 7.99733 33.8204 8.36 34.2791 8.808L33.5591 9.808C33.5164 9.872 33.4604 9.928 33.3911 9.976C33.3271 10.024 33.2364 10.048 33.1191 10.048C33.0391 10.048 32.9564 10.0267 32.8711 9.984C32.7857 9.936 32.6924 9.88 32.5911 9.816C32.4897 9.74667 32.3724 9.672 32.2391 9.592C32.1057 9.512 31.9511 9.44 31.7751 9.376C31.5991 9.30667 31.3937 9.25067 31.1591 9.208C30.9297 9.16 30.6631 9.136 30.3591 9.136C29.8417 9.136 29.3671 9.22933 28.9351 9.416C28.5084 9.59733 28.1404 9.864 27.8311 10.216C27.5217 10.5627 27.2817 10.9893 27.1111 11.496C26.9404 11.9973 26.8551 12.5707 26.8551 13.216C26.8551 13.8667 26.9457 14.4453 27.1271 14.952C27.3137 15.4587 27.5644 15.8853 27.8791 16.232C28.1937 16.5787 28.5644 16.8453 28.9911 17.032C29.4177 17.2133 29.8764 17.304 30.3671 17.304C30.6604 17.304 30.9244 17.288 31.1591 17.256C31.3991 17.224 31.6177 17.1733 31.8151 17.104C32.0177 17.0347 32.2071 16.9467 32.3831 16.84C32.5644 16.728 32.7431 16.592 32.9191 16.432C32.9724 16.384 33.0284 16.3467 33.0871 16.32C33.1457 16.288 33.2071 16.272 33.2711 16.272ZM39.0533 10.664C39.6613 10.664 40.2133 10.7627 40.7093 10.96C41.2106 11.1573 41.6373 11.4373 41.9893 11.8C42.3466 12.1627 42.6213 12.6053 42.8133 13.128C43.0053 13.6507 43.1013 14.2347 43.1013 14.88C43.1013 15.5307 43.0053 16.1173 42.8133 16.64C42.6213 17.1627 42.3466 17.608 41.9893 17.976C41.6373 18.344 41.2106 18.6267 40.7093 18.824C40.2133 19.0213 39.6613 19.12 39.0533 19.12C38.44 19.12 37.8826 19.0213 37.3813 18.824C36.88 18.6267 36.4506 18.344 36.0933 17.976C35.7413 17.608 35.4666 17.1627 35.2693 16.64C35.0773 16.1173 34.9813 15.5307 34.9813 14.88C34.9813 14.2347 35.0773 13.6507 35.2693 13.128C35.4666 12.6053 35.7413 12.1627 36.0933 11.8C36.4506 11.4373 36.88 11.1573 37.3813 10.96C37.8826 10.7627 38.44 10.664 39.0533 10.664ZM39.0533 17.6C39.736 17.6 40.24 17.3707 40.5653 16.912C40.896 16.4533 41.0613 15.7813 41.0613 14.896C41.0613 14.0107 40.896 13.336 40.5653 12.872C40.24 12.408 39.736 12.176 39.0533 12.176C38.36 12.176 37.8453 12.4107 37.5093 12.88C37.1786 13.344 37.0133 14.016 37.0133 14.896C37.0133 15.776 37.1786 16.448 37.5093 16.912C37.8453 17.3707 38.36 17.6 39.0533 17.6ZM44.6088 19V10.792H45.8168C46.0728 10.792 46.2408 10.912 46.3208 11.152L46.4488 11.76C46.5928 11.6 46.7421 11.4533 46.8968 11.32C47.0568 11.1867 47.2248 11.072 47.4008 10.976C47.5821 10.88 47.7741 10.8053 47.9768 10.752C48.1848 10.6933 48.4115 10.664 48.6568 10.664C49.1741 10.664 49.5981 10.8053 49.9288 11.088C50.2648 11.3653 50.5155 11.736 50.6808 12.2C50.8088 11.928 50.9688 11.696 51.1608 11.504C51.3528 11.3067 51.5635 11.1467 51.7928 11.024C52.0221 10.9013 52.2648 10.8107 52.5208 10.752C52.7821 10.6933 53.0435 10.664 53.3048 10.664C53.7581 10.664 54.1608 10.7333 54.5128 10.872C54.8648 11.0107 55.1608 11.2133 55.4008 11.48C55.6408 11.7467 55.8221 12.072 55.9448 12.456C56.0728 12.84 56.1368 13.28 56.1368 13.776V19H54.1608V13.776C54.1608 13.2533 54.0461 12.8613 53.8168 12.6C53.5875 12.3333 53.2515 12.2 52.8088 12.2C52.6061 12.2 52.4168 12.2347 52.2408 12.304C52.0701 12.3733 51.9181 12.4747 51.7848 12.608C51.6568 12.736 51.5555 12.8987 51.4808 13.096C51.4061 13.2933 51.3688 13.52 51.3688 13.776V19H49.3848V13.776C49.3848 13.2267 49.2728 12.8267 49.0488 12.576C48.8301 12.3253 48.5075 12.2 48.0808 12.2C47.7928 12.2 47.5235 12.272 47.2728 12.416C47.0275 12.5547 46.7981 12.7467 46.5848 12.992V19H44.6088ZM58.0151 19V10.792H59.2231C59.4791 10.792 59.6471 10.912 59.7271 11.152L59.8551 11.76C59.9991 11.6 60.1484 11.4533 60.3031 11.32C60.4631 11.1867 60.6311 11.072 60.8071 10.976C60.9884 10.88 61.1804 10.8053 61.3831 10.752C61.5911 10.6933 61.8177 10.664 62.0631 10.664C62.5804 10.664 63.0044 10.8053 63.3351 11.088C63.6711 11.3653 63.9217 11.736 64.0871 12.2C64.2151 11.928 64.3751 11.696 64.5671 11.504C64.7591 11.3067 64.9697 11.1467 65.1991 11.024C65.4284 10.9013 65.6711 10.8107 65.9271 10.752C66.1884 10.6933 66.4497 10.664 66.7111 10.664C67.1644 10.664 67.5671 10.7333 67.9191 10.872C68.2711 11.0107 68.5671 11.2133 68.8071 11.48C69.0471 11.7467 69.2284 12.072 69.3511 12.456C69.4791 12.84 69.5431 13.28 69.5431 13.776V19H67.5671V13.776C67.5671 13.2533 67.4524 12.8613 67.2231 12.6C66.9937 12.3333 66.6577 12.2 66.2151 12.2C66.0124 12.2 65.8231 12.2347 65.6471 12.304C65.4764 12.3733 65.3244 12.4747 65.1911 12.608C65.0631 12.736 64.9617 12.8987 64.8871 13.096C64.8124 13.2933 64.7751 13.52 64.7751 13.776V19H62.7911V13.776C62.7911 13.2267 62.6791 12.8267 62.4551 12.576C62.2364 12.3253 61.9137 12.2 61.4871 12.2C61.1991 12.2 60.9297 12.272 60.6791 12.416C60.4337 12.5547 60.2044 12.7467 59.9911 12.992V19H58.0151ZM78.4933 10.792V19H77.2853C77.024 19 76.8586 18.88 76.7893 18.64L76.6533 17.984C76.3173 18.3253 75.9466 18.6027 75.5413 18.816C75.136 19.024 74.6586 19.128 74.1093 19.128C73.6613 19.128 73.264 19.0533 72.9173 18.904C72.576 18.7493 72.288 18.5333 72.0533 18.256C71.8186 17.9787 71.64 17.6507 71.5173 17.272C71.4 16.888 71.3413 16.4667 71.3413 16.008V10.792H73.3173V16.008C73.3173 16.5093 73.432 16.8987 73.6613 17.176C73.896 17.448 74.2453 17.584 74.7093 17.584C75.0506 17.584 75.3706 17.5093 75.6693 17.36C75.968 17.2053 76.2506 16.9947 76.5173 16.728V10.792H78.4933ZM82.3006 11.8C82.4659 11.6347 82.6392 11.4827 82.8206 11.344C83.0072 11.2 83.2019 11.08 83.4046 10.984C83.6126 10.8827 83.8339 10.8053 84.0686 10.752C84.3032 10.6933 84.5592 10.664 84.8366 10.664C85.2846 10.664 85.6819 10.7413 86.0286 10.896C86.3752 11.0453 86.6632 11.2587 86.8926 11.536C87.1272 11.808 87.3032 12.136 87.4206 12.52C87.5432 12.8987 87.6046 13.3173 87.6046 13.776V19H85.6286V13.776C85.6286 13.2747 85.5139 12.888 85.2846 12.616C85.0552 12.3387 84.7059 12.2 84.2366 12.2C83.8952 12.2 83.5752 12.2773 83.2766 12.432C82.9779 12.5867 82.6952 12.7973 82.4286 13.064V19H80.4526V10.792H81.6606C81.9166 10.792 82.0846 10.912 82.1646 11.152L82.3006 11.8ZM91.5318 10.792V19H89.5478V10.792H91.5318ZM91.8038 8.4C91.8038 8.57067 91.7691 8.73067 91.6998 8.88C91.6305 9.02933 91.5371 9.16 91.4198 9.272C91.3078 9.384 91.1745 9.47467 91.0198 9.544C90.8651 9.608 90.6998 9.64 90.5238 9.64C90.3531 9.64 90.1905 9.608 90.0358 9.544C89.8865 9.47467 89.7558 9.384 89.6438 9.272C89.5318 9.16 89.4411 9.02933 89.3718 8.88C89.3078 8.73067 89.2758 8.57067 89.2758 8.4C89.2758 8.224 89.3078 8.05867 89.3718 7.904C89.4411 7.74933 89.5318 7.616 89.6438 7.504C89.7558 7.392 89.8865 7.304 90.0358 7.24C90.1905 7.17067 90.3531 7.136 90.5238 7.136C90.6998 7.136 90.8651 7.17067 91.0198 7.24C91.1745 7.304 91.3078 7.392 91.4198 7.504C91.5371 7.616 91.6305 7.74933 91.6998 7.904C91.7691 8.05867 91.8038 8.224 91.8038 8.4ZM96.2823 19.128C95.5676 19.128 95.0183 18.928 94.6343 18.528C94.2556 18.1227 94.0663 17.5653 94.0663 16.856V12.272H93.2263C93.1196 12.272 93.029 12.2373 92.9543 12.168C92.8796 12.0987 92.8423 11.9947 92.8423 11.856V11.072L94.1623 10.856L94.5783 8.616C94.605 8.50933 94.6556 8.42667 94.7303 8.368C94.805 8.30933 94.901 8.28 95.0183 8.28H96.0423V10.864H98.2343V12.272H96.0423V16.72C96.0423 16.976 96.1036 17.176 96.2263 17.32C96.3543 17.464 96.5276 17.536 96.7463 17.536C96.869 17.536 96.9703 17.5227 97.0503 17.496C97.1356 17.464 97.2076 17.432 97.2663 17.4C97.3303 17.368 97.3863 17.3387 97.4343 17.312C97.4823 17.28 97.5303 17.264 97.5783 17.264C97.637 17.264 97.685 17.28 97.7223 17.312C97.7596 17.3387 97.7996 17.3813 97.8423 17.44L98.4343 18.4C98.1463 18.64 97.8156 18.8213 97.4423 18.944C97.069 19.0667 96.6823 19.128 96.2823 19.128ZM106.955 10.792L102.483 21.256C102.425 21.3947 102.347 21.4987 102.251 21.568C102.161 21.6427 102.019 21.68 101.827 21.68H100.355L101.891 18.384L98.5714 10.792H100.307C100.462 10.792 100.582 10.8293 100.667 10.904C100.758 10.9787 100.825 11.064 100.867 11.16L102.611 15.416C102.67 15.56 102.718 15.704 102.755 15.848C102.798 15.992 102.838 16.1387 102.875 16.288C102.923 16.1387 102.971 15.992 103.019 15.848C103.067 15.6987 103.121 15.552 103.179 15.408L104.827 11.16C104.87 11.0533 104.939 10.9653 105.035 10.896C105.137 10.8267 105.249 10.792 105.371 10.792H106.955Z"></path>
        </symbol>
    </defs>
</svg>