<svg width="69" height="21" viewBox="0 0 69 21" fill="none" xmlns="http://www.w3.org/2000/svg">
<g clip-path="url(#clip0_8092_1027)">
<path fill-rule="evenodd" clip-rule="evenodd" d="M4.13333 6.76706C4.13333 4.63156 5.8645 2.90039 8 2.90039C10.1355 2.90039 11.8667 4.63156 11.8667 6.76706V9.96706C11.8667 12.1026 10.1355 13.8337 8 13.8337C5.8645 13.8337 4.13333 12.1026 4.13333 9.96706V6.76706ZM8 4.23372C6.60088 4.23372 5.46667 5.36794 5.46667 6.76706V9.96706C5.46667 11.3662 6.60088 12.5004 8 12.5004C9.39912 12.5004 10.5333 11.3662 10.5333 9.96706V6.76706C10.5333 5.36794 9.39912 4.23372 8 4.23372Z" fill="#424551"/>
<path fill-rule="evenodd" clip-rule="evenodd" d="M2.66667 8.23372C3.03486 8.23372 3.33333 8.5322 3.33333 8.90039V9.96706C3.33333 12.5444 5.42267 14.6337 8 14.6337C10.5773 14.6337 12.6667 12.5444 12.6667 9.96706V8.90039C12.6667 8.5322 12.9651 8.23372 13.3333 8.23372C13.7015 8.23372 14 8.5322 14 8.90039V9.96706C14 13.2808 11.3137 15.9671 8 15.9671C4.68629 15.9671 2 13.2808 2 9.96706V8.90039C2 8.5322 2.29848 8.23372 2.66667 8.23372Z" fill="#424551"/>
<path fill-rule="evenodd" clip-rule="evenodd" d="M8 15.1671C8.36819 15.1671 8.66667 15.4655 8.66667 15.8337V16.7671H10.1333C10.5015 16.7671 10.8 17.0655 10.8 17.4337C10.8 17.8019 10.5015 18.1004 10.1333 18.1004H5.86667C5.49848 18.1004 5.2 17.8019 5.2 17.4337C5.2 17.0655 5.49848 16.7671 5.86667 16.7671H7.33333V15.8337C7.33333 15.4655 7.63181 15.1671 8 15.1671Z" fill="#424551"/>
</g>
<path d="M24.242 11.17C24.6293 11.17 24.97 11.1187 25.264 11.016C25.5627 10.9133 25.8123 10.771 26.013 10.589C26.2183 10.4023 26.3723 10.1807 26.475 9.924C26.5777 9.66733 26.629 9.385 26.629 9.077C26.629 8.43767 26.4307 7.93833 26.034 7.579C25.642 7.21967 25.0447 7.04 24.242 7.04H22.632V11.17H24.242ZM24.242 5.969C24.8767 5.969 25.4273 6.04367 25.894 6.193C26.3653 6.33767 26.755 6.54533 27.063 6.816C27.371 7.08667 27.5997 7.41333 27.749 7.796C27.903 8.17867 27.98 8.60567 27.98 9.077C27.98 9.54367 27.8983 9.97067 27.735 10.358C27.5717 10.7453 27.3313 11.079 27.014 11.359C26.7013 11.639 26.3117 11.8583 25.845 12.017C25.383 12.171 24.8487 12.248 24.242 12.248H22.632V16H21.281V5.969H24.242ZM32.0151 8.797C32.5331 8.797 32.9997 8.88333 33.4151 9.056C33.8304 9.22867 34.1851 9.47367 34.4791 9.791C34.7731 10.1083 34.9971 10.4933 35.1511 10.946C35.3097 11.394 35.3891 11.8957 35.3891 12.451C35.3891 13.011 35.3097 13.515 35.1511 13.963C34.9971 14.411 34.7731 14.7937 34.4791 15.111C34.1851 15.4283 33.8304 15.6733 33.4151 15.846C32.9997 16.014 32.5331 16.098 32.0151 16.098C31.4924 16.098 31.0211 16.014 30.6011 15.846C30.1857 15.6733 29.8311 15.4283 29.5371 15.111C29.2431 14.7937 29.0167 14.411 28.8581 13.963C28.7041 13.515 28.6271 13.011 28.6271 12.451C28.6271 11.8957 28.7041 11.394 28.8581 10.946C29.0167 10.4933 29.2431 10.1083 29.5371 9.791C29.8311 9.47367 30.1857 9.22867 30.6011 9.056C31.0211 8.88333 31.4924 8.797 32.0151 8.797ZM32.0151 15.125C32.7151 15.125 33.2377 14.8917 33.5831 14.425C33.9284 13.9537 34.1011 13.298 34.1011 12.458C34.1011 11.6133 33.9284 10.9553 33.5831 10.484C33.2377 10.0127 32.7151 9.777 32.0151 9.777C31.6604 9.777 31.3501 9.83767 31.0841 9.959C30.8227 10.0803 30.6034 10.2553 30.4261 10.484C30.2534 10.7127 30.1227 10.995 30.0341 11.331C29.9501 11.6623 29.9081 12.038 29.9081 12.458C29.9081 13.298 30.0807 13.9537 30.4261 14.425C30.7761 14.8917 31.3057 15.125 32.0151 15.125ZM41.5894 10.596C41.3561 10.2833 41.1041 10.0663 40.8334 9.945C40.5628 9.819 40.2594 9.756 39.9234 9.756C39.2654 9.756 38.7591 9.99167 38.4044 10.463C38.0498 10.9343 37.8724 11.6063 37.8724 12.479C37.8724 12.941 37.9121 13.3377 37.9914 13.669C38.0708 13.9957 38.1874 14.2663 38.3414 14.481C38.4954 14.691 38.6844 14.845 38.9084 14.943C39.1324 15.041 39.3868 15.09 39.6714 15.09C40.0821 15.09 40.4391 14.9967 40.7424 14.81C41.0504 14.6233 41.3328 14.3597 41.5894 14.019V10.596ZM42.8354 5.689V16H42.0934C41.9161 16 41.8041 15.9137 41.7574 15.741L41.6454 14.88C41.3421 15.244 40.9968 15.538 40.6094 15.762C40.2221 15.986 39.7741 16.098 39.2654 16.098C38.8594 16.098 38.4908 16.021 38.1594 15.867C37.8281 15.7083 37.5458 15.4773 37.3124 15.174C37.0791 14.8707 36.8994 14.4927 36.7734 14.04C36.6474 13.5873 36.5844 13.067 36.5844 12.479C36.5844 11.9563 36.6544 11.471 36.7944 11.023C36.9344 10.5703 37.1351 10.1783 37.3964 9.847C37.6578 9.51567 37.9774 9.25667 38.3554 9.07C38.7381 8.87867 39.1674 8.783 39.6434 8.783C40.0774 8.783 40.4484 8.85767 40.7564 9.007C41.0691 9.15167 41.3468 9.35467 41.5894 9.616V5.689H42.8354ZM49.7384 10.169C49.7011 10.2203 49.6637 10.26 49.6264 10.288C49.5891 10.316 49.5377 10.33 49.4724 10.33C49.4024 10.33 49.3254 10.302 49.2414 10.246C49.1574 10.1853 49.0524 10.12 48.9264 10.05C48.8051 9.98 48.6534 9.917 48.4714 9.861C48.2941 9.80033 48.0747 9.77 47.8134 9.77C47.4634 9.77 47.1554 9.833 46.8894 9.959C46.6234 10.0803 46.3994 10.2577 46.2174 10.491C46.0401 10.7243 45.9047 11.0067 45.8114 11.338C45.7227 11.6693 45.6784 12.0403 45.6784 12.451C45.6784 12.8803 45.7274 13.263 45.8254 13.599C45.9234 13.9303 46.0611 14.2103 46.2384 14.439C46.4204 14.663 46.6374 14.8357 46.8894 14.957C47.1461 15.0737 47.4331 15.132 47.7504 15.132C48.0537 15.132 48.3034 15.097 48.4994 15.027C48.6954 14.9523 48.8564 14.8707 48.9824 14.782C49.1131 14.6933 49.2204 14.614 49.3044 14.544C49.3931 14.4693 49.4794 14.432 49.5634 14.432C49.6661 14.432 49.7454 14.4717 49.8014 14.551L50.1514 15.006C49.9974 15.1973 49.8224 15.3607 49.6264 15.496C49.4304 15.6313 49.2181 15.7457 48.9894 15.839C48.7654 15.9277 48.5297 15.993 48.2824 16.035C48.0351 16.077 47.7831 16.098 47.5264 16.098C47.0831 16.098 46.6701 16.0163 46.2874 15.853C45.9094 15.6897 45.5804 15.454 45.3004 15.146C45.0204 14.8333 44.8011 14.4507 44.6424 13.998C44.4837 13.5453 44.4044 13.0297 44.4044 12.451C44.4044 11.9237 44.4767 11.436 44.6214 10.988C44.7707 10.54 44.9854 10.155 45.2654 9.833C45.5501 9.50633 45.8977 9.252 46.3084 9.07C46.7237 8.888 47.1997 8.797 47.7364 8.797C48.2357 8.797 48.6744 8.87867 49.0524 9.042C49.4351 9.20067 49.7734 9.427 50.0674 9.721L49.7384 10.169ZM55.332 12.808C54.758 12.8267 54.268 12.8733 53.862 12.948C53.4606 13.018 53.1316 13.1113 52.875 13.228C52.623 13.3447 52.4386 13.4823 52.322 13.641C52.21 13.7997 52.154 13.977 52.154 14.173C52.154 14.3597 52.1843 14.5207 52.245 14.656C52.3056 14.7913 52.3873 14.9033 52.49 14.992C52.5973 15.076 52.721 15.139 52.861 15.181C53.0056 15.2183 53.1596 15.237 53.323 15.237C53.5423 15.237 53.743 15.216 53.925 15.174C54.107 15.1273 54.2773 15.062 54.436 14.978C54.5993 14.894 54.7533 14.7937 54.898 14.677C55.0473 14.5603 55.192 14.4273 55.332 14.278V12.808ZM51.307 9.91C51.699 9.532 52.1213 9.24967 52.574 9.063C53.0266 8.87633 53.5283 8.783 54.079 8.783C54.4756 8.783 54.828 8.84833 55.136 8.979C55.444 9.10967 55.703 9.29167 55.913 9.525C56.123 9.75833 56.2816 10.0407 56.389 10.372C56.4963 10.7033 56.55 11.0673 56.55 11.464V16H55.997C55.8756 16 55.7823 15.9813 55.717 15.944C55.6516 15.902 55.6003 15.8227 55.563 15.706L55.423 15.034C55.2363 15.2067 55.0543 15.3607 54.877 15.496C54.6996 15.6267 54.513 15.7387 54.317 15.832C54.121 15.9207 53.911 15.9883 53.687 16.035C53.4676 16.0863 53.2226 16.112 52.952 16.112C52.6766 16.112 52.4176 16.0747 52.175 16C51.9323 15.9207 51.72 15.804 51.538 15.65C51.3606 15.496 51.2183 15.3023 51.111 15.069C51.0083 14.831 50.957 14.551 50.957 14.229C50.957 13.949 51.034 13.6807 51.188 13.424C51.342 13.1627 51.5916 12.9317 51.937 12.731C52.2823 12.5303 52.7326 12.367 53.288 12.241C53.8433 12.1103 54.5246 12.0357 55.332 12.017V11.464C55.332 10.9133 55.213 10.498 54.975 10.218C54.737 9.93333 54.3893 9.791 53.932 9.791C53.624 9.791 53.365 9.83067 53.155 9.91C52.9496 9.98467 52.77 10.071 52.616 10.169C52.4666 10.2623 52.336 10.3487 52.224 10.428C52.1166 10.5027 52.0093 10.54 51.902 10.54C51.818 10.54 51.7456 10.519 51.685 10.477C51.6243 10.4303 51.573 10.3743 51.531 10.309L51.307 9.91ZM62.5779 10.078C62.5219 10.1807 62.4356 10.232 62.3189 10.232C62.2489 10.232 62.1696 10.2063 62.0809 10.155C61.9923 10.1037 61.8826 10.0477 61.7519 9.987C61.6259 9.92167 61.4743 9.86333 61.2969 9.812C61.1196 9.756 60.9096 9.728 60.6669 9.728C60.4569 9.728 60.2679 9.756 60.0999 9.812C59.9319 9.86333 59.7873 9.93567 59.6659 10.029C59.5493 10.1223 59.4583 10.232 59.3929 10.358C59.3323 10.4793 59.3019 10.6123 59.3019 10.757C59.3019 10.939 59.3533 11.0907 59.4559 11.212C59.5633 11.3333 59.7033 11.4383 59.8759 11.527C60.0486 11.6157 60.2446 11.695 60.4639 11.765C60.6833 11.8303 60.9073 11.9027 61.1359 11.982C61.3693 12.0567 61.5956 12.1407 61.8149 12.234C62.0343 12.3273 62.2303 12.444 62.4029 12.584C62.5756 12.724 62.7133 12.8967 62.8159 13.102C62.9233 13.3027 62.9769 13.5453 62.9769 13.83C62.9769 14.1567 62.9186 14.46 62.8019 14.74C62.6853 15.0153 62.5126 15.2557 62.2839 15.461C62.0553 15.6617 61.7753 15.8203 61.4439 15.937C61.1126 16.0537 60.7299 16.112 60.2959 16.112C59.8013 16.112 59.3533 16.0327 58.9519 15.874C58.5506 15.7107 58.2099 15.503 57.9299 15.251L58.2239 14.775C58.2613 14.7143 58.3056 14.6677 58.3569 14.635C58.4083 14.6023 58.4736 14.586 58.5529 14.586C58.6369 14.586 58.7256 14.6187 58.8189 14.684C58.9123 14.7493 59.0243 14.8217 59.1549 14.901C59.2903 14.9803 59.4536 15.0527 59.6449 15.118C59.8363 15.1833 60.0743 15.216 60.3589 15.216C60.6016 15.216 60.8139 15.1857 60.9959 15.125C61.1779 15.0597 61.3296 14.9733 61.4509 14.866C61.5723 14.7587 61.6609 14.635 61.7169 14.495C61.7776 14.355 61.8079 14.2057 61.8079 14.047C61.8079 13.851 61.7543 13.69 61.6469 13.564C61.5443 13.4333 61.4066 13.3237 61.2339 13.235C61.0613 13.1417 60.8629 13.0623 60.6389 12.997C60.4196 12.927 60.1933 12.8547 59.9599 12.78C59.7313 12.7053 59.5049 12.6213 59.2809 12.528C59.0616 12.43 58.8656 12.3087 58.6929 12.164C58.5203 12.0193 58.3803 11.842 58.2729 11.632C58.1703 11.4173 58.1189 11.1583 58.1189 10.855C58.1189 10.5843 58.1749 10.3253 58.2869 10.078C58.3989 9.826 58.5623 9.60667 58.7769 9.42C58.9916 9.22867 59.2553 9.077 59.5679 8.965C59.8806 8.853 60.2376 8.797 60.6389 8.797C61.1056 8.797 61.5233 8.87167 61.8919 9.021C62.2653 9.16567 62.5873 9.36633 62.8579 9.623L62.5779 10.078ZM66.6816 16.112C66.1216 16.112 65.6899 15.9557 65.3866 15.643C65.0879 15.3303 64.9386 14.88 64.9386 14.292V9.952H64.0846C64.0099 9.952 63.9469 9.931 63.8956 9.889C63.8442 9.84233 63.8186 9.77233 63.8186 9.679V9.182L64.9806 9.035L65.2676 6.844C65.2816 6.774 65.3119 6.718 65.3586 6.676C65.4099 6.62933 65.4752 6.606 65.5546 6.606H66.1846V9.049H68.2356V9.952H66.1846V14.208C66.1846 14.5067 66.2569 14.7283 66.4016 14.873C66.5462 15.0177 66.7329 15.09 66.9616 15.09C67.0922 15.09 67.2042 15.0737 67.2976 15.041C67.3956 15.0037 67.4796 14.964 67.5496 14.922C67.6196 14.88 67.6779 14.8427 67.7246 14.81C67.7759 14.7727 67.8202 14.754 67.8576 14.754C67.9229 14.754 67.9812 14.7937 68.0326 14.873L68.3966 15.468C68.1819 15.6687 67.9229 15.8273 67.6196 15.944C67.3162 16.056 67.0036 16.112 66.6816 16.112Z" fill="#424551"/>
<defs>
<clipPath id="clip0_8092_1027">
<rect width="16" height="16" fill="white" transform="translate(0 2.5)"/>
</clipPath>
</defs>
</svg>
