<svg width="165" height="26" viewBox="0 0 165 26" fill="none" xmlns="http://www.w3.org/2000/svg">
<path fill-rule="evenodd" clip-rule="evenodd" d="M7.70184 5.7364C7.88953 5.64255 8.11044 5.64255 8.29813 5.7364L14.9648 9.06973C15.1906 9.18266 15.3333 9.4135 15.3333 9.66602C15.3333 9.91853 15.1906 10.1494 14.9648 10.2623L8.29813 13.5956C8.11044 13.6895 7.88953 13.6895 7.70184 13.5956L1.03517 10.2623C0.809318 10.1494 0.66665 9.91853 0.66665 9.66602C0.66665 9.4135 0.809318 9.18266 1.03517 9.06973L7.70184 5.7364ZM2.82403 9.66602L7.99998 12.254L13.1759 9.66602L7.99998 7.07804L2.82403 9.66602Z" fill="#9A9CA5"/>
<path fill-rule="evenodd" clip-rule="evenodd" d="M0.737032 12.7012C0.901691 12.3719 1.30214 12.2384 1.63146 12.4031L7.99998 15.5873L14.3685 12.4031C14.6978 12.2384 15.0983 12.3719 15.2629 12.7012C15.4276 13.0305 15.2941 13.431 14.9648 13.5956L8.29813 16.929C8.11044 17.0228 7.88953 17.0228 7.70184 16.929L1.03517 13.5956C0.705855 13.431 0.572372 13.0305 0.737032 12.7012Z" fill="#9A9CA5"/>
<path fill-rule="evenodd" clip-rule="evenodd" d="M0.737032 16.0345C0.901691 15.7052 1.30214 15.5717 1.63146 15.7364L7.99998 18.9207L14.3685 15.7364C14.6978 15.5717 15.0983 15.7052 15.2629 16.0345C15.4276 16.3639 15.2941 16.7643 14.9648 16.929L8.29813 20.2623C8.11044 20.3561 7.88953 20.3561 7.70184 20.2623L1.03517 16.929C0.705855 16.7643 0.572372 16.3639 0.737032 16.0345Z" fill="#9A9CA5"/>
<path d="M32.1761 17.16C32.3895 17.16 32.5575 17.2213 32.6801 17.344C32.8081 17.4613 32.8721 17.6187 32.8721 17.816V19H24.9361V18.344C24.9361 18.2107 24.9628 18.072 25.0161 17.928C25.0748 17.7787 25.1655 17.6453 25.2881 17.528L28.8001 14.008C29.0935 13.7093 29.3548 13.424 29.5841 13.152C29.8188 12.88 30.0135 12.6107 30.1681 12.344C30.3228 12.0773 30.4401 11.808 30.5201 11.536C30.6055 11.2587 30.6481 10.968 30.6481 10.664C30.6481 10.3867 30.6081 10.144 30.5281 9.936C30.4481 9.72267 30.3335 9.544 30.1841 9.4C30.0401 9.256 29.8641 9.14933 29.6561 9.08C29.4535 9.00533 29.2241 8.968 28.9681 8.968C28.7335 8.968 28.5148 9.00267 28.3121 9.072C28.1148 9.136 27.9388 9.22933 27.7841 9.352C27.6295 9.46933 27.4988 9.608 27.3921 9.768C27.2855 9.928 27.2055 10.104 27.1521 10.296C27.0615 10.5413 26.9441 10.704 26.8001 10.784C26.6561 10.864 26.4481 10.8827 26.1761 10.84L25.1361 10.656C25.2161 10.1013 25.3708 9.616 25.6001 9.2C25.8295 8.77867 26.1148 8.42933 26.4561 8.152C26.8028 7.86933 27.1975 7.65867 27.6401 7.52C28.0881 7.376 28.5681 7.304 29.0801 7.304C29.6135 7.304 30.1015 7.384 30.5441 7.544C30.9868 7.69867 31.3655 7.92 31.6801 8.208C31.9948 8.496 32.2401 8.84267 32.4161 9.248C32.5921 9.65333 32.6801 10.104 32.6801 10.6C32.6801 11.0267 32.6161 11.4213 32.4881 11.784C32.3655 12.1467 32.1975 12.4933 31.9841 12.824C31.7761 13.1547 31.5308 13.4747 31.2481 13.784C30.9655 14.0933 30.6695 14.408 30.3601 14.728L27.7521 17.392C28.0028 17.3173 28.2508 17.2613 28.4961 17.224C28.7468 17.1813 28.9841 17.16 29.2081 17.16H32.1761ZM39.3054 14.64V10.856C39.3054 10.4987 39.3294 10.104 39.3774 9.672L35.7854 14.64H39.3054ZM42.4814 14.64V15.784C42.4814 15.8907 42.4467 15.984 42.3774 16.064C42.308 16.1387 42.2094 16.176 42.0814 16.176H41.0254V19H39.3054V16.176H34.4254C34.292 16.176 34.1747 16.136 34.0734 16.056C33.972 15.9707 33.908 15.8667 33.8814 15.744L33.6734 14.744L39.1534 7.424H41.0254V14.64H42.4814ZM45.2426 19.024C45.152 19.2693 45.0053 19.4533 44.8026 19.576C44.6053 19.6987 44.4026 19.76 44.1946 19.76H43.3546L48.0266 7.808C48.112 7.584 48.2426 7.41333 48.4186 7.296C48.5946 7.17333 48.8 7.112 49.0346 7.112H49.8826L45.2426 19.024ZM59.0798 7.432V8.288C59.0798 8.544 59.0531 8.752 58.9998 8.912C58.9464 9.06667 58.8931 9.19733 58.8398 9.304L54.4557 18.328C54.3651 18.5147 54.2371 18.6747 54.0718 18.808C53.9064 18.936 53.6851 19 53.4078 19H51.9758L56.4478 10.16C56.5491 9.97867 56.6478 9.81333 56.7438 9.664C56.8451 9.50933 56.9571 9.36267 57.0798 9.224H51.5438C51.4211 9.224 51.3144 9.17867 51.2238 9.088C51.1331 8.99733 51.0878 8.89067 51.0878 8.768V7.432H59.0798ZM75.8356 13.216C75.8356 14.064 75.6943 14.8507 75.4116 15.576C75.1343 16.296 74.7396 16.92 74.2276 17.448C73.7156 17.976 73.0996 18.3893 72.3796 18.688C71.6596 18.9813 70.8596 19.128 69.9796 19.128C69.105 19.128 68.3076 18.9813 67.5876 18.688C66.8676 18.3893 66.249 17.976 65.7316 17.448C65.2196 16.92 64.8223 16.296 64.5396 15.576C64.257 14.8507 64.1156 14.064 64.1156 13.216C64.1156 12.368 64.257 11.584 64.5396 10.864C64.8223 10.1387 65.2196 9.512 65.7316 8.984C66.249 8.456 66.8676 8.04533 67.5876 7.752C68.3076 7.45333 69.105 7.304 69.9796 7.304C70.5663 7.304 71.1183 7.37333 71.6356 7.512C72.153 7.64533 72.6276 7.83733 73.0596 8.088C73.4916 8.33333 73.8783 8.63467 74.2196 8.992C74.5663 9.344 74.8596 9.73867 75.0996 10.176C75.3396 10.6133 75.521 11.088 75.6436 11.6C75.7716 12.112 75.8356 12.6507 75.8356 13.216ZM73.6356 13.216C73.6356 12.5813 73.5503 12.0133 73.3796 11.512C73.209 11.0053 72.9663 10.576 72.6516 10.224C72.337 9.872 71.953 9.60267 71.4996 9.416C71.0516 9.22933 70.545 9.136 69.9796 9.136C69.4143 9.136 68.905 9.22933 68.4516 9.416C68.0036 9.60267 67.6196 9.872 67.2996 10.224C66.985 10.576 66.7423 11.0053 66.5716 11.512C66.401 12.0133 66.3156 12.5813 66.3156 13.216C66.3156 13.8507 66.401 14.4213 66.5716 14.928C66.7423 15.4293 66.985 15.856 67.2996 16.208C67.6196 16.5547 68.0036 16.8213 68.4516 17.008C68.905 17.1947 69.4143 17.288 69.9796 17.288C70.545 17.288 71.0516 17.1947 71.4996 17.008C71.953 16.8213 72.337 16.5547 72.6516 16.208C72.9663 15.856 73.209 15.4293 73.3796 14.928C73.5503 14.4213 73.6356 13.8507 73.6356 13.216ZM79.1209 11.8C79.2862 11.6347 79.4595 11.4827 79.6409 11.344C79.8275 11.2 80.0222 11.08 80.2249 10.984C80.4329 10.8827 80.6542 10.8053 80.8889 10.752C81.1235 10.6933 81.3795 10.664 81.6569 10.664C82.1049 10.664 82.5022 10.7413 82.8489 10.896C83.1955 11.0453 83.4835 11.2587 83.7129 11.536C83.9475 11.808 84.1235 12.136 84.2409 12.52C84.3635 12.8987 84.4249 13.3173 84.4249 13.776V19H82.4489V13.776C82.4489 13.2747 82.3342 12.888 82.1049 12.616C81.8755 12.3387 81.5262 12.2 81.0569 12.2C80.7155 12.2 80.3955 12.2773 80.0969 12.432C79.7982 12.5867 79.5155 12.7973 79.2489 13.064V19H77.2729V10.792H78.4809C78.7369 10.792 78.9049 10.912 78.9849 11.152L79.1209 11.8ZM88.3041 7.112V19H86.3281V7.112H88.3041ZM92.3209 10.792V19H90.3369V10.792H92.3209ZM92.5929 8.4C92.5929 8.57067 92.5582 8.73067 92.4889 8.88C92.4195 9.02933 92.3262 9.16 92.2089 9.272C92.0969 9.384 91.9635 9.47467 91.8089 9.544C91.6542 9.608 91.4889 9.64 91.3129 9.64C91.1422 9.64 90.9795 9.608 90.8249 9.544C90.6755 9.47467 90.5449 9.384 90.4329 9.272C90.3209 9.16 90.2302 9.02933 90.1609 8.88C90.0969 8.73067 90.0649 8.57067 90.0649 8.4C90.0649 8.224 90.0969 8.05867 90.1609 7.904C90.2302 7.74933 90.3209 7.616 90.4329 7.504C90.5449 7.392 90.6755 7.304 90.8249 7.24C90.9795 7.17067 91.1422 7.136 91.3129 7.136C91.4889 7.136 91.6542 7.17067 91.8089 7.24C91.9635 7.304 92.0969 7.392 92.2089 7.504C92.3262 7.616 92.4195 7.74933 92.4889 7.904C92.5582 8.05867 92.5929 8.224 92.5929 8.4ZM96.1834 11.8C96.3487 11.6347 96.522 11.4827 96.7034 11.344C96.89 11.2 97.0847 11.08 97.2874 10.984C97.4954 10.8827 97.7167 10.8053 97.9514 10.752C98.186 10.6933 98.442 10.664 98.7194 10.664C99.1674 10.664 99.5647 10.7413 99.9114 10.896C100.258 11.0453 100.546 11.2587 100.775 11.536C101.01 11.808 101.186 12.136 101.303 12.52C101.426 12.8987 101.487 13.3173 101.487 13.776V19H99.5114V13.776C99.5114 13.2747 99.3967 12.888 99.1674 12.616C98.938 12.3387 98.5887 12.2 98.1194 12.2C97.778 12.2 97.458 12.2773 97.1594 12.432C96.8607 12.5867 96.578 12.7973 96.3114 13.064V19H94.3354V10.792H95.5434C95.7994 10.792 95.9674 10.912 96.0474 11.152L96.1834 11.8ZM108.655 13.952C108.655 13.696 108.617 13.456 108.543 13.232C108.473 13.0027 108.367 12.8027 108.223 12.632C108.079 12.4613 107.895 12.328 107.671 12.232C107.452 12.1307 107.196 12.08 106.903 12.08C106.332 12.08 105.881 12.2427 105.551 12.568C105.225 12.8933 105.017 13.3547 104.927 13.952H108.655ZM104.887 15.144C104.919 15.5653 104.993 15.9307 105.111 16.24C105.228 16.544 105.383 16.7973 105.575 17C105.767 17.1973 105.993 17.3467 106.255 17.448C106.521 17.544 106.815 17.592 107.135 17.592C107.455 17.592 107.729 17.5547 107.959 17.48C108.193 17.4053 108.396 17.3227 108.567 17.232C108.743 17.1413 108.895 17.0587 109.023 16.984C109.156 16.9093 109.284 16.872 109.407 16.872C109.572 16.872 109.695 16.9333 109.775 17.056L110.343 17.776C110.124 18.032 109.879 18.248 109.607 18.424C109.335 18.5947 109.049 18.7333 108.751 18.84C108.457 18.9413 108.156 19.0133 107.847 19.056C107.543 19.0987 107.247 19.12 106.959 19.12C106.388 19.12 105.857 19.0267 105.367 18.84C104.876 18.648 104.449 18.368 104.087 18C103.724 17.6267 103.439 17.168 103.231 16.624C103.023 16.0747 102.919 15.44 102.919 14.72C102.919 14.16 103.009 13.6347 103.191 13.144C103.372 12.648 103.631 12.2187 103.967 11.856C104.308 11.488 104.721 11.1973 105.207 10.984C105.697 10.7707 106.249 10.664 106.863 10.664C107.38 10.664 107.857 10.7467 108.295 10.912C108.732 11.0773 109.108 11.32 109.423 11.64C109.737 11.9547 109.983 12.344 110.159 12.808C110.34 13.2667 110.431 13.792 110.431 14.384C110.431 14.6827 110.399 14.8853 110.335 14.992C110.271 15.0933 110.148 15.144 109.967 15.144H104.887ZM122.892 17.224V19H116.116V7.432H118.268V17.224H122.892ZM126.165 10.792V19H124.181V10.792H126.165ZM126.437 8.4C126.437 8.57067 126.402 8.73067 126.333 8.88C126.263 9.02933 126.17 9.16 126.053 9.272C125.941 9.384 125.807 9.47467 125.653 9.544C125.498 9.608 125.333 9.64 125.157 9.64C124.986 9.64 124.823 9.608 124.669 9.544C124.519 9.47467 124.389 9.384 124.277 9.272C124.165 9.16 124.074 9.02933 124.005 8.88C123.941 8.73067 123.909 8.57067 123.909 8.4C123.909 8.224 123.941 8.05867 124.005 7.904C124.074 7.74933 124.165 7.616 124.277 7.504C124.389 7.392 124.519 7.304 124.669 7.24C124.823 7.17067 124.986 7.136 125.157 7.136C125.333 7.136 125.498 7.17067 125.653 7.24C125.807 7.304 125.941 7.392 126.053 7.504C126.17 7.616 126.263 7.74933 126.333 7.904C126.402 8.05867 126.437 8.224 126.437 8.4ZM130.155 16.872C130.379 17.144 130.622 17.336 130.883 17.448C131.15 17.56 131.43 17.616 131.723 17.616C132.027 17.616 132.299 17.5627 132.539 17.456C132.784 17.344 132.992 17.1733 133.163 16.944C133.334 16.7093 133.464 16.4133 133.555 16.056C133.646 15.6933 133.691 15.2613 133.691 14.76C133.691 13.8587 133.542 13.208 133.243 12.808C132.944 12.4027 132.515 12.2 131.955 12.2C131.576 12.2 131.246 12.288 130.963 12.464C130.68 12.6347 130.411 12.8773 130.155 13.192V16.872ZM130.155 11.8C130.486 11.4533 130.851 11.1787 131.251 10.976C131.656 10.768 132.118 10.664 132.635 10.664C133.11 10.664 133.536 10.7573 133.915 10.944C134.299 11.1307 134.624 11.4 134.891 11.752C135.163 12.0987 135.371 12.52 135.515 13.016C135.659 13.512 135.731 14.0693 135.731 14.688C135.731 15.3547 135.648 15.96 135.483 16.504C135.318 17.048 135.08 17.5147 134.771 17.904C134.467 18.288 134.099 18.5867 133.667 18.8C133.235 19.0133 132.755 19.12 132.227 19.12C131.971 19.12 131.739 19.0933 131.531 19.04C131.323 18.992 131.131 18.9227 130.955 18.832C130.779 18.7413 130.616 18.632 130.467 18.504C130.323 18.3707 130.184 18.224 130.051 18.064L129.963 18.616C129.931 18.7547 129.875 18.8533 129.795 18.912C129.72 18.9707 129.616 19 129.483 19H128.179V7.112H130.155V11.8ZM139.121 12.216C139.377 11.7253 139.681 11.3413 140.033 11.064C140.385 10.7813 140.801 10.64 141.281 10.64C141.66 10.64 141.964 10.7227 142.193 10.888L142.065 12.368C142.039 12.464 141.999 12.5333 141.945 12.576C141.897 12.6133 141.831 12.632 141.745 12.632C141.665 12.632 141.545 12.6187 141.385 12.592C141.231 12.5653 141.079 12.552 140.929 12.552C140.711 12.552 140.516 12.584 140.345 12.648C140.175 12.712 140.02 12.8053 139.881 12.928C139.748 13.0453 139.628 13.1893 139.521 13.36C139.42 13.5307 139.324 13.7253 139.233 13.944V19H137.257V10.792H138.417C138.62 10.792 138.761 10.8293 138.841 10.904C138.921 10.9733 138.975 11.1013 139.001 11.288L139.121 12.216ZM147.453 15.496C146.882 15.5227 146.402 15.5733 146.013 15.648C145.623 15.7173 145.311 15.808 145.077 15.92C144.842 16.032 144.674 16.1627 144.573 16.312C144.471 16.4613 144.421 16.624 144.421 16.8C144.421 17.1467 144.522 17.3947 144.725 17.544C144.933 17.6933 145.202 17.768 145.533 17.768C145.938 17.768 146.287 17.696 146.581 17.552C146.879 17.4027 147.17 17.1787 147.453 16.88V15.496ZM142.925 11.936C143.869 11.072 145.005 10.64 146.333 10.64C146.813 10.64 147.242 10.72 147.621 10.88C147.999 11.0347 148.319 11.2533 148.581 11.536C148.842 11.8133 149.039 12.1467 149.173 12.536C149.311 12.9253 149.381 13.352 149.381 13.816V19H148.485C148.298 19 148.154 18.9733 148.053 18.92C147.951 18.8613 147.871 18.7467 147.813 18.576L147.637 17.984C147.429 18.1707 147.226 18.336 147.029 18.48C146.831 18.6187 146.626 18.736 146.413 18.832C146.199 18.928 145.97 19 145.725 19.048C145.485 19.1013 145.218 19.128 144.925 19.128C144.578 19.128 144.258 19.0827 143.965 18.992C143.671 18.896 143.418 18.7547 143.205 18.568C142.991 18.3813 142.826 18.1493 142.709 17.872C142.591 17.5947 142.533 17.272 142.533 16.904C142.533 16.696 142.567 16.4907 142.637 16.288C142.706 16.08 142.818 15.8827 142.973 15.696C143.133 15.5093 143.338 15.3333 143.589 15.168C143.839 15.0027 144.146 14.8587 144.509 14.736C144.877 14.6133 145.303 14.5147 145.789 14.44C146.274 14.36 146.829 14.312 147.453 14.296V13.816C147.453 13.2667 147.335 12.8613 147.101 12.6C146.866 12.3333 146.527 12.2 146.085 12.2C145.765 12.2 145.498 12.2373 145.285 12.312C145.077 12.3867 144.893 12.472 144.733 12.568C144.573 12.6587 144.426 12.7413 144.293 12.816C144.165 12.8907 144.021 12.928 143.861 12.928C143.722 12.928 143.605 12.8933 143.509 12.824C143.413 12.7493 143.335 12.664 143.277 12.568L142.925 11.936ZM153.106 12.216C153.362 11.7253 153.666 11.3413 154.018 11.064C154.37 10.7813 154.786 10.64 155.266 10.64C155.644 10.64 155.948 10.7227 156.178 10.888L156.05 12.368C156.023 12.464 155.983 12.5333 155.93 12.576C155.882 12.6133 155.815 12.632 155.73 12.632C155.65 12.632 155.53 12.6187 155.37 12.592C155.215 12.5653 155.063 12.552 154.914 12.552C154.695 12.552 154.5 12.584 154.33 12.648C154.159 12.712 154.004 12.8053 153.866 12.928C153.732 13.0453 153.612 13.1893 153.506 13.36C153.404 13.5307 153.308 13.7253 153.218 13.944V19H151.242V10.792H152.402C152.604 10.792 152.746 10.8293 152.826 10.904C152.906 10.9733 152.959 11.1013 152.986 11.288L153.106 12.216ZM164.666 10.792L160.194 21.256C160.136 21.3947 160.058 21.4987 159.962 21.568C159.872 21.6427 159.73 21.68 159.538 21.68H158.066L159.602 18.384L156.282 10.792H158.018C158.173 10.792 158.293 10.8293 158.378 10.904C158.469 10.9787 158.536 11.064 158.578 11.16L160.322 15.416C160.381 15.56 160.429 15.704 160.466 15.848C160.509 15.992 160.549 16.1387 160.586 16.288C160.634 16.1387 160.682 15.992 160.73 15.848C160.778 15.6987 160.832 15.552 160.89 15.408L162.538 11.16C162.581 11.0533 162.65 10.9653 162.746 10.896C162.848 10.8267 162.96 10.792 163.082 10.792H164.666Z" fill="#9A9CA5"/>
</svg>
