<svg aria-hidden="true" style="position: absolute; width: 0; height: 0; overflow: hidden;" version="1.1" xmlns="http://www.w3.org/2000/svg" xmlns:xlink="http://www.w3.org/1999/xlink">
    <defs>
        <symbol id="icon-small" viewBox="0 0 32 32">
            <path d="M32 16c0 8.837-7.163 16-16 16s-16-7.163-16-16c0-8.837 7.163-16 16-16s16 7.163 16 16z"></path>
            <path fill="#fff" style="fill: var(--color2, #fff)" d="M20 15.467c0.41 0.237 0.41 0.829 0 1.066l-5.538 3.198c-0.41 0.237-0.923-0.059-0.923-0.533v-6.395c0-0.474 0.513-0.77 0.923-0.533l5.538 3.198z"></path>
        </symbol>
        <symbol id="icon-logo" viewBox="0 0 189 32">
            <path fill="#1e212c" style="fill: var(--color3, #1e212c)" d="M0 16.145c0-8.873 4.8-14.255 12.655-14.255 5.964 0 10.764 3.636 11.636 9.018 0.145 0.582-0.291 1.018-0.873 1.018h-3.782c-0.436 0-0.727-0.291-0.873-0.727-0.727-2.764-3.055-4.509-6.109-4.509-4.218 0-6.836 3.636-6.836 9.455s2.618 9.455 6.982 9.455c3.055 0 5.236-1.6 6.109-4.218 0.145-0.436 0.436-0.727 0.873-0.727h3.782c0.582 0 1.018 0.582 0.873 1.018-0.873 5.236-5.527 8.727-11.636 8.727-8 0-12.8-5.527-12.8-14.255z"></path>
            <path fill="#1e212c" style="fill: var(--color3, #1e212c)" d="M35.345 29.673h-4.218c-0.436 0-0.727-0.291-0.727-0.727v-25.164c0-0.582 0.582-1.164 1.164-1.164h10.182c5.964 0 9.6 3.345 9.6 8.582 0 3.055-1.455 5.818-3.927 7.273-0.582 0.291-0.727 1.018-0.436 1.455l4.509 8.582c0.291 0.436-0.145 1.018-0.582 1.018h-4.8c-0.291 0-0.582-0.145-0.727-0.436l-4.218-8.727c-0.145-0.436-0.582-0.582-1.018-0.582h-3.345c-0.436 0-0.727 0.291-0.727 0.727v8.582c0.145 0.291-0.291 0.582-0.727 0.582zM36.218 14.836c0 0.436 0.291 0.727 0.727 0.727h4.364c2.909 0 4.509-1.6 4.509-4.218s-1.745-4.218-4.509-4.218h-4.218c-0.436 0-0.727 0.291-0.727 0.727v6.982h-0.145z"></path>
            <path fill="#1e212c" style="fill: var(--color3, #1e212c)" d="M74.909 29.673h-16c-0.582 0-1.018-0.436-1.018-1.018v-25.018c0-0.582 0.436-1.018 1.018-1.018h16c0.582 0 1.018 0.436 1.018 1.018v2.764c0 0.582-0.436 1.018-1.018 1.018h-10.618c-0.436 0-0.727 0.291-0.727 0.727v4.945c0 0.436 0.291 0.727 0.727 0.727h9.891c0.582 0 1.018 0.436 1.018 1.018v2.473c0 0.582-0.436 1.018-1.018 1.018h-9.891c-0.436 0-0.727 0.291-0.727 0.727v5.527c0 0.436 0.291 0.727 0.727 0.727h10.618c0.582 0 1.018 0.436 1.018 1.018v2.764c0 0.145-0.436 0.582-1.018 0.582z"></path>
            <path fill="#1e212c" style="fill: var(--color3, #1e212c)" d="M97.454 23.127h-8.291c-0.436 0-0.727 0.291-0.873 0.582l-1.6 5.382c-0.145 0.436-0.436 0.582-0.873 0.582h-3.782c-0.582 0-1.018-0.582-0.873-1.164l8.727-25.309c0.145-0.291 0.436-0.582 0.873-0.582h5.382c0.436 0 0.727 0.291 0.873 0.582l8.727 25.309c0.145 0.582-0.291 1.164-0.873 1.164h-4.218c-0.436 0-0.727-0.291-0.873-0.582l-1.6-5.382c0-0.291-0.436-0.582-0.727-0.582zM90.327 18.909h5.964c0.291 0 0.436-0.291 0.436-0.582l-3.2-10.182h-0.291l-3.2 10.182c-0.145 0.291 0 0.582 0.291 0.582z"></path>
            <path fill="#1e212c" style="fill: var(--color3, #1e212c)" d="M114.909 28.655v-20.655c0-0.436-0.291-0.727-0.727-0.727h-6.4c-0.582 0-1.164-0.436-1.164-1.164v-2.473c0-0.582 0.436-1.164 1.164-1.164h19.782c0.582 0 1.164 0.436 1.164 1.164v2.473c0 0.582-0.436 1.164-1.164 1.164h-6.4c-0.436 0-0.727 0.291-0.727 0.727v20.8c0 0.582-0.436 1.018-1.018 1.018h-3.636c-0.436-0.146-0.873-0.582-0.873-1.164z"></path>
            <path fill="#1e212c" style="fill: var(--color3, #1e212c)" d="M150.982 29.673h-16c-0.582 0-1.018-0.436-1.018-1.018v-25.018c0-0.582 0.436-1.018 1.018-1.018h16c0.582 0 1.018 0.436 1.018 1.018v2.764c0 0.582-0.436 1.018-1.018 1.018h-10.618c-0.436 0-0.727 0.291-0.727 0.727v4.945c0 0.436 0.291 0.727 0.727 0.727h9.891c0.582 0 1.018 0.436 1.018 1.018v2.473c0 0.582-0.436 1.018-1.018 1.018h-9.891c-0.436 0-0.727 0.291-0.727 0.727v5.527c0 0.436 0.291 0.727 0.727 0.727h10.618c0.582 0 1.018 0.436 1.018 1.018v2.764c0 0.145-0.436 0.582-1.018 0.582z"></path>
            <path fill="#ff3f3a" style="fill: var(--color1, #ff3f3a)" d="M171.2 14.109l-9.018-11.782c-0.582-0.582-1.309-0.873-2.036-0.873s-1.455 0.291-2.036 0.873c-1.018 1.164-1.018 2.909 0 4.073l7.127 9.6-7.127 9.6c-1.018 1.164-1.018 2.909 0 4.073 0.582 0.582 1.309 0.873 2.036 0.873s1.455-0.291 2.036-0.873l9.018-11.782c1.018-0.873 1.018-2.618 0-3.782z"></path>
            <path fill="#ff3f3a" style="fill: var(--color1, #ff3f3a)" d="M175.044 14.109l9.018-11.782c0.582-0.582 1.309-0.873 2.036-0.873s1.455 0.291 2.036 0.873c1.018 1.164 1.018 2.909 0 4.073l-7.127 9.6 7.127 9.6c1.018 1.164 1.018 2.909 0 4.073-0.582 0.582-1.309 0.873-2.036 0.873s-1.455-0.291-2.036-0.873l-9.018-11.782c-1.018-0.873-1.018-2.618 0-3.782z"></path>
        </symbol>
        <symbol id="icon-dots2" viewBox="0 0 21 32">
            <path d="M11.977 3.428c-0.182 0.105-0.398 0.047-0.504-0.135s-0.048-0.398 0.135-0.504c0.182-0.105 0.398-0.047 0.504 0.135s0.032 0.407-0.135 0.504z"></path>
            <path d="M13.549 6.151c-0.182 0.105-0.398 0.047-0.504-0.135s-0.048-0.398 0.135-0.504c0.182-0.105 0.398-0.047 0.504 0.135 0.097 0.167 0.033 0.407-0.135 0.504z"></path>
            <path d="M15.112 8.859c-0.182 0.105-0.398 0.047-0.504-0.135s-0.048-0.398 0.135-0.504c0.182-0.105 0.398-0.047 0.504 0.135s0.033 0.407-0.135 0.504z"></path>
            <path d="M16.684 11.581c-0.182 0.105-0.398 0.047-0.503-0.135s-0.048-0.398 0.135-0.504c0.182-0.105 0.398-0.047 0.503 0.135s0.032 0.407-0.135 0.504z"></path>
            <path d="M18.256 14.304c-0.182 0.105-0.398 0.047-0.504-0.135s-0.048-0.398 0.135-0.504c0.182-0.105 0.398-0.047 0.503 0.135 0.097 0.167 0.033 0.407-0.134 0.504z"></path>
            <path d="M19.828 17.026c-0.182 0.105-0.398 0.047-0.503-0.135s-0.048-0.398 0.135-0.504c0.182-0.105 0.398-0.047 0.503 0.135s0.033 0.407-0.135 0.504z"></path>
            <path d="M21.391 19.734c-0.182 0.105-0.398 0.047-0.503-0.135s-0.048-0.398 0.135-0.503c0.182-0.105 0.398-0.047 0.503 0.135s0.033 0.407-0.135 0.504z"></path>
            <path d="M9.713 4.735c-0.182 0.105-0.398 0.047-0.504-0.135s-0.048-0.398 0.135-0.504c0.182-0.105 0.398-0.047 0.504 0.135s0.048 0.398-0.135 0.504z"></path>
            <path d="M11.285 7.458c-0.182 0.105-0.398 0.047-0.504-0.135s-0.048-0.398 0.135-0.504c0.182-0.105 0.398-0.047 0.504 0.135 0.097 0.167 0.048 0.398-0.135 0.504z"></path>
            <path d="M12.848 10.166c-0.182 0.105-0.398 0.047-0.504-0.135s-0.048-0.398 0.135-0.504c0.182-0.105 0.398-0.047 0.504 0.135s0.048 0.398-0.135 0.504z"></path>
            <path d="M14.42 12.888c-0.182 0.105-0.398 0.047-0.504-0.135s-0.048-0.398 0.135-0.504c0.182-0.105 0.398-0.047 0.504 0.135s0.048 0.398-0.135 0.504z"></path>
            <path d="M15.992 15.611c-0.182 0.105-0.398 0.047-0.504-0.135s-0.048-0.398 0.135-0.504c0.182-0.105 0.398-0.047 0.504 0.135 0.097 0.167 0.048 0.398-0.135 0.504z"></path>
            <path d="M17.564 18.333c-0.182 0.105-0.398 0.047-0.503-0.135s-0.048-0.398 0.135-0.504 0.398-0.047 0.503 0.135c0.105 0.183 0.048 0.398-0.135 0.504z"></path>
            <path d="M19.127 21.041c-0.182 0.105-0.398 0.047-0.503-0.135s-0.048-0.398 0.135-0.504c0.182-0.105 0.398-0.047 0.503 0.135s0.048 0.398-0.135 0.504z"></path>
            <path d="M20.699 23.763c-0.182 0.105-0.398 0.047-0.503-0.135s-0.048-0.398 0.135-0.503c0.182-0.105 0.398-0.047 0.503 0.135s0.048 0.398-0.135 0.504z"></path>
            <path d="M16.49 0.823c-0.182 0.105-0.398 0.047-0.504-0.135s-0.048-0.398 0.135-0.504c0.182-0.105 0.398-0.047 0.503 0.135s0.048 0.398-0.135 0.504z"></path>
            <path d="M18.061 3.546c-0.182 0.105-0.398 0.047-0.503-0.135s-0.048-0.398 0.135-0.504c0.182-0.105 0.398-0.047 0.503 0.135 0.097 0.167 0.048 0.398-0.135 0.504z"></path>
            <path d="M19.625 6.253c-0.182 0.105-0.398 0.047-0.503-0.135s-0.048-0.398 0.135-0.504c0.182-0.105 0.407-0.032 0.503 0.135 0.105 0.183 0.048 0.398-0.134 0.504z"></path>
            <path d="M21.196 8.976c-0.182 0.105-0.398 0.047-0.503-0.135s-0.048-0.398 0.135-0.504c0.182-0.105 0.407-0.032 0.503 0.135s0.048 0.398-0.135 0.504z"></path>
            <path d="M14.226 2.13c-0.182 0.105-0.398 0.047-0.504-0.135s-0.032-0.407 0.135-0.504c0.182-0.105 0.398-0.047 0.504 0.135s0.048 0.398-0.135 0.504z"></path>
            <path d="M15.798 4.853c-0.182 0.105-0.398 0.047-0.504-0.135s-0.048-0.398 0.135-0.504c0.182-0.105 0.398-0.047 0.504 0.135 0.097 0.167 0.048 0.398-0.135 0.504z"></path>
            <path d="M17.361 7.56c-0.182 0.105-0.398 0.047-0.503-0.135s-0.048-0.398 0.135-0.504c0.182-0.105 0.398-0.047 0.503 0.135s0.048 0.398-0.135 0.504z"></path>
            <path d="M18.933 10.283c-0.182 0.105-0.398 0.047-0.503-0.135s-0.048-0.398 0.135-0.504c0.182-0.105 0.398-0.047 0.503 0.135s0.048 0.398-0.135 0.504z"></path>
            <path d="M20.505 13.005c-0.182 0.105-0.398 0.047-0.503-0.135s-0.048-0.398 0.135-0.504c0.182-0.105 0.398-0.047 0.503 0.135 0.097 0.167 0.048 0.398-0.134 0.504z"></path>
            <path d="M7.464 6.034c-0.182 0.105-0.398 0.047-0.503-0.135s-0.048-0.398 0.135-0.504c0.182-0.105 0.398-0.047 0.503 0.135s0.032 0.407-0.135 0.504z"></path>
            <path d="M9.036 8.756c-0.182 0.105-0.398 0.047-0.504-0.135s-0.048-0.398 0.135-0.504c0.182-0.105 0.398-0.047 0.504 0.135 0.097 0.167 0.033 0.407-0.135 0.504z"></path>
            <path d="M10.599 11.464c-0.182 0.105-0.398 0.047-0.504-0.135s-0.048-0.398 0.135-0.504c0.182-0.105 0.398-0.047 0.504 0.135s0.033 0.407-0.135 0.504z"></path>
            <path d="M12.171 14.186c-0.182 0.105-0.398 0.047-0.504-0.135s-0.048-0.398 0.135-0.504c0.182-0.105 0.398-0.047 0.504 0.135s0.032 0.407-0.135 0.504z"></path>
            <path d="M13.743 16.909c-0.182 0.105-0.398 0.047-0.504-0.135s-0.048-0.398 0.135-0.504c0.182-0.105 0.398-0.047 0.504 0.135 0.097 0.167 0.032 0.407-0.135 0.504z"></path>
            <path d="M15.315 19.632c-0.182 0.105-0.398 0.047-0.504-0.135s-0.048-0.398 0.135-0.504 0.398-0.047 0.504 0.135c0.105 0.182 0.032 0.407-0.135 0.504z"></path>
            <path d="M16.878 22.339c-0.182 0.105-0.398 0.047-0.503-0.135s-0.048-0.398 0.135-0.503c0.182-0.105 0.398-0.047 0.503 0.135s0.032 0.407-0.135 0.503z"></path>
            <path d="M18.45 25.062c-0.182 0.105-0.398 0.047-0.504-0.135s-0.048-0.398 0.135-0.504c0.182-0.105 0.398-0.047 0.503 0.135s0.033 0.407-0.134 0.504z"></path>
            <path d="M20.022 27.784c-0.182 0.105-0.398 0.047-0.503-0.135s-0.048-0.398 0.135-0.504c0.182-0.105 0.398-0.047 0.503 0.135 0.097 0.167 0.033 0.407-0.135 0.503z"></path>
            <path d="M5.2 7.341c-0.182 0.105-0.398 0.047-0.503-0.135s-0.048-0.398 0.135-0.504c0.182-0.105 0.398-0.047 0.503 0.135s0.048 0.398-0.135 0.504z"></path>
            <path d="M6.772 10.063c-0.182 0.105-0.398 0.047-0.503-0.135s-0.048-0.398 0.135-0.504c0.182-0.105 0.398-0.047 0.503 0.135 0.097 0.167 0.048 0.398-0.135 0.504z"></path>
            <path d="M8.336 12.771c-0.182 0.105-0.398 0.047-0.503-0.135s-0.048-0.398 0.135-0.504c0.182-0.105 0.398-0.047 0.504 0.135s0.048 0.398-0.135 0.504z"></path>
            <path d="M9.404 15.358c0.102 0.176 0.327 0.237 0.504 0.135s0.236-0.327 0.135-0.504c-0.102-0.176-0.327-0.237-0.504-0.135s-0.236 0.327-0.135 0.504z"></path>
            <path d="M11.479 18.216c-0.182 0.105-0.398 0.047-0.504-0.135s-0.048-0.398 0.135-0.504 0.398-0.047 0.504 0.135c0.097 0.167 0.048 0.398-0.135 0.504z"></path>
            <path d="M13.051 20.939c-0.182 0.105-0.398 0.047-0.504-0.135s-0.048-0.398 0.135-0.503c0.182-0.105 0.398-0.047 0.504 0.135s0.048 0.398-0.135 0.504z"></path>
            <path d="M14.614 23.646c-0.182 0.105-0.398 0.047-0.504-0.135s-0.048-0.398 0.135-0.504 0.398-0.047 0.504 0.135c0.105 0.183 0.048 0.398-0.135 0.504z"></path>
            <path d="M15.683 26.233c0.102 0.176 0.327 0.237 0.503 0.135s0.236-0.327 0.135-0.503c-0.102-0.176-0.327-0.237-0.504-0.135s-0.236 0.327-0.135 0.503z"></path>
            <path d="M17.758 29.091c-0.182 0.105-0.398 0.047-0.503-0.135s-0.048-0.398 0.135-0.504c0.182-0.105 0.398-0.047 0.503 0.135 0.097 0.167 0.048 0.398-0.135 0.504z"></path>
            <path d="M2.937 8.648c-0.182 0.105-0.398 0.047-0.503-0.135s-0.048-0.398 0.135-0.504c0.182-0.105 0.398-0.047 0.503 0.135s0.048 0.398-0.135 0.504z"></path>
            <path d="M4.508 11.371c-0.182 0.105-0.398 0.047-0.503-0.135s-0.048-0.398 0.135-0.504c0.182-0.105 0.398-0.047 0.503 0.135 0.097 0.167 0.048 0.398-0.135 0.504z"></path>
            <path d="M6.072 14.078c-0.182 0.105-0.398 0.047-0.503-0.135s-0.048-0.398 0.135-0.504c0.182-0.105 0.398-0.047 0.503 0.135s0.048 0.398-0.135 0.504z"></path>
            <path d="M7.644 16.801c-0.182 0.105-0.398 0.047-0.503-0.135s-0.048-0.398 0.135-0.504c0.182-0.105 0.398-0.047 0.503 0.135s0.048 0.398-0.135 0.504z"></path>
            <path d="M9.215 19.523c-0.182 0.105-0.398 0.047-0.504-0.135s-0.048-0.398 0.135-0.504c0.182-0.105 0.398-0.047 0.504 0.135 0.097 0.167 0.048 0.398-0.135 0.504z"></path>
            <path d="M10.787 22.246c-0.182 0.105-0.398 0.047-0.504-0.135s-0.048-0.398 0.135-0.504 0.398-0.047 0.504 0.135c0.105 0.182 0.048 0.398-0.135 0.504z"></path>
            <path d="M12.35 24.953c-0.182 0.105-0.398 0.047-0.504-0.135s-0.048-0.398 0.135-0.503c0.182-0.105 0.398-0.047 0.504 0.135s0.048 0.398-0.135 0.504z"></path>
            <path d="M13.922 27.676c-0.182 0.105-0.398 0.047-0.504-0.135s-0.048-0.398 0.135-0.504c0.182-0.105 0.398-0.047 0.504 0.135s0.048 0.398-0.135 0.504z"></path>
            <path d="M15.494 30.398c-0.182 0.105-0.398 0.047-0.504-0.135s-0.048-0.398 0.135-0.504 0.398-0.047 0.504 0.135c0.097 0.167 0.048 0.398-0.135 0.503z"></path>
            <path d="M0.688 9.946c-0.182 0.105-0.398 0.047-0.503-0.135s-0.048-0.398 0.135-0.504c0.182-0.105 0.398-0.047 0.503 0.135s0.032 0.407-0.135 0.504z"></path>
            <path d="M2.26 12.669c-0.182 0.105-0.398 0.047-0.503-0.135s-0.048-0.398 0.135-0.504c0.182-0.105 0.398-0.047 0.503 0.135 0.097 0.167 0.032 0.407-0.135 0.504z"></path>
            <path d="M3.823 15.376c-0.182 0.105-0.398 0.047-0.503-0.135s-0.048-0.398 0.135-0.504c0.182-0.105 0.398-0.047 0.503 0.135s0.032 0.407-0.135 0.504z"></path>
            <path d="M5.395 18.099c-0.182 0.105-0.398 0.047-0.503-0.135s-0.048-0.398 0.135-0.504c0.182-0.105 0.398-0.047 0.503 0.135s0.032 0.407-0.135 0.504z"></path>
            <path d="M6.967 20.822c-0.182 0.105-0.398 0.047-0.503-0.135s-0.048-0.398 0.135-0.504 0.398-0.047 0.503 0.135c0.097 0.167 0.032 0.407-0.135 0.504z"></path>
            <path d="M8.539 23.544c-0.182 0.105-0.398 0.047-0.504-0.135s-0.048-0.398 0.135-0.503c0.182-0.105 0.398-0.047 0.504 0.135s0.033 0.407-0.135 0.503z"></path>
            <path d="M10.102 26.252c-0.182 0.105-0.398 0.047-0.504-0.135s-0.048-0.398 0.135-0.504c0.182-0.105 0.398-0.047 0.504 0.135s0.032 0.407-0.135 0.504z"></path>
            <path d="M11.674 28.974c-0.182 0.105-0.398 0.047-0.504-0.135s-0.048-0.398 0.135-0.504 0.398-0.047 0.504 0.135c0.105 0.182 0.032 0.407-0.135 0.503z"></path>
            <path d="M13.246 31.697c-0.182 0.105-0.398 0.047-0.504-0.135s-0.048-0.398 0.135-0.504c0.182-0.105 0.398-0.047 0.504 0.135 0.097 0.167 0.033 0.407-0.135 0.504z"></path>
        </symbol>
        <symbol id="icon-circles2" viewBox="0 0 32 32">
            <path d="M16.011 0c-8.851 0-16.011 7.16-16.011 16.011 0 8.829 7.16 16.011 16.011 16.011 8.829 0 16.011-7.16 16.011-16.011-0.022-8.851-7.182-16.011-16.011-16.011zM16.011 30.99c-8.28 0-14.979-6.699-14.979-14.979s6.699-14.979 14.979-14.979c8.28 0 14.979 6.699 14.979 14.979 0 8.258-6.721 14.979-14.979 14.979z"></path>
            <path d="M16.011 3.448c-6.918 0-12.541 5.623-12.541 12.541s5.623 12.541 12.541 12.541c6.918 0 12.541-5.601 12.541-12.519 0-6.94-5.622-12.563-12.541-12.563zM16.011 26.619c-5.864 0-10.63-4.766-10.63-10.63s4.766-10.63 10.63-10.63c5.864 0 10.63 4.766 10.63 10.63s-4.766 10.63-10.63 10.63z"></path>
        </symbol>
        <symbol id="icon-shapes1" viewBox="0 0 45 32">
            <path d="M27.043 21.685l2.784 2.785-7.404 7.404-7.404-7.404 2.763-2.763 4.62 4.62 4.641-4.641z"></path>
            <path d="M27.043 11.687l2.763 2.763-7.404 7.404-7.383-7.383 2.785-2.784 4.62 4.62 4.62-4.62z"></path>
            <path d="M27.022 1.667l2.785 2.784-7.383 7.383-7.404-7.404 2.763-2.763 4.62 4.62 4.62-4.62z"></path>
            <path d="M27.043-8.353l2.785 2.784-7.404 7.404-7.404-7.404 2.785-2.784 4.62 4.62 4.62-4.62z"></path>
        </symbol>
        <symbol id="icon-shapes" viewBox="0 0 60 32">
            <path d="M45.267 29.202c7.298 0 13.243-5.941 13.243-13.234s-5.945-13.233-13.243-13.233v26.467z"></path>
            <path d="M24.607 29.202c7.298 0 13.243-5.941 13.243-13.234s-5.945-13.233-13.243-13.233v26.467z"></path>
            <path d="M3.946 29.202c7.298 0 13.243-5.941 13.243-13.233s-5.945-13.233-13.243-13.233v26.467z"></path>
        </symbol>
        <symbol id="icon-Mail" viewBox="0 0 32 32">
            <path d="M30.334 23.999v-14.667c0-2.209-1.791-4-4-4l-20.667 0c-2.209 0-4 1.791-4 4v14.667c0 2.209 1.791 4 4 4h20.667c2.209 0 4-1.791 4-4zM27.667 12.345v11.654c0 0.736-0.597 1.333-1.333 1.333h-20.667c-0.736 0-1.333-0.597-1.333-1.333v-11.654l9.418 6.404c1.357 0.923 3.141 0.923 4.498 0l9.417-6.404zM27.652 9.13l-10.902 7.413c-0.452 0.308-1.047 0.308-1.499 0l-10.902-7.413c0.097-0.64 0.65-1.131 1.318-1.131l20.667-0c0.668 0 1.221 0.491 1.318 1.131z"></path>
        </symbol>
        <symbol id="icon-iPhone" viewBox="0 0 32 32">
            <path d="M11.334 3.897c-1.105 0-2 0.895-2 2v20.208c0 1.105 0.895 2 2 2h9.333c1.105 0 2-0.895 2-2v-20.208c0-1.105-0.895-2-2-2h-0.111l-0.325 0.779c-0.207 0.497-0.692 0.82-1.231 0.82h-6c-0.538 0-1.024-0.324-1.231-0.82l-0.325-0.779h-0.111zM6.667 5.897c0-2.577 2.089-4.667 4.667-4.667h9.333c2.577 0 4.667 2.089 4.667 4.667v20.208c0 2.577-2.089 4.667-4.667 4.667h-9.333c-2.577 0-4.667-2.089-4.667-4.667v-20.208z"></path>
        </symbol>
        <symbol id="icon-Heart" viewBox="0 0 32 32">
            <path d="M15.999 26.543c-6.132-3.493-9.552-6.964-11.206-9.976-1.693-3.083-1.545-5.679-0.606-7.522 1.931-3.788 7.421-4.999 10.766-0.768l1.046 1.323 1.046-1.323c3.346-4.231 8.836-3.019 10.767 0.768 0.939 1.843 1.087 4.439-0.606 7.522-1.654 3.012-5.074 6.483-11.207 9.976zM16 5.475c-4.706-4.471-11.647-2.623-14.188 2.36-1.394 2.735-1.413 6.27 0.644 10.016 2.039 3.713 6.104 7.633 12.898 11.388l0.645 0.356 0.645-0.356c6.795-3.755 10.86-7.675 12.899-11.388 2.057-3.746 2.038-7.281 0.644-10.016-2.54-4.983-9.482-6.831-14.188-2.36z"></path>
        </symbol>
        <symbol id="icon-Play" viewBox="0 0 30 32">
            <path d="M20.163 14.005c1.314 1.005 1.314 2.984 0 3.988l-5.747 4.393c-1.652 1.262-4.034 0.085-4.034-1.994v-8.785c0-2.079 2.382-3.256 4.034-1.994l5.747 4.393zM18.639 15.999l-5.747-4.393v8.785l5.747-4.393z"></path>
            <path d="M15.059 4.705c-6.238 0-11.294 5.057-11.294 11.294s5.057 11.294 11.294 11.294c6.237 0 11.294-5.056 11.294-11.294s-5.057-11.294-11.294-11.294zM1.255 15.999c0-7.624 6.18-13.804 13.804-13.804s13.804 6.18 13.804 13.804c0 7.624-6.18 13.804-13.804 13.804s-13.804-6.18-13.804-13.804z"></path>
        </symbol>
        <symbol id="icon-mic" viewBox="0 0 30 32">
            <path d="M7.78 8.973c0-4.020 3.259-7.278 7.278-7.278s7.278 3.259 7.278 7.278v6.024c0 4.020-3.259 7.278-7.279 7.278s-7.278-3.259-7.278-7.278v-6.024zM15.059 4.205c-2.634 0-4.769 2.135-4.769 4.769v6.024c0 2.634 2.135 4.769 4.769 4.769s4.769-2.135 4.769-4.769v-6.024c0-2.634-2.135-4.769-4.769-4.769z"></path>
            <path d="M5.020 11.734c0.693 0 1.255 0.562 1.255 1.255v2.008c0 4.851 3.933 8.784 8.784 8.784s8.784-3.933 8.784-8.784v-2.008c0-0.693 0.562-1.255 1.255-1.255s1.255 0.562 1.255 1.255v2.008c0 6.238-5.057 11.294-11.294 11.294s-11.294-5.057-11.294-11.294v-2.008c0-0.693 0.562-1.255 1.255-1.255z"></path>
            <path d="M15.059 24.785c0.693 0 1.255 0.562 1.255 1.255v1.757h2.761c0.693 0 1.255 0.562 1.255 1.255s-0.562 1.255-1.255 1.255h-8.031c-0.693 0-1.255-0.562-1.255-1.255s0.562-1.255 1.255-1.255h2.761v-1.757c0-0.693 0.562-1.255 1.255-1.255z"></path>
        </symbol>
        <symbol id="icon-Files" viewBox="0 0 30 32">
            <path d="M10.040 17.884c0-0.693 0.562-1.255 1.255-1.255h7.53c0.693 0 1.255 0.562 1.255 1.255s-0.562 1.255-1.255 1.255h-7.529c-0.693 0-1.255-0.562-1.255-1.255z"></path>
            <path d="M10.040 22.59c0-0.693 0.562-1.255 1.255-1.255h3.765c0.693 0 1.255 0.562 1.255 1.255s-0.562 1.255-1.255 1.255h-3.765c-0.693 0-1.255-0.562-1.255-1.255z"></path>
            <path d="M11.348 2.879c0.235-0.235 0.555-0.368 0.887-0.368h8.471c2.772 0 5.019 2.247 5.019 5.020v16.941c0 2.772-2.247 5.019-5.019 5.019h-11.294c-2.772 0-5.020-2.247-5.020-5.020l0-14.118c0-0.333 0.132-0.652 0.368-0.887l6.588-6.588zM11.922 5.854l-4.186 4.186h4.186v-4.186zM6.902 12.55l-0 11.921c0 1.386 1.124 2.51 2.51 2.51h11.294c1.386 0 2.51-1.124 2.51-2.51v-16.941c0-1.386-1.124-2.51-2.51-2.51h-6.275v6.275c0 0.693-0.562 1.255-1.255 1.255h-6.274z"></path>
        </symbol>
        <symbol id="icon-YouTube" viewBox="0 0 32 32">
            <path d="M28.52 5.485c-2.504-0.685-12.521-0.685-12.521-0.685s-10.016 0-12.521 0.659c-1.344 0.369-2.451 1.476-2.82 2.847-0.659 2.504-0.659 7.697-0.659 7.697s0 5.219 0.659 7.697c0.369 1.371 1.45 2.451 2.821 2.821 2.53 0.685 12.521 0.685 12.521 0.685s10.016 0 12.52-0.659c1.371-0.369 2.451-1.45 2.821-2.82 0.659-2.504 0.659-7.697 0.659-7.697s0.026-5.219-0.659-7.723c-0.369-1.371-1.45-2.451-2.82-2.821zM21.14 16.002l-8.329 4.797v-9.595l8.329 4.797z"></path>
        </symbol>
        <symbol id="icon-Twitter" viewBox="0 0 32 32">
            <path d="M30 7.696c-1.031 0.437-2.136 0.734-3.298 0.866 1.186-0.68 2.094-1.759 2.525-3.041-1.113 0.63-2.341 1.087-3.65 1.335-1.048-1.071-2.539-1.737-4.192-1.737-3.172 0-5.744 2.463-5.744 5.498 0 0.431 0.051 0.851 0.149 1.253-4.773-0.23-9.005-2.419-11.838-5.746-0.495 0.811-0.777 1.756-0.777 2.764 0 1.908 1.015 3.592 2.555 4.577-0.941-0.030-1.827-0.278-2.602-0.69v0.069c0 2.664 1.981 4.887 4.607 5.393-0.481 0.124-0.989 0.193-1.513 0.193-0.371 0-0.73-0.035-1.081-0.102 0.731 2.186 2.852 3.776 5.365 3.82-1.965 1.474-4.442 2.351-7.133 2.351-0.464 0-0.92-0.027-1.37-0.075 2.542 1.563 5.56 2.475 8.804 2.475 10.566 0 16.342-8.38 16.342-15.648l-0.019-0.712c1.129-0.771 2.105-1.739 2.873-2.841z"></path>
        </symbol>
        <symbol id="icon-telegram" viewBox="0 0 32 32">
            <path d="M12.844 20.242l-0.485 7.445c0.694 0 0.995-0.325 1.355-0.716l3.255-3.393 6.744 5.388c1.237 0.752 2.108 0.356 2.442-1.241l4.427-22.629 0.001-0.001c0.392-1.995-0.661-2.775-1.866-2.285l-26.022 10.868c-1.776 0.752-1.749 1.832-0.302 2.321l6.653 2.257 15.453-10.548c0.727-0.525 1.388-0.235 0.845 0.291l-12.5 12.244z"></path>
        </symbol>
        <symbol id="icon-Linked-In" viewBox="0 0 32 32">
            <path d="M29.327 29.333l0.007-0.001v-9.78c0-4.785-1.030-8.47-6.623-8.47-2.689 0-4.493 1.476-5.23 2.874h-0.078v-2.428h-5.303v17.803h5.522v-8.816c0-2.321 0.44-4.566 3.315-4.566 2.832 0 2.874 2.649 2.874 4.715v8.668h5.517z"></path>
            <path d="M3.107 11.53h5.529v17.803h-5.529v-17.803z"></path>
            <path d="M5.869 2.667c-1.768 0-3.202 1.434-3.202 3.202s1.434 3.232 3.202 3.232c1.768 0 3.202-1.464 3.202-3.232-0.001-1.768-1.436-3.202-3.202-3.202z"></path>
        </symbol>
        <symbol id="icon-Instagram" viewBox="0 0 32 32">
            <path d="M29.307 10.507c-0.062-1.417-0.292-2.391-0.62-3.235-0.339-0.896-0.86-1.698-1.542-2.365-0.667-0.677-1.474-1.203-2.36-1.537-0.849-0.328-1.818-0.557-3.235-0.62-1.428-0.068-1.881-0.083-5.501-0.083s-4.074 0.016-5.496 0.078c-1.417 0.062-2.391 0.292-3.235 0.62-0.896 0.339-1.698 0.86-2.365 1.542-0.677 0.667-1.203 1.474-1.537 2.36-0.328 0.849-0.557 1.818-0.62 3.235-0.068 1.427-0.083 1.881-0.083 5.501s0.016 4.074 0.078 5.496c0.062 1.417 0.292 2.391 0.62 3.235 0.339 0.896 0.865 1.698 1.542 2.365 0.667 0.677 1.474 1.203 2.36 1.537 0.849 0.328 1.818 0.557 3.235 0.62 1.422 0.063 1.875 0.078 5.496 0.078s4.074-0.015 5.496-0.078c1.417-0.062 2.391-0.292 3.235-0.62 1.792-0.693 3.209-2.11 3.902-3.902 0.328-0.849 0.557-1.818 0.62-3.235 0.063-1.422 0.078-1.875 0.078-5.496s-0.005-4.074-0.068-5.496zM26.906 21.394c-0.057 1.302-0.276 2.006-0.459 2.474-0.448 1.162-1.37 2.084-2.532 2.532-0.469 0.182-1.177 0.401-2.475 0.458-1.406 0.063-1.828 0.078-5.386 0.078s-3.985-0.015-5.387-0.078c-1.302-0.057-2.006-0.276-2.474-0.458-0.578-0.214-1.104-0.552-1.531-0.995-0.443-0.432-0.781-0.953-0.995-1.531-0.182-0.469-0.401-1.177-0.458-2.474-0.063-1.407-0.078-1.829-0.078-5.387s0.015-3.985 0.078-5.386c0.057-1.302 0.276-2.006 0.458-2.474 0.214-0.578 0.552-1.104 1-1.532 0.432-0.443 0.953-0.781 1.531-0.995 0.469-0.182 1.177-0.401 2.474-0.458 1.407-0.062 1.829-0.078 5.386-0.078 3.563 0 3.985 0.016 5.387 0.078 1.302 0.057 2.006 0.276 2.474 0.458 0.578 0.213 1.104 0.552 1.531 0.995 0.443 0.432 0.781 0.953 0.995 1.532 0.182 0.469 0.401 1.177 0.459 2.474 0.062 1.407 0.078 1.828 0.078 5.386s-0.016 3.975-0.078 5.381z"></path>
            <path d="M16.049 9.152c-3.782 0-6.85 3.068-6.85 6.85s3.068 6.85 6.85 6.85c3.782 0 6.85-3.068 6.85-6.85s-3.068-6.85-6.85-6.85zM16.049 20.446c-2.453 0-4.444-1.99-4.444-4.444s1.99-4.444 4.444-4.444c2.454 0 4.444 1.99 4.444 4.444s-1.99 4.444-4.444 4.444z"></path>
            <path d="M24.77 8.881c0 0.883-0.716 1.599-1.599 1.599s-1.599-0.716-1.599-1.599c0-0.883 0.716-1.599 1.599-1.599s1.599 0.716 1.599 1.599z"></path>
        </symbol>
        <symbol id="icon-Facebook" viewBox="0 0 32 32">
            <path d="M23.417 1.339l-3.703-0.006c-4.16 0-6.849 2.833-6.849 7.219v3.328h-3.723c-0.322 0-0.582 0.268-0.582 0.598v4.823c0 0.33 0.261 0.598 0.582 0.598h3.723v12.169c0 0.331 0.261 0.598 0.582 0.598h4.858c0.322 0 0.582-0.268 0.582-0.598v-12.169h4.353c0.322 0 0.582-0.268 0.582-0.598l0.002-4.823c0-0.159-0.062-0.311-0.171-0.423s-0.258-0.175-0.412-0.175h-4.355v-2.822c0-1.356 0.315-2.045 2.034-2.045l2.495-0.001c0.321 0 0.582-0.268 0.582-0.598v-4.478c0-0.33-0.26-0.598-0.581-0.598z"></path>
        </symbol>
        <symbol id="icon-dots" viewBox="0 0 37 32">
            <path d="M1.246 9.405c0 0.355-0.267 0.621-0.623 0.621s-0.623-0.266-0.623-0.621c0-0.355 0.267-0.621 0.623-0.621s0.623 0.296 0.623 0.621z"></path>
            <path d="M6.558 9.405c0 0.355-0.267 0.621-0.623 0.621s-0.623-0.266-0.623-0.621c0-0.355 0.267-0.621 0.623-0.621 0.326 0 0.623 0.296 0.623 0.621z"></path>
            <path d="M11.84 9.405c0 0.355-0.267 0.621-0.623 0.621s-0.623-0.266-0.623-0.621c0-0.355 0.267-0.621 0.623-0.621s0.623 0.296 0.623 0.621z"></path>
            <path d="M17.151 9.405c0 0.355-0.267 0.621-0.623 0.621s-0.623-0.266-0.623-0.621c0-0.355 0.267-0.621 0.623-0.621s0.623 0.296 0.623 0.621z"></path>
            <path d="M22.462 9.405c0 0.355-0.267 0.621-0.623 0.621s-0.623-0.266-0.623-0.621c0-0.355 0.267-0.621 0.623-0.621 0.326 0 0.623 0.296 0.623 0.621z"></path>
            <path d="M27.774 9.405c0 0.355-0.267 0.621-0.623 0.621s-0.623-0.266-0.623-0.621 0.267-0.621 0.623-0.621c0.356 0 0.623 0.296 0.623 0.621z"></path>
            <path d="M33.056 9.405c0 0.355-0.267 0.621-0.623 0.621s-0.623-0.266-0.623-0.621 0.267-0.621 0.623-0.621c0.356 0 0.623 0.296 0.623 0.621z"></path>
            <path d="M1.246 13.812c0 0.355-0.267 0.621-0.623 0.621s-0.623-0.266-0.623-0.621c0-0.355 0.267-0.621 0.623-0.621s0.623 0.266 0.623 0.621z"></path>
            <path d="M6.558 13.812c0 0.355-0.267 0.621-0.623 0.621s-0.623-0.266-0.623-0.621c0-0.355 0.267-0.621 0.623-0.621 0.326 0 0.623 0.266 0.623 0.621z"></path>
            <path d="M11.84 13.812c0 0.355-0.267 0.621-0.623 0.621s-0.623-0.266-0.623-0.621c0-0.355 0.267-0.621 0.623-0.621s0.623 0.266 0.623 0.621z"></path>
            <path d="M17.151 13.812c0 0.355-0.267 0.621-0.623 0.621s-0.623-0.266-0.623-0.621c0-0.355 0.267-0.621 0.623-0.621s0.623 0.266 0.623 0.621z"></path>
            <path d="M22.462 13.812c0 0.355-0.267 0.621-0.623 0.621s-0.623-0.266-0.623-0.621c0-0.355 0.267-0.621 0.623-0.621 0.326 0 0.623 0.266 0.623 0.621z"></path>
            <path d="M27.774 13.812c0 0.355-0.267 0.621-0.623 0.621s-0.623-0.266-0.623-0.621 0.267-0.621 0.623-0.621c0.356 0 0.623 0.266 0.623 0.621z"></path>
            <path d="M33.056 13.812c0 0.355-0.267 0.621-0.623 0.621s-0.623-0.266-0.623-0.621 0.267-0.621 0.623-0.621c0.356 0 0.623 0.266 0.623 0.621z"></path>
            <path d="M1.246 0.621c0 0.355-0.267 0.621-0.623 0.621s-0.623-0.266-0.623-0.621c0-0.355 0.267-0.621 0.623-0.621s0.623 0.266 0.623 0.621z"></path>
            <path d="M6.558 0.621c0 0.355-0.267 0.621-0.623 0.621s-0.623-0.266-0.623-0.621c0-0.355 0.267-0.621 0.623-0.621 0.326 0 0.623 0.266 0.623 0.621z"></path>
            <path d="M11.84 0.621c0 0.355-0.267 0.621-0.623 0.621s-0.623-0.266-0.623-0.621c0-0.355 0.297-0.621 0.623-0.621 0.356 0 0.623 0.266 0.623 0.621z"></path>
            <path d="M17.151 0.621c0 0.355-0.267 0.621-0.623 0.621s-0.623-0.266-0.623-0.621c0-0.355 0.297-0.621 0.623-0.621s0.623 0.266 0.623 0.621z"></path>
            <path d="M22.462 0.621c0 0.355-0.267 0.621-0.623 0.621s-0.623-0.266-0.623-0.621c0-0.355 0.267-0.621 0.623-0.621 0.326 0 0.623 0.266 0.623 0.621z"></path>
            <path d="M27.774 0.621c0 0.355-0.267 0.621-0.623 0.621s-0.623-0.266-0.623-0.621 0.267-0.621 0.623-0.621c0.356 0 0.623 0.266 0.623 0.621z"></path>
            <path d="M33.056 0.621c0 0.355-0.267 0.621-0.623 0.621s-0.623-0.266-0.623-0.621 0.267-0.621 0.623-0.621c0.356 0 0.623 0.266 0.623 0.621z"></path>
            <path d="M1.246 5.028c0 0.355-0.267 0.621-0.623 0.621s-0.623-0.296-0.623-0.621c0-0.355 0.267-0.621 0.623-0.621s0.623 0.266 0.623 0.621z"></path>
            <path d="M6.558 5.028c0 0.355-0.267 0.621-0.623 0.621s-0.623-0.266-0.623-0.621c0-0.355 0.267-0.621 0.623-0.621 0.326 0 0.623 0.266 0.623 0.621z"></path>
            <path d="M11.84 5.028c0 0.355-0.267 0.621-0.623 0.621s-0.623-0.266-0.623-0.621c0-0.355 0.267-0.621 0.623-0.621s0.623 0.266 0.623 0.621z"></path>
            <path d="M17.151 5.028c0 0.355-0.267 0.621-0.623 0.621s-0.623-0.266-0.623-0.621c0-0.355 0.267-0.621 0.623-0.621s0.623 0.266 0.623 0.621z"></path>
            <path d="M22.462 5.028c0 0.355-0.267 0.621-0.623 0.621s-0.623-0.266-0.623-0.621c0-0.355 0.267-0.621 0.623-0.621 0.326 0 0.623 0.266 0.623 0.621z"></path>
            <path d="M27.774 5.028c0 0.355-0.267 0.621-0.623 0.621s-0.623-0.266-0.623-0.621 0.267-0.621 0.623-0.621c0.356 0 0.623 0.266 0.623 0.621z"></path>
            <path d="M33.056 5.028c0 0.355-0.267 0.621-0.623 0.621s-0.623-0.266-0.623-0.621 0.267-0.621 0.623-0.621c0.356 0 0.623 0.266 0.623 0.621z"></path>
            <path d="M1.246 18.189c0 0.355-0.267 0.621-0.623 0.621s-0.623-0.266-0.623-0.621c0-0.355 0.267-0.621 0.623-0.621s0.623 0.296 0.623 0.621z"></path>
            <path d="M6.558 18.189c0 0.355-0.267 0.621-0.623 0.621s-0.623-0.266-0.623-0.621c0-0.355 0.267-0.621 0.623-0.621 0.326 0 0.623 0.296 0.623 0.621z"></path>
            <path d="M11.84 18.189c0 0.355-0.267 0.621-0.623 0.621s-0.623-0.266-0.623-0.621c0-0.355 0.267-0.621 0.623-0.621s0.623 0.296 0.623 0.621z"></path>
            <path d="M17.151 18.189c0 0.355-0.267 0.621-0.623 0.621s-0.623-0.266-0.623-0.621c0-0.355 0.267-0.621 0.623-0.621s0.623 0.296 0.623 0.621z"></path>
            <path d="M22.462 18.189c0 0.355-0.267 0.621-0.623 0.621s-0.623-0.266-0.623-0.621c0-0.355 0.267-0.621 0.623-0.621 0.326 0 0.623 0.296 0.623 0.621z"></path>
            <path d="M27.774 18.189c0 0.355-0.267 0.621-0.623 0.621s-0.623-0.266-0.623-0.621 0.267-0.621 0.623-0.621c0.356 0 0.623 0.296 0.623 0.621z"></path>
            <path d="M33.056 18.189c0 0.355-0.267 0.621-0.623 0.621s-0.623-0.266-0.623-0.621 0.267-0.621 0.623-0.621c0.356 0 0.623 0.296 0.623 0.621z"></path>
            <path d="M1.246 22.595c0 0.355-0.267 0.621-0.623 0.621s-0.623-0.266-0.623-0.621c0-0.355 0.267-0.621 0.623-0.621s0.623 0.266 0.623 0.621z"></path>
            <path d="M6.558 22.595c0 0.355-0.267 0.621-0.623 0.621s-0.623-0.266-0.623-0.621c0-0.355 0.267-0.621 0.623-0.621 0.326 0 0.623 0.266 0.623 0.621z"></path>
            <path d="M11.84 22.595c0 0.355-0.267 0.621-0.623 0.621s-0.623-0.266-0.623-0.621c0-0.355 0.267-0.621 0.623-0.621s0.623 0.266 0.623 0.621z"></path>
            <path d="M16.528 23.216c0.344 0 0.623-0.278 0.623-0.621s-0.279-0.621-0.623-0.621c-0.344 0-0.623 0.278-0.623 0.621s0.279 0.621 0.623 0.621z"></path>
            <path d="M22.462 22.595c0 0.355-0.267 0.621-0.623 0.621s-0.623-0.266-0.623-0.621c0-0.355 0.267-0.621 0.623-0.621 0.326 0 0.623 0.266 0.623 0.621z"></path>
            <path d="M27.774 22.595c0 0.355-0.267 0.621-0.623 0.621s-0.623-0.266-0.623-0.621 0.267-0.621 0.623-0.621c0.356 0 0.623 0.266 0.623 0.621z"></path>
            <path d="M33.056 22.595c0 0.355-0.267 0.621-0.623 0.621s-0.623-0.266-0.623-0.621 0.267-0.621 0.623-0.621c0.356 0 0.623 0.266 0.623 0.621z"></path>
            <path d="M1.246 27.002c0 0.355-0.267 0.621-0.623 0.621s-0.623-0.266-0.623-0.621c0-0.355 0.267-0.621 0.623-0.621s0.623 0.266 0.623 0.621z"></path>
            <path d="M6.558 27.002c0 0.355-0.267 0.621-0.623 0.621s-0.623-0.266-0.623-0.621c0-0.355 0.267-0.621 0.623-0.621 0.326 0 0.623 0.266 0.623 0.621z"></path>
            <path d="M11.84 27.002c0 0.355-0.267 0.621-0.623 0.621s-0.623-0.266-0.623-0.621c0-0.355 0.267-0.621 0.623-0.621s0.623 0.266 0.623 0.621z"></path>
            <path d="M17.151 27.002c0 0.355-0.267 0.621-0.623 0.621s-0.623-0.266-0.623-0.621c0-0.355 0.267-0.621 0.623-0.621s0.623 0.266 0.623 0.621z"></path>
            <path d="M22.462 27.002c0 0.355-0.267 0.621-0.623 0.621s-0.623-0.266-0.623-0.621c0-0.355 0.267-0.621 0.623-0.621 0.326 0 0.623 0.266 0.623 0.621z"></path>
            <path d="M27.774 27.002c0 0.355-0.267 0.621-0.623 0.621s-0.623-0.266-0.623-0.621c0-0.355 0.267-0.621 0.623-0.621s0.623 0.266 0.623 0.621z"></path>
            <path d="M33.056 27.002c0 0.355-0.267 0.621-0.623 0.621s-0.623-0.266-0.623-0.621c0-0.355 0.267-0.621 0.623-0.621s0.623 0.266 0.623 0.621z"></path>
            <path d="M1.246 31.379c0 0.355-0.267 0.621-0.623 0.621s-0.623-0.266-0.623-0.621c0-0.355 0.267-0.621 0.623-0.621s0.623 0.296 0.623 0.621z"></path>
            <path d="M6.558 31.379c0 0.355-0.267 0.621-0.623 0.621s-0.623-0.266-0.623-0.621c0-0.355 0.267-0.621 0.623-0.621 0.326 0 0.623 0.296 0.623 0.621z"></path>
            <path d="M11.84 31.379c0 0.355-0.267 0.621-0.623 0.621s-0.623-0.266-0.623-0.621c0-0.355 0.267-0.621 0.623-0.621s0.623 0.296 0.623 0.621z"></path>
            <path d="M17.151 31.379c0 0.355-0.267 0.621-0.623 0.621s-0.623-0.266-0.623-0.621c0-0.355 0.267-0.621 0.623-0.621s0.623 0.296 0.623 0.621z"></path>
            <path d="M22.462 31.379c0 0.355-0.267 0.621-0.623 0.621s-0.623-0.266-0.623-0.621c0-0.355 0.267-0.621 0.623-0.621 0.326 0 0.623 0.296 0.623 0.621z"></path>
            <path d="M27.774 31.379c0 0.355-0.267 0.621-0.623 0.621s-0.623-0.266-0.623-0.621c0-0.355 0.267-0.621 0.623-0.621s0.623 0.296 0.623 0.621z"></path>
            <path d="M33.056 31.379c0 0.355-0.267 0.621-0.623 0.621s-0.623-0.266-0.623-0.621c0-0.355 0.267-0.621 0.623-0.621s0.623 0.296 0.623 0.621z"></path>
        </symbol>
        <symbol id="icon-circles" viewBox="0 0 30 32">
            <path d="M5.234 0c-13.661 0-24.713 11.051-24.713 24.713 0 13.628 11.051 24.713 24.713 24.713 13.628 0 24.713-11.051 24.713-24.713-0.034-13.661-11.085-24.713-24.713-24.713zM5.234 47.832c-12.78 0-23.119-10.339-23.119-23.119s10.339-23.119 23.119-23.119c12.78 0 23.119 10.339 23.119 23.119 0 12.746-10.373 23.119-23.119 23.119z"></path>
            <path d="M5.235 5.322c-10.678 0-19.357 8.678-19.357 19.356s8.678 19.357 19.357 19.357 19.357-8.644 19.357-19.323c0-10.712-8.678-19.39-19.357-19.39zM5.235 41.086c-9.051 0-16.407-7.356-16.407-16.407s7.356-16.407 16.407-16.407 16.407 7.356 16.407 16.407c0 9.051-7.356 16.407-16.407 16.407z"></path>
            <path d="M5.234 13.831c-6 0-10.882 4.881-10.882 10.882s4.848 10.882 10.882 10.882c6 0 10.882-4.882 10.882-10.882-0.034-6-4.881-10.882-10.882-10.882zM5.234 30.543c-3.22 0-5.831-2.61-5.831-5.831s2.61-5.831 5.831-5.831 5.831 2.61 5.831 5.831c0 3.22-2.61 5.831-5.831 5.831z"></path>
        </symbol>
        <symbol id="icon-experlenced-tutors" viewBox="0 0 198 32">
            <path d="M8.344 7.96c0.57-1.315 2.434-1.315 3.004 0l1.724 3.977 4.315 0.411c1.426 0.136 2.002 1.909 0.928 2.857l-3.249 2.869 0.942 4.231c0.311 1.399-1.197 2.494-2.431 1.766l-3.732-2.204-3.732 2.204c-1.234 0.729-2.742-0.367-2.431-1.766l0.942-4.231-3.249-2.869c-1.074-0.948-0.498-2.721 0.928-2.857l4.315-0.411 1.724-3.977zM11.57 12.588l-1.724-3.977-1.724 3.977c-0.237 0.547-0.753 0.922-1.347 0.978l-4.315 0.411 3.249 2.869c0.447 0.395 0.644 1.001 0.514 1.583l-0.942 4.231 3.732-2.204c0.514-0.303 1.151-0.303 1.665 0l3.732 2.204-0.942-4.231c-0.13-0.582 0.067-1.189 0.514-1.583l3.249-2.869-4.315-0.411c-0.594-0.056-1.11-0.431-1.347-0.978z"></path>
            <path d="M34.023 11.254v3.948h4.982v2.038h-4.982v4.027h6.321v2.117h-8.98v-14.238h8.98v2.107h-6.321zM51.326 23.385h-2.343c-0.177 0-0.322-0.046-0.433-0.138-0.105-0.092-0.194-0.197-0.266-0.315l-2.137-3.515c-0.033 0.112-0.072 0.217-0.118 0.315-0.039 0.098-0.085 0.19-0.138 0.276l-1.89 2.924c-0.072 0.112-0.161 0.217-0.266 0.315-0.105 0.092-0.236 0.138-0.394 0.138h-2.176l3.466-5.209-3.328-4.894h2.343c0.177 0 0.309 0.026 0.394 0.079 0.085 0.046 0.161 0.125 0.226 0.236l2.117 3.367c0.072-0.223 0.174-0.443 0.305-0.66l1.703-2.658c0.145-0.243 0.332-0.364 0.561-0.364h2.235l-3.318 4.785 3.456 5.317zM55.027 20.766c0.276 0.335 0.574 0.571 0.896 0.709 0.328 0.138 0.683 0.207 1.063 0.207 0.368 0 0.699-0.069 0.994-0.207s0.545-0.348 0.748-0.63c0.21-0.282 0.371-0.637 0.482-1.063 0.112-0.433 0.167-0.942 0.167-1.526 0-0.591-0.049-1.090-0.148-1.497-0.092-0.414-0.226-0.748-0.404-1.004s-0.394-0.443-0.65-0.561c-0.249-0.118-0.535-0.177-0.857-0.177-0.505 0-0.935 0.108-1.29 0.325-0.354 0.21-0.689 0.509-1.004 0.896v4.529zM54.899 14.661c0.414-0.466 0.883-0.843 1.408-1.132s1.142-0.433 1.851-0.433c0.551 0 1.054 0.115 1.506 0.345 0.459 0.23 0.853 0.565 1.182 1.004 0.335 0.433 0.591 0.971 0.768 1.615 0.184 0.637 0.276 1.369 0.276 2.196 0 0.755-0.102 1.454-0.305 2.097s-0.496 1.201-0.876 1.674c-0.374 0.473-0.83 0.843-1.369 1.113-0.532 0.263-1.129 0.394-1.792 0.394-0.565 0-1.047-0.085-1.447-0.256-0.4-0.177-0.758-0.42-1.073-0.729v4.135h-2.432v-13.401h1.487c0.315 0 0.522 0.148 0.62 0.443l0.197 0.935zM70.296 17.172c0-0.315-0.046-0.61-0.138-0.886-0.085-0.282-0.217-0.528-0.394-0.738s-0.404-0.374-0.679-0.492c-0.269-0.125-0.584-0.187-0.945-0.187-0.702 0-1.257 0.2-1.664 0.601-0.4 0.4-0.656 0.968-0.768 1.703h4.588zM65.659 18.639c0.039 0.519 0.131 0.968 0.276 1.349 0.144 0.374 0.335 0.686 0.571 0.935 0.236 0.243 0.515 0.427 0.837 0.551 0.328 0.118 0.689 0.177 1.083 0.177s0.732-0.046 1.014-0.138c0.289-0.092 0.538-0.194 0.748-0.305 0.217-0.112 0.404-0.213 0.561-0.305 0.164-0.092 0.322-0.138 0.473-0.138 0.203 0 0.354 0.075 0.453 0.226l0.699 0.886c-0.269 0.315-0.571 0.581-0.906 0.798-0.335 0.21-0.686 0.381-1.054 0.512-0.361 0.125-0.732 0.213-1.113 0.266-0.374 0.053-0.738 0.079-1.093 0.079-0.702 0-1.356-0.115-1.959-0.345-0.604-0.236-1.129-0.581-1.575-1.034-0.446-0.459-0.798-1.024-1.054-1.694-0.256-0.676-0.384-1.457-0.384-2.343 0-0.689 0.111-1.336 0.335-1.94 0.223-0.61 0.542-1.139 0.955-1.585 0.42-0.453 0.929-0.811 1.526-1.073 0.604-0.263 1.283-0.394 2.038-0.394 0.637 0 1.224 0.102 1.762 0.305s1.001 0.502 1.388 0.896c0.387 0.387 0.689 0.866 0.906 1.438 0.223 0.565 0.335 1.211 0.335 1.94 0 0.368-0.039 0.617-0.118 0.748-0.079 0.125-0.23 0.187-0.453 0.187h-6.252zM76.601 15.035c0.315-0.604 0.689-1.077 1.122-1.418 0.433-0.348 0.945-0.522 1.536-0.522 0.466 0 0.84 0.102 1.122 0.305l-0.158 1.822c-0.033 0.118-0.082 0.203-0.148 0.256-0.059 0.046-0.141 0.069-0.246 0.069-0.098 0-0.246-0.016-0.443-0.049-0.19-0.033-0.377-0.049-0.561-0.049-0.269 0-0.509 0.039-0.719 0.118s-0.4 0.194-0.571 0.345c-0.164 0.144-0.312 0.322-0.443 0.532-0.125 0.21-0.243 0.45-0.354 0.719v6.223h-2.432v-10.102h1.428c0.249 0 0.423 0.046 0.522 0.138 0.098 0.085 0.164 0.243 0.197 0.473l0.148 1.142zM84.174 13.282v10.102h-2.442v-10.102h2.442zM84.509 10.338c0 0.21-0.043 0.407-0.128 0.591s-0.2 0.345-0.345 0.482c-0.138 0.138-0.302 0.249-0.492 0.335-0.19 0.079-0.394 0.118-0.61 0.118-0.21 0-0.41-0.039-0.601-0.118-0.184-0.085-0.345-0.197-0.482-0.335s-0.249-0.299-0.335-0.482c-0.079-0.184-0.118-0.381-0.118-0.591 0-0.217 0.039-0.42 0.118-0.61 0.085-0.19 0.197-0.354 0.335-0.492s0.299-0.246 0.482-0.325c0.19-0.085 0.391-0.128 0.601-0.128 0.217 0 0.42 0.043 0.61 0.128 0.19 0.079 0.354 0.187 0.492 0.325 0.144 0.138 0.259 0.302 0.345 0.492s0.128 0.394 0.128 0.61zM93.161 17.172c0-0.315-0.046-0.61-0.138-0.886-0.085-0.282-0.217-0.528-0.394-0.738s-0.404-0.374-0.679-0.492c-0.269-0.125-0.584-0.187-0.945-0.187-0.702 0-1.257 0.2-1.664 0.601-0.4 0.4-0.656 0.968-0.768 1.703h4.588zM88.524 18.639c0.039 0.519 0.131 0.968 0.276 1.349 0.144 0.374 0.335 0.686 0.571 0.935 0.236 0.243 0.515 0.427 0.837 0.551 0.328 0.118 0.689 0.177 1.083 0.177s0.732-0.046 1.014-0.138c0.289-0.092 0.538-0.194 0.748-0.305 0.217-0.112 0.404-0.213 0.561-0.305 0.164-0.092 0.322-0.138 0.473-0.138 0.203 0 0.354 0.075 0.453 0.226l0.699 0.886c-0.269 0.315-0.571 0.581-0.906 0.798-0.335 0.21-0.686 0.381-1.054 0.512-0.361 0.125-0.732 0.213-1.113 0.266-0.374 0.053-0.738 0.079-1.093 0.079-0.702 0-1.355-0.115-1.959-0.345-0.604-0.236-1.129-0.581-1.575-1.034-0.446-0.459-0.798-1.024-1.054-1.694-0.256-0.676-0.384-1.457-0.384-2.343 0-0.689 0.112-1.336 0.335-1.94 0.223-0.61 0.542-1.139 0.955-1.585 0.42-0.453 0.929-0.811 1.526-1.073 0.604-0.263 1.283-0.394 2.038-0.394 0.637 0 1.224 0.102 1.762 0.305s1.001 0.502 1.388 0.896c0.387 0.387 0.689 0.866 0.906 1.438 0.223 0.565 0.335 1.211 0.335 1.94 0 0.368-0.039 0.617-0.118 0.748-0.079 0.125-0.23 0.187-0.453 0.187h-6.252zM99.447 14.523c0.203-0.203 0.417-0.391 0.64-0.561 0.23-0.177 0.469-0.325 0.719-0.443 0.256-0.125 0.528-0.22 0.817-0.286 0.289-0.072 0.604-0.108 0.945-0.108 0.551 0 1.040 0.095 1.467 0.286 0.427 0.184 0.781 0.446 1.063 0.788 0.289 0.335 0.505 0.738 0.65 1.211 0.151 0.466 0.226 0.981 0.226 1.546v6.43h-2.432v-6.43c0-0.617-0.141-1.093-0.423-1.428-0.282-0.341-0.712-0.512-1.29-0.512-0.42 0-0.814 0.095-1.182 0.286s-0.716 0.45-1.044 0.778v7.306h-2.432v-10.102h1.487c0.315 0 0.522 0.148 0.62 0.443l0.167 0.798zM115.525 15.419c-0.072 0.092-0.144 0.164-0.217 0.217-0.066 0.053-0.164 0.079-0.295 0.079-0.125 0-0.246-0.036-0.364-0.108-0.118-0.079-0.259-0.164-0.423-0.256-0.164-0.098-0.361-0.184-0.591-0.256-0.223-0.079-0.502-0.118-0.837-0.118-0.427 0-0.801 0.079-1.122 0.236-0.322 0.151-0.591 0.371-0.807 0.66-0.21 0.289-0.368 0.64-0.473 1.054-0.105 0.407-0.158 0.87-0.158 1.388 0 0.538 0.056 1.017 0.167 1.438 0.118 0.42 0.286 0.775 0.502 1.063 0.217 0.282 0.479 0.499 0.788 0.65 0.309 0.144 0.656 0.217 1.044 0.217s0.699-0.046 0.935-0.138c0.243-0.098 0.446-0.203 0.61-0.315 0.164-0.118 0.305-0.223 0.423-0.315 0.125-0.098 0.263-0.148 0.414-0.148 0.197 0 0.345 0.075 0.443 0.226l0.699 0.886c-0.269 0.315-0.561 0.581-0.876 0.798-0.315 0.21-0.643 0.381-0.985 0.512-0.335 0.125-0.683 0.213-1.044 0.266-0.354 0.053-0.709 0.079-1.063 0.079-0.624 0-1.211-0.115-1.762-0.345-0.551-0.236-1.034-0.578-1.447-1.024s-0.742-0.991-0.985-1.634c-0.236-0.65-0.354-1.388-0.354-2.215 0-0.742 0.105-1.428 0.315-2.058 0.217-0.637 0.532-1.185 0.945-1.644 0.414-0.466 0.926-0.83 1.536-1.093s1.313-0.394 2.107-0.394c0.755 0 1.415 0.121 1.979 0.364 0.571 0.243 1.083 0.591 1.536 1.044l-0.64 0.886zM124.123 17.172c0-0.315-0.046-0.61-0.138-0.886-0.085-0.282-0.217-0.528-0.394-0.738s-0.404-0.374-0.68-0.492c-0.269-0.125-0.584-0.187-0.945-0.187-0.702 0-1.257 0.2-1.664 0.601-0.4 0.4-0.656 0.968-0.768 1.703h4.588zM119.485 18.639c0.039 0.519 0.131 0.968 0.276 1.349 0.144 0.374 0.335 0.686 0.571 0.935 0.236 0.243 0.515 0.427 0.837 0.551 0.328 0.118 0.689 0.177 1.083 0.177s0.732-0.046 1.014-0.138c0.289-0.092 0.538-0.194 0.748-0.305 0.217-0.112 0.404-0.213 0.561-0.305 0.164-0.092 0.321-0.138 0.473-0.138 0.203 0 0.354 0.075 0.453 0.226l0.699 0.886c-0.27 0.315-0.571 0.581-0.906 0.798-0.335 0.21-0.686 0.381-1.054 0.512-0.361 0.125-0.732 0.213-1.113 0.266-0.374 0.053-0.739 0.079-1.093 0.079-0.702 0-1.355-0.115-1.959-0.345-0.604-0.236-1.129-0.581-1.575-1.034-0.446-0.459-0.798-1.024-1.054-1.694-0.256-0.676-0.384-1.457-0.384-2.343 0-0.689 0.112-1.336 0.335-1.94 0.223-0.61 0.542-1.139 0.955-1.585 0.42-0.453 0.929-0.811 1.526-1.073 0.604-0.263 1.283-0.394 2.038-0.394 0.637 0 1.225 0.102 1.763 0.305s1.001 0.502 1.388 0.896c0.388 0.387 0.689 0.866 0.906 1.438 0.223 0.565 0.335 1.211 0.335 1.94 0 0.368-0.039 0.617-0.118 0.748-0.079 0.125-0.23 0.187-0.453 0.187h-6.252zM134.475 15.862c-0.276-0.335-0.578-0.571-0.906-0.709-0.322-0.138-0.67-0.207-1.044-0.207-0.368 0-0.699 0.069-0.994 0.207s-0.549 0.348-0.758 0.63c-0.21 0.276-0.372 0.63-0.482 1.063-0.112 0.427-0.167 0.932-0.167 1.516 0 0.591 0.046 1.093 0.138 1.506 0.098 0.407 0.236 0.742 0.414 1.004 0.177 0.256 0.394 0.443 0.65 0.561 0.256 0.112 0.542 0.167 0.857 0.167 0.505 0 0.935-0.105 1.29-0.315s0.689-0.509 1.004-0.896v-4.529zM136.907 8.753v14.631h-1.487c-0.322 0-0.526-0.148-0.61-0.443l-0.207-0.975c-0.407 0.466-0.876 0.843-1.408 1.132-0.526 0.289-1.14 0.433-1.841 0.433-0.551 0-1.057-0.115-1.516-0.345-0.46-0.23-0.857-0.561-1.191-0.994-0.329-0.44-0.585-0.981-0.768-1.625-0.177-0.643-0.266-1.378-0.266-2.206 0-0.748 0.101-1.444 0.305-2.087 0.203-0.643 0.495-1.201 0.876-1.674 0.38-0.473 0.837-0.84 1.369-1.103 0.532-0.269 1.129-0.404 1.792-0.404 0.564 0 1.046 0.089 1.447 0.266 0.4 0.177 0.758 0.417 1.073 0.719v-5.327h2.432zM153.828 11.323h-4.293v12.062h-2.649v-12.062h-4.293v-2.176h11.234v2.176zM162.185 13.282v10.102h-1.487c-0.322 0-0.526-0.148-0.61-0.443l-0.167-0.807c-0.414 0.42-0.87 0.761-1.369 1.024-0.5 0.256-1.087 0.384-1.762 0.384-0.551 0-1.041-0.092-1.467-0.276-0.421-0.19-0.775-0.456-1.063-0.798-0.289-0.341-0.51-0.745-0.66-1.211-0.145-0.473-0.217-0.991-0.217-1.556v-6.42h2.432v6.42c0 0.617 0.14 1.096 0.423 1.438 0.288 0.335 0.719 0.502 1.29 0.502 0.42 0 0.814-0.092 1.182-0.276 0.367-0.19 0.715-0.45 1.044-0.778v-7.306h2.432zM167.963 23.542c-0.88 0-1.556-0.246-2.028-0.738-0.466-0.499-0.699-1.185-0.699-2.058v-5.642h-1.034c-0.132 0-0.244-0.043-0.335-0.128-0.092-0.085-0.138-0.213-0.138-0.384v-0.965l1.625-0.266 0.512-2.757c0.032-0.131 0.095-0.233 0.187-0.305 0.091-0.072 0.209-0.108 0.354-0.108h1.26v3.18h2.698v1.733h-2.698v5.474c0 0.315 0.075 0.561 0.226 0.738 0.158 0.177 0.37 0.266 0.64 0.266 0.15 0 0.276-0.016 0.374-0.049 0.105-0.039 0.193-0.079 0.266-0.118 0.079-0.039 0.148-0.075 0.207-0.108 0.059-0.039 0.118-0.059 0.177-0.059 0.071 0 0.13 0.020 0.177 0.059 0.046 0.033 0.095 0.085 0.148 0.158l0.729 1.182c-0.354 0.295-0.762 0.519-1.221 0.67-0.46 0.151-0.935 0.226-1.428 0.226zM176.315 13.125c0.748 0 1.428 0.121 2.038 0.364 0.618 0.243 1.142 0.587 1.575 1.034 0.441 0.446 0.778 0.991 1.014 1.634s0.354 1.362 0.354 2.156c0 0.801-0.118 1.523-0.354 2.166s-0.574 1.191-1.014 1.644c-0.433 0.453-0.958 0.801-1.575 1.044-0.61 0.243-1.29 0.364-2.038 0.364-0.754 0-1.44-0.121-2.058-0.364-0.617-0.243-1.145-0.591-1.585-1.044-0.433-0.453-0.77-1.001-1.014-1.644-0.236-0.643-0.354-1.365-0.354-2.166 0-0.794 0.118-1.513 0.354-2.156 0.244-0.643 0.581-1.188 1.014-1.634 0.441-0.446 0.969-0.791 1.585-1.034 0.618-0.243 1.303-0.364 2.058-0.364zM176.315 21.662c0.841 0 1.461-0.282 1.861-0.847 0.407-0.565 0.61-1.392 0.61-2.481s-0.203-1.92-0.61-2.491c-0.4-0.571-1.020-0.857-1.861-0.857-0.853 0-1.487 0.289-1.9 0.866-0.406 0.571-0.61 1.398-0.61 2.481s0.204 1.91 0.61 2.481c0.414 0.565 1.047 0.847 1.9 0.847zM185.447 15.035c0.315-0.604 0.689-1.077 1.122-1.418 0.433-0.348 0.945-0.522 1.536-0.522 0.466 0 0.841 0.102 1.122 0.305l-0.158 1.822c-0.033 0.118-0.082 0.203-0.148 0.256-0.059 0.046-0.142 0.069-0.246 0.069-0.098 0-0.246-0.016-0.443-0.049-0.191-0.033-0.378-0.049-0.561-0.049-0.27 0-0.508 0.039-0.719 0.118s-0.4 0.194-0.571 0.345c-0.164 0.144-0.311 0.322-0.443 0.532-0.124 0.21-0.242 0.45-0.354 0.719v6.223h-2.432v-10.102h1.428c0.25 0 0.423 0.046 0.522 0.138 0.098 0.085 0.164 0.243 0.197 0.473l0.148 1.142zM196.624 15.252c-0.065 0.105-0.134 0.181-0.207 0.226-0.071 0.039-0.164 0.059-0.276 0.059-0.118 0-0.246-0.033-0.384-0.098-0.13-0.066-0.286-0.138-0.463-0.217-0.177-0.085-0.38-0.161-0.61-0.226-0.223-0.066-0.489-0.098-0.798-0.098-0.479 0-0.857 0.102-1.132 0.305-0.268 0.203-0.404 0.469-0.404 0.798 0 0.217 0.069 0.4 0.207 0.551 0.145 0.144 0.332 0.272 0.561 0.384 0.236 0.112 0.502 0.213 0.798 0.305 0.295 0.085 0.594 0.181 0.896 0.286 0.309 0.105 0.61 0.226 0.906 0.364 0.295 0.131 0.559 0.302 0.788 0.512 0.236 0.203 0.423 0.45 0.561 0.738 0.145 0.289 0.217 0.637 0.217 1.044 0 0.486-0.089 0.935-0.266 1.349-0.17 0.407-0.426 0.761-0.768 1.063-0.341 0.295-0.764 0.528-1.27 0.699-0.498 0.164-1.076 0.246-1.733 0.246-0.347 0-0.689-0.033-1.024-0.098-0.327-0.059-0.646-0.144-0.955-0.256-0.302-0.112-0.583-0.243-0.847-0.394-0.256-0.151-0.482-0.315-0.679-0.492l0.561-0.926c0.073-0.112 0.158-0.197 0.256-0.256s0.224-0.089 0.374-0.089c0.151 0 0.293 0.043 0.423 0.128 0.138 0.085 0.295 0.177 0.473 0.276s0.384 0.19 0.62 0.276c0.244 0.085 0.549 0.128 0.916 0.128 0.289 0 0.535-0.033 0.738-0.098 0.21-0.072 0.382-0.164 0.512-0.276 0.138-0.112 0.236-0.24 0.295-0.384 0.066-0.151 0.098-0.305 0.098-0.463 0-0.236-0.071-0.43-0.217-0.581-0.138-0.151-0.325-0.282-0.561-0.394-0.229-0.112-0.495-0.21-0.798-0.295-0.295-0.092-0.601-0.19-0.916-0.295-0.308-0.105-0.613-0.226-0.916-0.364-0.295-0.144-0.561-0.325-0.798-0.542-0.229-0.217-0.416-0.482-0.561-0.798-0.138-0.315-0.207-0.696-0.207-1.142 0-0.414 0.082-0.807 0.246-1.182 0.165-0.374 0.404-0.699 0.719-0.975 0.322-0.282 0.719-0.505 1.191-0.67 0.48-0.171 1.031-0.256 1.654-0.256 0.697 0 1.329 0.115 1.9 0.345s1.047 0.532 1.428 0.906l-0.551 0.876z"></path>
        </symbol>
        <symbol id="icon-community" viewBox="0 0 132 32">
            <path d="M17.988 14.825c-0.117 0.81-0.394 1.579-0.804 2.287 0.031 0.175 0.047 0.352 0.047 0.53 0 0.618-0.179 1.209-0.511 1.746-0.166 0.268-0.208 0.582-0.224 0.79-0.019 0.238-0.012 0.498 0.005 0.748 0.019 0.28 0.054 0.575 0.093 0.853-0.32-0.093-0.667-0.187-0.999-0.262-0.276-0.062-0.558-0.115-0.813-0.142-0.223-0.023-0.545-0.041-0.832 0.052-0.629 0.203-1.322 0.317-2.052 0.317-0.868 0-1.665-0.154-2.364-0.422-0.168 0.008-0.337 0.011-0.508 0.011-0.988 0-1.94-0.13-2.83-0.37 1.294 1.497 3.427 2.422 5.702 2.422 0.889 0 1.741-0.137 2.527-0.387 0.001 0 0.004 0 0.008 0 0.020-0 0.076-0.002 0.181 0.009 0.165 0.017 0.376 0.055 0.62 0.11 0.486 0.11 1.032 0.271 1.458 0.407 0.903 0.287 1.777-0.501 1.616-1.417-0.069-0.394-0.142-0.875-0.17-1.292-0.014-0.21-0.016-0.382-0.006-0.508 0.004-0.052 0.009-0.085 0.013-0.103 0.462-0.765 0.727-1.635 0.727-2.562 0-1.045-0.325-1.999-0.883-2.817z"></path>
            <path d="M4.592 10.83c-1.106 0.846-1.721 1.956-1.721 3.119 0 0.58 0.151 1.139 0.434 1.658 0.108 0.198 0.139 0.402 0.149 0.54 0.012 0.151 0.006 0.306-0.007 0.45-0.026 0.29-0.089 0.618-0.164 0.942-0.088 0.379-0.2 0.782-0.314 1.161 0.433-0.158 0.907-0.319 1.356-0.45 0.363-0.106 0.73-0.198 1.056-0.249 0.281-0.044 0.689-0.088 1.040 0.033 0.788 0.273 1.669 0.427 2.604 0.427 1.762 0 3.326-0.547 4.433-1.393s1.721-1.956 1.721-3.119-0.615-2.274-1.721-3.119c-1.107-0.846-2.671-1.393-4.433-1.393s-3.326 0.547-4.433 1.393zM3.595 9.527c1.417-1.084 3.34-1.731 5.43-1.731s4.013 0.647 5.43 1.731c1.418 1.085 2.365 2.641 2.365 4.423s-0.947 3.338-2.365 4.423c-1.417 1.084-3.34 1.731-5.43 1.731-1.102 0-2.155-0.18-3.11-0.507-0.001 0.003-0.078-0.005-0.277 0.026-0.229 0.036-0.52 0.107-0.852 0.204-0.661 0.193-1.403 0.466-1.968 0.686-0.979 0.381-1.977-0.559-1.647-1.561 0.175-0.531 0.381-1.202 0.516-1.782 0.068-0.292 0.112-0.537 0.128-0.719 0.006-0.063 0.007-0.109 0.007-0.14-0.378-0.722-0.59-1.52-0.59-2.361 0-1.782 0.947-3.339 2.365-4.423z"></path>
            <path d="M40.949 20.027c0.144 0 0.272 0.056 0.384 0.167l1.044 1.132c-0.578 0.715-1.29 1.264-2.137 1.644-0.84 0.381-1.851 0.571-3.033 0.571-1.057 0-2.009-0.181-2.855-0.542-0.84-0.361-1.559-0.863-2.156-1.506s-1.057-1.411-1.378-2.304c-0.315-0.893-0.473-1.867-0.473-2.924 0-1.070 0.171-2.048 0.512-2.934 0.341-0.893 0.82-1.661 1.438-2.304 0.623-0.643 1.365-1.142 2.225-1.497 0.86-0.361 1.812-0.542 2.855-0.542 1.037 0 1.956 0.171 2.757 0.512 0.807 0.341 1.493 0.788 2.058 1.339l-0.886 1.231c-0.053 0.079-0.121 0.148-0.207 0.207-0.079 0.059-0.19 0.089-0.335 0.089-0.098 0-0.2-0.026-0.305-0.079-0.105-0.059-0.22-0.128-0.345-0.207-0.125-0.085-0.269-0.177-0.433-0.276s-0.354-0.187-0.571-0.266c-0.217-0.085-0.469-0.154-0.758-0.207-0.282-0.059-0.61-0.089-0.985-0.089-0.637 0-1.221 0.115-1.753 0.345-0.525 0.223-0.978 0.551-1.359 0.985-0.381 0.427-0.676 0.952-0.886 1.575-0.21 0.617-0.315 1.323-0.315 2.117 0 0.801 0.111 1.513 0.335 2.137 0.23 0.624 0.538 1.149 0.926 1.575s0.843 0.755 1.369 0.985c0.525 0.223 1.090 0.335 1.694 0.335 0.361 0 0.686-0.020 0.975-0.059 0.295-0.039 0.564-0.102 0.807-0.187 0.249-0.085 0.482-0.194 0.699-0.325 0.223-0.138 0.443-0.305 0.66-0.502 0.066-0.059 0.135-0.105 0.207-0.138 0.072-0.039 0.148-0.059 0.226-0.059zM48.066 13.125c0.748 0 1.428 0.121 2.038 0.364 0.617 0.243 1.142 0.587 1.575 1.034 0.44 0.446 0.778 0.991 1.014 1.634s0.354 1.362 0.354 2.156c0 0.801-0.118 1.523-0.354 2.166s-0.574 1.191-1.014 1.644c-0.433 0.453-0.958 0.801-1.575 1.044-0.61 0.243-1.29 0.364-2.038 0.364-0.755 0-1.441-0.121-2.058-0.364s-1.145-0.591-1.585-1.044c-0.433-0.453-0.771-1.001-1.014-1.644-0.236-0.643-0.354-1.365-0.354-2.166 0-0.794 0.118-1.513 0.354-2.156 0.243-0.643 0.581-1.188 1.014-1.634 0.44-0.446 0.968-0.791 1.585-1.034s1.303-0.364 2.058-0.364zM48.066 21.662c0.84 0 1.461-0.282 1.861-0.847 0.407-0.565 0.61-1.392 0.61-2.481s-0.203-1.92-0.61-2.491c-0.4-0.571-1.021-0.857-1.861-0.857-0.853 0-1.487 0.289-1.9 0.866-0.407 0.571-0.61 1.398-0.61 2.481s0.203 1.91 0.61 2.481c0.414 0.565 1.047 0.847 1.9 0.847zM54.903 23.385v-10.102h1.487c0.315 0 0.522 0.148 0.62 0.443l0.158 0.748c0.177-0.197 0.361-0.377 0.551-0.542 0.197-0.164 0.404-0.305 0.62-0.423 0.223-0.118 0.459-0.21 0.709-0.276 0.256-0.072 0.535-0.108 0.837-0.108 0.637 0 1.159 0.174 1.566 0.522 0.414 0.341 0.722 0.798 0.926 1.369 0.158-0.335 0.354-0.62 0.591-0.857 0.236-0.243 0.496-0.44 0.778-0.591s0.581-0.263 0.896-0.335c0.322-0.072 0.643-0.108 0.965-0.108 0.558 0 1.054 0.085 1.487 0.256s0.798 0.42 1.093 0.748c0.295 0.328 0.519 0.729 0.67 1.201 0.158 0.473 0.236 1.014 0.236 1.625v6.43h-2.432v-6.43c0-0.643-0.141-1.126-0.423-1.447-0.282-0.328-0.696-0.492-1.241-0.492-0.249 0-0.482 0.043-0.699 0.128-0.21 0.085-0.397 0.21-0.561 0.374-0.158 0.158-0.282 0.358-0.374 0.601s-0.138 0.522-0.138 0.837v6.43h-2.442v-6.43c0-0.676-0.138-1.168-0.414-1.477-0.269-0.309-0.666-0.463-1.191-0.463-0.354 0-0.686 0.089-0.994 0.266-0.302 0.171-0.584 0.407-0.847 0.709v7.394h-2.432zM71.403 23.385v-10.102h1.487c0.315 0 0.522 0.148 0.62 0.443l0.158 0.748c0.177-0.197 0.361-0.377 0.551-0.542 0.197-0.164 0.404-0.305 0.62-0.423 0.223-0.118 0.459-0.21 0.709-0.276 0.256-0.072 0.535-0.108 0.837-0.108 0.637 0 1.159 0.174 1.566 0.522 0.414 0.341 0.722 0.798 0.926 1.369 0.158-0.335 0.354-0.62 0.591-0.857 0.236-0.243 0.496-0.44 0.778-0.591s0.581-0.263 0.896-0.335c0.322-0.072 0.643-0.108 0.965-0.108 0.558 0 1.054 0.085 1.487 0.256s0.798 0.42 1.093 0.748c0.295 0.328 0.519 0.729 0.67 1.201 0.158 0.473 0.236 1.014 0.236 1.625v6.43h-2.432v-6.43c0-0.643-0.141-1.126-0.423-1.447-0.282-0.328-0.696-0.492-1.241-0.492-0.249 0-0.482 0.043-0.699 0.128-0.21 0.085-0.397 0.21-0.561 0.374-0.158 0.158-0.282 0.358-0.374 0.601s-0.138 0.522-0.138 0.837v6.43h-2.442v-6.43c0-0.676-0.138-1.168-0.414-1.477-0.269-0.309-0.666-0.463-1.191-0.463-0.354 0-0.686 0.089-0.994 0.266-0.302 0.171-0.584 0.407-0.847 0.709v7.394h-2.432zM96.607 13.282v10.102h-1.487c-0.322 0-0.525-0.148-0.61-0.443l-0.167-0.807c-0.414 0.42-0.87 0.761-1.369 1.024-0.499 0.256-1.086 0.384-1.762 0.384-0.551 0-1.040-0.092-1.467-0.276-0.42-0.19-0.775-0.456-1.063-0.798s-0.509-0.745-0.66-1.211c-0.144-0.473-0.217-0.991-0.217-1.556v-6.42h2.432v6.42c0 0.617 0.141 1.096 0.423 1.438 0.289 0.335 0.719 0.502 1.29 0.502 0.42 0 0.814-0.092 1.182-0.276 0.368-0.19 0.715-0.45 1.044-0.778v-7.306h2.432zM101.293 14.523c0.203-0.203 0.417-0.391 0.64-0.561 0.23-0.177 0.469-0.325 0.719-0.443 0.256-0.125 0.528-0.22 0.817-0.286 0.289-0.072 0.604-0.108 0.945-0.108 0.551 0 1.040 0.095 1.467 0.286 0.427 0.184 0.781 0.446 1.063 0.788 0.289 0.335 0.505 0.738 0.65 1.211 0.151 0.466 0.226 0.981 0.226 1.546v6.43h-2.432v-6.43c0-0.617-0.141-1.093-0.423-1.428-0.282-0.341-0.712-0.512-1.29-0.512-0.42 0-0.814 0.095-1.182 0.286s-0.716 0.45-1.044 0.778v7.306h-2.432v-10.102h1.487c0.315 0 0.522 0.148 0.62 0.443l0.167 0.798zM112.655 13.282v10.102h-2.442v-10.102h2.442zM112.989 10.338c0 0.21-0.043 0.407-0.128 0.591s-0.2 0.345-0.345 0.482c-0.138 0.138-0.302 0.249-0.492 0.335-0.19 0.079-0.394 0.118-0.61 0.118-0.21 0-0.41-0.039-0.601-0.118-0.184-0.085-0.345-0.197-0.482-0.335s-0.249-0.299-0.335-0.482c-0.079-0.184-0.118-0.381-0.118-0.591 0-0.217 0.039-0.42 0.118-0.61 0.085-0.19 0.197-0.354 0.335-0.492s0.299-0.246 0.482-0.325c0.19-0.085 0.391-0.128 0.601-0.128 0.217 0 0.42 0.043 0.61 0.128 0.19 0.079 0.354 0.187 0.492 0.325 0.144 0.138 0.259 0.302 0.345 0.492s0.128 0.394 0.128 0.61zM118.501 23.542c-0.88 0-1.556-0.246-2.028-0.738-0.466-0.499-0.699-1.185-0.699-2.058v-5.642h-1.034c-0.131 0-0.243-0.043-0.335-0.128s-0.138-0.213-0.138-0.384v-0.965l1.625-0.266 0.512-2.757c0.033-0.131 0.095-0.233 0.187-0.305s0.21-0.108 0.354-0.108h1.26v3.18h2.698v1.733h-2.698v5.474c0 0.315 0.075 0.561 0.226 0.738 0.158 0.177 0.371 0.266 0.64 0.266 0.151 0 0.276-0.016 0.374-0.049 0.105-0.039 0.194-0.079 0.266-0.118 0.079-0.039 0.148-0.075 0.207-0.108 0.059-0.039 0.118-0.059 0.177-0.059 0.072 0 0.131 0.020 0.177 0.059 0.046 0.033 0.095 0.085 0.148 0.158l0.729 1.182c-0.354 0.295-0.761 0.519-1.221 0.67s-0.935 0.226-1.428 0.226zM131.637 13.282l-5.504 12.879c-0.071 0.171-0.167 0.299-0.286 0.384-0.111 0.092-0.286 0.138-0.522 0.138h-1.812l1.89-4.057-4.086-9.344h2.136c0.191 0 0.338 0.046 0.443 0.138 0.112 0.092 0.194 0.197 0.246 0.315l2.146 5.238c0.073 0.177 0.132 0.354 0.177 0.532 0.053 0.177 0.102 0.358 0.148 0.542 0.059-0.184 0.118-0.364 0.177-0.542 0.059-0.184 0.126-0.364 0.197-0.542l2.028-5.228c0.053-0.131 0.138-0.24 0.256-0.325 0.126-0.085 0.263-0.128 0.414-0.128h1.95z"></path>
        </symbol>
        <symbol id="icon-feedback-support" viewBox="0 0 208 32">
            <path d="M11.637 8.821c-0.114 0-0.221 0.061-0.278 0.16l-0.005 0.009-3.763 6.101v8.090h7.045c0.151 0 0.282-0.105 0.315-0.252l0.003-0.013 2.092-8.172c0.038-0.198-0.113-0.383-0.317-0.383h-3.189c-0.534 0-1.075-0.178-1.469-0.563-0.414-0.404-0.606-0.982-0.483-1.605l0.59-2.986c0.039-0.199-0.113-0.385-0.316-0.385h-0.225zM5.949 23.18v-7.502h-2.907c-0.177 0-0.321 0.143-0.322 0.32 0 0 0 0 0 0l-0.052 6.857c-0.001 0.179 0.143 0.325 0.322 0.325h2.96zM6.311 14.037l3.635-5.893c0.353-0.597 0.995-0.964 1.69-0.964h0.225c1.237 0 2.166 1.13 1.926 2.344l-0.59 2.985c-0.011 0.053-0.004 0.077-0.002 0.083s0.006 0.016 0.021 0.031c0.034 0.033 0.136 0.096 0.322 0.096h3.189c1.256 0 2.189 1.163 1.917 2.389l-0.003 0.013-2.094 8.177c-0.205 0.891-0.998 1.523-1.913 1.523h-11.646c-1.090 0-1.972-0.888-1.963-1.978 0 0 0 0 0 0l0.052-6.857c0.008-1.078 0.885-1.948 1.963-1.948h3.27z"></path>
            <path d="M34.205 11.254v4.214h5.337v2.117h-5.337v5.799h-2.658v-14.238h8.98v2.107h-6.321zM47.94 17.172c0-0.315-0.046-0.61-0.138-0.886-0.085-0.282-0.217-0.528-0.394-0.738s-0.404-0.374-0.679-0.492c-0.269-0.125-0.584-0.187-0.945-0.187-0.702 0-1.257 0.2-1.664 0.601-0.4 0.4-0.656 0.968-0.768 1.703h4.588zM43.303 18.639c0.039 0.519 0.131 0.968 0.276 1.349 0.144 0.374 0.335 0.686 0.571 0.935 0.236 0.243 0.515 0.427 0.837 0.551 0.328 0.118 0.689 0.177 1.083 0.177s0.732-0.046 1.014-0.138c0.289-0.092 0.538-0.194 0.748-0.305 0.217-0.112 0.404-0.213 0.561-0.305 0.164-0.092 0.322-0.138 0.473-0.138 0.203 0 0.354 0.075 0.453 0.226l0.699 0.886c-0.269 0.315-0.571 0.581-0.906 0.798-0.335 0.21-0.686 0.381-1.054 0.512-0.361 0.125-0.732 0.213-1.113 0.266-0.374 0.053-0.738 0.079-1.093 0.079-0.702 0-1.355-0.115-1.959-0.345-0.604-0.236-1.129-0.581-1.575-1.034-0.446-0.459-0.798-1.024-1.054-1.694-0.256-0.676-0.384-1.457-0.384-2.343 0-0.689 0.112-1.336 0.335-1.94 0.223-0.61 0.542-1.139 0.955-1.585 0.42-0.453 0.929-0.811 1.526-1.073 0.604-0.263 1.283-0.394 2.038-0.394 0.637 0 1.224 0.102 1.762 0.305s1.001 0.502 1.388 0.896c0.387 0.387 0.689 0.866 0.906 1.438 0.223 0.565 0.335 1.211 0.335 1.94 0 0.368-0.039 0.617-0.118 0.748-0.079 0.125-0.23 0.187-0.453 0.187h-6.252zM58.46 17.172c0-0.315-0.046-0.61-0.138-0.886-0.085-0.282-0.217-0.528-0.394-0.738s-0.404-0.374-0.679-0.492c-0.269-0.125-0.584-0.187-0.945-0.187-0.702 0-1.257 0.2-1.664 0.601-0.401 0.4-0.657 0.968-0.768 1.703h4.588zM53.822 18.639c0.039 0.519 0.131 0.968 0.276 1.349 0.144 0.374 0.335 0.686 0.571 0.935 0.236 0.243 0.515 0.427 0.837 0.551 0.328 0.118 0.689 0.177 1.083 0.177s0.732-0.046 1.014-0.138c0.289-0.092 0.538-0.194 0.748-0.305 0.217-0.112 0.404-0.213 0.561-0.305 0.164-0.092 0.322-0.138 0.473-0.138 0.203 0 0.354 0.075 0.453 0.226l0.699 0.886c-0.269 0.315-0.571 0.581-0.906 0.798-0.335 0.21-0.686 0.381-1.054 0.512-0.361 0.125-0.732 0.213-1.113 0.266-0.374 0.053-0.738 0.079-1.093 0.079-0.702 0-1.356-0.115-1.959-0.345-0.604-0.236-1.129-0.581-1.575-1.034-0.446-0.459-0.798-1.024-1.054-1.694-0.256-0.676-0.384-1.457-0.384-2.343 0-0.689 0.111-1.336 0.335-1.94 0.223-0.61 0.542-1.139 0.955-1.585 0.42-0.453 0.929-0.811 1.526-1.073 0.604-0.263 1.283-0.394 2.038-0.394 0.637 0 1.224 0.102 1.762 0.305s1.001 0.502 1.388 0.896c0.387 0.387 0.689 0.866 0.906 1.438 0.223 0.565 0.335 1.211 0.335 1.94 0 0.368-0.039 0.617-0.118 0.748-0.079 0.125-0.23 0.187-0.453 0.187h-6.252zM68.811 15.862c-0.276-0.335-0.578-0.571-0.906-0.709-0.322-0.138-0.67-0.207-1.044-0.207-0.368 0-0.699 0.069-0.994 0.207s-0.548 0.348-0.758 0.63c-0.21 0.276-0.371 0.63-0.482 1.063-0.112 0.427-0.167 0.932-0.167 1.516 0 0.591 0.046 1.093 0.138 1.506 0.098 0.407 0.236 0.742 0.414 1.004 0.177 0.256 0.394 0.443 0.65 0.561 0.256 0.112 0.542 0.167 0.857 0.167 0.505 0 0.935-0.105 1.29-0.315s0.689-0.509 1.004-0.896v-4.529zM71.243 8.753v14.631h-1.487c-0.322 0-0.525-0.148-0.61-0.443l-0.207-0.975c-0.407 0.466-0.876 0.843-1.408 1.132-0.525 0.289-1.139 0.433-1.841 0.433-0.551 0-1.057-0.115-1.516-0.345s-0.857-0.561-1.191-0.994c-0.328-0.44-0.584-0.981-0.768-1.625-0.177-0.643-0.266-1.378-0.266-2.206 0-0.748 0.102-1.444 0.305-2.087s0.495-1.201 0.876-1.674c0.381-0.473 0.837-0.84 1.369-1.103 0.532-0.269 1.129-0.404 1.792-0.404 0.564 0 1.047 0.089 1.447 0.266s0.758 0.417 1.073 0.719v-5.327h2.432zM76.076 20.766c0.276 0.335 0.574 0.571 0.896 0.709 0.328 0.138 0.673 0.207 1.034 0.207 0.374 0 0.709-0.066 1.004-0.197 0.302-0.138 0.558-0.348 0.768-0.63 0.21-0.289 0.371-0.653 0.482-1.093 0.112-0.446 0.167-0.978 0.167-1.595 0-1.109-0.184-1.91-0.551-2.402-0.368-0.499-0.896-0.748-1.585-0.748-0.466 0-0.873 0.108-1.221 0.325-0.348 0.21-0.679 0.509-0.994 0.896v4.529zM76.076 14.523c0.407-0.427 0.857-0.765 1.349-1.014 0.499-0.256 1.067-0.384 1.703-0.384 0.584 0 1.109 0.115 1.575 0.345 0.473 0.23 0.873 0.561 1.201 0.994 0.335 0.427 0.591 0.945 0.768 1.556s0.266 1.296 0.266 2.058c0 0.821-0.102 1.566-0.305 2.235s-0.496 1.244-0.876 1.723c-0.374 0.473-0.827 0.84-1.359 1.103s-1.122 0.394-1.772 0.394c-0.315 0-0.601-0.033-0.857-0.098-0.256-0.059-0.492-0.144-0.709-0.256s-0.417-0.246-0.601-0.404c-0.177-0.164-0.348-0.345-0.512-0.542l-0.108 0.679c-0.039 0.171-0.108 0.292-0.207 0.364-0.092 0.072-0.22 0.108-0.384 0.108h-1.605v-14.631h2.432v5.77zM90.153 19.072c-0.702 0.033-1.293 0.095-1.772 0.187-0.479 0.085-0.863 0.197-1.152 0.335s-0.496 0.299-0.62 0.482c-0.125 0.184-0.187 0.384-0.187 0.601 0 0.427 0.125 0.732 0.374 0.916 0.256 0.184 0.587 0.276 0.994 0.276 0.499 0 0.929-0.089 1.29-0.266 0.368-0.184 0.725-0.459 1.073-0.827v-1.703zM84.58 14.69c1.162-1.063 2.56-1.595 4.194-1.595 0.591 0 1.119 0.098 1.585 0.295 0.466 0.19 0.86 0.459 1.182 0.807 0.322 0.341 0.565 0.752 0.729 1.231 0.171 0.479 0.256 1.004 0.256 1.575v6.38h-1.103c-0.23 0-0.407-0.033-0.532-0.098-0.125-0.072-0.223-0.213-0.295-0.423l-0.217-0.729c-0.256 0.23-0.505 0.433-0.748 0.61-0.243 0.171-0.496 0.315-0.758 0.433s-0.545 0.207-0.847 0.266c-0.295 0.066-0.624 0.098-0.985 0.098-0.427 0-0.821-0.056-1.182-0.167-0.361-0.118-0.673-0.292-0.935-0.522s-0.466-0.515-0.61-0.857c-0.144-0.341-0.217-0.738-0.217-1.191 0-0.256 0.043-0.509 0.128-0.758 0.085-0.256 0.223-0.499 0.414-0.729 0.197-0.23 0.45-0.446 0.758-0.65s0.686-0.381 1.132-0.532c0.453-0.151 0.978-0.272 1.575-0.364 0.597-0.098 1.28-0.158 2.048-0.177v-0.591c0-0.676-0.144-1.175-0.433-1.497-0.289-0.328-0.706-0.492-1.25-0.492-0.394 0-0.722 0.046-0.985 0.138-0.256 0.092-0.482 0.197-0.679 0.315-0.197 0.112-0.377 0.213-0.542 0.305-0.158 0.092-0.335 0.138-0.532 0.138-0.171 0-0.315-0.043-0.433-0.128-0.118-0.092-0.213-0.197-0.286-0.315l-0.433-0.778zM102.054 15.419c-0.072 0.092-0.144 0.164-0.217 0.217-0.066 0.053-0.164 0.079-0.295 0.079-0.125 0-0.246-0.036-0.364-0.108-0.118-0.079-0.259-0.164-0.423-0.256-0.164-0.098-0.361-0.184-0.591-0.256-0.223-0.079-0.502-0.118-0.837-0.118-0.427 0-0.801 0.079-1.122 0.236-0.322 0.151-0.591 0.371-0.807 0.66-0.21 0.289-0.368 0.64-0.473 1.054-0.105 0.407-0.158 0.87-0.158 1.388 0 0.538 0.056 1.017 0.167 1.438 0.118 0.42 0.286 0.775 0.502 1.063 0.217 0.282 0.479 0.499 0.788 0.65 0.309 0.144 0.656 0.217 1.044 0.217s0.699-0.046 0.935-0.138c0.243-0.098 0.446-0.203 0.61-0.315 0.164-0.118 0.305-0.223 0.423-0.315 0.125-0.098 0.263-0.148 0.414-0.148 0.197 0 0.345 0.075 0.443 0.226l0.699 0.886c-0.269 0.315-0.561 0.581-0.876 0.798-0.315 0.21-0.643 0.381-0.985 0.512-0.335 0.125-0.683 0.213-1.044 0.266-0.354 0.053-0.709 0.079-1.063 0.079-0.624 0-1.211-0.115-1.762-0.345-0.551-0.236-1.034-0.578-1.447-1.024s-0.742-0.991-0.985-1.634c-0.236-0.65-0.354-1.388-0.354-2.215 0-0.742 0.105-1.428 0.315-2.058 0.217-0.637 0.532-1.185 0.945-1.644 0.414-0.466 0.926-0.83 1.536-1.093s1.313-0.394 2.107-0.394c0.755 0 1.415 0.121 1.979 0.364 0.571 0.243 1.083 0.591 1.536 1.044l-0.64 0.886zM106.749 8.753v8.379h0.453c0.164 0 0.292-0.020 0.384-0.059 0.098-0.046 0.197-0.135 0.295-0.266l2.511-3.102c0.105-0.138 0.22-0.243 0.345-0.315 0.131-0.072 0.299-0.108 0.502-0.108h2.225l-3.141 3.751c-0.223 0.295-0.466 0.522-0.729 0.679 0.138 0.098 0.259 0.213 0.364 0.345 0.112 0.131 0.217 0.272 0.315 0.423l3.367 4.903h-2.196c-0.19 0-0.354-0.030-0.492-0.089-0.138-0.066-0.253-0.181-0.345-0.345l-2.58-3.83c-0.092-0.151-0.187-0.249-0.286-0.295s-0.246-0.069-0.443-0.069h-0.551v4.628h-2.432v-14.631h2.432zM123.13 16.729c-0.525 0.341-0.909 0.729-1.152 1.162-0.236 0.427-0.354 0.886-0.354 1.378 0 0.361 0.062 0.686 0.187 0.975s0.292 0.535 0.502 0.738c0.217 0.197 0.466 0.351 0.748 0.463 0.288 0.105 0.593 0.158 0.916 0.158 0.577 0 1.105-0.089 1.585-0.266 0.479-0.184 0.912-0.437 1.3-0.758l-3.732-3.85zM132.612 23.385h-2.383c-0.25 0-0.453-0.030-0.61-0.089-0.151-0.059-0.313-0.184-0.482-0.374l-0.985-1.014c-0.624 0.512-1.323 0.912-2.097 1.201-0.775 0.289-1.612 0.433-2.511 0.433-0.545 0-1.083-0.092-1.615-0.276-0.525-0.19-0.994-0.463-1.408-0.817s-0.748-0.781-1.004-1.28c-0.249-0.505-0.374-1.073-0.374-1.703 0-0.446 0.072-0.866 0.217-1.26 0.144-0.4 0.345-0.771 0.601-1.113s0.561-0.647 0.916-0.916c0.354-0.276 0.742-0.512 1.162-0.709-0.354-0.492-0.61-0.971-0.768-1.438-0.158-0.473-0.236-0.942-0.236-1.408 0-0.492 0.089-0.958 0.266-1.398 0.184-0.446 0.446-0.834 0.788-1.162s0.761-0.587 1.261-0.778c0.498-0.197 1.063-0.295 1.694-0.295 0.577 0 1.093 0.089 1.546 0.266 0.459 0.177 0.849 0.414 1.172 0.709 0.327 0.295 0.583 0.633 0.768 1.014 0.19 0.381 0.302 0.775 0.335 1.182l-1.546 0.325c-0.289 0.059-0.5-0.066-0.63-0.374-0.059-0.171-0.138-0.331-0.236-0.482-0.092-0.158-0.204-0.292-0.335-0.404-0.132-0.118-0.286-0.21-0.463-0.276-0.177-0.072-0.382-0.108-0.61-0.108-0.276 0-0.522 0.049-0.738 0.148-0.217 0.092-0.401 0.22-0.551 0.384-0.145 0.158-0.256 0.345-0.335 0.561-0.079 0.21-0.118 0.433-0.118 0.67 0 0.197 0.020 0.387 0.059 0.571s0.105 0.368 0.197 0.551c0.091 0.184 0.209 0.374 0.354 0.571 0.15 0.19 0.335 0.397 0.551 0.62l3.781 3.929c0.217-0.414 0.39-0.85 0.522-1.31 0.13-0.459 0.217-0.926 0.256-1.398 0.020-0.151 0.071-0.272 0.158-0.364 0.085-0.092 0.203-0.138 0.354-0.138h1.516c-0.007 0.866-0.132 1.694-0.374 2.481-0.244 0.788-0.591 1.513-1.044 2.176l2.983 3.092zM146.629 11.737c-0.079 0.138-0.165 0.24-0.256 0.305-0.086 0.059-0.194 0.089-0.325 0.089-0.138 0-0.289-0.049-0.453-0.148-0.158-0.105-0.348-0.22-0.571-0.345-0.224-0.125-0.486-0.236-0.788-0.335-0.295-0.105-0.647-0.158-1.054-0.158-0.368 0-0.689 0.046-0.965 0.138-0.276 0.085-0.51 0.207-0.699 0.364-0.185 0.158-0.322 0.348-0.414 0.571-0.092 0.217-0.138 0.456-0.138 0.719 0 0.335 0.091 0.614 0.276 0.837 0.19 0.223 0.439 0.414 0.748 0.571 0.308 0.158 0.66 0.299 1.054 0.423s0.798 0.259 1.211 0.404c0.414 0.138 0.817 0.302 1.211 0.492 0.394 0.184 0.745 0.42 1.054 0.709 0.308 0.282 0.554 0.63 0.738 1.044 0.19 0.414 0.286 0.916 0.286 1.506 0 0.643-0.112 1.247-0.335 1.812-0.217 0.558-0.539 1.047-0.965 1.467-0.421 0.414-0.935 0.742-1.546 0.985-0.61 0.236-1.31 0.354-2.097 0.354-0.453 0-0.9-0.046-1.339-0.138-0.441-0.085-0.864-0.21-1.271-0.374-0.4-0.164-0.777-0.361-1.131-0.591s-0.67-0.486-0.945-0.768l0.778-1.27c0.065-0.092 0.15-0.167 0.256-0.226 0.105-0.066 0.217-0.098 0.335-0.098 0.164 0 0.341 0.069 0.532 0.207 0.19 0.131 0.416 0.279 0.679 0.443 0.262 0.164 0.567 0.315 0.916 0.453 0.354 0.131 0.778 0.197 1.27 0.197 0.754 0 1.339-0.177 1.753-0.532 0.414-0.361 0.62-0.876 0.62-1.546 0-0.374-0.096-0.679-0.286-0.916-0.185-0.236-0.431-0.433-0.738-0.591-0.309-0.164-0.66-0.302-1.054-0.414s-0.795-0.233-1.201-0.364c-0.407-0.131-0.807-0.289-1.201-0.473s-0.746-0.423-1.054-0.719c-0.309-0.295-0.559-0.663-0.748-1.103-0.185-0.446-0.276-0.994-0.276-1.644 0-0.519 0.101-1.024 0.305-1.516 0.209-0.492 0.512-0.929 0.906-1.31s0.879-0.686 1.457-0.916c0.577-0.23 1.241-0.345 1.989-0.345 0.839 0 1.615 0.131 2.324 0.394s1.312 0.63 1.812 1.103l-0.66 1.25zM158.001 13.282v10.102h-1.487c-0.321 0-0.526-0.148-0.61-0.443l-0.167-0.807c-0.414 0.42-0.87 0.761-1.369 1.024-0.498 0.256-1.087 0.384-1.762 0.384-0.551 0-1.040-0.092-1.467-0.276-0.42-0.19-0.774-0.456-1.063-0.798s-0.508-0.745-0.66-1.211c-0.144-0.473-0.217-0.991-0.217-1.556v-6.42h2.432v6.42c0 0.617 0.142 1.096 0.423 1.438 0.289 0.335 0.719 0.502 1.29 0.502 0.42 0 0.814-0.092 1.182-0.276 0.368-0.19 0.715-0.45 1.044-0.778v-7.306h2.432zM162.844 20.766c0.276 0.335 0.575 0.571 0.896 0.709 0.329 0.138 0.683 0.207 1.063 0.207 0.368 0 0.699-0.069 0.994-0.207s0.545-0.348 0.748-0.63c0.21-0.282 0.372-0.637 0.482-1.063 0.112-0.433 0.167-0.942 0.167-1.526 0-0.591-0.049-1.090-0.148-1.497-0.091-0.414-0.226-0.748-0.404-1.004s-0.394-0.443-0.65-0.561c-0.249-0.118-0.534-0.177-0.857-0.177-0.505 0-0.935 0.108-1.29 0.325-0.354 0.21-0.689 0.509-1.004 0.896v4.529zM162.716 14.661c0.414-0.466 0.884-0.843 1.408-1.132 0.526-0.289 1.142-0.433 1.851-0.433 0.551 0 1.054 0.115 1.506 0.345 0.46 0.23 0.854 0.565 1.182 1.004 0.335 0.433 0.591 0.971 0.768 1.615 0.185 0.637 0.276 1.369 0.276 2.196 0 0.755-0.101 1.454-0.305 2.097-0.203 0.643-0.495 1.201-0.876 1.674-0.374 0.473-0.83 0.843-1.369 1.113-0.532 0.263-1.129 0.394-1.792 0.394-0.564 0-1.046-0.085-1.447-0.256-0.4-0.177-0.758-0.42-1.073-0.729v4.135h-2.432v-13.401h1.487c0.315 0 0.522 0.148 0.62 0.443l0.197 0.935zM174.037 20.766c0.276 0.335 0.575 0.571 0.896 0.709 0.329 0.138 0.683 0.207 1.063 0.207 0.368 0 0.699-0.069 0.994-0.207s0.545-0.348 0.748-0.63c0.21-0.282 0.37-0.637 0.482-1.063 0.112-0.433 0.167-0.942 0.167-1.526 0-0.591-0.049-1.090-0.148-1.497-0.092-0.414-0.226-0.748-0.404-1.004s-0.394-0.443-0.65-0.561c-0.25-0.118-0.535-0.177-0.857-0.177-0.506 0-0.935 0.108-1.29 0.325-0.354 0.21-0.689 0.509-1.004 0.896v4.529zM173.909 14.661c0.414-0.466 0.882-0.843 1.408-1.132s1.142-0.433 1.851-0.433c0.551 0 1.054 0.115 1.506 0.345 0.459 0.23 0.853 0.565 1.182 1.004 0.335 0.433 0.591 0.971 0.768 1.615 0.183 0.637 0.276 1.369 0.276 2.196 0 0.755-0.102 1.454-0.305 2.097s-0.496 1.201-0.876 1.674c-0.374 0.473-0.831 0.843-1.369 1.113-0.532 0.263-1.129 0.394-1.792 0.394-0.565 0-1.047-0.085-1.447-0.256-0.4-0.177-0.758-0.42-1.073-0.729v4.135h-2.432v-13.401h1.487c0.315 0 0.522 0.148 0.62 0.443l0.197 0.935zM187.268 13.125c0.748 0 1.428 0.121 2.038 0.364 0.617 0.243 1.142 0.587 1.575 1.034 0.439 0.446 0.778 0.991 1.014 1.634s0.354 1.362 0.354 2.156c0 0.801-0.118 1.523-0.354 2.166s-0.575 1.191-1.014 1.644c-0.433 0.453-0.959 0.801-1.575 1.044-0.61 0.243-1.29 0.364-2.038 0.364-0.754 0-1.441-0.121-2.058-0.364s-1.146-0.591-1.585-1.044c-0.433-0.453-0.772-1.001-1.014-1.644-0.236-0.643-0.354-1.365-0.354-2.166 0-0.794 0.118-1.513 0.354-2.156 0.242-0.643 0.581-1.188 1.014-1.634 0.439-0.446 0.969-0.791 1.585-1.034s1.303-0.364 2.058-0.364zM187.268 21.662c0.841 0 1.461-0.282 1.861-0.847 0.407-0.565 0.61-1.392 0.61-2.481s-0.203-1.92-0.61-2.491c-0.4-0.571-1.020-0.857-1.861-0.857-0.853 0-1.487 0.289-1.9 0.866-0.407 0.571-0.61 1.398-0.61 2.481s0.203 1.91 0.61 2.481c0.414 0.565 1.047 0.847 1.9 0.847zM196.399 15.035c0.315-0.604 0.689-1.077 1.122-1.418 0.433-0.348 0.945-0.522 1.536-0.522 0.466 0 0.841 0.102 1.122 0.305l-0.158 1.822c-0.032 0.118-0.081 0.203-0.148 0.256-0.059 0.046-0.14 0.069-0.246 0.069-0.098 0-0.246-0.016-0.443-0.049-0.19-0.033-0.377-0.049-0.561-0.049-0.268 0-0.508 0.039-0.719 0.118-0.209 0.079-0.4 0.194-0.571 0.345-0.164 0.144-0.311 0.322-0.443 0.532-0.124 0.21-0.242 0.45-0.354 0.719v6.223h-2.432v-10.102h1.428c0.25 0 0.423 0.046 0.522 0.138 0.098 0.085 0.165 0.243 0.197 0.473l0.148 1.142zM204.818 23.542c-0.88 0-1.556-0.246-2.028-0.738-0.466-0.499-0.699-1.185-0.699-2.058v-5.642h-1.034c-0.132 0-0.242-0.043-0.335-0.128s-0.138-0.213-0.138-0.384v-0.965l1.625-0.266 0.512-2.757c0.033-0.131 0.095-0.233 0.187-0.305s0.21-0.108 0.354-0.108h1.26v3.18h2.698v1.733h-2.698v5.474c0 0.315 0.075 0.561 0.226 0.738 0.158 0.177 0.37 0.266 0.64 0.266 0.151 0 0.276-0.016 0.374-0.049 0.105-0.039 0.193-0.079 0.266-0.118 0.079-0.039 0.148-0.075 0.207-0.108 0.059-0.039 0.118-0.059 0.177-0.059 0.073 0 0.132 0.020 0.177 0.059 0.046 0.033 0.095 0.085 0.148 0.158l0.729 1.182c-0.354 0.295-0.762 0.519-1.221 0.67s-0.935 0.226-1.428 0.226z"></path>
        </symbol>
        <symbol id="icon-onlinelibrary" viewBox="0 0 203 32">
            <path d="M9.479 7.060c0.231-0.115 0.503-0.115 0.734 0l8.205 4.103c0.278 0.139 0.454 0.423 0.454 0.734s-0.176 0.595-0.454 0.734l-8.205 4.103c-0.231 0.116-0.503 0.116-0.734 0l-8.205-4.103c-0.278-0.139-0.454-0.423-0.454-0.734s0.176-0.595 0.454-0.734l8.205-4.103zM3.476 11.897l6.37 3.185 6.37-3.185-6.37-3.185-6.37 3.185z"></path>
            <path d="M0.907 15.632c0.203-0.405 0.696-0.57 1.101-0.367l7.838 3.919 7.838-3.919c0.405-0.203 0.898-0.038 1.101 0.367s0.038 0.898-0.367 1.101l-8.205 4.103c-0.231 0.115-0.503 0.115-0.734 0l-8.205-4.103c-0.405-0.203-0.57-0.695-0.367-1.101z"></path>
            <path d="M0.907 19.735c0.203-0.405 0.696-0.57 1.101-0.367l7.838 3.919 7.838-3.919c0.405-0.203 0.898-0.038 1.101 0.367s0.038 0.898-0.367 1.101l-8.205 4.103c-0.231 0.115-0.503 0.115-0.734 0l-8.205-4.103c-0.405-0.203-0.57-0.695-0.367-1.101z"></path>
            <path d="M39.601 21.12c0.263 0 0.469 0.075 0.62 0.226 0.158 0.144 0.236 0.338 0.236 0.581v1.457h-9.767v-0.807c0-0.164 0.033-0.335 0.098-0.512 0.072-0.184 0.184-0.348 0.335-0.492l4.322-4.332c0.361-0.368 0.683-0.719 0.965-1.054 0.289-0.335 0.529-0.666 0.719-0.994s0.335-0.66 0.433-0.994c0.105-0.341 0.158-0.699 0.158-1.073 0-0.341-0.049-0.64-0.148-0.896-0.098-0.263-0.239-0.482-0.423-0.66-0.177-0.177-0.394-0.309-0.65-0.394-0.249-0.092-0.532-0.138-0.847-0.138-0.289 0-0.558 0.043-0.807 0.128-0.243 0.079-0.459 0.194-0.65 0.345-0.19 0.144-0.351 0.315-0.482 0.512s-0.23 0.414-0.295 0.65c-0.111 0.302-0.256 0.502-0.433 0.601s-0.433 0.121-0.768 0.069l-1.28-0.226c0.098-0.683 0.289-1.28 0.571-1.792 0.282-0.519 0.633-0.949 1.054-1.29 0.427-0.348 0.913-0.607 1.457-0.778 0.551-0.177 1.142-0.266 1.772-0.266 0.657 0 1.257 0.098 1.802 0.295 0.545 0.19 1.011 0.463 1.398 0.817s0.689 0.781 0.906 1.28 0.325 1.054 0.325 1.664c0 0.525-0.079 1.011-0.236 1.457-0.151 0.446-0.358 0.873-0.62 1.28-0.256 0.407-0.558 0.801-0.906 1.182s-0.712 0.768-1.093 1.162l-3.21 3.279c0.309-0.092 0.614-0.161 0.916-0.207 0.309-0.053 0.601-0.079 0.876-0.079h3.653zM48.376 18.018v-4.657c0-0.44 0.030-0.926 0.089-1.457l-4.421 6.114h4.332zM52.285 18.018v1.408c0 0.131-0.043 0.246-0.128 0.345-0.085 0.092-0.207 0.138-0.364 0.138h-1.3v3.476h-2.117v-3.476h-6.006c-0.164 0-0.309-0.049-0.433-0.148-0.125-0.105-0.204-0.233-0.236-0.384l-0.256-1.231 6.745-9.009h2.304v8.881h1.792zM55.683 23.414c-0.111 0.302-0.292 0.528-0.542 0.679-0.243 0.151-0.492 0.226-0.748 0.226h-1.034l5.75-14.71c0.105-0.276 0.266-0.486 0.482-0.63 0.217-0.151 0.469-0.226 0.758-0.226h1.044l-5.711 14.661zM72.714 9.147v1.054c0 0.315-0.033 0.571-0.098 0.768-0.066 0.19-0.131 0.351-0.197 0.482l-5.396 11.106c-0.112 0.23-0.269 0.427-0.472 0.591-0.204 0.158-0.476 0.236-0.817 0.236h-1.762l5.504-10.88c0.125-0.223 0.246-0.427 0.364-0.61 0.125-0.19 0.263-0.371 0.414-0.542h-6.814c-0.151 0-0.282-0.056-0.394-0.167s-0.167-0.243-0.167-0.394v-1.644h9.836zM93.336 16.266c0 1.044-0.174 2.012-0.522 2.905-0.341 0.886-0.827 1.654-1.457 2.304s-1.388 1.159-2.274 1.526c-0.886 0.361-1.871 0.542-2.954 0.542-1.076 0-2.058-0.181-2.944-0.542-0.886-0.368-1.647-0.876-2.284-1.526-0.63-0.65-1.119-1.418-1.467-2.304-0.348-0.893-0.522-1.861-0.522-2.905s0.174-2.009 0.522-2.895c0.348-0.893 0.837-1.664 1.467-2.314 0.637-0.65 1.398-1.155 2.284-1.516 0.886-0.368 1.868-0.551 2.944-0.551 0.722 0 1.401 0.085 2.038 0.256 0.637 0.164 1.221 0.4 1.753 0.709 0.532 0.302 1.008 0.673 1.428 1.113 0.427 0.433 0.788 0.919 1.083 1.457s0.519 1.122 0.67 1.753c0.158 0.63 0.236 1.293 0.236 1.989zM90.628 16.266c0-0.781-0.105-1.48-0.315-2.097-0.21-0.624-0.509-1.152-0.896-1.585s-0.86-0.765-1.418-0.994c-0.551-0.23-1.175-0.345-1.871-0.345s-1.323 0.115-1.881 0.345c-0.551 0.23-1.024 0.561-1.418 0.994-0.387 0.433-0.686 0.962-0.896 1.585-0.21 0.617-0.315 1.316-0.315 2.097s0.105 1.483 0.315 2.107c0.21 0.617 0.509 1.142 0.896 1.575 0.394 0.427 0.866 0.755 1.418 0.985 0.558 0.23 1.185 0.345 1.881 0.345s1.319-0.115 1.871-0.345c0.558-0.23 1.031-0.558 1.418-0.985 0.387-0.433 0.686-0.958 0.896-1.575 0.21-0.624 0.315-1.326 0.315-2.107zM97.38 14.523c0.203-0.203 0.417-0.391 0.64-0.561 0.23-0.177 0.469-0.325 0.719-0.443 0.256-0.125 0.528-0.22 0.817-0.286 0.289-0.072 0.604-0.108 0.945-0.108 0.551 0 1.040 0.095 1.467 0.286 0.427 0.184 0.781 0.446 1.063 0.788 0.289 0.335 0.505 0.738 0.65 1.211 0.151 0.466 0.226 0.981 0.226 1.546v6.43h-2.432v-6.43c0-0.617-0.141-1.093-0.423-1.428-0.282-0.341-0.712-0.512-1.29-0.512-0.42 0-0.814 0.095-1.182 0.286s-0.716 0.45-1.044 0.778v7.306h-2.432v-10.102h1.487c0.315 0 0.522 0.148 0.62 0.443l0.167 0.798zM108.682 8.753v14.631h-2.432v-14.631h2.432zM113.626 13.282v10.102h-2.442v-10.102h2.442zM113.96 10.338c0 0.21-0.043 0.407-0.128 0.591s-0.2 0.345-0.345 0.482c-0.138 0.138-0.302 0.249-0.492 0.335-0.19 0.079-0.394 0.118-0.61 0.118-0.21 0-0.41-0.039-0.601-0.118-0.184-0.085-0.345-0.197-0.482-0.335s-0.249-0.299-0.335-0.482c-0.079-0.184-0.118-0.381-0.118-0.591 0-0.217 0.039-0.42 0.118-0.61 0.085-0.19 0.197-0.354 0.335-0.492s0.299-0.246 0.482-0.325c0.19-0.085 0.391-0.128 0.601-0.128 0.217 0 0.42 0.043 0.61 0.128 0.19 0.079 0.354 0.187 0.492 0.325 0.144 0.138 0.259 0.302 0.345 0.492s0.128 0.394 0.128 0.61zM118.38 14.523c0.203-0.203 0.417-0.391 0.64-0.561 0.23-0.177 0.469-0.325 0.719-0.443 0.256-0.125 0.528-0.22 0.817-0.286 0.289-0.072 0.604-0.108 0.945-0.108 0.551 0 1.040 0.095 1.467 0.286 0.427 0.184 0.781 0.446 1.063 0.788 0.289 0.335 0.506 0.738 0.65 1.211 0.151 0.466 0.226 0.981 0.226 1.546v6.43h-2.431v-6.43c0-0.617-0.141-1.093-0.423-1.428-0.282-0.341-0.712-0.512-1.29-0.512-0.42 0-0.814 0.095-1.182 0.286s-0.716 0.45-1.044 0.778v7.306h-2.432v-10.102h1.487c0.315 0 0.522 0.148 0.62 0.443l0.167 0.798zM133.729 17.172c0-0.315-0.047-0.61-0.138-0.886-0.086-0.282-0.217-0.528-0.394-0.738s-0.404-0.374-0.679-0.492c-0.27-0.125-0.585-0.187-0.945-0.187-0.703 0-1.258 0.2-1.664 0.601-0.401 0.4-0.657 0.968-0.768 1.703h4.588zM129.092 18.639c0.039 0.519 0.13 0.968 0.276 1.349 0.144 0.374 0.335 0.686 0.571 0.935 0.236 0.243 0.514 0.427 0.837 0.551 0.327 0.118 0.689 0.177 1.083 0.177s0.731-0.046 1.014-0.138c0.288-0.092 0.538-0.194 0.748-0.305 0.217-0.112 0.404-0.213 0.561-0.305 0.164-0.092 0.321-0.138 0.473-0.138 0.203 0 0.354 0.075 0.453 0.226l0.699 0.886c-0.27 0.315-0.571 0.581-0.906 0.798-0.335 0.21-0.687 0.381-1.054 0.512-0.362 0.125-0.732 0.213-1.113 0.266-0.374 0.053-0.738 0.079-1.093 0.079-0.703 0-1.356-0.115-1.959-0.345-0.604-0.236-1.13-0.581-1.575-1.034-0.447-0.459-0.798-1.024-1.054-1.694-0.256-0.676-0.384-1.457-0.384-2.343 0-0.689 0.111-1.336 0.335-1.94 0.223-0.61 0.542-1.139 0.955-1.585 0.42-0.453 0.928-0.811 1.526-1.073 0.603-0.263 1.282-0.394 2.038-0.394 0.636 0 1.223 0.102 1.762 0.305 0.538 0.203 1.001 0.502 1.388 0.896 0.386 0.387 0.689 0.866 0.906 1.438 0.223 0.565 0.335 1.211 0.335 1.94 0 0.368-0.039 0.617-0.118 0.748-0.079 0.125-0.23 0.187-0.453 0.187h-6.252zM151.252 21.199v2.186h-8.34v-14.238h2.649v12.052h5.691zM155.28 13.282v10.102h-2.442v-10.102h2.442zM155.615 10.338c0 0.21-0.043 0.407-0.128 0.591-0.086 0.184-0.201 0.345-0.345 0.482-0.138 0.138-0.303 0.249-0.492 0.335-0.191 0.079-0.394 0.118-0.61 0.118-0.21 0-0.411-0.039-0.601-0.118-0.185-0.085-0.345-0.197-0.482-0.335s-0.25-0.299-0.335-0.482c-0.079-0.184-0.118-0.381-0.118-0.591 0-0.217 0.039-0.42 0.118-0.61 0.085-0.19 0.197-0.354 0.335-0.492s0.298-0.246 0.482-0.325c0.19-0.085 0.39-0.128 0.601-0.128 0.217 0 0.42 0.043 0.61 0.128 0.19 0.079 0.354 0.187 0.492 0.325 0.144 0.138 0.258 0.302 0.345 0.492 0.085 0.19 0.128 0.394 0.128 0.61zM160.191 20.766c0.276 0.335 0.575 0.571 0.896 0.709 0.329 0.138 0.673 0.207 1.034 0.207 0.374 0 0.709-0.066 1.004-0.197 0.302-0.138 0.558-0.348 0.768-0.63 0.21-0.289 0.37-0.653 0.482-1.093 0.112-0.446 0.167-0.978 0.167-1.595 0-1.109-0.183-1.91-0.551-2.402-0.368-0.499-0.896-0.748-1.585-0.748-0.466 0-0.873 0.108-1.221 0.325-0.348 0.21-0.679 0.509-0.994 0.896v4.529zM160.191 14.523c0.407-0.427 0.857-0.765 1.349-1.014 0.498-0.256 1.067-0.384 1.703-0.384 0.585 0 1.109 0.115 1.575 0.345 0.473 0.23 0.873 0.561 1.201 0.994 0.335 0.427 0.591 0.945 0.768 1.556s0.266 1.296 0.266 2.058c0 0.821-0.102 1.566-0.305 2.235s-0.496 1.244-0.876 1.723c-0.374 0.473-0.827 0.84-1.359 1.103s-1.122 0.394-1.772 0.394c-0.315 0-0.601-0.033-0.857-0.098-0.256-0.059-0.492-0.144-0.709-0.256s-0.417-0.246-0.601-0.404c-0.177-0.164-0.348-0.345-0.512-0.542l-0.108 0.679c-0.039 0.171-0.108 0.292-0.207 0.364-0.092 0.072-0.22 0.108-0.384 0.108h-1.605v-14.631h2.432v5.77zM171.226 15.035c0.315-0.604 0.689-1.077 1.122-1.418 0.433-0.348 0.945-0.522 1.536-0.522 0.466 0 0.841 0.102 1.122 0.305l-0.158 1.822c-0.032 0.118-0.081 0.203-0.148 0.256-0.059 0.046-0.14 0.069-0.246 0.069-0.098 0-0.246-0.016-0.443-0.049-0.19-0.033-0.377-0.049-0.561-0.049-0.268 0-0.508 0.039-0.719 0.118-0.209 0.079-0.4 0.194-0.571 0.345-0.164 0.144-0.311 0.322-0.443 0.532-0.124 0.21-0.242 0.45-0.354 0.719v6.223h-2.432v-10.102h1.428c0.25 0 0.423 0.046 0.522 0.138 0.098 0.085 0.165 0.243 0.197 0.473l0.148 1.142zM181.481 19.072c-0.703 0.033-1.294 0.095-1.772 0.187-0.48 0.085-0.864 0.197-1.152 0.335-0.289 0.138-0.496 0.299-0.62 0.482-0.126 0.184-0.187 0.384-0.187 0.601 0 0.427 0.124 0.732 0.374 0.916 0.256 0.184 0.587 0.276 0.994 0.276 0.498 0 0.928-0.089 1.29-0.266 0.367-0.184 0.725-0.459 1.073-0.827v-1.703zM175.908 14.69c1.162-1.063 2.56-1.595 4.194-1.595 0.591 0 1.119 0.098 1.585 0.295 0.465 0.19 0.859 0.459 1.182 0.807 0.321 0.341 0.564 0.752 0.729 1.231 0.17 0.479 0.256 1.004 0.256 1.575v6.38h-1.103c-0.23 0-0.407-0.033-0.532-0.098-0.126-0.072-0.224-0.213-0.295-0.423l-0.217-0.729c-0.256 0.23-0.506 0.433-0.748 0.61-0.244 0.171-0.496 0.315-0.758 0.433-0.263 0.118-0.545 0.207-0.847 0.266-0.295 0.066-0.624 0.098-0.985 0.098-0.427 0-0.821-0.056-1.182-0.167-0.362-0.118-0.673-0.292-0.935-0.522-0.263-0.23-0.466-0.515-0.61-0.857-0.145-0.341-0.217-0.738-0.217-1.191 0-0.256 0.042-0.509 0.128-0.758 0.085-0.256 0.223-0.499 0.414-0.729 0.197-0.23 0.449-0.446 0.758-0.65 0.308-0.203 0.686-0.381 1.132-0.532 0.453-0.151 0.977-0.272 1.575-0.364 0.597-0.098 1.28-0.158 2.048-0.177v-0.591c0-0.676-0.145-1.175-0.433-1.497-0.289-0.328-0.706-0.492-1.25-0.492-0.394 0-0.722 0.046-0.985 0.138-0.256 0.092-0.482 0.197-0.679 0.315-0.197 0.112-0.378 0.213-0.542 0.305-0.158 0.092-0.335 0.138-0.532 0.138-0.171 0-0.315-0.043-0.433-0.128-0.118-0.092-0.214-0.197-0.286-0.315l-0.433-0.778zM188.438 15.035c0.315-0.604 0.689-1.077 1.122-1.418 0.433-0.348 0.945-0.522 1.536-0.522 0.465 0 0.839 0.102 1.122 0.305l-0.158 1.822c-0.033 0.118-0.082 0.203-0.148 0.256-0.059 0.046-0.142 0.069-0.246 0.069-0.098 0-0.246-0.016-0.443-0.049-0.191-0.033-0.378-0.049-0.561-0.049-0.27 0-0.51 0.039-0.719 0.118-0.21 0.079-0.401 0.194-0.571 0.345-0.165 0.144-0.313 0.322-0.443 0.532-0.126 0.21-0.244 0.45-0.354 0.719v6.223h-2.432v-10.102h1.428c0.249 0 0.423 0.046 0.522 0.138 0.098 0.085 0.164 0.243 0.197 0.473l0.148 1.142zM202.666 13.282l-5.504 12.879c-0.071 0.171-0.167 0.299-0.286 0.384-0.111 0.092-0.286 0.138-0.522 0.138h-1.812l1.89-4.057-4.086-9.344h2.137c0.191 0 0.338 0.046 0.443 0.138 0.112 0.092 0.194 0.197 0.246 0.315l2.146 5.238c0.073 0.177 0.132 0.354 0.177 0.532 0.053 0.177 0.102 0.358 0.148 0.542 0.059-0.184 0.118-0.364 0.177-0.542 0.059-0.184 0.126-0.364 0.197-0.542l2.028-5.228c0.053-0.131 0.138-0.24 0.256-0.325 0.126-0.085 0.263-0.128 0.414-0.128h1.95z"></path>
        </symbol>
        <symbol id="icon-register" viewBox="0 0 32 32">
            <path d="M16 4.334c-2.577 0-4.667 2.089-4.667 4.667s2.089 4.667 4.667 4.667c2.577 0 4.667-2.089 4.667-4.667s-2.089-4.667-4.667-4.667zM8.667 9.001c0-4.050 3.283-7.333 7.333-7.333s7.333 3.283 7.333 7.333c0 4.050-3.283 7.333-7.333 7.333s-7.333-3.283-7.333-7.333z"></path>
            <path d="M8.139 20.334c-0.924 0-1.647 0.45-1.94 1.097-0.406 0.895-0.774 1.961-0.86 2.971-0.039 0.452 0.15 0.785 0.409 0.946 1.372 0.852 4.552 2.319 10.253 2.319s8.88-1.467 10.253-2.319c0.26-0.161 0.448-0.494 0.409-0.946-0.087-1.011-0.454-2.076-0.86-2.971-0.293-0.647-1.016-1.097-1.94-1.097h-15.723zM3.77 20.329c0.811-1.787 2.621-2.662 4.369-2.662h15.723c1.748 0 3.558 0.875 4.369 2.662 0.466 1.027 0.965 2.407 1.089 3.845 0.112 1.31-0.432 2.677-1.659 3.439-1.805 1.121-5.474 2.721-11.66 2.721s-9.855-1.6-11.66-2.721c-1.227-0.762-1.771-2.13-1.659-3.439 0.123-1.438 0.623-2.818 1.089-3.845z"></path>
        </symbol>
        <symbol id="icon-check" viewBox="0 0 16 16">
            <path d="M7.99984 15.3337C12.0432 15.3337 15.3332 12.044 15.3332 8.00033C15.3332 7.30238 15.2357 6.61458 15.0428 5.95588C14.9478 5.63197 14.6096 5.44592 14.2848 5.54096C13.9606 5.6357 13.7751 5.97512 13.8698 6.29903C14.0296 6.84629 14.1109 7.4189 14.1109 8.00033C14.1109 11.3699 11.3695 14.1114 7.99984 14.1114C4.63022 14.1114 1.88873 11.3699 1.88873 8.00033C1.88873 4.63071 4.63022 1.88921 7.99984 1.88921C9.22445 1.88921 10.4027 2.24729 11.4071 2.92449C11.6866 3.11323 12.0668 3.03908 12.2552 2.75948C12.4438 2.47959 12.3703 2.09973 12.0904 1.91115C10.8834 1.09728 9.46898 0.666992 7.99984 0.666992C3.95645 0.666992 0.666504 3.95664 0.666504 8.00033C0.666504 12.044 3.95645 15.3337 7.99984 15.3337Z" fill="#FF3F3A"/>
            <path d="M14.8617 1.52885L7.99971 8.3905L5.8044 6.19552C5.54399 5.93526 5.12211 5.93526 4.86169 6.19552C4.60144 6.45593 4.60144 6.87781 4.86169 7.13822L7.52836 9.80489C7.65873 9.93526 7.82898 10.0002 7.99971 10.0002C8.17045 10.0002 8.3407 9.93526 8.47107 9.80489L15.8044 2.47156C16.0647 2.21114 16.0647 1.78927 15.8044 1.52885C15.544 1.2686 15.1221 1.2686 14.8617 1.52885Z" fill="#FF3F3A"/>
        </symbol>
        <symbol id="icon-logofooter" viewBox="0 0 189 32">
            <path fill="#fff" style="fill: var(--color1, #fff)" d="M0 16.147c0-8.873 4.8-14.255 12.655-14.255 5.964 0 10.764 3.636 11.636 9.018 0.145 0.582-0.291 1.018-0.873 1.018h-3.782c-0.436 0-0.727-0.291-0.873-0.727-0.727-2.764-3.055-4.509-6.109-4.509-4.218 0-6.836 3.636-6.836 9.455s2.618 9.455 6.982 9.455c3.055 0 5.236-1.6 6.109-4.218 0.145-0.436 0.436-0.727 0.873-0.727h3.782c0.582 0 1.018 0.582 0.873 1.018-0.873 5.236-5.527 8.727-11.636 8.727-8 0-12.8-5.527-12.8-14.255z"></path>
            <path fill="#fff" style="fill: var(--color1, #fff)" d="M35.345 29.674h-4.218c-0.436 0-0.727-0.291-0.727-0.727v-25.164c0-0.582 0.582-1.164 1.164-1.164h10.182c5.964 0 9.6 3.345 9.6 8.582 0 3.055-1.455 5.818-3.927 7.273-0.582 0.291-0.727 1.018-0.436 1.455l4.509 8.582c0.291 0.436-0.145 1.018-0.582 1.018h-4.8c-0.291 0-0.582-0.145-0.727-0.436l-4.218-8.727c-0.145-0.436-0.582-0.582-1.018-0.582h-3.345c-0.436 0-0.727 0.291-0.727 0.727v8.582c0.145 0.291-0.291 0.582-0.727 0.582zM36.218 14.838c0 0.436 0.291 0.727 0.727 0.727h4.364c2.909 0 4.509-1.6 4.509-4.218s-1.745-4.218-4.509-4.218h-4.218c-0.436 0-0.727 0.291-0.727 0.727v6.982h-0.145z"></path>
            <path fill="#fff" style="fill: var(--color1, #fff)" d="M74.909 29.674h-16c-0.582 0-1.018-0.436-1.018-1.018v-25.018c0-0.582 0.436-1.018 1.018-1.018h16c0.582 0 1.018 0.436 1.018 1.018v2.764c0 0.582-0.436 1.018-1.018 1.018h-10.618c-0.436 0-0.727 0.291-0.727 0.727v4.945c0 0.436 0.291 0.727 0.727 0.727h9.891c0.582 0 1.018 0.436 1.018 1.018v2.473c0 0.582-0.436 1.018-1.018 1.018h-9.891c-0.436 0-0.727 0.291-0.727 0.727v5.527c0 0.436 0.291 0.727 0.727 0.727h10.618c0.582 0 1.018 0.436 1.018 1.018v2.764c0 0.145-0.436 0.582-1.018 0.582z"></path>
            <path fill="#fff" style="fill: var(--color1, #fff)" d="M97.454 23.129h-8.291c-0.436 0-0.727 0.291-0.873 0.582l-1.6 5.382c-0.145 0.436-0.436 0.582-0.873 0.582h-3.782c-0.582 0-1.018-0.582-0.873-1.164l8.727-25.309c0.145-0.291 0.436-0.582 0.873-0.582h5.382c0.436 0 0.727 0.291 0.873 0.582l8.727 25.309c0.145 0.582-0.291 1.164-0.873 1.164h-4.218c-0.436 0-0.727-0.291-0.873-0.582l-1.6-5.382c0-0.291-0.436-0.582-0.727-0.582zM90.327 18.911h5.964c0.291 0 0.436-0.291 0.436-0.582l-3.2-10.182h-0.291l-3.2 10.182c-0.145 0.291 0 0.582 0.291 0.582z"></path>
            <path fill="#fff" style="fill: var(--color1, #fff)" d="M114.909 28.657v-20.654c0-0.436-0.291-0.727-0.727-0.727h-6.4c-0.582 0-1.164-0.436-1.164-1.164v-2.473c0-0.582 0.436-1.164 1.164-1.164h19.782c0.582 0 1.164 0.436 1.164 1.164v2.473c0 0.582-0.436 1.164-1.164 1.164h-6.4c-0.436 0-0.727 0.291-0.727 0.727v20.8c0 0.582-0.436 1.018-1.018 1.018h-3.636c-0.436-0.145-0.873-0.582-0.873-1.164z"></path>
            <path fill="#fff" style="fill: var(--color1, #fff)" d="M150.982 29.674h-16c-0.582 0-1.018-0.436-1.018-1.018v-25.018c0-0.582 0.436-1.018 1.018-1.018h16c0.582 0 1.018 0.436 1.018 1.018v2.764c0 0.582-0.436 1.018-1.018 1.018h-10.618c-0.436 0-0.727 0.291-0.727 0.727v4.945c0 0.436 0.291 0.727 0.727 0.727h9.891c0.582 0 1.018 0.436 1.018 1.018v2.473c0 0.582-0.436 1.018-1.018 1.018h-9.891c-0.436 0-0.727 0.291-0.727 0.727v5.527c0 0.436 0.291 0.727 0.727 0.727h10.618c0.582 0 1.018 0.436 1.018 1.018v2.764c0 0.145-0.436 0.582-1.018 0.582z"></path>
            <path fill="#ff3f3a" style="fill: var(--color2, #ff3f3a)" d="M171.2 14.109l-9.018-11.782c-0.582-0.582-1.309-0.873-2.036-0.873s-1.455 0.291-2.036 0.873c-1.018 1.164-1.018 2.909 0 4.073l7.127 9.6-7.127 9.6c-1.018 1.164-1.018 2.909 0 4.073 0.582 0.582 1.309 0.873 2.036 0.873s1.455-0.291 2.036-0.873l9.018-11.782c1.018-0.873 1.018-2.618 0-3.782z"></path>
            <path fill="#ff3f3a" style="fill: var(--color2, #ff3f3a)" d="M175.044 14.109l9.018-11.782c0.582-0.582 1.309-0.873 2.036-0.873s1.455 0.291 2.036 0.873c1.018 1.164 1.018 2.909 0 4.073l-7.127 9.6 7.127 9.6c1.018 1.164 1.018 2.909 0 4.073-0.582 0.582-1.309 0.873-2.036 0.873s-1.455-0.291-2.036-0.873l-9.018-11.782c-1.018-0.873-1.018-2.618 0-3.782z"></path>
        </symbol>
        <symbol id="icon-calendar" viewBox="0 0 34 32">
            <path fill="#787a80" style="fill: var(--color3, #787a80)" d="M10.667 0.713c0.785 0 1.422 0.637 1.422 1.422v0.711l9.956 0v-0.711c0-0.785 0.637-1.422 1.422-1.422s1.422 0.637 1.422 1.422v0.711l1.778 0c3.142 0 5.689 2.547 5.689 5.689v17.067c0 3.142-2.547 5.689-5.689 5.689h-19.2c-3.142 0-5.689-2.547-5.689-5.689v-17.067c0-3.142 2.547-5.689 5.689-5.689h1.778v-0.711c0-0.785 0.637-1.422 1.422-1.422zM9.245 5.69h-1.778c-1.571 0-2.844 1.274-2.844 2.844v1.778h24.889v-1.778c0-1.571-1.274-2.844-2.844-2.844h-1.778v0.711c0 0.785-0.637 1.422-1.422 1.422s-1.422-0.637-1.422-1.422v-0.711l-9.956-0v0.711c0 0.785-0.637 1.422-1.422 1.422s-1.422-0.637-1.422-1.422v-0.711zM29.511 13.157h-24.889v12.445c0 1.571 1.274 2.844 2.844 2.844h19.2c1.571 0 2.844-1.274 2.844-2.845v-12.444z"></path>
        </symbol>
        <symbol id="icon-clock" viewBox="0 0 34 32">
            <path fill="#787a80" style="fill: var(--color3, #787a80)" d="M18.489 8.176c0-0.785-0.637-1.422-1.422-1.422s-1.422 0.637-1.422 1.422v7.822c0 0.377 0.15 0.739 0.417 1.006l4.267 4.267c0.555 0.555 1.456 0.555 2.011 0s0.556-1.456 0-2.011l-3.85-3.85v-7.233z"></path>
            <path fill="#787a80" style="fill: var(--color3, #787a80)" d="M17.066 0.354c-8.64 0-15.644 7.004-15.644 15.644s7.004 15.644 15.644 15.644c8.64 0 15.645-7.004 15.645-15.644s-7.004-15.644-15.645-15.644zM4.266 15.999c0-7.069 5.731-12.8 12.8-12.8s12.8 5.731 12.8 12.8c0 7.069-5.731 12.8-12.8 12.8s-12.8-5.731-12.8-12.8z"></path>
        </symbol>
        <symbol id="icon-Line-left" viewBox="0 0 51 32">
            <path d="M19.209 29.886c-1.041 1.041-2.73 1.041-3.771 0l-12-12c-1.041-1.041-1.041-2.73 0-3.771l12-12c1.041-1.041 2.73-1.041 3.771 0s1.041 2.73 0 3.771l-7.448 7.448h36.229c1.473 0 2.667 1.194 2.667 2.667s-1.194 2.667-2.667 2.667h-36.229l7.448 7.448c1.041 1.041 1.041 2.73 0 3.771z"></path>
        </symbol>
        <symbol id="icon-Line-right" viewBox="0 0 48 32">
            <path d="M31.448 2.114c1.041-1.041 2.73-1.041 3.771 0l12 12c1.041 1.041 1.041 2.73 0 3.771l-12 12c-1.041 1.041-2.73 1.041-3.771 0s-1.041-2.73 0-3.771l7.448-7.448h-36.229c-1.473 0-2.667-1.194-2.667-2.667s1.194-2.667 2.667-2.667h36.229l-7.448-7.448c-1.041-1.041-1.041-2.73 0-3.771z"></path>
        </symbol>
    </defs>
</svg>