<svg aria-hidden="true" style="position:absolute;width:0;height:0;overflow:hidden" xmlns="http://www.w3.org/2000/svg"><defs><symbol id="icon-Line-left" viewBox="0 0 48 32"><path d="M19.209 29.886a2.667 2.667 0 0 1-3.771 0l-12-12a2.667 2.667 0 0 1 0-3.771l12-12a2.667 2.667 0 0 1 3.771 3.771l-7.448 7.448H47.99a2.667 2.667 0 1 1 0 5.334H11.761l7.448 7.448a2.667 2.667 0 0 1 0 3.771z"/></symbol><symbol id="icon-Line-right" viewBox="0 0 48 32"><path d="M31.448 2.114a2.667 2.667 0 0 1 3.771 0l12 12a2.667 2.667 0 0 1 0 3.771l-12 12a2.667 2.667 0 0 1-3.771-3.771l7.448-7.448H2.667a2.667 2.667 0 1 1 0-5.334h36.229l-7.448-7.448a2.667 2.667 0 0 1 0-3.771z"/></symbol></defs></svg>