<svg aria-hidden="true" style="position: absolute; width: 0; height: 0; overflow: hidden;" version="1.1"
    xmlns="http://www.w3.org/2000/svg" xmlns:xlink="http://www.w3.org/1999/xlink">
    <defs>
        <symbol id="icon-circles-1" viewBox="0 0 19 32">
            <path fill="#ffcf2d" style="fill: var(--color1, #ffcf2d)" opacity="0.12"
                d="M16.011 0c-8.851 0-16.011 7.16-16.011 16.011 0 8.829 7.16 16.011 16.011 16.011 8.829 0 16.011-7.16 16.011-16.011-0.022-8.851-7.182-16.011-16.011-16.011zM16.011 30.99c-8.28 0-14.979-6.699-14.979-14.979s6.699-14.979 14.979-14.979c8.28 0 14.979 6.699 14.979 14.979 0 8.258-6.721 14.979-14.979 14.979z">
            </path>
            <path fill="#ffcf2d" style="fill: var(--color1, #ffcf2d)" opacity="0.12"
                d="M16.011 3.448c-6.918 0-12.541 5.622-12.541 12.541s5.622 12.541 12.541 12.541 12.541-5.601 12.541-12.519c0-6.94-5.622-12.563-12.541-12.563zM16.011 26.619c-5.864 0-10.63-4.766-10.63-10.63s4.766-10.63 10.63-10.63c5.864 0 10.63 4.766 10.63 10.63s-4.766 10.63-10.63 10.63z">
            </path>
        </symbol>
        <symbol id="icon-dots-1" viewBox="0 0 44 32">
            <path fill="#ffcf2d" style="fill: var(--color1, #ffcf2d)" opacity="0.8"
                d="M1.242 9.405c0 0.355-0.266 0.621-0.621 0.621s-0.621-0.266-0.621-0.621c0-0.355 0.266-0.621 0.621-0.621s0.621 0.295 0.621 0.621zM6.534 9.405c0 0.355-0.266 0.621-0.621 0.621s-0.621-0.266-0.621-0.621c0-0.355 0.266-0.621 0.621-0.621 0.325 0 0.621 0.295 0.621 0.621zM11.796 9.405c0 0.355-0.266 0.621-0.621 0.621s-0.621-0.266-0.621-0.621c0-0.355 0.266-0.621 0.621-0.621s0.621 0.295 0.621 0.621zM17.089 9.405c0 0.355-0.266 0.621-0.621 0.621s-0.621-0.266-0.621-0.621c0-0.355 0.266-0.621 0.621-0.621s0.621 0.295 0.621 0.621zM22.381 9.405c0 0.355-0.266 0.621-0.621 0.621s-0.621-0.266-0.621-0.621c0-0.355 0.266-0.621 0.621-0.621 0.325 0 0.621 0.295 0.621 0.621zM27.673 9.405c0 0.355-0.266 0.621-0.621 0.621s-0.621-0.266-0.621-0.621c0-0.355 0.266-0.621 0.621-0.621s0.621 0.295 0.621 0.621zM32.936 9.405c0 0.355-0.266 0.621-0.621 0.621s-0.621-0.266-0.621-0.621c0-0.355 0.266-0.621 0.621-0.621s0.621 0.295 0.621 0.621zM38.228 9.405c0 0.355-0.266 0.621-0.621 0.621s-0.621-0.266-0.621-0.621c0-0.355 0.266-0.621 0.621-0.621s0.621 0.295 0.621 0.621zM43.52 9.405c0 0.355-0.266 0.621-0.621 0.621s-0.621-0.266-0.621-0.621c0-0.355 0.266-0.621 0.621-0.621 0.325 0 0.621 0.295 0.621 0.621zM1.242 13.811c0 0.355-0.266 0.621-0.621 0.621s-0.621-0.266-0.621-0.621c0-0.355 0.266-0.621 0.621-0.621s0.621 0.266 0.621 0.621zM6.534 13.811c0 0.355-0.266 0.621-0.621 0.621s-0.621-0.266-0.621-0.621c0-0.355 0.266-0.621 0.621-0.621 0.325 0 0.621 0.266 0.621 0.621zM11.796 13.811c0 0.355-0.266 0.621-0.621 0.621s-0.621-0.266-0.621-0.621c0-0.355 0.266-0.621 0.621-0.621s0.621 0.266 0.621 0.621zM17.089 13.811c0 0.355-0.266 0.621-0.621 0.621s-0.621-0.266-0.621-0.621c0-0.355 0.266-0.621 0.621-0.621s0.621 0.266 0.621 0.621zM22.381 13.811c0 0.355-0.266 0.621-0.621 0.621s-0.621-0.266-0.621-0.621c0-0.355 0.266-0.621 0.621-0.621 0.325 0 0.621 0.266 0.621 0.621zM27.673 13.811c0 0.355-0.266 0.621-0.621 0.621s-0.621-0.266-0.621-0.621c0-0.355 0.266-0.621 0.621-0.621s0.621 0.266 0.621 0.621zM32.936 13.811c0 0.355-0.266 0.621-0.621 0.621s-0.621-0.266-0.621-0.621c0-0.355 0.266-0.621 0.621-0.621s0.621 0.266 0.621 0.621zM38.228 13.811c0 0.355-0.266 0.621-0.621 0.621s-0.621-0.266-0.621-0.621c0-0.355 0.266-0.621 0.621-0.621s0.621 0.266 0.621 0.621zM43.52 13.811c0 0.355-0.266 0.621-0.621 0.621s-0.621-0.266-0.621-0.621c0-0.355 0.266-0.621 0.621-0.621 0.325 0 0.621 0.266 0.621 0.621zM1.242 0.621c0 0.355-0.266 0.621-0.621 0.621s-0.621-0.266-0.621-0.621 0.266-0.621 0.621-0.621c0.355 0 0.621 0.266 0.621 0.621zM6.534 0.621c0 0.355-0.266 0.621-0.621 0.621s-0.621-0.266-0.621-0.621c0-0.355 0.266-0.621 0.621-0.621 0.325 0 0.621 0.266 0.621 0.621zM11.796 0.621c0 0.355-0.266 0.621-0.621 0.621s-0.621-0.266-0.621-0.621c0-0.355 0.296-0.621 0.621-0.621 0.355 0 0.621 0.266 0.621 0.621zM17.089 0.621c0 0.355-0.266 0.621-0.621 0.621s-0.621-0.266-0.621-0.621c0-0.355 0.296-0.621 0.621-0.621s0.621 0.266 0.621 0.621zM22.381 0.621c0 0.355-0.266 0.621-0.621 0.621s-0.621-0.266-0.621-0.621c0-0.356 0.266-0.621 0.621-0.621 0.325 0 0.621 0.266 0.621 0.621zM27.673 0.621c0 0.355-0.266 0.621-0.621 0.621s-0.621-0.266-0.621-0.621c0-0.355 0.266-0.621 0.621-0.621s0.621 0.266 0.621 0.621zM32.936 0.621c0 0.355-0.266 0.621-0.621 0.621s-0.621-0.266-0.621-0.621c0-0.355 0.266-0.621 0.621-0.621s0.621 0.266 0.621 0.621zM38.228 0.621c0 0.355-0.266 0.621-0.621 0.621s-0.621-0.266-0.621-0.621c0-0.355 0.266-0.621 0.621-0.621s0.621 0.266 0.621 0.621zM43.52 0.621c0 0.355-0.266 0.621-0.621 0.621s-0.621-0.266-0.621-0.621c0-0.355 0.266-0.621 0.621-0.621 0.325 0 0.621 0.266 0.621 0.621zM1.242 5.028c0 0.355-0.266 0.621-0.621 0.621s-0.621-0.296-0.621-0.621c0-0.355 0.266-0.621 0.621-0.621s0.621 0.266 0.621 0.621zM6.534 5.028c0 0.355-0.266 0.621-0.621 0.621s-0.621-0.266-0.621-0.621c0-0.355 0.266-0.621 0.621-0.621 0.325 0 0.621 0.266 0.621 0.621zM11.796 5.028c0 0.355-0.266 0.621-0.621 0.621s-0.621-0.266-0.621-0.621c0-0.355 0.266-0.621 0.621-0.621s0.621 0.266 0.621 0.621zM17.089 5.028c0 0.355-0.266 0.621-0.621 0.621s-0.621-0.266-0.621-0.621c0-0.355 0.266-0.621 0.621-0.621s0.621 0.266 0.621 0.621zM22.381 5.028c0 0.355-0.266 0.621-0.621 0.621s-0.621-0.266-0.621-0.621c0-0.355 0.266-0.621 0.621-0.621 0.325 0 0.621 0.266 0.621 0.621zM27.673 5.028c0 0.355-0.266 0.621-0.621 0.621s-0.621-0.266-0.621-0.621c0-0.355 0.266-0.621 0.621-0.621s0.621 0.266 0.621 0.621zM32.936 5.028c0 0.355-0.266 0.621-0.621 0.621s-0.621-0.266-0.621-0.621c0-0.355 0.266-0.621 0.621-0.621s0.621 0.266 0.621 0.621zM38.228 5.028c0 0.355-0.266 0.621-0.621 0.621s-0.621-0.266-0.621-0.621c0-0.355 0.266-0.621 0.621-0.621s0.621 0.266 0.621 0.621zM43.52 5.028c0 0.355-0.266 0.621-0.621 0.621s-0.621-0.266-0.621-0.621c0-0.355 0.266-0.621 0.621-0.621 0.325 0 0.621 0.266 0.621 0.621zM1.242 18.189c0 0.355-0.266 0.621-0.621 0.621s-0.621-0.266-0.621-0.621c0-0.355 0.266-0.621 0.621-0.621s0.621 0.296 0.621 0.621zM6.534 18.189c0 0.355-0.266 0.621-0.621 0.621s-0.621-0.266-0.621-0.621c0-0.355 0.266-0.621 0.621-0.621 0.325 0 0.621 0.296 0.621 0.621zM11.796 18.189c0 0.355-0.266 0.621-0.621 0.621s-0.621-0.266-0.621-0.621c0-0.355 0.266-0.621 0.621-0.621s0.621 0.296 0.621 0.621zM17.089 18.189c0 0.355-0.266 0.621-0.621 0.621s-0.621-0.266-0.621-0.621c0-0.355 0.266-0.621 0.621-0.621s0.621 0.296 0.621 0.621zM22.381 18.189c0 0.355-0.266 0.621-0.621 0.621s-0.621-0.266-0.621-0.621c0-0.355 0.266-0.621 0.621-0.621 0.325 0 0.621 0.296 0.621 0.621zM27.673 18.189c0 0.355-0.266 0.621-0.621 0.621s-0.621-0.266-0.621-0.621c0-0.355 0.266-0.621 0.621-0.621s0.621 0.296 0.621 0.621zM32.936 18.189c0 0.355-0.266 0.621-0.621 0.621s-0.621-0.266-0.621-0.621c0-0.355 0.266-0.621 0.621-0.621s0.621 0.296 0.621 0.621zM38.228 18.189c0 0.355-0.266 0.621-0.621 0.621s-0.621-0.266-0.621-0.621c0-0.355 0.266-0.621 0.621-0.621s0.621 0.296 0.621 0.621zM43.52 18.189c0 0.355-0.266 0.621-0.621 0.621s-0.621-0.266-0.621-0.621c0-0.355 0.266-0.621 0.621-0.621 0.325 0 0.621 0.296 0.621 0.621zM1.242 22.595c0 0.355-0.266 0.621-0.621 0.621s-0.621-0.266-0.621-0.621 0.266-0.621 0.621-0.621c0.355 0 0.621 0.266 0.621 0.621zM6.534 22.595c0 0.355-0.266 0.621-0.621 0.621s-0.621-0.266-0.621-0.621c0-0.355 0.266-0.621 0.621-0.621 0.325 0 0.621 0.266 0.621 0.621zM11.796 22.595c0 0.355-0.266 0.621-0.621 0.621s-0.621-0.266-0.621-0.621c0-0.355 0.266-0.621 0.621-0.621s0.621 0.266 0.621 0.621zM16.468 23.216c0.343 0 0.621-0.278 0.621-0.621s-0.278-0.621-0.621-0.621v0c-0.343 0-0.621 0.278-0.621 0.621s0.278 0.621 0.621 0.621v0zM22.381 22.595c0 0.355-0.266 0.621-0.621 0.621s-0.621-0.266-0.621-0.621c0-0.355 0.266-0.621 0.621-0.621 0.325 0 0.621 0.266 0.621 0.621zM27.673 22.595c0 0.355-0.266 0.621-0.621 0.621s-0.621-0.266-0.621-0.621c0-0.355 0.266-0.621 0.621-0.621s0.621 0.266 0.621 0.621zM32.936 22.595c0 0.355-0.266 0.621-0.621 0.621s-0.621-0.266-0.621-0.621c0-0.355 0.266-0.621 0.621-0.621s0.621 0.266 0.621 0.621zM37.607 23.216c0.343-0 0.621-0.278 0.621-0.621s-0.278-0.621-0.621-0.621c-0 0-0 0-0 0v0c-0.343 0-0.621 0.278-0.621 0.621s0.278 0.621 0.621 0.621c0 0 0 0 0 0v0zM43.52 22.595c0 0.355-0.266 0.621-0.621 0.621s-0.621-0.266-0.621-0.621c0-0.355 0.266-0.621 0.621-0.621 0.325 0 0.621 0.266 0.621 0.621zM1.242 27.002c0 0.355-0.266 0.621-0.621 0.621s-0.621-0.266-0.621-0.621c0-0.355 0.266-0.621 0.621-0.621s0.621 0.266 0.621 0.621zM6.534 27.002c0 0.355-0.266 0.621-0.621 0.621s-0.621-0.266-0.621-0.621c0-0.355 0.266-0.621 0.621-0.621 0.325 0 0.621 0.266 0.621 0.621zM11.796 27.002c0 0.355-0.266 0.621-0.621 0.621s-0.621-0.266-0.621-0.621c0-0.355 0.266-0.621 0.621-0.621s0.621 0.266 0.621 0.621zM17.089 27.002c0 0.355-0.266 0.621-0.621 0.621s-0.621-0.266-0.621-0.621c0-0.355 0.266-0.621 0.621-0.621s0.621 0.266 0.621 0.621zM22.381 27.002c0 0.355-0.266 0.621-0.621 0.621s-0.621-0.266-0.621-0.621c0-0.355 0.266-0.621 0.621-0.621 0.325 0 0.621 0.266 0.621 0.621zM27.673 27.002c0 0.355-0.266 0.621-0.621 0.621s-0.621-0.266-0.621-0.621c0-0.355 0.266-0.621 0.621-0.621s0.621 0.266 0.621 0.621zM32.936 27.002c0 0.355-0.266 0.621-0.621 0.621s-0.621-0.266-0.621-0.621c0-0.355 0.266-0.621 0.621-0.621s0.621 0.266 0.621 0.621zM38.228 27.002c0 0.355-0.266 0.621-0.621 0.621s-0.621-0.266-0.621-0.621c0-0.355 0.266-0.621 0.621-0.621s0.621 0.266 0.621 0.621zM43.52 27.002c0 0.355-0.266 0.621-0.621 0.621s-0.621-0.266-0.621-0.621c0-0.355 0.266-0.621 0.621-0.621 0.325 0 0.621 0.266 0.621 0.621zM1.242 31.379c0 0.355-0.266 0.621-0.621 0.621s-0.621-0.265-0.621-0.62c0-0.355 0.266-0.621 0.621-0.621s0.621 0.295 0.621 0.621zM6.534 31.379c0 0.355-0.266 0.621-0.621 0.621s-0.621-0.266-0.621-0.621c0-0.355 0.266-0.621 0.621-0.621 0.325 0 0.621 0.295 0.621 0.621zM11.796 31.379c0 0.355-0.266 0.621-0.621 0.621s-0.621-0.266-0.621-0.621c0-0.355 0.266-0.621 0.621-0.621s0.621 0.295 0.621 0.621zM17.089 31.379c0 0.355-0.266 0.621-0.621 0.621s-0.621-0.266-0.621-0.621c0-0.355 0.266-0.621 0.621-0.621s0.621 0.295 0.621 0.621zM22.381 31.379c0 0.355-0.266 0.621-0.621 0.621s-0.621-0.266-0.621-0.621c0-0.355 0.266-0.621 0.621-0.621 0.325 0 0.621 0.295 0.621 0.621zM27.673 31.379c0 0.355-0.266 0.621-0.621 0.621s-0.621-0.266-0.621-0.621c0-0.355 0.266-0.621 0.621-0.621s0.621 0.295 0.621 0.621zM32.936 31.379c0 0.355-0.266 0.621-0.621 0.621s-0.621-0.266-0.621-0.621c0-0.355 0.266-0.621 0.621-0.621s0.621 0.295 0.621 0.621zM38.228 31.379c0 0.355-0.266 0.621-0.621 0.621s-0.621-0.266-0.621-0.621c0-0.355 0.266-0.621 0.621-0.621s0.621 0.295 0.621 0.621zM43.52 31.379c0 0.355-0.266 0.621-0.621 0.621s-0.621-0.266-0.621-0.621c0-0.355 0.266-0.621 0.621-0.621 0.325 0 0.621 0.295 0.621 0.621z">
            </path>
        </symbol>
        <symbol id="icon-shapes-1" viewBox="0 0 38 32">
            <path fill="#ffcf2d" style="fill: var(--color1, #ffcf2d)" opacity="0.2"
                d="M29.75 18.033c3.495-2.018 4.699-6.506 2.683-9.998s-6.505-4.693-10-2.676l7.317 12.674zM19.857 23.745c3.495-2.018 4.699-6.506 2.683-9.998s-6.505-4.693-10.001-2.676l7.317 12.674zM9.963 29.457c3.495-2.018 4.699-6.506 2.683-9.999s-6.505-4.693-10.001-2.676l7.317 12.674z">
            </path>
        </symbol>
        <symbol id="icon-shapes-2" viewBox="0 0 32 32">
            <path fill="#ffcf2d" style="fill: var(--color1, #ffcf2d)" opacity="0.2"
                d="M26.919 13.598h5.081v-13.598h-13.575v5.114h8.494v8.484z"></path>
            <path fill="#ffcf2d" style="fill: var(--color1, #ffcf2d)" opacity="0.2"
                d="M17.686 22.779h5.12v-13.559h-13.614v5.075h8.494v8.484z"></path>
            <path fill="#ffcf2d" style="fill: var(--color1, #ffcf2d)" opacity="0.2"
                d="M8.494 32h5.12v-13.598h-13.614v5.114h8.494v8.484z"></path>
        </symbol>
    </defs>
</svg>