<svg aria-hidden="true" style="position: absolute; width: 0; height: 0; overflow: hidden;" version="1.1"
    xmlns="http://www.w3.org/2000/svg" xmlns:xlink="http://www.w3.org/1999/xlink">
    <defs>
        <symbol id="icon-circles-1" viewBox="0 0 19 32">
            <path fill="#ffcf2d" style="fill: var(--color1, #ffcf2d)" opacity="0.12"
                d="M16.011 0c-8.851 0-16.011 7.16-16.011 16.011 0 8.829 7.16 16.011 16.011 16.011 8.829 0 16.011-7.16 16.011-16.011-0.022-8.851-7.182-16.011-16.011-16.011zM16.011 30.99c-8.28 0-14.979-6.699-14.979-14.979s6.699-14.979 14.979-14.979c8.28 0 14.979 6.699 14.979 14.979 0 8.258-6.721 14.979-14.979 14.979z">
            </path>
            <path fill="#ffcf2d" style="fill: var(--color1, #ffcf2d)" opacity="0.12"
                d="M16.011 3.448c-6.918 0-12.541 5.622-12.541 12.541s5.622 12.541 12.541 12.541 12.541-5.601 12.541-12.519c0-6.94-5.622-12.563-12.541-12.563zM16.011 26.619c-5.864 0-10.63-4.766-10.63-10.63s4.766-10.63 10.63-10.63c5.864 0 10.63 4.766 10.63 10.63s-4.766 10.63-10.63 10.63z">
            </path>
        </symbol>
        <symbol id="icon-dots-1" viewBox="0 0 44 32">
            <path fill="#ffcf2d" style="fill: var(--color1, #ffcf2d)" opacity="0.8"
                d="M1.242 9.405c0 0.355-0.266 0.621-0.621 0.621s-0.621-0.266-0.621-0.621c0-0.355 0.266-0.621 0.621-0.621s0.621 0.295 0.621 0.621zM6.534 9.405c0 0.355-0.266 0.621-0.621 0.621s-0.621-0.266-0.621-0.621c0-0.355 0.266-0.621 0.621-0.621 0.325 0 0.621 0.295 0.621 0.621zM11.796 9.405c0 0.355-0.266 0.621-0.621 0.621s-0.621-0.266-0.621-0.621c0-0.355 0.266-0.621 0.621-0.621s0.621 0.295 0.621 0.621zM17.089 9.405c0 0.355-0.266 0.621-0.621 0.621s-0.621-0.266-0.621-0.621c0-0.355 0.266-0.621 0.621-0.621s0.621 0.295 0.621 0.621zM22.381 9.405c0 0.355-0.266 0.621-0.621 0.621s-0.621-0.266-0.621-0.621c0-0.355 0.266-0.621 0.621-0.621 0.325 0 0.621 0.295 0.621 0.621zM27.673 9.405c0 0.355-0.266 0.621-0.621 0.621s-0.621-0.266-0.621-0.621c0-0.355 0.266-0.621 0.621-0.621s0.621 0.295 0.621 0.621zM32.936 9.405c0 0.355-0.266 0.621-0.621 0.621s-0.621-0.266-0.621-0.621c0-0.355 0.266-0.621 0.621-0.621s0.621 0.295 0.621 0.621zM38.228 9.405c0 0.355-0.266 0.621-0.621 0.621s-0.621-0.266-0.621-0.621c0-0.355 0.266-0.621 0.621-0.621s0.621 0.295 0.621 0.621zM43.52 9.405c0 0.355-0.266 0.621-0.621 0.621s-0.621-0.266-0.621-0.621c0-0.355 0.266-0.621 0.621-0.621 0.325 0 0.621 0.295 0.621 0.621zM1.242 13.811c0 0.355-0.266 0.621-0.621 0.621s-0.621-0.266-0.621-0.621c0-0.355 0.266-0.621 0.621-0.621s0.621 0.266 0.621 0.621zM6.534 13.811c0 0.355-0.266 0.621-0.621 0.621s-0.621-0.266-0.621-0.621c0-0.355 0.266-0.621 0.621-0.621 0.325 0 0.621 0.266 0.621 0.621zM11.796 13.811c0 0.355-0.266 0.621-0.621 0.621s-0.621-0.266-0.621-0.621c0-0.355 0.266-0.621 0.621-0.621s0.621 0.266 0.621 0.621zM17.089 13.811c0 0.355-0.266 0.621-0.621 0.621s-0.621-0.266-0.621-0.621c0-0.355 0.266-0.621 0.621-0.621s0.621 0.266 0.621 0.621zM22.381 13.811c0 0.355-0.266 0.621-0.621 0.621s-0.621-0.266-0.621-0.621c0-0.355 0.266-0.621 0.621-0.621 0.325 0 0.621 0.266 0.621 0.621zM27.673 13.811c0 0.355-0.266 0.621-0.621 0.621s-0.621-0.266-0.621-0.621c0-0.355 0.266-0.621 0.621-0.621s0.621 0.266 0.621 0.621zM32.936 13.811c0 0.355-0.266 0.621-0.621 0.621s-0.621-0.266-0.621-0.621c0-0.355 0.266-0.621 0.621-0.621s0.621 0.266 0.621 0.621zM38.228 13.811c0 0.355-0.266 0.621-0.621 0.621s-0.621-0.266-0.621-0.621c0-0.355 0.266-0.621 0.621-0.621s0.621 0.266 0.621 0.621zM43.52 13.811c0 0.355-0.266 0.621-0.621 0.621s-0.621-0.266-0.621-0.621c0-0.355 0.266-0.621 0.621-0.621 0.325 0 0.621 0.266 0.621 0.621zM1.242 0.621c0 0.355-0.266 0.621-0.621 0.621s-0.621-0.266-0.621-0.621 0.266-0.621 0.621-0.621c0.355 0 0.621 0.266 0.621 0.621zM6.534 0.621c0 0.355-0.266 0.621-0.621 0.621s-0.621-0.266-0.621-0.621c0-0.355 0.266-0.621 0.621-0.621 0.325 0 0.621 0.266 0.621 0.621zM11.796 0.621c0 0.355-0.266 0.621-0.621 0.621s-0.621-0.266-0.621-0.621c0-0.355 0.296-0.621 0.621-0.621 0.355 0 0.621 0.266 0.621 0.621zM17.089 0.621c0 0.355-0.266 0.621-0.621 0.621s-0.621-0.266-0.621-0.621c0-0.355 0.296-0.621 0.621-0.621s0.621 0.266 0.621 0.621zM22.381 0.621c0 0.355-0.266 0.621-0.621 0.621s-0.621-0.266-0.621-0.621c0-0.356 0.266-0.621 0.621-0.621 0.325 0 0.621 0.266 0.621 0.621zM27.673 0.621c0 0.355-0.266 0.621-0.621 0.621s-0.621-0.266-0.621-0.621c0-0.355 0.266-0.621 0.621-0.621s0.621 0.266 0.621 0.621zM32.936 0.621c0 0.355-0.266 0.621-0.621 0.621s-0.621-0.266-0.621-0.621c0-0.355 0.266-0.621 0.621-0.621s0.621 0.266 0.621 0.621zM38.228 0.621c0 0.355-0.266 0.621-0.621 0.621s-0.621-0.266-0.621-0.621c0-0.355 0.266-0.621 0.621-0.621s0.621 0.266 0.621 0.621zM43.52 0.621c0 0.355-0.266 0.621-0.621 0.621s-0.621-0.266-0.621-0.621c0-0.355 0.266-0.621 0.621-0.621 0.325 0 0.621 0.266 0.621 0.621zM1.242 5.028c0 0.355-0.266 0.621-0.621 0.621s-0.621-0.296-0.621-0.621c0-0.355 0.266-0.621 0.621-0.621s0.621 0.266 0.621 0.621zM6.534 5.028c0 0.355-0.266 0.621-0.621 0.621s-0.621-0.266-0.621-0.621c0-0.355 0.266-0.621 0.621-0.621 0.325 0 0.621 0.266 0.621 0.621zM11.796 5.028c0 0.355-0.266 0.621-0.621 0.621s-0.621-0.266-0.621-0.621c0-0.355 0.266-0.621 0.621-0.621s0.621 0.266 0.621 0.621zM17.089 5.028c0 0.355-0.266 0.621-0.621 0.621s-0.621-0.266-0.621-0.621c0-0.355 0.266-0.621 0.621-0.621s0.621 0.266 0.621 0.621zM22.381 5.028c0 0.355-0.266 0.621-0.621 0.621s-0.621-0.266-0.621-0.621c0-0.355 0.266-0.621 0.621-0.621 0.325 0 0.621 0.266 0.621 0.621zM27.673 5.028c0 0.355-0.266 0.621-0.621 0.621s-0.621-0.266-0.621-0.621c0-0.355 0.266-0.621 0.621-0.621s0.621 0.266 0.621 0.621zM32.936 5.028c0 0.355-0.266 0.621-0.621 0.621s-0.621-0.266-0.621-0.621c0-0.355 0.266-0.621 0.621-0.621s0.621 0.266 0.621 0.621zM38.228 5.028c0 0.355-0.266 0.621-0.621 0.621s-0.621-0.266-0.621-0.621c0-0.355 0.266-0.621 0.621-0.621s0.621 0.266 0.621 0.621zM43.52 5.028c0 0.355-0.266 0.621-0.621 0.621s-0.621-0.266-0.621-0.621c0-0.355 0.266-0.621 0.621-0.621 0.325 0 0.621 0.266 0.621 0.621zM1.242 18.189c0 0.355-0.266 0.621-0.621 0.621s-0.621-0.266-0.621-0.621c0-0.355 0.266-0.621 0.621-0.621s0.621 0.296 0.621 0.621zM6.534 18.189c0 0.355-0.266 0.621-0.621 0.621s-0.621-0.266-0.621-0.621c0-0.355 0.266-0.621 0.621-0.621 0.325 0 0.621 0.296 0.621 0.621zM11.796 18.189c0 0.355-0.266 0.621-0.621 0.621s-0.621-0.266-0.621-0.621c0-0.355 0.266-0.621 0.621-0.621s0.621 0.296 0.621 0.621zM17.089 18.189c0 0.355-0.266 0.621-0.621 0.621s-0.621-0.266-0.621-0.621c0-0.355 0.266-0.621 0.621-0.621s0.621 0.296 0.621 0.621zM22.381 18.189c0 0.355-0.266 0.621-0.621 0.621s-0.621-0.266-0.621-0.621c0-0.355 0.266-0.621 0.621-0.621 0.325 0 0.621 0.296 0.621 0.621zM27.673 18.189c0 0.355-0.266 0.621-0.621 0.621s-0.621-0.266-0.621-0.621c0-0.355 0.266-0.621 0.621-0.621s0.621 0.296 0.621 0.621zM32.936 18.189c0 0.355-0.266 0.621-0.621 0.621s-0.621-0.266-0.621-0.621c0-0.355 0.266-0.621 0.621-0.621s0.621 0.296 0.621 0.621zM38.228 18.189c0 0.355-0.266 0.621-0.621 0.621s-0.621-0.266-0.621-0.621c0-0.355 0.266-0.621 0.621-0.621s0.621 0.296 0.621 0.621zM43.52 18.189c0 0.355-0.266 0.621-0.621 0.621s-0.621-0.266-0.621-0.621c0-0.355 0.266-0.621 0.621-0.621 0.325 0 0.621 0.296 0.621 0.621zM1.242 22.595c0 0.355-0.266 0.621-0.621 0.621s-0.621-0.266-0.621-0.621 0.266-0.621 0.621-0.621c0.355 0 0.621 0.266 0.621 0.621zM6.534 22.595c0 0.355-0.266 0.621-0.621 0.621s-0.621-0.266-0.621-0.621c0-0.355 0.266-0.621 0.621-0.621 0.325 0 0.621 0.266 0.621 0.621zM11.796 22.595c0 0.355-0.266 0.621-0.621 0.621s-0.621-0.266-0.621-0.621c0-0.355 0.266-0.621 0.621-0.621s0.621 0.266 0.621 0.621zM16.468 23.216c0.343 0 0.621-0.278 0.621-0.621s-0.278-0.621-0.621-0.621v0c-0.343 0-0.621 0.278-0.621 0.621s0.278 0.621 0.621 0.621v0zM22.381 22.595c0 0.355-0.266 0.621-0.621 0.621s-0.621-0.266-0.621-0.621c0-0.355 0.266-0.621 0.621-0.621 0.325 0 0.621 0.266 0.621 0.621zM27.673 22.595c0 0.355-0.266 0.621-0.621 0.621s-0.621-0.266-0.621-0.621c0-0.355 0.266-0.621 0.621-0.621s0.621 0.266 0.621 0.621zM32.936 22.595c0 0.355-0.266 0.621-0.621 0.621s-0.621-0.266-0.621-0.621c0-0.355 0.266-0.621 0.621-0.621s0.621 0.266 0.621 0.621zM37.607 23.216c0.343-0 0.621-0.278 0.621-0.621s-0.278-0.621-0.621-0.621c-0 0-0 0-0 0v0c-0.343 0-0.621 0.278-0.621 0.621s0.278 0.621 0.621 0.621c0 0 0 0 0 0v0zM43.52 22.595c0 0.355-0.266 0.621-0.621 0.621s-0.621-0.266-0.621-0.621c0-0.355 0.266-0.621 0.621-0.621 0.325 0 0.621 0.266 0.621 0.621zM1.242 27.002c0 0.355-0.266 0.621-0.621 0.621s-0.621-0.266-0.621-0.621c0-0.355 0.266-0.621 0.621-0.621s0.621 0.266 0.621 0.621zM6.534 27.002c0 0.355-0.266 0.621-0.621 0.621s-0.621-0.266-0.621-0.621c0-0.355 0.266-0.621 0.621-0.621 0.325 0 0.621 0.266 0.621 0.621zM11.796 27.002c0 0.355-0.266 0.621-0.621 0.621s-0.621-0.266-0.621-0.621c0-0.355 0.266-0.621 0.621-0.621s0.621 0.266 0.621 0.621zM17.089 27.002c0 0.355-0.266 0.621-0.621 0.621s-0.621-0.266-0.621-0.621c0-0.355 0.266-0.621 0.621-0.621s0.621 0.266 0.621 0.621zM22.381 27.002c0 0.355-0.266 0.621-0.621 0.621s-0.621-0.266-0.621-0.621c0-0.355 0.266-0.621 0.621-0.621 0.325 0 0.621 0.266 0.621 0.621zM27.673 27.002c0 0.355-0.266 0.621-0.621 0.621s-0.621-0.266-0.621-0.621c0-0.355 0.266-0.621 0.621-0.621s0.621 0.266 0.621 0.621zM32.936 27.002c0 0.355-0.266 0.621-0.621 0.621s-0.621-0.266-0.621-0.621c0-0.355 0.266-0.621 0.621-0.621s0.621 0.266 0.621 0.621zM38.228 27.002c0 0.355-0.266 0.621-0.621 0.621s-0.621-0.266-0.621-0.621c0-0.355 0.266-0.621 0.621-0.621s0.621 0.266 0.621 0.621zM43.52 27.002c0 0.355-0.266 0.621-0.621 0.621s-0.621-0.266-0.621-0.621c0-0.355 0.266-0.621 0.621-0.621 0.325 0 0.621 0.266 0.621 0.621zM1.242 31.379c0 0.355-0.266 0.621-0.621 0.621s-0.621-0.265-0.621-0.62c0-0.355 0.266-0.621 0.621-0.621s0.621 0.295 0.621 0.621zM6.534 31.379c0 0.355-0.266 0.621-0.621 0.621s-0.621-0.266-0.621-0.621c0-0.355 0.266-0.621 0.621-0.621 0.325 0 0.621 0.295 0.621 0.621zM11.796 31.379c0 0.355-0.266 0.621-0.621 0.621s-0.621-0.266-0.621-0.621c0-0.355 0.266-0.621 0.621-0.621s0.621 0.295 0.621 0.621zM17.089 31.379c0 0.355-0.266 0.621-0.621 0.621s-0.621-0.266-0.621-0.621c0-0.355 0.266-0.621 0.621-0.621s0.621 0.295 0.621 0.621zM22.381 31.379c0 0.355-0.266 0.621-0.621 0.621s-0.621-0.266-0.621-0.621c0-0.355 0.266-0.621 0.621-0.621 0.325 0 0.621 0.295 0.621 0.621zM27.673 31.379c0 0.355-0.266 0.621-0.621 0.621s-0.621-0.266-0.621-0.621c0-0.355 0.266-0.621 0.621-0.621s0.621 0.295 0.621 0.621zM32.936 31.379c0 0.355-0.266 0.621-0.621 0.621s-0.621-0.266-0.621-0.621c0-0.355 0.266-0.621 0.621-0.621s0.621 0.295 0.621 0.621zM38.228 31.379c0 0.355-0.266 0.621-0.621 0.621s-0.621-0.266-0.621-0.621c0-0.355 0.266-0.621 0.621-0.621s0.621 0.295 0.621 0.621zM43.52 31.379c0 0.355-0.266 0.621-0.621 0.621s-0.621-0.266-0.621-0.621c0-0.355 0.266-0.621 0.621-0.621 0.325 0 0.621 0.295 0.621 0.621z">
            </path>
        </symbol>
        <symbol id="icon-shapes-1" viewBox="0 0 38 32">
            <path fill="#ffcf2d" style="fill: var(--color1, #ffcf2d)" opacity="0.2"
                d="M29.75 18.033c3.495-2.018 4.699-6.506 2.683-9.998s-6.505-4.693-10-2.676l7.317 12.674zM19.857 23.745c3.495-2.018 4.699-6.506 2.683-9.998s-6.505-4.693-10.001-2.676l7.317 12.674zM9.963 29.457c3.495-2.018 4.699-6.506 2.683-9.999s-6.505-4.693-10.001-2.676l7.317 12.674z">
            </path>
        </symbol>
        <symbol id="icon-shapes-2" viewBox="0 0 32 32">
            <path fill="#ffcf2d" style="fill: var(--color1, #ffcf2d)" opacity="0.2"
                d="M26.919 13.598h5.081v-13.598h-13.575v5.114h8.494v8.484z"></path>
            <path fill="#ffcf2d" style="fill: var(--color1, #ffcf2d)" opacity="0.2"
                d="M17.686 22.779h5.12v-13.559h-13.614v5.075h8.494v8.484z"></path>
            <path fill="#ffcf2d" style="fill: var(--color1, #ffcf2d)" opacity="0.2"
                d="M8.494 32h5.12v-13.598h-13.614v5.114h8.494v8.484z"></path>
        </symbol>
        <symbol id="icon-braces" viewBox="0 0 46 32">
            <path fill="#ff3f3a" style="fill: var(--color1, #ff3f3a)"
                d="M28.806 14.28c0-0.488 0.219-0.926 0.564-1.219l0.002-0.002 15.434-13.059v30.4c0 0.884-0.716 1.6-1.6 1.6v0h-12.8c-0.884 0-1.6-0.716-1.6-1.6v0-16.12zM0.006 14.28c0-0.488 0.219-0.926 0.564-1.219l0.002-0.002 15.434-13.059v30.4c0 0.884-0.716 1.6-1.6 1.6v0h-12.8c-0.884 0-1.6-0.716-1.6-1.6v0-16.12z">
            </path>
        </symbol>
        <symbol id="icon-dots-2" viewBox="0 0 44 32">
            <path fill="#fff" style="fill: var(--color2, #fff)"
                d="M1.243 9.405c0 0.355-0.266 0.621-0.622 0.621s-0.622-0.266-0.622-0.621c0-0.355 0.266-0.621 0.622-0.621s0.622 0.296 0.622 0.621zM6.543 9.405c0 0.355-0.267 0.621-0.622 0.621s-0.622-0.266-0.622-0.621c0-0.355 0.266-0.621 0.622-0.621 0.325 0 0.622 0.296 0.622 0.621zM11.813 9.405c0 0.355-0.266 0.621-0.622 0.621s-0.622-0.266-0.622-0.621c0-0.355 0.266-0.621 0.622-0.621s0.622 0.296 0.622 0.621zM17.113 9.405c0 0.355-0.266 0.621-0.622 0.621s-0.622-0.266-0.622-0.621c0-0.355 0.266-0.621 0.622-0.621s0.622 0.296 0.622 0.621zM22.412 9.405c0 0.355-0.266 0.621-0.622 0.621s-0.622-0.266-0.622-0.621c0-0.355 0.266-0.621 0.622-0.621 0.326 0 0.622 0.296 0.622 0.621zM27.712 9.405c0 0.355-0.267 0.621-0.622 0.621s-0.622-0.266-0.622-0.621c0-0.355 0.266-0.621 0.622-0.621s0.622 0.296 0.622 0.621zM32.982 9.405c0 0.355-0.267 0.621-0.622 0.621s-0.622-0.266-0.622-0.621c0-0.355 0.266-0.621 0.622-0.621s0.622 0.296 0.622 0.621zM38.281 9.405c0 0.355-0.266 0.621-0.622 0.621s-0.622-0.266-0.622-0.621c0-0.355 0.266-0.621 0.622-0.621s0.622 0.296 0.622 0.621zM43.581 9.405c0 0.355-0.266 0.621-0.622 0.621s-0.622-0.266-0.622-0.621c0-0.355 0.266-0.621 0.622-0.621 0.326 0 0.622 0.296 0.622 0.621zM1.243 13.812c0 0.355-0.266 0.621-0.622 0.621s-0.622-0.266-0.622-0.621c0-0.355 0.266-0.621 0.622-0.621s0.622 0.266 0.622 0.621zM6.543 13.812c0 0.355-0.267 0.621-0.622 0.621s-0.622-0.266-0.622-0.621c0-0.355 0.266-0.621 0.622-0.621 0.325 0 0.622 0.266 0.622 0.621zM11.813 13.812c0 0.355-0.266 0.621-0.622 0.621s-0.622-0.266-0.622-0.621c0-0.355 0.266-0.621 0.622-0.621s0.622 0.266 0.622 0.621zM17.113 13.812c0 0.355-0.266 0.621-0.622 0.621s-0.622-0.266-0.622-0.621c0-0.355 0.266-0.621 0.622-0.621s0.622 0.266 0.622 0.621zM22.412 13.812c0 0.355-0.266 0.621-0.622 0.621s-0.622-0.266-0.622-0.621c0-0.355 0.266-0.621 0.622-0.621 0.326 0 0.622 0.266 0.622 0.621zM27.712 13.812c0 0.355-0.267 0.621-0.622 0.621s-0.622-0.266-0.622-0.621c0-0.355 0.266-0.621 0.622-0.621s0.622 0.266 0.622 0.621zM32.982 13.812c0 0.355-0.267 0.621-0.622 0.621s-0.622-0.266-0.622-0.621c0-0.355 0.266-0.621 0.622-0.621s0.622 0.266 0.622 0.621zM38.281 13.812c0 0.355-0.266 0.621-0.622 0.621s-0.622-0.266-0.622-0.621c0-0.355 0.266-0.621 0.622-0.621s0.622 0.266 0.622 0.621zM43.581 13.812c0 0.355-0.266 0.621-0.622 0.621s-0.622-0.266-0.622-0.621c0-0.355 0.266-0.621 0.622-0.621 0.326 0 0.622 0.266 0.622 0.621zM1.243 0.621c0 0.355-0.266 0.621-0.622 0.621s-0.622-0.266-0.622-0.621c0-0.355 0.266-0.621 0.622-0.621s0.622 0.266 0.622 0.621zM6.543 0.621c0 0.355-0.267 0.621-0.622 0.621s-0.622-0.266-0.622-0.621c0-0.355 0.266-0.621 0.622-0.621 0.325 0 0.622 0.266 0.622 0.621zM11.813 0.621c0 0.355-0.266 0.621-0.622 0.621s-0.622-0.266-0.622-0.621c0-0.355 0.296-0.621 0.622-0.621 0.355 0 0.622 0.266 0.622 0.621zM17.113 0.621c0 0.355-0.266 0.621-0.622 0.621s-0.622-0.266-0.622-0.621c-0-0.355 0.296-0.621 0.621-0.621s0.622 0.266 0.622 0.621zM22.412 0.621c0 0.355-0.266 0.621-0.622 0.621s-0.622-0.266-0.622-0.621c0-0.355 0.266-0.621 0.622-0.621 0.326 0 0.622 0.266 0.622 0.621zM27.712 0.621c0 0.355-0.267 0.621-0.622 0.621s-0.622-0.266-0.622-0.621c0-0.355 0.266-0.621 0.622-0.621s0.622 0.266 0.622 0.621zM32.982 0.621c0 0.355-0.267 0.621-0.622 0.621s-0.622-0.266-0.622-0.621c0-0.355 0.266-0.621 0.622-0.621s0.622 0.266 0.622 0.621zM38.281 0.621c0 0.355-0.266 0.621-0.622 0.621s-0.622-0.266-0.622-0.621c0-0.355 0.266-0.621 0.622-0.621s0.622 0.266 0.622 0.621zM43.581 0.621c0 0.355-0.266 0.621-0.622 0.621s-0.622-0.266-0.622-0.621c0-0.355 0.266-0.621 0.622-0.621 0.326 0 0.622 0.266 0.622 0.621zM1.243 5.028c0 0.355-0.266 0.621-0.622 0.621s-0.622-0.296-0.622-0.621c0-0.355 0.266-0.621 0.622-0.621s0.622 0.266 0.622 0.621zM6.543 5.028c0 0.355-0.267 0.621-0.622 0.621s-0.622-0.266-0.622-0.621c0-0.355 0.266-0.621 0.622-0.621 0.325 0 0.622 0.266 0.622 0.621zM11.813 5.028c0 0.355-0.266 0.621-0.622 0.621s-0.622-0.266-0.622-0.621c0-0.355 0.266-0.621 0.622-0.621s0.622 0.266 0.622 0.621zM17.113 5.028c0 0.355-0.266 0.621-0.622 0.621s-0.622-0.266-0.622-0.621c0-0.355 0.266-0.621 0.622-0.621s0.622 0.266 0.622 0.621zM22.412 5.028c0 0.355-0.266 0.621-0.622 0.621s-0.622-0.266-0.622-0.621c0-0.355 0.266-0.621 0.622-0.621 0.326 0 0.622 0.266 0.622 0.621zM27.712 5.028c0 0.355-0.267 0.621-0.622 0.621s-0.622-0.266-0.622-0.621c0-0.355 0.266-0.621 0.622-0.621s0.622 0.266 0.622 0.621zM32.982 5.028c0 0.355-0.267 0.621-0.622 0.621s-0.622-0.266-0.622-0.621c0-0.355 0.266-0.621 0.622-0.621s0.622 0.266 0.622 0.621zM38.281 5.028c0 0.355-0.266 0.621-0.622 0.621s-0.622-0.266-0.622-0.621c0-0.355 0.266-0.621 0.622-0.621s0.622 0.266 0.622 0.621zM43.581 5.028c0 0.355-0.266 0.621-0.622 0.621s-0.622-0.266-0.622-0.621c0-0.355 0.266-0.621 0.622-0.621 0.326 0 0.622 0.266 0.622 0.621zM1.243 18.188c0 0.355-0.266 0.621-0.622 0.621s-0.622-0.266-0.622-0.621c0-0.355 0.266-0.621 0.622-0.621s0.622 0.296 0.622 0.621zM6.543 18.188c0 0.355-0.267 0.621-0.622 0.621s-0.622-0.266-0.622-0.621c0-0.355 0.266-0.621 0.622-0.621 0.325 0 0.622 0.296 0.622 0.621zM11.813 18.188c0 0.355-0.266 0.621-0.622 0.621s-0.622-0.266-0.622-0.621c0-0.355 0.266-0.621 0.622-0.621s0.622 0.296 0.622 0.621zM17.113 18.188c0 0.355-0.266 0.621-0.622 0.621s-0.622-0.266-0.622-0.621c0-0.355 0.266-0.621 0.622-0.621s0.622 0.296 0.622 0.621zM22.412 18.188c0 0.355-0.266 0.621-0.622 0.621s-0.622-0.266-0.622-0.621c0-0.355 0.266-0.621 0.622-0.621 0.326 0 0.622 0.296 0.622 0.621zM27.712 18.188c0 0.355-0.267 0.621-0.622 0.621s-0.622-0.266-0.622-0.621c0-0.355 0.266-0.621 0.622-0.621s0.622 0.296 0.622 0.621zM32.982 18.188c0 0.355-0.267 0.621-0.622 0.621s-0.622-0.266-0.622-0.621c0-0.355 0.266-0.621 0.622-0.621s0.622 0.296 0.622 0.621zM38.281 18.188c0 0.355-0.266 0.621-0.622 0.621s-0.622-0.266-0.622-0.621c0-0.355 0.266-0.621 0.622-0.621s0.622 0.296 0.622 0.621zM43.581 18.188c0 0.355-0.266 0.621-0.622 0.621s-0.622-0.266-0.622-0.621c0-0.355 0.266-0.621 0.622-0.621 0.326 0 0.622 0.296 0.622 0.621zM1.243 22.595c0 0.355-0.266 0.621-0.622 0.621s-0.622-0.266-0.622-0.621c0-0.355 0.266-0.621 0.622-0.621s0.622 0.266 0.622 0.621zM6.543 22.595c0 0.355-0.267 0.621-0.622 0.621s-0.622-0.266-0.622-0.621c0-0.355 0.266-0.621 0.622-0.621 0.325 0 0.622 0.266 0.622 0.621zM11.813 22.595c0 0.355-0.266 0.621-0.622 0.621s-0.622-0.266-0.622-0.621c0-0.355 0.266-0.621 0.622-0.621s0.622 0.266 0.622 0.621zM16.491 23.216c0.343-0 0.621-0.278 0.621-0.621s-0.278-0.621-0.621-0.621-0.621 0.278-0.621 0.621c0 0 0 0 0 0v-0c0 0.343 0.279 0.621 0.622 0.621zM22.412 22.595c0 0.355-0.266 0.621-0.622 0.621s-0.622-0.266-0.622-0.621c0-0.355 0.266-0.621 0.622-0.621 0.326 0 0.622 0.266 0.622 0.621zM27.712 22.595c0 0.355-0.267 0.621-0.622 0.621s-0.622-0.266-0.622-0.621c0-0.355 0.266-0.621 0.622-0.621s0.622 0.266 0.622 0.621zM32.982 22.595c0 0.355-0.267 0.621-0.622 0.621s-0.622-0.266-0.622-0.621c0-0.355 0.266-0.621 0.622-0.621s0.622 0.266 0.622 0.621zM37.66 23.216c0.007 0 0.015 0 0.024 0 0.343 0 0.621-0.278 0.621-0.621s-0.278-0.621-0.621-0.621c-0.008 0-0.017 0-0.025 0l0.001-0c-0.007-0-0.015-0-0.024-0-0.343 0-0.621 0.278-0.621 0.621s0.278 0.621 0.621 0.621c0.008 0 0.017-0 0.025-0l-0.001 0zM43.581 22.595c0 0.355-0.266 0.621-0.622 0.621s-0.622-0.266-0.622-0.621c0-0.355 0.266-0.621 0.622-0.621 0.326 0 0.622 0.266 0.622 0.621zM1.243 27.002c0 0.355-0.266 0.621-0.622 0.621s-0.622-0.266-0.622-0.621c0-0.355 0.266-0.621 0.622-0.621s0.622 0.266 0.622 0.621zM6.543 27.002c0 0.355-0.267 0.621-0.622 0.621s-0.622-0.266-0.622-0.621c0-0.355 0.266-0.621 0.622-0.621 0.325 0 0.622 0.266 0.622 0.621zM11.813 27.002c0 0.355-0.266 0.621-0.622 0.621s-0.622-0.266-0.622-0.621c0-0.355 0.266-0.621 0.622-0.621s0.622 0.266 0.622 0.621zM17.113 27.002c0 0.355-0.266 0.621-0.622 0.621s-0.622-0.266-0.622-0.621c0-0.355 0.266-0.621 0.622-0.621s0.622 0.266 0.622 0.621zM22.412 27.002c0 0.355-0.266 0.621-0.622 0.621s-0.622-0.266-0.622-0.621c0-0.355 0.266-0.621 0.622-0.621 0.326 0 0.622 0.266 0.622 0.621zM27.712 27.002c0 0.355-0.267 0.621-0.622 0.621s-0.622-0.266-0.622-0.621c0-0.355 0.266-0.621 0.622-0.621s0.622 0.266 0.622 0.621zM32.982 27.002c0 0.355-0.267 0.621-0.622 0.621s-0.622-0.266-0.622-0.621c0-0.355 0.266-0.621 0.622-0.621s0.622 0.266 0.622 0.621zM38.281 27.002c0 0.355-0.266 0.621-0.622 0.621s-0.622-0.266-0.622-0.621c0-0.355 0.266-0.621 0.622-0.621s0.622 0.266 0.622 0.621zM43.581 27.002c0 0.355-0.266 0.621-0.622 0.621s-0.622-0.266-0.622-0.621c0-0.355 0.266-0.621 0.622-0.621 0.326 0 0.622 0.266 0.622 0.621zM1.243 31.379c0 0.355-0.266 0.621-0.622 0.621s-0.622-0.266-0.622-0.621c0-0.355 0.266-0.621 0.622-0.621s0.622 0.296 0.622 0.621zM6.543 31.379c0 0.355-0.267 0.621-0.622 0.621s-0.622-0.266-0.622-0.621c0-0.355 0.266-0.621 0.622-0.621 0.325 0 0.622 0.296 0.622 0.621zM11.813 31.379c0 0.355-0.266 0.621-0.622 0.621s-0.622-0.266-0.622-0.621c0-0.355 0.266-0.621 0.622-0.621s0.622 0.296 0.622 0.621zM17.113 31.379c0 0.355-0.266 0.621-0.622 0.621s-0.622-0.266-0.622-0.621c0-0.355 0.266-0.621 0.622-0.621s0.622 0.296 0.622 0.621zM22.412 31.379c0 0.355-0.266 0.621-0.622 0.621s-0.622-0.266-0.622-0.621c0-0.355 0.266-0.621 0.622-0.621 0.326 0 0.622 0.296 0.622 0.621zM27.712 31.379c0 0.355-0.267 0.621-0.622 0.621s-0.622-0.266-0.622-0.621c0-0.355 0.266-0.621 0.622-0.621s0.622 0.296 0.622 0.621zM32.982 31.379c0 0.355-0.267 0.621-0.622 0.621s-0.622-0.266-0.622-0.621c0-0.355 0.266-0.621 0.622-0.621s0.622 0.296 0.622 0.621zM38.281 31.379c0 0.355-0.266 0.621-0.622 0.621s-0.622-0.266-0.622-0.621c0-0.355 0.266-0.621 0.622-0.621s0.622 0.296 0.622 0.621zM43.581 31.379c0 0.355-0.266 0.621-0.622 0.621s-0.622-0.266-0.622-0.621c0-0.355 0.266-0.621 0.622-0.621 0.326 0 0.622 0.296 0.622 0.621z">
            </path>
        </symbol>
        <symbol id="icon-circles-3" viewBox="0 0 16 32">
            <path fill="#fff" style="fill: var(--color2, #fff)" opacity="0.4"
                d="M16.011 0c-8.851 0-16.011 7.16-16.011 16.011 0 8.829 7.16 16.011 16.011 16.011 8.829 0 16.011-7.16 16.011-16.011-0.022-8.851-7.182-16.011-16.011-16.011zM16.011 30.99c-8.28 0-14.979-6.699-14.979-14.979s6.699-14.979 14.979-14.979c8.28 0 14.979 6.699 14.979 14.979 0 8.258-6.721 14.979-14.979 14.979z">
            </path>
            <path fill="#fff" style="fill: var(--color2, #fff)" opacity="0.4"
                d="M16.011 3.448c-6.918 0-12.541 5.623-12.541 12.541s5.622 12.541 12.541 12.541c6.918 0 12.541-5.601 12.541-12.519 0-6.94-5.622-12.563-12.541-12.563zM16.011 26.619c-5.864 0-10.63-4.766-10.63-10.63s4.766-10.63 10.63-10.63c5.864 0 10.63 4.766 10.63 10.63s-4.766 10.63-10.63 10.63z">
            </path>
        </symbol>
        <symbol id="icon-shapes-3" viewBox="0 0 59 32">
            <path fill="#fff" style="fill: var(--color2, #fff)" opacity="0.6"
                d="M44.142 28.749c7.116 0 12.914-5.848 12.914-13.028s-5.797-13.029-12.914-13.029v26.056zM23.995 28.749c7.117 0 12.914-5.848 12.914-13.028s-5.797-13.029-12.914-13.029v26.056zM3.848 28.749c7.117 0 12.914-5.848 12.914-13.028s-5.797-13.029-12.914-13.029v26.056z">
            </path>
        </symbol>
        <symbol id="icon-circles-2" viewBox="0 0 32 32">
            <path fill="#fff" style="fill: var(--color2, #fff)" opacity="0.6"
                d="M16.010 0c-8.276 0-14.97 6.694-14.97 14.97 0 8.255 6.694 14.97 14.97 14.97 8.255 0 14.97-6.694 14.97-14.97-0.021-8.275-6.715-14.97-14.97-14.97zM16.010 28.974c-7.742 0-14.005-6.263-14.005-14.005s6.263-14.005 14.005-14.005c7.741 0 14.004 6.263 14.004 14.005 0 7.721-6.283 14.005-14.005 14.005z">
            </path>
            <path fill="#fff" style="fill: var(--color2, #fff)" opacity="0.6"
                d="M16.010 3.224c-6.468 0-11.726 5.257-11.726 11.725s5.257 11.725 11.726 11.725c6.468 0 11.725-5.236 11.725-11.705 0-6.489-5.257-11.746-11.725-11.746zM16.010 24.888c-5.483 0-9.939-4.456-9.939-9.939s4.456-9.939 9.938-9.939c5.483 0 9.939 4.456 9.939 9.939s-4.456 9.939-9.939 9.939z">
            </path>
            <path fill="#fff" style="fill: var(--color2, #fff)" opacity="0.6"
                d="M16.010 8.378c-3.634 0-6.591 2.957-6.591 6.591s2.936 6.592 6.591 6.592c3.634 0 6.591-2.957 6.591-6.592-0.021-3.634-2.957-6.591-6.591-6.591zM16.010 18.501c-1.951 0-3.532-1.581-3.532-3.532s1.581-3.532 3.532-3.532 3.532 1.581 3.532 3.532c0 1.951-1.581 3.532-3.532 3.532z">
            </path>
        </symbol>
    </defs>
</svg>