<svg aria-hidden="true" style="position: absolute; width: 0; height: 0; overflow: hidden;" version="1.1"
    xmlns="http://www.w3.org/2000/svg" xmlns:xlink="http://www.w3.org/1999/xlink">
    <defs>
        <symbol id="icon-circles-1" viewBox="0 0 19 32">
            <path fill="#ffcf2d" style="fill: var(--color1, #ffcf2d)" opacity="0.12"
                d="M16.011 0c-8.851 0-16.011 7.16-16.011 16.011 0 8.829 7.16 16.011 16.011 16.011 8.829 0 16.011-7.16 16.011-16.011-0.022-8.851-7.182-16.011-16.011-16.011zM16.011 30.99c-8.28 0-14.979-6.699-14.979-14.979s6.699-14.979 14.979-14.979c8.28 0 14.979 6.699 14.979 14.979 0 8.258-6.721 14.979-14.979 14.979z">
            </path>
            <path fill="#ffcf2d" style="fill: var(--color1, #ffcf2d)" opacity="0.12"
                d="M16.011 3.448c-6.918 0-12.541 5.622-12.541 12.541s5.622 12.541 12.541 12.541 12.541-5.601 12.541-12.519c0-6.94-5.622-12.563-12.541-12.563zM16.011 26.619c-5.864 0-10.63-4.766-10.63-10.63s4.766-10.63 10.63-10.63c5.864 0 10.63 4.766 10.63 10.63s-4.766 10.63-10.63 10.63z">
            </path>
        </symbol>
        <symbol id="icon-dots-1" viewBox="0 0 44 32">
            <path fill="#ffcf2d" style="fill: var(--color1, #ffcf2d)" opacity="0.8"
                d="M1.242 9.405c0 0.355-0.266 0.621-0.621 0.621s-0.621-0.266-0.621-0.621c0-0.355 0.266-0.621 0.621-0.621s0.621 0.295 0.621 0.621zM6.534 9.405c0 0.355-0.266 0.621-0.621 0.621s-0.621-0.266-0.621-0.621c0-0.355 0.266-0.621 0.621-0.621 0.325 0 0.621 0.295 0.621 0.621zM11.796 9.405c0 0.355-0.266 0.621-0.621 0.621s-0.621-0.266-0.621-0.621c0-0.355 0.266-0.621 0.621-0.621s0.621 0.295 0.621 0.621zM17.089 9.405c0 0.355-0.266 0.621-0.621 0.621s-0.621-0.266-0.621-0.621c0-0.355 0.266-0.621 0.621-0.621s0.621 0.295 0.621 0.621zM22.381 9.405c0 0.355-0.266 0.621-0.621 0.621s-0.621-0.266-0.621-0.621c0-0.355 0.266-0.621 0.621-0.621 0.325 0 0.621 0.295 0.621 0.621zM27.673 9.405c0 0.355-0.266 0.621-0.621 0.621s-0.621-0.266-0.621-0.621c0-0.355 0.266-0.621 0.621-0.621s0.621 0.295 0.621 0.621zM32.936 9.405c0 0.355-0.266 0.621-0.621 0.621s-0.621-0.266-0.621-0.621c0-0.355 0.266-0.621 0.621-0.621s0.621 0.295 0.621 0.621zM38.228 9.405c0 0.355-0.266 0.621-0.621 0.621s-0.621-0.266-0.621-0.621c0-0.355 0.266-0.621 0.621-0.621s0.621 0.295 0.621 0.621zM43.52 9.405c0 0.355-0.266 0.621-0.621 0.621s-0.621-0.266-0.621-0.621c0-0.355 0.266-0.621 0.621-0.621 0.325 0 0.621 0.295 0.621 0.621zM1.242 13.811c0 0.355-0.266 0.621-0.621 0.621s-0.621-0.266-0.621-0.621c0-0.355 0.266-0.621 0.621-0.621s0.621 0.266 0.621 0.621zM6.534 13.811c0 0.355-0.266 0.621-0.621 0.621s-0.621-0.266-0.621-0.621c0-0.355 0.266-0.621 0.621-0.621 0.325 0 0.621 0.266 0.621 0.621zM11.796 13.811c0 0.355-0.266 0.621-0.621 0.621s-0.621-0.266-0.621-0.621c0-0.355 0.266-0.621 0.621-0.621s0.621 0.266 0.621 0.621zM17.089 13.811c0 0.355-0.266 0.621-0.621 0.621s-0.621-0.266-0.621-0.621c0-0.355 0.266-0.621 0.621-0.621s0.621 0.266 0.621 0.621zM22.381 13.811c0 0.355-0.266 0.621-0.621 0.621s-0.621-0.266-0.621-0.621c0-0.355 0.266-0.621 0.621-0.621 0.325 0 0.621 0.266 0.621 0.621zM27.673 13.811c0 0.355-0.266 0.621-0.621 0.621s-0.621-0.266-0.621-0.621c0-0.355 0.266-0.621 0.621-0.621s0.621 0.266 0.621 0.621zM32.936 13.811c0 0.355-0.266 0.621-0.621 0.621s-0.621-0.266-0.621-0.621c0-0.355 0.266-0.621 0.621-0.621s0.621 0.266 0.621 0.621zM38.228 13.811c0 0.355-0.266 0.621-0.621 0.621s-0.621-0.266-0.621-0.621c0-0.355 0.266-0.621 0.621-0.621s0.621 0.266 0.621 0.621zM43.52 13.811c0 0.355-0.266 0.621-0.621 0.621s-0.621-0.266-0.621-0.621c0-0.355 0.266-0.621 0.621-0.621 0.325 0 0.621 0.266 0.621 0.621zM1.242 0.621c0 0.355-0.266 0.621-0.621 0.621s-0.621-0.266-0.621-0.621 0.266-0.621 0.621-0.621c0.355 0 0.621 0.266 0.621 0.621zM6.534 0.621c0 0.355-0.266 0.621-0.621 0.621s-0.621-0.266-0.621-0.621c0-0.355 0.266-0.621 0.621-0.621 0.325 0 0.621 0.266 0.621 0.621zM11.796 0.621c0 0.355-0.266 0.621-0.621 0.621s-0.621-0.266-0.621-0.621c0-0.355 0.296-0.621 0.621-0.621 0.355 0 0.621 0.266 0.621 0.621zM17.089 0.621c0 0.355-0.266 0.621-0.621 0.621s-0.621-0.266-0.621-0.621c0-0.355 0.296-0.621 0.621-0.621s0.621 0.266 0.621 0.621zM22.381 0.621c0 0.355-0.266 0.621-0.621 0.621s-0.621-0.266-0.621-0.621c0-0.356 0.266-0.621 0.621-0.621 0.325 0 0.621 0.266 0.621 0.621zM27.673 0.621c0 0.355-0.266 0.621-0.621 0.621s-0.621-0.266-0.621-0.621c0-0.355 0.266-0.621 0.621-0.621s0.621 0.266 0.621 0.621zM32.936 0.621c0 0.355-0.266 0.621-0.621 0.621s-0.621-0.266-0.621-0.621c0-0.355 0.266-0.621 0.621-0.621s0.621 0.266 0.621 0.621zM38.228 0.621c0 0.355-0.266 0.621-0.621 0.621s-0.621-0.266-0.621-0.621c0-0.355 0.266-0.621 0.621-0.621s0.621 0.266 0.621 0.621zM43.52 0.621c0 0.355-0.266 0.621-0.621 0.621s-0.621-0.266-0.621-0.621c0-0.355 0.266-0.621 0.621-0.621 0.325 0 0.621 0.266 0.621 0.621zM1.242 5.028c0 0.355-0.266 0.621-0.621 0.621s-0.621-0.296-0.621-0.621c0-0.355 0.266-0.621 0.621-0.621s0.621 0.266 0.621 0.621zM6.534 5.028c0 0.355-0.266 0.621-0.621 0.621s-0.621-0.266-0.621-0.621c0-0.355 0.266-0.621 0.621-0.621 0.325 0 0.621 0.266 0.621 0.621zM11.796 5.028c0 0.355-0.266 0.621-0.621 0.621s-0.621-0.266-0.621-0.621c0-0.355 0.266-0.621 0.621-0.621s0.621 0.266 0.621 0.621zM17.089 5.028c0 0.355-0.266 0.621-0.621 0.621s-0.621-0.266-0.621-0.621c0-0.355 0.266-0.621 0.621-0.621s0.621 0.266 0.621 0.621zM22.381 5.028c0 0.355-0.266 0.621-0.621 0.621s-0.621-0.266-0.621-0.621c0-0.355 0.266-0.621 0.621-0.621 0.325 0 0.621 0.266 0.621 0.621zM27.673 5.028c0 0.355-0.266 0.621-0.621 0.621s-0.621-0.266-0.621-0.621c0-0.355 0.266-0.621 0.621-0.621s0.621 0.266 0.621 0.621zM32.936 5.028c0 0.355-0.266 0.621-0.621 0.621s-0.621-0.266-0.621-0.621c0-0.355 0.266-0.621 0.621-0.621s0.621 0.266 0.621 0.621zM38.228 5.028c0 0.355-0.266 0.621-0.621 0.621s-0.621-0.266-0.621-0.621c0-0.355 0.266-0.621 0.621-0.621s0.621 0.266 0.621 0.621zM43.52 5.028c0 0.355-0.266 0.621-0.621 0.621s-0.621-0.266-0.621-0.621c0-0.355 0.266-0.621 0.621-0.621 0.325 0 0.621 0.266 0.621 0.621zM1.242 18.189c0 0.355-0.266 0.621-0.621 0.621s-0.621-0.266-0.621-0.621c0-0.355 0.266-0.621 0.621-0.621s0.621 0.296 0.621 0.621zM6.534 18.189c0 0.355-0.266 0.621-0.621 0.621s-0.621-0.266-0.621-0.621c0-0.355 0.266-0.621 0.621-0.621 0.325 0 0.621 0.296 0.621 0.621zM11.796 18.189c0 0.355-0.266 0.621-0.621 0.621s-0.621-0.266-0.621-0.621c0-0.355 0.266-0.621 0.621-0.621s0.621 0.296 0.621 0.621zM17.089 18.189c0 0.355-0.266 0.621-0.621 0.621s-0.621-0.266-0.621-0.621c0-0.355 0.266-0.621 0.621-0.621s0.621 0.296 0.621 0.621zM22.381 18.189c0 0.355-0.266 0.621-0.621 0.621s-0.621-0.266-0.621-0.621c0-0.355 0.266-0.621 0.621-0.621 0.325 0 0.621 0.296 0.621 0.621zM27.673 18.189c0 0.355-0.266 0.621-0.621 0.621s-0.621-0.266-0.621-0.621c0-0.355 0.266-0.621 0.621-0.621s0.621 0.296 0.621 0.621zM32.936 18.189c0 0.355-0.266 0.621-0.621 0.621s-0.621-0.266-0.621-0.621c0-0.355 0.266-0.621 0.621-0.621s0.621 0.296 0.621 0.621zM38.228 18.189c0 0.355-0.266 0.621-0.621 0.621s-0.621-0.266-0.621-0.621c0-0.355 0.266-0.621 0.621-0.621s0.621 0.296 0.621 0.621zM43.52 18.189c0 0.355-0.266 0.621-0.621 0.621s-0.621-0.266-0.621-0.621c0-0.355 0.266-0.621 0.621-0.621 0.325 0 0.621 0.296 0.621 0.621zM1.242 22.595c0 0.355-0.266 0.621-0.621 0.621s-0.621-0.266-0.621-0.621 0.266-0.621 0.621-0.621c0.355 0 0.621 0.266 0.621 0.621zM6.534 22.595c0 0.355-0.266 0.621-0.621 0.621s-0.621-0.266-0.621-0.621c0-0.355 0.266-0.621 0.621-0.621 0.325 0 0.621 0.266 0.621 0.621zM11.796 22.595c0 0.355-0.266 0.621-0.621 0.621s-0.621-0.266-0.621-0.621c0-0.355 0.266-0.621 0.621-0.621s0.621 0.266 0.621 0.621zM16.468 23.216c0.343 0 0.621-0.278 0.621-0.621s-0.278-0.621-0.621-0.621v0c-0.343 0-0.621 0.278-0.621 0.621s0.278 0.621 0.621 0.621v0zM22.381 22.595c0 0.355-0.266 0.621-0.621 0.621s-0.621-0.266-0.621-0.621c0-0.355 0.266-0.621 0.621-0.621 0.325 0 0.621 0.266 0.621 0.621zM27.673 22.595c0 0.355-0.266 0.621-0.621 0.621s-0.621-0.266-0.621-0.621c0-0.355 0.266-0.621 0.621-0.621s0.621 0.266 0.621 0.621zM32.936 22.595c0 0.355-0.266 0.621-0.621 0.621s-0.621-0.266-0.621-0.621c0-0.355 0.266-0.621 0.621-0.621s0.621 0.266 0.621 0.621zM37.607 23.216c0.343-0 0.621-0.278 0.621-0.621s-0.278-0.621-0.621-0.621c-0 0-0 0-0 0v0c-0.343 0-0.621 0.278-0.621 0.621s0.278 0.621 0.621 0.621c0 0 0 0 0 0v0zM43.52 22.595c0 0.355-0.266 0.621-0.621 0.621s-0.621-0.266-0.621-0.621c0-0.355 0.266-0.621 0.621-0.621 0.325 0 0.621 0.266 0.621 0.621zM1.242 27.002c0 0.355-0.266 0.621-0.621 0.621s-0.621-0.266-0.621-0.621c0-0.355 0.266-0.621 0.621-0.621s0.621 0.266 0.621 0.621zM6.534 27.002c0 0.355-0.266 0.621-0.621 0.621s-0.621-0.266-0.621-0.621c0-0.355 0.266-0.621 0.621-0.621 0.325 0 0.621 0.266 0.621 0.621zM11.796 27.002c0 0.355-0.266 0.621-0.621 0.621s-0.621-0.266-0.621-0.621c0-0.355 0.266-0.621 0.621-0.621s0.621 0.266 0.621 0.621zM17.089 27.002c0 0.355-0.266 0.621-0.621 0.621s-0.621-0.266-0.621-0.621c0-0.355 0.266-0.621 0.621-0.621s0.621 0.266 0.621 0.621zM22.381 27.002c0 0.355-0.266 0.621-0.621 0.621s-0.621-0.266-0.621-0.621c0-0.355 0.266-0.621 0.621-0.621 0.325 0 0.621 0.266 0.621 0.621zM27.673 27.002c0 0.355-0.266 0.621-0.621 0.621s-0.621-0.266-0.621-0.621c0-0.355 0.266-0.621 0.621-0.621s0.621 0.266 0.621 0.621zM32.936 27.002c0 0.355-0.266 0.621-0.621 0.621s-0.621-0.266-0.621-0.621c0-0.355 0.266-0.621 0.621-0.621s0.621 0.266 0.621 0.621zM38.228 27.002c0 0.355-0.266 0.621-0.621 0.621s-0.621-0.266-0.621-0.621c0-0.355 0.266-0.621 0.621-0.621s0.621 0.266 0.621 0.621zM43.52 27.002c0 0.355-0.266 0.621-0.621 0.621s-0.621-0.266-0.621-0.621c0-0.355 0.266-0.621 0.621-0.621 0.325 0 0.621 0.266 0.621 0.621zM1.242 31.379c0 0.355-0.266 0.621-0.621 0.621s-0.621-0.265-0.621-0.62c0-0.355 0.266-0.621 0.621-0.621s0.621 0.295 0.621 0.621zM6.534 31.379c0 0.355-0.266 0.621-0.621 0.621s-0.621-0.266-0.621-0.621c0-0.355 0.266-0.621 0.621-0.621 0.325 0 0.621 0.295 0.621 0.621zM11.796 31.379c0 0.355-0.266 0.621-0.621 0.621s-0.621-0.266-0.621-0.621c0-0.355 0.266-0.621 0.621-0.621s0.621 0.295 0.621 0.621zM17.089 31.379c0 0.355-0.266 0.621-0.621 0.621s-0.621-0.266-0.621-0.621c0-0.355 0.266-0.621 0.621-0.621s0.621 0.295 0.621 0.621zM22.381 31.379c0 0.355-0.266 0.621-0.621 0.621s-0.621-0.266-0.621-0.621c0-0.355 0.266-0.621 0.621-0.621 0.325 0 0.621 0.295 0.621 0.621zM27.673 31.379c0 0.355-0.266 0.621-0.621 0.621s-0.621-0.266-0.621-0.621c0-0.355 0.266-0.621 0.621-0.621s0.621 0.295 0.621 0.621zM32.936 31.379c0 0.355-0.266 0.621-0.621 0.621s-0.621-0.266-0.621-0.621c0-0.355 0.266-0.621 0.621-0.621s0.621 0.295 0.621 0.621zM38.228 31.379c0 0.355-0.266 0.621-0.621 0.621s-0.621-0.266-0.621-0.621c0-0.355 0.266-0.621 0.621-0.621s0.621 0.295 0.621 0.621zM43.52 31.379c0 0.355-0.266 0.621-0.621 0.621s-0.621-0.266-0.621-0.621c0-0.355 0.266-0.621 0.621-0.621 0.325 0 0.621 0.295 0.621 0.621z">
            </path>
        </symbol>
        <symbol id="icon-shapes-1" viewBox="0 0 38 32">
            <path fill="#ffcf2d" style="fill: var(--color1, #ffcf2d)" opacity="0.2"
                d="M29.75 18.033c3.495-2.018 4.699-6.506 2.683-9.998s-6.505-4.693-10-2.676l7.317 12.674zM19.857 23.745c3.495-2.018 4.699-6.506 2.683-9.998s-6.505-4.693-10.001-2.676l7.317 12.674zM9.963 29.457c3.495-2.018 4.699-6.506 2.683-9.999s-6.505-4.693-10.001-2.676l7.317 12.674z">
            </path>
        </symbol>
        <symbol id="icon-shapes-2" viewBox="0 0 32 32">
            <path fill="#ffcf2d" style="fill: var(--color1, #ffcf2d)" opacity="0.2"
                d="M26.919 13.598h5.081v-13.598h-13.575v5.114h8.494v8.484z"></path>
            <path fill="#ffcf2d" style="fill: var(--color1, #ffcf2d)" opacity="0.2"
                d="M17.686 22.779h5.12v-13.559h-13.614v5.075h8.494v8.484z"></path>
            <path fill="#ffcf2d" style="fill: var(--color1, #ffcf2d)" opacity="0.2"
                d="M8.494 32h5.12v-13.598h-13.614v5.114h8.494v8.484z"></path>
        </symbol>
        <symbol id="icon-braces" viewBox="0 0 46 32">
            <path fill="#ff3f3a" style="fill: var(--color1, #ff3f3a)"
                d="M28.806 14.28c0-0.488 0.219-0.926 0.564-1.219l0.002-0.002 15.434-13.059v30.4c0 0.884-0.716 1.6-1.6 1.6v0h-12.8c-0.884 0-1.6-0.716-1.6-1.6v0-16.12zM0.006 14.28c0-0.488 0.219-0.926 0.564-1.219l0.002-0.002 15.434-13.059v30.4c0 0.884-0.716 1.6-1.6 1.6v0h-12.8c-0.884 0-1.6-0.716-1.6-1.6v0-16.12z">
            </path>
        </symbol>
        <symbol id="icon-dots-2" viewBox="0 0 44 32">
            <path fill="#fff" style="fill: var(--color2, #fff)"
                d="M1.243 9.405c0 0.355-0.266 0.621-0.622 0.621s-0.622-0.266-0.622-0.621c0-0.355 0.266-0.621 0.622-0.621s0.622 0.296 0.622 0.621zM6.543 9.405c0 0.355-0.267 0.621-0.622 0.621s-0.622-0.266-0.622-0.621c0-0.355 0.266-0.621 0.622-0.621 0.325 0 0.622 0.296 0.622 0.621zM11.813 9.405c0 0.355-0.266 0.621-0.622 0.621s-0.622-0.266-0.622-0.621c0-0.355 0.266-0.621 0.622-0.621s0.622 0.296 0.622 0.621zM17.113 9.405c0 0.355-0.266 0.621-0.622 0.621s-0.622-0.266-0.622-0.621c0-0.355 0.266-0.621 0.622-0.621s0.622 0.296 0.622 0.621zM22.412 9.405c0 0.355-0.266 0.621-0.622 0.621s-0.622-0.266-0.622-0.621c0-0.355 0.266-0.621 0.622-0.621 0.326 0 0.622 0.296 0.622 0.621zM27.712 9.405c0 0.355-0.267 0.621-0.622 0.621s-0.622-0.266-0.622-0.621c0-0.355 0.266-0.621 0.622-0.621s0.622 0.296 0.622 0.621zM32.982 9.405c0 0.355-0.267 0.621-0.622 0.621s-0.622-0.266-0.622-0.621c0-0.355 0.266-0.621 0.622-0.621s0.622 0.296 0.622 0.621zM38.281 9.405c0 0.355-0.266 0.621-0.622 0.621s-0.622-0.266-0.622-0.621c0-0.355 0.266-0.621 0.622-0.621s0.622 0.296 0.622 0.621zM43.581 9.405c0 0.355-0.266 0.621-0.622 0.621s-0.622-0.266-0.622-0.621c0-0.355 0.266-0.621 0.622-0.621 0.326 0 0.622 0.296 0.622 0.621zM1.243 13.812c0 0.355-0.266 0.621-0.622 0.621s-0.622-0.266-0.622-0.621c0-0.355 0.266-0.621 0.622-0.621s0.622 0.266 0.622 0.621zM6.543 13.812c0 0.355-0.267 0.621-0.622 0.621s-0.622-0.266-0.622-0.621c0-0.355 0.266-0.621 0.622-0.621 0.325 0 0.622 0.266 0.622 0.621zM11.813 13.812c0 0.355-0.266 0.621-0.622 0.621s-0.622-0.266-0.622-0.621c0-0.355 0.266-0.621 0.622-0.621s0.622 0.266 0.622 0.621zM17.113 13.812c0 0.355-0.266 0.621-0.622 0.621s-0.622-0.266-0.622-0.621c0-0.355 0.266-0.621 0.622-0.621s0.622 0.266 0.622 0.621zM22.412 13.812c0 0.355-0.266 0.621-0.622 0.621s-0.622-0.266-0.622-0.621c0-0.355 0.266-0.621 0.622-0.621 0.326 0 0.622 0.266 0.622 0.621zM27.712 13.812c0 0.355-0.267 0.621-0.622 0.621s-0.622-0.266-0.622-0.621c0-0.355 0.266-0.621 0.622-0.621s0.622 0.266 0.622 0.621zM32.982 13.812c0 0.355-0.267 0.621-0.622 0.621s-0.622-0.266-0.622-0.621c0-0.355 0.266-0.621 0.622-0.621s0.622 0.266 0.622 0.621zM38.281 13.812c0 0.355-0.266 0.621-0.622 0.621s-0.622-0.266-0.622-0.621c0-0.355 0.266-0.621 0.622-0.621s0.622 0.266 0.622 0.621zM43.581 13.812c0 0.355-0.266 0.621-0.622 0.621s-0.622-0.266-0.622-0.621c0-0.355 0.266-0.621 0.622-0.621 0.326 0 0.622 0.266 0.622 0.621zM1.243 0.621c0 0.355-0.266 0.621-0.622 0.621s-0.622-0.266-0.622-0.621c0-0.355 0.266-0.621 0.622-0.621s0.622 0.266 0.622 0.621zM6.543 0.621c0 0.355-0.267 0.621-0.622 0.621s-0.622-0.266-0.622-0.621c0-0.355 0.266-0.621 0.622-0.621 0.325 0 0.622 0.266 0.622 0.621zM11.813 0.621c0 0.355-0.266 0.621-0.622 0.621s-0.622-0.266-0.622-0.621c0-0.355 0.296-0.621 0.622-0.621 0.355 0 0.622 0.266 0.622 0.621zM17.113 0.621c0 0.355-0.266 0.621-0.622 0.621s-0.622-0.266-0.622-0.621c-0-0.355 0.296-0.621 0.621-0.621s0.622 0.266 0.622 0.621zM22.412 0.621c0 0.355-0.266 0.621-0.622 0.621s-0.622-0.266-0.622-0.621c0-0.355 0.266-0.621 0.622-0.621 0.326 0 0.622 0.266 0.622 0.621zM27.712 0.621c0 0.355-0.267 0.621-0.622 0.621s-0.622-0.266-0.622-0.621c0-0.355 0.266-0.621 0.622-0.621s0.622 0.266 0.622 0.621zM32.982 0.621c0 0.355-0.267 0.621-0.622 0.621s-0.622-0.266-0.622-0.621c0-0.355 0.266-0.621 0.622-0.621s0.622 0.266 0.622 0.621zM38.281 0.621c0 0.355-0.266 0.621-0.622 0.621s-0.622-0.266-0.622-0.621c0-0.355 0.266-0.621 0.622-0.621s0.622 0.266 0.622 0.621zM43.581 0.621c0 0.355-0.266 0.621-0.622 0.621s-0.622-0.266-0.622-0.621c0-0.355 0.266-0.621 0.622-0.621 0.326 0 0.622 0.266 0.622 0.621zM1.243 5.028c0 0.355-0.266 0.621-0.622 0.621s-0.622-0.296-0.622-0.621c0-0.355 0.266-0.621 0.622-0.621s0.622 0.266 0.622 0.621zM6.543 5.028c0 0.355-0.267 0.621-0.622 0.621s-0.622-0.266-0.622-0.621c0-0.355 0.266-0.621 0.622-0.621 0.325 0 0.622 0.266 0.622 0.621zM11.813 5.028c0 0.355-0.266 0.621-0.622 0.621s-0.622-0.266-0.622-0.621c0-0.355 0.266-0.621 0.622-0.621s0.622 0.266 0.622 0.621zM17.113 5.028c0 0.355-0.266 0.621-0.622 0.621s-0.622-0.266-0.622-0.621c0-0.355 0.266-0.621 0.622-0.621s0.622 0.266 0.622 0.621zM22.412 5.028c0 0.355-0.266 0.621-0.622 0.621s-0.622-0.266-0.622-0.621c0-0.355 0.266-0.621 0.622-0.621 0.326 0 0.622 0.266 0.622 0.621zM27.712 5.028c0 0.355-0.267 0.621-0.622 0.621s-0.622-0.266-0.622-0.621c0-0.355 0.266-0.621 0.622-0.621s0.622 0.266 0.622 0.621zM32.982 5.028c0 0.355-0.267 0.621-0.622 0.621s-0.622-0.266-0.622-0.621c0-0.355 0.266-0.621 0.622-0.621s0.622 0.266 0.622 0.621zM38.281 5.028c0 0.355-0.266 0.621-0.622 0.621s-0.622-0.266-0.622-0.621c0-0.355 0.266-0.621 0.622-0.621s0.622 0.266 0.622 0.621zM43.581 5.028c0 0.355-0.266 0.621-0.622 0.621s-0.622-0.266-0.622-0.621c0-0.355 0.266-0.621 0.622-0.621 0.326 0 0.622 0.266 0.622 0.621zM1.243 18.188c0 0.355-0.266 0.621-0.622 0.621s-0.622-0.266-0.622-0.621c0-0.355 0.266-0.621 0.622-0.621s0.622 0.296 0.622 0.621zM6.543 18.188c0 0.355-0.267 0.621-0.622 0.621s-0.622-0.266-0.622-0.621c0-0.355 0.266-0.621 0.622-0.621 0.325 0 0.622 0.296 0.622 0.621zM11.813 18.188c0 0.355-0.266 0.621-0.622 0.621s-0.622-0.266-0.622-0.621c0-0.355 0.266-0.621 0.622-0.621s0.622 0.296 0.622 0.621zM17.113 18.188c0 0.355-0.266 0.621-0.622 0.621s-0.622-0.266-0.622-0.621c0-0.355 0.266-0.621 0.622-0.621s0.622 0.296 0.622 0.621zM22.412 18.188c0 0.355-0.266 0.621-0.622 0.621s-0.622-0.266-0.622-0.621c0-0.355 0.266-0.621 0.622-0.621 0.326 0 0.622 0.296 0.622 0.621zM27.712 18.188c0 0.355-0.267 0.621-0.622 0.621s-0.622-0.266-0.622-0.621c0-0.355 0.266-0.621 0.622-0.621s0.622 0.296 0.622 0.621zM32.982 18.188c0 0.355-0.267 0.621-0.622 0.621s-0.622-0.266-0.622-0.621c0-0.355 0.266-0.621 0.622-0.621s0.622 0.296 0.622 0.621zM38.281 18.188c0 0.355-0.266 0.621-0.622 0.621s-0.622-0.266-0.622-0.621c0-0.355 0.266-0.621 0.622-0.621s0.622 0.296 0.622 0.621zM43.581 18.188c0 0.355-0.266 0.621-0.622 0.621s-0.622-0.266-0.622-0.621c0-0.355 0.266-0.621 0.622-0.621 0.326 0 0.622 0.296 0.622 0.621zM1.243 22.595c0 0.355-0.266 0.621-0.622 0.621s-0.622-0.266-0.622-0.621c0-0.355 0.266-0.621 0.622-0.621s0.622 0.266 0.622 0.621zM6.543 22.595c0 0.355-0.267 0.621-0.622 0.621s-0.622-0.266-0.622-0.621c0-0.355 0.266-0.621 0.622-0.621 0.325 0 0.622 0.266 0.622 0.621zM11.813 22.595c0 0.355-0.266 0.621-0.622 0.621s-0.622-0.266-0.622-0.621c0-0.355 0.266-0.621 0.622-0.621s0.622 0.266 0.622 0.621zM16.491 23.216c0.343-0 0.621-0.278 0.621-0.621s-0.278-0.621-0.621-0.621-0.621 0.278-0.621 0.621c0 0 0 0 0 0v-0c0 0.343 0.279 0.621 0.622 0.621zM22.412 22.595c0 0.355-0.266 0.621-0.622 0.621s-0.622-0.266-0.622-0.621c0-0.355 0.266-0.621 0.622-0.621 0.326 0 0.622 0.266 0.622 0.621zM27.712 22.595c0 0.355-0.267 0.621-0.622 0.621s-0.622-0.266-0.622-0.621c0-0.355 0.266-0.621 0.622-0.621s0.622 0.266 0.622 0.621zM32.982 22.595c0 0.355-0.267 0.621-0.622 0.621s-0.622-0.266-0.622-0.621c0-0.355 0.266-0.621 0.622-0.621s0.622 0.266 0.622 0.621zM37.66 23.216c0.007 0 0.015 0 0.024 0 0.343 0 0.621-0.278 0.621-0.621s-0.278-0.621-0.621-0.621c-0.008 0-0.017 0-0.025 0l0.001-0c-0.007-0-0.015-0-0.024-0-0.343 0-0.621 0.278-0.621 0.621s0.278 0.621 0.621 0.621c0.008 0 0.017-0 0.025-0l-0.001 0zM43.581 22.595c0 0.355-0.266 0.621-0.622 0.621s-0.622-0.266-0.622-0.621c0-0.355 0.266-0.621 0.622-0.621 0.326 0 0.622 0.266 0.622 0.621zM1.243 27.002c0 0.355-0.266 0.621-0.622 0.621s-0.622-0.266-0.622-0.621c0-0.355 0.266-0.621 0.622-0.621s0.622 0.266 0.622 0.621zM6.543 27.002c0 0.355-0.267 0.621-0.622 0.621s-0.622-0.266-0.622-0.621c0-0.355 0.266-0.621 0.622-0.621 0.325 0 0.622 0.266 0.622 0.621zM11.813 27.002c0 0.355-0.266 0.621-0.622 0.621s-0.622-0.266-0.622-0.621c0-0.355 0.266-0.621 0.622-0.621s0.622 0.266 0.622 0.621zM17.113 27.002c0 0.355-0.266 0.621-0.622 0.621s-0.622-0.266-0.622-0.621c0-0.355 0.266-0.621 0.622-0.621s0.622 0.266 0.622 0.621zM22.412 27.002c0 0.355-0.266 0.621-0.622 0.621s-0.622-0.266-0.622-0.621c0-0.355 0.266-0.621 0.622-0.621 0.326 0 0.622 0.266 0.622 0.621zM27.712 27.002c0 0.355-0.267 0.621-0.622 0.621s-0.622-0.266-0.622-0.621c0-0.355 0.266-0.621 0.622-0.621s0.622 0.266 0.622 0.621zM32.982 27.002c0 0.355-0.267 0.621-0.622 0.621s-0.622-0.266-0.622-0.621c0-0.355 0.266-0.621 0.622-0.621s0.622 0.266 0.622 0.621zM38.281 27.002c0 0.355-0.266 0.621-0.622 0.621s-0.622-0.266-0.622-0.621c0-0.355 0.266-0.621 0.622-0.621s0.622 0.266 0.622 0.621zM43.581 27.002c0 0.355-0.266 0.621-0.622 0.621s-0.622-0.266-0.622-0.621c0-0.355 0.266-0.621 0.622-0.621 0.326 0 0.622 0.266 0.622 0.621zM1.243 31.379c0 0.355-0.266 0.621-0.622 0.621s-0.622-0.266-0.622-0.621c0-0.355 0.266-0.621 0.622-0.621s0.622 0.296 0.622 0.621zM6.543 31.379c0 0.355-0.267 0.621-0.622 0.621s-0.622-0.266-0.622-0.621c0-0.355 0.266-0.621 0.622-0.621 0.325 0 0.622 0.296 0.622 0.621zM11.813 31.379c0 0.355-0.266 0.621-0.622 0.621s-0.622-0.266-0.622-0.621c0-0.355 0.266-0.621 0.622-0.621s0.622 0.296 0.622 0.621zM17.113 31.379c0 0.355-0.266 0.621-0.622 0.621s-0.622-0.266-0.622-0.621c0-0.355 0.266-0.621 0.622-0.621s0.622 0.296 0.622 0.621zM22.412 31.379c0 0.355-0.266 0.621-0.622 0.621s-0.622-0.266-0.622-0.621c0-0.355 0.266-0.621 0.622-0.621 0.326 0 0.622 0.296 0.622 0.621zM27.712 31.379c0 0.355-0.267 0.621-0.622 0.621s-0.622-0.266-0.622-0.621c0-0.355 0.266-0.621 0.622-0.621s0.622 0.296 0.622 0.621zM32.982 31.379c0 0.355-0.267 0.621-0.622 0.621s-0.622-0.266-0.622-0.621c0-0.355 0.266-0.621 0.622-0.621s0.622 0.296 0.622 0.621zM38.281 31.379c0 0.355-0.266 0.621-0.622 0.621s-0.622-0.266-0.622-0.621c0-0.355 0.266-0.621 0.622-0.621s0.622 0.296 0.622 0.621zM43.581 31.379c0 0.355-0.266 0.621-0.622 0.621s-0.622-0.266-0.622-0.621c0-0.355 0.266-0.621 0.622-0.621 0.326 0 0.622 0.296 0.622 0.621z">
            </path>
        </symbol>
        <symbol id="icon-circles-3" viewBox="0 0 16 32">
            <path fill="#fff" style="fill: var(--color2, #fff)" opacity="0.4"
                d="M16.011 0c-8.851 0-16.011 7.16-16.011 16.011 0 8.829 7.16 16.011 16.011 16.011 8.829 0 16.011-7.16 16.011-16.011-0.022-8.851-7.182-16.011-16.011-16.011zM16.011 30.99c-8.28 0-14.979-6.699-14.979-14.979s6.699-14.979 14.979-14.979c8.28 0 14.979 6.699 14.979 14.979 0 8.258-6.721 14.979-14.979 14.979z">
            </path>
            <path fill="#fff" style="fill: var(--color2, #fff)" opacity="0.4"
                d="M16.011 3.448c-6.918 0-12.541 5.623-12.541 12.541s5.622 12.541 12.541 12.541c6.918 0 12.541-5.601 12.541-12.519 0-6.94-5.622-12.563-12.541-12.563zM16.011 26.619c-5.864 0-10.63-4.766-10.63-10.63s4.766-10.63 10.63-10.63c5.864 0 10.63 4.766 10.63 10.63s-4.766 10.63-10.63 10.63z">
            </path>
        </symbol>
        <symbol id="icon-shapes-3" viewBox="0 0 59 32">
            <path fill="#fff" style="fill: var(--color2, #fff)" opacity="0.6"
                d="M44.142 28.749c7.116 0 12.914-5.848 12.914-13.028s-5.797-13.029-12.914-13.029v26.056zM23.995 28.749c7.117 0 12.914-5.848 12.914-13.028s-5.797-13.029-12.914-13.029v26.056zM3.848 28.749c7.117 0 12.914-5.848 12.914-13.028s-5.797-13.029-12.914-13.029v26.056z">
            </path>
        </symbol>
        <symbol id="icon-circles-2" viewBox="0 0 32 32">
            <path fill="#fff" style="fill: var(--color2, #fff)" opacity="0.6"
                d="M16.010 0c-8.276 0-14.97 6.694-14.97 14.97 0 8.255 6.694 14.97 14.97 14.97 8.255 0 14.97-6.694 14.97-14.97-0.021-8.275-6.715-14.97-14.97-14.97zM16.010 28.974c-7.742 0-14.005-6.263-14.005-14.005s6.263-14.005 14.005-14.005c7.741 0 14.004 6.263 14.004 14.005 0 7.721-6.283 14.005-14.005 14.005z">
            </path>
            <path fill="#fff" style="fill: var(--color2, #fff)" opacity="0.6"
                d="M16.010 3.224c-6.468 0-11.726 5.257-11.726 11.725s5.257 11.725 11.726 11.725c6.468 0 11.725-5.236 11.725-11.705 0-6.489-5.257-11.746-11.725-11.746zM16.010 24.888c-5.483 0-9.939-4.456-9.939-9.939s4.456-9.939 9.938-9.939c5.483 0 9.939 4.456 9.939 9.939s-4.456 9.939-9.939 9.939z">
            </path>
            <path fill="#fff" style="fill: var(--color2, #fff)" opacity="0.6"
                d="M16.010 8.378c-3.634 0-6.591 2.957-6.591 6.591s2.936 6.592 6.591 6.592c3.634 0 6.591-2.957 6.591-6.592-0.021-3.634-2.957-6.591-6.591-6.591zM16.010 18.501c-1.951 0-3.532-1.581-3.532-3.532s1.581-3.532 3.532-3.532 3.532 1.581 3.532 3.532c0 1.951-1.581 3.532-3.532 3.532z">
            </path>
        </symbol>
        <symbol id="icon-shapes-4" viewBox="0 0 32 32">
            <path fill="#fff" style="fill: var(--color1, #fff)" opacity="0.6"
                d="M28.026 10.566h3.974v-10.566h-10.566v3.943h6.592v6.623z"></path>
            <path fill="#fff" style="fill: var(--color1, #fff)" opacity="0.6"
                d="M20.892 17.7h3.943v-10.566h-10.535v3.973h6.592v6.593z"></path>
            <path fill="#fff" style="fill: var(--color1, #fff)" opacity="0.6"
                d="M13.727 24.836h3.974v-10.537h-10.566v3.943h6.592v6.593z"></path>
            <path fill="#fff" style="fill: var(--color1, #fff)" opacity="0.6"
                d="M6.593 32h3.973v-10.567h-10.566v3.974h6.593v6.593z"></path>
        </symbol>
        <symbol id="icon-illustration-bottom" viewBox="0 0 46 32">
            <path fill="#9a3b82" style="fill: var(--color1, #9a3b82)"
                d="M43.838 27.55v4.45h-6.695l1.304-6.834c-0.042 0.27 0.793 0.776 1.936 1.283 0.41 0.182 0.867 0.363 1.356 0.534 0.788 0.278 1.514 0.467 2.099 0.567-0.001 0 0 0 0 0z">
            </path>
            <path fill="#ffcf2d" style="fill: var(--color2, #ffcf2d)"
                d="M43.838 26.212v1.191c-0.586-0.1-1.31-0.287-2.1-0.565-1.863-0.654-3.297-1.462-3.216-1.825 0.001-0.005 0.003-0.011 0.004-0.015 0.125-0.355 1.775-0.109 3.664 0.553 0.607 0.213 1.155 0.433 1.615 0.645 0.011 0.005 0.022 0.011 0.034 0.016z">
            </path>
            <path fill="#fff" style="fill: var(--color3, #fff)"
                d="M42.919 15.901c-0.653 0-1.182 0.529-1.182 1.18v3.235c0 0.652-0.529 1.18-1.18 1.18h-4.732c0.653 0 1.18-0.529 1.18-1.18v-3.235c0-0.653 0.529-1.18 1.18-1.18h4.734z">
            </path>
            <path fill="#ffcf2d" style="fill: var(--color2, #ffcf2d)"
                d="M38.185 15.934h4.333c-0.475 0.165-0.815 0.616-0.815 1.147v3.235c0 0.633-0.514 1.147-1.147 1.147h-4.332c0.474-0.165 0.814-0.617 0.814-1.147v-3.235c0-0.634 0.514-1.147 1.147-1.147zM42.919 15.867h-4.734c-0.67 0-1.214 0.542-1.214 1.214v3.235c0 0.633-0.512 1.147-1.147 1.147v0.067h4.732c0.67 0 1.214-0.544 1.214-1.214v-3.235c0-0.633 0.514-1.147 1.148-1.147v-0.067z">
            </path>
            <path fill="#fff" style="fill: var(--color3, #fff)" d="M40.85 17.575h-3.014v2.796h3.014v-2.796z"></path>
            <path fill="#ffcf2d" style="fill: var(--color2, #ffcf2d)"
                d="M37.802 17.541h3.081v2.864h-3.081v-2.864zM37.87 17.608v2.729h2.946v-2.729h-2.946z"></path>
            <path fill="#ffcf2d" style="fill: var(--color2, #ffcf2d)" d="M37.836 17.94h3.012v0.067h-3.012v-0.067z">
            </path>
            <path fill="#ffcf2d" style="fill: var(--color2, #ffcf2d)" d="M37.836 18.339h3.012v0.067h-3.012v-0.067z">
            </path>
            <path fill="#ffcf2d" style="fill: var(--color2, #ffcf2d)" d="M37.836 18.74h3.012v0.067h-3.012v-0.067z">
            </path>
            <path fill="#ffcf2d" style="fill: var(--color2, #ffcf2d)" d="M37.836 19.14h3.012v0.067h-3.012v-0.067z">
            </path>
            <path fill="#ffcf2d" style="fill: var(--color2, #ffcf2d)" d="M37.836 19.54h3.012v0.067h-3.012v-0.067z">
            </path>
            <path fill="#ffcf2d" style="fill: var(--color2, #ffcf2d)" d="M37.836 19.939h3.012v0.067h-3.012v-0.067z">
            </path>
            <path fill="#66b0f0" style="fill: var(--color4, #66b0f0)"
                d="M41.737 17.081c0-0.649 0.523-1.175 1.17-1.18 0.647 0.005 1.17 0.531 1.17 1.18h-2.339z"></path>
            <path fill="#ffcf2d" style="fill: var(--color2, #ffcf2d)"
                d="M42.907 15.867h0c0.666 0.005 1.203 0.547 1.203 1.214v0.034h-2.407v-0.034c0-0.667 0.538-1.208 1.203-1.214h0zM42.907 15.934c-0.616 0.005-1.118 0.498-1.135 1.113h2.271c-0.018-0.615-0.518-1.107-1.135-1.113z">
            </path>
            <path fill="#ffcf2d" style="fill: var(--color2, #ffcf2d)"
                d="M40.562 21.526c-0.001 0-0.004 0-0.005 0h-4.715c-0.003 0-0.005 0-0.008 0-0.484-0.007-0.898-0.306-1.074-0.73h4.724c0.177 0.424 0.591 0.723 1.078 0.73z">
            </path>
            <path fill="#fe5244" style="fill: var(--color5, #fe5244)"
                d="M38.033 17.253h-0.545v-0.437h0.256v0.243c0 0.005 0.003 0.009 0.005 0.011l0.001 0.001 0.282 0.182z">
            </path>
            <path fill="#fe5244" style="fill: var(--color5, #fe5244)"
                d="M38.245 16.968v0.058c0 0.011-0.001 0.022-0.001 0.032 0 0.003-0.001 0.007-0.001 0.009-0.001 0.005-0.001 0.011-0.003 0.016-0.015 0.074-0.059 0.135-0.115 0.158-0.004 0.001-0.008 0.003-0.012 0.004-0.007 0.003-0.015 0.004-0.022 0.005-0.003 0-0.005 0.001-0.008 0.001l-0.309-0.201c0.003-0.047 0.032-0.085 0.068-0.085h0.403v0.001z">
            </path>
            <path fill="#fe5244" style="fill: var(--color5, #fe5244)"
                d="M41.255 16.816v0.437h-0.545l0.281-0.182 0.001-0.001c0.001-0.001 0.001-0.001 0.003-0.001 0-0.001 0.001-0.001 0.001-0.003 0 0 0-0.001 0.001-0.001 0-0.001 0-0.001 0.001-0.001 0 0 0 0 0-0.001s0-0.001 0-0.003v-0.243h0.256z">
            </path>
            <path fill="#fe5244" style="fill: var(--color5, #fe5244)"
                d="M40.971 17.053l-0.309 0.201c-0.008-0.001-0.016-0.003-0.024-0.004-0.003-0.001-0.005-0.001-0.008-0.003-0.004-0.001-0.007-0.003-0.011-0.004-0.003-0.001-0.007-0.003-0.010-0.004-0.042-0.023-0.077-0.067-0.094-0.123-0.003-0.008-0.005-0.016-0.007-0.024-0.001-0.003-0.001-0.007-0.003-0.011-0.003-0.018-0.005-0.035-0.005-0.054v-0.058h0.405c0.034-0.001 0.063 0.036 0.066 0.084z">
            </path>
            <path fill="#fe5244" style="fill: var(--color5, #fe5244)"
                d="M40.971 16.595v0.381c-0.003-0.003-0.005-0.007-0.008-0.009-0.005-0.005-0.011-0.009-0.016-0.014-0.014-0.008-0.028-0.013-0.043-0.013h-3.064c-0.016 0-0.031 0.005-0.043 0.013-0.005 0.004-0.011 0.008-0.016 0.014-0.003 0.003-0.005 0.005-0.008 0.009v-0.381c0-0.051 0.030-0.092 0.068-0.092h3.064c0.036 0 0.067 0.042 0.067 0.092z">
            </path>
            <path fill="#a0505a" style="fill: var(--color6, #a0505a)"
                d="M43.838 22.115v5.288h-0.001c-0.586-0.1-1.31-0.287-2.1-0.565-0.488-0.171-0.946-0.353-1.356-0.534l0.22-1.228 0.374-2.084c-1.172-0.367-1.362-1.495-1.362-1.495h0.943c0.653 0 1.18-0.529 1.18-1.18v-0.389h-0.606c-0.425 0-0.77-0.418-0.77-0.843v-0.138h1.346c0.249 0 0.484 0.117 0.634 0.317l0.985 1.315c0.335 0.442 0.514 0.981 0.514 1.535z">
            </path>
            <path fill="#73325a" style="fill: var(--color7, #73325a)"
                d="M43.838 26.212v1.191h-0.001c-0.586-0.1-1.31-0.287-2.1-0.565-0.488-0.171-0.946-0.353-1.356-0.534l0.22-1.228c0.486 0.119 1.025 0.279 1.586 0.476 0.607 0.213 1.155 0.433 1.613 0.645 0.015 0.004 0.026 0.009 0.038 0.015z">
            </path>
            <path fill="#a0505a" style="fill: var(--color6, #a0505a)"
                d="M41.797 19.929h-0.65c-0.425 0-0.77-0.418-0.77-0.843v-0.138h1.42v0.981z"></path>
            <path fill="#73325a" style="fill: var(--color7, #73325a)"
                d="M41.376 21.274c0 0 0 0 0.012-0.032s0.012-0.031 0.012-0.031h0l0.001 0c0.001 0 0.001 0.001 0.002 0.001s0.005 0.002 0.008 0.003 0.018 0.008 0.031 0.014c0.027 0.012 0.065 0.031 0.11 0.058 0.091 0.053 0.213 0.136 0.338 0.258 0.25 0.244 0.51 0.642 0.553 1.256l-0.067 0.005c-0.042-0.596-0.293-0.979-0.533-1.213-0.12-0.117-0.238-0.198-0.325-0.248-0.044-0.025-0.080-0.043-0.105-0.055-0.013-0.006-0.022-0.010-0.029-0.013-0.003-0.001-0.006-0.002-0.007-0.003s-0.001-0.001-0.002-0.001l-0-0zM41.376 21.274c0 0 0 0 0 0v0z">
            </path>
            <path fill="#73325a" style="fill: var(--color7, #73325a)" d="M41.615 23.054h-0.638v-0.067h0.638v0.067z">
            </path>
            <path fill="#ffcf2d" style="fill: var(--color2, #ffcf2d)"
                d="M42.125 8.277c-0.050-0.634-0.762-0.982-1.293-0.63l-0.428 0.283-0.045-0.067 0.428-0.283c0.583-0.385 1.363-0.004 1.418 0.692l0.093 1.178c0 0 0 0 0 0 0.049 0.616 0.727 0.967 1.258 0.652l0.27-0.161 0.041 0.070-0.27 0.161c-0.583 0.346-1.327-0.040-1.38-0.716l-0.093-1.178z">
            </path>
            <path fill="#9a3b82" style="fill: var(--color1, #9a3b82)"
                d="M34.167 3.522l5.495 3.189 2.767 6.212-3.174-2.138-3.449-4.041-1.638-3.221z"></path>
            <path fill="#ffcf2d" style="fill: var(--color2, #ffcf2d)"
                d="M39.761 6.593l-5.599-3.251 0.041-0.070 5.622 3.264 2.831 6.355-0.074 0.033-2.821-6.331z"></path>
            <path fill="#fff" style="fill: var(--color3, #fff)"
                d="M39.197 10.921c0.257-0.217-0.32-1.322-1.289-2.469s-1.962-1.901-2.218-1.684c-0.257 0.217 0.32 1.322 1.289 2.469s1.962 1.901 2.218 1.684z">
            </path>
            <path fill="#fff" style="fill: var(--color3, #fff)"
                d="M39.041 10.988c0.252-0.212-0.314-1.296-1.264-2.421s-1.923-1.864-2.175-1.652c-0.252 0.212 0.314 1.296 1.264 2.421s1.924 1.864 2.175 1.652z">
            </path>
            <path fill="#ffcf2d" style="fill: var(--color2, #ffcf2d)"
                d="M35.813 7.767c0.227 0.435 0.605 0.986 1.078 1.547s0.953 1.025 1.344 1.322c0.196 0.149 0.368 0.254 0.505 0.31 0.069 0.028 0.127 0.042 0.175 0.044s0.081-0.009 0.104-0.028c0.023-0.020 0.039-0.051 0.045-0.097s0.002-0.107-0.014-0.179c-0.032-0.145-0.107-0.332-0.221-0.55-0.227-0.435-0.605-0.986-1.078-1.547s-0.953-1.025-1.344-1.322c-0.196-0.149-0.368-0.254-0.506-0.31-0.069-0.028-0.127-0.042-0.174-0.044s-0.081 0.009-0.104 0.028c-0.023 0.019-0.039 0.051-0.045 0.097s-0.002 0.107 0.014 0.179c0.032 0.145 0.107 0.332 0.221 0.55zM35.511 7.029c0.007-0.058 0.029-0.107 0.069-0.14s0.092-0.046 0.15-0.044c0.058 0.002 0.124 0.020 0.197 0.049 0.146 0.059 0.323 0.168 0.521 0.319 0.396 0.301 0.879 0.769 1.355 1.333s0.856 1.118 1.087 1.559c0.115 0.22 0.193 0.414 0.227 0.567 0.017 0.077 0.023 0.145 0.015 0.202s-0.029 0.107-0.069 0.14-0.092 0.046-0.15 0.044c-0.058-0.002-0.124-0.020-0.197-0.049-0.146-0.059-0.323-0.168-0.521-0.319-0.396-0.301-0.879-0.769-1.355-1.333s-0.856-1.118-1.087-1.559c-0.115-0.22-0.193-0.414-0.227-0.567-0.017-0.077-0.023-0.145-0.015-0.202z">
            </path>
            <path fill="#ffcf2d" style="fill: var(--color2, #ffcf2d)"
                d="M39.71 10.485l-0.523 0.441c0.097-0.082 0.076-0.29-0.042-0.58-0.193-0.478-0.645-1.175-1.247-1.89-0.603-0.714-1.215-1.276-1.654-1.546-0.266-0.165-0.468-0.221-0.565-0.139l0.523-0.441c0.256-0.217 1.295 0.492 2.264 1.64s1.502 2.299 1.244 2.514z">
            </path>
            <path fill="#ffcf2d" style="fill: var(--color2, #ffcf2d)"
                d="M45.301 8.797c0.148-0.072 0.293-0.135 0.432-0.188 0.082 0.086 0.154 0.188 0.209 0.301s0.090 0.232 0.107 0.349c-0.128 0.076-0.267 0.151-0.414 0.223-0.738 0.357-1.41 0.494-1.501 0.305-0.093-0.19 0.43-0.633 1.168-0.99z">
            </path>
            <path fill="#9a3b82" style="fill: var(--color1, #9a3b82)"
                d="M43.998 9.758c-0.068 0-0.123 0.055-0.123 0.123s0.055 0.123 0.123 0.123c0.068 0 0.123-0.055 0.123-0.123s-0.055-0.123-0.123-0.123zM43.795 9.88c0-0.113 0.091-0.204 0.204-0.204s0.204 0.091 0.204 0.204c0 0.113-0.091 0.204-0.204 0.204s-0.204-0.091-0.204-0.204z">
            </path>
            <path fill="#66b0f0" style="fill: var(--color4, #66b0f0)"
                d="M34.365 26.289v5.711h-6.506l0.834-6.202c0 0.251 1.269 0.564 2.835 0.699 1.566 0.136 2.837 0.043 2.837-0.208z">
            </path>
            <path fill="#3fb1b5" style="fill: var(--color8, #3fb1b5)"
                d="M34.335 26.142c0 0.251-1.259 0.344-2.81 0.208s-2.81-0.449-2.81-0.699c0-0.251 1.259-0.344 2.81-0.208 1.553 0.135 2.81 0.448 2.81 0.699z">
            </path>
            <path fill="#66b0f0" style="fill: var(--color4, #66b0f0)"
                d="M35.608 13.769l-0.392-0.254 0.044-0.068 0.397 0.257c0.115 0.089 0.154 0.249 0.142 0.445-0.013 0.198-0.079 0.444-0.19 0.722-0.222 0.555-0.627 1.242-1.161 1.931s-1.099 1.253-1.581 1.606c-0.241 0.176-0.463 0.302-0.652 0.363-0.187 0.061-0.352 0.063-0.467-0.026l-0.002-0.001-0.196-0.185 0.056-0.059 0.193 0.182c0.082 0.063 0.213 0.070 0.39 0.012s0.391-0.178 0.629-0.352c0.474-0.347 1.034-0.905 1.565-1.59v0c0.531-0.684 0.932-1.365 1.15-1.911 0.109-0.273 0.172-0.511 0.184-0.697s-0.028-0.311-0.109-0.375z">
            </path>
            <path fill="#66b0f0" style="fill: var(--color4, #66b0f0)"
                d="M29.768 19.88l4.472-4.093 1.563-4.76-4.773 4.337-1.263 4.516z"></path>
            <path fill="#fe5244" style="fill: var(--color5, #fe5244)"
                d="M36.007 11.048c0.021 0.007 0.033 0.030 0.026 0.051l-1.591 4.846-4.875 4.461c-0.017 0.015-0.042 0.014-0.057-0.002s-0.014-0.042 0.003-0.057l4.859-4.447 1.585-4.826c0.007-0.021 0.030-0.033 0.051-0.026z">
            </path>
            <path fill="#fe5244" style="fill: var(--color5, #fe5244)"
                d="M27.839 19.806l4.247-4.062 0.056 0.059-4.247 4.062c-0.235 0.224-0.619 0.012-0.553-0.307l0.119-0.576c0.046-0.224-0.208-0.388-0.392-0.253v0l-1.403 1.021-0.048-0.065 1.403-1.021c0 0 0 0 0 0zM27.54 18.998c0.061-0.297-0.275-0.513-0.519-0.335l0.519 0.335zM27.54 18.998l-0.119 0.576v0c-0.050 0.242 0.24 0.402 0.418 0.232v0z">
            </path>
            <path fill="#ffcf2d" style="fill: var(--color2, #ffcf2d)"
                d="M24.499 21.171c-0.125 0.105-0.251 0.202-0.372 0.287-0.101-0.063-0.194-0.143-0.277-0.24-0.081-0.097-0.144-0.202-0.189-0.313 0.105-0.105 0.221-0.212 0.347-0.318 0.627-0.527 1.245-0.826 1.381-0.664 0.135 0.162-0.263 0.72-0.89 1.248z">
            </path>
            <path fill="#fe5244" style="fill: var(--color5, #fe5244)"
                d="M25.51 19.692c-0.068 0-0.123 0.055-0.123 0.123s0.055 0.123 0.123 0.123c0.068 0 0.123-0.055 0.123-0.123s-0.055-0.123-0.123-0.123zM25.307 19.815c0-0.113 0.091-0.204 0.204-0.204s0.204 0.091 0.204 0.204c0 0.112-0.091 0.204-0.204 0.204s-0.204-0.091-0.204-0.204z">
            </path>
            <path fill="#ffcf2d" style="fill: var(--color2, #ffcf2d)"
                d="M32.315 21.99v4.411c-0.249-0.011-0.515-0.027-0.789-0.051-1.010-0.088-1.895-0.252-2.39-0.425l0.074-0.488 0.248-1.639h-0.321c-0.457 0-0.827-0.37-0.827-0.827v-1.624c0-0.321 0.116-0.63 0.328-0.871l1.056-1.207c0.069-0.078 0.198-0.030 0.198 0.074v1.642c0 0.197-0.070 0.387-0.198 0.537l-0.094 0.111h1.147c0.166 0 0.263-0.185 0.17-0.322-0.142-0.206-0.328-0.5-0.504-0.84-0.352-0.673 0.259-1.049 0.259-1.049l1.399 1.814c0.159 0.22 0.245 0.486 0.245 0.757z">
            </path>
            <path fill="#fff" style="fill: var(--color3, #fff)"
                d="M29.892 19.22c0.019 0 0.034 0.015 0.034 0.034v1.729c0 0.205-0.073 0.403-0.206 0.559h-0zM29.719 21.542l-0.094 0.111c-0.012 0.014-0.033 0.016-0.048 0.004s-0.016-0.033-0.004-0.047l0.094-0.111c0.123-0.144 0.19-0.326 0.19-0.515v-1.729c0-0.019 0.015-0.034 0.034-0.034z">
            </path>
            <path fill="#fff" style="fill: var(--color3, #fff)"
                d="M29.622 21.604c0.014 0.012 0.015 0.034 0.003 0.048l-0.758 0.851c-0.012 0.014-0.034 0.015-0.048 0.003s-0.015-0.034-0.003-0.048l0.758-0.851c0.012-0.014 0.034-0.015 0.048-0.003z">
            </path>
            <path fill="#fff" style="fill: var(--color3, #fff)"
                d="M29.892 20.198c0.019 0 0.034 0.015 0.034 0.034 0 0.205-0.073 0.403-0.206 0.559 0 0 0 0 0 0l-0.095 0.111-0.757 0.85c-0.012 0.014-0.034 0.015-0.048 0.003s-0.015-0.034-0.003-0.048l0.757-0.85 0.094-0.11c0.123-0.144 0.19-0.326 0.19-0.515 0-0.019 0.015-0.034 0.034-0.034z">
            </path>
            <path fill="#fff" style="fill: var(--color3, #fff)"
                d="M29.892 19.448c0.019 0 0.034 0.015 0.034 0.034 0 0.205-0.073 0.403-0.206 0.559 0 0 0 0 0 0l-0.095 0.111-0.757 0.85c-0.012 0.014-0.034 0.015-0.048 0.003s-0.015-0.034-0.003-0.048l0.757-0.85 0.094-0.11c0.123-0.144 0.19-0.326 0.19-0.515 0-0.019 0.015-0.034 0.034-0.034z">
            </path>
            <path fill="#fff" style="fill: var(--color3, #fff)"
                d="M29.424 23.842c0-0.019 0.015-0.034 0.034-0.034h0.581c0.019 0 0.034 0.015 0.034 0.034s-0.015 0.034-0.034 0.034h-0.581c-0.019 0-0.034-0.015-0.034-0.034z">
            </path>
            <path fill="#fe5244" style="fill: var(--color5, #fe5244)"
                d="M32.315 25.529v0.871c-0.25-0.011-0.515-0.027-0.789-0.051-1.010-0.088-1.895-0.252-2.39-0.425l0.074-0.488c0.507-0.074 1.356-0.078 2.318 0.005 0.273 0.026 0.537 0.054 0.788 0.088z">
            </path>
            <path fill="#3fb1b5" style="fill: var(--color8, #3fb1b5)"
                d="M25.786 32h-7.523v-7.458c0 0.318 1.237 0.576 2.764 0.576s2.764-0.258 2.764-0.576v-0.001l1.995 7.46z">
            </path>
            <path fill="#66b0f0" style="fill: var(--color4, #66b0f0)"
                d="M23.77 24.393c0 0.32-1.224 0.577-2.734 0.577s-2.734-0.258-2.734-0.576v-0.001c0.004-0.317 1.226-0.575 2.734-0.575s2.732 0.258 2.734 0.575z">
            </path>
            <path fill="#e57281" style="fill: var(--color9, #e57281)"
                d="M23.77 24.399c-0.009 0.316-1.23 0.572-2.734 0.572-0.29 0-0.568-0.009-0.83-0.027v-2.775h-1.427c-0.182 0-0.329-0.147-0.329-0.329v-0.223c0-0.1 0.044-0.189 0.115-0.25-0.070-0.061-0.115-0.15-0.115-0.25v-0.223c0-0.088 0.035-0.169 0.092-0.227-0.057-0.059-0.092-0.139-0.092-0.227v-0.223c0-0.090 0.036-0.173 0.096-0.233-0.059-0.059-0.096-0.142-0.096-0.232v-0.403c0-0.182 0.147-0.329 0.329-0.329h1.822c0.061-0.035 0.159-0.159-0.008-0.232l-0.391-0.092c-0.31-0.155-0.507-0.413-0.507-0.761h1.376c0.231 0 0.437 0.146 0.515 0.363l2.184 6.098z">
            </path>
            <path fill="#9a3b82" style="fill: var(--color1, #9a3b82)"
                d="M23.777 24.402c-0.004-0.004-0.007-0.007-0.007-0.007 0 0.318-1.224 0.576-2.734 0.576-0.29 0-0.568-0.009-0.83-0.027v-1.097c0.262-0.018 0.541-0.027 0.83-0.027 1.362 0 2.493 0.21 2.701 0.484 0.005 0.007 0.020 0.043 0.040 0.097z">
            </path>
            <path fill="#fff" style="fill: var(--color3, #fff)"
                d="M20.633 15.272v1.094c0 0.595-0.482 1.076-1.077 1.076s-1.076-0.482-1.076-1.076v-1.094c0 0.267 0.482 0.483 1.076 0.483s1.077-0.216 1.077-0.483z">
            </path>
            <path fill="#ffcf2d" style="fill: var(--color2, #ffcf2d)"
                d="M19.556 15.755c0.594 0 1.077-0.216 1.077-0.483s-0.482-0.483-1.077-0.483c-0.594 0-1.076 0.216-1.076 0.483s0.482 0.483 1.076 0.483z">
            </path>
            <path fill="#ffcf2d" style="fill: var(--color2, #ffcf2d)"
                d="M18.439 13.362h2.234v3.003c0 0.414-0.225 0.775-0.56 0.968l-0.020-0.035c0 0.001 0 0.002 0 0.002l0.019 0.033c-0.164 0.094-0.354 0.148-0.556 0.148-0.199 0-0.385-0.052-0.547-0.143h-0.001l-0.006-0.003c-0.001-0-0.001-0.001-0.002-0.001s-0.001-0-0.001-0.001l-0-0c-0.334-0.193-0.56-0.554-0.56-0.968v-3.003zM20.082 17.258c0.305-0.181 0.51-0.513 0.51-0.893v-2.922h-2.072v2.922c0 0.381 0.206 0.714 0.512 0.894h0l0.006 0.003c0.001 0.001 0.002 0.001 0.002 0.001s0.001 0 0.001 0.001l0 0c0.152 0.087 0.327 0.136 0.514 0.136s0.363-0.051 0.515-0.138l0.009-0.005h0.001z">
            </path>
            <path fill="#fff" style="fill: var(--color3, #fff)"
                d="M19.556 13.885c0.601 0 1.089-0.216 1.089-0.483s-0.487-0.483-1.089-0.483-1.089 0.216-1.089 0.483c0 0.267 0.487 0.483 1.089 0.483z">
            </path>
            <path fill="#ffcf2d" style="fill: var(--color2, #ffcf2d)"
                d="M18.577 13.238c-0.051 0.053-0.076 0.109-0.076 0.165s0.025 0.111 0.076 0.165c0.051 0.054 0.127 0.103 0.223 0.146 0.192 0.085 0.459 0.139 0.756 0.139s0.564-0.053 0.756-0.139c0.096-0.043 0.171-0.092 0.223-0.146s0.076-0.109 0.076-0.165-0.025-0.111-0.076-0.165c-0.051-0.054-0.127-0.103-0.223-0.146-0.192-0.085-0.459-0.139-0.756-0.139s-0.564 0.053-0.756 0.139c-0.096 0.043-0.172 0.092-0.223 0.146zM18.773 13.030c0.202-0.090 0.479-0.144 0.783-0.144s0.581 0.055 0.783 0.144c0.101 0.045 0.185 0.099 0.244 0.161s0.095 0.134 0.095 0.211-0.036 0.149-0.095 0.211c-0.059 0.062-0.143 0.116-0.244 0.161-0.202 0.090-0.479 0.144-0.783 0.144s-0.581-0.055-0.783-0.144c-0.101-0.045-0.185-0.099-0.244-0.161s-0.095-0.134-0.095-0.211 0.036-0.149 0.095-0.211c0.059-0.062 0.143-0.116 0.244-0.161z">
            </path>
            <path fill="#ffcf2d" style="fill: var(--color2, #ffcf2d)"
                d="M19.556 13.475c0.088 0 0.159-0.071 0.159-0.159s-0.071-0.159-0.159-0.159c-0.088 0-0.159 0.071-0.159 0.159s0.071 0.159 0.159 0.159z">
            </path>
            <path fill="#fff" style="fill: var(--color3, #fff)"
                d="M19.205 16.726c0.077 0 0.14-0.063 0.14-0.14s-0.063-0.14-0.14-0.14c-0.078 0-0.14 0.063-0.14 0.14s0.063 0.14 0.14 0.14z">
            </path>
            <path fill="#ffcf2d" style="fill: var(--color2, #ffcf2d)"
                d="M19.205 16.479c-0.059 0-0.107 0.048-0.107 0.107s0.048 0.107 0.107 0.107c0.059 0 0.107-0.048 0.107-0.107s-0.048-0.107-0.107-0.107zM19.031 16.586c0-0.096 0.078-0.174 0.174-0.174s0.174 0.078 0.174 0.174c0 0.096-0.078 0.174-0.174 0.174s-0.174-0.078-0.174-0.174z">
            </path>
            <path fill="#fff" style="fill: var(--color3, #fff)"
                d="M20.047 15.388c0.064 0 0.116-0.052 0.116-0.116s-0.052-0.116-0.116-0.116c-0.064 0-0.116 0.052-0.116 0.116s0.052 0.116 0.116 0.116z">
            </path>
            <path fill="#ffcf2d" style="fill: var(--color2, #ffcf2d)"
                d="M18.925 16.258c0.064 0 0.116-0.052 0.116-0.116s-0.052-0.116-0.116-0.116c-0.064 0-0.116 0.052-0.116 0.116s0.052 0.116 0.116 0.116z">
            </path>
            <path fill="#fff" style="fill: var(--color3, #fff)"
                d="M20.591 22.924h-2.069c-0.038 0-0.049-0.050-0.016-0.067l0.723-0.274c0.113-0.043 0.189-0.152 0.189-0.274v-4.311c0-0.286-0.148-0.554-0.395-0.699 0.158 0.090 0.34 0.142 0.534 0.142 0.195 0 0.378-0.053 0.536-0.143-0.248 0.143-0.397 0.413-0.397 0.699v4.311c0 0.122 0.076 0.231 0.189 0.274l0.723 0.274c0.032 0.019 0.022 0.069-0.016 0.069z">
            </path>
            <path fill="#ffcf2d" style="fill: var(--color2, #ffcf2d)"
                d="M19.879 17.427c-0.102 0.031-0.21 0.048-0.323 0.048s-0.222-0.017-0.324-0.048c0.14 0.154 0.219 0.358 0.219 0.572v4.311c0 0.135-0.084 0.257-0.211 0.305v0l-0.72 0.273c0 0 0 0-0 0s-0 0-0 0-0 0.001-0 0.002c0 0 0 0.001 0 0.001s0 0 0 0 0.001 0 0.001 0h2.069c0.001 0 0.001 0 0.001 0s0 0 0 0 0-0.001 0-0.001 0-0.002-0-0.003c-0-0-0-0.001-0.001-0.001s-0-0-0-0l-0.719-0.272c-0.126-0.048-0.211-0.17-0.211-0.305v-4.311c0-0.212 0.079-0.416 0.218-0.57zM19.556 17.407c0.189 0 0.366-0.051 0.519-0.139l0.034 0.059c-0.237 0.137-0.38 0.395-0.38 0.669v4.311c0 0.107 0.067 0.204 0.167 0.242v0zM19.216 22.552c0 0 0 0 0 0l-0.727 0.276c-0.031 0.017-0.041 0.050-0.035 0.078s0.031 0.053 0.067 0.053h2.069c0.037 0 0.061-0.025 0.067-0.054s-0.004-0.061-0.034-0.078l-0.002-0.001-0.726-0.275zM19.216 22.552c0.1-0.038 0.167-0.135 0.167-0.242v-4.311c0-0.274-0.142-0.532-0.379-0.67l0.034-0.058c0.153 0.088 0.329 0.137 0.517 0.137z">
            </path>
            <path fill="#ffcf2d" style="fill: var(--color2, #ffcf2d)"
                d="M18.79 11.782c0.101 0 0.183-0.082 0.183-0.183s-0.082-0.183-0.183-0.183c-0.101 0-0.184 0.082-0.184 0.183s0.082 0.183 0.184 0.183z">
            </path>
            <path fill="#fff" style="fill: var(--color3, #fff)"
                d="M20.047 12.078c0.088 0 0.159-0.071 0.159-0.159s-0.071-0.159-0.159-0.159c-0.088 0-0.159 0.071-0.159 0.159s0.071 0.159 0.159 0.159z">
            </path>
            <path fill="#ffcf2d" style="fill: var(--color2, #ffcf2d)"
                d="M20.047 11.793c-0.069 0-0.126 0.056-0.126 0.125s0.056 0.125 0.126 0.125c0.069 0 0.125-0.056 0.125-0.125s-0.056-0.125-0.125-0.125zM19.854 11.918c0-0.107 0.086-0.193 0.193-0.193s0.193 0.086 0.193 0.193c0 0.107-0.086 0.193-0.193 0.193s-0.193-0.086-0.193-0.193z">
            </path>
            <path fill="#fff" style="fill: var(--color3, #fff)"
                d="M19.267 12.698c0.064 0 0.116-0.052 0.116-0.116s-0.052-0.116-0.116-0.116c-0.064 0-0.116 0.052-0.116 0.116s0.052 0.116 0.116 0.116z">
            </path>
            <path fill="#ffcf2d" style="fill: var(--color2, #ffcf2d)"
                d="M19.267 12.5c-0.045 0-0.082 0.037-0.082 0.082s0.037 0.082 0.082 0.082c0.046 0 0.082-0.037 0.082-0.082s-0.037-0.082-0.082-0.082zM19.118 12.582c0-0.083 0.067-0.15 0.15-0.15s0.15 0.067 0.15 0.15-0.067 0.15-0.15 0.15c-0.083 0-0.15-0.067-0.15-0.15z">
            </path>
            <path fill="#ffcf2d" style="fill: var(--color2, #ffcf2d)"
                d="M19.207 11.286c0.053 0 0.096-0.043 0.096-0.096s-0.043-0.096-0.096-0.096c-0.053 0-0.096 0.043-0.096 0.096s0.043 0.096 0.096 0.096z">
            </path>
            <path fill="#e57281" style="fill: var(--color9, #e57281)"
                d="M20.943 19.455v2.715h-2.164c-0.182 0-0.329-0.147-0.329-0.329v-0.223c0-0.1 0.044-0.189 0.115-0.25-0.070-0.061-0.115-0.15-0.115-0.25v-0.223c0-0.088 0.035-0.169 0.092-0.227-0.057-0.059-0.092-0.139-0.092-0.227v-0.223c0-0.090 0.036-0.173 0.096-0.233-0.059-0.059-0.096-0.142-0.096-0.232v-0.299l2.493-0.001z">
            </path>
            <path fill="#9a3b82" style="fill: var(--color1, #9a3b82)"
                d="M18.488 21.067c0.019 0 0.034 0.015 0.034 0.034 0 0.188 0.152 0.34 0.34 0.34h1.751c0.188 0 0.34-0.152 0.34-0.34 0-0.019 0.015-0.034 0.034-0.034s0.034 0.015 0.034 0.034c0 0.225-0.182 0.407-0.407 0.407h-1.751c-0.225 0-0.407-0.182-0.407-0.407 0-0.019 0.015-0.034 0.034-0.034z">
            </path>
            <path fill="#9a3b82" style="fill: var(--color1, #9a3b82)"
                d="M18.488 20.394c0.019 0 0.034 0.015 0.034 0.034 0 0.188 0.152 0.34 0.34 0.34h1.751c0.188 0 0.34-0.152 0.34-0.34 0-0.019 0.015-0.034 0.034-0.034s0.034 0.015 0.034 0.034c0 0.225-0.182 0.407-0.407 0.407h-1.751c-0.225 0-0.407-0.182-0.407-0.407 0-0.019 0.015-0.034 0.034-0.034z">
            </path>
            <path fill="#9a3b82" style="fill: var(--color1, #9a3b82)"
                d="M18.488 19.721c0.019 0 0.034 0.015 0.034 0.034 0 0.188 0.152 0.34 0.34 0.34h1.751c0.188 0 0.34-0.152 0.34-0.34 0-0.019 0.015-0.034 0.034-0.034s0.034 0.015 0.034 0.034c0 0.225-0.182 0.407-0.407 0.407h-1.751c-0.225 0-0.407-0.182-0.407-0.407 0-0.019 0.015-0.034 0.034-0.034z">
            </path>
            <path fill="#9a3b82" style="fill: var(--color1, #9a3b82)"
                d="M20.986 19.216c0.019 0 0.034 0.015 0.034 0.034v2.524c0 0.225-0.182 0.407-0.407 0.407h-1.769c-0.019 0-0.034-0.015-0.034-0.034s0.015-0.034 0.034-0.034h1.769c0.188 0 0.34-0.152 0.34-0.34v-2.524c0-0.019 0.015-0.034 0.034-0.034z">
            </path>
            <path fill="#9a3b82" style="fill: var(--color1, #9a3b82)"
                d="M20.588 19.057c-0.111 0-0.201 0.090-0.201 0.201 0 0.128-0.104 0.231-0.231 0.231h-1.004c-0.078 0-0.142-0.064-0.142-0.142s0.064-0.142 0.142-0.142h0.18c0.019 0 0.034 0.015 0.034 0.034s-0.015 0.034-0.034 0.034h-0.18c-0.041 0-0.074 0.033-0.074 0.074s0.033 0.074 0.074 0.074h1.004c0.090 0 0.163-0.073 0.163-0.163 0-0.148 0.12-0.268 0.268-0.268h0.163c0.148 0 0.268 0.12 0.268 0.268v0.437c0 0.019-0.015 0.034-0.034 0.034s-0.034-0.015-0.034-0.034v-0.437c0-0.111-0.090-0.201-0.201-0.201h-0.163z">
            </path>
            <path fill="#3fb1b5" style="fill: var(--color8, #3fb1b5)"
                d="M31.581 5.337l-4.491 4.605-5.177-5.707 5.651-3.977 4.017 5.079z"></path>
            <path fill="#ffcf2d" style="fill: var(--color2, #ffcf2d)"
                d="M21.543 4.216l5.919-4.15-0.046-0.066-5.995 4.203 5.463 5.988 0.060-0.055-5.401-5.92z"></path>
            <path fill="#ffcf2d" style="fill: var(--color2, #ffcf2d)"
                d="M28.457 5.915c-0.079-0.534-0.575-0.904-1.11-0.825l-0.339 0.050-0.012-0.080 0.339-0.050c0 0 0 0 0 0 0.579-0.086 1.116 0.316 1.202 0.893v0l0.295 2.013c0 0 0 0 0 0 0.096 0.652 0.795 1.025 1.39 0.74v0l1.412-0.676 0.035 0.073-1.412 0.676z">
            </path>
            <path fill="#ffcf2d" style="fill: var(--color2, #ffcf2d)"
                d="M33.453 8.402c0.144 0.078 0.281 0.159 0.405 0.24-0.022 0.117-0.062 0.233-0.121 0.345-0.059 0.111-0.135 0.209-0.221 0.291-0.136-0.059-0.279-0.128-0.424-0.206-0.722-0.39-1.225-0.855-1.125-1.040s0.765-0.020 1.487 0.37z">
            </path>
            <path fill="#66b0f0" style="fill: var(--color4, #66b0f0)"
                d="M31.813 7.856c-0.068 0-0.123 0.055-0.123 0.123s0.055 0.123 0.123 0.123c0.068 0 0.123-0.055 0.123-0.123s-0.055-0.123-0.123-0.123zM31.609 7.978c0-0.112 0.091-0.204 0.204-0.204s0.204 0.091 0.204 0.204-0.091 0.204-0.204 0.204c-0.113 0-0.204-0.091-0.204-0.204z">
            </path>
            <path fill="#fe5244" style="fill: var(--color5, #fe5244)"
                d="M15.763 26.947v5.053h-5.84v-2.977c0.127 0.332 1.613 0.12 3.2-0.487 1.427-0.546 2.529-1.218 2.64-1.589z">
            </path>
            <path fill="#66b0f0" style="fill: var(--color4, #66b0f0)"
                d="M15.763 26.8c-0.112 0.371-1.213 1.043-2.641 1.589-1.585 0.607-3.072 0.819-3.2 0.487s1.153-1.083 2.74-1.69c1.585-0.607 2.975-0.83 3.101-0.498 0.013 0.034 0.013 0.072 0 0.112z">
            </path>
            <path fill="#fff" style="fill: var(--color3, #fff)"
                d="M14.526 23.449v4.282l-0.322 0.163c-0.326 0.159-0.692 0.317-1.081 0.465-0.714 0.274-1.408 0.467-1.967 0.567l0.321-1.261 0.523-2.059c-0.248 0-0.483-0.111-0.641-0.302l-2.149-2.444c0.368-0.336 0.919 0.121 0.919 0.121l-0.206-1.054c-0.049-0.25 0.024-0.509 0.196-0.696l0.653-0.716c0.13-0.142 0.363-0.086 0.417 0.097l0.464 1.601c0 0 1.152 0.879 1.368 0.879 0.244 0 0.329-0.198-0.127-0.85-0.343-0.49 0-0.847 0-0.847l1.116 0.939c0.328 0.278 0.517 0.685 0.517 1.114z">
            </path>
            <path fill="#ffcf2d" style="fill: var(--color2, #ffcf2d)"
                d="M10.796 20.538c0.112-0.122 0.313-0.075 0.36 0.084 0 0 0 0 0 0l0.467 1.612 0.009 0.007 0.020-0.027c-0.020 0.027-0.020 0.027-0.020 0.027l0.003 0.002c0.002 0.002 0.005 0.004 0.010 0.007 0.009 0.006 0.021 0.016 0.037 0.028 0.032 0.024 0.078 0.059 0.134 0.1 0.112 0.083 0.263 0.193 0.42 0.303s0.323 0.221 0.462 0.304c0.070 0.041 0.133 0.076 0.187 0.101 0.052 0.024 0.1 0.041 0.135 0.041 0.065 0 0.125-0.013 0.169-0.049 0.045-0.037 0.067-0.094 0.064-0.167-0.003-0.072-0.030-0.163-0.083-0.275s-0.135-0.249-0.249-0.413c-0.165-0.236-0.164-0.437-0.124-0.579 0.020-0.071 0.051-0.128 0.076-0.167 0.009-0.014 0.017-0.025 0.024-0.034l1.090 0.917c0 0 0 0 0 0 0.32 0.271 0.505 0.669 0.505 1.088v4.261l-0.303 0.154c0 0-0 0-0 0-0.325 0.159-0.69 0.316-1.078 0.464h-0c-0.69 0.265-1.362 0.453-1.909 0.555l0.308-1.21 0.534-2.1h-0.043c-0.238 0-0.463-0.106-0.615-0.29l-2.127-2.419c0.165-0.131 0.367-0.104 0.537-0.037 0.089 0.035 0.167 0.081 0.223 0.117 0.028 0.018 0.050 0.034 0.066 0.046 0.008 0.006 0.014 0.010 0.017 0.013 0.002 0.002 0.003 0.003 0.004 0.003s0.001 0.001 0.001 0.001l0.073 0.061-0.225-1.146c0 0 0 0 0-0-0.047-0.239 0.023-0.487 0.187-0.667l0.653-0.716c0 0 0 0 0 0zM11.682 22.194l-0.461-1.591c-0.061-0.208-0.327-0.271-0.474-0.11h-0l-0.653 0.716c-0.179 0.195-0.254 0.465-0.204 0.725l0.19 0.968c-0.007-0.005-0.015-0.010-0.023-0.016-0.059-0.038-0.141-0.086-0.236-0.124-0.188-0.074-0.434-0.109-0.633 0.072l-0.024 0.022 2.17 2.469c0.155 0.188 0.381 0.301 0.623 0.313l-0.513 2.017-0.334 1.312 0.052-0.009c0.561-0.1 1.258-0.294 1.973-0.568 0 0 0 0 0 0v0c0 0 0 0 0 0 0.389-0.149 0.756-0.307 1.083-0.467l0.001-0 0.341-0.172v-4.302c0-0.439-0.193-0.856-0.529-1.14l-1.14-0.959-0.022 0.023 0.024 0.023c-0.024-0.023-0.024-0.023-0.024-0.023l-0 0-0 0c-0 0-0.001 0.001-0.001 0.001s-0.002 0.002-0.003 0.003-0.007 0.008-0.011 0.013c-0.009 0.011-0.022 0.028-0.036 0.050-0.028 0.043-0.062 0.106-0.084 0.186-0.045 0.16-0.044 0.382 0.133 0.636 0.113 0.162 0.192 0.295 0.244 0.403s0.074 0.189 0.076 0.248c0.002 0.058-0.015 0.092-0.040 0.112-0.027 0.022-0.068 0.034-0.126 0.034-0.019 0-0.054-0.011-0.107-0.035-0.051-0.023-0.112-0.057-0.181-0.098-0.137-0.082-0.301-0.191-0.458-0.301s-0.308-0.219-0.419-0.302c-0.056-0.041-0.101-0.075-0.133-0.099-0.016-0.012-0.028-0.021-0.037-0.028-0.001-0.001-0.003-0.002-0.004-0.003z">
            </path>
            <path fill="#ffcf2d" style="fill: var(--color2, #ffcf2d)"
                d="M10.386 20.891c0.142-0.156 0.391-0.095 0.45 0.106l0.444 1.53 0.808 0.646-0.042 0.053-0.825-0.66-0.449-1.551c0 0 0 0 0 0-0.044-0.152-0.229-0.196-0.335-0.080l-0.050-0.045z">
            </path>
            <path fill="#ffcf2d" style="fill: var(--color2, #ffcf2d)"
                d="M9.996 21.341c0.135-0.149 0.381-0.092 0.436 0.101l0.419 1.448 0.701 0.571-0.043 0.052-0.718-0.584-0.425-1.468c-0.041-0.142-0.222-0.184-0.322-0.075l-0.050-0.045z">
            </path>
            <path fill="#ffcf2d" style="fill: var(--color2, #ffcf2d)"
                d="M10.149 22.957l0.777 0.652-0.043 0.052-0.777-0.651 0.043-0.052z"></path>
            <path fill="#ffcf2d" style="fill: var(--color2, #ffcf2d)" d="M12.908 25.64h-0.908v-0.067h0.908v0.067z">
            </path>
            <path fill="#ffcf2d" style="fill: var(--color2, #ffcf2d)"
                d="M14.526 26.627v1.132c-0.402 0.213-0.881 0.429-1.403 0.63-0.715 0.274-1.41 0.467-1.97 0.567l0.324-1.263c0.359-0.173 0.761-0.345 1.186-0.507 0.687-0.262 1.337-0.453 1.863-0.558z">
            </path>
            <path fill="#ffcf2d" style="fill: var(--color2, #ffcf2d)"
                d="M13.982 13.285l-0.407-0.894 0.074-0.034 0.413 0.905 0.001 0.006c0.042 0.355-0.211 0.676-0.567 0.719l-0 0c-0.311 0.036-0.533 0.318-0.496 0.629 0 0 0 0 0 0l0.059 0.499-0.080 0.009-0.059-0.499c-0.042-0.355 0.211-0.678 0.567-0.719 0.309-0.038 0.53-0.315 0.497-0.623z">
            </path>
            <path fill="#fe5244" style="fill: var(--color5, #fe5244)"
                d="M18.357 9.484l2.161-3.372-7.433-0.059-2.435 6.483 4.020-0.189 3.687-2.862z"></path>
            <path fill="#ffcf2d" style="fill: var(--color2, #ffcf2d)"
                d="M12.807 5.729l7.8 0.088-0.001 0.081-7.743-0.087-2.571 6.778-0.076-0.029 2.591-6.83z"></path>
            <path fill="#66b0f0" style="fill: var(--color4, #66b0f0)"
                d="M18.223 8.978c0.432 0.741-0.302 1.973-1.64 2.753s-2.772 0.811-3.204 0.070c-0.059-0.101-0.096-0.21-0.113-0.328-0.108-0.741 0.598-1.752 1.754-2.425s2.384-0.789 2.975-0.331c0.093 0.073 0.17 0.159 0.229 0.26z">
            </path>
            <path fill="#fff" style="fill: var(--color3, #fff)"
                d="M16.723 8.499c-0.519 0.055-1.109 0.25-1.683 0.584s-1.035 0.752-1.338 1.176c-0.304 0.425-0.447 0.853-0.396 1.209 0.017 0.113 0.052 0.217 0.108 0.313v0c0.205 0.352 0.653 0.527 1.226 0.515 0.572-0.012 1.258-0.213 1.922-0.6s1.177-0.886 1.469-1.377c0.293-0.493 0.361-0.969 0.156-1.321-0.057-0.097-0.13-0.179-0.219-0.249-0.284-0.22-0.726-0.306-1.246-0.251zM16.714 8.418c0.531-0.056 0.997 0.029 1.304 0.267l0 0c0.097 0.076 0.177 0.166 0.239 0.272v0c0.227 0.389 0.143 0.899-0.157 1.403-0.301 0.505-0.824 1.013-1.498 1.405s-1.374 0.598-1.961 0.611c-0.586 0.013-1.071-0.166-1.298-0.555-0.062-0.106-0.1-0.22-0.118-0.342v-0c-0.056-0.385 0.099-0.833 0.41-1.267s0.781-0.86 1.363-1.199c0.582-0.339 1.184-0.538 1.715-0.595z">
            </path>
            <path fill="#fff" style="fill: var(--color3, #fff)"
                d="M16.619 7.889c0.575-0.013 1.026 0.163 1.233 0.518l0.168 0.288c-0.001-0.001-0.003-0.002-0.004-0.003l-0-0c-0.305-0.237-0.77-0.322-1.3-0.266s-1.131 0.255-1.713 0.594-1.051 0.763-1.361 1.197c-0.31 0.433-0.464 0.88-0.409 1.262l0.033-0.005-0.033 0.005c0 0.002 0.001 0.004 0.001 0.006l-0.168-0.288c-0.207-0.355-0.138-0.834 0.156-1.328 0.293-0.492 0.807-0.992 1.472-1.379s1.352-0.587 1.925-0.6zM18.252 8.961l-0.343-0.588c-0.225-0.386-0.707-0.564-1.292-0.551-0.587 0.013-1.285 0.218-1.958 0.609h-0c-0.673 0.392-1.196 0.899-1.496 1.403-0.3 0.503-0.382 1.010-0.157 1.396 0 0 0 0 0 0l0.34 0.583c0.001 0.002 0.002 0.003 0.003 0.005l0.058-0.034-0-0c-0.001-0.002-0.002-0.003-0.003-0.005-0.056-0.096-0.091-0.199-0.106-0.311v-0c-0.052-0.358 0.093-0.788 0.397-1.214s0.765-0.843 1.34-1.178c0.574-0.335 1.166-0.53 1.686-0.585s0.965 0.030 1.251 0.252c0.090 0.070 0.164 0.153 0.221 0.251l0.058-0.034-0-0z">
            </path>
            <path fill="#ffcf2d" style="fill: var(--color2, #ffcf2d)"
                d="M12.901 16.941c-0.053 0.155-0.109 0.303-0.169 0.44-0.12-0.001-0.241-0.022-0.36-0.062-0.12-0.040-0.228-0.097-0.325-0.169 0.035-0.144 0.078-0.297 0.131-0.452 0.262-0.777 0.634-1.352 0.834-1.286 0.2 0.068 0.15 0.751-0.111 1.528z">
            </path>
            <path fill="#66b0f0" style="fill: var(--color4, #66b0f0)"
                d="M13.039 15.129c-0.068 0-0.123 0.055-0.123 0.123s0.055 0.123 0.123 0.123c0.068 0 0.123-0.055 0.123-0.123s-0.055-0.123-0.123-0.123zM12.835 15.252c0-0.113 0.091-0.204 0.204-0.204s0.204 0.091 0.204 0.204c0 0.112-0.091 0.204-0.204 0.204s-0.204-0.091-0.204-0.204z">
            </path>
            <path fill="#66b0f0" style="fill: var(--color4, #66b0f0)"
                d="M6.074 26.479v5.521h-6.065v-8.126c0.119 0.398 1.388 1.228 2.964 1.921 1.677 0.741 3.066 1.045 3.101 0.684z">
            </path>
            <path fill="#9a3b82" style="fill: var(--color1, #9a3b82)"
                d="M6.074 26.332c-0.036 0.362-1.425 0.055-3.101-0.684-1.576-0.695-2.845-1.524-2.964-1.921-0.008-0.026-0.011-0.050-0.008-0.071 0.035-0.361 1.425-0.055 3.101 0.684s3.008 1.631 2.972 1.992z">
            </path>
            <path fill="#a0505a" style="fill: var(--color6, #a0505a)"
                d="M2.485 18.412c0.144-0.297 0.445-0.486 0.776-0.486h0.954l0.050 3.834 0.665 3.523 0.212 1.12c-0.561-0.124-1.327-0.385-2.166-0.754-0.475-0.209-1.070-0.519-1.466-0.738v-4.665c0-0.063 0.012-0.127 0.034-0.186l0.943-1.648z">
            </path>
            <path fill="#73325a" style="fill: var(--color7, #73325a)"
                d="M5.139 26.403c-0.561-0.124-1.327-0.385-2.166-0.754-0.475-0.209-1.070-0.519-1.466-0.738v-1.172c0.433 0.139 1.074 0.371 1.596 0.6 0.704 0.31 1.319 0.63 1.827 0.944l0.21 1.12z">
            </path>
            <path fill="#fff" style="fill: var(--color3, #fff)"
                d="M8.691 13.617l-5.074 9.334c-0.188 0.345-0.704 0.428-1.153 0.183s-0.661-0.722-0.474-1.068l5.074-9.335 1.627 0.885z">
            </path>
            <path fill="#ffcf2d" style="fill: var(--color2, #ffcf2d)"
                d="M7.051 12.686l1.686 0.917-5.090 9.364c-0.1 0.184-0.286 0.296-0.503 0.33s-0.466-0.008-0.696-0.133c-0.458-0.249-0.687-0.744-0.487-1.114h0l5.090-9.364zM7.078 12.777l-5.057 9.305c-0.175 0.324 0.019 0.783 0.46 1.023 0.219 0.119 0.453 0.158 0.653 0.126s0.366-0.134 0.454-0.296l5.057-9.305-1.568-0.853z">
            </path>
            <path fill="#66b0f0" style="fill: var(--color4, #66b0f0)"
                d="M8.69 13.619c0.188-0.346-0.024-0.824-0.473-1.068s-0.965-0.162-1.153 0.184c-0.188 0.346 0.024 0.824 0.473 1.068s0.965 0.162 1.153-0.184z">
            </path>
            <path fill="#ffcf2d" style="fill: var(--color2, #ffcf2d)"
                d="M7.094 12.751c-0.175 0.323 0.019 0.783 0.459 1.022s0.932 0.152 1.107-0.17c0.175-0.323-0.019-0.783-0.459-1.022s-0.932-0.152-1.107 0.17zM7.521 13.832c-0.458-0.249-0.687-0.745-0.487-1.113s0.741-0.446 1.199-0.197 0.687 0.745 0.486 1.113c-0.2 0.369-0.741 0.446-1.199 0.197z">
            </path>
            <path fill="#fe5244" style="fill: var(--color5, #fe5244)"
                d="M5.377 17.19l2.397-1.957-0.038 0.696 0.768 0.192-1.748 1.079c0.469-0.081 1.035-0.147 1.5-0.111 0.554 0.043 0.368 0.692 0.161 1.246 0.486-0.047 2.114-1.033 2.728-0.847 0.375 0.113 0.24 0.878 0.132 1.3 0.156 0.008 0.948-0.001 0.948-0.001l-0.418 0.382 0.229 0.382c-0.89 0.039-0.901-0.101-0.789-0.733 0.019-0.687-0.742-0.027-2.362 0.36-0.803 0.192-0.699-0.33-0.5-0.874-0.080-0.25-0.675-0.521-2.586-0.022l-0.421-1.093z">
            </path>
            <path fill="#fff" style="fill: var(--color3, #fff)"
                d="M5.412 18.382c0.391 0 0.708-0.317 0.708-0.708s-0.317-0.708-0.708-0.708c-0.391 0-0.708 0.317-0.708 0.708s0.317 0.708 0.708 0.708z">
            </path>
            <path fill="#fe5244" style="fill: var(--color5, #fe5244)"
                d="M5.412 17c-0.372 0-0.675 0.302-0.675 0.674s0.302 0.674 0.675 0.674 0.675-0.302 0.675-0.674c0-0.372-0.302-0.674-0.675-0.674zM4.67 17.674c0-0.41 0.332-0.742 0.742-0.742s0.742 0.332 0.742 0.742c0 0.41-0.332 0.742-0.742 0.742s-0.742-0.332-0.742-0.742z">
            </path>
            <path fill="#a0505a" style="fill: var(--color6, #a0505a)"
                d="M5.168 17.927v0.044c0 0.453-0.367 0.821-0.822 0.821h-0.862v-0.866h1.684z"></path>
            <path fill="#a0505a" style="fill: var(--color6, #a0505a)"
                d="M6.217 19.59l-0.228 0.534-0.266 0.625-0.144 0.339-0.22 0.517c-0.005 0.014-0.013 0.028-0.020 0.040 0 0.001-0.001 0.001-0.001 0.003-0.070 0.121-0.206 0.197-0.356 0.197h-1.747c-0.212 0-0.356-0.201-0.278-0.386l0.127-0.298 0.279-0.656 0.24-0.565 0.212-0.496c0.062-0.146 0.212-0.242 0.379-0.242h1.747c0.21 0.003 0.355 0.204 0.277 0.389z">
            </path>
            <path fill="#73325a" style="fill: var(--color7, #73325a)"
                d="M3.967 19.846c-0.104 0-0.2 0.044-0.266 0.118-0.012 0.014-0.034 0.015-0.048 0.002s-0.015-0.034-0.002-0.048c0.079-0.088 0.193-0.141 0.316-0.141h1.669c0.196 0 0.338 0.169 0.318 0.349-0.002 0.018-0.019 0.032-0.037 0.030s-0.032-0.019-0.030-0.037c0.015-0.141-0.096-0.274-0.251-0.274h-1.669z">
            </path>
            <path fill="#73325a" style="fill: var(--color7, #73325a)"
                d="M3.726 20.427c-0.098 0-0.188 0.038-0.253 0.103-0.013 0.013-0.035 0.013-0.048 0s-0.013-0.034 0-0.048c0.078-0.078 0.185-0.123 0.3-0.123h1.669c0.214 0 0.362 0.199 0.308 0.396-0.005 0.018-0.024 0.029-0.042 0.024s-0.028-0.024-0.024-0.041c0.043-0.154-0.073-0.311-0.243-0.311h-1.669z">
            </path>
            <path fill="#73325a" style="fill: var(--color7, #73325a)"
                d="M3.457 21.088c-0.094 0-0.181 0.036-0.247 0.097-0.014 0.013-0.035 0.012-0.048-0.001s-0.012-0.035 0.001-0.048c0.078-0.073 0.182-0.116 0.293-0.116h1.669c0.22 0 0.373 0.214 0.302 0.417-0.006 0.018-0.025 0.027-0.043 0.021s-0.027-0.026-0.021-0.043c0.056-0.158-0.064-0.327-0.238-0.327h-1.669z">
            </path>
            <path fill="#ffcf2d" style="fill: var(--color2, #ffcf2d)"
                d="M9.221 3.9c0.112-0.12 0.224-0.232 0.335-0.332 0.108 0.050 0.21 0.119 0.304 0.205 0.092 0.086 0.169 0.183 0.227 0.287-0.092 0.117-0.194 0.237-0.306 0.357-0.558 0.6-1.134 0.971-1.29 0.828-0.154-0.143 0.173-0.746 0.731-1.346z">
            </path>
            <path fill="#66b0f0" style="fill: var(--color4, #66b0f0)"
                d="M5.301 8.654l-0.178 0.111c-0.646 0.401-1.905-0.461-2.81-1.925-0.906-1.464-1.117-2.973-0.472-3.374l0.183-0.113 1.091 3.21 2.185 2.091z">
            </path>
            <path fill="#66b0f0" style="fill: var(--color4, #66b0f0)"
                d="M7.109 10.385l-3.994-3.823-2.067-6.078 4.542 3.66 1.519 6.241z"></path>
            <path fill="#fff" style="fill: var(--color3, #fff)"
                d="M0.965 0.365l4.661 3.756 1.555 6.389-4.102-3.925-2.115-6.22zM1.131 0.603l2.019 5.937 3.887 3.72-1.483-6.094-4.423-3.564z">
            </path>
            <path fill="#9a3b82" style="fill: var(--color1, #9a3b82)"
                d="M1.169 0.329l4.61 3.631 1.511 6.244-0.079 0.019-1.505-6.217-4.588-3.613 0.050-0.064z"></path>
            <path fill="#ffcf2d" style="fill: var(--color2, #ffcf2d)"
                d="M6.392 5.499c-0.137-0.425-0.578-0.673-1.014-0.568h-0c-0.458 0.111-0.741 0.573-0.63 1.032l-0.079 0.019c-0.121-0.502 0.188-1.008 0.689-1.129 0.477-0.116 0.96 0.157 1.11 0.622l0 0 0.379 1.224c0.197 0.637 1.114 0.588 1.242-0.067l0.219-1.124 0.079 0.015-0.219 1.124c-0.144 0.737-1.177 0.793-1.399 0.076zM6.771 6.722l-0.379-1.223c-0-0-0-0-0-0z">
            </path>
            <path fill="#66b0f0" style="fill: var(--color4, #66b0f0)"
                d="M8.4 5.26c-0.068 0-0.123 0.055-0.123 0.123s0.055 0.123 0.123 0.123c0.068 0 0.123-0.055 0.123-0.123s-0.055-0.123-0.123-0.123zM8.196 5.383c0-0.112 0.091-0.204 0.204-0.204s0.204 0.091 0.204 0.204c0 0.112-0.091 0.204-0.204 0.204s-0.204-0.091-0.204-0.204z">
            </path>
        </symbol>
    </defs>
</svg>