<svg width="16" height="17" viewBox="0 0 16 17" fill="none" xmlns="http://www.w3.org/2000/svg">
<path fill-rule="evenodd" clip-rule="evenodd" d="M5.00016 1.33301C5.36835 1.33301 5.66683 1.63148 5.66683 1.99967V2.33302L10.3335 2.33303V1.99967C10.3335 1.63148 10.632 1.33301 11.0002 1.33301C11.3684 1.33301 11.6668 1.63148 11.6668 1.99967V2.33303L12.5002 2.33303C13.9729 2.33303 15.1668 3.52694 15.1668 4.9997V12.9997C15.1668 14.4724 13.9729 15.6663 12.5002 15.6663L3.50016 15.6663C2.0274 15.6663 0.833496 14.4724 0.833496 12.9997L0.833496 6.4998L0.833496 4.99968C0.833496 3.52692 2.02741 2.33301 3.50017 2.33301L4.3335 2.33301V1.99967C4.3335 1.63148 4.63197 1.33301 5.00016 1.33301ZM4.3335 3.66635L3.50017 3.66634C2.76378 3.66634 2.16683 4.2633 2.16683 4.99968V5.83301H13.8335V4.9997C13.8335 4.26332 13.2365 3.66636 12.5002 3.66636L11.6668 3.66636V3.99967C11.6668 4.36786 11.3684 4.66634 11.0002 4.66634C10.632 4.66634 10.3335 4.36786 10.3335 3.99967V3.66636L5.66683 3.66635V3.99967C5.66683 4.36786 5.36835 4.66634 5.00016 4.66634C4.63197 4.66634 4.3335 4.36786 4.3335 3.99967V3.66635ZM13.8335 7.16634H2.16683L2.16683 12.9997C2.16683 13.7361 2.76378 14.333 3.50016 14.333L12.5002 14.333C13.2365 14.333 13.8335 13.7361 13.8335 12.9997V7.16634Z" fill="#787A80"/>
</svg>
