<svg width="20" height="20" fill="none" xmlns="http://www.w3.org/2000/svg"><path d="M10 19.167c5.054 0 9.167-4.112 9.167-9.166 0-.873-.122-1.733-.363-2.556a.763.763 0 1 0-1.467.429c.2.684.302 1.4.302 2.127 0 4.212-3.427 7.639-7.64 7.639-4.211 0-7.638-3.427-7.638-7.64 0-4.211 3.427-7.638 7.639-7.638 1.53 0 3.003.447 4.259 1.294a.764.764 0 0 0 .854-1.267A9.11 9.11 0 0 0 10 .834C4.946.834.833 4.946.833 10.001c0 5.054 4.113 9.166 9.167 9.166Z" fill="#FF3F3A"/><path d="M18.577 1.911 10 10.488 7.256 7.745a.833.833 0 0 0-1.179 1.178l3.334 3.333a.83.83 0 0 0 1.178 0l9.167-9.166a.833.833 0 0 0-1.179-1.179Z" fill="#FF3F3A"/></svg>