<svg width="16" height="17" viewBox="0 0 16 17" fill="none" xmlns="http://www.w3.org/2000/svg">
<path d="M8.6665 4.83366C8.6665 4.46547 8.36803 4.16699 7.99984 4.16699C7.63165 4.16699 7.33317 4.46547 7.33317 4.83366V8.50033C7.33317 8.67714 7.40341 8.84671 7.52843 8.97173L9.52843 10.9717C9.78878 11.2321 10.2109 11.2321 10.4712 10.9717C10.7316 10.7114 10.7316 10.2893 10.4712 10.0289L8.6665 8.22418V4.83366Z" fill="#787A80"/>
<path fill-rule="evenodd" clip-rule="evenodd" d="M7.99984 1.16699C3.94975 1.16699 0.666504 4.45024 0.666504 8.50033C0.666504 12.5504 3.94975 15.8337 7.99984 15.8337C12.0499 15.8337 15.3332 12.5504 15.3332 8.50033C15.3332 4.45024 12.0499 1.16699 7.99984 1.16699ZM1.99984 8.50033C1.99984 5.18662 4.68613 2.50033 7.99984 2.50033C11.3135 2.50033 13.9998 5.18662 13.9998 8.50033C13.9998 11.814 11.3135 14.5003 7.99984 14.5003C4.68613 14.5003 1.99984 11.814 1.99984 8.50033Z" fill="#787A80"/>
</svg>
