<svg width="15" height="13" fill="none" xmlns="http://www.w3.org/2000/svg"><path d="M1.76 3.679C3.564 2.175 5.64 1.333 7.835 1.333c2.194 0 4.27.842 6.073 2.346a.667.667 0 0 0 .854-1.024C12.756.982 10.387 0 7.834 0S2.91.982.907 2.655a.667.667 0 1 0 .854 1.024Z" fill="#424551"/><path fill-rule="evenodd" clip-rule="evenodd" d="M2.734 4.46c1.2-1.013 2.91-1.96 4.85-1.96 1.94 0 3.65.947 4.85 1.96.604.51 1.1 1.054 1.45 1.54.174.242.32.48.425.7.096.203.191.459.191.717 0 .257-.095.513-.191.716-.105.22-.25.458-.426.7a8.849 8.849 0 0 1-1.45 1.541c-1.199 1.012-2.909 1.96-4.85 1.96-1.94 0-3.65-.948-4.849-1.96a8.852 8.852 0 0 1-1.45-1.54 4.63 4.63 0 0 1-.425-.701C.762 7.93.667 7.674.667 7.417c0-.258.095-.514.192-.716.104-.221.25-.459.425-.701a8.85 8.85 0 0 1 1.45-1.54Zm-.729 2.957c.007.022.022.069.058.143.061.13.161.298.303.494.282.392.702.857 1.228 1.301C4.657 10.253 6.072 11 7.584 11c1.511 0 2.926-.747 3.989-1.645.527-.444.946-.91 1.229-1.3.141-.197.241-.365.303-.495.035-.074.05-.12.057-.143a1.015 1.015 0 0 0-.057-.144 3.322 3.322 0 0 0-.303-.494 7.528 7.528 0 0 0-1.229-1.3 8.276 8.276 0 0 0-.715-.542 3.417 3.417 0 1 1-6.548 0c-.253.17-.492.352-.716.541-.526.445-.946.91-1.228 1.301a3.322 3.322 0 0 0-.303.494c-.036.074-.051.121-.058.144Zm3.495-1.5a2.083 2.083 0 1 1 4.167 0 2.083 2.083 0 0 1-4.167 0Z" fill="#424551"/></svg>