<svg width="16" height="16" viewBox="0 0 16 16" fill="none" xmlns="http://www.w3.org/2000/svg">
<path fill-rule="evenodd" clip-rule="evenodd" d="M5.3335 8.99967C5.3335 8.63148 5.63197 8.33301 6.00016 8.33301H10.0002C10.3684 8.33301 10.6668 8.63148 10.6668 8.99967C10.6668 9.36786 10.3684 9.66634 10.0002 9.66634H6.00016C5.63197 9.66634 5.3335 9.36786 5.3335 8.99967Z" fill="#9A9CA5"/>
<path fill-rule="evenodd" clip-rule="evenodd" d="M5.3335 11.4997C5.3335 11.1315 5.63197 10.833 6.00016 10.833H8.00016C8.36835 10.833 8.66683 11.1315 8.66683 11.4997C8.66683 11.8679 8.36835 12.1663 8.00016 12.1663H6.00016C5.63197 12.1663 5.3335 11.8679 5.3335 11.4997Z" fill="#9A9CA5"/>
<path fill-rule="evenodd" clip-rule="evenodd" d="M6.02877 1.02827C6.1538 0.903246 6.32337 0.833008 6.50018 0.833008H11.0002C12.4729 0.833008 13.6668 2.02692 13.6668 3.49967L13.6668 12.4997C13.6668 13.9724 12.4729 15.1663 11.0002 15.1663H5.00016C3.5274 15.1663 2.33349 13.9724 2.3335 12.4997L2.33351 4.99967C2.33351 4.82286 2.40375 4.65329 2.52877 4.52827L6.02877 1.02827ZM6.33349 2.60917V4.83301H4.10965L6.33349 2.60917ZM3.66684 6.16634L3.66683 12.4997C3.66683 13.2361 4.26378 13.833 5.00016 13.833H11.0002C11.7366 13.833 12.3335 13.2361 12.3335 12.4997L12.3335 3.49967C12.3335 2.76329 11.7366 2.16634 11.0002 2.16634H7.66682V5.49967C7.66682 5.86786 7.36835 6.16634 7.00016 6.16634H3.66684Z" fill="#9A9CA5"/>
</svg>
