<svg width="18" height="18" fill="none" xmlns="http://www.w3.org/2000/svg"><path d="M9.176 7.752h8.23c.09.507.135.992.135 1.453 0 1.642-.344 3.108-1.033 4.399a7.457 7.457 0 0 1-2.945 3.025c-1.275.726-2.738 1.09-4.387 1.09a8.57 8.57 0 0 1-3.394-.687A8.718 8.718 0 0 1 3 15.176a8.719 8.719 0 0 1-1.856-2.781A8.57 8.57 0 0 1 .458 9c0-1.188.229-2.32.687-3.394A8.717 8.717 0 0 1 3 2.826 8.717 8.717 0 0 1 5.78.97 8.57 8.57 0 0 1 9.177.283c2.27 0 4.218.76 5.845 2.282L12.65 4.846c-.93-.9-2.089-1.35-3.473-1.35-.977 0-1.879.245-2.708.737A5.437 5.437 0 0 0 4.5 6.237 5.456 5.456 0 0 0 3.773 9c0 .999.242 1.92.726 2.764a5.437 5.437 0 0 0 1.97 2.003 5.21 5.21 0 0 0 2.707.738c.658 0 1.263-.09 1.816-.272.552-.182 1.006-.409 1.362-.681.356-.273.666-.583.93-.931.266-.348.46-.678.585-.988.125-.31.21-.605.256-.885h-4.95V7.752Z" fill="#787A80"/></svg>