<svg aria-hidden="true" style="position: absolute; width: 0; height: 0; overflow: hidden;" version="1.1"
    xmlns="http://www.w3.org/2000/svg" xmlns:xlink="http://www.w3.org/1999/xlink">
    <defs>
        <symbol id="search" viewBox="0 0 32 32">
            <path fill="#9a9ca5" style="fill: var(--color1, #9a9ca5)"
                d="M14.5 4.333c-5.615 0-10.167 4.552-10.167 10.167s4.552 10.167 10.167 10.167c2.805 0 5.343-1.134 7.184-2.973 1.844-1.842 2.983-4.384 2.983-7.194 0-5.615-4.552-10.167-10.167-10.167zM1.667 14.499c0-7.088 5.746-12.833 12.833-12.833s12.833 5.746 12.833 12.833c0 3.066-1.076 5.882-2.869 8.088l5.478 5.468c0.521 0.52 0.522 1.365 0.002 1.886s-1.364 0.522-1.886 0.002l-5.481-5.471c-2.205 1.788-5.017 2.86-8.077 2.86-7.088 0-12.833-5.746-12.833-12.833z">
            </path>
        </symbol>
        <symbol id="braces" viewBox="0 0 46 32">
            <path fill="#ff3f3a" style="fill: var(--color1, #ff3f3a)"
                d="M28.806 14.281c0-0.471 0.207-0.917 0.567-1.221l15.433-13.059v30.4c0 0.884-0.716 1.6-1.6 1.6h-12.8c-0.884 0-1.6-0.716-1.6-1.6v-16.119z">
            </path>
            <path fill="#ff3f3a" style="fill: var(--color1, #ff3f3a)"
                d="M0.006 14.281c0-0.471 0.207-0.917 0.567-1.221l15.434-13.059v30.4c0 0.884-0.716 1.6-1.6 1.6h-12.8c-0.884 0-1.6-0.716-1.6-1.6v-16.119z">
            </path>
        </symbol>
        <symbol id="convert" viewBox="0 0 32 32">
            <path
                d="M2.799 2.667c0.736 0 1.333 0.597 1.333 1.333v5.915c2.211-4.303 6.693-7.248 11.867-7.248 5.807 0 10.745 3.712 12.574 8.889 0.245 0.694-0.119 1.456-0.813 1.701s-1.456-0.118-1.701-0.813c-1.465-4.145-5.418-7.111-10.060-7.111-3.947 0-7.395 2.144-9.24 5.333h4.040c0.736 0 1.333 0.597 1.333 1.333s-0.597 1.333-1.333 1.333h-8c-0.736 0-1.333-0.597-1.333-1.333v-8c0-0.736 0.597-1.333 1.333-1.333z">
            </path>
            <path
                d="M4.236 18.743c0.694-0.245 1.456 0.118 1.701 0.813 1.465 4.145 5.418 7.111 10.060 7.111 3.947 0 7.395-2.144 9.24-5.333h-4.040c-0.736 0-1.333-0.597-1.333-1.333s0.597-1.333 1.333-1.333h8c0.736 0 1.333 0.597 1.333 1.333v8c0 0.736-0.597 1.333-1.333 1.333s-1.333-0.597-1.333-1.333v-5.915c-2.211 4.303-6.693 7.248-11.867 7.248-5.808 0-10.745-3.712-12.574-8.889-0.245-0.694 0.119-1.456 0.813-1.701z">
            </path>
        </symbol>
        <symbol id="dot" viewBox="0 0 331 32">
            <path fill="none" stroke="#b3b7bc" style="stroke: var(--color3, #b3b7bc)" stroke-linejoin="miter"
                stroke-linecap="round" stroke-miterlimit="4" stroke-width="32" d="M16.042 16h288"></path>
        </symbol>
        <symbol id="icon-facebook" viewBox="0 0 32 32">
            <path
                d="M23.417 1.339l-3.703-0.006c-4.16 0-6.849 2.833-6.849 7.219v3.328h-3.723c-0.322 0-0.582 0.268-0.582 0.598v4.823c0 0.33 0.261 0.598 0.582 0.598h3.723v12.169c0 0.331 0.261 0.598 0.582 0.598h4.858c0.322 0 0.582-0.268 0.582-0.598v-12.169h4.353c0.322 0 0.582-0.268 0.582-0.598l0.002-4.823c0-0.159-0.062-0.311-0.171-0.423s-0.258-0.175-0.412-0.175h-4.355v-2.822c0-1.356 0.315-2.045 2.034-2.045l2.495-0.001c0.321 0 0.582-0.268 0.582-0.598v-4.478c0-0.33-0.26-0.598-0.581-0.598z">
            </path>
        </symbol>
        <symbol id="icon-heart" viewBox="0 0 32 32">
            <path fill="#ff3f3a" style="fill: var(--color1, #ff3f3a)"
                d="M15.999 26.543c-6.132-3.493-9.552-6.964-11.206-9.976-1.693-3.083-1.545-5.679-0.606-7.522 1.931-3.788 7.421-4.999 10.766-0.768l1.046 1.323 1.046-1.323c3.346-4.231 8.836-3.019 10.767 0.768 0.939 1.843 1.087 4.439-0.606 7.522-1.654 3.012-5.074 6.483-11.207 9.976zM16 5.475c-4.706-4.471-11.647-2.623-14.188 2.36-1.394 2.735-1.413 6.27 0.644 10.016 2.039 3.713 6.104 7.633 12.898 11.388l0.645 0.356 0.645-0.356c6.795-3.755 10.86-7.675 12.899-11.388 2.057-3.746 2.038-7.281 0.644-10.016-2.54-4.983-9.482-6.831-14.188-2.36z">
            </path>
        </symbol>
        <symbol id="icon-instagram" viewBox="0 0 32 32">
            <path
                d="M29.307 10.507c-0.062-1.417-0.292-2.391-0.62-3.235-0.339-0.896-0.86-1.698-1.542-2.365-0.667-0.677-1.474-1.203-2.36-1.537-0.849-0.328-1.818-0.557-3.235-0.62-1.428-0.068-1.881-0.083-5.501-0.083s-4.074 0.016-5.496 0.078c-1.417 0.062-2.391 0.292-3.235 0.62-0.896 0.339-1.698 0.86-2.365 1.542-0.677 0.667-1.203 1.474-1.537 2.36-0.328 0.849-0.557 1.818-0.62 3.235-0.068 1.427-0.083 1.881-0.083 5.501s0.016 4.074 0.078 5.496c0.062 1.417 0.292 2.391 0.62 3.235 0.339 0.896 0.865 1.698 1.542 2.365 0.667 0.677 1.474 1.203 2.36 1.537 0.849 0.328 1.818 0.557 3.235 0.62 1.422 0.063 1.875 0.078 5.496 0.078s4.074-0.015 5.496-0.078c1.417-0.062 2.391-0.292 3.235-0.62 1.792-0.693 3.209-2.11 3.902-3.902 0.328-0.849 0.557-1.818 0.62-3.235 0.063-1.422 0.078-1.875 0.078-5.496s-0.005-4.074-0.068-5.496zM26.906 21.394c-0.057 1.302-0.276 2.006-0.459 2.474-0.448 1.162-1.37 2.084-2.532 2.532-0.469 0.182-1.177 0.401-2.475 0.458-1.406 0.063-1.828 0.078-5.386 0.078s-3.985-0.015-5.387-0.078c-1.302-0.057-2.006-0.276-2.474-0.458-0.578-0.214-1.104-0.552-1.531-0.995-0.443-0.432-0.781-0.953-0.995-1.531-0.182-0.469-0.401-1.177-0.458-2.474-0.063-1.407-0.078-1.829-0.078-5.387s0.015-3.985 0.078-5.386c0.057-1.302 0.276-2.006 0.458-2.474 0.214-0.578 0.552-1.104 1-1.532 0.432-0.443 0.953-0.781 1.531-0.995 0.469-0.182 1.177-0.401 2.474-0.458 1.407-0.062 1.829-0.078 5.386-0.078 3.563 0 3.985 0.016 5.387 0.078 1.302 0.057 2.006 0.276 2.474 0.458 0.578 0.213 1.104 0.552 1.531 0.995 0.443 0.432 0.781 0.953 0.995 1.532 0.182 0.469 0.401 1.177 0.459 2.474 0.062 1.407 0.078 1.828 0.078 5.386s-0.016 3.975-0.078 5.381z">
            </path>
            <path
                d="M16.049 9.152c-3.782 0-6.85 3.068-6.85 6.85s3.068 6.85 6.85 6.85c3.782 0 6.85-3.068 6.85-6.85s-3.068-6.85-6.85-6.85zM16.049 20.446c-2.453 0-4.444-1.99-4.444-4.444s1.99-4.444 4.444-4.444c2.454 0 4.444 1.99 4.444 4.444s-1.99 4.444-4.444 4.444z">
            </path>
            <path
                d="M24.77 8.881c0 0.883-0.716 1.599-1.599 1.599s-1.599-0.716-1.599-1.599c0-0.883 0.716-1.599 1.599-1.599s1.599 0.716 1.599 1.599z">
            </path>
        </symbol>
        <symbol id="icon-phone" viewBox="0 0 32 32">
            <path
                d="M11.334 3.897c-1.105 0-2 0.895-2 2v20.208c0 1.105 0.895 2 2 2h9.333c1.105 0 2-0.895 2-2v-20.208c0-1.105-0.895-2-2-2h-0.111l-0.325 0.779c-0.207 0.497-0.692 0.82-1.231 0.82h-6c-0.538 0-1.024-0.324-1.231-0.82l-0.325-0.779h-0.111zM6.667 5.897c0-2.577 2.089-4.667 4.667-4.667h9.333c2.577 0 4.667 2.089 4.667 4.667v20.208c0 2.577-2.089 4.667-4.667 4.667h-9.333c-2.577 0-4.667-2.089-4.667-4.667v-20.208z">
            </path>
        </symbol>
        <symbol id="left" viewBox="0 0 32 32">
            <path
                d="M12.276 22.943c-0.521 0.521-1.365 0.521-1.886 0l-6-6c-0.521-0.521-0.521-1.365 0-1.886l6-6c0.521-0.521 1.365-0.521 1.886 0s0.521 1.365 0 1.886l-3.724 3.724h18.114c0.736 0 1.333 0.597 1.333 1.333s-0.597 1.333-1.333 1.333h-18.114l3.724 3.724c0.521 0.521 0.521 1.365 0 1.886z">
            </path>
        </symbol>
        <symbol id="icon-linked-in" viewBox="0 0 32 32">
            <path
                d="M29.327 29.333l0.007-0.001v-9.78c0-4.785-1.030-8.47-6.623-8.47-2.689 0-4.493 1.476-5.23 2.874h-0.078v-2.428h-5.303v17.803h5.522v-8.816c0-2.321 0.44-4.566 3.315-4.566 2.832 0 2.874 2.649 2.874 4.715v8.668h5.517z">
            </path>
            <path d="M3.107 11.53h5.529v17.803h-5.529v-17.803z"></path>
            <path
                d="M5.869 2.667c-1.768 0-3.202 1.434-3.202 3.202s1.434 3.232 3.202 3.232c1.768 0 3.202-1.464 3.202-3.232-0.001-1.768-1.436-3.202-3.202-3.202z">
            </path>
        </symbol>
        <symbol id="icon-google" viewBox="0 0 32 32">
            <path
                d="M16.313 13.781h14.631c0.16 0.901 0.24 1.764 0.24 2.583 0 2.919-0.612 5.525-1.836 7.82-1.216 2.275-3.001 4.107-5.17 5.344l-0.065 0.034c-2.267 1.291-4.868 1.938-7.799 1.938-0.017 0-0.037 0-0.057 0-2.16 0-4.214-0.449-6.075-1.26l0.098 0.038c-1.921-0.814-3.563-1.928-4.947-3.301l0.001 0.001c-1.372-1.382-2.485-3.023-3.261-4.843l-0.038-0.101c-0.771-1.762-1.22-3.815-1.22-5.973 0-0.022 0-0.044 0-0.066v0.003c0-2.112 0.407-4.124 1.221-6.034 0.814-1.92 1.927-3.56 3.299-4.943l-0.001 0.001c1.382-1.372 3.022-2.485 4.841-3.261l0.101-0.038c1.763-0.772 3.818-1.221 5.977-1.221 0.022 0 0.044 0 0.065 0h-0.003c4.036 0 7.499 1.351 10.391 4.057l-4.217 4.055c-1.653-1.6-3.714-2.4-6.174-2.4-1.737 0-3.34 0.436-4.814 1.31-1.465 0.874-2.65 2.079-3.476 3.516l-0.025 0.047c-0.813 1.388-1.293 3.057-1.293 4.838 0 0.026 0 0.052 0 0.078l-0-0.004c0 1.776 0.43 3.413 1.291 4.914 0.851 1.483 2.037 2.687 3.458 3.536l0.044 0.024c1.357 0.824 2.998 1.312 4.752 1.312 0.021 0 0.042-0 0.063-0l-0.003 0c1.17 0 2.245-0.16 3.228-0.484 0.981-0.324 1.788-0.727 2.421-1.211 0.633-0.485 1.184-1.036 1.653-1.655 0.473-0.619 0.818-1.205 1.040-1.756s0.373-1.076 0.455-1.573h-8.8v-5.326z">
            </path>
        </symbol>
        <symbol id="icon-heart" viewBox="0 0 32 32">
            <path fill="#ff3f3a" style="fill: var(--color2, #ff3f3a)"
                d="M16 26.542c-6.132-3.492-9.552-6.962-11.206-9.974-1.694-3.084-1.546-5.68-0.606-7.522 1.93-3.788 7.42-5 10.766-0.768l1.046 1.322 1.046-1.322c3.344-4.232 8.836-3.020 10.766 0.768 0.94 1.842 1.086 4.44-0.606 7.52-1.654 3.014-5.074 6.484-11.206 9.978zM16 5.474c-4.706-4.47-11.648-2.622-14.188 2.36-1.394 2.736-1.414 6.27 0.644 10.016 2.040 3.714 6.104 7.634 12.9 11.388l0.644 0.358 0.644-0.358c6.796-3.754 10.86-7.674 12.9-11.388 2.056-3.746 2.038-7.28 0.644-10.016-2.54-4.982-9.482-6.83-14.188-2.36z">
            </path>
        </symbol>
        <symbol id="icon-mail" viewBox="0 0 32 32">
            <path
                d="M30.334 23.999v-14.667c0-2.209-1.791-4-4-4l-20.667 0c-2.209 0-4 1.791-4 4v14.667c0 2.209 1.791 4 4 4h20.667c2.209 0 4-1.791 4-4zM27.667 12.345v11.654c0 0.736-0.597 1.333-1.333 1.333h-20.667c-0.736 0-1.333-0.597-1.333-1.333v-11.654l9.418 6.404c1.357 0.923 3.141 0.923 4.498 0l9.417-6.404zM27.652 9.13l-10.902 7.413c-0.452 0.308-1.047 0.308-1.499 0l-10.902-7.413c0.097-0.64 0.65-1.131 1.318-1.131l20.667-0c0.668 0 1.221 0.491 1.318 1.131z">
            </path>
        </symbol>
        <symbol id="right" viewBox="0 0 33 32">
            <path
                d="M19.729 9.057c0.521-0.521 1.365-0.521 1.886 0l6 6c0.521 0.521 0.521 1.365 0 1.886l-6 6c-0.521 0.521-1.365 0.521-1.886 0s-0.521-1.365 0-1.886l3.724-3.724h-18.114c-0.736 0-1.333-0.597-1.333-1.333s0.597-1.333 1.333-1.333h18.114l-3.724-3.724c-0.521-0.521-0.521-1.365 0-1.886z">
            </path>
        </symbol>
        <symbol id="icon-telegram" viewBox="0 0 32 32">
            <path
                d="M12.844 20.242l-0.485 7.445c0.694 0 0.995-0.325 1.355-0.716l3.255-3.393 6.744 5.388c1.237 0.752 2.108 0.356 2.442-1.241l4.427-22.629 0.001-0.001c0.392-1.995-0.661-2.775-1.866-2.285l-26.022 10.868c-1.776 0.752-1.749 1.832-0.302 2.321l6.653 2.257 15.453-10.548c0.727-0.525 1.388-0.235 0.845 0.291l-12.5 12.244z">
            </path>
        </symbol>
        <symbol id="icon-twitter" viewBox="0 0 32 32">
            <path
                d="M30 7.696c-1.031 0.437-2.136 0.734-3.298 0.866 1.186-0.68 2.094-1.759 2.525-3.041-1.113 0.63-2.341 1.087-3.65 1.335-1.048-1.071-2.539-1.737-4.192-1.737-3.172 0-5.744 2.463-5.744 5.498 0 0.431 0.051 0.851 0.149 1.253-4.773-0.23-9.005-2.419-11.838-5.746-0.495 0.811-0.777 1.756-0.777 2.764 0 1.908 1.015 3.592 2.555 4.577-0.941-0.030-1.827-0.278-2.602-0.69v0.069c0 2.664 1.981 4.887 4.607 5.393-0.481 0.124-0.989 0.193-1.513 0.193-0.371 0-0.73-0.035-1.081-0.102 0.731 2.186 2.852 3.776 5.365 3.82-1.965 1.474-4.442 2.351-7.133 2.351-0.464 0-0.92-0.027-1.37-0.075 2.542 1.563 5.56 2.475 8.804 2.475 10.566 0 16.342-8.38 16.342-15.648l-0.019-0.712c1.129-0.771 2.105-1.739 2.873-2.841z">
            </path>
        </symbol>

        <symbol id="icon-person" viewBox="0 0 32 32">
            <path
                d="M16 4.334c-2.577 0-4.667 2.089-4.667 4.667s2.089 4.667 4.667 4.667c2.577 0 4.667-2.089 4.667-4.667s-2.089-4.667-4.667-4.667zM8.667 9.001c0-4.050 3.283-7.333 7.333-7.333s7.333 3.283 7.333 7.333c0 4.050-3.283 7.333-7.333 7.333s-7.333-3.283-7.333-7.333z">
            </path>
            <path
                d="M8.139 20.334c-0.924 0-1.647 0.45-1.94 1.097-0.406 0.895-0.774 1.961-0.86 2.971-0.039 0.452 0.15 0.785 0.409 0.946 1.372 0.852 4.552 2.319 10.253 2.319s8.88-1.467 10.253-2.319c0.26-0.161 0.448-0.494 0.409-0.946-0.087-1.011-0.454-2.076-0.86-2.971-0.293-0.647-1.016-1.097-1.94-1.097h-15.723zM3.77 20.329c0.811-1.787 2.621-2.662 4.369-2.662h15.723c1.748 0 3.558 0.875 4.369 2.662 0.466 1.027 0.965 2.407 1.089 3.845 0.112 1.31-0.432 2.677-1.659 3.439-1.805 1.121-5.474 2.721-11.66 2.721s-9.855-1.6-11.66-2.721c-1.227-0.762-1.771-2.13-1.659-3.439 0.123-1.438 0.623-2.818 1.089-3.845z">
            </path>
        </symbol>
        <symbol id="icon-cross" viewBox="0 0 32 32">
            <path
                d="M0.586 0.586c0.362-0.362 0.862-0.586 1.414-0.586s1.052 0.224 1.414 0.586l12.586 12.586 12.586-12.586c0.364-0.377 0.874-0.611 1.439-0.611 1.105 0 2 0.895 2 2 0 0.565-0.234 1.074-0.61 1.438l-0.001 0.001-12.586 12.586 12.586 12.586c0.347 0.359 0.561 0.849 0.561 1.389 0 1.105-0.895 2-2 2-0.54 0-1.030-0.214-1.39-0.562l0.001 0.001-12.586-12.586-12.586 12.586c-0.359 0.347-0.849 0.561-1.389 0.561-1.105 0-2-0.895-2-2 0-0.54 0.214-1.030 0.562-1.39l-0.001 0.001 12.586-12.586-12.586-12.586c-0.362-0.362-0.586-0.862-0.586-1.414s0.224-1.052 0.586-1.414v0z">
            </path>
        </symbol>
        <symbol id="icon-check" viewBox="0 0 36 32">
            <path fill="#fff" style="fill: var(--color1, #fff)"
                d="M34.944 2.471c0.818 0.924 0.818 2.428 0 3.353l-20.917 23.705c-0.355 0.426-0.885 0.696-1.479 0.696s-1.124-0.269-1.477-0.693l-0.003-0.003-10.453-11.858c-0.38-0.449-0.611-1.035-0.611-1.675s0.231-1.226 0.615-1.678l-0.003 0.004c0.355-0.425 0.885-0.694 1.477-0.694s1.123 0.269 1.475 0.691l0.002 0.003 8.981 10.176 19.435-22.027c0.355-0.426 0.885-0.696 1.479-0.696s1.124 0.269 1.477 0.693l0.003 0.003z">
            </path>
        </symbol>
        <symbol id="icon-eye" viewBox="0 0 37 32">
            <path fill="#424551" style="fill: var(--color1, #424551)"
                d="M4.332 9.056c4.441-3.702 9.551-5.775 14.954-5.775 5.401 0 10.511 2.073 14.949 5.775 0.276 0.218 0.629 0.349 1.013 0.349 0.907 0 1.642-0.735 1.642-1.642 0-0.488-0.213-0.926-0.551-1.227l-0.002-0.001c-4.938-4.118-10.769-6.535-17.054-6.535s-12.121 2.417-17.051 6.535c-0.385 0.303-0.629 0.769-0.629 1.292 0 0.907 0.735 1.642 1.642 1.642 0.419 0 0.801-0.157 1.091-0.415l-0.002 0.001z">
            </path>
            <path fill="#424551" style="fill: var(--color1, #424551)"
                d="M6.73 10.978c2.954-2.494 7.163-4.825 11.938-4.825s8.985 2.331 11.938 4.825c1.487 1.255 2.708 2.594 3.569 3.791 0.428 0.596 0.788 1.182 1.046 1.723 0.236 0.5 0.47 1.13 0.47 1.765 0 0.633-0.234 1.263-0.47 1.762-0.258 0.542-0.615 1.127-1.049 1.723-1.058 1.426-2.232 2.671-3.536 3.766l-0.034 0.027c-2.951 2.491-7.161 4.825-11.938 4.825-4.775 0-8.985-2.334-11.936-4.825-1.337-1.122-2.511-2.365-3.528-3.733l-0.041-0.058c-0.371-0.499-0.719-1.065-1.016-1.66l-0.030-0.066c-0.239-0.5-0.473-1.13-0.473-1.762 0-0.635 0.234-1.265 0.473-1.762 0.256-0.544 0.615-1.13 1.046-1.726 1.058-1.425 2.232-2.669 3.536-3.763l0.034-0.027zM4.935 18.257c0.017 0.054 0.054 0.17 0.143 0.352 0.15 0.32 0.396 0.734 0.746 1.216 0.694 0.965 1.728 2.11 3.023 3.202 2.617 2.21 6.1 4.049 9.822 4.049 3.719 0 7.202-1.839 9.819-4.049 1.297-1.093 2.329-2.24 3.025-3.2 0.347-0.485 0.593-0.898 0.746-1.218 0.086-0.182 0.123-0.295 0.14-0.352-0.043-0.139-0.091-0.256-0.147-0.369l0.007 0.015c-0.234-0.466-0.482-0.864-0.761-1.237l0.015 0.021c-0.898-1.202-1.892-2.252-2.996-3.176l-0.029-0.024c-0.52-0.443-1.093-0.881-1.69-1.289l-0.070-0.045c0.223 0.721 0.352 1.549 0.352 2.408 0 4.645-3.766 8.411-8.411 8.411s-8.411-3.766-8.411-8.411c0-0.859 0.129-1.687 0.368-2.467l-0.016 0.060c-0.623 0.418-1.211 0.866-1.762 1.332-1.295 1.095-2.329 2.24-3.023 3.202-0.264 0.352-0.512 0.75-0.724 1.169l-0.021 0.047c-0.089 0.182-0.126 0.298-0.143 0.354zM13.538 14.565c0-2.832 2.296-5.129 5.129-5.129s5.129 2.296 5.129 5.129v0c0 2.832-2.296 5.129-5.129 5.129s-5.129-2.296-5.129-5.129v0z">
            </path>
        </symbol>
        <symbol id="icon-closed-eye" viewBox="0 0 24 24">
            <path fill="#424551" style="fill: var(--color1, #424551)"
                d="M10.128 5.214c0.651-0.152 1.296-0.221 1.86-0.214 1.758 0 3.309 0.559 4.658 1.393 1.119 0.692 2.089 1.567 2.894 2.448 0.644 0.705 1.175 1.405 1.585 2.001 0.327 0.475 0.57 0.874 0.733 1.155-0.546 0.953-1.16 1.821-1.778 2.542-0.359 0.419-0.311 1.051 0.108 1.41s1.051 0.311 1.41-0.108c0.818-0.954 1.611-2.112 2.283-3.37 0.148-0.279 0.163-0.618 0.013-0.919 0 0-0.396-0.789-1.12-1.843-0.451-0.656-1.038-1.432-1.757-2.218-0.894-0.979-2.004-1.987-3.319-2.8-1.595-0.985-3.506-1.691-5.686-1.691-0.734-0.009-1.54 0.079-2.34 0.266-0.538 0.126-0.872 0.664-0.746 1.202s0.664 0.872 1.202 0.746zM10.027 11.442l2.531 2.531c-0.182 0.061-0.372 0.094-0.563 0.101-0.513 0.018-1.030-0.159-1.434-0.536s-0.617-0.88-0.635-1.393c-0.008-0.238 0.025-0.476 0.101-0.704zM5.983 7.397l2.553 2.553c-0.434 0.691-0.636 1.484-0.608 2.266 0.036 1.022 0.463 2.033 1.271 2.785s1.846 1.107 2.868 1.071c0.692-0.024 1.379-0.228 1.984-0.608l2.322 2.322c-1.378 0.799-2.895 1.196-4.384 1.214-1.734 0-3.285-0.559-4.634-1.393-1.119-0.692-2.089-1.567-2.894-2.448-0.644-0.705-1.175-1.405-1.585-2.001-0.326-0.475-0.57-0.873-0.732-1.154 1.050-1.822 2.376-3.379 3.841-4.607zM0.293 1.707l4.271 4.271c-1.731 1.479-3.269 3.358-4.445 5.549-0.148 0.279-0.164 0.619-0.013 0.92 0 0 0.396 0.789 1.12 1.843 0.451 0.656 1.038 1.432 1.757 2.218 0.894 0.979 2.004 1.987 3.319 2.8 1.595 0.986 3.506 1.692 5.71 1.692 1.993-0.024 4.019-0.601 5.815-1.759l4.466 4.466c0.391 0.391 1.024 0.391 1.414 0s0.391-1.024 0-1.414l-8.876-8.876c-0.002-0.002-0.005-0.005-0.007-0.007l-4.209-4.21c-0.008-0.007-0.016-0.016-0.024-0.024l-8.884-8.883c-0.391-0.391-1.024-0.391-1.414 0s-0.391 1.024 0 1.414z">
            </path>
        </symbol>
        <symbol id="icon-opened-eye" viewBox="0 0 24 24">
            <path fill="#424551" style="fill: var(--color1, #424551)"
                d="M0.106 11.553c-0.136 0.274-0.146 0.603 0 0.894 0 0 0.396 0.789 1.12 1.843 0.451 0.656 1.038 1.432 1.757 2.218 0.894 0.979 2.004 1.987 3.319 2.8 1.595 0.986 3.506 1.692 5.698 1.692s4.103-0.706 5.698-1.692c1.315-0.813 2.425-1.821 3.319-2.8 0.718-0.786 1.306-1.562 1.757-2.218 0.724-1.054 1.12-1.843 1.12-1.843 0.136-0.274 0.146-0.603 0-0.894 0 0-0.396-0.789-1.12-1.843-0.451-0.656-1.038-1.432-1.757-2.218-0.894-0.979-2.004-1.987-3.319-2.8-1.595-0.986-3.506-1.692-5.698-1.692s-4.103 0.706-5.698 1.692c-1.315 0.813-2.425 1.821-3.319 2.8-0.719 0.786-1.306 1.561-1.757 2.218-0.724 1.054-1.12 1.843-1.12 1.843zM2.14 12c0.163-0.281 0.407-0.681 0.734-1.158 0.41-0.596 0.94-1.296 1.585-2.001 0.805-0.881 1.775-1.756 2.894-2.448 1.35-0.834 2.901-1.393 4.647-1.393s3.297 0.559 4.646 1.393c1.119 0.692 2.089 1.567 2.894 2.448 0.644 0.705 1.175 1.405 1.585 2.001 0.328 0.477 0.572 0.876 0.734 1.158-0.163 0.281-0.407 0.681-0.734 1.158-0.41 0.596-0.94 1.296-1.585 2.001-0.805 0.881-1.775 1.756-2.894 2.448-1.349 0.834-2.9 1.393-4.646 1.393s-3.297-0.559-4.646-1.393c-1.119-0.692-2.089-1.567-2.894-2.448-0.644-0.705-1.175-1.405-1.585-2.001-0.328-0.477-0.572-0.877-0.735-1.158zM16 12c0-1.104-0.449-2.106-1.172-2.828s-1.724-1.172-2.828-1.172-2.106 0.449-2.828 1.172-1.172 1.724-1.172 2.828 0.449 2.106 1.172 2.828 1.724 1.172 2.828 1.172 2.106-0.449 2.828-1.172 1.172-1.724 1.172-2.828zM14 12c0 0.553-0.223 1.051-0.586 1.414s-0.861 0.586-1.414 0.586-1.051-0.223-1.414-0.586-0.586-0.861-0.586-1.414 0.223-1.051 0.586-1.414 0.861-0.586 1.414-0.586 1.051 0.223 1.414 0.586 0.586 0.861 0.586 1.414z">
            </path>
        </symbol>
        <symbol id="icon-logo" viewBox="0 0 189 32">
            <path
                d="M0 16.145c0-8.873 4.8-14.255 12.655-14.255 5.964 0 10.764 3.636 11.636 9.018 0.145 0.582-0.291 1.018-0.873 1.018h-3.782c-0.436 0-0.727-0.291-0.873-0.727-0.727-2.764-3.055-4.509-6.109-4.509-4.218 0-6.836 3.636-6.836 9.455s2.618 9.455 6.982 9.455c3.055 0 5.236-1.6 6.109-4.218 0.145-0.436 0.436-0.727 0.873-0.727h3.782c0.582 0 1.018 0.582 0.873 1.018-0.873 5.236-5.527 8.727-11.636 8.727-8 0-12.8-5.527-12.8-14.255zM35.345 29.673h-4.218c-0.436 0-0.727-0.291-0.727-0.727v-25.164c0-0.582 0.582-1.164 1.164-1.164h10.182c5.964 0 9.6 3.345 9.6 8.582 0 3.055-1.455 5.818-3.927 7.273-0.582 0.291-0.727 1.018-0.436 1.455l4.509 8.582c0.291 0.436-0.145 1.018-0.582 1.018h-4.8c-0.291 0-0.582-0.145-0.727-0.436l-4.218-8.727c-0.145-0.436-0.582-0.582-1.018-0.582h-3.345c-0.436 0-0.727 0.291-0.727 0.727v8.582c0.145 0.291-0.291 0.582-0.727 0.582zM36.218 14.836c0 0.436 0.291 0.727 0.727 0.727h4.364c2.909 0 4.509-1.6 4.509-4.218s-1.745-4.218-4.509-4.218h-4.218c-0.436 0-0.727 0.291-0.727 0.727v6.982h-0.145zM74.909 29.673h-16c-0.582 0-1.018-0.436-1.018-1.018v-25.018c0-0.582 0.436-1.018 1.018-1.018h16c0.582 0 1.018 0.436 1.018 1.018v2.764c0 0.582-0.436 1.018-1.018 1.018h-10.618c-0.436 0-0.727 0.291-0.727 0.727v4.945c0 0.436 0.291 0.727 0.727 0.727h9.891c0.582 0 1.018 0.436 1.018 1.018v2.473c0 0.582-0.436 1.018-1.018 1.018h-9.891c-0.436 0-0.727 0.291-0.727 0.727v5.527c0 0.436 0.291 0.727 0.727 0.727h10.618c0.582 0 1.018 0.436 1.018 1.018v2.764c0 0.145-0.436 0.582-1.018 0.582zM97.455 23.127h-8.291c-0.436 0-0.727 0.291-0.873 0.582l-1.6 5.382c-0.145 0.436-0.436 0.582-0.873 0.582h-3.782c-0.582 0-1.018-0.582-0.873-1.164l8.727-25.309c0.145-0.291 0.436-0.582 0.873-0.582h5.382c0.436 0 0.727 0.291 0.873 0.582l8.727 25.309c0.145 0.582-0.291 1.164-0.873 1.164h-4.218c-0.436 0-0.727-0.291-0.873-0.582l-1.6-5.382c0-0.291-0.436-0.582-0.727-0.582zM90.327 18.909h5.964c0.291 0 0.436-0.291 0.436-0.582l-3.2-10.182h-0.291l-3.2 10.182c-0.145 0.291 0 0.582 0.291 0.582zM114.909 28.655v-20.655c0-0.436-0.291-0.727-0.727-0.727h-6.4c-0.582 0-1.164-0.436-1.164-1.164v-2.473c0-0.582 0.436-1.164 1.164-1.164h19.782c0.582 0 1.164 0.436 1.164 1.164v2.473c0 0.582-0.436 1.164-1.164 1.164h-6.4c-0.436 0-0.727 0.291-0.727 0.727v20.8c0 0.582-0.436 1.018-1.018 1.018h-3.636c-0.436-0.145-0.873-0.582-0.873-1.164zM150.982 29.673h-16c-0.582 0-1.018-0.436-1.018-1.018v-25.018c0-0.582 0.436-1.018 1.018-1.018h16c0.582 0 1.018 0.436 1.018 1.018v2.764c0 0.582-0.436 1.018-1.018 1.018h-10.618c-0.436 0-0.727 0.291-0.727 0.727v4.945c0 0.436 0.291 0.727 0.727 0.727h9.891c0.582 0 1.018 0.436 1.018 1.018v2.473c0 0.582-0.436 1.018-1.018 1.018h-9.891c-0.436 0-0.727 0.291-0.727 0.727v5.527c0 0.436 0.291 0.727 0.727 0.727h10.618c0.582 0 1.018 0.436 1.018 1.018v2.764c0 0.145-0.436 0.582-1.018 0.582z">
            </path>
            <path fill="#ff3f3a" style="fill: var(--color2, #ff3f3a)"
                d="M171.2 14.109l-9.018-11.782c-0.582-0.582-1.309-0.873-2.036-0.873s-1.455 0.291-2.036 0.873c-1.018 1.164-1.018 2.909 0 4.073l7.127 9.6-7.127 9.6c-1.018 1.164-1.018 2.909 0 4.073 0.582 0.582 1.309 0.873 2.036 0.873s1.455-0.291 2.036-0.873l9.018-11.782c1.018-0.873 1.018-2.618 0-3.782zM175.044 14.109l9.018-11.782c0.582-0.582 1.309-0.873 2.036-0.873s1.455 0.291 2.036 0.873c1.018 1.164 1.018 2.909 0 4.073l-7.127 9.6 7.127 9.6c1.018 1.164 1.018 2.909 0 4.073-0.582 0.582-1.309 0.873-2.036 0.873s-1.455-0.291-2.036-0.873l-9.018-11.782c-1.018-0.873-1.018-2.618 0-3.782z">
            </path>
        </symbol>

        <symbol id="icon-youtube" viewBox="0 0 32 32">
            <path
                d="M31.327 8.273c-0.386-1.353-1.431-2.398-2.756-2.777l-0.028-0.007c-2.493-0.668-12.528-0.668-12.528-0.668s-10.009-0.013-12.528 0.668c-1.353 0.386-2.398 1.431-2.777 2.756l-0.007 0.028c-0.443 2.281-0.696 4.903-0.696 7.585 0 0.054 0 0.109 0 0.163l-0-0.008c-0 0.037-0 0.082-0 0.126 0 2.682 0.253 5.304 0.737 7.845l-0.041-0.26c0.386 1.353 1.431 2.398 2.756 2.777l0.028 0.007c2.491 0.669 12.528 0.669 12.528 0.669s10.008 0 12.528-0.669c1.353-0.386 2.398-1.431 2.777-2.756l0.007-0.028c0.425-2.233 0.668-4.803 0.668-7.429 0-0.099-0-0.198-0.001-0.297l0 0.015c0.001-0.092 0.001-0.201 0.001-0.31 0-2.626-0.243-5.196-0.708-7.687l0.040 0.258zM12.812 20.801v-9.591l8.352 4.803z">
            </path>
        </symbol>

        <symbol id="icon-google" viewBox="0 0 32 32">
            <path
                d="M16.313 13.781h14.631c0.16 0.901 0.24 1.764 0.24 2.583 0 2.919-0.612 5.525-1.836 7.82-1.216 2.275-3.001 4.107-5.17 5.344l-0.065 0.034c-2.267 1.291-4.868 1.938-7.799 1.938-0.017 0-0.037 0-0.057 0-2.16 0-4.214-0.449-6.075-1.26l0.098 0.038c-1.921-0.814-3.563-1.928-4.947-3.301l0.001 0.001c-1.372-1.382-2.485-3.023-3.261-4.843l-0.038-0.101c-0.771-1.762-1.22-3.815-1.22-5.973 0-0.022 0-0.044 0-0.066v0.003c0-2.112 0.407-4.124 1.221-6.034 0.814-1.92 1.927-3.56 3.299-4.943l-0.001 0.001c1.382-1.372 3.022-2.485 4.841-3.261l0.101-0.038c1.763-0.772 3.818-1.221 5.977-1.221 0.022 0 0.044 0 0.065 0h-0.003c4.036 0 7.499 1.351 10.391 4.057l-4.217 4.055c-1.653-1.6-3.714-2.4-6.174-2.4-1.737 0-3.34 0.436-4.814 1.31-1.465 0.874-2.65 2.079-3.476 3.516l-0.025 0.047c-0.813 1.388-1.293 3.057-1.293 4.838 0 0.026 0 0.052 0 0.078l-0-0.004c0 1.776 0.43 3.413 1.291 4.914 0.851 1.483 2.037 2.687 3.458 3.536l0.044 0.024c1.357 0.824 2.998 1.312 4.752 1.312 0.021 0 0.042-0 0.063-0l-0.003 0c1.17 0 2.245-0.16 3.228-0.484 0.981-0.324 1.788-0.727 2.421-1.211 0.633-0.485 1.184-1.036 1.653-1.655 0.473-0.619 0.818-1.205 1.040-1.756s0.373-1.076 0.455-1.573h-8.8v-5.326z">
            </path>
        </symbol>

        <symbol id="icon-play-video" viewBox="0 0 32 32">
            <path fill="#ff3f3a" style="fill: var(--color1, #ff3f3a)"
                d="M32 16c0 8.837-7.163 16-16 16s-16-7.163-16-16c0-8.837 7.163-16 16-16s16 7.163 16 16z"></path>
            <path
                d="M20 15.467c0.41 0.237 0.41 0.829 0 1.066l-5.538 3.198c-0.41 0.237-0.923-0.059-0.923-0.533v-6.395c0-0.474 0.513-0.77 0.923-0.533l5.538 3.198z">
            </path>
        </symbol>

        <symbol id="icon-calendar" viewBox="0 0 32 32">
            <path fill="#ff3f3a" style="fill: var(--color1, #ff3f3a)"
                d="M29.087 11.808c-0.113-0.113-0.27-0.182-0.442-0.183h-0c-0.164 0-0.325 0.067-0.442 0.183-0.113 0.113-0.182 0.27-0.183 0.442v0c0 0.165 0.067 0.325 0.183 0.442 0.113 0.112 0.269 0.182 0.441 0.183h0c0.165 0 0.326-0.067 0.442-0.183 0.113-0.113 0.183-0.269 0.183-0.442v-0c0-0.165-0.067-0.325-0.183-0.442z">
            </path>
            <path fill="#ff3f3a" style="fill: var(--color1, #ff3f3a)"
                d="M28.521 4.625h-0.715c0.111-0.113 0.179-0.267 0.179-0.438v-0.812c-0.001-1.173-0.952-2.124-2.125-2.125h-0c-1.174 0.001-2.125 0.952-2.126 2.125v1.25h-5.796c0.111-0.113 0.179-0.267 0.179-0.438v-0.812c-0.001-1.173-0.952-2.124-2.125-2.125h-0c-1.173 0.002-2.124 0.952-2.125 2.125v1.25h-5.797c0.111-0.113 0.179-0.267 0.179-0.438v-0.812c-0.001-1.173-0.952-2.124-2.125-2.125h-0c-1.173 0.002-2.123 0.952-2.124 2.125v1.25h-0.521c-1.92 0.002-3.476 1.558-3.479 3.478v20.771c0.001 1.035 0.84 1.874 1.875 1.875h10.791c0.336-0.011 0.605-0.287 0.605-0.625s-0.268-0.614-0.604-0.625l-0.001-0h-10.792c-0.345-0.001-0.624-0.28-0.625-0.625v-16h24.333c0.336-0.011 0.605-0.287 0.605-0.625s-0.268-0.614-0.604-0.625l-0.001-0h-24.333v-3.52c0-1.23 1-2.23 2.229-2.23h0.521v1.511c0.001 1.173 0.952 2.124 2.125 2.125h0c1.173-0.002 2.124-0.952 2.125-2.125v-0c-0.011-0.336-0.287-0.605-0.625-0.605s-0.614 0.268-0.625 0.604l-0 0.001c-0.023 0.465-0.406 0.834-0.875 0.834s-0.852-0.369-0.875-0.832l-0-0.002v-1.509h8.617v1.51c0.001 1.173 0.952 2.124 2.125 2.125h0c1.173-0.001 2.124-0.952 2.125-2.125v-0c-0.011-0.336-0.287-0.605-0.625-0.605s-0.614 0.268-0.625 0.604l-0 0.001c-0.023 0.465-0.406 0.834-0.875 0.834s-0.852-0.369-0.875-0.832l-0-0.002v-1.51h8.616v1.51c0.001 1.173 0.952 2.124 2.125 2.125h0c1.173-0.002 2.124-0.952 2.125-2.125v-0c-0.011-0.336-0.287-0.605-0.625-0.605s-0.614 0.268-0.625 0.604l-0 0.001c0 0.483-0.393 0.875-0.875 0.875-0.483-0-0.875-0.392-0.875-0.875v-1.51h3.537c1.229 0 2.229 1 2.229 2.229v20.771c0 0.345-0.28 0.625-0.625 0.625h-10.791c-0.336 0.011-0.605 0.287-0.605 0.625s0.268 0.614 0.604 0.625l0.001 0h10.792c1.035-0.002 1.874-0.84 1.875-1.875v-20.77c-0.002-1.921-1.559-3.477-3.479-3.479h-0zM5.25 4.625v-1.25c0.023-0.465 0.406-0.834 0.875-0.834s0.852 0.369 0.875 0.832l0 0.002v0.811c0 0.171 0.069 0.325 0.179 0.438h-1.929zM15.117 4.625v-1.25c0.023-0.465 0.406-0.834 0.875-0.834s0.852 0.369 0.875 0.832l0 0.002v0.811c0 0.171 0.069 0.325 0.18 0.438h-1.929zM24.984 4.625v-1.25c0.023-0.465 0.406-0.834 0.875-0.834s0.852 0.369 0.875 0.832l0 0.002v0.811c0 0.171 0.069 0.325 0.179 0.438h-1.929z">
            </path>
            <path fill="#ff3f3a" style="fill: var(--color1, #ff3f3a)"
                d="M6 14.875c-1.449 0.002-2.623 1.176-2.625 2.624v0c0.002 1.449 1.176 2.624 2.625 2.625h0c1.449-0.002 2.624-1.176 2.625-2.625v-0c-0.002-1.449-1.176-2.624-2.625-2.625h-0zM6 18.875c-0.759-0.001-1.375-0.616-1.375-1.375v-0c0-0.758 0.617-1.375 1.375-1.375s1.375 0.617 1.375 1.375c-0.001 0.759-0.616 1.375-1.375 1.375h-0zM26 14.875c-1.449 0.002-2.623 1.176-2.625 2.624v0c0.002 1.449 1.176 2.624 2.625 2.625h0c1.449-0.002 2.624-1.176 2.625-2.625v-0c-0.002-1.449-1.176-2.624-2.625-2.625h-0zM26 18.875c-0.759-0.001-1.375-0.616-1.375-1.375v-0c0-0.758 0.617-1.375 1.375-1.375s1.375 0.617 1.375 1.375c-0.001 0.759-0.616 1.375-1.375 1.375h-0zM19.334 14.875c-1.449 0.002-2.623 1.176-2.625 2.624v0c0.002 1.449 1.176 2.624 2.625 2.625h0c1.449-0.002 2.623-1.176 2.625-2.625v-0c-0.002-1.449-1.176-2.623-2.625-2.625h-0zM19.334 18.875c-0.759-0.001-1.375-0.616-1.375-1.375v-0c0-0.758 0.617-1.375 1.375-1.375s1.375 0.617 1.375 1.375c-0.001 0.759-0.616 1.375-1.376 1.375h-0zM12.666 14.875c-1.449 0.002-2.623 1.176-2.625 2.624v0c0.002 1.449 1.176 2.623 2.624 2.625h0c1.449-0.002 2.624-1.176 2.625-2.625v-0c-0.002-1.449-1.176-2.624-2.625-2.625h-0zM12.666 18.875c-0.759-0.001-1.375-0.616-1.375-1.375v-0c0-0.758 0.617-1.375 1.375-1.375s1.375 0.617 1.375 1.375c-0.001 0.759-0.616 1.375-1.375 1.375h-0zM6 22.5c-1.449 0.002-2.624 1.176-2.625 2.625v0c0.002 1.449 1.176 2.622 2.625 2.624h0c1.449-0.002 2.624-1.176 2.625-2.625v-0c-0.002-1.449-1.176-2.622-2.625-2.624h-0zM6 26.5c-0.759-0.001-1.375-0.616-1.375-1.375v-0c0-0.758 0.617-1.375 1.375-1.375s1.375 0.617 1.375 1.375c-0.001 0.759-0.616 1.374-1.375 1.375h-0zM19.334 22.5c-1.449 0.002-2.624 1.176-2.625 2.625v0c0.002 1.449 1.176 2.623 2.625 2.625h0c1.449-0.002 2.623-1.176 2.625-2.625v-0c-0.002-1.449-1.176-2.623-2.624-2.625h-0zM19.334 26.5c-0.759-0.001-1.375-0.616-1.375-1.375v-0c0-0.758 0.617-1.375 1.375-1.375s1.375 0.617 1.375 1.375c-0.001 0.759-0.617 1.374-1.376 1.375h-0zM26 22.5c-1.449 0.002-2.624 1.176-2.625 2.625v0c0.002 1.449 1.176 2.622 2.625 2.624h0c1.449-0.002 2.624-1.176 2.625-2.625v-0c-0.002-1.449-1.176-2.622-2.625-2.624h-0zM26 26.5c-0.759-0.001-1.375-0.616-1.375-1.375v-0c0-0.758 0.617-1.375 1.375-1.375s1.375 0.617 1.375 1.375c-0.001 0.759-0.616 1.374-1.375 1.375h-0zM12.666 22.5c-1.449 0.002-2.623 1.176-2.625 2.625v0c0.002 1.449 1.176 2.623 2.624 2.625h0c1.449-0.002 2.624-1.176 2.625-2.625v-0c-0.002-1.449-1.176-2.623-2.625-2.625h-0zM12.666 26.5c-0.759-0.001-1.375-0.616-1.375-1.375v-0c0-0.758 0.617-1.375 1.375-1.375s1.375 0.617 1.375 1.375c-0.001 0.759-0.616 1.374-1.375 1.375h-0zM16.442 29.683c-0.113-0.113-0.269-0.183-0.442-0.183h-0c-0.344 0.002-0.622 0.282-0.622 0.627 0 0.172 0.069 0.327 0.181 0.44l-0-0c0.113 0.113 0.269 0.183 0.442 0.183h0c0.165 0 0.325-0.067 0.442-0.183 0.113-0.113 0.182-0.27 0.183-0.442v-0c0-0.164-0.067-0.325-0.183-0.441z">
            </path>
        </symbol>

        <symbol id="icon-structure" viewBox="0 0 32 32">
            <path fill="#ff3f3a" style="fill: var(--color1, #ff3f3a)"
                d="M21.868 15.745c-0.113-0.112-0.269-0.182-0.441-0.183h-0c-0.165 0-0.326 0.067-0.442 0.183-0.113 0.113-0.182 0.27-0.183 0.442v0c0 0.164 0.067 0.325 0.183 0.441 0.113 0.113 0.269 0.183 0.442 0.183h0c0.164 0 0.325-0.067 0.441-0.183 0.113-0.113 0.183-0.269 0.183-0.441v-0c0-0.165-0.067-0.325-0.183-0.442z">
            </path>
            <path fill="#ff3f3a" style="fill: var(--color1, #ff3f3a)"
                d="M25.987 1.695h-19.989c-0 0-0 0-0.001 0-0.345 0-0.625 0.28-0.625 0.625 0 0 0 0 0 0v0 9.995c0 0.345 0.28 0.625 0.625 0.625h9.369v2.623h-10.671c-0 0-0 0-0.001 0-0.345 0-0.625 0.28-0.625 0.625 0 0 0 0 0 0v0 4.873h-3.445c-0.345 0-0.624 0.279-0.625 0.624v7.996c0 0.345 0.28 0.625 0.625 0.625h7.996c0.345 0 0.625-0.28 0.625-0.625v-7.996c0-0.345-0.28-0.625-0.625-0.625v0h-3.3v-4.248h10.047v4.248h-3.365c-0.345 0-0.625 0.28-0.625 0.625v0 7.996c0 0.345 0.28 0.625 0.625 0.625h7.996c0.345 0 0.625-0.28 0.625-0.625v-7.996c0-0.345-0.28-0.625-0.625-0.625v0h-3.381v-4.248h2.499c0.345 0 0.625-0.28 0.625-0.625s-0.28-0.625-0.625-0.625h-2.499v-2.623h9.371c0.345 0 0.625-0.28 0.625-0.625v-9.996c0-0.345-0.28-0.625-0.625-0.625v0zM7.997 22.309v6.747h-6.747v-6.747h6.747zM19.374 22.309v6.747h-6.747v-6.747h6.747zM25.363 11.689h-18.741v-6.247h4.231c0.345 0 0.625-0.28 0.625-0.625s-0.28-0.625-0.625-0.625v0h-4.231v-1.249h18.74v8.746z">
            </path>
            <path fill="#ff3f3a" style="fill: var(--color1, #ff3f3a)"
                d="M31.375 21.060h-3.462v-4.873c-0-0.345-0.28-0.624-0.625-0.624h-3.425c-0.345 0-0.625 0.28-0.625 0.625s0.28 0.625 0.625 0.625h2.801v4.248h-3.284c-0.345 0-0.625 0.28-0.625 0.625v0 7.995c0 0.345 0.28 0.625 0.625 0.625h7.996c0.345 0 0.625-0.28 0.625-0.625v-7.995c0-0.345-0.28-0.625-0.625-0.625-0 0-0 0-0.001 0h0zM30.751 29.056h-6.747v-6.747h6.747v6.747zM13.923 4.377c-0.113-0.113-0.269-0.183-0.442-0.183h-0c-0.165 0-0.325 0.067-0.442 0.183-0.112 0.113-0.181 0.269-0.181 0.442s0.069 0.328 0.181 0.442l-0-0c0.114 0.112 0.27 0.182 0.442 0.183h0c0.165 0 0.325-0.067 0.442-0.183 0.112-0.113 0.182-0.269 0.183-0.441v-0c0-0.164-0.067-0.325-0.183-0.441z">
            </path>
        </symbol>

        <symbol id="icon-chat" viewBox="0 0 32 32">
            <path fill="#ff3f3a" style="fill: var(--color1, #ff3f3a)"
                d="M30.233 17.627c1.108-1.731 1.767-3.843 1.767-6.109 0-0.007 0-0.013-0-0.020v0.001c0-6.341-5.16-11.5-11.5-11.5-2.124 0-4.2 0.584-6.001 1.688-0.18 0.112-0.298 0.309-0.298 0.533 0 0.345 0.28 0.625 0.625 0.625 0.121 0 0.234-0.034 0.329-0.094l-0.003 0.002c1.52-0.944 3.364-1.504 5.339-1.504 0.003 0 0.006 0 0.010 0h-0c5.652 0 10.25 4.598 10.25 10.25 0 2.050-0.603 4.028-1.744 5.72-0.067 0.098-0.107 0.219-0.107 0.35 0 0.141 0.047 0.271 0.125 0.376l-0.001-0.002 0.685 2.556-2.749-0.737c-0.049-0.014-0.105-0.021-0.162-0.021-0.136 0-0.261 0.043-0.364 0.117l0.002-0.001c-1.642 1.183-3.694 1.893-5.912 1.893-0.008 0-0.016 0-0.024-0h0.001c-1.221 0-2.415-0.213-3.551-0.633-0.828-2.957-3.11-5.238-6.006-6.051l-0.061-0.015c-0.401-1.052-0.633-2.268-0.633-3.538 0-0.004 0-0.009 0-0.013v0.001c0-1.915 0.531-3.781 1.535-5.399 0.055-0.091 0.087-0.201 0.087-0.319 0-0.345-0.28-0.625-0.625-0.625-0.218 0-0.411 0.112-0.522 0.282l-0.001 0.002c-1.082 1.718-1.723 3.808-1.723 6.048 0 0.004 0 0.008 0 0.012v-0.001c0 1.124 0.161 2.228 0.48 3.293-0.282-0.028-0.567-0.043-0.855-0.043-4.755 0-8.625 3.87-8.625 8.625 0 1.707 0.493 3.345 1.43 4.757l-0.67 2.497c-0.013 0.048-0.021 0.104-0.021 0.161 0 0.345 0.28 0.625 0.625 0.625 0.058 0 0.113-0.008 0.166-0.022l-0.004 0.001 2.558-0.685c1.286 0.81 2.851 1.291 4.528 1.291 0.005 0 0.009 0 0.014 0h-0.001c1.643 0 3.241-0.464 4.621-1.341 0.165-0.114 0.271-0.302 0.271-0.515 0-0.345-0.28-0.625-0.625-0.625-0.117 0-0.226 0.032-0.319 0.087l0.003-0.002c-1.116 0.719-2.479 1.146-3.942 1.146-0.003 0-0.006 0-0.010 0h0.001c-0.003 0-0.007 0-0.011 0-1.52 0-2.931-0.462-4.102-1.253l0.026 0.017c-0.098-0.066-0.218-0.105-0.347-0.105-0.057 0-0.113 0.008-0.166 0.022l0.004-0.001-1.78 0.477 0.463-1.729c0.013-0.048 0.021-0.104 0.021-0.161 0-0.136-0.044-0.262-0.118-0.365l0.001 0.002c-0.854-1.183-1.367-2.662-1.367-4.26 0-0.006 0-0.012 0-0.019v0.001c0-4.067 3.309-7.375 7.375-7.375s7.375 3.309 7.375 7.375c0 0.868-0.149 1.718-0.444 2.526-0.024 0.064-0.038 0.137-0.038 0.214 0 0.345 0.28 0.625 0.625 0.625 0.268 0 0.497-0.169 0.586-0.407l0.001-0.004c0.329-0.876 0.52-1.888 0.52-2.945 0-0.304-0.016-0.604-0.047-0.9l0.003 0.037c0.982 0.304 2.111 0.479 3.282 0.479 0.004 0 0.008 0 0.012 0h-0.001c2.305 0 4.516-0.675 6.415-1.955l3.515 0.942c0.049 0.014 0.104 0.021 0.162 0.021 0.345 0 0.625-0.28 0.625-0.625 0-0.058-0.008-0.113-0.022-0.166l0.001 0.004-0.963-3.595z">
            </path>
            <path fill="#ff3f3a" style="fill: var(--color1, #ff3f3a)"
                d="M23.721 12.831h-6.365c-0 0-0 0-0.001 0-0.345 0-0.625 0.28-0.625 0.625 0 0 0 0 0 0.001v-0c0.003 2.102 1.706 3.805 3.808 3.807h0c2.102-0.002 3.805-1.705 3.808-3.807v-0c0-0.345-0.28-0.625-0.625-0.625v0zM20.539 16.013c-1.19-0.002-2.189-0.815-2.476-1.915l-0.004-0.018h4.961c-0.29 1.118-1.29 1.931-2.48 1.933h-0zM25.405 9.364c-0.112-0.18-0.308-0.297-0.532-0.297-0.121 0-0.234 0.034-0.33 0.094l0.003-0.002-0.082 0.050c-0.179 0.112-0.297 0.308-0.297 0.532 0 0.345 0.28 0.625 0.625 0.625 0.122 0 0.235-0.035 0.331-0.095l-0.003 0.002 0.080-0.050c0.179-0.112 0.297-0.308 0.297-0.532 0-0.121-0.035-0.235-0.094-0.331l0.002 0.003zM16.818 9.363c-0.112-0.179-0.308-0.297-0.532-0.297-0.121 0-0.235 0.035-0.331 0.094l0.003-0.002-0.082 0.050c-0.179 0.112-0.296 0.308-0.296 0.532 0 0.345 0.28 0.625 0.625 0.625 0.122 0 0.235-0.035 0.331-0.095l-0.003 0.002 0.080-0.049c0.18-0.112 0.298-0.308 0.298-0.532 0-0.121-0.035-0.235-0.094-0.33l0.002 0.003zM5.629 22.933c-0.113-0.113-0.269-0.183-0.442-0.183h-0c-0.164 0-0.325 0.067-0.442 0.183-0.113 0.113-0.182 0.27-0.183 0.442v0c0 0.164 0.067 0.325 0.183 0.441 0.113 0.113 0.269 0.183 0.442 0.183h0c0.165 0 0.326-0.067 0.442-0.183 0.113-0.113 0.183-0.269 0.183-0.442v-0c0-0.164-0.067-0.325-0.183-0.441zM9.067 22.933c-0.113-0.113-0.269-0.183-0.442-0.183h-0c-0.165 0-0.326 0.067-0.442 0.183-0.113 0.113-0.183 0.269-0.183 0.442v0c0 0.164 0.067 0.325 0.183 0.441 0.113 0.113 0.269 0.183 0.442 0.183h0c0.164 0 0.325-0.067 0.441-0.183 0.113-0.113 0.183-0.269 0.183-0.442v-0c0-0.164-0.067-0.325-0.183-0.441zM12.505 22.933c-0.113-0.113-0.269-0.183-0.442-0.183h-0c-0.165 0-0.326 0.067-0.442 0.183-0.113 0.113-0.183 0.269-0.183 0.442v0c0 0.164 0.067 0.325 0.183 0.441 0.113 0.113 0.269 0.183 0.442 0.183h0c0.164 0 0.325-0.067 0.442-0.183 0.113-0.113 0.182-0.27 0.183-0.442v-0c0-0.164-0.067-0.325-0.183-0.441zM15.302 27.945c-0.113-0.113-0.27-0.182-0.442-0.183h-0c-0.165 0-0.325 0.067-0.442 0.183-0.113 0.113-0.182 0.27-0.183 0.442v0c0 0.165 0.067 0.325 0.183 0.442 0.113 0.113 0.269 0.183 0.442 0.183h0c0.165 0 0.326-0.067 0.442-0.183 0.113-0.113 0.182-0.27 0.183-0.442v-0c0-0.165-0.067-0.325-0.183-0.442zM13.273 3.348c-0.113-0.112-0.27-0.182-0.442-0.182s-0.329 0.069-0.442 0.182l0-0c-0.112 0.113-0.18 0.268-0.18 0.44 0 0.345 0.278 0.624 0.622 0.627h0c0.165 0 0.325-0.067 0.442-0.183 0.113-0.113 0.182-0.269 0.183-0.441v-0c0-0.165-0.067-0.326-0.183-0.443z">
            </path>
        </symbol>

        <symbol id="icon-target" viewBox="0 0 32 32">
            <path fill="#ff3f3a" style="fill: var(--color1, #ff3f3a)"
                d="M22.199 24.667c-0.114-0.118-0.273-0.19-0.45-0.19-0.173 0-0.329 0.070-0.442 0.183l-0.007 0.007c-0.12 0.114-0.194 0.275-0.194 0.453 0 0.345 0.279 0.626 0.625 0.627h0c0.174-0.001 0.33-0.072 0.443-0.187l0-0c0.123-0.115 0.199-0.277 0.199-0.458 0-0.168-0.066-0.321-0.175-0.434l0 0z">
            </path>
            <path fill="#ff3f3a" style="fill: var(--color1, #ff3f3a)"
                d="M27.858 12.635c-0.091-0.24-0.319-0.408-0.586-0.408-0.345 0-0.625 0.28-0.625 0.625 0 0.078 0.014 0.152 0.040 0.221l-0.001-0.004c0.515 1.349 0.813 2.91 0.813 4.54 0 0.007 0 0.013 0 0.020v-0.001c0 7.236-5.887 13.123-13.124 13.123-2.685 0-5.266-0.805-7.465-2.329-0.102-0.075-0.229-0.119-0.367-0.119-0.345 0-0.625 0.28-0.625 0.625 0 0.217 0.111 0.408 0.278 0.52l0.002 0.001c2.274 1.597 5.1 2.551 8.149 2.551 0.010 0 0.019 0 0.029-0h-0.002c0.011 0 0.025 0 0.038 0 3.957 0 7.538-1.609 10.124-4.209l0.001-0.001c2.601-2.587 4.21-6.168 4.21-10.124 0-0.013-0-0.027-0-0.040v0.002c0-1.717-0.3-3.396-0.891-4.992zM19.215 4.089c-1.435-0.529-3.093-0.835-4.822-0.835-0.006 0-0.013 0-0.019 0h0.001c-0.011-0-0.025-0-0.038-0-3.957 0-7.537 1.609-10.123 4.209l-0.001 0.001c-2.601 2.587-4.211 6.168-4.211 10.125 0 0.013 0 0.027 0 0.040v-0.002c0 2.977 0.902 5.833 2.609 8.26 0.114 0.162 0.301 0.266 0.511 0.266 0.135 0 0.26-0.043 0.361-0.115l-0.002 0.001c0.161-0.114 0.265-0.301 0.265-0.511 0-0.135-0.043-0.26-0.115-0.362l0.001 0.002c-1.489-2.091-2.381-4.697-2.381-7.511 0-0.011 0-0.021 0-0.032v0.002c0-7.236 5.887-13.123 13.123-13.123 1.517 0 3.004 0.256 4.419 0.762 0.063 0.023 0.135 0.036 0.21 0.036 0.345 0 0.625-0.28 0.625-0.625 0-0.27-0.171-0.499-0.41-0.587l-0.004-0.001z">
            </path>
            <path fill="#ff3f3a" style="fill: var(--color1, #ff3f3a)"
                d="M31.95 5.183c-0.096-0.229-0.318-0.386-0.577-0.386-0 0-0 0-0 0h-3.283l0.353-0.353c0.103-0.111 0.166-0.26 0.166-0.424 0-0.345-0.28-0.625-0.625-0.625-0.164 0-0.313 0.063-0.425 0.167l0-0-0.358 0.357v-3.293c-0.001-0.345-0.281-0.624-0.625-0.624-0.172 0-0.328 0.070-0.441 0.182l-5.509 5.509c-0.113 0.113-0.183 0.269-0.183 0.442v2.168c-1.699-1.127-3.785-1.799-6.028-1.799-0.014 0-0.027 0-0.041 0h0.002c-6.133 0-11.124 4.99-11.124 11.123s4.99 11.124 11.124 11.124c0.002 0 0.005 0 0.008 0 2.126 0 4.112-0.597 5.8-1.633l-0.048 0.028c0.175-0.113 0.289-0.307 0.289-0.527 0-0.345-0.28-0.625-0.625-0.625-0.115 0-0.222 0.031-0.315 0.085l0.003-0.002c-1.455 0.895-3.218 1.425-5.104 1.425-0.002 0-0.005 0-0.007 0h0c-5.445 0-9.873-4.429-9.873-9.873s4.429-9.874 9.873-9.874c2.223 0 4.32 0.72 6.067 2.084v0.839l-1.139 1.139c-1.316-1.126-3.039-1.812-4.922-1.812-0.002 0-0.004 0-0.007 0h0c-4.204 0-7.624 3.42-7.624 7.624s3.42 7.624 7.624 7.624c4.203 0 7.623-3.42 7.623-7.624 0-1.877-0.682-3.598-1.811-4.928l1.143-1.143h0.831c1.3 1.657 2.085 3.773 2.087 6.071v0c0 1.843-0.51 3.64-1.476 5.197-0.059 0.094-0.094 0.207-0.094 0.329 0 0.345 0.28 0.625 0.625 0.625 0.223 0 0.419-0.117 0.529-0.293l0.002-0.003c1.045-1.661 1.665-3.681 1.665-5.846 0-0.003 0-0.007 0-0.010v0.001c0-2.159-0.634-4.275-1.803-6.071h2.168c0 0 0 0 0 0 0.172 0 0.329-0.070 0.442-0.183v0l5.509-5.509c0.113-0.113 0.183-0.269 0.183-0.442 0-0.086-0.017-0.168-0.049-0.243l0.002 0.004zM20.749 17.627c0 3.514-2.86 6.373-6.374 6.373s-6.374-2.859-6.374-6.373 2.859-6.375 6.373-6.375c1.533 0 2.941 0.544 4.042 1.449l-1.423 1.423c-0.719-0.544-1.628-0.872-2.613-0.872-0.002 0-0.003 0-0.005 0h0c-2.415 0.002-4.373 1.959-4.375 4.374v0c0.003 2.415 1.96 4.372 4.374 4.375h0c2.415-0.003 4.371-1.96 4.374-4.374v-0c0-0.001 0-0.003 0-0.005 0-0.985-0.328-1.895-0.88-2.624l0.008 0.011 1.423-1.423c0.902 1.088 1.449 2.498 1.449 4.035 0 0.002 0 0.005 0 0.007v-0zM13.933 18.068c0.113 0.114 0.269 0.184 0.442 0.184s0.329-0.070 0.442-0.184l2.163-2.163c0.325 0.483 0.519 1.079 0.519 1.72 0 0.001 0 0.001 0 0.002v-0c-0.002 1.725-1.4 3.123-3.124 3.125h-0c-1.725-0.002-3.122-1.399-3.125-3.124v-0c0.002-1.725 1.4-3.123 3.124-3.125h0c0.636 0 1.227 0.191 1.721 0.519l-2.163 2.165c-0.113 0.113-0.183 0.269-0.183 0.442s0.070 0.329 0.183 0.442v0zM21.692 9.427v-3.033l4.259-4.26v3.033l-4.259 4.26zM25.605 10.306h-3.025l4.26-4.26h3.024l-4.259 4.26zM5.083 26.893c-0.113-0.112-0.269-0.18-0.44-0.18-0.345 0-0.624 0.278-0.627 0.622v0c0.001 0.345 0.28 0.624 0.625 0.625h0c0.164 0 0.325-0.067 0.441-0.183 0.113-0.113 0.183-0.269 0.183-0.442v-0c0-0.165-0.067-0.325-0.183-0.442z">
            </path>
        </symbol>

        <symbol id="icon-red-arrow" viewBox="0 0 48 32">
            <path fill="#ff3f3a" style="fill: var(--color1, #ff3f3a)"
                d="M31.448 2.115c0.483-0.482 1.149-0.781 1.885-0.781s1.403 0.298 1.885 0.781l12 12c0.482 0.483 0.781 1.149 0.781 1.885s-0.298 1.403-0.781 1.885l-12 12c-0.479 0.463-1.132 0.749-1.853 0.749-1.473 0-2.667-1.194-2.667-2.667 0-0.72 0.285-1.373 0.749-1.853l-0.001 0.001 7.448-7.448h-36.229c-1.473 0-2.667-1.194-2.667-2.667s1.194-2.667 2.667-2.667v0h36.229l-7.448-7.448c-0.482-0.483-0.781-1.149-0.781-1.885s0.298-1.403 0.781-1.885v0z">
            </path>
        </symbol>
        <symbol id="icon-prev-btn" viewBox="0 0 32 32">
            <path
                d="M12.276 22.943c-0.241 0.241-0.575 0.39-0.943 0.39s-0.701-0.149-0.943-0.39l-6-6c-0.241-0.241-0.39-0.575-0.39-0.943s0.149-0.701 0.39-0.943l6-6c0.24-0.232 0.566-0.374 0.926-0.374 0.736 0 1.333 0.597 1.333 1.333 0 0.36-0.143 0.687-0.375 0.927l-3.724 3.724h18.115c0.736 0 1.333 0.597 1.333 1.333s-0.597 1.333-1.333 1.333v0h-18.115l3.724 3.724c0.241 0.241 0.39 0.575 0.39 0.943s-0.149 0.701-0.39 0.943v0z">
            </path>
        </symbol>
        <symbol id="icon-next-btn" viewBox="0 0 33 32">
            <path
                d="M19.729 9.057c0.241-0.241 0.575-0.39 0.943-0.39s0.701 0.149 0.943 0.39l6 6c0.241 0.241 0.39 0.575 0.39 0.943s-0.149 0.701-0.39 0.943l-6 6c-0.24 0.232-0.566 0.374-0.926 0.374-0.736 0-1.333-0.597-1.333-1.333 0-0.36 0.143-0.687 0.375-0.927l3.724-3.724h-18.115c-0.736 0-1.333-0.597-1.333-1.333s0.597-1.333 1.333-1.333v0h18.115l-3.724-3.724c-0.241-0.241-0.39-0.575-0.39-0.943s0.149-0.701 0.39-0.943v0z">
            </path>
        </symbol>

        <symbol id="icon-calendar-mini" viewBox="0 0 30 32">
            <path fill="#787a80" style="fill: var(--color1, #787a80)"
                d="M9.412 2.511c0.693 0 1.256 0.561 1.256 1.256v0.627h8.785v-0.627c0.027-0.672 0.578-1.207 1.255-1.207s1.228 0.535 1.255 1.204l0 0.002v0.627h1.568c2.773 0 5.020 2.248 5.020 5.020v0 15.059c-0.001 2.772-2.248 5.018-5.020 5.018h-16.941c-2.772 0-5.019-2.247-5.020-5.018v-15.061c0.001-2.772 2.248-5.018 5.020-5.018h1.568v-0.627c0-0.695 0.563-1.256 1.256-1.256zM8.156 6.903h-1.568c-1.385 0-2.509 1.124-2.509 2.511v1.568h21.96v-1.568c0-1.387-1.124-2.511-2.509-2.511h-1.568v0.629c0.001 0.014 0.001 0.032 0.001 0.049 0 0.693-0.562 1.256-1.256 1.256s-1.256-0.562-1.256-1.256c0-0.017 0-0.034 0.001-0.051l-0 0.002v-0.629h-8.785v0.629c-0.027 0.672-0.578 1.207-1.255 1.207s-1.228-0.535-1.255-1.204l-0-0.002v-0.629zM26.039 13.491h-21.958v10.982c0 1.385 1.124 2.509 2.509 2.509h16.941c1.385 0 2.511-1.124 2.511-2.509v-10.982z">
            </path>
        </symbol>

        <symbol id="icon-clock-mini" viewBox="0 0 30 32">
            <path fill="#787a80" style="fill: var(--color1, #787a80)"
                d="M16.312 9.097c0.001-0.014 0.001-0.031 0.001-0.049 0-0.693-0.562-1.256-1.256-1.256s-1.256 0.562-1.256 1.256c0 0.017 0 0.034 0.001 0.051l-0-0.002v6.901c0 0.333 0.132 0.653 0.367 0.888l3.765 3.765c0.225 0.214 0.53 0.346 0.866 0.346 0.693 0 1.256-0.562 1.256-1.256 0-0.336-0.132-0.641-0.347-0.866l0 0-3.398-3.398v-6.381z">
            </path>
            <path fill="#787a80" style="fill: var(--color1, #787a80)"
                d="M15.059 2.195c-7.624 0-13.804 6.18-13.804 13.804s6.18 13.804 13.804 13.804v0c7.624 0 13.804-6.18 13.804-13.804s-6.18-13.804-13.804-13.804v0zM3.765 15.998c0-6.238 5.057-11.294 11.294-11.294s11.294 5.057 11.294 11.294v0c0 6.238-5.057 11.294-11.294 11.294s-11.294-5.057-11.294-11.294v0z">
            </path>
        </symbol>

        <symbol id="icon-file" viewBox="0 0 26 32">
            <path fill="#424551" style="fill: var(--color2, #424551)"
                d="M7.11 18.133c0-0.785 0.638-1.421 1.423-1.421h8.533c0.762 0.030 1.368 0.655 1.368 1.422s-0.606 1.391-1.365 1.422l-0.003 0h-8.533c0 0 0 0 0 0-0.785 0-1.422-0.636-1.423-1.421v-0zM7.11 23.467c0-0.783 0.638-1.421 1.423-1.421h4.267c0.762 0.030 1.368 0.655 1.368 1.422s-0.606 1.391-1.365 1.422l-0.003 0h-4.267c0 0 0 0 0 0-0.785 0-1.422-0.636-1.423-1.421v-0z">
            </path>
            <path fill="#424551" style="fill: var(--color2, #424551)"
                d="M8.595 1.131c0.257-0.258 0.612-0.419 1.005-0.42h9.6c3.142 0 5.69 2.547 5.69 5.69v0 19.2c0 3.142-2.547 5.69-5.69 5.69v0h-12.8c-3.142 0-5.688-2.546-5.69-5.687v-16.002c0-0.378 0.149-0.74 0.418-1.007l7.467-7.467zM9.244 4.501v4.745h-4.742l4.742-4.745zM3.556 12.090v13.513c0 1.57 1.274 2.844 2.844 2.844h12.8c1.572 0 2.846-1.274 2.846-2.844v-19.202c0-1.572-1.274-2.846-2.846-2.846h-7.11v7.113c0 0.786-0.637 1.423-1.423 1.423v0h-7.11z">
            </path>
        </symbol>

        <symbol id="icon-play" viewBox="0 0 30 32">
            <path fill="#424551" style="fill: var(--color2, #424551)"
                d="M20.164 14.005c0.602 0.463 0.986 1.184 0.986 1.994s-0.384 1.531-0.981 1.99l-0.006 0.004-5.749 4.392c-1.651 1.261-4.034 0.085-4.034-1.993v-8.785c0-2.080 2.383-3.256 4.034-1.995l5.749 4.393zM18.639 16l-5.747-4.395v8.785l5.747-4.393z">
            </path>
            <path fill="#424551" style="fill: var(--color2, #424551)"
                d="M15.059 4.706c-6.238 0-11.294 5.057-11.294 11.294s5.057 11.294 11.294 11.294v0c6.238 0 11.294-5.057 11.294-11.294s-5.057-11.294-11.294-11.294v0zM1.256 16c0-7.623 6.18-13.803 13.803-13.803s13.803 6.18 13.803 13.803v0c0 7.623-6.18 13.803-13.803 13.803s-13.803-6.18-13.803-13.803v0z">
            </path>
        </symbol>

        <symbol id="icon-mic" viewBox="0 0 30 32">
            <path fill="#424551" style="fill: var(--color2, #424551)"
                d="M7.78 8.973c0-4.020 3.259-7.279 7.279-7.279s7.279 3.259 7.279 7.279v0 6.024c0 4.020-3.259 7.279-7.279 7.279s-7.279-3.259-7.279-7.279v0-6.024zM15.059 4.205c-2.633 0-4.768 2.135-4.768 4.768v0 6.024c0 2.633 2.135 4.768 4.768 4.768s4.768-2.135 4.768-4.768v0-6.024c0-2.635-2.135-4.768-4.768-4.768z">
            </path>
            <path fill="#424551" style="fill: var(--color2, #424551)"
                d="M5.020 11.735c0.693 0 1.254 0.561 1.254 1.254v2.008c0 4.852 3.933 8.785 8.785 8.785s8.785-3.933 8.785-8.785v0-2.008c-0.001-0.014-0.001-0.031-0.001-0.049 0-0.693 0.562-1.256 1.256-1.256s1.256 0.562 1.256 1.256c0 0.017-0 0.034-0.001 0.051l0-0.002v2.008c0 6.238-5.057 11.294-11.294 11.294s-11.294-5.057-11.294-11.294v0-2.008c0-0.693 0.561-1.254 1.256-1.254z">
            </path>
            <path fill="#424551" style="fill: var(--color2, #424551)"
                d="M15.059 24.785c0.693 0 1.256 0.563 1.256 1.256v1.756h2.76c0.015-0.001 0.032-0.001 0.049-0.001 0.693 0 1.256 0.562 1.256 1.256s-0.562 1.256-1.256 1.256c-0.017 0-0.034-0-0.051-0.001l0.002 0h-8.030c-0.672-0.027-1.207-0.578-1.207-1.255s0.535-1.228 1.204-1.255l0.002-0h2.76v-1.756c0-0.693 0.563-1.256 1.256-1.256z">
            </path>
        </symbol>
    </defs>
</svg>