<svg aria-hidden="true" style="position: absolute; width: 0; height: 0; overflow: hidden;" version="1.1"
    xmlns="http://www.w3.org/2000/svg" xmlns:xlink="http://www.w3.org/1999/xlink">
    <defs>
        <symbol id="search" viewBox="0 0 32 32">
            <path fill="#9a9ca5" style="fill: var(--color1, #9a9ca5)"
                d="M14.5 4.333c-5.615 0-10.167 4.552-10.167 10.167s4.552 10.167 10.167 10.167c2.805 0 5.343-1.134 7.184-2.973 1.844-1.842 2.983-4.384 2.983-7.194 0-5.615-4.552-10.167-10.167-10.167zM1.667 14.499c0-7.088 5.746-12.833 12.833-12.833s12.833 5.746 12.833 12.833c0 3.066-1.076 5.882-2.869 8.088l5.478 5.468c0.521 0.52 0.522 1.365 0.002 1.886s-1.364 0.522-1.886 0.002l-5.481-5.471c-2.205 1.788-5.017 2.86-8.077 2.86-7.088 0-12.833-5.746-12.833-12.833z">
            </path>
        </symbol>
        <symbol id="braces" viewBox="0 0 46 32">
            <path fill="#ff3f3a" style="fill: var(--color1, #ff3f3a)"
                d="M28.806 14.281c0-0.471 0.207-0.917 0.567-1.221l15.433-13.059v30.4c0 0.884-0.716 1.6-1.6 1.6h-12.8c-0.884 0-1.6-0.716-1.6-1.6v-16.119z">
            </path>
            <path fill="#ff3f3a" style="fill: var(--color1, #ff3f3a)"
                d="M0.006 14.281c0-0.471 0.207-0.917 0.567-1.221l15.434-13.059v30.4c0 0.884-0.716 1.6-1.6 1.6h-12.8c-0.884 0-1.6-0.716-1.6-1.6v-16.119z">
            </path>
        </symbol>
        <symbol id="convert" viewBox="0 0 32 32">
            <path
                d="M2.799 2.667c0.736 0 1.333 0.597 1.333 1.333v5.915c2.211-4.303 6.693-7.248 11.867-7.248 5.807 0 10.745 3.712 12.574 8.889 0.245 0.694-0.119 1.456-0.813 1.701s-1.456-0.118-1.701-0.813c-1.465-4.145-5.418-7.111-10.060-7.111-3.947 0-7.395 2.144-9.24 5.333h4.040c0.736 0 1.333 0.597 1.333 1.333s-0.597 1.333-1.333 1.333h-8c-0.736 0-1.333-0.597-1.333-1.333v-8c0-0.736 0.597-1.333 1.333-1.333z">
            </path>
            <path
                d="M4.236 18.743c0.694-0.245 1.456 0.118 1.701 0.813 1.465 4.145 5.418 7.111 10.060 7.111 3.947 0 7.395-2.144 9.24-5.333h-4.040c-0.736 0-1.333-0.597-1.333-1.333s0.597-1.333 1.333-1.333h8c0.736 0 1.333 0.597 1.333 1.333v8c0 0.736-0.597 1.333-1.333 1.333s-1.333-0.597-1.333-1.333v-5.915c-2.211 4.303-6.693 7.248-11.867 7.248-5.808 0-10.745-3.712-12.574-8.889-0.245-0.694 0.119-1.456 0.813-1.701z">
            </path>
        </symbol>
        <symbol id="dot" viewBox="0 0 331 32">
            <path fill="none" stroke="#b3b7bc" style="stroke: var(--color3, #b3b7bc)" stroke-linejoin="miter"
                stroke-linecap="round" stroke-miterlimit="4" stroke-width="32" d="M16.042 16h288"></path>
        </symbol>
        <symbol id="icon-facebook" viewBox="0 0 32 32">
            <path
                d="M23.417 1.339l-3.703-0.006c-4.16 0-6.849 2.833-6.849 7.219v3.328h-3.723c-0.322 0-0.582 0.268-0.582 0.598v4.823c0 0.33 0.261 0.598 0.582 0.598h3.723v12.169c0 0.331 0.261 0.598 0.582 0.598h4.858c0.322 0 0.582-0.268 0.582-0.598v-12.169h4.353c0.322 0 0.582-0.268 0.582-0.598l0.002-4.823c0-0.159-0.062-0.311-0.171-0.423s-0.258-0.175-0.412-0.175h-4.355v-2.822c0-1.356 0.315-2.045 2.034-2.045l2.495-0.001c0.321 0 0.582-0.268 0.582-0.598v-4.478c0-0.33-0.26-0.598-0.581-0.598z">
            </path>
        </symbol>
        <symbol id="icon-heart" viewBox="0 0 32 32">
            <path fill="#ff3f3a" style="fill: var(--color1, #ff3f3a)"
                d="M15.999 26.543c-6.132-3.493-9.552-6.964-11.206-9.976-1.693-3.083-1.545-5.679-0.606-7.522 1.931-3.788 7.421-4.999 10.766-0.768l1.046 1.323 1.046-1.323c3.346-4.231 8.836-3.019 10.767 0.768 0.939 1.843 1.087 4.439-0.606 7.522-1.654 3.012-5.074 6.483-11.207 9.976zM16 5.475c-4.706-4.471-11.647-2.623-14.188 2.36-1.394 2.735-1.413 6.27 0.644 10.016 2.039 3.713 6.104 7.633 12.898 11.388l0.645 0.356 0.645-0.356c6.795-3.755 10.86-7.675 12.899-11.388 2.057-3.746 2.038-7.281 0.644-10.016-2.54-4.983-9.482-6.831-14.188-2.36z">
            </path>
        </symbol>
        <symbol id="icon-instagram" viewBox="0 0 32 32">
            <path
                d="M29.307 10.507c-0.062-1.417-0.292-2.391-0.62-3.235-0.339-0.896-0.86-1.698-1.542-2.365-0.667-0.677-1.474-1.203-2.36-1.537-0.849-0.328-1.818-0.557-3.235-0.62-1.428-0.068-1.881-0.083-5.501-0.083s-4.074 0.016-5.496 0.078c-1.417 0.062-2.391 0.292-3.235 0.62-0.896 0.339-1.698 0.86-2.365 1.542-0.677 0.667-1.203 1.474-1.537 2.36-0.328 0.849-0.557 1.818-0.62 3.235-0.068 1.427-0.083 1.881-0.083 5.501s0.016 4.074 0.078 5.496c0.062 1.417 0.292 2.391 0.62 3.235 0.339 0.896 0.865 1.698 1.542 2.365 0.667 0.677 1.474 1.203 2.36 1.537 0.849 0.328 1.818 0.557 3.235 0.62 1.422 0.063 1.875 0.078 5.496 0.078s4.074-0.015 5.496-0.078c1.417-0.062 2.391-0.292 3.235-0.62 1.792-0.693 3.209-2.11 3.902-3.902 0.328-0.849 0.557-1.818 0.62-3.235 0.063-1.422 0.078-1.875 0.078-5.496s-0.005-4.074-0.068-5.496zM26.906 21.394c-0.057 1.302-0.276 2.006-0.459 2.474-0.448 1.162-1.37 2.084-2.532 2.532-0.469 0.182-1.177 0.401-2.475 0.458-1.406 0.063-1.828 0.078-5.386 0.078s-3.985-0.015-5.387-0.078c-1.302-0.057-2.006-0.276-2.474-0.458-0.578-0.214-1.104-0.552-1.531-0.995-0.443-0.432-0.781-0.953-0.995-1.531-0.182-0.469-0.401-1.177-0.458-2.474-0.063-1.407-0.078-1.829-0.078-5.387s0.015-3.985 0.078-5.386c0.057-1.302 0.276-2.006 0.458-2.474 0.214-0.578 0.552-1.104 1-1.532 0.432-0.443 0.953-0.781 1.531-0.995 0.469-0.182 1.177-0.401 2.474-0.458 1.407-0.062 1.829-0.078 5.386-0.078 3.563 0 3.985 0.016 5.387 0.078 1.302 0.057 2.006 0.276 2.474 0.458 0.578 0.213 1.104 0.552 1.531 0.995 0.443 0.432 0.781 0.953 0.995 1.532 0.182 0.469 0.401 1.177 0.459 2.474 0.062 1.407 0.078 1.828 0.078 5.386s-0.016 3.975-0.078 5.381z">
            </path>
            <path
                d="M16.049 9.152c-3.782 0-6.85 3.068-6.85 6.85s3.068 6.85 6.85 6.85c3.782 0 6.85-3.068 6.85-6.85s-3.068-6.85-6.85-6.85zM16.049 20.446c-2.453 0-4.444-1.99-4.444-4.444s1.99-4.444 4.444-4.444c2.454 0 4.444 1.99 4.444 4.444s-1.99 4.444-4.444 4.444z">
            </path>
            <path
                d="M24.77 8.881c0 0.883-0.716 1.599-1.599 1.599s-1.599-0.716-1.599-1.599c0-0.883 0.716-1.599 1.599-1.599s1.599 0.716 1.599 1.599z">
            </path>
        </symbol>
        <symbol id="icon-phone" viewBox="0 0 32 32">
            <path
                d="M11.334 3.897c-1.105 0-2 0.895-2 2v20.208c0 1.105 0.895 2 2 2h9.333c1.105 0 2-0.895 2-2v-20.208c0-1.105-0.895-2-2-2h-0.111l-0.325 0.779c-0.207 0.497-0.692 0.82-1.231 0.82h-6c-0.538 0-1.024-0.324-1.231-0.82l-0.325-0.779h-0.111zM6.667 5.897c0-2.577 2.089-4.667 4.667-4.667h9.333c2.577 0 4.667 2.089 4.667 4.667v20.208c0 2.577-2.089 4.667-4.667 4.667h-9.333c-2.577 0-4.667-2.089-4.667-4.667v-20.208z">
            </path>
        </symbol>
        <symbol id="left" viewBox="0 0 32 32">
            <path
                d="M12.276 22.943c-0.521 0.521-1.365 0.521-1.886 0l-6-6c-0.521-0.521-0.521-1.365 0-1.886l6-6c0.521-0.521 1.365-0.521 1.886 0s0.521 1.365 0 1.886l-3.724 3.724h18.114c0.736 0 1.333 0.597 1.333 1.333s-0.597 1.333-1.333 1.333h-18.114l3.724 3.724c0.521 0.521 0.521 1.365 0 1.886z">
            </path>
        </symbol>
        <symbol id="icon-linked-in" viewBox="0 0 32 32">
            <path
                d="M29.327 29.333l0.007-0.001v-9.78c0-4.785-1.030-8.47-6.623-8.47-2.689 0-4.493 1.476-5.23 2.874h-0.078v-2.428h-5.303v17.803h5.522v-8.816c0-2.321 0.44-4.566 3.315-4.566 2.832 0 2.874 2.649 2.874 4.715v8.668h5.517z">
            </path>
            <path d="M3.107 11.53h5.529v17.803h-5.529v-17.803z"></path>
            <path
                d="M5.869 2.667c-1.768 0-3.202 1.434-3.202 3.202s1.434 3.232 3.202 3.232c1.768 0 3.202-1.464 3.202-3.232-0.001-1.768-1.436-3.202-3.202-3.202z">
            </path>
        </symbol>
        <symbol id="icon-google" viewBox="0 0 32 32">
            <path
                d="M16.313 13.781h14.631c0.16 0.901 0.24 1.764 0.24 2.583 0 2.919-0.612 5.525-1.836 7.82-1.216 2.275-3.001 4.107-5.17 5.344l-0.065 0.034c-2.267 1.291-4.868 1.938-7.799 1.938-0.017 0-0.037 0-0.057 0-2.16 0-4.214-0.449-6.075-1.26l0.098 0.038c-1.921-0.814-3.563-1.928-4.947-3.301l0.001 0.001c-1.372-1.382-2.485-3.023-3.261-4.843l-0.038-0.101c-0.771-1.762-1.22-3.815-1.22-5.973 0-0.022 0-0.044 0-0.066v0.003c0-2.112 0.407-4.124 1.221-6.034 0.814-1.92 1.927-3.56 3.299-4.943l-0.001 0.001c1.382-1.372 3.022-2.485 4.841-3.261l0.101-0.038c1.763-0.772 3.818-1.221 5.977-1.221 0.022 0 0.044 0 0.065 0h-0.003c4.036 0 7.499 1.351 10.391 4.057l-4.217 4.055c-1.653-1.6-3.714-2.4-6.174-2.4-1.737 0-3.34 0.436-4.814 1.31-1.465 0.874-2.65 2.079-3.476 3.516l-0.025 0.047c-0.813 1.388-1.293 3.057-1.293 4.838 0 0.026 0 0.052 0 0.078l-0-0.004c0 1.776 0.43 3.413 1.291 4.914 0.851 1.483 2.037 2.687 3.458 3.536l0.044 0.024c1.357 0.824 2.998 1.312 4.752 1.312 0.021 0 0.042-0 0.063-0l-0.003 0c1.17 0 2.245-0.16 3.228-0.484 0.981-0.324 1.788-0.727 2.421-1.211 0.633-0.485 1.184-1.036 1.653-1.655 0.473-0.619 0.818-1.205 1.040-1.756s0.373-1.076 0.455-1.573h-8.8v-5.326z">
            </path>
        </symbol>
        <symbol id="icon-heart" viewBox="0 0 32 32">
            <path fill="#ff3f3a" style="fill: var(--color2, #ff3f3a)"
                d="M16 26.542c-6.132-3.492-9.552-6.962-11.206-9.974-1.694-3.084-1.546-5.68-0.606-7.522 1.93-3.788 7.42-5 10.766-0.768l1.046 1.322 1.046-1.322c3.344-4.232 8.836-3.020 10.766 0.768 0.94 1.842 1.086 4.44-0.606 7.52-1.654 3.014-5.074 6.484-11.206 9.978zM16 5.474c-4.706-4.47-11.648-2.622-14.188 2.36-1.394 2.736-1.414 6.27 0.644 10.016 2.040 3.714 6.104 7.634 12.9 11.388l0.644 0.358 0.644-0.358c6.796-3.754 10.86-7.674 12.9-11.388 2.056-3.746 2.038-7.28 0.644-10.016-2.54-4.982-9.482-6.83-14.188-2.36z">
            </path>
        </symbol>
        <symbol id="icon-mail" viewBox="0 0 32 32">
            <path
                d="M30.334 23.999v-14.667c0-2.209-1.791-4-4-4l-20.667 0c-2.209 0-4 1.791-4 4v14.667c0 2.209 1.791 4 4 4h20.667c2.209 0 4-1.791 4-4zM27.667 12.345v11.654c0 0.736-0.597 1.333-1.333 1.333h-20.667c-0.736 0-1.333-0.597-1.333-1.333v-11.654l9.418 6.404c1.357 0.923 3.141 0.923 4.498 0l9.417-6.404zM27.652 9.13l-10.902 7.413c-0.452 0.308-1.047 0.308-1.499 0l-10.902-7.413c0.097-0.64 0.65-1.131 1.318-1.131l20.667-0c0.668 0 1.221 0.491 1.318 1.131z">
            </path>
        </symbol>
        <symbol id="right" viewBox="0 0 33 32">
            <path
                d="M19.729 9.057c0.521-0.521 1.365-0.521 1.886 0l6 6c0.521 0.521 0.521 1.365 0 1.886l-6 6c-0.521 0.521-1.365 0.521-1.886 0s-0.521-1.365 0-1.886l3.724-3.724h-18.114c-0.736 0-1.333-0.597-1.333-1.333s0.597-1.333 1.333-1.333h18.114l-3.724-3.724c-0.521-0.521-0.521-1.365 0-1.886z">
            </path>
        </symbol>
        <symbol id="icon-telegram" viewBox="0 0 32 32">
            <path
                d="M12.844 20.242l-0.485 7.445c0.694 0 0.995-0.325 1.355-0.716l3.255-3.393 6.744 5.388c1.237 0.752 2.108 0.356 2.442-1.241l4.427-22.629 0.001-0.001c0.392-1.995-0.661-2.775-1.866-2.285l-26.022 10.868c-1.776 0.752-1.749 1.832-0.302 2.321l6.653 2.257 15.453-10.548c0.727-0.525 1.388-0.235 0.845 0.291l-12.5 12.244z">
            </path>
        </symbol>
        <symbol id="icon-twitter" viewBox="0 0 32 32">
            <path
                d="M30 7.696c-1.031 0.437-2.136 0.734-3.298 0.866 1.186-0.68 2.094-1.759 2.525-3.041-1.113 0.63-2.341 1.087-3.65 1.335-1.048-1.071-2.539-1.737-4.192-1.737-3.172 0-5.744 2.463-5.744 5.498 0 0.431 0.051 0.851 0.149 1.253-4.773-0.23-9.005-2.419-11.838-5.746-0.495 0.811-0.777 1.756-0.777 2.764 0 1.908 1.015 3.592 2.555 4.577-0.941-0.030-1.827-0.278-2.602-0.69v0.069c0 2.664 1.981 4.887 4.607 5.393-0.481 0.124-0.989 0.193-1.513 0.193-0.371 0-0.73-0.035-1.081-0.102 0.731 2.186 2.852 3.776 5.365 3.82-1.965 1.474-4.442 2.351-7.133 2.351-0.464 0-0.92-0.027-1.37-0.075 2.542 1.563 5.56 2.475 8.804 2.475 10.566 0 16.342-8.38 16.342-15.648l-0.019-0.712c1.129-0.771 2.105-1.739 2.873-2.841z">
            </path>
        </symbol>
        <symbol id="icon-youtube" viewBox="0 0 32 32">
            <path
                d="M28.52 5.485c1.371 0.369 2.451 1.45 2.82 2.821 0.686 2.504 0.659 7.723 0.659 7.723s0 5.193-0.659 7.697c-0.369 1.371-1.45 2.451-2.821 2.82-2.504 0.659-12.52 0.659-12.52 0.659s-9.99 0-12.521-0.685c-1.371-0.369-2.451-1.45-2.821-2.821-0.659-2.478-0.659-7.697-0.659-7.697s0-5.193 0.659-7.697c0.369-1.371 1.476-2.478 2.82-2.847 2.504-0.659 12.521-0.659 12.521-0.659s10.017 0 12.521 0.685zM21.14 16.002l-8.329 4.797v-9.595l8.329 4.797z">
            </path>
        </symbol>
        <symbol id="icon-person" viewBox="0 0 32 32">
            <path
                d="M16 4.334c-2.577 0-4.667 2.089-4.667 4.667s2.089 4.667 4.667 4.667c2.577 0 4.667-2.089 4.667-4.667s-2.089-4.667-4.667-4.667zM8.667 9.001c0-4.050 3.283-7.333 7.333-7.333s7.333 3.283 7.333 7.333c0 4.050-3.283 7.333-7.333 7.333s-7.333-3.283-7.333-7.333z">
            </path>
            <path
                d="M8.139 20.334c-0.924 0-1.647 0.45-1.94 1.097-0.406 0.895-0.774 1.961-0.86 2.971-0.039 0.452 0.15 0.785 0.409 0.946 1.372 0.852 4.552 2.319 10.253 2.319s8.88-1.467 10.253-2.319c0.26-0.161 0.448-0.494 0.409-0.946-0.087-1.011-0.454-2.076-0.86-2.971-0.293-0.647-1.016-1.097-1.94-1.097h-15.723zM3.77 20.329c0.811-1.787 2.621-2.662 4.369-2.662h15.723c1.748 0 3.558 0.875 4.369 2.662 0.466 1.027 0.965 2.407 1.089 3.845 0.112 1.31-0.432 2.677-1.659 3.439-1.805 1.121-5.474 2.721-11.66 2.721s-9.855-1.6-11.66-2.721c-1.227-0.762-1.771-2.13-1.659-3.439 0.123-1.438 0.623-2.818 1.089-3.845z">
            </path>
        </symbol>
        <symbol id="icon-cross" viewBox="0 0 32 32">
            <path
                d="M0.586 0.586c0.362-0.362 0.862-0.586 1.414-0.586s1.052 0.224 1.414 0.586l12.586 12.586 12.586-12.586c0.364-0.377 0.874-0.611 1.439-0.611 1.105 0 2 0.895 2 2 0 0.565-0.234 1.074-0.61 1.438l-0.001 0.001-12.586 12.586 12.586 12.586c0.347 0.359 0.561 0.849 0.561 1.389 0 1.105-0.895 2-2 2-0.54 0-1.030-0.214-1.39-0.562l0.001 0.001-12.586-12.586-12.586 12.586c-0.359 0.347-0.849 0.561-1.389 0.561-1.105 0-2-0.895-2-2 0-0.54 0.214-1.030 0.562-1.39l-0.001 0.001 12.586-12.586-12.586-12.586c-0.362-0.362-0.586-0.862-0.586-1.414s0.224-1.052 0.586-1.414v0z">
            </path>
        </symbol>
        <symbol id="icon-check" viewBox="0 0 36 32">
            <path fill="#fff" style="fill: var(--color1, #fff)"
                d="M34.944 2.471c0.818 0.924 0.818 2.428 0 3.353l-20.917 23.705c-0.355 0.426-0.885 0.696-1.479 0.696s-1.124-0.269-1.477-0.693l-0.003-0.003-10.453-11.858c-0.38-0.449-0.611-1.035-0.611-1.675s0.231-1.226 0.615-1.678l-0.003 0.004c0.355-0.425 0.885-0.694 1.477-0.694s1.123 0.269 1.475 0.691l0.002 0.003 8.981 10.176 19.435-22.027c0.355-0.426 0.885-0.696 1.479-0.696s1.124 0.269 1.477 0.693l0.003 0.003z">
            </path>
        </symbol>
        <symbol id="icon-eye" viewBox="0 0 37 32">
            <path fill="#424551" style="fill: var(--color1, #424551)"
                d="M4.332 9.056c4.441-3.702 9.551-5.775 14.954-5.775 5.401 0 10.511 2.073 14.949 5.775 0.276 0.218 0.629 0.349 1.013 0.349 0.907 0 1.642-0.735 1.642-1.642 0-0.488-0.213-0.926-0.551-1.227l-0.002-0.001c-4.938-4.118-10.769-6.535-17.054-6.535s-12.121 2.417-17.051 6.535c-0.385 0.303-0.629 0.769-0.629 1.292 0 0.907 0.735 1.642 1.642 1.642 0.419 0 0.801-0.157 1.091-0.415l-0.002 0.001z">
            </path>
            <path fill="#424551" style="fill: var(--color1, #424551)"
                d="M6.73 10.978c2.954-2.494 7.163-4.825 11.938-4.825s8.985 2.331 11.938 4.825c1.487 1.255 2.708 2.594 3.569 3.791 0.428 0.596 0.788 1.182 1.046 1.723 0.236 0.5 0.47 1.13 0.47 1.765 0 0.633-0.234 1.263-0.47 1.762-0.258 0.542-0.615 1.127-1.049 1.723-1.058 1.426-2.232 2.671-3.536 3.766l-0.034 0.027c-2.951 2.491-7.161 4.825-11.938 4.825-4.775 0-8.985-2.334-11.936-4.825-1.337-1.122-2.511-2.365-3.528-3.733l-0.041-0.058c-0.371-0.499-0.719-1.065-1.016-1.66l-0.030-0.066c-0.239-0.5-0.473-1.13-0.473-1.762 0-0.635 0.234-1.265 0.473-1.762 0.256-0.544 0.615-1.13 1.046-1.726 1.058-1.425 2.232-2.669 3.536-3.763l0.034-0.027zM4.935 18.257c0.017 0.054 0.054 0.17 0.143 0.352 0.15 0.32 0.396 0.734 0.746 1.216 0.694 0.965 1.728 2.11 3.023 3.202 2.617 2.21 6.1 4.049 9.822 4.049 3.719 0 7.202-1.839 9.819-4.049 1.297-1.093 2.329-2.24 3.025-3.2 0.347-0.485 0.593-0.898 0.746-1.218 0.086-0.182 0.123-0.295 0.14-0.352-0.043-0.139-0.091-0.256-0.147-0.369l0.007 0.015c-0.234-0.466-0.482-0.864-0.761-1.237l0.015 0.021c-0.898-1.202-1.892-2.252-2.996-3.176l-0.029-0.024c-0.52-0.443-1.093-0.881-1.69-1.289l-0.070-0.045c0.223 0.721 0.352 1.549 0.352 2.408 0 4.645-3.766 8.411-8.411 8.411s-8.411-3.766-8.411-8.411c0-0.859 0.129-1.687 0.368-2.467l-0.016 0.060c-0.623 0.418-1.211 0.866-1.762 1.332-1.295 1.095-2.329 2.24-3.023 3.202-0.264 0.352-0.512 0.75-0.724 1.169l-0.021 0.047c-0.089 0.182-0.126 0.298-0.143 0.354zM13.538 14.565c0-2.832 2.296-5.129 5.129-5.129s5.129 2.296 5.129 5.129v0c0 2.832-2.296 5.129-5.129 5.129s-5.129-2.296-5.129-5.129v0z">
            </path>
        </symbol>
        <symbol id="icon-closed-eye" viewBox="0 0 24 24">
            <path fill="#424551" style="fill: var(--color1, #424551)"
                d="M10.128 5.214c0.651-0.152 1.296-0.221 1.86-0.214 1.758 0 3.309 0.559 4.658 1.393 1.119 0.692 2.089 1.567 2.894 2.448 0.644 0.705 1.175 1.405 1.585 2.001 0.327 0.475 0.57 0.874 0.733 1.155-0.546 0.953-1.16 1.821-1.778 2.542-0.359 0.419-0.311 1.051 0.108 1.41s1.051 0.311 1.41-0.108c0.818-0.954 1.611-2.112 2.283-3.37 0.148-0.279 0.163-0.618 0.013-0.919 0 0-0.396-0.789-1.12-1.843-0.451-0.656-1.038-1.432-1.757-2.218-0.894-0.979-2.004-1.987-3.319-2.8-1.595-0.985-3.506-1.691-5.686-1.691-0.734-0.009-1.54 0.079-2.34 0.266-0.538 0.126-0.872 0.664-0.746 1.202s0.664 0.872 1.202 0.746zM10.027 11.442l2.531 2.531c-0.182 0.061-0.372 0.094-0.563 0.101-0.513 0.018-1.030-0.159-1.434-0.536s-0.617-0.88-0.635-1.393c-0.008-0.238 0.025-0.476 0.101-0.704zM5.983 7.397l2.553 2.553c-0.434 0.691-0.636 1.484-0.608 2.266 0.036 1.022 0.463 2.033 1.271 2.785s1.846 1.107 2.868 1.071c0.692-0.024 1.379-0.228 1.984-0.608l2.322 2.322c-1.378 0.799-2.895 1.196-4.384 1.214-1.734 0-3.285-0.559-4.634-1.393-1.119-0.692-2.089-1.567-2.894-2.448-0.644-0.705-1.175-1.405-1.585-2.001-0.326-0.475-0.57-0.873-0.732-1.154 1.050-1.822 2.376-3.379 3.841-4.607zM0.293 1.707l4.271 4.271c-1.731 1.479-3.269 3.358-4.445 5.549-0.148 0.279-0.164 0.619-0.013 0.92 0 0 0.396 0.789 1.12 1.843 0.451 0.656 1.038 1.432 1.757 2.218 0.894 0.979 2.004 1.987 3.319 2.8 1.595 0.986 3.506 1.692 5.71 1.692 1.993-0.024 4.019-0.601 5.815-1.759l4.466 4.466c0.391 0.391 1.024 0.391 1.414 0s0.391-1.024 0-1.414l-8.876-8.876c-0.002-0.002-0.005-0.005-0.007-0.007l-4.209-4.21c-0.008-0.007-0.016-0.016-0.024-0.024l-8.884-8.883c-0.391-0.391-1.024-0.391-1.414 0s-0.391 1.024 0 1.414z">
            </path>
        </symbol>
        <symbol id="icon-opened-eye" viewBox="0 0 24 24">
            <path fill="#424551" style="fill: var(--color1, #424551)"
                d="M0.106 11.553c-0.136 0.274-0.146 0.603 0 0.894 0 0 0.396 0.789 1.12 1.843 0.451 0.656 1.038 1.432 1.757 2.218 0.894 0.979 2.004 1.987 3.319 2.8 1.595 0.986 3.506 1.692 5.698 1.692s4.103-0.706 5.698-1.692c1.315-0.813 2.425-1.821 3.319-2.8 0.718-0.786 1.306-1.562 1.757-2.218 0.724-1.054 1.12-1.843 1.12-1.843 0.136-0.274 0.146-0.603 0-0.894 0 0-0.396-0.789-1.12-1.843-0.451-0.656-1.038-1.432-1.757-2.218-0.894-0.979-2.004-1.987-3.319-2.8-1.595-0.986-3.506-1.692-5.698-1.692s-4.103 0.706-5.698 1.692c-1.315 0.813-2.425 1.821-3.319 2.8-0.719 0.786-1.306 1.561-1.757 2.218-0.724 1.054-1.12 1.843-1.12 1.843zM2.14 12c0.163-0.281 0.407-0.681 0.734-1.158 0.41-0.596 0.94-1.296 1.585-2.001 0.805-0.881 1.775-1.756 2.894-2.448 1.35-0.834 2.901-1.393 4.647-1.393s3.297 0.559 4.646 1.393c1.119 0.692 2.089 1.567 2.894 2.448 0.644 0.705 1.175 1.405 1.585 2.001 0.328 0.477 0.572 0.876 0.734 1.158-0.163 0.281-0.407 0.681-0.734 1.158-0.41 0.596-0.94 1.296-1.585 2.001-0.805 0.881-1.775 1.756-2.894 2.448-1.349 0.834-2.9 1.393-4.646 1.393s-3.297-0.559-4.646-1.393c-1.119-0.692-2.089-1.567-2.894-2.448-0.644-0.705-1.175-1.405-1.585-2.001-0.328-0.477-0.572-0.877-0.735-1.158zM16 12c0-1.104-0.449-2.106-1.172-2.828s-1.724-1.172-2.828-1.172-2.106 0.449-2.828 1.172-1.172 1.724-1.172 2.828 0.449 2.106 1.172 2.828 1.724 1.172 2.828 1.172 2.106-0.449 2.828-1.172 1.172-1.724 1.172-2.828zM14 12c0 0.553-0.223 1.051-0.586 1.414s-0.861 0.586-1.414 0.586-1.051-0.223-1.414-0.586-0.586-0.861-0.586-1.414 0.223-1.051 0.586-1.414 0.861-0.586 1.414-0.586 1.051 0.223 1.414 0.586 0.586 0.861 0.586 1.414z">
            </path>
        </symbol>
    </defs>
</svg>