<svg aria-hidden="true" style="position: absolute; width: 0; height: 0; overflow: hidden;" version="1.1" xmlns="http://www.w3.org/2000/svg" xmlns:xlink="http://www.w3.org/1999/xlink">
    <defs>
        <symbol id="search" viewBox="0 0 32 32">
            <path fill="#9a9ca5" style="fill: var(--color1, #9a9ca5)" d="M14.5 4.333c-5.615 0-10.167 4.552-10.167 10.167s4.552 10.167 10.167 10.167c2.805 0 5.343-1.134 7.184-2.973 1.844-1.842 2.983-4.384 2.983-7.194 0-5.615-4.552-10.167-10.167-10.167zM1.667 14.499c0-7.088 5.746-12.833 12.833-12.833s12.833 5.746 12.833 12.833c0 3.066-1.076 5.882-2.869 8.088l5.478 5.468c0.521 0.52 0.522 1.365 0.002 1.886s-1.364 0.522-1.886 0.002l-5.481-5.471c-2.205 1.788-5.017 2.86-8.077 2.86-7.088 0-12.833-5.746-12.833-12.833z"></path>
        </symbol>
        <symbol id="braces" viewBox="0 0 46 32">
            <path fill="#ff3f3a" style="fill: var(--color1, #ff3f3a)" d="M28.806 14.281c0-0.471 0.207-0.917 0.567-1.221l15.433-13.059v30.4c0 0.884-0.716 1.6-1.6 1.6h-12.8c-0.884 0-1.6-0.716-1.6-1.6v-16.119z"></path>
            <path fill="#ff3f3a" style="fill: var(--color1, #ff3f3a)" d="M0.006 14.281c0-0.471 0.207-0.917 0.567-1.221l15.434-13.059v30.4c0 0.884-0.716 1.6-1.6 1.6h-12.8c-0.884 0-1.6-0.716-1.6-1.6v-16.119z"></path>
        </symbol>
        <symbol id="convert" viewBox="0 0 32 32">
            <path d="M2.799 2.667c0.736 0 1.333 0.597 1.333 1.333v5.915c2.211-4.303 6.693-7.248 11.867-7.248 5.807 0 10.745 3.712 12.574 8.889 0.245 0.694-0.119 1.456-0.813 1.701s-1.456-0.118-1.701-0.813c-1.465-4.145-5.418-7.111-10.060-7.111-3.947 0-7.395 2.144-9.24 5.333h4.040c0.736 0 1.333 0.597 1.333 1.333s-0.597 1.333-1.333 1.333h-8c-0.736 0-1.333-0.597-1.333-1.333v-8c0-0.736 0.597-1.333 1.333-1.333z"></path>
            <path d="M4.236 18.743c0.694-0.245 1.456 0.118 1.701 0.813 1.465 4.145 5.418 7.111 10.060 7.111 3.947 0 7.395-2.144 9.24-5.333h-4.040c-0.736 0-1.333-0.597-1.333-1.333s0.597-1.333 1.333-1.333h8c0.736 0 1.333 0.597 1.333 1.333v8c0 0.736-0.597 1.333-1.333 1.333s-1.333-0.597-1.333-1.333v-5.915c-2.211 4.303-6.693 7.248-11.867 7.248-5.808 0-10.745-3.712-12.574-8.889-0.245-0.694 0.119-1.456 0.813-1.701z"></path>
        </symbol>
        <symbol id="dot" viewBox="0 0 331 32">
            <path fill="none" stroke="#b3b7bc" style="stroke: var(--color3, #b3b7bc)" stroke-linejoin="miter" stroke-linecap="round" stroke-miterlimit="4" stroke-width="32" d="M16.042 16h288"></path>
        </symbol>
        <symbol id="icon-facebook" viewBox="0 0 32 32">
            <path d="M23.417 1.339l-3.703-0.006c-4.16 0-6.849 2.833-6.849 7.219v3.328h-3.723c-0.322 0-0.582 0.268-0.582 0.598v4.823c0 0.33 0.261 0.598 0.582 0.598h3.723v12.169c0 0.331 0.261 0.598 0.582 0.598h4.858c0.322 0 0.582-0.268 0.582-0.598v-12.169h4.353c0.322 0 0.582-0.268 0.582-0.598l0.002-4.823c0-0.159-0.062-0.311-0.171-0.423s-0.258-0.175-0.412-0.175h-4.355v-2.822c0-1.356 0.315-2.045 2.034-2.045l2.495-0.001c0.321 0 0.582-0.268 0.582-0.598v-4.478c0-0.33-0.26-0.598-0.581-0.598z"></path>
        </symbol>
        <symbol id="icon-heart" viewBox="0 0 32 32">
            <path fill="#ff3f3a" style="fill: var(--color1, #ff3f3a)" d="M15.999 26.543c-6.132-3.493-9.552-6.964-11.206-9.976-1.693-3.083-1.545-5.679-0.606-7.522 1.931-3.788 7.421-4.999 10.766-0.768l1.046 1.323 1.046-1.323c3.346-4.231 8.836-3.019 10.767 0.768 0.939 1.843 1.087 4.439-0.606 7.522-1.654 3.012-5.074 6.483-11.207 9.976zM16 5.475c-4.706-4.471-11.647-2.623-14.188 2.36-1.394 2.735-1.413 6.27 0.644 10.016 2.039 3.713 6.104 7.633 12.898 11.388l0.645 0.356 0.645-0.356c6.795-3.755 10.86-7.675 12.899-11.388 2.057-3.746 2.038-7.281 0.644-10.016-2.54-4.983-9.482-6.831-14.188-2.36z"></path>
        </symbol>
        <symbol id="icon-instagram" viewBox="0 0 32 32">
            <path d="M29.307 10.507c-0.062-1.417-0.292-2.391-0.62-3.235-0.339-0.896-0.86-1.698-1.542-2.365-0.667-0.677-1.474-1.203-2.36-1.537-0.849-0.328-1.818-0.557-3.235-0.62-1.428-0.068-1.881-0.083-5.501-0.083s-4.074 0.016-5.496 0.078c-1.417 0.062-2.391 0.292-3.235 0.62-0.896 0.339-1.698 0.86-2.365 1.542-0.677 0.667-1.203 1.474-1.537 2.36-0.328 0.849-0.557 1.818-0.62 3.235-0.068 1.427-0.083 1.881-0.083 5.501s0.016 4.074 0.078 5.496c0.062 1.417 0.292 2.391 0.62 3.235 0.339 0.896 0.865 1.698 1.542 2.365 0.667 0.677 1.474 1.203 2.36 1.537 0.849 0.328 1.818 0.557 3.235 0.62 1.422 0.063 1.875 0.078 5.496 0.078s4.074-0.015 5.496-0.078c1.417-0.062 2.391-0.292 3.235-0.62 1.792-0.693 3.209-2.11 3.902-3.902 0.328-0.849 0.557-1.818 0.62-3.235 0.063-1.422 0.078-1.875 0.078-5.496s-0.005-4.074-0.068-5.496zM26.906 21.394c-0.057 1.302-0.276 2.006-0.459 2.474-0.448 1.162-1.37 2.084-2.532 2.532-0.469 0.182-1.177 0.401-2.475 0.458-1.406 0.063-1.828 0.078-5.386 0.078s-3.985-0.015-5.387-0.078c-1.302-0.057-2.006-0.276-2.474-0.458-0.578-0.214-1.104-0.552-1.531-0.995-0.443-0.432-0.781-0.953-0.995-1.531-0.182-0.469-0.401-1.177-0.458-2.474-0.063-1.407-0.078-1.829-0.078-5.387s0.015-3.985 0.078-5.386c0.057-1.302 0.276-2.006 0.458-2.474 0.214-0.578 0.552-1.104 1-1.532 0.432-0.443 0.953-0.781 1.531-0.995 0.469-0.182 1.177-0.401 2.474-0.458 1.407-0.062 1.829-0.078 5.386-0.078 3.563 0 3.985 0.016 5.387 0.078 1.302 0.057 2.006 0.276 2.474 0.458 0.578 0.213 1.104 0.552 1.531 0.995 0.443 0.432 0.781 0.953 0.995 1.532 0.182 0.469 0.401 1.177 0.459 2.474 0.062 1.407 0.078 1.828 0.078 5.386s-0.016 3.975-0.078 5.381z"></path>
            <path d="M16.049 9.152c-3.782 0-6.85 3.068-6.85 6.85s3.068 6.85 6.85 6.85c3.782 0 6.85-3.068 6.85-6.85s-3.068-6.85-6.85-6.85zM16.049 20.446c-2.453 0-4.444-1.99-4.444-4.444s1.99-4.444 4.444-4.444c2.454 0 4.444 1.99 4.444 4.444s-1.99 4.444-4.444 4.444z"></path>
            <path d="M24.77 8.881c0 0.883-0.716 1.599-1.599 1.599s-1.599-0.716-1.599-1.599c0-0.883 0.716-1.599 1.599-1.599s1.599 0.716 1.599 1.599z"></path>
        </symbol>
        <symbol id="icon-phone" viewBox="0 0 32 32">
            <path d="M11.334 3.897c-1.105 0-2 0.895-2 2v20.208c0 1.105 0.895 2 2 2h9.333c1.105 0 2-0.895 2-2v-20.208c0-1.105-0.895-2-2-2h-0.111l-0.325 0.779c-0.207 0.497-0.692 0.82-1.231 0.82h-6c-0.538 0-1.024-0.324-1.231-0.82l-0.325-0.779h-0.111zM6.667 5.897c0-2.577 2.089-4.667 4.667-4.667h9.333c2.577 0 4.667 2.089 4.667 4.667v20.208c0 2.577-2.089 4.667-4.667 4.667h-9.333c-2.577 0-4.667-2.089-4.667-4.667v-20.208z"></path>
        </symbol>
        <symbol id="left" viewBox="0 0 32 32">
            <path d="M12.276 22.943c-0.521 0.521-1.365 0.521-1.886 0l-6-6c-0.521-0.521-0.521-1.365 0-1.886l6-6c0.521-0.521 1.365-0.521 1.886 0s0.521 1.365 0 1.886l-3.724 3.724h18.114c0.736 0 1.333 0.597 1.333 1.333s-0.597 1.333-1.333 1.333h-18.114l3.724 3.724c0.521 0.521 0.521 1.365 0 1.886z"></path>
        </symbol>
        <symbol id="icon-linked-in" viewBox="0 0 32 32">
            <path d="M29.327 29.333l0.007-0.001v-9.78c0-4.785-1.030-8.47-6.623-8.47-2.689 0-4.493 1.476-5.23 2.874h-0.078v-2.428h-5.303v17.803h5.522v-8.816c0-2.321 0.44-4.566 3.315-4.566 2.832 0 2.874 2.649 2.874 4.715v8.668h5.517z"></path>
            <path d="M3.107 11.53h5.529v17.803h-5.529v-17.803z"></path>
            <path d="M5.869 2.667c-1.768 0-3.202 1.434-3.202 3.202s1.434 3.232 3.202 3.232c1.768 0 3.202-1.464 3.202-3.232-0.001-1.768-1.436-3.202-3.202-3.202z"></path>
        </symbol>
        <symbol id="icon-logo" viewBox="0 0 189 32">
            <path  d="M0 16.147c0-8.873 4.8-14.255 12.655-14.255 5.964 0 10.764 3.636 11.636 9.018 0.145 0.582-0.291 1.018-0.873 1.018h-3.782c-0.436 0-0.727-0.291-0.873-0.727-0.727-2.764-3.055-4.509-6.109-4.509-4.218 0-6.836 3.636-6.836 9.455s2.618 9.455 6.982 9.455c3.055 0 5.236-1.6 6.109-4.218 0.145-0.436 0.436-0.727 0.873-0.727h3.782c0.582 0 1.018 0.582 0.873 1.018-0.873 5.236-5.527 8.727-11.636 8.727-8 0-12.8-5.527-12.8-14.255z"></path>
            <path  d="M35.345 29.674h-4.218c-0.436 0-0.727-0.291-0.727-0.727v-25.164c0-0.582 0.582-1.164 1.164-1.164h10.182c5.964 0 9.6 3.345 9.6 8.582 0 3.055-1.455 5.818-3.927 7.273-0.582 0.291-0.727 1.018-0.436 1.455l4.509 8.582c0.291 0.436-0.145 1.018-0.582 1.018h-4.8c-0.291 0-0.582-0.145-0.727-0.436l-4.218-8.727c-0.145-0.436-0.582-0.582-1.018-0.582h-3.345c-0.436 0-0.727 0.291-0.727 0.727v8.582c0.145 0.291-0.291 0.582-0.727 0.582zM36.218 14.838c0 0.436 0.291 0.727 0.727 0.727h4.364c2.909 0 4.509-1.6 4.509-4.218s-1.745-4.218-4.509-4.218h-4.218c-0.436 0-0.727 0.291-0.727 0.727v6.982h-0.145z"></path>
            <path  d="M74.909 29.674h-16c-0.582 0-1.018-0.436-1.018-1.018v-25.018c0-0.582 0.436-1.018 1.018-1.018h16c0.582 0 1.018 0.436 1.018 1.018v2.764c0 0.582-0.436 1.018-1.018 1.018h-10.618c-0.436 0-0.727 0.291-0.727 0.727v4.945c0 0.436 0.291 0.727 0.727 0.727h9.891c0.582 0 1.018 0.436 1.018 1.018v2.473c0 0.582-0.436 1.018-1.018 1.018h-9.891c-0.436 0-0.727 0.291-0.727 0.727v5.527c0 0.436 0.291 0.727 0.727 0.727h10.618c0.582 0 1.018 0.436 1.018 1.018v2.764c0 0.145-0.436 0.582-1.018 0.582z"></path>
            <path  d="M97.454 23.129h-8.291c-0.436 0-0.727 0.291-0.873 0.582l-1.6 5.382c-0.145 0.436-0.436 0.582-0.873 0.582h-3.782c-0.582 0-1.018-0.582-0.873-1.164l8.727-25.309c0.145-0.291 0.436-0.582 0.873-0.582h5.382c0.436 0 0.727 0.291 0.873 0.582l8.727 25.309c0.145 0.582-0.291 1.164-0.873 1.164h-4.218c-0.436 0-0.727-0.291-0.873-0.582l-1.6-5.382c0-0.291-0.436-0.582-0.727-0.582zM90.327 18.911h5.964c0.291 0 0.436-0.291 0.436-0.582l-3.2-10.182h-0.291l-3.2 10.182c-0.145 0.291 0 0.582 0.291 0.582z"></path>
            <path  d="M114.909 28.657v-20.654c0-0.436-0.291-0.727-0.727-0.727h-6.4c-0.582 0-1.164-0.436-1.164-1.164v-2.473c0-0.582 0.436-1.164 1.164-1.164h19.782c0.582 0 1.164 0.436 1.164 1.164v2.473c0 0.582-0.436 1.164-1.164 1.164h-6.4c-0.436 0-0.727 0.291-0.727 0.727v20.8c0 0.582-0.436 1.018-1.018 1.018h-3.636c-0.436-0.145-0.873-0.582-0.873-1.164z"></path>
            <path  d="M150.982 29.674h-16c-0.582 0-1.018-0.436-1.018-1.018v-25.018c0-0.582 0.436-1.018 1.018-1.018h16c0.582 0 1.018 0.436 1.018 1.018v2.764c0 0.582-0.436 1.018-1.018 1.018h-10.618c-0.436 0-0.727 0.291-0.727 0.727v4.945c0 0.436 0.291 0.727 0.727 0.727h9.891c0.582 0 1.018 0.436 1.018 1.018v2.473c0 0.582-0.436 1.018-1.018 1.018h-9.891c-0.436 0-0.727 0.291-0.727 0.727v5.527c0 0.436 0.291 0.727 0.727 0.727h10.618c0.582 0 1.018 0.436 1.018 1.018v2.764c0 0.145-0.436 0.582-1.018 0.582z"></path>
            <path fill="#ff3f3a" style="fill: var(--color1, #ff3f3a)" d="M171.2 14.109l-9.018-11.782c-0.582-0.582-1.309-0.873-2.036-0.873s-1.455 0.291-2.036 0.873c-1.018 1.164-1.018 2.909 0 4.073l7.127 9.6-7.127 9.6c-1.018 1.164-1.018 2.909 0 4.073 0.582 0.582 1.309 0.873 2.036 0.873s1.455-0.291 2.036-0.873l9.018-11.782c1.018-0.873 1.018-2.618 0-3.782z"></path>
            <path fill="#ff3f3a" style="fill: var(--color1, #ff3f3a)" d="M175.044 14.109l9.018-11.782c0.582-0.582 1.309-0.873 2.036-0.873s1.455 0.291 2.036 0.873c1.018 1.164 1.018 2.909 0 4.073l-7.127 9.6 7.127 9.6c1.018 1.164 1.018 2.909 0 4.073-0.582 0.582-1.309 0.873-2.036 0.873s-1.455-0.291-2.036-0.873l-9.018-11.782c-1.018-0.873-1.018-2.618 0-3.782z"></path>
        </symbol>
        <symbol id="icon-mail" viewBox="0 0 32 32">
            <path d="M30.334 23.999v-14.667c0-2.209-1.791-4-4-4l-20.667 0c-2.209 0-4 1.791-4 4v14.667c0 2.209 1.791 4 4 4h20.667c2.209 0 4-1.791 4-4zM27.667 12.345v11.654c0 0.736-0.597 1.333-1.333 1.333h-20.667c-0.736 0-1.333-0.597-1.333-1.333v-11.654l9.418 6.404c1.357 0.923 3.141 0.923 4.498 0l9.417-6.404zM27.652 9.13l-10.902 7.413c-0.452 0.308-1.047 0.308-1.499 0l-10.902-7.413c0.097-0.64 0.65-1.131 1.318-1.131l20.667-0c0.668 0 1.221 0.491 1.318 1.131z"></path>
        </symbol>
        <symbol id="right" viewBox="0 0 33 32">
            <path d="M19.729 9.057c0.521-0.521 1.365-0.521 1.886 0l6 6c0.521 0.521 0.521 1.365 0 1.886l-6 6c-0.521 0.521-1.365 0.521-1.886 0s-0.521-1.365 0-1.886l3.724-3.724h-18.114c-0.736 0-1.333-0.597-1.333-1.333s0.597-1.333 1.333-1.333h18.114l-3.724-3.724c-0.521-0.521-0.521-1.365 0-1.886z"></path>
        </symbol>
        <symbol id="icon-telegram" viewBox="0 0 32 32">
            <path  d="M12.844 20.242l-0.485 7.445c0.694 0 0.995-0.325 1.355-0.716l3.255-3.393 6.744 5.388c1.237 0.752 2.108 0.356 2.442-1.241l4.427-22.629 0.001-0.001c0.392-1.995-0.661-2.775-1.866-2.285l-26.022 10.868c-1.776 0.752-1.749 1.832-0.302 2.321l6.653 2.257 15.453-10.548c0.727-0.525 1.388-0.235 0.845 0.291l-12.5 12.244z"></path>
        </symbol>
        <symbol id="icon-twitter" viewBox="0 0 32 32">
            <path  d="M30 7.696c-1.031 0.437-2.136 0.734-3.298 0.866 1.186-0.68 2.094-1.759 2.525-3.041-1.113 0.63-2.341 1.087-3.65 1.335-1.048-1.071-2.539-1.737-4.192-1.737-3.172 0-5.744 2.463-5.744 5.498 0 0.431 0.051 0.851 0.149 1.253-4.773-0.23-9.005-2.419-11.838-5.746-0.495 0.811-0.777 1.756-0.777 2.764 0 1.908 1.015 3.592 2.555 4.577-0.941-0.030-1.827-0.278-2.602-0.69v0.069c0 2.664 1.981 4.887 4.607 5.393-0.481 0.124-0.989 0.193-1.513 0.193-0.371 0-0.73-0.035-1.081-0.102 0.731 2.186 2.852 3.776 5.365 3.82-1.965 1.474-4.442 2.351-7.133 2.351-0.464 0-0.92-0.027-1.37-0.075 2.542 1.563 5.56 2.475 8.804 2.475 10.566 0 16.342-8.38 16.342-15.648l-0.019-0.712c1.129-0.771 2.105-1.739 2.873-2.841z"></path>
        </symbol>
        <symbol id="icon-youtube" viewBox="0 0 32 32">
            <path  d="M28.52 5.485c1.371 0.369 2.451 1.45 2.82 2.821 0.686 2.504 0.659 7.723 0.659 7.723s0 5.193-0.659 7.697c-0.369 1.371-1.45 2.451-2.821 2.82-2.504 0.659-12.52 0.659-12.52 0.659s-9.99 0-12.521-0.685c-1.371-0.369-2.451-1.45-2.821-2.821-0.659-2.478-0.659-7.697-0.659-7.697s0-5.193 0.659-7.697c0.369-1.371 1.476-2.478 2.82-2.847 2.504-0.659 12.521-0.659 12.521-0.659s10.017 0 12.521 0.685zM21.14 16.002l-8.329 4.797v-9.595l8.329 4.797z"></path>
        </symbol>
        <symbol id="icon-person" viewBox="0 0 32 32">
            <path d="M16 4.334c-2.577 0-4.667 2.089-4.667 4.667s2.089 4.667 4.667 4.667c2.577 0 4.667-2.089 4.667-4.667s-2.089-4.667-4.667-4.667zM8.667 9.001c0-4.050 3.283-7.333 7.333-7.333s7.333 3.283 7.333 7.333c0 4.050-3.283 7.333-7.333 7.333s-7.333-3.283-7.333-7.333z"></path>
            <path d="M8.139 20.334c-0.924 0-1.647 0.45-1.94 1.097-0.406 0.895-0.774 1.961-0.86 2.971-0.039 0.452 0.15 0.785 0.409 0.946 1.372 0.852 4.552 2.319 10.253 2.319s8.88-1.467 10.253-2.319c0.26-0.161 0.448-0.494 0.409-0.946-0.087-1.011-0.454-2.076-0.86-2.971-0.293-0.647-1.016-1.097-1.94-1.097h-15.723zM3.77 20.329c0.811-1.787 2.621-2.662 4.369-2.662h15.723c1.748 0 3.558 0.875 4.369 2.662 0.466 1.027 0.965 2.407 1.089 3.845 0.112 1.31-0.432 2.677-1.659 3.439-1.805 1.121-5.474 2.721-11.66 2.721s-9.855-1.6-11.66-2.721c-1.227-0.762-1.771-2.13-1.659-3.439 0.123-1.438 0.623-2.818 1.089-3.845z"></path>
        </symbol>
    </defs>
</svg>