<svg aria-hidden="true" style="position: absolute; width: 0; height: 0; overflow: hidden;" version="1.1" xmlns="http://www.w3.org/2000/svg" xmlns:xlink="http://www.w3.org/1999/xlink">
    <defs>
        <symbol id="icon-facebook" viewBox="0 0 32 32">
            <path d="M23.417 1.34l-3.703-0.007c-4.16 0-6.849 2.833-6.849 7.219v3.329h-3.723c-0.323 0-0.583 0.267-0.583 0.597v4.823c0 0.331 0.261 0.599 0.583 0.599h3.723v12.168c0 0.331 0.26 0.599 0.583 0.599h4.857c0.323-0.004 0.583-0.267 0.583-0.591 0-0.003-0-0.006-0-0.008v0-12.168h4.353c0.321 0 0.581-0.267 0.581-0.599l0.003-4.823c0-0 0-0 0-0 0-0.164-0.065-0.313-0.171-0.423l0 0c-0.105-0.108-0.251-0.175-0.413-0.175-0 0-0 0-0.001 0h-4.353v-2.823c0-1.356 0.315-2.044 2.033-2.044h2.495c0.321 0 0.583-0.269 0.583-0.6v-4.476c0-0.002 0-0.004 0-0.007 0-0.323-0.259-0.585-0.581-0.591h-0z"></path>
        </symbol>
        <symbol id="icon-instagram" viewBox="0 0 32 32">
            <path d="M29.307 10.507c-0.061-1.417-0.291-2.391-0.619-3.235-0.354-0.926-0.878-1.716-1.541-2.364l-0.001-0.001c-0.65-0.66-1.437-1.183-2.315-1.522l-0.045-0.015c-0.849-0.328-1.817-0.557-3.235-0.619-1.427-0.068-1.88-0.084-5.501-0.084-3.62 0-4.073 0.016-5.496 0.079-1.416 0.061-2.391 0.291-3.235 0.619-0.926 0.354-1.716 0.878-2.364 1.541l-0.001 0.001c-0.66 0.65-1.182 1.437-1.521 2.315l-0.015 0.045c-0.329 0.849-0.557 1.817-0.62 3.235-0.068 1.427-0.084 1.88-0.084 5.501 0 3.62 0.016 4.073 0.079 5.496 0.063 1.417 0.292 2.391 0.62 3.235 0.355 0.925 0.879 1.714 1.54 2.364l0.001 0.001c0.667 0.677 1.475 1.203 2.36 1.536 0.849 0.329 1.819 0.559 3.235 0.62 1.423 0.063 1.876 0.079 5.496 0.079 3.621 0 4.075-0.016 5.496-0.079 1.417-0.061 2.391-0.291 3.235-0.619 1.798-0.708 3.194-2.105 3.887-3.856l0.016-0.046c0.328-0.849 0.557-1.819 0.62-3.235 0.063-1.423 0.077-1.876 0.077-5.496s-0.005-4.073-0.067-5.496zM26.907 21.395c-0.059 1.303-0.277 2.005-0.46 2.473-0.459 1.167-1.364 2.073-2.501 2.523l-0.030 0.010c-0.469 0.181-1.177 0.4-2.475 0.457-1.407 0.063-1.828 0.079-5.387 0.079-3.557 0-3.985-0.016-5.387-0.079-1.303-0.057-2.005-0.276-2.475-0.459-0.6-0.224-1.112-0.563-1.53-0.994l-0.001-0.001c-0.431-0.42-0.77-0.931-0.987-1.502l-0.010-0.029c-0.181-0.469-0.4-1.177-0.457-2.475-0.063-1.407-0.079-1.829-0.079-5.387 0-3.559 0.016-3.987 0.079-5.387 0.057-1.303 0.276-2.005 0.457-2.475 0.224-0.602 0.565-1.114 0.999-1.531l0.001-0.001c0.42-0.431 0.932-0.77 1.505-0.985l0.029-0.009c0.467-0.183 1.176-0.4 2.473-0.459 1.407-0.061 1.829-0.077 5.387-0.077 3.563 0 3.985 0.016 5.387 0.077 1.303 0.057 2.005 0.276 2.475 0.459 0.577 0.213 1.104 0.552 1.531 0.995 0.443 0.433 0.781 0.953 0.996 1.533 0.181 0.467 0.4 1.176 0.457 2.473 0.063 1.407 0.079 1.828 0.079 5.387 0 3.557-0.016 3.973-0.079 5.381z"></path>
            <path d="M16.049 9.152c-3.783 0.002-6.849 3.068-6.849 6.851v0c0 0 0 0.001 0 0.001 0 3.784 3.068 6.852 6.852 6.852s6.852-3.068 6.852-6.852c0-3.784-3.068-6.852-6.852-6.852-0 0-0.001 0-0.001 0h0zM16.049 20.445c-2.454-0-4.443-1.99-4.443-4.444s1.99-4.444 4.444-4.444c0 0 0 0 0.001 0h-0c2.455 0 4.445 1.99 4.445 4.445s-1.99 4.445-4.445 4.445v0zM24.771 8.881c0 0.884-0.716 1.6-1.6 1.6s-1.6-0.716-1.6-1.6v0c0-0.884 0.716-1.6 1.6-1.6s1.6 0.716 1.6 1.6v0z"></path>
        </symbol>
        <symbol id="icon-linked-in" viewBox="0 0 32 32">
            <path d="M29.327 29.333h0.007v-9.781c0-4.784-1.031-8.469-6.624-8.469-2.688 0-4.493 1.475-5.229 2.873h-0.077v-2.427h-5.304v17.803h5.523v-8.815c0-2.321 0.44-4.567 3.315-4.567 2.832 0 2.875 2.649 2.875 4.715v8.668h5.516zM3.107 11.531h5.529v17.803h-5.529v-17.803zM5.869 2.667c-1.769 0-3.203 1.434-3.203 3.203v0c0 1.767 1.435 3.232 3.203 3.232 1.767 0 3.201-1.464 3.201-3.232s-1.433-3.201-3.201-3.203h-0z"></path>
        </symbol>
        <symbol id="icon-logo" viewBox="0 0 189 32">
            <path  d="M0 16.145c0-8.873 4.8-14.255 12.655-14.255 5.964 0 10.764 3.636 11.636 9.018 0.145 0.582-0.291 1.018-0.873 1.018h-3.782c-0.436 0-0.727-0.291-0.873-0.727-0.727-2.764-3.055-4.509-6.109-4.509-4.218 0-6.836 3.636-6.836 9.455s2.618 9.455 6.982 9.455c3.055 0 5.236-1.6 6.109-4.218 0.145-0.436 0.436-0.727 0.873-0.727h3.782c0.582 0 1.018 0.582 0.873 1.018-0.873 5.236-5.527 8.727-11.636 8.727-8 0-12.8-5.527-12.8-14.255zM35.345 29.673h-4.218c-0.436 0-0.727-0.291-0.727-0.727v-25.164c0-0.582 0.582-1.164 1.164-1.164h10.182c5.964 0 9.6 3.345 9.6 8.582 0 3.055-1.455 5.818-3.927 7.273-0.582 0.291-0.727 1.018-0.436 1.455l4.509 8.582c0.291 0.436-0.145 1.018-0.582 1.018h-4.8c-0.291 0-0.582-0.145-0.727-0.436l-4.218-8.727c-0.145-0.436-0.582-0.582-1.018-0.582h-3.345c-0.436 0-0.727 0.291-0.727 0.727v8.582c0.145 0.291-0.291 0.582-0.727 0.582zM36.218 14.836c0 0.436 0.291 0.727 0.727 0.727h4.364c2.909 0 4.509-1.6 4.509-4.218s-1.745-4.218-4.509-4.218h-4.218c-0.436 0-0.727 0.291-0.727 0.727v6.982h-0.145zM74.909 29.673h-16c-0.582 0-1.018-0.436-1.018-1.018v-25.018c0-0.582 0.436-1.018 1.018-1.018h16c0.582 0 1.018 0.436 1.018 1.018v2.764c0 0.582-0.436 1.018-1.018 1.018h-10.618c-0.436 0-0.727 0.291-0.727 0.727v4.945c0 0.436 0.291 0.727 0.727 0.727h9.891c0.582 0 1.018 0.436 1.018 1.018v2.473c0 0.582-0.436 1.018-1.018 1.018h-9.891c-0.436 0-0.727 0.291-0.727 0.727v5.527c0 0.436 0.291 0.727 0.727 0.727h10.618c0.582 0 1.018 0.436 1.018 1.018v2.764c0 0.145-0.436 0.582-1.018 0.582zM97.455 23.127h-8.291c-0.436 0-0.727 0.291-0.873 0.582l-1.6 5.382c-0.145 0.436-0.436 0.582-0.873 0.582h-3.782c-0.582 0-1.018-0.582-0.873-1.164l8.727-25.309c0.145-0.291 0.436-0.582 0.873-0.582h5.382c0.436 0 0.727 0.291 0.873 0.582l8.727 25.309c0.145 0.582-0.291 1.164-0.873 1.164h-4.218c-0.436 0-0.727-0.291-0.873-0.582l-1.6-5.382c0-0.291-0.436-0.582-0.727-0.582zM90.327 18.909h5.964c0.291 0 0.436-0.291 0.436-0.582l-3.2-10.182h-0.291l-3.2 10.182c-0.145 0.291 0 0.582 0.291 0.582zM114.909 28.655v-20.655c0-0.436-0.291-0.727-0.727-0.727h-6.4c-0.582 0-1.164-0.436-1.164-1.164v-2.473c0-0.582 0.436-1.164 1.164-1.164h19.782c0.582 0 1.164 0.436 1.164 1.164v2.473c0 0.582-0.436 1.164-1.164 1.164h-6.4c-0.436 0-0.727 0.291-0.727 0.727v20.8c0 0.582-0.436 1.018-1.018 1.018h-3.636c-0.436-0.145-0.873-0.582-0.873-1.164zM150.982 29.673h-16c-0.582 0-1.018-0.436-1.018-1.018v-25.018c0-0.582 0.436-1.018 1.018-1.018h16c0.582 0 1.018 0.436 1.018 1.018v2.764c0 0.582-0.436 1.018-1.018 1.018h-10.618c-0.436 0-0.727 0.291-0.727 0.727v4.945c0 0.436 0.291 0.727 0.727 0.727h9.891c0.582 0 1.018 0.436 1.018 1.018v2.473c0 0.582-0.436 1.018-1.018 1.018h-9.891c-0.436 0-0.727 0.291-0.727 0.727v5.527c0 0.436 0.291 0.727 0.727 0.727h10.618c0.582 0 1.018 0.436 1.018 1.018v2.764c0 0.145-0.436 0.582-1.018 0.582z"></path>
            <path fill="#ff3f3a" style="fill: var(--color2, #ff3f3a)" d="M171.2 14.109l-9.018-11.782c-0.582-0.582-1.309-0.873-2.036-0.873s-1.455 0.291-2.036 0.873c-1.018 1.164-1.018 2.909 0 4.073l7.127 9.6-7.127 9.6c-1.018 1.164-1.018 2.909 0 4.073 0.582 0.582 1.309 0.873 2.036 0.873s1.455-0.291 2.036-0.873l9.018-11.782c1.018-0.873 1.018-2.618 0-3.782zM175.044 14.109l9.018-11.782c0.582-0.582 1.309-0.873 2.036-0.873s1.455 0.291 2.036 0.873c1.018 1.164 1.018 2.909 0 4.073l-7.127 9.6 7.127 9.6c1.018 1.164 1.018 2.909 0 4.073-0.582 0.582-1.309 0.873-2.036 0.873s-1.455-0.291-2.036-0.873l-9.018-11.782c-1.018-0.873-1.018-2.618 0-3.782z"></path>
        </symbol>
        <symbol id="icon-telegram" viewBox="0 0 32 32">
            <path d="M12.844 20.241l-0.485 7.445c0.693 0 0.995-0.325 1.355-0.716l3.255-3.393 6.745 5.388c1.236 0.752 2.108 0.356 2.441-1.24l4.427-22.631h0.001c0.393-1.996-0.66-2.776-1.867-2.287l-26.020 10.868c-1.776 0.752-1.748 1.832-0.301 2.321l6.653 2.257 15.453-10.547c0.727-0.527 1.387-0.236 0.844 0.289l-12.5 12.244z"></path>
        </symbol>
        <symbol id="icon-twitter" viewBox="0 0 32 32">
            <path d="M30 7.696c-0.961 0.42-2.076 0.725-3.243 0.861l-0.055 0.005c1.176-0.675 2.068-1.733 2.513-3.001l0.012-0.039c-1.053 0.606-2.276 1.069-3.574 1.321l-0.075 0.012c-1.061-1.072-2.532-1.736-4.159-1.736-0.012 0-0.024 0-0.036 0h0.002c-3.172 0-5.744 2.463-5.744 5.499 0 0.431 0.051 0.851 0.149 1.253-4.773-0.231-9.005-2.42-11.839-5.747-0.488 0.785-0.777 1.738-0.777 2.758 0 0.002 0 0.004 0 0.006v-0c0 1.908 1.016 3.592 2.555 4.577-0.956-0.031-1.847-0.283-2.632-0.706l0.032 0.016v0.069c0 2.663 1.98 4.887 4.605 5.392-0.48 0.124-0.988 0.193-1.513 0.193-0.382-0-0.755-0.037-1.116-0.109l0.036 0.006c0.731 2.187 2.851 3.776 5.364 3.82-1.951 1.468-4.415 2.351-7.085 2.351-0.017 0-0.034-0-0.051-0h0.003c-0.464 0-0.92-0.027-1.371-0.076 2.494 1.554 5.523 2.475 8.766 2.475 0.013 0 0.027-0 0.040-0h-0.002c10.567 0 16.343-8.38 16.343-15.648l-0.020-0.712c1.131-0.778 2.084-1.72 2.85-2.805l0.024-0.035z"></path>
        </symbol>
        <symbol id="icon-youtube" viewBox="0 0 32 32">
            <path d="M28.52 5.485c1.377 0.382 2.439 1.444 2.815 2.792l0.007 0.028c0.685 2.504 0.659 7.723 0.659 7.723s0 5.193-0.659 7.697c-0.382 1.376-1.445 2.438-2.793 2.813l-0.028 0.007c-2.504 0.66-12.52 0.66-12.52 0.66s-9.991 0-12.52-0.685c-1.377-0.382-2.44-1.444-2.815-2.793l-0.007-0.028c-0.659-2.477-0.659-7.697-0.659-7.697s0-5.192 0.659-7.695c0.389-1.38 1.447-2.447 2.792-2.841l0.029-0.007c2.504-0.659 12.52-0.659 12.52-0.659s10.017 0 12.521 0.685zM21.14 16.003l-8.329 4.797v-9.595l8.329 4.797z"></path>
        </symbol>
        <symbol id="icon-person" viewBox="0 0 32 32">
            <path fill="#424551" style="fill: var(--color1, #424551)" d="M16 3.038c-0.029-0.001-0.062-0.001-0.096-0.001-2.864 0-5.186 2.322-5.186 5.186s2.322 5.186 5.186 5.186c0.034 0 0.067-0 0.101-0.001l-0.005 0c2.822-0.054 5.090-2.355 5.090-5.185s-2.267-5.131-5.085-5.185l-0.005-0zM7.852 8.222c0-4.5 3.648-8.148 8.148-8.148s8.148 3.648 8.148 8.148v0c0 4.5-3.648 8.148-8.148 8.148s-8.148-3.648-8.148-8.148v0zM7.266 20.816c-1.028 0-1.831 0.5-2.156 1.218-0.45 0.996-0.859 2.18-0.955 3.301-0.044 0.503 0.165 0.871 0.453 1.052 1.525 0.946 5.058 2.576 11.392 2.576s9.867-1.63 11.392-2.578c0.288-0.178 0.498-0.548 0.455-1.049-0.096-1.124-0.505-2.308-0.956-3.303-0.325-0.718-1.129-1.218-2.155-1.218h-17.47zM2.412 20.811c0.9-1.986 2.91-2.958 4.853-2.958h17.47c1.941 0 3.952 0.972 4.853 2.958 0.517 1.14 1.072 2.674 1.209 4.272 0.124 1.454-0.48 2.974-1.842 3.822-2.005 1.244-6.082 3.022-12.956 3.022-6.873 0-10.951-1.778-12.955-3.022-1.364-0.848-1.968-2.368-1.844-3.822 0.137-1.6 0.693-3.132 1.209-4.272z"></path>
        </symbol>
        <symbol id="icon-check" viewBox="0 0 32 32">
            <path fill="#ff3f3a" style="fill: var(--color1, #ff3f3a)" d="M16 30.667c8.086 0 14.667-6.579 14.667-14.666 0-1.397-0.195-2.773-0.581-4.090-0.153-0.512-0.621-0.88-1.174-0.88-0.675 0-1.223 0.547-1.223 1.223 0 0.122 0.018 0.24 0.051 0.352l-0.002-0.009c0.32 1.094 0.483 2.24 0.483 3.403 0 6.739-5.483 12.222-12.224 12.222-6.738 0-12.221-5.483-12.221-12.224 0-6.738 5.483-12.221 12.222-12.221 2.448 0 4.805 0.715 6.814 2.070 0.19 0.127 0.423 0.203 0.674 0.203 0.675 0 1.222-0.547 1.222-1.222 0-0.416-0.208-0.784-0.526-1.005l-0.004-0.003c-2.285-1.558-5.106-2.488-8.145-2.488-0.013 0-0.025 0-0.038 0h0.002c-8.086 0-14.667 6.579-14.667 14.667 0 8.086 6.581 14.666 14.667 14.666z"></path>
            <path fill="#ff3f3a" style="fill: var(--color1, #ff3f3a)" d="M29.723 3.058l-13.723 13.723-4.39-4.389c-0.241-0.242-0.575-0.391-0.943-0.391-0.736 0-1.333 0.597-1.333 1.333 0 0.368 0.149 0.701 0.39 0.942v0l5.334 5.333c0.241 0.242 0.574 0.392 0.942 0.392s0.702-0.15 0.942-0.392l14.667-14.666c0.241-0.241 0.391-0.575 0.391-0.943 0-0.737-0.597-1.334-1.334-1.334-0.368 0-0.702 0.149-0.943 0.391v0z"></path>
        </symbol>
        <symbol id="icon-heart" viewBox="0 0 32 32">
            <path fill="#ff3f3a" style="fill: var(--color1, #ff3f3a)" d="M16 26.542c-6.134-3.492-9.554-6.962-11.206-9.974-1.694-3.084-1.546-5.68-0.606-7.522 1.93-3.788 7.42-5 10.766-0.768l1.044 1.322 1.046-1.322c3.346-4.232 8.836-3.020 10.768 0.768 0.94 1.842 1.086 4.44-0.606 7.52-1.654 3.014-5.074 6.484-11.206 9.978zM16 5.474c-4.706-4.47-11.648-2.622-14.188 2.36-1.394 2.736-1.414 6.27 0.644 10.016 2.040 3.714 6.104 7.634 12.898 11.388l0.644 0.358 0.646-0.358c6.794-3.754 10.86-7.674 12.9-11.388 2.056-3.746 2.038-7.28 0.644-10.016-2.54-4.982-9.484-6.83-14.188-2.36z"></path>
        </symbol>
    </defs>
</svg>