<svg aria-hidden="true" style="position: absolute; width: 0; height: 0; overflow: hidden;" version="1.1"
    xmlns="http://www.w3.org/2000/svg" xmlns:xlink="http://www.w3.org/1999/xlink">
    <defs>
        <symbol id="icon-logo" viewBox="0 0 189 32">
            <path
                d="M0 16.145c0-8.873 4.8-14.255 12.655-14.255 5.964 0 10.764 3.636 11.636 9.018 0.145 0.582-0.291 1.018-0.873 1.018h-3.782c-0.436 0-0.727-0.291-0.873-0.727-0.727-2.764-3.055-4.509-6.109-4.509-4.218 0-6.836 3.636-6.836 9.455s2.618 9.455 6.982 9.455c3.055 0 5.236-1.6 6.109-4.218 0.145-0.436 0.436-0.727 0.873-0.727h3.782c0.582 0 1.018 0.582 0.873 1.018-0.873 5.236-5.527 8.727-11.636 8.727-8 0-12.8-5.527-12.8-14.255zM35.345 29.673h-4.218c-0.436 0-0.727-0.291-0.727-0.727v-25.164c0-0.582 0.582-1.164 1.164-1.164h10.182c5.964 0 9.6 3.345 9.6 8.582 0 3.055-1.455 5.818-3.927 7.273-0.582 0.291-0.727 1.018-0.436 1.455l4.509 8.582c0.291 0.436-0.145 1.018-0.582 1.018h-4.8c-0.291 0-0.582-0.145-0.727-0.436l-4.218-8.727c-0.145-0.436-0.582-0.582-1.018-0.582h-3.345c-0.436 0-0.727 0.291-0.727 0.727v8.582c0.145 0.291-0.291 0.582-0.727 0.582zM36.218 14.836c0 0.436 0.291 0.727 0.727 0.727h4.364c2.909 0 4.509-1.6 4.509-4.218s-1.745-4.218-4.509-4.218h-4.218c-0.436 0-0.727 0.291-0.727 0.727v6.982h-0.145zM74.909 29.673h-16c-0.582 0-1.018-0.436-1.018-1.018v-25.018c0-0.582 0.436-1.018 1.018-1.018h16c0.582 0 1.018 0.436 1.018 1.018v2.764c0 0.582-0.436 1.018-1.018 1.018h-10.618c-0.436 0-0.727 0.291-0.727 0.727v4.945c0 0.436 0.291 0.727 0.727 0.727h9.891c0.582 0 1.018 0.436 1.018 1.018v2.473c0 0.582-0.436 1.018-1.018 1.018h-9.891c-0.436 0-0.727 0.291-0.727 0.727v5.527c0 0.436 0.291 0.727 0.727 0.727h10.618c0.582 0 1.018 0.436 1.018 1.018v2.764c0 0.145-0.436 0.582-1.018 0.582zM97.455 23.127h-8.291c-0.436 0-0.727 0.291-0.873 0.582l-1.6 5.382c-0.145 0.436-0.436 0.582-0.873 0.582h-3.782c-0.582 0-1.018-0.582-0.873-1.164l8.727-25.309c0.145-0.291 0.436-0.582 0.873-0.582h5.382c0.436 0 0.727 0.291 0.873 0.582l8.727 25.309c0.145 0.582-0.291 1.164-0.873 1.164h-4.218c-0.436 0-0.727-0.291-0.873-0.582l-1.6-5.382c0-0.291-0.436-0.582-0.727-0.582zM90.327 18.909h5.964c0.291 0 0.436-0.291 0.436-0.582l-3.2-10.182h-0.291l-3.2 10.182c-0.145 0.291 0 0.582 0.291 0.582zM114.909 28.655v-20.655c0-0.436-0.291-0.727-0.727-0.727h-6.4c-0.582 0-1.164-0.436-1.164-1.164v-2.473c0-0.582 0.436-1.164 1.164-1.164h19.782c0.582 0 1.164 0.436 1.164 1.164v2.473c0 0.582-0.436 1.164-1.164 1.164h-6.4c-0.436 0-0.727 0.291-0.727 0.727v20.8c0 0.582-0.436 1.018-1.018 1.018h-3.636c-0.436-0.145-0.873-0.582-0.873-1.164zM150.982 29.673h-16c-0.582 0-1.018-0.436-1.018-1.018v-25.018c0-0.582 0.436-1.018 1.018-1.018h16c0.582 0 1.018 0.436 1.018 1.018v2.764c0 0.582-0.436 1.018-1.018 1.018h-10.618c-0.436 0-0.727 0.291-0.727 0.727v4.945c0 0.436 0.291 0.727 0.727 0.727h9.891c0.582 0 1.018 0.436 1.018 1.018v2.473c0 0.582-0.436 1.018-1.018 1.018h-9.891c-0.436 0-0.727 0.291-0.727 0.727v5.527c0 0.436 0.291 0.727 0.727 0.727h10.618c0.582 0 1.018 0.436 1.018 1.018v2.764c0 0.145-0.436 0.582-1.018 0.582z">
            </path>
            <path fill="#ff3f3a" style="fill: var(--color2, #ff3f3a)"
                d="M171.2 14.109l-9.018-11.782c-0.582-0.582-1.309-0.873-2.036-0.873s-1.455 0.291-2.036 0.873c-1.018 1.164-1.018 2.909 0 4.073l7.127 9.6-7.127 9.6c-1.018 1.164-1.018 2.909 0 4.073 0.582 0.582 1.309 0.873 2.036 0.873s1.455-0.291 2.036-0.873l9.018-11.782c1.018-0.873 1.018-2.618 0-3.782zM175.044 14.109l9.018-11.782c0.582-0.582 1.309-0.873 2.036-0.873s1.455 0.291 2.036 0.873c1.018 1.164 1.018 2.909 0 4.073l-7.127 9.6 7.127 9.6c1.018 1.164 1.018 2.909 0 4.073-0.582 0.582-1.309 0.873-2.036 0.873s-1.455-0.291-2.036-0.873l-9.018-11.782c-1.018-0.873-1.018-2.618 0-3.782z">
            </path>
        </symbol>
        <symbol id="icon-person" viewBox="0 0 32 32">
            <path fill="#424551" style="fill: var(--color3, #424551)"
                d="M16 3.038c-0.029-0.001-0.062-0.001-0.096-0.001-2.864 0-5.186 2.322-5.186 5.186s2.322 5.186 5.186 5.186c0.034 0 0.067-0 0.101-0.001l-0.005 0c2.822-0.054 5.090-2.355 5.090-5.185s-2.267-5.131-5.085-5.185l-0.005-0zM7.852 8.222c0-4.5 3.648-8.148 8.148-8.148s8.148 3.648 8.148 8.148v0c0 4.5-3.648 8.148-8.148 8.148s-8.148-3.648-8.148-8.148v0zM7.266 20.816c-1.028 0-1.831 0.5-2.156 1.218-0.45 0.996-0.859 2.18-0.955 3.301-0.044 0.503 0.165 0.871 0.453 1.052 1.525 0.946 5.058 2.576 11.392 2.576s9.867-1.63 11.392-2.578c0.288-0.178 0.498-0.548 0.455-1.049-0.096-1.124-0.505-2.308-0.956-3.303-0.325-0.718-1.129-1.218-2.155-1.218h-17.47zM2.412 20.811c0.9-1.986 2.91-2.958 4.853-2.958h17.47c1.941 0 3.952 0.972 4.853 2.958 0.517 1.14 1.072 2.674 1.209 4.272 0.124 1.454-0.48 2.974-1.842 3.822-2.005 1.244-6.082 3.022-12.956 3.022-6.873 0-10.951-1.778-12.955-3.022-1.364-0.848-1.968-2.368-1.844-3.822 0.137-1.6 0.693-3.132 1.209-4.272z">
            </path>
        </symbol>
        <symbol id="icon-instagram" viewBox="0 0 32 32">
            <path
                d="M30.786 9.895c-0.071-1.573-0.324-2.656-0.688-3.595-0.393-1.029-0.976-1.906-1.712-2.626l-0.001-0.001c-0.722-0.733-1.596-1.313-2.572-1.69l-0.050-0.017c-0.944-0.366-2.020-0.62-3.595-0.69-1.586-0.075-2.089-0.092-6.112-0.092s-4.526 0.018-6.107 0.087c-1.575 0.069-2.66 0.324-3.595 0.688-1.029 0.393-1.906 0.976-2.626 1.712l-0.001 0.001c-0.733 0.722-1.313 1.596-1.69 2.572l-0.017 0.050c-0.366 0.94-0.622 2.020-0.692 3.595-0.073 1.586-0.091 2.089-0.091 6.11s0.018 4.526 0.087 6.107c0.069 1.575 0.324 2.656 0.688 3.595 0.377 0.996 0.96 1.886 1.714 2.628 0.741 0.752 1.637 1.337 2.622 1.707 0.942 0.366 2.020 0.62 3.595 0.69 1.579 0.069 2.084 0.087 6.107 0.087 4.021 0 4.526-0.018 6.105-0.089 1.575-0.068 2.658-0.322 3.595-0.688 1.997-0.787 3.549-2.337 4.318-4.283l0.018-0.051c0.364-0.942 0.619-2.020 0.688-3.595 0.071-1.58 0.089-2.084 0.089-6.107s-0.007-4.526-0.076-6.107zM28.117 21.993c-0.064 1.447-0.308 2.228-0.51 2.748-0.51 1.296-1.517 2.303-2.779 2.803l-0.033 0.012c-0.521 0.203-1.308 0.444-2.748 0.508-1.564 0.071-2.032 0.087-5.986 0.087s-4.427-0.018-5.986-0.087c-1.447-0.064-2.228-0.306-2.748-0.508-0.667-0.249-1.236-0.626-1.7-1.105l-0.001-0.001c-0.478-0.466-0.855-1.035-1.095-1.67l-0.011-0.032c-0.203-0.521-0.444-1.308-0.51-2.75-0.069-1.563-0.085-2.032-0.085-5.986 0-3.952 0.018-4.427 0.085-5.984 0.064-1.447 0.308-2.229 0.51-2.75 0.236-0.642 0.613-1.227 1.111-1.701 0.48-0.492 1.060-0.868 1.701-1.106 0.521-0.203 1.308-0.444 2.75-0.508 1.563-0.071 2.032-0.087 5.984-0.087 3.959 0 4.428 0.018 5.986 0.087 1.447 0.064 2.228 0.306 2.748 0.508 0.644 0.238 1.227 0.613 1.703 1.106 0.491 0.48 0.868 1.060 1.106 1.701 0.201 0.521 0.444 1.308 0.508 2.75 0.069 1.564 0.087 2.032 0.087 5.984 0 3.954-0.018 4.418-0.087 5.98z">
            </path>
            <path
                d="M16.053 8.391c-4.104 0.129-7.382 3.487-7.382 7.611s3.278 7.481 7.37 7.61l0.012 0c4.133-0.092 7.448-3.464 7.448-7.611s-3.315-7.518-7.439-7.611l-0.009-0zM16.053 20.939c-0.027 0.001-0.060 0.001-0.092 0.001-2.728 0-4.939-2.211-4.939-4.939s2.211-4.939 4.939-4.939c0.034 0 0.067 0 0.1 0.001l-0.005-0c2.687 0.053 4.844 2.243 4.844 4.938s-2.159 4.886-4.841 4.938l-0.005 0zM25.744 8.089c0 0.982-0.796 1.778-1.778 1.778s-1.778-0.796-1.778-1.778v0c0-0.982 0.796-1.778 1.778-1.778s1.778 0.796 1.778 1.778v0z">
            </path>
        </symbol>
        <symbol id="icon-facebook" viewBox="0 0 16 32">
            <path
                d="M15.418 1.341l-3.706-0.006c-4.16 0-6.848 2.832-6.848 7.219v3.328h-3.722c-0.323 0.004-0.582 0.267-0.582 0.59 0 0.003 0 0.006 0 0.008v-0 4.822c0 0.331 0.261 0.598 0.582 0.598h3.723v12.17c0 0.33 0.261 0.597 0.582 0.597h4.856c0.323-0.005 0.582-0.267 0.582-0.59 0-0.002 0-0.005-0-0.007v0-12.17h4.352c0.323-0.004 0.584-0.267 0.584-0.59 0-0.003-0-0.006-0-0.008v0-4.822c0-0 0-0.001 0-0.001 0-0.164-0.065-0.312-0.17-0.421l0 0c-0.104-0.108-0.25-0.175-0.411-0.176h-4.354v-2.821c0-1.357 0.315-2.045 2.034-2.045h2.496c0.32 0 0.581-0.269 0.581-0.6v-4.477c0-0.002 0-0.004 0-0.006 0-0.323-0.259-0.586-0.58-0.592h-0.001z">
            </path>
        </symbol>
        <symbol id="icon-twitter" viewBox="0 0 32 32">
            <path
                d="M30 7.696c-0.961 0.42-2.076 0.725-3.243 0.861l-0.055 0.005c1.176-0.675 2.068-1.733 2.513-3.001l0.012-0.039c-1.053 0.606-2.276 1.069-3.574 1.321l-0.075 0.012c-1.061-1.072-2.532-1.736-4.159-1.736-0.012 0-0.024 0-0.036 0h0.002c-3.172 0-5.744 2.463-5.744 5.499 0 0.431 0.051 0.851 0.149 1.253-4.773-0.231-9.005-2.42-11.839-5.747-0.488 0.785-0.777 1.738-0.777 2.758 0 0.002 0 0.004 0 0.006v-0c0 1.908 1.016 3.592 2.555 4.577-0.956-0.031-1.847-0.283-2.632-0.706l0.032 0.016v0.069c0 2.663 1.98 4.887 4.605 5.392-0.48 0.124-0.988 0.193-1.513 0.193-0.382-0-0.755-0.037-1.116-0.109l0.036 0.006c0.731 2.187 2.851 3.776 5.364 3.82-1.951 1.468-4.415 2.351-7.085 2.351-0.017 0-0.034-0-0.051-0h0.003c-0.464 0-0.92-0.027-1.371-0.076 2.494 1.554 5.523 2.475 8.766 2.475 0.013 0 0.027-0 0.040-0h-0.002c10.567 0 16.343-8.38 16.343-15.648l-0.020-0.712c1.131-0.778 2.084-1.72 2.85-2.805l0.024-0.035z">
            </path>
        </symbol>
        <symbol id="icon-youtube" viewBox="0 0 32 32">
            <path
                d="M28.52 5.485c1.377 0.382 2.439 1.444 2.815 2.792l0.007 0.028c0.685 2.504 0.659 7.723 0.659 7.723s0 5.193-0.659 7.697c-0.382 1.376-1.445 2.438-2.793 2.813l-0.028 0.007c-2.504 0.66-12.52 0.66-12.52 0.66s-9.991 0-12.52-0.685c-1.377-0.382-2.44-1.444-2.815-2.793l-0.007-0.028c-0.659-2.477-0.659-7.697-0.659-7.697s0-5.192 0.659-7.695c0.389-1.38 1.447-2.447 2.792-2.841l0.029-0.007c2.504-0.659 12.52-0.659 12.52-0.659s10.017 0 12.521 0.685zM21.14 16.003l-8.329 4.797v-9.595l8.329 4.797z">
            </path>
        </symbol>
        <symbol id="icon-telegram" viewBox="0 0 32 32">
            <path
                d="M12.844 20.241l-0.485 7.445c0.693 0 0.995-0.325 1.355-0.716l3.255-3.393 6.745 5.388c1.236 0.752 2.108 0.356 2.441-1.24l4.427-22.631h0.001c0.393-1.996-0.66-2.776-1.867-2.287l-26.020 10.868c-1.776 0.752-1.748 1.832-0.301 2.321l6.653 2.257 15.453-10.547c0.727-0.527 1.387-0.236 0.844 0.289l-12.5 12.244z">
            </path>
        </symbol>
        <symbol id="icon-linked-in" viewBox="0 0 32 32">
            <path
                d="M29.327 29.333h0.007v-9.781c0-4.784-1.031-8.469-6.624-8.469-2.688 0-4.493 1.475-5.229 2.873h-0.077v-2.427h-5.304v17.803h5.523v-8.815c0-2.321 0.44-4.567 3.315-4.567 2.832 0 2.875 2.649 2.875 4.715v8.668h5.516zM3.107 11.531h5.529v17.803h-5.529v-17.803zM5.869 2.667c-1.769 0-3.203 1.434-3.203 3.203v0c0 1.767 1.435 3.232 3.203 3.232 1.767 0 3.201-1.464 3.201-3.232s-1.433-3.201-3.201-3.203h-0z">
            </path>
        </symbol>
        <symbol id="icon-heart" viewBox="0 0 32 32">
            <path fill="#ff3f3a" style="fill: var(--color2, #ff3f3a)"
                d="M16 26.542c-6.132-3.492-9.552-6.962-11.206-9.974-1.694-3.084-1.546-5.68-0.606-7.522 1.93-3.788 7.42-5 10.766-0.768l1.046 1.322 1.046-1.322c3.344-4.232 8.836-3.020 10.766 0.768 0.94 1.842 1.086 4.44-0.606 7.52-1.654 3.014-5.074 6.484-11.206 9.978zM16 5.474c-4.706-4.47-11.648-2.622-14.188 2.36-1.394 2.736-1.414 6.27 0.644 10.016 2.040 3.714 6.104 7.634 12.9 11.388l0.644 0.358 0.644-0.358c6.796-3.754 10.86-7.674 12.9-11.388 2.056-3.746 2.038-7.28 0.644-10.016-2.54-4.982-9.482-6.83-14.188-2.36z">
            </path>
        </symbol>
        <symbol id="icon-mail" viewBox="0 0 32 32">
            <path
                d="M30.334 24v-14.67c0-2.209-1.791-4-4-4v0h-20.668c-2.209 0-4 1.791-4 4v0 14.666c0 2.209 1.791 4 4 4v0h20.668c2.209 0 4-1.791 4-4v0zM27.668 12.344v11.656c0 0.737-0.597 1.334-1.334 1.334h-20.668c-0.736-0.001-1.332-0.598-1.332-1.334 0 0 0 0 0 0v0-11.656l9.418 6.404c0.63 0.433 1.409 0.692 2.249 0.692s1.619-0.259 2.263-0.701l-0.014 0.009 9.418-6.404zM27.652 9.13l-10.895 7.411c-0.215 0.147-0.474 0.234-0.755 0.234s-0.54-0.086-0.75-0.231l-10.901-7.422c0.101-0.637 0.652-1.124 1.317-1.124h20.664c0 0 0.001 0 0.001 0 0.665 0 1.217 0.487 1.319 1.132z">
            </path>
        </symbol>
        <symbol id="icon-phone" viewBox="0 0 32 32">
            <path
                d="M11.334 3.898c-1.105 0-2 0.895-2 2v0 20.208c0 1.105 0.895 2 2 2v0h9.334c1.105 0 2-0.895 2-2v0-20.208c0-1.105-0.895-2-2-2v0h-0.112l-0.324 0.78c-0.207 0.486-0.68 0.82-1.231 0.82-0 0-0.001 0-0.001 0h-6c-0.551-0-1.024-0.335-1.227-0.811l-0.003-0.009-0.326-0.78h-0.11zM6.668 5.898c0-0.001 0-0.001 0-0.002 0-2.577 2.089-4.666 4.666-4.666h9.334c2.577 0 4.666 2.089 4.666 4.666 0 0.001 0 0.001 0 0.002v-0 20.208c0 2.577-2.089 4.666-4.666 4.666v0h-9.334c-2.577 0-4.666-2.089-4.666-4.666v-20.208z">
            </path>
        </symbol>
    </defs>
</svg>