<svg width="16" height="16" viewBox="0 0 16 16" fill="none" xmlns="http://www.w3.org/2000/svg">
<path fill-rule="evenodd" clip-rule="evenodd" d="M4.13333 4.26706C4.13333 2.13156 5.8645 0.400391 8 0.400391C10.1355 0.400391 11.8667 2.13156 11.8667 4.26706V7.46706C11.8667 9.60256 10.1355 11.3337 8 11.3337C5.8645 11.3337 4.13333 9.60256 4.13333 7.46706V4.26706ZM8 1.73372C6.60088 1.73372 5.46667 2.86794 5.46667 4.26706V7.46706C5.46667 8.86618 6.60088 10.0004 8 10.0004C9.39912 10.0004 10.5333 8.86618 10.5333 7.46706V4.26706C10.5333 2.86794 9.39912 1.73372 8 1.73372Z" fill="#9A9CA5"/>
<path fill-rule="evenodd" clip-rule="evenodd" d="M2.66667 5.73372C3.03486 5.73372 3.33333 6.0322 3.33333 6.40039V7.46706C3.33333 10.0444 5.42267 12.1337 8 12.1337C10.5773 12.1337 12.6667 10.0444 12.6667 7.46706V6.40039C12.6667 6.0322 12.9651 5.73372 13.3333 5.73372C13.7015 5.73372 14 6.0322 14 6.40039V7.46706C14 10.7808 11.3137 13.4671 8 13.4671C4.68629 13.4671 2 10.7808 2 7.46706V6.40039C2 6.0322 2.29848 5.73372 2.66667 5.73372Z" fill="#9A9CA5"/>
<path fill-rule="evenodd" clip-rule="evenodd" d="M8 12.6671C8.36819 12.6671 8.66667 12.9655 8.66667 13.3337V14.2671H10.1333C10.5015 14.2671 10.8 14.5655 10.8 14.9337C10.8 15.3019 10.5015 15.6004 10.1333 15.6004H5.86667C5.49848 15.6004 5.2 15.3019 5.2 14.9337C5.2 14.5655 5.49848 14.2671 5.86667 14.2671H7.33333V13.3337C7.33333 12.9655 7.63181 12.6671 8 12.6671Z" fill="#9A9CA5"/>
</svg>
