<svg width="18" height="18" fill="none" xmlns="http://www.w3.org/2000/svg">
    <path fill-rule="evenodd" clip-rule="evenodd"
        d="M9 1.709a2.917 2.917 0 1 0 0 5.833 2.917 2.917 0 0 0 0-5.833ZM4.417 4.625a4.583 4.583 0 1 1 9.167 0 4.583 4.583 0 0 1-9.167 0ZM4.087 11.709c-.578 0-1.03.281-1.213.685-.253.56-.483 1.226-.537 1.857-.025.283.093.49.255.592.858.532 2.845 1.449 6.408 1.449s5.55-.917 6.408-1.45c.162-.1.28-.308.256-.59-.054-.632-.284-1.298-.538-1.858-.183-.404-.635-.685-1.212-.685H4.087Zm-2.73-.003c.506-1.117 1.637-1.664 2.73-1.664h9.827c1.092 0 2.223.547 2.73 1.664.291.641.603 1.504.68 2.403.07.818-.27 1.673-1.036 2.15-1.128.7-3.421 1.7-7.288 1.7-3.866 0-6.16-1-7.287-1.7-.767-.477-1.107-1.332-1.037-2.15.077-.9.39-1.762.68-2.403Z"
        fill="#424551" />
</svg>