<svg width="16" height="16" viewBox="0 0 16 16" fill="none" xmlns="http://www.w3.org/2000/svg">
<path fill-rule="evenodd" clip-rule="evenodd" d="M10.7117 6.941C11.4099 7.47465 11.4099 8.52605 10.7117 9.0597L7.65841 11.3933C6.78101 12.0639 5.51541 11.4383 5.51541 10.334V5.66673C5.51541 4.56241 6.78101 3.93678 7.65841 4.60738L10.7117 6.941ZM9.90204 8.00035L6.84875 5.66673L6.84875 10.334L9.90204 8.00035Z" fill="#9A9CA5"/>
<path fill-rule="evenodd" clip-rule="evenodd" d="M7.99984 2.00033C4.68613 2.00033 1.99984 4.68662 1.99984 8.00033C1.99984 11.314 4.68613 14.0003 7.99984 14.0003C11.3135 14.0003 13.9998 11.314 13.9998 8.00033C13.9998 4.68662 11.3135 2.00033 7.99984 2.00033ZM0.666504 8.00033C0.666504 3.95024 3.94975 0.666992 7.99984 0.666992C12.0499 0.666992 15.3332 3.95024 15.3332 8.00033C15.3332 12.0504 12.0499 15.3337 7.99984 15.3337C3.94975 15.3337 0.666504 12.0504 0.666504 8.00033Z" fill="#9A9CA5"/>
</svg>
