<svg aria-hidden="true" style="position: absolute; width: 0; height: 0; overflow: hidden;" version="1.1" xmlns="http://www.w3.org/2000/svg" xmlns:xlink="http://www.w3.org/1999/xlink">
<defs>
<symbol id="icon-article" viewBox="0 0 24 32">
<path fill="#424551" style="fill: var(--color1, #424551)" d="M6.666 17.999c0-0.736 0.597-1.333 1.333-1.333h8c0.736 0 1.333 0.597 1.333 1.333s-0.597 1.333-1.333 1.333h-8c-0.736 0-1.333-0.597-1.333-1.333z"></path>
<path fill="#424551" style="fill: var(--color1, #424551)" d="M6.666 22.999c0-0.736 0.597-1.333 1.333-1.333h4c0.736 0 1.333 0.597 1.333 1.333s-0.597 1.333-1.333 1.333h-4c-0.736 0-1.333-0.597-1.333-1.333z"></path>
<path fill="#424551" style="fill: var(--color1, #424551)" d="M8.057 2.057c0.25-0.25 0.589-0.391 0.943-0.391h9c2.946 0 5.333 2.388 5.333 5.333v18c0 2.945-2.388 5.333-5.333 5.333h-12c-2.946 0-5.333-2.388-5.333-5.333l0-15c0-0.354 0.14-0.693 0.391-0.943l7-7zM8.666 5.218v4.448h-4.448l4.448-4.448zM3.333 12.333l-0 12.667c0 1.473 1.194 2.667 2.667 2.667h12c1.473 0 2.667-1.194 2.667-2.667v-18c0-1.473-1.194-2.667-2.667-2.667h-6.667v6.667c0 0.736-0.597 1.333-1.333 1.333h-6.667z"></path>
</symbol>
<symbol id="icon-calendar" viewBox="0 0 32 32">
<path fill="#787a80" style="fill: var(--color2, #787a80)" d="M9.999 1.666c0.736 0 1.333 0.597 1.333 1.333v0.667l9.333 0v-0.667c0-0.736 0.597-1.333 1.333-1.333s1.333 0.597 1.333 1.333v0.667h1.667c2.945 0 5.333 2.388 5.333 5.333v16c0 2.945-2.388 5.333-5.333 5.333h-18c-2.946 0-5.333-2.388-5.333-5.333v-16c0-2.946 2.388-5.333 5.333-5.333h1.667v-0.667c0-0.736 0.597-1.333 1.333-1.333zM8.666 6.333l-1.667-0c-1.473 0-2.667 1.194-2.667 2.667v1.667h23.333v-1.667c0-1.473-1.194-2.667-2.667-2.667h-1.667v0.667c0 0.736-0.597 1.333-1.333 1.333s-1.333-0.597-1.333-1.333v-0.667l-9.333-0v0.667c0 0.736-0.597 1.333-1.333 1.333s-1.333-0.597-1.333-1.333v-0.667zM27.666 13.333h-23.333v11.667c0 1.473 1.194 2.667 2.667 2.667h18c1.473 0 2.667-1.194 2.667-2.667v-11.667z"></path>
</symbol>
<symbol id="icon-clock" viewBox="0 0 32 32">
<path fill="#787a80" style="fill: var(--color2, #787a80)" d="M17.334 8.667c0-0.736-0.597-1.333-1.333-1.333s-1.333 0.597-1.333 1.333v7.333c0 0.354 0.14 0.693 0.391 0.943l4 4c0.521 0.521 1.365 0.521 1.886 0s0.521-1.365 0-1.886l-3.609-3.609v-6.781z"></path>
<path fill="#787a80" style="fill: var(--color2, #787a80)" d="M16.001 1.334c-8.1 0-14.667 6.566-14.667 14.667s6.566 14.667 14.667 14.667c8.1 0 14.667-6.567 14.667-14.667s-6.567-14.667-14.667-14.667zM4.001 16.001c0-6.627 5.373-12 12-12s12 5.373 12 12c0 6.627-5.373 12-12 12s-12-5.373-12-12z"></path>
</symbol>
<symbol id="icon-fb" viewBox="0 0 16 32">
<path fill="#787a80" style="fill: var(--color2, #787a80)" d="M15.417 1.339l-3.703-0.006c-4.16 0-6.849 2.833-6.849 7.219v3.328h-3.723c-0.322 0-0.582 0.268-0.582 0.598v4.822c0 0.331 0.261 0.598 0.582 0.598h3.723v12.169c0 0.331 0.261 0.598 0.582 0.598h4.858c0.322 0 0.582-0.268 0.582-0.598v-12.169h4.353c0.322 0 0.582-0.268 0.582-0.598l0.002-4.822c0-0.159-0.062-0.311-0.171-0.423s-0.258-0.175-0.412-0.175h-4.355v-2.822c0-1.356 0.315-2.045 2.034-2.045l2.495-0.001c0.321 0 0.582-0.268 0.582-0.598v-4.478c0-0.33-0.26-0.598-0.581-0.598z"></path>
</symbol>
<symbol id="icon-illustration" viewBox="0 0 36 32">
<path fill="#d0f0e4" style="fill: var(--color3, #d0f0e4)" d="M28.646 31.966h-28.646l11.706-27.727h5.234l11.706 27.727z"></path>
<path fill="#ffcf2d" style="fill: var(--color4, #ffcf2d)" d="M14.323 1.611l0.52 0.519-0.048 0.048-0.473-0.471-0.472 0.471-0.048-0.048 0.52-0.519z"></path>
<path fill="#ffcf2d" style="fill: var(--color4, #ffcf2d)" d="M14.357 0v1.658h-0.068v-1.658h0.068z"></path>
<path fill="#ffcf2d" style="fill: var(--color4, #ffcf2d)" d="M14.323 5.104c0.441 0 0.799-0.357 0.799-0.797s-0.358-0.797-0.799-0.797c-0.441 0-0.799 0.357-0.799 0.797s0.358 0.797 0.799 0.797z"></path>
<path fill="#fff" style="fill: var(--color5, #fff)" d="M14.323 3.544c-0.423 0-0.765 0.342-0.765 0.763s0.343 0.763 0.765 0.763c0.423 0 0.765-0.342 0.765-0.763s-0.343-0.764-0.765-0.764zM13.49 4.307c0-0.459 0.373-0.831 0.833-0.831s0.833 0.372 0.833 0.831-0.373 0.831-0.833 0.831c-0.46 0-0.833-0.372-0.833-0.831z"></path>
<path fill="#9a3b82" style="fill: var(--color6, #9a3b82)" d="M14.324 2.15c-1.235 0-2.289 0.751-2.514 1.779l-0.061 0.277h5.149l-0.061-0.278c0 0 0 0 0 0-0.113-0.514-0.431-0.959-0.878-1.274v-0c-0.445-0.316-1.018-0.504-1.635-0.504zM11.744 3.915c0.234-1.065 1.321-1.832 2.58-1.832 0.63 0 1.217 0.192 1.674 0.516 0.458 0.324 0.788 0.782 0.905 1.315v0l0.079 0.36h-5.317l0.079-0.359c0 0 0 0 0 0z"></path>
<path fill="#66b0f0" style="fill: var(--color7, #66b0f0)" d="M23.843 22.121h-0.531v3.346h0.531v-3.346z"></path>
<path fill="#9a3b82" style="fill: var(--color6, #9a3b82)" d="M33.49 25.467h-3.024c-0.109 0-0.194-0.094-0.18-0.202l0.421-3.545c0.011-0.091 0.089-0.159 0.18-0.159h3.024c0.109 0 0.194 0.094 0.18 0.202l-0.421 3.545c-0.011 0.091-0.089 0.159-0.18 0.159z"></path>
<path fill="#fff" style="fill: var(--color5, #fff)" d="M31.842 25.467h-2.389c-0.146 0-0.26-0.128-0.243-0.273l0.306-2.581c0.015-0.122 0.119-0.216 0.243-0.216h2.446l-0.364 3.070z"></path>
<path fill="#ffcf2d" style="fill: var(--color4, #ffcf2d)" d="M29.55 22.617c0 0 0 0 0 0l-0.306 2.581c0 0 0 0 0 0-0.015 0.125 0.084 0.235 0.21 0.235h2.358l0.356-3.002h-2.408c-0.107 0-0.197 0.080-0.21 0.186zM29.483 22.609c0.017-0.139 0.136-0.245 0.277-0.245h2.484l-0.372 3.137h-2.419c-0.167 0-0.296-0.146-0.277-0.31v-0l0.306-2.581z"></path>
<path fill="#fff" style="fill: var(--color5, #fff)" d="M32.11 25.467h-2.279c-0.146 0-0.26-0.128-0.243-0.273l0.306-2.581c0.015-0.122 0.119-0.216 0.243-0.216h2.309c0.073 0 0.131 0.064 0.122 0.137l-0.335 2.824c-0.007 0.063-0.060 0.109-0.122 0.109z"></path>
<path fill="#ffcf2d" style="fill: var(--color4, #ffcf2d)" d="M29.927 22.617c0 0 0 0 0 0l-0.306 2.581c0 0 0 0 0 0-0.015 0.125 0.084 0.235 0.21 0.235h2.279c0.045 0 0.083-0.033 0.088-0.079v-0l0.336-2.824c0.007-0.053-0.035-0.099-0.088-0.099h-2.309c-0.107 0-0.197 0.080-0.21 0.186zM29.86 22.609c0.017-0.139 0.136-0.245 0.277-0.245h2.309c0.093 0 0.167 0.082 0.155 0.175 0 0 0 0 0 0l-0.335 2.823c0 0 0 0-0 0-0.009 0.080-0.076 0.139-0.155 0.139h-2.279c-0.167 0-0.296-0.146-0.277-0.31v-0l0.306-2.581z"></path>
<path fill="#9a3b82" style="fill: var(--color6, #9a3b82)" d="M23.843 22.591h0.989v2.91h-0.989v-2.91zM23.91 22.658v2.776h0.854v-2.776h-0.854z"></path>
<path fill="#9a3b82" style="fill: var(--color6, #9a3b82)" d="M24.444 22.591h1.365v2.91h-1.365v-2.91zM24.511 22.658v2.776h1.23v-2.776h-1.23z"></path>
<path fill="#9a3b82" style="fill: var(--color6, #9a3b82)" d="M25.602 22.279h0.432l1.365 3.223h-0.432l-1.365-3.223zM25.704 22.346l1.308 3.088h0.286l-1.308-3.088h-0.286z"></path>
<path fill="#9a3b82" style="fill: var(--color6, #9a3b82)" d="M26.162 22.758h0.742l1.179 2.743h-0.742l-1.179-2.743zM26.264 22.825l1.121 2.608h0.595l-1.121-2.608h-0.595z"></path>
<path fill="#9a3b82" style="fill: var(--color6, #9a3b82)" d="M22.314 22.591h0.997v2.91h-0.997v-2.91zM22.382 22.658v2.776h0.862v-2.776h-0.862z"></path>
<path fill="#9a3b82" style="fill: var(--color6, #9a3b82)" d="M22.314 20.412h4.392v0.622h-4.392v-0.622zM22.382 20.479v0.487h4.257v-0.487h-4.257z"></path>
<path fill="#fe5244" style="fill: var(--color8, #fe5244)" d="M27.826 20.021h-5.478v0.447h5.478v-0.447z"></path>
<path fill="#ffcf2d" style="fill: var(--color4, #ffcf2d)" d="M26.045 19.376h-3.698v0.633h3.698v-0.633z"></path>
<path fill="#9a3b82" style="fill: var(--color6, #9a3b82)" d="M22.314 18.859h4.392v0.54h-4.392v-0.54zM22.382 18.926v0.405h4.257v-0.405h-4.257z"></path>
<path fill="#fff" style="fill: var(--color5, #fff)" d="M34.134 17.646l-0.003 0.019-0.511 3.335h-4.741l0.511-3.335 0.007-0.047c0.081-0.164 0.576-0.291 1.176-0.291 0.656 0 1.188 0.152 1.188 0.338 0-0.186 0.531-0.338 1.187-0.338 0.634 0.001 1.15 0.141 1.186 0.319z"></path>
<path fill="#ffcf2d" style="fill: var(--color4, #ffcf2d)" d="M29.429 17.628c0.017-0.030 0.055-0.063 0.117-0.095 0.064-0.033 0.15-0.064 0.253-0.089 0.206-0.051 0.477-0.083 0.774-0.083 0.326 0 0.619 0.038 0.831 0.098 0.106 0.030 0.189 0.065 0.245 0.103 0.057 0.038 0.078 0.074 0.078 0.103h0.068c0-0.029 0.021-0.065 0.078-0.103 0.056-0.038 0.139-0.073 0.245-0.103 0.211-0.060 0.505-0.098 0.831-0.098 0.315 0.001 0.599 0.036 0.809 0.092 0.105 0.028 0.189 0.061 0.249 0.097 0.057 0.034 0.086 0.068 0.094 0.097l-0.002 0.013-0.507 3.306h-4.673l0.505-3.296 0.006-0.042zM31.76 17.573c-0.019-0.025-0.045-0.047-0.074-0.067-0.064-0.043-0.155-0.081-0.264-0.112-0.219-0.062-0.519-0.1-0.849-0.1-0.302 0-0.579 0.032-0.791 0.085-0.106 0.026-0.197 0.058-0.267 0.095-0.069 0.036-0.123 0.079-0.148 0.13l-0.002 0.005-0.008 0.052-0.517 3.373h4.809l0.515-3.363 0.004-0.025-0.001-0.006c-0.012-0.059-0.061-0.107-0.127-0.147-0.067-0.040-0.158-0.076-0.266-0.105-0.216-0.058-0.507-0.094-0.826-0.094h-0c-0.33 0-0.63 0.038-0.849 0.1-0.109 0.031-0.2 0.069-0.264 0.112-0.030 0.020-0.055 0.042-0.074 0.067z"></path>
<path fill="#ffcf2d" style="fill: var(--color4, #ffcf2d)" d="M31.795 17.671l-0.506 3.335-0.067-0.010 0.506-3.335 0.067 0.010z"></path>
<path fill="#ffcf2d" style="fill: var(--color4, #ffcf2d)" d="M31.255 21.001c0-0.186-0.531-0.338-1.188-0.338s-1.188 0.152-1.188 0.338h2.375z"></path>
<path fill="#ffcf2d" style="fill: var(--color4, #ffcf2d)" d="M33.63 21.001c0-0.186-0.531-0.338-1.188-0.338s-1.187 0.152-1.187 0.338h2.375z"></path>
<path fill="#ffcf2d" style="fill: var(--color4, #ffcf2d)" d="M33.986 17.466c0.018 0.003 0.031 0.020 0.028 0.039l-0.513 3.218-0.039-0.015c-0.207-0.080-0.606-0.137-1.013-0.122-0.326 0.012-0.618 0.060-0.827 0.127-0.105 0.034-0.186 0.072-0.241 0.111-0.056 0.040-0.076 0.077-0.075 0.106 0.001 0.019-0.014 0.034-0.032 0.035s-0.034-0.014-0.035-0.032c-0.002-0.064 0.041-0.119 0.102-0.163 0.063-0.045 0.152-0.086 0.26-0.121 0.216-0.070 0.515-0.118 0.845-0.13 0.389-0.014 0.775 0.036 1.001 0.113l0.5-3.136c0.003-0.018 0.020-0.031 0.039-0.028z"></path>
<path fill="#fff" style="fill: var(--color5, #fff)" d="M33.756 16.533h-4.257v-0.945c0-0.093 0.075-0.168 0.169-0.168h3.92c0.093 0 0.169 0.075 0.169 0.168v0.945h-0.001z"></path>
<path fill="#9a3b82" style="fill: var(--color6, #9a3b82)" d="M29.668 15.453c-0.075 0-0.135 0.060-0.135 0.135v0.912h4.191v-0.912c0-0.075-0.060-0.135-0.135-0.135h-3.92zM29.465 15.588c0-0.112 0.091-0.202 0.203-0.202h3.92c0.112 0 0.203 0.090 0.203 0.202v0.979h-4.326v-0.979z"></path>
<path fill="#ffcf2d" style="fill: var(--color4, #ffcf2d)" d="M34.096 15.375h-3.668c-0.057 0-0.102-0.046-0.102-0.102v-0.376c0-0.057 0.046-0.102 0.102-0.102h3.668c0.057 0 0.102 0.046 0.102 0.102v0.376c0 0.056-0.046 0.102-0.102 0.102z"></path>
<path fill="#fe5244" style="fill: var(--color8, #fe5244)" d="M34.239 14.441h-4.352v0.353h4.352v-0.353z"></path>
<path fill="#fff" style="fill: var(--color5, #fff)" d="M34.16 14.441h-3.322c-0.044 0-0.079-0.036-0.079-0.079v-0.284c0-0.044 0.036-0.079 0.079-0.079h3.322c0.044 0 0.079 0.036 0.079 0.079v0.284c0 0.043-0.035 0.079-0.079 0.079z"></path>
<path fill="#9a3b82" style="fill: var(--color6, #9a3b82)" d="M30.838 14.034c-0.024 0-0.045 0.020-0.045 0.045v0.284c0 0.024 0.020 0.045 0.045 0.045h3.322c0.025 0 0.045-0.021 0.045-0.045v-0.284c0-0.024-0.020-0.045-0.045-0.045h-3.322zM30.726 14.079c0-0.063 0.051-0.112 0.113-0.112h3.322c0.063 0 0.113 0.051 0.113 0.112v0.284c0 0.061-0.050 0.112-0.113 0.112h-3.322c-0.063 0-0.113-0.051-0.113-0.112v-0.284z"></path>
<path fill="#9a3b82" style="fill: var(--color6, #9a3b82)" d="M23.711 13.031h1.345v3.536h-1.345v-3.536zM23.778 13.099v3.401h1.21v-3.401h-1.21z"></path>
<path fill="#fff" style="fill: var(--color5, #fff)" d="M23.745 13.065h-0.516v3.468h0.516v-3.468z"></path>
<path fill="#9a3b82" style="fill: var(--color6, #9a3b82)" d="M23.195 13.031h0.583v3.536h-0.583v-3.536zM23.263 13.099v3.401h0.448v-3.401h-0.448z"></path>
<path fill="#fff" style="fill: var(--color5, #fff)" d="M23.229 13.065h-0.867v3.468h0.867v-3.468z"></path>
<path fill="#9a3b82" style="fill: var(--color6, #9a3b82)" d="M22.329 13.031h0.934v3.536h-0.934v-3.536zM22.396 13.099v3.401h0.799v-3.401h-0.799z"></path>
<path fill="#9a3b82" style="fill: var(--color6, #9a3b82)" d="M25.157 13.658h1.188v2.91h-1.188v-2.91zM25.225 13.725v2.776h1.052v-2.776h-1.052z"></path>
<path fill="#fff" style="fill: var(--color5, #fff)" d="M25.272 16.533h-0.441c-0.043 0-0.079-0.035-0.079-0.079v-2.687c0-0.043 0.035-0.079 0.079-0.079h0.441c0.043 0 0.079 0.035 0.079 0.079v2.687c-0.001 0.044-0.036 0.079-0.079 0.079z"></path>
<path fill="#9a3b82" style="fill: var(--color6, #9a3b82)" d="M24.831 13.723c-0.025 0-0.045 0.021-0.045 0.045v2.687c0 0.025 0.021 0.045 0.045 0.045h0.441c0.024 0 0.044-0.019 0.045-0.045v-2.686c0-0.025-0.021-0.045-0.045-0.045h-0.441zM24.718 13.768c0-0.061 0.050-0.112 0.113-0.112h0.441c0.061 0 0.113 0.050 0.113 0.112v2.688c-0.002 0.061-0.051 0.111-0.113 0.111h-0.441c-0.061 0-0.113-0.050-0.113-0.112v-2.687z"></path>
<path fill="#9a3b82" style="fill: var(--color6, #9a3b82)" d="M26.311 13.691v1.559l-0.607-1.559h0.607z"></path>
<path fill="#fff" style="fill: var(--color5, #fff)" d="M28.904 16.533h-1.792c-0.039 0-0.075-0.025-0.089-0.061l-1.164-2.989c-0.025-0.063 0.021-0.13 0.089-0.13h1.792c0.039 0 0.075 0.025 0.089 0.061l1.164 2.989c0.025 0.063-0.021 0.13-0.089 0.13z"></path>
<path fill="#ffcf2d" style="fill: var(--color4, #ffcf2d)" d="M25.949 13.387c-0.044 0-0.074 0.043-0.058 0.084l0 0 1.164 2.989c0.008 0.023 0.032 0.039 0.057 0.039h1.792c0.044 0 0.073-0.044 0.057-0.084l-1.164-2.989c-0.008-0.023-0.032-0.039-0.057-0.039h-1.792zM25.828 13.496c-0.033-0.085 0.029-0.176 0.12-0.176h1.792c0.053 0 0.102 0.033 0.12 0.082 0 0 0 0 0 0l1.164 2.988c0 0 0 0 0 0 0.033 0.085-0.029 0.176-0.12 0.176h-1.792c-0.053 0-0.102-0.033-0.12-0.082 0-0-0-0-0-0l-1.164-2.988c0 0 0-0 0-0z"></path>
<path fill="#fff" style="fill: var(--color5, #fff)" d="M29.197 16.533h-1.792c-0.039 0-0.075-0.025-0.089-0.061l-1.164-2.989c-0.025-0.063 0.021-0.13 0.089-0.13h1.792c0.039 0 0.075 0.025 0.089 0.061l1.164 2.989c0.025 0.063-0.021 0.13-0.089 0.13z"></path>
<path fill="#ffcf2d" style="fill: var(--color4, #ffcf2d)" d="M26.241 13.387c-0.044 0-0.073 0.043-0.057 0.084v0l1.164 2.989c0.008 0.023 0.032 0.039 0.057 0.039h1.792c0.044 0 0.073-0.044 0.057-0.084l-1.164-2.989c-0.008-0.023-0.032-0.039-0.057-0.039h-1.792zM26.121 13.496c-0.033-0.085 0.029-0.176 0.12-0.176h1.792c0.053 0 0.102 0.033 0.121 0.082 0 0 0 0 0 0l1.164 2.988c0 0 0 0 0 0 0.033 0.085-0.029 0.176-0.12 0.176h-1.792c-0.053 0-0.102-0.033-0.121-0.082 0-0 0-0-0-0l-1.164-2.988c0 0-0-0-0-0z"></path>
<path fill="#ffcf2d" style="fill: var(--color4, #ffcf2d)" d="M31.304 7.565l1.082 3.766-0.033 0.009c-0.171 0.048-0.352 0.074-0.537 0.074-1.085 0-1.963-0.876-1.963-1.958 0-0.892 0.599-1.646 1.418-1.882l0.032-0.009zM31.257 7.649c-0.774 0.238-1.337 0.958-1.337 1.807 0 1.045 0.848 1.891 1.896 1.891 0.167 0 0.331-0.022 0.486-0.063l-1.045-3.635z"></path>
<path fill="#ffcf2d" style="fill: var(--color4, #ffcf2d)" d="M31.783 12.067v-0.686h0.068v0.686h-0.068z"></path>
<path fill="#fff" style="fill: var(--color5, #fff)" d="M31.816 11.086c0.903 0 1.634-0.73 1.634-1.63s-0.732-1.63-1.634-1.63c-0.903 0-1.634 0.73-1.634 1.63s0.732 1.63 1.634 1.63z"></path>
<path fill="#3fb1b5" style="fill: var(--color9, #3fb1b5)" d="M31.816 7.86c-0.884 0-1.601 0.715-1.601 1.597s0.717 1.597 1.601 1.597c0.884 0 1.601-0.715 1.601-1.597s-0.717-1.597-1.601-1.597zM30.148 9.456c0-0.919 0.747-1.664 1.668-1.664s1.668 0.745 1.668 1.664c0 0.919-0.747 1.664-1.668 1.664s-1.668-0.745-1.668-1.664z"></path>
<path fill="#fff" style="fill: var(--color5, #fff)" d="M32.5 12.062h-1.361l0.675-0.338 0.685 0.338z"></path>
<path fill="#ffcf2d" style="fill: var(--color4, #ffcf2d)" d="M31.814 11.687l0.83 0.409h-1.648l0.818-0.409zM31.814 11.762l-0.533 0.267h1.074l-0.541-0.267z"></path>
<path fill="#9a3b82" style="fill: var(--color6, #9a3b82)" d="M22.314 12.033h11.958v19.967h-0.683v-1.482c0-0.304-0.247-0.55-0.552-0.55h-9.496c-0.304 0-0.552 0.247-0.552 0.55v1.482h-0.677v-19.967zM22.382 12.1v19.832h0.541v-1.415c0-0.341 0.277-0.618 0.619-0.618h9.496c0.342 0 0.619 0.277 0.619 0.618v1.415h0.548v-19.832h-11.823z"></path>
<path fill="#3fb1b5" style="fill: var(--color9, #3fb1b5)" d="M23.18 26.018c-0.112 0-0.201 0.090-0.201 0.201v2.929c0 0.111 0.091 0.201 0.201 0.201h10.205c0.111 0 0.202-0.089 0.202-0.201v-2.929c0-0.111-0.091-0.201-0.202-0.201h-10.205zM22.911 26.218c0-0.148 0.12-0.268 0.269-0.268h10.205c0.148 0 0.269 0.119 0.269 0.268v2.929c0 0.149-0.121 0.268-0.269 0.268h-10.205c-0.148 0-0.269-0.119-0.269-0.268v-2.929z"></path>
<path fill="#9a3b82" style="fill: var(--color6, #9a3b82)" d="M28.82 9.334v2.733h-0.959l0.959-2.733z"></path>
<path fill="#fff" style="fill: var(--color5, #fff)" d="M28.82 9.334l-0.007 0.020-0.947 2.713h-4.401l0.977-2.799c0.142-0.203 0.535-0.351 1.003-0.359 0.008 0 0.015 0 0.023 0s0.015 0 0.023 0c0.547 0 1.034 0.19 1.123 0.439 0.088-0.249 0.554-0.439 1.101-0.439 0.536 0 1.005 0.183 1.105 0.425z"></path>
<path fill="#ffcf2d" style="fill: var(--color4, #ffcf2d)" d="M25.445 8.875h0.045c0.277 0 0.54 0.048 0.746 0.128 0.171 0.067 0.308 0.158 0.377 0.268 0.067-0.109 0.2-0.201 0.366-0.268 0.201-0.081 0.458-0.129 0.735-0.129 0.271 0 0.527 0.046 0.728 0.124 0.199 0.077 0.353 0.188 0.408 0.322l0.005 0.012-0.011 0.032-0.955 2.736h-4.473l0.994-2.848 0.003-0.004c0.077-0.11 0.218-0.201 0.395-0.265s0.398-0.104 0.635-0.108h0zM25.446 8.942c-0.231 0.004-0.442 0.042-0.613 0.104-0.169 0.062-0.294 0.145-0.36 0.237l-0.029 0.082-0.931 2.668h4.33l0.941-2.698c-0.049-0.104-0.178-0.201-0.365-0.274-0.192-0.074-0.439-0.12-0.704-0.12-0.27 0-0.519 0.047-0.71 0.124-0.193 0.077-0.32 0.182-0.359 0.293l-0.032 0.090-0.032-0.090c-0.039-0.11-0.171-0.215-0.37-0.293-0.197-0.077-0.451-0.124-0.721-0.124h-0.045z"></path>
<path fill="#ffcf2d" style="fill: var(--color4, #ffcf2d)" d="M26.624 9.316c0.018 0.006 0.027 0.025 0.020 0.043l-0.956 2.663c-0.006 0.018-0.026 0.027-0.043 0.020s-0.027-0.025-0.020-0.043l0.956-2.663c0.006-0.018 0.026-0.027 0.043-0.020z"></path>
<path fill="#ffcf2d" style="fill: var(--color4, #ffcf2d)" d="M25.655 12.033h-2.189c0.081-0.253 0.536-0.447 1.083-0.447 0.549 0 1.025 0.194 1.106 0.447z"></path>
<path fill="#ffcf2d" style="fill: var(--color4, #ffcf2d)" d="M27.861 12.033h-2.189c0.081-0.253 0.536-0.447 1.083-0.447 0.549 0 1.025 0.194 1.106 0.447z"></path>
<path fill="#9a3b82" style="fill: var(--color6, #9a3b82)" d="M27.709 26.726c-0.070 0-0.126 0.057-0.126 0.126 0 0.019-0.015 0.034-0.034 0.034s-0.034-0.015-0.034-0.034c0-0.106 0.086-0.193 0.194-0.193h1.194c0.106 0 0.194 0.086 0.194 0.193 0 0.019-0.015 0.034-0.034 0.034s-0.034-0.015-0.034-0.034c0-0.070-0.057-0.126-0.126-0.126h-1.194z"></path>
<path fill="#9a3b82" style="fill: var(--color6, #9a3b82)" d="M22.314 21.001c0-0.019 0.015-0.034 0.034-0.034h11.891c0.019 0 0.034 0.015 0.034 0.034s-0.015 0.034-0.034 0.034h-11.891c-0.019 0-0.034-0.015-0.034-0.034z"></path>
<path fill="#9a3b82" style="fill: var(--color6, #9a3b82)" d="M22.314 16.533c0-0.019 0.015-0.034 0.034-0.034h11.891c0.019 0 0.034 0.015 0.034 0.034s-0.015 0.034-0.034 0.034h-11.891c-0.019 0-0.034-0.015-0.034-0.034z"></path>
<path fill="#9a3b82" style="fill: var(--color6, #9a3b82)" d="M22.314 25.468c0-0.019 0.015-0.034 0.034-0.034h11.891c0.019 0 0.034 0.015 0.034 0.034s-0.015 0.034-0.034 0.034h-11.891c-0.019 0-0.034-0.015-0.034-0.034z"></path>
<path fill="#9a3b82" style="fill: var(--color6, #9a3b82)" d="M23.822 7.863c0.018 0.006 0.027 0.025 0.021 0.043l-1.448 4.128h11.819l1.455-4.15c0.006-0.018 0.025-0.027 0.043-0.021s0.027 0.025 0.021 0.043l-1.463 4.172c-0.005 0.014-0.018 0.023-0.032 0.023h-11.891c-0.011 0-0.021-0.005-0.028-0.014s-0.008-0.020-0.004-0.031l1.463-4.172c0.006-0.018 0.025-0.027 0.043-0.021z"></path>
<path fill="#fff" style="fill: var(--color5, #fff)" d="M10.279 30.516v1.222c0 0.127 0.102 0.229 0.23 0.229h3.062c0 0 0.018-0.567-0.448-0.725-0.791-0.268-1.161-0.725-1.161-0.725h-1.683z"></path>
<path fill="#fe5244" style="fill: var(--color8, #fe5244)" d="M10.279 30.482h1.699l0.010 0.013 0 0c0 0 0 0 0.001 0.001s0.002 0.002 0.003 0.004 0.007 0.008 0.012 0.014c0.011 0.013 0.028 0.031 0.051 0.054 0.046 0.046 0.116 0.111 0.21 0.184 0.189 0.146 0.476 0.325 0.867 0.458h0c0.246 0.084 0.364 0.276 0.42 0.443 0.028 0.084 0.041 0.162 0.046 0.22 0.003 0.029 0.004 0.052 0.005 0.069 0 0.008 0 0.015 0 0.019 0 0.002 0 0.004 0 0.005s-0 0.001-0 0.001v0.001c0 0 0 0-0.034-0.001l0.034 0.001-0.001 0.033h-3.094c-0.146 0-0.263-0.117-0.263-0.263v-1.222h0.034v-0.034zM10.313 30.549v1.188c0 0.108 0.087 0.195 0.196 0.195h3.027c-0.001-0.014-0.002-0.032-0.004-0.054-0.005-0.054-0.017-0.127-0.043-0.205-0.052-0.156-0.158-0.326-0.378-0.401-0.4-0.136-0.693-0.319-0.887-0.469-0.097-0.075-0.169-0.141-0.217-0.189-0.024-0.024-0.042-0.043-0.054-0.057-0.003-0.003-0.006-0.006-0.008-0.009h-1.633z"></path>
<path fill="#fe5244" style="fill: var(--color8, #fe5244)" d="M12.338 30.64c0.031 0.004 0.064 0.015 0.089 0.040 0.024 0.024 0.038 0.052 0.041 0.082s-0.005 0.058-0.018 0.085c-0.026 0.052-0.076 0.103-0.132 0.146-0.112 0.088-0.259 0.161-0.327 0.18l-0.018-0.065c0.057-0.016 0.197-0.084 0.303-0.168 0.053-0.042 0.094-0.085 0.113-0.123 0.009-0.019 0.013-0.035 0.011-0.048s-0.007-0.027-0.022-0.041c-0.011-0.011-0.028-0.018-0.050-0.021s-0.047-0.001-0.072 0.003c-0.024 0.004-0.047 0.011-0.064 0.016-0.008 0.003-0.015 0.005-0.019 0.007-0.002 0.001-0.004 0.001-0.005 0.002s-0.001 0-0.001 0l-0 0c0 0 0 0-0.013-0.031s-0.013-0.031-0.013-0.031l0-0 0-0 0.001-0c0-0 0.001-0 0.002-0.001s0.004-0.001 0.006-0.002 0.013-0.005 0.022-0.008c0.019-0.006 0.044-0.013 0.073-0.018s0.061-0.008 0.092-0.004z"></path>
<path fill="#fe5244" style="fill: var(--color8, #fe5244)" d="M12.852 30.835c-0.082-0.066-0.181-0.031-0.247 0.007-0.034 0.020-0.064 0.043-0.085 0.061-0.011 0.009-0.019 0.017-0.025 0.023-0.003 0.003-0.005 0.005-0.007 0.007s-0.001 0.001-0.002 0.002l-0.001 0.001c0 0 0 0 0.024 0.023s0.024 0.023 0.024 0.023l0-0c0-0 0.001-0.001 0.001-0.001s0.003-0.003 0.006-0.006 0.013-0.012 0.022-0.020c0.019-0.016 0.045-0.037 0.075-0.054 0.062-0.036 0.124-0.050 0.17-0.012l0 0c0.016 0.013 0.023 0.025 0.025 0.037s0.001 0.028-0.007 0.046c-0.016 0.038-0.053 0.083-0.103 0.127s-0.108 0.085-0.162 0.117c-0.055 0.033-0.102 0.055-0.129 0.062l0.018 0.065c0.036-0.010 0.089-0.036 0.145-0.069s0.119-0.077 0.172-0.124c0.052-0.046 0.099-0.099 0.121-0.152 0.011-0.027 0.016-0.056 0.010-0.085s-0.023-0.055-0.049-0.076z"></path>
<path fill="#fe5244" style="fill: var(--color8, #fe5244)" d="M12.056 30.614l-1.777 0.551v-0.65h1.684c0 0 0.030 0.038 0.093 0.099z"></path>
<path fill="#fff" style="fill: var(--color5, #fff)" d="M14.117 30.516v1.222c0 0.127 0.102 0.229 0.23 0.229h3.062c0 0 0.018-0.567-0.448-0.725-0.791-0.268-1.161-0.725-1.161-0.725h-1.683z"></path>
<path fill="#fe5244" style="fill: var(--color8, #fe5244)" d="M14.117 30.482h1.699l0.010 0.013 0 0c0 0 0 0 0.001 0.001s0.002 0.002 0.003 0.004 0.007 0.008 0.012 0.014c0.011 0.013 0.028 0.031 0.051 0.054 0.046 0.046 0.116 0.111 0.21 0.184 0.189 0.146 0.476 0.325 0.867 0.458v0c0.247 0.084 0.364 0.276 0.42 0.443 0.028 0.084 0.041 0.162 0.046 0.22 0.003 0.029 0.004 0.052 0.005 0.069 0 0.008 0 0.015 0 0.019 0 0.002 0 0.004 0 0.005s-0 0.001-0 0.001v0.001c0 0 0 0-0.034-0.001l0.034 0.001-0.001 0.033h-3.094c-0.146 0-0.263-0.117-0.263-0.263v-1.222h0.034v-0.034zM14.151 30.549v1.188c0 0.108 0.087 0.195 0.196 0.195h3.027c-0.001-0.014-0.002-0.032-0.004-0.054-0.005-0.054-0.017-0.127-0.043-0.205-0.052-0.156-0.158-0.326-0.378-0.401-0.4-0.136-0.693-0.319-0.887-0.469-0.097-0.075-0.169-0.141-0.217-0.189-0.024-0.024-0.042-0.043-0.054-0.057-0.003-0.003-0.006-0.006-0.008-0.009h-1.633z"></path>
<path fill="#fe5244" style="fill: var(--color8, #fe5244)" d="M16.176 30.64c0.031 0.004 0.064 0.015 0.089 0.040 0.024 0.024 0.038 0.052 0.041 0.082s-0.005 0.058-0.018 0.085c-0.026 0.052-0.076 0.103-0.132 0.146-0.112 0.088-0.259 0.161-0.327 0.18l-0.018-0.065c0.057-0.016 0.197-0.084 0.303-0.168 0.053-0.042 0.094-0.085 0.113-0.123 0.009-0.019 0.013-0.035 0.011-0.048s-0.007-0.027-0.022-0.041c-0.011-0.011-0.028-0.018-0.050-0.021s-0.047-0.001-0.072 0.003c-0.024 0.004-0.047 0.011-0.064 0.016-0.008 0.003-0.015 0.005-0.019 0.007-0.002 0.001-0.004 0.001-0.005 0.002s-0.001 0-0.001 0l-0 0c0 0 0 0-0.013-0.031s-0.013-0.031-0.013-0.031l0-0 0.001-0c0-0 0.001-0 0.002-0.001s0.004-0.001 0.006-0.002 0.013-0.005 0.022-0.008c0.019-0.006 0.044-0.013 0.073-0.018s0.061-0.008 0.092-0.004z"></path>
<path fill="#fe5244" style="fill: var(--color8, #fe5244)" d="M16.69 30.835c-0.082-0.066-0.181-0.031-0.247 0.007-0.034 0.020-0.064 0.043-0.085 0.061-0.011 0.009-0.019 0.017-0.025 0.023-0.003 0.003-0.005 0.005-0.007 0.007s-0.001 0.001-0.002 0.002l-0.001 0.001c0 0 0 0 0.024 0.023s0.024 0.023 0.024 0.023l0-0c0-0 0.001-0.001 0.001-0.001s0.003-0.003 0.006-0.006 0.013-0.012 0.022-0.020c0.019-0.016 0.045-0.037 0.075-0.054 0.062-0.036 0.124-0.050 0.17-0.012l0 0c0.016 0.013 0.023 0.025 0.025 0.037s0.001 0.028-0.007 0.046c-0.016 0.038-0.053 0.083-0.103 0.127s-0.108 0.085-0.162 0.117c-0.055 0.033-0.102 0.055-0.129 0.062l0.018 0.065c0.036-0.010 0.089-0.036 0.145-0.069s0.119-0.077 0.172-0.124c0.052-0.046 0.099-0.099 0.121-0.152 0.011-0.027 0.016-0.056 0.010-0.085s-0.023-0.055-0.049-0.076z"></path>
<path fill="#fe5244" style="fill: var(--color8, #fe5244)" d="M15.895 30.614l-1.777 0.551v-0.65h1.684c0 0 0.030 0.038 0.093 0.099z"></path>
<path fill="#3fb1b5" style="fill: var(--color9, #3fb1b5)" d="M11.107 18.356l-1.109 11.578h2.319l1.165-5.611 0.476 1.196v4.415h2.414v-4.95l-1.288-6.628h-3.978z"></path>
<path fill="#9a3b82" style="fill: var(--color6, #9a3b82)" d="M11.203 29.93l1.078-8.797 0.067 0.008-1.078 8.797-0.067-0.008z"></path>
<path fill="#9a3b82" style="fill: var(--color6, #9a3b82)" d="M13.643 18.909l1.514 6.071v4.955h-0.068v-4.946l-1.512-6.063 0.066-0.016z"></path>
<path fill="#fff" style="fill: var(--color5, #fff)" d="M12.511 21.321c0 0 0 0 0 0l1.445 4.187-0.064 0.022-1.445-4.187c-0.045-0.13-0.168-0.218-0.307-0.218v-0.067c0.167 0 0.316 0.106 0.371 0.263z"></path>
<path fill="#9a3b82" style="fill: var(--color6, #9a3b82)" d="M10.923 20.27l0.183-1.914h3.978l0.114 0.588-4.275 1.326z"></path>
<path fill="#9a3b82" style="fill: var(--color6, #9a3b82)" d="M16.377 30.516h-2.428c-0.091 0-0.165-0.074-0.165-0.165v-0.252c0-0.091 0.074-0.165 0.165-0.165h2.428c0.091 0 0.166 0.074 0.166 0.165v0.252c-0.001 0.091-0.074 0.165-0.166 0.165z"></path>
<path fill="#9a3b82" style="fill: var(--color6, #9a3b82)" d="M12.358 30.516h-2.428c-0.091 0-0.165-0.074-0.165-0.165v-0.252c0-0.091 0.074-0.165 0.165-0.165h2.428c0.091 0 0.165 0.074 0.165 0.165v0.252c-0.001 0.091-0.074 0.165-0.165 0.165z"></path>
<path fill="#66b0f0" style="fill: var(--color7, #66b0f0)" d="M18.838 18.695l0.761 2.84-3.793 1.012-0.762-2.842c-0.024-0.089-0.081-0.158-0.154-0.201s-0.163-0.057-0.252-0.034c-0.177 0.047-0.283 0.229-0.235 0.405l0.762 2.842-0.083 0.023-0.761-2.84c-0.061-0.226 0.070-0.457 0.293-0.524 0.004-0.001 0.009-0.002 0.013-0.003l3.683-0.983c0.231-0.061 0.467 0.076 0.529 0.305z"></path>
<path fill="#9a3b82" style="fill: var(--color6, #9a3b82)" d="M15.128 19.685l0.761 2.84-0.083 0.023-0.762-2.842c-0.024-0.089-0.081-0.158-0.154-0.201s-0.163-0.057-0.252-0.034c-0.177 0.047-0.283 0.229-0.235 0.405l0.762 2.842-0.083 0.023-0.761-2.84c-0.061-0.226 0.070-0.457 0.293-0.524 0.226-0.053 0.455 0.083 0.516 0.309z"></path>
<path fill="#fff" style="fill: var(--color5, #fff)" d="M15.044 19.704l0.715 2.668-0.642 0.171-0.715-2.668c-0.047-0.176 0.057-0.358 0.235-0.405 0.089-0.024 0.179-0.009 0.252 0.034s0.131 0.112 0.154 0.201z"></path>
<path fill="#ffcf2d" style="fill: var(--color4, #ffcf2d)" d="M18.849 20.199l-1.726 0.593-1.362-2.436h-5.279c-0.897 0-1.568-0.823-1.385-1.699l0.549-2.632c0.172-0.824 0.9-1.415 1.744-1.415h3.61c0.875 0 1.62 0.633 1.758 1.495l0.544 2.562 1.547 3.532z"></path>
<path fill="#fff" style="fill: var(--color5, #fff)" d="M9.681 14.032c0 0 0 0 0 0l-0.549 2.632c-0.179 0.855 0.476 1.658 1.351 1.658h5.299l1.358 2.429 1.664-0.572-1.533-3.502-0.545-2.567c-0.136-0.845-0.867-1.466-1.725-1.466h-3.61c-0.827 0-1.542 0.579-1.711 1.388zM9.615 14.018c0.175-0.84 0.918-1.442 1.777-1.442h3.61c0.891 0 1.65 0.645 1.791 1.522l0.543 2.558 1.56 3.563-1.787 0.614-1.366-2.444h-5.259c-0.918 0-1.605-0.843-1.418-1.739l0.549-2.632z"></path>
<path fill="#fff" style="fill: var(--color5, #fff)" d="M10.201 18.328c-0.621-0.125-1.083-0.652-1.13-1.274 0.047-0.032 0.1-0.061 0.156-0.081 0.409-0.151 0.876 0.096 1.046 0.551 0.105 0.285 0.069 0.584-0.072 0.804z"></path>
<path fill="#e57281" style="fill: var(--color10, #e57281)" d="M14.132 11.032v1.58h-1.748l0.403-1.051 1.345-0.529z"></path>
<path fill="#9a3b82" style="fill: var(--color6, #9a3b82)" d="M14.534 10.367c-0.001 0-0.003 0.001-0.005 0.001l-0.519 0.137c-0.186 0.049-0.329 0.186-0.389 0.359h-0.199c-0.126 0-0.228 0.102-0.228 0.228v0.003c0 0.119 0.091 0.217 0.208 0.227-0.001 0.001-0.001 0.001-0.001 0.001s-0.092 0.438-0.631 0.291c0 0 0.021-1.152 0.044-1.51 0.019-0.295 1.589-0.854 1.735-0.616 0.128 0.211-0.020 0.31-0.146 0.354 0.223-0.047 0.644-0.11 0.687 0.077 0.050 0.218-0.395 0.406-0.554 0.448z"></path>
<path fill="#e57281" style="fill: var(--color10, #e57281)" d="M14.635 11.174h-0.055l0.016 0.269c0.011 0.193-0.144 0.357-0.338 0.357h-0.243c-0.234 0-0.424-0.19-0.424-0.423v-0.053h-0.168c-0.126 0-0.229-0.102-0.229-0.228v-0.003c0-0.126 0.102-0.228 0.229-0.228h0.199c0.061-0.173 0.204-0.311 0.389-0.359l0.519-0.137 0.178 0.711c0.018 0.045-0.025 0.094-0.073 0.094z"></path>
<path fill="#9a3b82" style="fill: var(--color6, #9a3b82)" d="M13.646 11.371c0.015 0.001 0.027 0.015 0.025 0.031-0.011 0.113 0.040 0.21 0.123 0.28s0.197 0.112 0.308 0.112c0.015 0 0.028 0.013 0.028 0.028s-0.013 0.028-0.028 0.028c-0.124 0-0.251-0.046-0.344-0.126s-0.155-0.194-0.142-0.328c0.001-0.015 0.015-0.027 0.031-0.025z"></path>
<path fill="#9a3b82" style="fill: var(--color6, #9a3b82)" d="M13.366 10.977c0-0.015 0.013-0.028 0.028-0.028 0.103 0 0.187 0.083 0.187 0.186 0 0.015-0.013 0.028-0.028 0.028s-0.028-0.013-0.028-0.028c0-0.072-0.058-0.13-0.131-0.13-0.015 0-0.028-0.013-0.028-0.028z"></path>
<path fill="#9a3b82" style="fill: var(--color6, #9a3b82)" d="M14.444 10.974c0.023 0 0.042-0.039 0.042-0.086s-0.019-0.086-0.042-0.086-0.042 0.039-0.042 0.086c0 0.048 0.019 0.086 0.042 0.086z"></path>
<path fill="#9a3b82" style="fill: var(--color6, #9a3b82)" d="M14.264 10.706l-0.017-0.022c-0.012 0.009-0.015 0.027-0.005 0.039s0.027 0.015 0.039 0.005l0-0c0-0 0.001-0 0.001-0.001s0.002-0.002 0.004-0.003 0.010-0.007 0.017-0.011c0.015-0.009 0.038-0.022 0.066-0.035 0.057-0.025 0.137-0.050 0.231-0.050 0.015 0 0.028-0.013 0.028-0.028s-0.013-0.028-0.028-0.028c-0.104 0-0.192 0.028-0.254 0.055-0.031 0.014-0.056 0.028-0.073 0.038-0.008 0.005-0.015 0.010-0.020 0.013-0.002 0.002-0.004 0.003-0.005 0.004s-0.001 0.001-0.001 0.001l-0 0-0 0-0 0c0 0 0 0 0.017 0.022z"></path>
<path fill="#fff" style="fill: var(--color5, #fff)" d="M13.728 19.075c0 0 1.379 0.059 1.864-1.044l-0.257-0.468-0.767 0.294-0.841 1.218z"></path>
<path fill="#fe5244" style="fill: var(--color8, #fe5244)" d="M15.351 17.521l0.279 0.509-0.007 0.015c-0.248 0.564-0.724 0.83-1.135 0.955-0.205 0.062-0.395 0.090-0.534 0.102-0.069 0.006-0.126 0.008-0.165 0.008-0.020 0-0.035 0-0.046 0-0.005-0-0.009-0-0.012-0-0.001 0-0.002-0-0.003-0l-0.001-0h-0c0 0 0 0 0.001-0.034l-0.001 0.034-0.061-0.003 0.881-1.277 0.804-0.308zM13.792 19.042c0.038-0.001 0.091-0.003 0.156-0.008 0.135-0.012 0.32-0.038 0.52-0.099 0.396-0.12 0.847-0.373 1.086-0.902l-0.235-0.428-0.729 0.28-0.799 1.157z"></path>
<path fill="#fe5244" style="fill: var(--color8, #fe5244)" d="M14.832 12.322c-0.066 0.006-0.127 0.035-0.172 0.080-0.050 0.049-0.081 0.118-0.081 0.194v5.532c0 0.528-0.429 0.956-0.958 0.956h-2.126c-0.572 0-1.013-0.495-0.952-1.058v-0.001l0.765-5.251c0.038-0.259 0.26-0.451 0.523-0.451h3.001z"></path>
<path fill="#fe5244" style="fill: var(--color8, #fe5244)" d="M11.341 12.778c0.036-0.243 0.243-0.423 0.49-0.423h2.83c-0.009 0.007-0.017 0.014-0.025 0.022-0.055 0.055-0.091 0.132-0.091 0.218v5.532c0 0.509-0.414 0.922-0.924 0.922h-2.126c-0.552 0-0.977-0.478-0.919-1.020l0-0.002 0.765-5.249c0 0 0 0 0 0zM14.832 12.322v-0.034h-3.001c-0.28 0-0.516 0.204-0.557 0.48l-0.766 5.254v0.002c-0.062 0.582 0.395 1.093 0.986 1.093h2.126c0.548 0 0.992-0.443 0.992-0.989v-5.532c0-0.067 0.028-0.127 0.071-0.17 0.039-0.039 0.093-0.065 0.151-0.070l-0.003-0.034z"></path>
<path fill="#fff" style="fill: var(--color5, #fff)" d="M14.618 12.322c-0.066 0.006-0.127 0.035-0.172 0.080-0.042 0.041-0.070 0.095-0.078 0.156-0.001 0.012-0.002 0.025-0.002 0.037l-0.045 0.423-0.54 5.109c0 0.528-0.429 0.956-0.958 0.956h-1.327c-0.572 0-1.013-0.495-0.952-1.058v-0.001l0.346-2.374 0.42-2.878c0.003-0.025 0.009-0.049 0.016-0.074 0.065-0.221 0.27-0.377 0.506-0.377l2.787 0.001z"></path>
<path fill="#fe5244" style="fill: var(--color8, #fe5244)" d="M11.357 12.707c-0.007 0.024-0.012 0.047-0.015 0.069v0l-0.42 2.878-0.345 2.371v0l-0 0.002c-0.059 0.543 0.367 1.020 0.919 1.020h1.327c0.51 0 0.924-0.413 0.924-0.922v-0.002l0.54-5.111 0.045-0.422c0-0.013 0.001-0.026 0.002-0.038l0-0.002c0.009-0.068 0.041-0.129 0.087-0.176 0.008-0.008 0.017-0.016 0.026-0.023h-2.617c-0.221 0-0.413 0.146-0.474 0.353zM11.292 12.688c0.069-0.235 0.287-0.401 0.539-0.401h2.821v0.066l-0.031 0.003c-0.058 0.005-0.112 0.031-0.151 0.070-0.037 0.036-0.061 0.083-0.068 0.136-0.001 0.012-0.002 0.023-0.002 0.033v0.002l-0.045 0.425-0.54 5.107c-0.001 0.546-0.445 0.987-0.992 0.987h-1.327c-0.591 0-1.048-0.512-0.986-1.093v-0.002l0.346-2.376 0.42-2.877c0 0 0-0 0-0 0.004-0.027 0.010-0.053 0.017-0.078l0-0 0-0z"></path>
<path fill="#ffcf2d" style="fill: var(--color4, #ffcf2d)" d="M14.145 13.423l-0.201 1.508c-0.066 0.309-0.307 0.474-0.656 0.53l-2.386 0.346 0.348-2.385 2.896 0.001z"></path>
<path fill="#fe5244" style="fill: var(--color8, #fe5244)" d="M14.533 12.322h-0.060c-0.108-0.001-0.203 0.075-0.224 0.182l-0.351 2.26c-0.066 0.309-0.34 0.53-0.656 0.53h-2.196c-0.266 0-0.464-0.245-0.406-0.504l0.423-1.918c0.071-0.321 0.357-0.55 0.687-0.55h2.784z"></path>
<path fill="#fe5244" style="fill: var(--color8, #fe5244)" d="M14.473 12.288h0.059v0.067h-0.064c-0.090 0.001-0.168 0.065-0.186 0.154l-0.351 2.26-0 0.001c-0.070 0.324-0.357 0.557-0.689 0.557h-2.196c-0.287 0-0.501-0.265-0.439-0.545l0.423-1.918c0.074-0.337 0.374-0.577 0.72-0.577h2.719c0.002 0 0.003 0 0.005 0zM14.297 12.356h-2.547c-0.314 0-0.586 0.218-0.654 0.524 0 0 0 0 0 0l-0.423 1.918c-0.053 0.238 0.129 0.463 0.373 0.463h2.196c0.3 0 0.56-0.21 0.623-0.502l0.351-2.261c0.011-0.056 0.040-0.105 0.080-0.142z"></path>
<path fill="#fff" style="fill: var(--color5, #fff)" d="M12.723 15.923l0.559-3.412c0.011-0.069 0.071-0.12 0.141-0.12 0.088 0 0.155 0.079 0.141 0.166l-0.559 3.412c-0.011 0.069-0.071 0.12-0.141 0.12-0.088 0-0.155-0.079-0.141-0.166z"></path>
<path fill="#fe5244" style="fill: var(--color8, #fe5244)" d="M13.316 12.516c0 0 0 0 0 0l-0.559 3.412c-0.011 0.067 0.040 0.127 0.107 0.127 0.053 0 0.099-0.039 0.107-0.092 0 0 0 0 0 0l0.559-3.412c0.011-0.067-0.040-0.127-0.107-0.127-0.053 0-0.099 0.039-0.107 0.092zM13.249 12.505c0.014-0.084 0.087-0.148 0.174-0.148 0.109 0 0.192 0.097 0.174 0.205 0 0 0 0 0 0l-0.559 3.412c-0.014 0.084-0.087 0.148-0.174 0.148-0.109 0-0.192-0.097-0.174-0.205 0-0 0-0 0-0l0.559-3.412z"></path>
<path fill="#fff" style="fill: var(--color5, #fff)" d="M11.472 15.923l0.559-3.412c0.011-0.069 0.071-0.12 0.141-0.12 0.088 0 0.155 0.079 0.141 0.166l-0.559 3.412c-0.011 0.069-0.071 0.12-0.141 0.12-0.088 0-0.155-0.079-0.141-0.166z"></path>
<path fill="#fe5244" style="fill: var(--color8, #fe5244)" d="M12.065 12.516c0 0 0 0 0 0l-0.559 3.412c-0.011 0.067 0.040 0.127 0.107 0.127 0.053 0 0.099-0.039 0.107-0.092 0 0 0 0 0 0l0.559-3.412c0.011-0.067-0.040-0.127-0.107-0.127-0.053 0-0.099 0.039-0.107 0.092zM11.999 12.505c0.014-0.084 0.087-0.148 0.174-0.148 0.109 0 0.192 0.097 0.174 0.205 0 0 0 0 0 0l-0.559 3.412c-0.014 0.084-0.087 0.148-0.174 0.148-0.109 0-0.192-0.097-0.174-0.205 0-0 0-0 0-0l0.559-3.412z"></path>
<path fill="#fff" style="fill: var(--color5, #fff)" d="M15.13 12.613l-0.55 0.002v-0.019c0-0.076 0.030-0.145 0.081-0.194 0.045-0.045 0.105-0.074 0.172-0.080h0.045c0.139 0.011 0.248 0.128 0.252 0.291z"></path>
<path fill="#fe5244" style="fill: var(--color8, #fe5244)" d="M14.832 12.288h0.048l0.001 0c0.158 0.013 0.278 0.146 0.283 0.323l0.001 0.035-0.619 0.002v-0.053c0-0.085 0.034-0.163 0.091-0.218 0.050-0.050 0.117-0.083 0.193-0.089l0.001-0zM14.835 12.356c-0.059 0.005-0.111 0.031-0.15 0.070l-0 0c-0.041 0.040-0.067 0.094-0.070 0.155l0.48-0.002c-0.017-0.128-0.108-0.214-0.217-0.224h-0.042z"></path>
<path fill="#e57281" style="fill: var(--color10, #e57281)" d="M18.643 20.27l0.464 1.194c0.074 0.192-0.034 0.405-0.232 0.46l-1.019 0.279c-0.062 0.017-0.127 0.002-0.176-0.039l-0.104-0.090 0.212-0.056c0.093-0.025 0.156-0.111 0.152-0.208l-0.024-0.238c-0.004-0.107-0.091-0.192-0.198-0.195h0.011c-0.129-0.005-0.256-0.084-0.306-0.203l-0.162-0.43 1.381-0.473z"></path>
<path fill="#fff" style="fill: var(--color5, #fff)" d="M17.225 20.758c0.017-0.007 0.037 0.001 0.044 0.018l0.173 0.408c0 0 0 0 0 0 0.046 0.107 0.149 0.179 0.265 0.183 0.125 0.004 0.225 0.103 0.231 0.228 0 0 0 0 0 0l0.012 0.26c0.005 0.114-0.070 0.202-0.177 0.231 0 0 0 0-0 0l-0.166 0.045c-0.018 0.005-0.037-0.006-0.041-0.024s0.006-0.036 0.024-0.041l0.167-0.045c0.080-0.021 0.131-0.084 0.127-0.162l-0.012-0.261v-0c-0.004-0.089-0.076-0.16-0.165-0.163h-0c-0.143-0.005-0.269-0.093-0.325-0.224l-0.173-0.408c-0.007-0.017 0.001-0.037 0.018-0.044z"></path>
<path fill="#fff" style="fill: var(--color5, #fff)" d="M18.321 21.464c0.019-0.001 0.034 0.013 0.035 0.032l0.016 0.332c0.006 0.139-0.085 0.264-0.22 0.299-0.018 0.005-0.037-0.006-0.041-0.024s0.006-0.036 0.024-0.041c0.104-0.027 0.175-0.123 0.17-0.231 0 0 0 0 0-0l-0.016-0.332c-0.001-0.019 0.014-0.034 0.032-0.035z"></path>
<path fill="#fff" style="fill: var(--color5, #fff)" d="M18.752 21.353c0.019-0.001 0.034 0.013 0.035 0.032l0.016 0.332c0.006 0.139-0.085 0.264-0.22 0.299-0.018 0.005-0.037-0.006-0.041-0.024s0.006-0.036 0.024-0.041c0.104-0.027 0.174-0.123 0.17-0.231 0 0 0-0 0-0l-0.016-0.332c-0.001-0.019 0.013-0.034 0.032-0.035z"></path>
<path fill="#fff" style="fill: var(--color5, #fff)" d="M14.958 16.722l-0.272-1.421 0.066-0.013 0.272 1.421c0.046 0.239 0.13 0.47 0.248 0.683l0 0 1.866 3.359 1.699-0.584 0.022 0.064-1.752 0.602-1.893-3.409c0 0 0 0 0-0-0.122-0.219-0.209-0.457-0.256-0.703z"></path>
<path fill="#fff" style="fill: var(--color5, #fff)" d="M15.859 18.518l-0.616-1.109c-0.104-0.188-0.181-0.387-0.231-0.595 0.059-0.019 0.119-0.033 0.183-0.038 0.486-0.043 0.917 0.365 0.964 0.909 0.027 0.33-0.093 0.634-0.301 0.833z"></path>
</symbol>
<symbol id="icon-instagram" viewBox="0 0 32 32">
<path fill="#787a80" style="fill: var(--color2, #787a80)" d="M30.787 9.897c-0.070-1.574-0.324-2.657-0.689-3.595-0.376-0.996-0.955-1.887-1.713-2.628-0.741-0.752-1.638-1.337-2.622-1.708-0.943-0.365-2.020-0.619-3.594-0.689-1.586-0.075-2.090-0.093-6.112-0.093s-4.526 0.017-6.107 0.087c-1.574 0.069-2.657 0.324-3.594 0.689-0.996 0.376-1.887 0.955-2.628 1.713-0.752 0.741-1.337 1.638-1.708 2.622-0.365 0.944-0.619 2.020-0.689 3.594-0.075 1.586-0.093 2.090-0.093 6.112s0.017 4.526 0.087 6.107c0.069 1.574 0.324 2.657 0.689 3.595 0.376 0.996 0.961 1.887 1.713 2.628 0.741 0.753 1.638 1.337 2.622 1.708 0.944 0.365 2.020 0.619 3.595 0.689 1.58 0.070 2.084 0.087 6.107 0.087s4.526-0.017 6.107-0.087c1.574-0.070 2.657-0.324 3.594-0.689 1.991-0.77 3.566-2.344 4.335-4.335 0.364-0.943 0.619-2.020 0.689-3.595 0.069-1.58 0.087-2.084 0.087-6.107s-0.006-4.526-0.075-6.107zM28.118 21.994c-0.064 1.447-0.307 2.228-0.509 2.749-0.498 1.291-1.522 2.315-2.813 2.813-0.521 0.203-1.308 0.445-2.75 0.509-1.563 0.070-2.031 0.087-5.985 0.087s-4.428-0.017-5.985-0.087c-1.447-0.064-2.228-0.307-2.749-0.509-0.642-0.238-1.227-0.614-1.702-1.106-0.492-0.481-0.868-1.059-1.106-1.702-0.203-0.521-0.446-1.308-0.509-2.749-0.070-1.563-0.087-2.032-0.087-5.985s0.017-4.428 0.087-5.985c0.064-1.447 0.307-2.228 0.509-2.749 0.237-0.643 0.614-1.227 1.112-1.702 0.48-0.492 1.059-0.868 1.702-1.105 0.521-0.203 1.308-0.446 2.749-0.509 1.563-0.069 2.032-0.087 5.985-0.087 3.959 0 4.428 0.017 5.985 0.087 1.447 0.064 2.228 0.307 2.75 0.509 0.642 0.237 1.227 0.613 1.701 1.105 0.492 0.48 0.868 1.059 1.106 1.702 0.203 0.521 0.446 1.308 0.509 2.749 0.069 1.563 0.087 2.031 0.087 5.985s-0.017 4.416-0.087 5.979z"></path>
<path fill="#787a80" style="fill: var(--color2, #787a80)" d="M16.056 8.392c-4.202 0-7.611 3.409-7.611 7.611s3.409 7.611 7.611 7.611c4.202 0 7.611-3.409 7.611-7.611s-3.409-7.611-7.611-7.611zM16.056 20.941c-2.726 0-4.937-2.211-4.937-4.937s2.211-4.937 4.937-4.937c2.726 0 4.937 2.211 4.937 4.937s-2.211 4.937-4.937 4.937z"></path>
<path fill="#787a80" style="fill: var(--color2, #787a80)" d="M25.745 8.091c0 0.981-0.796 1.777-1.777 1.777s-1.777-0.796-1.777-1.777c0-0.982 0.796-1.777 1.777-1.777s1.777 0.795 1.777 1.777z"></path>
</symbol>
<symbol id="icon-line" viewBox="0 0 48 32">
<path fill="#ff3f3a" style="fill: var(--color11, #ff3f3a)" d="M31.448 2.114c1.041-1.041 2.73-1.041 3.771 0l12 12c1.041 1.041 1.041 2.73 0 3.771l-12 12c-1.041 1.041-2.73 1.041-3.771 0s-1.041-2.73 0-3.771l7.448-7.448h-36.229c-1.473 0-2.667-1.194-2.667-2.667s1.194-2.667 2.667-2.667h36.229l-7.448-7.448c-1.041-1.041-1.041-2.73 0-3.771z"></path>
</symbol>
<symbol id="icon-linkedin" viewBox="0 0 32 32">
<path fill="#787a80" style="fill: var(--color2, #787a80)" d="M30.808 30.815l0.007-0.001v-10.867c0-5.316-1.145-9.411-7.359-9.411-2.988 0-4.993 1.64-5.811 3.194h-0.086v-2.698h-5.893v19.782h6.136v-9.795c0-2.579 0.489-5.073 3.683-5.073 3.147 0 3.194 2.943 3.194 5.238v9.631h6.13z"></path>
<path fill="#787a80" style="fill: var(--color2, #787a80)" d="M1.675 11.034h6.143v19.782h-6.143v-19.782z"></path>
<path fill="#787a80" style="fill: var(--color2, #787a80)" d="M4.744 1.186c-1.964 0-3.558 1.594-3.558 3.558s1.594 3.591 3.558 3.591c1.964 0 3.558-1.627 3.558-3.591-0.001-1.964-1.595-3.558-3.558-3.558z"></path>
</symbol>
<symbol id="icon-listmark" viewBox="0 0 32 32">
<path fill="#ff3f3a" style="fill: var(--color11, #ff3f3a)" d="M16.001 30.667c8.087 0 14.667-6.579 14.667-14.667 0-1.396-0.195-2.771-0.581-4.089-0.19-0.648-0.866-1.020-1.516-0.83s-1.019 0.868-0.83 1.516c0.32 1.095 0.482 2.24 0.482 3.403 0 6.739-5.483 12.222-12.222 12.222s-12.222-5.483-12.222-12.222c0-6.739 5.483-12.222 12.222-12.222 2.449 0 4.806 0.716 6.814 2.071 0.559 0.377 1.32 0.229 1.696-0.33s0.23-1.319-0.33-1.697c-2.414-1.628-5.243-2.488-8.181-2.488-8.087 0-14.667 6.579-14.667 14.667s6.58 14.667 14.667 14.667z"></path>
<path fill="#ff3f3a" style="fill: var(--color11, #ff3f3a)" d="M29.724 3.058l-13.724 13.723-4.391-4.39c-0.521-0.521-1.365-0.521-1.885 0s-0.521 1.365 0 1.885l5.333 5.333c0.261 0.261 0.601 0.391 0.943 0.391s0.682-0.13 0.943-0.391l14.667-14.667c0.52-0.521 0.52-1.365 0-1.885s-1.365-0.521-1.885 0z"></path>
</symbol>
<symbol id="icon-podcast" viewBox="0 0 23 32">
<path fill="#424551" style="fill: var(--color1, #424551)" d="M4.016 8.973c0-4.020 3.259-7.278 7.278-7.278s7.278 3.259 7.278 7.278v6.024c0 4.020-3.259 7.278-7.278 7.278s-7.278-3.259-7.278-7.278v-6.024zM11.294 4.205c-2.634 0-4.769 2.135-4.769 4.769v6.024c0 2.634 2.135 4.769 4.769 4.769s4.769-2.135 4.769-4.769v-6.024c0-2.634-2.135-4.769-4.769-4.769z"></path>
<path fill="#424551" style="fill: var(--color1, #424551)" d="M1.255 11.734c0.693 0 1.255 0.562 1.255 1.255v2.008c0 4.851 3.933 8.784 8.784 8.784s8.784-3.933 8.784-8.784v-2.008c0-0.693 0.562-1.255 1.255-1.255s1.255 0.562 1.255 1.255v2.008c0 6.238-5.057 11.294-11.294 11.294s-11.294-5.057-11.294-11.294v-2.008c0-0.693 0.562-1.255 1.255-1.255z"></path>
<path fill="#424551" style="fill: var(--color1, #424551)" d="M11.294 24.785c0.693 0 1.255 0.562 1.255 1.255v1.757h2.761c0.693 0 1.255 0.562 1.255 1.255s-0.562 1.255-1.255 1.255h-8.031c-0.693 0-1.255-0.562-1.255-1.255s0.562-1.255 1.255-1.255h2.761v-1.757c0-0.693 0.562-1.255 1.255-1.255z"></path>
</symbol>
<symbol id="icon-rectangle" viewBox="0 0 16 32">
<path fill="#ff3f3a" style="fill: var(--color11, #ff3f3a)" d="M0 14.281c0-0.471 0.207-0.917 0.567-1.221l15.434-13.059v30.4c0 0.884-0.716 1.6-1.6 1.6h-12.8c-0.884 0-1.6-0.716-1.6-1.6v-16.119z"></path>
</symbol>
<symbol id="icon-twitter" viewBox="0 0 41 32">
<path fill="#787a80" style="fill: var(--color2, #787a80)" d="M40.571 4.138c-1.472 0.625-3.052 1.048-4.712 1.237 1.695-0.972 2.992-2.513 3.607-4.344-1.59 0.9-3.344 1.553-5.214 1.908-1.497-1.529-3.627-2.482-5.989-2.482-4.532 0-8.206 3.518-8.206 7.855 0 0.615 0.072 1.216 0.212 1.79-6.819-0.328-12.865-3.456-16.912-8.209-0.707 1.158-1.11 2.508-1.11 3.949 0 2.726 1.45 5.131 3.649 6.539-1.345-0.043-2.61-0.397-3.717-0.986v0.098c0 3.805 2.829 6.981 6.581 7.704-0.687 0.177-1.412 0.275-2.162 0.275-0.53 0-1.042-0.050-1.545-0.146 1.045 3.123 4.074 5.395 7.664 5.457-2.807 2.106-6.346 3.358-10.191 3.358-0.662 0-1.315-0.038-1.957-0.108 3.632 2.233 7.944 3.535 12.578 3.535 15.095 0 23.346-11.972 23.346-22.354l-0.028-1.017c1.612-1.101 3.007-2.484 4.104-4.059z"></path>
</symbol>
</defs>
</svg>
