<svg aria-hidden="true" style="position: absolute; width: 0; height: 0; overflow: hidden;" version="1.1" xmlns="http://www.w3.org/2000/svg" xmlns:xlink="http://www.w3.org/1999/xlink">
<defs>
<symbol id="icon-check" viewBox="0 0 32 32">
<path fill="#ff3f3a" style="fill: var(--color1, #ff3f3a)" d="M16 30.667c8.086 0 14.667-6.579 14.667-14.666 0-1.397-0.195-2.773-0.581-4.090-0.153-0.512-0.621-0.88-1.174-0.88-0.675 0-1.223 0.547-1.223 1.223 0 0.122 0.018 0.24 0.051 0.352l-0.002-0.009c0.32 1.094 0.483 2.24 0.483 3.403 0 6.739-5.483 12.222-12.224 12.222-6.738 0-12.221-5.483-12.221-12.224 0-6.738 5.483-12.221 12.222-12.221 2.448 0 4.805 0.715 6.814 2.070 0.19 0.127 0.423 0.203 0.674 0.203 0.675 0 1.222-0.547 1.222-1.222 0-0.416-0.208-0.784-0.526-1.005l-0.004-0.003c-2.285-1.558-5.106-2.488-8.145-2.488-0.013 0-0.025 0-0.038 0h0.002c-8.086 0-14.667 6.579-14.667 14.667 0 8.086 6.581 14.666 14.667 14.666z"></path>
<path fill="#ff3f3a" style="fill: var(--color1, #ff3f3a)" d="M29.723 3.058l-13.723 13.723-4.39-4.389c-0.241-0.242-0.575-0.391-0.943-0.391-0.736 0-1.333 0.597-1.333 1.333 0 0.368 0.149 0.701 0.39 0.942v0l5.334 5.333c0.241 0.242 0.574 0.392 0.942 0.392s0.702-0.15 0.942-0.392l14.667-14.666c0.241-0.241 0.391-0.575 0.391-0.943 0-0.737-0.597-1.334-1.334-1.334-0.368 0-0.702 0.149-0.943 0.391v0z"></path>
</symbol>
</defs>
</svg>
