<svg width="24" height="24" fill="none" xmlns="http://www.w3.org/2000/svg"><path fill-rule="evenodd" clip-rule="evenodd" d="M21.39 4.114a3.007 3.007 0 0 1 2.116 2.115c.514 1.878.494 5.792.494 5.792s0 3.895-.494 5.773a3.007 3.007 0 0 1-2.116 2.115c-1.878.495-9.39.495-9.39.495s-7.493 0-9.39-.514a3.007 3.007 0 0 1-2.116-2.116C0 15.916 0 12.001 0 12.001S0 8.107.494 6.23A3.068 3.068 0 0 1 2.61 4.094C4.488 3.6 12 3.6 12 3.6s7.513 0 9.391.514Zm-5.535 7.888L9.608 15.6V8.404l6.247 3.598Z" fill="#1E212C"/></svg>