<svg width="142" height="242" fill="none" xmlns="http://www.w3.org/2000/svg"><g opacity=".12" clip-path="url(#a)" fill="#FFCF2D"><path d="M121.083 0C54.147 0 0 54.147 0 121.083c0 66.77 54.147 121.083 121.083 121.083 66.77 0 121.083-54.147 121.083-121.083C242 54.147 187.853 0 121.083 0Zm0 234.36c-62.618 0-113.277-50.659-113.277-113.277S58.466 7.806 121.083 7.806c62.618 0 113.277 50.66 113.277 113.277 0 62.452-50.825 113.277-113.277 113.277Z"/><path d="M121.083 26.076c-52.32 0-94.84 42.52-94.84 94.84s42.52 94.84 94.84 94.84 94.84-42.354 94.84-94.674c0-52.486-42.52-95.006-94.84-95.006Zm0 175.23c-44.347 0-80.39-36.042-80.39-80.39 0-44.347 36.043-80.39 80.39-80.39 44.348 0 80.39 36.043 80.39 80.39 0 44.348-36.042 80.39-80.39 80.39Z"/></g><defs><clipPath id="a"><path fill="#fff" d="M0 0h242v242H0z"/></clipPath></defs></svg>