<svg width="132" height="258" fill="none" xmlns="http://www.w3.org/2000/svg"><g opacity=".4" clip-path="url(#a)" fill="#fff"><path d="M129.089 0C57.727 0 0 57.727 0 129.089c0 71.184 57.727 129.088 129.089 129.088 71.184 0 129.088-57.727 129.088-129.088C258 57.727 200.273 0 129.089 0Zm0 249.855c-66.758 0-120.766-54.009-120.766-120.766C8.323 62.331 62.33 8.323 129.089 8.323c66.757 0 120.766 54.008 120.766 120.766 0 66.58-54.186 120.766-120.766 120.766Z"/><path d="M129.089 27.8c-55.78 0-101.111 45.332-101.111 101.111s45.331 101.111 101.111 101.111c55.779 0 101.11-45.155 101.11-100.934 0-55.956-45.331-101.287-101.11-101.287Zm0 186.816c-47.28 0-85.705-38.425-85.705-85.705s38.425-85.705 85.705-85.705c47.279 0 85.704 38.426 85.704 85.705 0 47.28-38.425 85.705-85.704 85.705Z"/></g><defs><clipPath id="a"><path fill="#fff" d="M0 0h258v258H0z"/></clipPath></defs></svg>