<svg width="123" height="123" fill="none" xmlns="http://www.w3.org/2000/svg">
    <g opacity=".6" clip-path="url(#a)" fill="#fff">
        <path
            d="M61.54 0C29.73 0 4 25.731 4 57.54c0 31.73 25.731 57.539 57.54 57.539 31.73 0 57.539-25.731 57.539-57.54C119 25.731 93.269 0 61.539 0Zm0 111.369c-29.757 0-53.83-24.073-53.83-53.83 0-29.756 24.073-53.83 53.83-53.83 29.756 0 53.829 24.074 53.829 53.83 0 29.678-24.152 53.83-53.83 53.83Z" />
        <path
            d="M61.54 12.393c-24.863 0-45.07 20.206-45.07 45.068 0 24.863 20.207 45.069 45.07 45.069 24.862 0 45.068-20.127 45.068-44.99 0-24.941-20.206-45.147-45.069-45.147Zm0 83.27c-21.075 0-38.202-17.128-38.202-38.202 0-21.074 17.127-38.202 38.201-38.202 21.075 0 38.202 17.128 38.202 38.202 0 21.074-17.127 38.202-38.202 38.202Z" />
        <path
            d="M61.54 32.203c-13.97 0-25.336 11.366-25.336 25.336 0 13.97 11.286 25.337 25.336 25.337 13.97 0 25.336-11.366 25.336-25.337-.079-13.97-11.366-25.336-25.336-25.336Zm0 38.912c-7.498 0-13.576-6.077-13.576-13.576 0-7.498 6.078-13.575 13.576-13.575s13.576 6.077 13.576 13.575c0 7.499-6.078 13.576-13.576 13.576Z" />
    </g>
    <defs>
        <clipPath id="a">
            <path fill="#fff" transform="translate(4)" d="M0 0h115v115H0z" />
        </clipPath>

    </defs>
</svg>