<svg width="136" height="100" fill="none" xmlns="http://www.w3.org/2000/svg"><g opacity=".8" clip-path="url(#a)" fill="#FFCF2D"><path d="M3.88 29.39c0 1.11-.831 1.94-1.94 1.94C.832 31.33 0 30.5 0 29.39c0-1.109.832-1.94 1.94-1.94 1.109 0 1.94.923 1.94 1.94ZM20.419 29.39c0 1.11-.832 1.94-1.94 1.94-1.11 0-1.94-.83-1.94-1.94 0-1.109.83-1.94 1.94-1.94 1.016 0 1.94.923 1.94 1.94ZM36.864 29.39c0 1.11-.831 1.94-1.94 1.94s-1.94-.83-1.94-1.94c0-1.109.831-1.94 1.94-1.94s1.94.923 1.94 1.94ZM53.402 29.39c0 1.11-.831 1.94-1.94 1.94s-1.94-.83-1.94-1.94c0-1.109.831-1.94 1.94-1.94s1.94.923 1.94 1.94ZM69.94 29.39c0 1.11-.831 1.94-1.94 1.94s-1.94-.83-1.94-1.94c0-1.109.831-1.94 1.94-1.94 1.016 0 1.94.923 1.94 1.94ZM86.478 29.39c0 1.11-.831 1.94-1.94 1.94s-1.94-.83-1.94-1.94c0-1.109.831-1.94 1.94-1.94s1.94.923 1.94 1.94ZM102.924 29.39c0 1.11-.832 1.94-1.94 1.94-1.109 0-1.94-.83-1.94-1.94 0-1.109.831-1.94 1.94-1.94 1.108 0 1.94.923 1.94 1.94ZM119.462 29.39c0 1.11-.832 1.94-1.94 1.94-1.109 0-1.94-.83-1.94-1.94 0-1.109.831-1.94 1.94-1.94 1.108 0 1.94.923 1.94 1.94ZM136 29.39c0 1.11-.831 1.94-1.94 1.94s-1.94-.83-1.94-1.94c0-1.109.831-1.94 1.94-1.94 1.016 0 1.94.923 1.94 1.94ZM3.88 43.16c0 1.11-.831 1.941-1.94 1.941-1.108 0-1.94-.831-1.94-1.94 0-1.11.832-1.941 1.94-1.941 1.109 0 1.94.831 1.94 1.94ZM20.419 43.16c0 1.11-.832 1.941-1.94 1.941-1.11 0-1.94-.831-1.94-1.94 0-1.11.83-1.941 1.94-1.941 1.016 0 1.94.831 1.94 1.94ZM36.864 43.16c0 1.11-.831 1.941-1.94 1.941s-1.94-.831-1.94-1.94c0-1.11.831-1.941 1.94-1.941s1.94.831 1.94 1.94ZM53.402 43.16c0 1.11-.831 1.941-1.94 1.941s-1.94-.831-1.94-1.94c0-1.11.831-1.941 1.94-1.941s1.94.831 1.94 1.94ZM69.94 43.16c0 1.11-.831 1.941-1.94 1.941s-1.94-.831-1.94-1.94c0-1.11.831-1.941 1.94-1.941 1.016 0 1.94.831 1.94 1.94ZM86.478 43.16c0 1.11-.831 1.941-1.94 1.941s-1.94-.831-1.94-1.94c0-1.11.831-1.941 1.94-1.941s1.94.831 1.94 1.94ZM102.924 43.16c0 1.11-.832 1.941-1.94 1.941-1.109 0-1.94-.831-1.94-1.94 0-1.11.831-1.941 1.94-1.941 1.108 0 1.94.831 1.94 1.94ZM119.462 43.16c0 1.11-.832 1.941-1.94 1.941-1.109 0-1.94-.831-1.94-1.94 0-1.11.831-1.941 1.94-1.941 1.108 0 1.94.831 1.94 1.94ZM136 43.16c0 1.11-.831 1.941-1.94 1.941s-1.94-.831-1.94-1.94c0-1.11.831-1.941 1.94-1.941 1.016 0 1.94.831 1.94 1.94ZM3.88 1.94c0 1.11-.831 1.942-1.94 1.942C.832 3.882 0 3.05 0 1.94 0 .83.832 0 1.94 0 3.05 0 3.88.832 3.88 1.94ZM20.419 1.94c0 1.11-.832 1.942-1.94 1.942-1.11 0-1.94-.832-1.94-1.941 0-1.11.83-1.941 1.94-1.941 1.016 0 1.94.832 1.94 1.94ZM36.864 1.94c0 1.11-.831 1.942-1.94 1.942s-1.94-.832-1.94-1.941c0-1.11.924-1.941 1.94-1.941 1.109 0 1.94.832 1.94 1.94ZM53.402 1.94c0 1.11-.831 1.942-1.94 1.942s-1.94-.832-1.94-1.941c0-1.11.924-1.941 1.94-1.941s1.94.832 1.94 1.94ZM69.94 1.94c0 1.11-.831 1.942-1.94 1.942s-1.94-.832-1.94-1.941C66.06.83 66.89 0 68 0c1.016 0 1.94.832 1.94 1.94ZM86.478 1.94c0 1.11-.831 1.942-1.94 1.942s-1.94-.832-1.94-1.941c0-1.11.831-1.941 1.94-1.941s1.94.832 1.94 1.94ZM102.924 1.94c0 1.11-.832 1.942-1.94 1.942-1.109 0-1.94-.832-1.94-1.941 0-1.11.831-1.941 1.94-1.941 1.108 0 1.94.832 1.94 1.94ZM119.462 1.94c0 1.11-.832 1.942-1.94 1.942-1.109 0-1.94-.832-1.94-1.941 0-1.11.831-1.941 1.94-1.941 1.108 0 1.94.832 1.94 1.94ZM136 1.94c0 1.11-.831 1.942-1.94 1.942s-1.94-.832-1.94-1.941c0-1.11.831-1.941 1.94-1.941 1.016 0 1.94.832 1.94 1.94ZM3.88 15.711c0 1.11-.831 1.941-1.94 1.941-1.108 0-1.94-.924-1.94-1.94 0-1.11.832-1.941 1.94-1.941 1.109 0 1.94.831 1.94 1.94ZM20.419 15.711c0 1.11-.832 1.941-1.94 1.941-1.11 0-1.94-.832-1.94-1.94 0-1.11.83-1.941 1.94-1.941 1.016 0 1.94.831 1.94 1.94ZM36.864 15.711c0 1.11-.831 1.941-1.94 1.941s-1.94-.832-1.94-1.94c0-1.11.831-1.941 1.94-1.941s1.94.831 1.94 1.94ZM53.402 15.711c0 1.11-.831 1.941-1.94 1.941s-1.94-.832-1.94-1.94c0-1.11.831-1.941 1.94-1.941s1.94.831 1.94 1.94ZM69.94 15.711c0 1.11-.831 1.941-1.94 1.941s-1.94-.832-1.94-1.94c0-1.11.831-1.941 1.94-1.941 1.016 0 1.94.831 1.94 1.94ZM86.478 15.711c0 1.11-.831 1.941-1.94 1.941s-1.94-.832-1.94-1.94c0-1.11.831-1.941 1.94-1.941s1.94.831 1.94 1.94ZM102.924 15.711c0 1.11-.832 1.941-1.94 1.941-1.109 0-1.94-.832-1.94-1.94 0-1.11.831-1.941 1.94-1.941 1.108 0 1.94.831 1.94 1.94ZM119.462 15.711c0 1.11-.832 1.941-1.94 1.941-1.109 0-1.94-.832-1.94-1.94 0-1.11.831-1.941 1.94-1.941 1.108 0 1.94.831 1.94 1.94ZM136 15.711c0 1.11-.831 1.941-1.94 1.941s-1.94-.832-1.94-1.94c0-1.11.831-1.941 1.94-1.941 1.016 0 1.94.831 1.94 1.94ZM3.88 56.84c0 1.108-.831 1.94-1.94 1.94-1.108 0-1.94-.832-1.94-1.94 0-1.11.832-1.942 1.94-1.942 1.109 0 1.94.925 1.94 1.941ZM20.419 56.84c0 1.108-.832 1.94-1.94 1.94-1.11 0-1.94-.832-1.94-1.94 0-1.11.83-1.942 1.94-1.942 1.016 0 1.94.925 1.94 1.941ZM36.864 56.84c0 1.108-.831 1.94-1.94 1.94s-1.94-.832-1.94-1.94c0-1.11.831-1.942 1.94-1.942s1.94.925 1.94 1.941ZM53.402 56.84c0 1.108-.831 1.94-1.94 1.94s-1.94-.832-1.94-1.94c0-1.11.831-1.942 1.94-1.942s1.94.925 1.94 1.941ZM69.94 56.84c0 1.108-.831 1.94-1.94 1.94s-1.94-.832-1.94-1.94c0-1.11.831-1.942 1.94-1.942 1.016 0 1.94.925 1.94 1.941ZM86.478 56.84c0 1.108-.831 1.94-1.94 1.94s-1.94-.832-1.94-1.94c0-1.11.831-1.942 1.94-1.942s1.94.925 1.94 1.941ZM102.924 56.84c0 1.108-.832 1.94-1.94 1.94-1.109 0-1.94-.832-1.94-1.94 0-1.11.831-1.942 1.94-1.942 1.108 0 1.94.925 1.94 1.941ZM119.462 56.84c0 1.108-.832 1.94-1.94 1.94-1.109 0-1.94-.832-1.94-1.94 0-1.11.831-1.942 1.94-1.942 1.108 0 1.94.925 1.94 1.941ZM136 56.84c0 1.108-.831 1.94-1.94 1.94s-1.94-.832-1.94-1.94c0-1.11.831-1.942 1.94-1.942 1.016 0 1.94.925 1.94 1.941ZM3.88 70.61c0 1.109-.831 1.94-1.94 1.94C.832 72.55 0 71.72 0 70.61c0-1.11.832-1.941 1.94-1.941 1.109 0 1.94.832 1.94 1.94ZM20.419 70.61c0 1.109-.832 1.94-1.94 1.94-1.11 0-1.94-.831-1.94-1.94 0-1.11.83-1.941 1.94-1.941 1.016 0 1.94.832 1.94 1.94ZM36.864 70.61c0 1.109-.831 1.94-1.94 1.94s-1.94-.831-1.94-1.94c0-1.11.831-1.941 1.94-1.941s1.94.832 1.94 1.94ZM51.462 72.55a1.94 1.94 0 1 0 0-3.88 1.94 1.94 0 0 0 0 3.88ZM69.94 70.61c0 1.109-.831 1.94-1.94 1.94s-1.94-.831-1.94-1.94c0-1.11.831-1.941 1.94-1.941 1.016 0 1.94.832 1.94 1.94ZM86.478 70.61c0 1.109-.831 1.94-1.94 1.94s-1.94-.831-1.94-1.94c0-1.11.831-1.941 1.94-1.941s1.94.832 1.94 1.94ZM102.924 70.61c0 1.109-.832 1.94-1.94 1.94-1.109 0-1.94-.831-1.94-1.94 0-1.11.831-1.941 1.94-1.941 1.108 0 1.94.832 1.94 1.94ZM117.522 72.55a1.94 1.94 0 1 0-.001-3.88 1.94 1.94 0 0 0 .001 3.88ZM136 70.61c0 1.109-.831 1.94-1.94 1.94s-1.94-.831-1.94-1.94c0-1.11.831-1.941 1.94-1.941 1.016 0 1.94.832 1.94 1.94ZM3.88 84.381c0 1.11-.831 1.941-1.94 1.941-1.108 0-1.94-.832-1.94-1.94 0-1.11.832-1.942 1.94-1.942 1.109 0 1.94.832 1.94 1.941ZM20.419 84.381c0 1.11-.832 1.941-1.94 1.941-1.11 0-1.94-.832-1.94-1.94 0-1.11.83-1.942 1.94-1.942 1.016 0 1.94.832 1.94 1.941ZM36.864 84.381c0 1.11-.831 1.941-1.94 1.941s-1.94-.832-1.94-1.94c0-1.11.831-1.942 1.94-1.942s1.94.832 1.94 1.941ZM53.402 84.381c0 1.11-.831 1.941-1.94 1.941s-1.94-.832-1.94-1.94c0-1.11.831-1.942 1.94-1.942s1.94.832 1.94 1.941ZM69.94 84.381c0 1.11-.831 1.941-1.94 1.941s-1.94-.832-1.94-1.94c0-1.11.831-1.942 1.94-1.942 1.016 0 1.94.832 1.94 1.941ZM86.478 84.381c0 1.11-.831 1.941-1.94 1.941s-1.94-.832-1.94-1.94c0-1.11.831-1.942 1.94-1.942s1.94.832 1.94 1.941ZM102.924 84.381c0 1.11-.832 1.941-1.94 1.941-1.109 0-1.94-.832-1.94-1.94 0-1.11.831-1.942 1.94-1.942 1.108 0 1.94.832 1.94 1.941ZM119.462 84.381c0 1.11-.832 1.941-1.94 1.941-1.109 0-1.94-.832-1.94-1.94 0-1.11.831-1.942 1.94-1.942 1.108 0 1.94.832 1.94 1.941ZM136 84.381c0 1.11-.831 1.941-1.94 1.941s-1.94-.832-1.94-1.94c0-1.11.831-1.942 1.94-1.942 1.016 0 1.94.832 1.94 1.941ZM3.88 98.059c0 1.11-.831 1.94-1.94 1.94C.832 100 0 99.17 0 98.06c0-1.109.832-1.94 1.94-1.94 1.109 0 1.94.923 1.94 1.94ZM20.419 98.059c0 1.11-.832 1.94-1.94 1.94-1.11 0-1.94-.83-1.94-1.94 0-1.109.83-1.94 1.94-1.94 1.016 0 1.94.923 1.94 1.94ZM36.864 98.059c0 1.11-.831 1.94-1.94 1.94s-1.94-.83-1.94-1.94c0-1.109.831-1.94 1.94-1.94s1.94.923 1.94 1.94ZM53.402 98.059c0 1.11-.831 1.94-1.94 1.94s-1.94-.83-1.94-1.94c0-1.109.831-1.94 1.94-1.94s1.94.923 1.94 1.94ZM69.94 98.059c0 1.11-.831 1.94-1.94 1.94s-1.94-.83-1.94-1.94c0-1.109.831-1.94 1.94-1.94 1.016 0 1.94.923 1.94 1.94ZM86.478 98.059c0 1.11-.831 1.94-1.94 1.94s-1.94-.83-1.94-1.94c0-1.109.831-1.94 1.94-1.94s1.94.923 1.94 1.94ZM102.924 98.059c0 1.11-.832 1.94-1.94 1.94-1.109 0-1.94-.83-1.94-1.94 0-1.109.831-1.94 1.94-1.94 1.108 0 1.94.923 1.94 1.94ZM119.462 98.059c0 1.11-.832 1.94-1.94 1.94-1.109 0-1.94-.83-1.94-1.94 0-1.109.831-1.94 1.94-1.94 1.108 0 1.94.923 1.94 1.94ZM136 98.059c0 1.11-.831 1.94-1.94 1.94s-1.94-.83-1.94-1.94c0-1.109.831-1.94 1.94-1.94 1.016 0 1.94.923 1.94 1.94Z"/></g><defs><clipPath id="a"><path fill="#fff" d="M0 0h136v100H0z"/></clipPath></defs></svg>