<svg width="143" height="105" fill="none" xmlns="http://www.w3.org/2000/svg"><path d="M4.08 30.86c0 1.165-.874 2.038-2.04 2.038S0 32.025 0 30.86c0-1.164.874-2.038 2.04-2.038s2.04.97 2.04 2.038ZM21.47 30.86c0 1.165-.875 2.038-2.04 2.038-1.166 0-2.04-.873-2.04-2.038 0-1.164.873-2.038 2.04-2.038 1.068 0 2.04.97 2.04 2.038ZM38.762 30.86c0 1.165-.874 2.038-2.04 2.038s-2.04-.873-2.04-2.038c0-1.164.874-2.038 2.04-2.038s2.04.97 2.04 2.038ZM56.151 30.86c0 1.165-.874 2.038-2.04 2.038s-2.04-.873-2.04-2.038c0-1.164.874-2.038 2.04-2.038s2.04.97 2.04 2.038ZM73.54 30.86c0 1.165-.874 2.038-2.04 2.038s-2.04-.873-2.04-2.038c0-1.164.874-2.038 2.04-2.038 1.069 0 2.04.97 2.04 2.038ZM90.93 30.86c0 1.165-.875 2.038-2.04 2.038-1.167 0-2.04-.873-2.04-2.038 0-1.164.873-2.038 2.04-2.038 1.165 0 2.04.97 2.04 2.038ZM108.222 30.86c0 1.165-.875 2.038-2.04 2.038-1.166 0-2.04-.873-2.04-2.038 0-1.164.874-2.038 2.04-2.038 1.165 0 2.04.97 2.04 2.038ZM125.611 30.86c0 1.165-.874 2.038-2.04 2.038s-2.04-.873-2.04-2.038c0-1.164.874-2.038 2.04-2.038s2.04.97 2.04 2.038ZM143 30.86c0 1.165-.874 2.038-2.04 2.038s-2.04-.873-2.04-2.038c0-1.164.874-2.038 2.04-2.038 1.069 0 2.04.97 2.04 2.038ZM4.08 45.32c0 1.164-.874 2.037-2.04 2.037S0 46.484 0 45.319c0-1.164.874-2.038 2.04-2.038s2.04.874 2.04 2.038ZM21.47 45.32c0 1.164-.875 2.037-2.04 2.037-1.166 0-2.04-.873-2.04-2.038 0-1.164.873-2.038 2.04-2.038 1.068 0 2.04.874 2.04 2.038ZM38.762 45.32c0 1.164-.874 2.037-2.04 2.037s-2.04-.873-2.04-2.038c0-1.164.874-2.038 2.04-2.038s2.04.874 2.04 2.038ZM56.151 45.32c0 1.164-.874 2.037-2.04 2.037s-2.04-.873-2.04-2.038c0-1.164.874-2.038 2.04-2.038s2.04.874 2.04 2.038ZM73.54 45.32c0 1.164-.874 2.037-2.04 2.037s-2.04-.873-2.04-2.038c0-1.164.874-2.038 2.04-2.038 1.069 0 2.04.874 2.04 2.038ZM90.93 45.32c0 1.164-.875 2.037-2.04 2.037-1.167 0-2.04-.873-2.04-2.038 0-1.164.873-2.038 2.04-2.038 1.165 0 2.04.874 2.04 2.038ZM108.222 45.32c0 1.164-.875 2.037-2.04 2.037-1.166 0-2.04-.873-2.04-2.038 0-1.164.874-2.038 2.04-2.038 1.165 0 2.04.874 2.04 2.038ZM125.611 45.32c0 1.164-.874 2.037-2.04 2.037s-2.04-.873-2.04-2.038c0-1.164.874-2.038 2.04-2.038s2.04.874 2.04 2.038ZM143 45.32c0 1.164-.874 2.037-2.04 2.037s-2.04-.873-2.04-2.038c0-1.164.874-2.038 2.04-2.038 1.069 0 2.04.874 2.04 2.038ZM4.08 2.038c0 1.164-.874 2.038-2.04 2.038S0 3.202 0 2.038C0 .873.874 0 2.04 0s2.04.873 2.04 2.038ZM21.47 2.038c0 1.164-.875 2.038-2.04 2.038-1.166 0-2.04-.874-2.04-2.038C17.39.873 18.262 0 19.43 0c1.068 0 2.04.873 2.04 2.038ZM38.762 2.038c0 1.164-.874 2.038-2.04 2.038s-2.04-.874-2.04-2.038c0-1.165.971-2.038 2.04-2.038 1.166 0 2.04.873 2.04 2.038ZM56.151 2.038c0 1.164-.874 2.038-2.04 2.038s-2.04-.874-2.04-2.038C52.07.873 53.042 0 54.11 0s2.04.873 2.04 2.038ZM73.54 2.038c0 1.164-.874 2.038-2.04 2.038s-2.04-.874-2.04-2.038C69.46.873 70.334 0 71.5 0c1.069 0 2.04.873 2.04 2.038ZM90.93 2.038c0 1.164-.875 2.038-2.04 2.038-1.167 0-2.04-.874-2.04-2.038C86.85.873 87.722 0 88.89 0c1.165 0 2.04.873 2.04 2.038ZM108.222 2.038c0 1.164-.875 2.038-2.04 2.038-1.166 0-2.04-.874-2.04-2.038 0-1.165.874-2.038 2.04-2.038 1.165 0 2.04.873 2.04 2.038ZM125.611 2.038c0 1.164-.874 2.038-2.04 2.038s-2.04-.874-2.04-2.038c0-1.165.874-2.038 2.04-2.038s2.04.873 2.04 2.038ZM143 2.038c0 1.164-.874 2.038-2.04 2.038s-2.04-.874-2.04-2.038c0-1.165.874-2.038 2.04-2.038 1.069 0 2.04.873 2.04 2.038ZM4.08 16.497c0 1.164-.874 2.038-2.04 2.038S0 17.565 0 16.497c0-1.165.874-2.038 2.04-2.038s2.04.873 2.04 2.038ZM21.47 16.497c0 1.164-.875 2.038-2.04 2.038-1.166 0-2.04-.874-2.04-2.038 0-1.165.873-2.038 2.04-2.038 1.068 0 2.04.873 2.04 2.038ZM38.762 16.497c0 1.164-.874 2.038-2.04 2.038s-2.04-.874-2.04-2.038c0-1.165.874-2.038 2.04-2.038s2.04.873 2.04 2.038ZM56.151 16.497c0 1.164-.874 2.038-2.04 2.038s-2.04-.874-2.04-2.038c0-1.165.874-2.038 2.04-2.038s2.04.873 2.04 2.038ZM73.54 16.497c0 1.164-.874 2.038-2.04 2.038s-2.04-.874-2.04-2.038c0-1.165.874-2.038 2.04-2.038 1.069 0 2.04.873 2.04 2.038ZM90.93 16.497c0 1.164-.875 2.038-2.04 2.038-1.167 0-2.04-.874-2.04-2.038 0-1.165.873-2.038 2.04-2.038 1.165 0 2.04.873 2.04 2.038ZM108.222 16.497c0 1.164-.875 2.038-2.04 2.038-1.166 0-2.04-.874-2.04-2.038 0-1.165.874-2.038 2.04-2.038 1.165 0 2.04.873 2.04 2.038ZM125.611 16.497c0 1.164-.874 2.038-2.04 2.038s-2.04-.874-2.04-2.038c0-1.165.874-2.038 2.04-2.038s2.04.873 2.04 2.038ZM143 16.497c0 1.164-.874 2.038-2.04 2.038s-2.04-.874-2.04-2.038c0-1.165.874-2.038 2.04-2.038 1.069 0 2.04.873 2.04 2.038ZM4.08 59.68c0 1.165-.874 2.038-2.04 2.038S0 60.845 0 59.68c0-1.164.874-2.037 2.04-2.037s2.04.97 2.04 2.038ZM21.47 59.68c0 1.165-.875 2.038-2.04 2.038-1.166 0-2.04-.873-2.04-2.038 0-1.164.873-2.037 2.04-2.037 1.068 0 2.04.97 2.04 2.038ZM38.762 59.68c0 1.165-.874 2.038-2.04 2.038s-2.04-.873-2.04-2.038c0-1.164.874-2.037 2.04-2.037s2.04.97 2.04 2.038ZM56.151 59.68c0 1.165-.874 2.038-2.04 2.038s-2.04-.873-2.04-2.038c0-1.164.874-2.037 2.04-2.037s2.04.97 2.04 2.038ZM73.54 59.68c0 1.165-.874 2.038-2.04 2.038s-2.04-.873-2.04-2.038c0-1.164.874-2.037 2.04-2.037 1.069 0 2.04.97 2.04 2.038ZM90.93 59.68c0 1.165-.875 2.038-2.04 2.038-1.167 0-2.04-.873-2.04-2.038 0-1.164.873-2.037 2.04-2.037 1.165 0 2.04.97 2.04 2.038ZM108.222 59.68c0 1.165-.875 2.038-2.04 2.038-1.166 0-2.04-.873-2.04-2.038 0-1.164.874-2.037 2.04-2.037 1.165 0 2.04.97 2.04 2.038ZM125.611 59.68c0 1.165-.874 2.038-2.04 2.038s-2.04-.873-2.04-2.038c0-1.164.874-2.037 2.04-2.037s2.04.97 2.04 2.038ZM143 59.68c0 1.165-.874 2.038-2.04 2.038s-2.04-.873-2.04-2.038c0-1.164.874-2.037 2.04-2.037 1.069 0 2.04.97 2.04 2.038ZM4.08 74.14c0 1.164-.874 2.037-2.04 2.037S0 75.304 0 74.14c0-1.164.874-2.037 2.04-2.037s2.04.873 2.04 2.037ZM21.47 74.14c0 1.164-.875 2.037-2.04 2.037-1.166 0-2.04-.873-2.04-2.038 0-1.164.873-2.037 2.04-2.037 1.068 0 2.04.873 2.04 2.037ZM38.762 74.14c0 1.164-.874 2.037-2.04 2.037s-2.04-.873-2.04-2.038c0-1.164.874-2.037 2.04-2.037s2.04.873 2.04 2.037ZM54.11 76.177a2.039 2.039 0 1 0-2.04-2.038c0 1.126.914 2.038 2.04 2.038ZM73.54 74.14c0 1.164-.874 2.037-2.04 2.037s-2.04-.873-2.04-2.038c0-1.164.874-2.037 2.04-2.037 1.069 0 2.04.873 2.04 2.037ZM90.93 74.14c0 1.164-.875 2.037-2.04 2.037-1.167 0-2.04-.873-2.04-2.038 0-1.164.873-2.037 2.04-2.037 1.165 0 2.04.873 2.04 2.037ZM108.222 74.14c0 1.164-.875 2.037-2.04 2.037-1.166 0-2.04-.873-2.04-2.038 0-1.164.874-2.037 2.04-2.037 1.165 0 2.04.873 2.04 2.037ZM123.571 76.177a2.039 2.039 0 1 0 0-4.075 2.039 2.039 0 1 0 0 4.075ZM143 74.14c0 1.164-.874 2.037-2.04 2.037s-2.04-.873-2.04-2.038c0-1.164.874-2.037 2.04-2.037 1.069 0 2.04.873 2.04 2.037ZM4.08 88.6c0 1.165-.874 2.038-2.04 2.038S0 89.765 0 88.6c0-1.164.874-2.037 2.04-2.037s2.04.873 2.04 2.037ZM21.47 88.6c0 1.165-.875 2.038-2.04 2.038-1.166 0-2.04-.873-2.04-2.038 0-1.164.873-2.037 2.04-2.037 1.068 0 2.04.873 2.04 2.037ZM38.762 88.6c0 1.165-.874 2.038-2.04 2.038s-2.04-.873-2.04-2.038c0-1.164.874-2.037 2.04-2.037s2.04.873 2.04 2.037ZM56.151 88.6c0 1.165-.874 2.038-2.04 2.038s-2.04-.873-2.04-2.038c0-1.164.874-2.037 2.04-2.037s2.04.873 2.04 2.037ZM73.54 88.6c0 1.165-.874 2.038-2.04 2.038s-2.04-.873-2.04-2.038c0-1.164.874-2.037 2.04-2.037 1.069 0 2.04.873 2.04 2.037ZM90.93 88.6c0 1.165-.875 2.038-2.04 2.038-1.167 0-2.04-.873-2.04-2.038 0-1.164.873-2.037 2.04-2.037 1.165 0 2.04.873 2.04 2.037ZM108.222 88.6c0 1.165-.875 2.038-2.04 2.038-1.166 0-2.04-.873-2.04-2.038 0-1.164.874-2.037 2.04-2.037 1.165 0 2.04.873 2.04 2.037ZM125.611 88.6c0 1.165-.874 2.038-2.04 2.038s-2.04-.873-2.04-2.038c0-1.164.874-2.037 2.04-2.037s2.04.873 2.04 2.037ZM143 88.6c0 1.165-.874 2.038-2.04 2.038s-2.04-.873-2.04-2.038c0-1.164.874-2.037 2.04-2.037 1.069 0 2.04.873 2.04 2.037ZM4.08 102.962c0 1.164-.874 2.038-2.04 2.038S0 104.126 0 102.962c0-1.165.874-2.038 2.04-2.038s2.04.97 2.04 2.038ZM21.47 102.962c0 1.164-.875 2.038-2.04 2.038-1.166 0-2.04-.874-2.04-2.038 0-1.165.873-2.038 2.04-2.038 1.068 0 2.04.97 2.04 2.038ZM38.762 102.962c0 1.164-.874 2.038-2.04 2.038s-2.04-.874-2.04-2.038c0-1.165.874-2.038 2.04-2.038s2.04.97 2.04 2.038ZM56.151 102.962c0 1.164-.874 2.038-2.04 2.038s-2.04-.874-2.04-2.038c0-1.165.874-2.038 2.04-2.038s2.04.97 2.04 2.038ZM73.54 102.962c0 1.164-.874 2.038-2.04 2.038s-2.04-.874-2.04-2.038c0-1.165.874-2.038 2.04-2.038 1.069 0 2.04.97 2.04 2.038ZM90.93 102.962c0 1.164-.875 2.038-2.04 2.038-1.167 0-2.04-.874-2.04-2.038 0-1.165.873-2.038 2.04-2.038 1.165 0 2.04.97 2.04 2.038ZM108.222 102.962c0 1.164-.875 2.038-2.04 2.038-1.166 0-2.04-.874-2.04-2.038 0-1.165.874-2.038 2.04-2.038 1.165 0 2.04.97 2.04 2.038ZM125.611 102.962c0 1.164-.874 2.038-2.04 2.038s-2.04-.874-2.04-2.038c0-1.165.874-2.038 2.04-2.038s2.04.97 2.04 2.038ZM143 102.962c0 1.164-.874 2.038-2.04 2.038s-2.04-.874-2.04-2.038c0-1.165.874-2.038 2.04-2.038 1.069 0 2.04.97 2.04 2.038Z" fill="#fff"/></svg>