<svg width="525" height="620" viewBox="0 0 525 620" fill="none" xmlns="http://www.w3.org/2000/svg">
<path d="M522.288 619.211L357.62 619.671C337.436 619.89 315.996 620 293.759 620C239.633 620 190.159 619.299 152.32 618.138H0C0 575.956 29.6119 594.484 37.42 601.931C46.4991 610.582 34.808 564.523 53.3434 564.523C69.2109 564.523 78.29 577.029 78.29 577.029C78.29 577.029 78.7231 552.718 93.7665 552.368C108.81 552.017 118.364 572.802 130.237 589.907C135.139 596.959 141.034 602.566 146.607 606.837C185.117 605.567 236.854 604.778 293.759 604.778C320.717 604.778 346.502 604.953 370.289 605.282C412.556 605.282 451.261 570.436 462.24 561.698C489.365 540.059 476.515 591.637 476.515 591.637C476.515 591.637 497.425 577.839 512.133 577.949C532.903 578.08 522.288 619.211 522.288 619.211Z" fill="#D0F0E4"/>
<path fill-rule="evenodd" clip-rule="evenodd" d="M351.7 539.473L352.525 539.842C373.864 549.397 382.86 569.014 386.53 586.13C388.366 594.693 388.876 602.659 388.928 608.482C388.954 611.394 388.865 613.773 388.77 615.426C388.722 616.252 388.673 616.897 388.635 617.337C388.616 617.557 388.601 617.726 388.589 617.84C388.584 617.897 388.579 617.941 388.576 617.97L388.573 618.004L388.572 618.013L388.571 618.015C388.571 618.016 388.571 618.017 387.924 617.944C387.276 617.872 387.276 617.872 387.276 617.871L387.276 617.87L387.277 617.863L387.28 617.833C387.283 617.806 387.287 617.765 387.292 617.711C387.303 617.602 387.319 617.439 387.337 617.225C387.373 616.796 387.422 616.163 387.469 615.35C387.563 613.722 387.651 611.373 387.625 608.493C387.574 602.732 387.069 594.86 385.256 586.406C381.677 569.714 373.029 550.867 352.827 541.421C352.788 541.872 352.739 542.479 352.684 543.223C352.556 544.954 352.395 547.423 352.269 550.372C352.016 556.275 351.897 564.092 352.432 571.771C352.793 576.948 353.449 582.03 354.548 586.412C357.586 587.615 360.225 588.952 362.405 590.303C365.782 592.396 368.138 594.573 369.129 596.409C369.622 597.323 369.845 598.283 369.496 599.127C369.139 599.99 368.287 600.487 367.2 600.704L367.199 600.704C364.399 601.26 362.011 600.684 360.017 599.229C358.047 597.79 356.505 595.526 355.293 592.772C354.579 591.15 353.971 589.339 353.455 587.393C347.546 585.13 340.133 583.385 331.649 583.046C331.742 583.194 331.846 583.357 331.959 583.533C332.582 584.504 333.502 585.894 334.687 587.564C337.057 590.906 340.482 595.364 344.702 599.836C353.172 608.812 364.713 617.698 377.272 617.944L377.247 619.256C364.132 618.999 352.271 609.762 343.757 600.739C339.484 596.211 336.021 591.702 333.626 588.326C332.429 586.637 331.497 585.231 330.864 584.245C330.548 583.752 330.306 583.364 330.143 583.099C330.061 582.966 330 582.864 329.958 582.795C329.937 582.76 329.921 582.734 329.91 582.716L329.898 582.695L329.894 582.688C329.894 582.688 329.894 582.687 330.453 582.352L329.894 582.687L329.291 581.668L330.469 581.696C339.201 581.904 346.882 583.585 353.071 585.849C352.071 581.56 351.471 576.722 351.132 571.863C350.592 564.115 350.713 556.245 350.967 550.316C351.094 547.35 351.255 544.868 351.384 543.126C351.449 542.255 351.506 541.569 351.546 541.1C351.567 540.866 351.583 540.685 351.594 540.564C351.6 540.503 351.604 540.457 351.607 540.425L351.61 540.39L351.611 540.378C351.611 540.378 351.612 540.377 352.26 540.441L351.612 540.377L351.7 539.473ZM354.975 588C355.415 589.526 355.916 590.949 356.484 592.241C357.646 594.881 359.069 596.916 360.782 598.167C362.473 599.401 364.49 599.905 366.946 599.417C367.829 599.241 368.174 598.909 368.293 598.622C368.42 598.316 368.399 597.803 367.984 597.035C367.158 595.505 365.038 593.476 361.722 591.42C359.825 590.245 357.562 589.076 354.975 588Z" fill="#FFCF2D"/>
<path fill-rule="evenodd" clip-rule="evenodd" d="M409.49 583.137C408.561 583.236 407.393 583.499 405.951 583.961C393.172 588.07 386.189 596.714 382.391 604.35C380.49 608.171 379.389 611.736 378.764 614.345C378.452 615.648 378.258 616.711 378.144 617.446C378.086 617.813 378.048 618.098 378.025 618.289C378.013 618.385 378.005 618.457 378 618.505C377.998 618.529 377.996 618.547 377.995 618.558L377.994 618.57L377.993 618.572L377.993 618.573C377.993 618.573 377.993 618.572 377.345 618.513C376.696 618.453 376.696 618.453 376.696 618.452L376.696 618.451L376.696 618.446L376.698 618.429C376.699 618.414 376.702 618.393 376.704 618.366C376.71 618.312 376.719 618.233 376.732 618.13C376.757 617.924 376.796 617.625 376.856 617.242C376.976 616.477 377.176 615.379 377.497 614.037C378.14 611.355 379.271 607.692 381.225 603.763C385.137 595.898 392.359 586.954 405.555 582.711L405.556 582.711C407.047 582.233 408.307 581.944 409.353 581.832C410.393 581.721 411.269 581.781 411.964 582.047C412.685 582.323 413.192 582.817 413.449 583.495C413.696 584.144 413.69 584.897 413.541 585.681C413.243 587.242 412.321 589.183 411.053 591.293C409.776 593.418 408.11 595.774 406.27 598.177C402.588 602.983 398.176 608.019 394.689 611.849C392.944 613.764 391.429 615.381 390.35 616.518C389.811 617.087 389.38 617.536 389.084 617.843C388.936 617.997 388.822 618.115 388.744 618.195C388.705 618.235 388.676 618.265 388.656 618.286L388.626 618.316C388.626 618.317 388.626 618.317 388.161 617.857C387.696 617.397 387.696 617.397 387.697 617.397L387.725 617.368C387.745 617.348 387.774 617.318 387.812 617.278C387.888 617.2 388.002 617.083 388.148 616.93C388.442 616.625 388.871 616.178 389.408 615.612C390.482 614.48 391.991 612.87 393.728 610.962C397.205 607.144 401.589 602.139 405.238 597.376C407.062 594.993 408.696 592.681 409.938 590.614C411.19 588.532 412.009 586.756 412.261 585.434C412.386 584.775 412.358 584.295 412.232 583.963C412.117 583.661 411.902 583.427 411.501 583.273C411.073 583.109 410.427 583.037 409.49 583.137Z" fill="#FFCF2D"/>
<path fill-rule="evenodd" clip-rule="evenodd" d="M129.685 514.944L129.239 515.256C129.685 514.944 129.685 514.944 129.685 514.945L129.686 514.946L129.688 514.949L129.694 514.958C129.699 514.965 129.706 514.975 129.714 514.988C129.731 515.014 129.754 515.05 129.784 515.099C129.844 515.196 129.93 515.34 130.037 515.535C130.253 515.926 130.556 516.521 130.921 517.358C131.651 519.032 132.626 521.672 133.628 525.564C135.568 533.102 137.608 545.346 138.16 564.392C138.636 563.601 139.278 562.548 140.057 561.296C141.85 558.414 144.373 554.472 147.292 550.236C153.115 541.786 160.567 532.083 166.969 527.322L167.886 526.639L167.834 527.786L167.291 527.761C167.834 527.786 167.834 527.787 167.834 527.787L167.832 527.815C167.832 527.834 167.83 527.861 167.828 527.898C167.825 527.971 167.819 528.079 167.812 528.221C167.797 528.504 167.774 528.922 167.741 529.46C167.676 530.537 167.572 532.096 167.42 534.027C167.115 537.888 166.615 543.238 165.831 549.195C164.359 560.392 161.879 573.793 157.793 583.465C157.987 583.344 158.197 583.216 158.422 583.084C159.807 582.267 161.756 581.28 163.993 580.612C168.474 579.274 174.196 579.203 178.797 584.438C181.12 587.082 181.724 590.047 181.325 592.972C180.928 595.874 179.547 598.731 177.915 601.227C176.28 603.73 174.369 605.907 172.872 607.456C172.123 608.231 171.474 608.852 171.012 609.279C170.782 609.492 170.597 609.658 170.47 609.77C170.406 609.827 170.357 609.87 170.323 609.899C170.306 609.914 170.293 609.925 170.284 609.932L170.274 609.941L170.27 609.944C170.27 609.945 170.27 609.945 169.919 609.527C169.715 609.284 169.63 609.182 169.595 609.14L169.569 609.11L169.569 609.109L169.571 609.108L169.58 609.1C169.587 609.094 169.599 609.084 169.615 609.07C169.634 609.054 169.66 609.031 169.691 609.004C169.71 608.987 169.731 608.969 169.753 608.949C169.875 608.842 170.053 608.682 170.278 608.474C170.727 608.058 171.36 607.452 172.094 606.694C173.563 605.174 175.423 603.052 177.008 600.627C178.596 598.196 179.883 595.498 180.249 592.823C180.611 590.171 180.07 587.537 177.983 585.163C173.766 580.363 168.553 580.391 164.302 581.66C162.174 582.295 160.307 583.239 158.97 584.027C158.303 584.421 157.77 584.773 157.405 585.027C157.223 585.154 157.083 585.256 156.989 585.325C156.943 585.36 156.907 585.386 156.884 585.404C156.873 585.413 156.864 585.419 156.859 585.423L156.853 585.428L156.852 585.429L156.852 585.429L155.062 586.832L156.027 584.765C160.506 575.174 163.192 560.939 164.755 549.052C165.535 543.118 166.034 537.788 166.337 533.94C166.489 532.017 166.592 530.465 166.657 529.394C166.667 529.224 166.677 529.066 166.685 528.921C160.655 533.779 153.728 542.815 148.185 550.859C145.278 555.078 142.764 559.004 140.978 561.876C140.084 563.312 139.373 564.484 138.885 565.296C138.641 565.702 138.453 566.019 138.326 566.233C138.263 566.341 138.215 566.422 138.183 566.477L138.146 566.539L138.135 566.559L138.134 566.56C138.134 566.56 138.134 566.56 137.666 566.283L138.134 566.56L137.168 568.217L137.123 566.296C136.657 546.236 134.554 533.522 132.577 525.838C131.588 521.996 130.631 519.413 129.927 517.798C129.616 517.085 129.355 516.561 129.161 516.201C125.968 520.16 123.2 525.874 120.841 532.31C118.366 539.062 116.356 546.563 114.776 553.571C113.197 560.577 112.049 567.08 111.296 571.831C110.92 574.207 110.643 576.144 110.459 577.487C110.367 578.158 110.299 578.681 110.254 579.036C110.232 579.213 110.215 579.348 110.204 579.439C110.198 579.484 110.194 579.518 110.191 579.541L110.187 579.575C110.187 579.575 110.187 579.575 109.648 579.51L110.187 579.575L110.012 581.045L109.196 579.813C102.28 569.371 90.6409 561.662 80.6773 556.555C75.7033 554.005 71.1637 552.112 67.8682 550.857C66.2207 550.23 64.8849 549.762 63.962 549.451C63.7782 549.389 63.6108 549.334 63.4605 549.284C68.7948 569.68 80.467 586.166 90.8941 597.612C96.1864 603.421 101.152 607.925 104.793 610.975C106.613 612.5 108.102 613.662 109.134 614.441C109.651 614.831 110.053 615.125 110.325 615.321C110.461 615.419 110.565 615.493 110.634 615.541C110.669 615.566 110.695 615.584 110.712 615.596L110.731 615.609L110.735 615.612L110.736 615.613C110.737 615.613 110.737 615.613 110.43 616.064C110.123 616.515 110.123 616.515 110.122 616.514L110.115 616.509L110.094 616.495C110.075 616.482 110.047 616.462 110.011 616.437C109.939 616.386 109.832 616.31 109.693 616.21C109.414 616.009 109.006 615.71 108.483 615.316C107.437 614.526 105.934 613.353 104.098 611.815C100.427 608.74 95.4249 604.202 90.0937 598.35C79.4355 586.651 67.4388 569.673 62.1637 548.599L61.9302 547.666L62.8458 547.941L62.6902 548.465C62.8458 547.941 62.846 547.942 62.8464 547.942L62.8528 547.944L62.8717 547.949C62.8882 547.954 62.9126 547.962 62.9447 547.972C63.0088 547.992 63.1036 548.021 63.2274 548.061C63.4751 548.139 63.839 548.257 64.3064 548.414C65.2413 548.729 66.5905 549.202 68.2525 549.835C71.576 551.101 76.1532 553.009 81.1701 555.581C90.8156 560.525 102.149 567.952 109.29 578.026C109.318 577.818 109.349 577.588 109.383 577.338C109.568 575.989 109.846 574.043 110.224 571.659C110.979 566.891 112.131 560.364 113.717 553.329C115.303 546.295 117.325 538.744 119.822 531.932C122.316 525.129 125.3 519.018 128.828 514.899L129.285 514.365L129.685 514.944Z" fill="#FE5244"/>
<path fill-rule="evenodd" clip-rule="evenodd" d="M128.717 516.681C128.717 516.68 128.717 516.68 129.26 516.678C129.803 516.675 129.803 516.676 129.803 516.676L129.804 516.927C129.805 517.093 129.806 517.34 129.806 517.662C129.808 518.307 129.81 519.254 129.811 520.462C129.814 522.88 129.813 526.346 129.799 530.541C129.772 538.931 129.695 550.236 129.494 561.896C129.293 573.555 128.968 585.574 128.446 595.391C128.185 600.298 127.875 604.661 127.505 608.155C127.138 611.631 126.707 614.3 126.189 615.787L125.164 615.425C125.635 614.075 126.057 611.525 126.425 608.039C126.792 604.572 127.101 600.231 127.362 595.332C127.883 585.535 128.207 573.532 128.408 561.877C128.609 550.224 128.686 538.924 128.713 530.538C128.727 526.345 128.728 522.88 128.725 520.464C128.724 519.255 128.722 518.309 128.72 517.665C128.72 517.343 128.719 517.097 128.718 516.931L128.717 516.681Z" fill="#FE5244"/>
<path fill-rule="evenodd" clip-rule="evenodd" d="M165.568 529.772C165.568 529.771 165.569 529.771 166.075 529.969C166.581 530.167 166.58 530.168 166.58 530.168L166.562 530.216C166.549 530.249 166.53 530.297 166.505 530.361C166.456 530.489 166.382 530.679 166.285 530.928C166.091 531.425 165.804 532.156 165.435 533.093C164.696 534.968 163.624 537.666 162.293 540.961C159.632 547.55 155.932 556.53 151.781 566.086C147.631 575.642 143.027 585.78 138.557 594.686C134.093 603.582 129.745 611.283 126.103 615.943L125.25 615.267C128.819 610.7 133.126 603.084 137.588 594.193C142.045 585.313 146.64 575.195 150.786 565.648C154.932 556.103 158.628 547.133 161.287 540.549C162.617 537.257 163.688 534.562 164.425 532.69C164.794 531.754 165.08 531.024 165.274 530.528C165.371 530.28 165.444 530.091 165.494 529.963C165.519 529.9 165.537 529.851 165.55 529.819L165.568 529.772Z" fill="#FE5244"/>
<path fill-rule="evenodd" clip-rule="evenodd" d="M148.868 591.208C147.914 592.419 147.571 593.425 147.806 594.193C147.944 594.633 148.11 594.763 148.21 594.805C148.317 594.849 148.515 594.86 148.857 594.701C149.553 594.379 150.462 593.533 151.42 592.367C152.361 591.222 153.298 589.835 154.057 588.517C154.628 587.526 155.086 586.595 155.373 585.85C154.506 586.4 153.624 586.998 152.779 587.625C151.209 588.788 149.801 590.025 148.868 591.208ZM156.213 585.328C158.247 584.091 160.089 583.166 161.008 582.821L160.63 581.797C159.083 582.376 155.336 584.372 152.135 586.744C150.534 587.931 149.037 589.236 148.018 590.529C147.021 591.793 146.364 593.197 146.769 594.517L146.77 594.519C146.958 595.123 147.282 595.602 147.795 595.815C148.301 596.025 148.838 595.914 149.311 595.694C150.246 595.261 151.287 594.244 152.256 593.064C153.242 591.865 154.212 590.426 154.996 589.065C155.775 587.712 156.394 586.397 156.651 585.448L156.213 585.328Z" fill="#FE5244"/>
<path fill-rule="evenodd" clip-rule="evenodd" d="M110.692 591.117C110.934 591.594 111.173 591.725 111.385 591.733L111.386 591.733C112.074 591.76 112.524 591.644 112.813 591.471C113.088 591.306 113.265 591.061 113.363 590.718C113.573 589.977 113.394 588.84 112.919 587.453C112.248 585.493 111.091 583.311 110.155 581.585C110.142 581.768 110.129 581.952 110.117 582.136C109.95 584.648 109.909 587.131 110.146 588.981C110.264 589.912 110.448 590.636 110.692 591.117ZM109.216 579.77L109.188 579.785C109.195 579.799 109.203 579.814 109.21 579.828C109.143 580.562 109.083 581.312 109.033 582.063C108.866 584.592 108.818 587.161 109.068 589.121C109.193 590.095 109.396 590.966 109.725 591.614C110.054 592.264 110.572 592.795 111.342 592.825C112.158 592.858 112.838 592.728 113.368 592.41C113.912 592.084 114.244 591.593 114.407 591.019C114.718 589.925 114.427 588.501 113.946 587.097C113.188 584.885 111.828 582.383 110.86 580.602C110.661 580.237 110.479 579.902 110.322 579.606C110.474 578.001 110.655 576.488 110.818 575.248C110.941 574.308 111.055 573.526 111.137 572.98C111.178 572.706 111.211 572.492 111.234 572.346C111.246 572.273 111.255 572.217 111.261 572.179L111.268 572.137L111.27 572.124C111.27 572.123 111.27 572.123 110.734 572.034C110.198 571.945 110.198 571.945 110.198 571.945L110.196 571.96L110.189 572.004C110.183 572.043 110.173 572.1 110.162 572.174C110.138 572.323 110.105 572.54 110.063 572.816C109.98 573.369 109.866 574.157 109.741 575.104C109.568 576.422 109.374 578.048 109.216 579.77Z" fill="#FE5244"/>
<path d="M284.341 544.072C269.572 551.352 270.962 565.323 270.831 574.702C270.679 584.693 251.74 589.918 251.74 589.918C256.779 573.936 253.195 557.474 253.195 557.474L284.341 544.072Z" fill="#A0505A"/>
<path d="M300.001 580.867L296.634 582.703L289.575 566.459C289.206 565.607 288.381 565.104 287.534 565.104C287.251 565.104 286.947 565.169 286.665 565.279C285.948 565.585 285.427 566.262 285.34 567.049L282.234 590.595L241.38 612.983C240.163 610.053 247.743 602.707 251.762 589.918C251.762 589.918 270.723 584.693 270.853 574.701C270.983 565.322 269.615 551.33 284.362 544.072L287.468 542.738C304.41 550.587 300.001 580.867 300.001 580.867Z" fill="#FFCF2D"/>
<path d="M287.448 427.393V542.739L253.652 557.497L228.327 441.691C239.665 442.128 258.561 439.723 287.448 427.393Z" fill="white"/>
<path fill-rule="evenodd" clip-rule="evenodd" d="M287.991 426.566V543.097L253.264 558.261L227.646 441.117L228.348 441.144C239.586 441.577 258.402 439.196 287.236 426.889L287.991 426.566ZM229.008 442.259L254.041 556.73L286.905 542.38V428.216C258.97 440.045 240.411 442.572 229.008 442.259Z" fill="#9A3B82"/>
<path fill-rule="evenodd" clip-rule="evenodd" d="M268.727 550.664L262.059 437.569L263.143 437.504L269.811 550.599L268.727 550.664Z" fill="#9A3B82"/>
<path d="M287.448 427.393V457.585L229.934 449.211L228.327 441.691C239.665 442.128 258.561 439.723 287.448 427.393Z" fill="#9A3B82"/>
<path d="M457.774 349.123L435.924 353.758C435.186 353.911 434.447 353.671 433.926 353.124C433.557 352.709 433.361 352.206 433.361 351.681C433.361 351.113 433.578 350.545 434.035 350.129L446.197 338.651L443.504 336.225C443.504 336.225 415.269 341.8 413.662 359.53L415.812 361.891C426.911 372.866 438.878 367.204 447.24 364.362C455.233 361.651 464.768 374.134 466.657 376.714C466.679 376.714 466.722 376.714 466.744 376.714C479.341 376.298 488.268 380.802 490.462 378.769L457.774 349.123Z" fill="#FFCF2D"/>
<path d="M415.833 361.891C426.932 372.866 438.9 367.203 447.262 364.361C456.167 361.344 466.788 376.713 466.788 376.713C451.019 377.216 437.575 385.633 437.575 385.633L415.833 361.891Z" fill="#A0505A"/>
<path d="M280.911 428.374C280.911 428.374 286.406 465.737 328.564 465.038C370.721 464.338 437.118 385.414 437.118 385.414L413.769 359.66L280.911 428.374Z" fill="white"/>
<path fill-rule="evenodd" clip-rule="evenodd" d="M413.89 358.984L437.841 385.402L437.532 385.769L437.118 385.416C437.532 385.769 437.532 385.769 437.531 385.77L437.52 385.784L437.483 385.827C437.451 385.865 437.402 385.922 437.339 385.997C437.211 386.147 437.022 386.37 436.773 386.66C436.275 387.239 435.54 388.089 434.589 389.17C432.688 391.333 429.927 394.423 426.481 398.132C419.591 405.549 409.962 415.448 399.013 425.371C388.066 435.292 375.786 445.247 363.594 452.769C351.415 460.282 339.259 465.408 328.573 465.586C307.301 465.939 295.226 456.675 288.488 447.29C285.127 442.608 283.1 437.907 281.914 434.378C281.32 432.612 280.936 431.138 280.7 430.102C280.582 429.584 280.501 429.175 280.449 428.895C280.423 428.755 280.405 428.646 280.392 428.572C280.386 428.535 280.382 428.507 280.379 428.487L280.375 428.465L280.374 428.458L280.374 428.457C280.374 428.456 280.374 428.456 280.911 428.376L280.374 428.456L280.317 428.068L413.89 358.984ZM281.514 428.678C281.515 428.684 281.516 428.689 281.517 428.695C281.566 428.961 281.644 429.355 281.759 429.857C281.988 430.862 282.362 432.301 282.943 434.027C284.104 437.482 286.086 442.078 289.368 446.649C295.917 455.771 307.669 464.839 328.555 464.493C338.947 464.32 350.899 459.318 363.027 451.837C375.141 444.363 387.365 434.456 398.286 424.559C409.206 414.663 418.812 404.788 425.688 397.385C429.126 393.684 431.881 390.602 433.776 388.446C434.723 387.368 435.456 386.521 435.951 385.945C436.13 385.737 436.278 385.564 436.394 385.428L413.648 360.339L281.514 428.678Z" fill="#9A3B82"/>
<path fill-rule="evenodd" clip-rule="evenodd" d="M357.488 430.731C348.991 434.857 340.715 437.435 333.177 437.557C323.096 437.722 316.315 435.47 311.871 431.858C307.421 428.241 305.386 423.322 304.678 418.307L305.753 418.153C306.434 422.977 308.374 427.611 312.553 431.007C316.736 434.407 323.237 436.626 333.159 436.464H333.16C340.478 436.345 348.592 433.837 357.017 429.747C365.436 425.659 374.133 420.007 382.608 413.638C399.559 400.901 415.582 385.331 426.671 373.775L427.452 374.535C416.345 386.11 400.276 401.727 383.258 414.514C374.749 420.908 365.991 426.603 357.488 430.731Z" fill="#9A3B82"/>
<path d="M464.918 283.448C461.074 281.983 451.93 287.012 445.045 295.757C437.639 305.136 434.641 315.105 437.899 317.707L333.58 261.87C328.454 259.137 322.547 263.816 324.002 269.456L355.582 389.875C248.614 459.748 214.318 438.803 214.318 438.803V43.0913C214.318 43.1132 214.318 43.1132 214.34 43.1351C215.252 45.4743 225.048 43.8347 236.233 39.4403C246.528 35.4176 254.391 30.4766 254.89 27.8969L254.912 27.875V152.557C254.912 160.384 259.104 167.577 265.881 171.403L464.918 283.448Z" fill="#FE5244"/>
<path d="M464.918 283.448C461.074 281.983 451.93 287.012 445.045 295.757C437.639 305.136 434.641 315.105 437.899 317.707L333.58 261.87C328.454 259.137 322.547 263.816 324.002 269.456L355.582 390.356C328.389 408.13 305.888 419.542 287.448 427.413C258.561 439.722 239.665 442.148 228.327 441.711C218.445 441.339 214.318 438.803 214.318 438.803V43.0913C214.318 43.1132 214.318 43.1132 214.34 43.1351C215.252 45.4743 225.048 43.8347 236.233 39.4403C246.528 35.4176 254.391 30.4766 254.89 27.8969L254.912 27.875V152.557C254.912 160.384 259.104 167.577 265.881 171.403L464.918 283.448Z" fill="#FE5244"/>
<path fill-rule="evenodd" clip-rule="evenodd" d="M314.718 251.851C314.89 251.533 315.285 251.415 315.602 251.587L438.208 318.53C438.525 318.703 438.642 319.101 438.47 319.42C438.299 319.738 437.903 319.856 437.587 319.684L314.98 252.74C314.664 252.568 314.547 252.169 314.718 251.851Z" fill="white"/>
<path d="M268.791 173.021L255.043 253.454L325.219 204.81L268.791 173.021Z" fill="#FFCF2D"/>
<path fill-rule="evenodd" clip-rule="evenodd" d="M268.902 172.375C269.256 172.436 269.494 172.775 269.433 173.132L255.947 252.03L324.849 204.269C325.145 204.064 325.551 204.139 325.755 204.437C325.959 204.736 325.884 205.144 325.588 205.35L254.138 254.877L268.149 172.91C268.21 172.553 268.547 172.313 268.902 172.375Z" fill="white"/>
<path d="M268.226 17.7749L177.634 36.4674C174.289 37.167 170.836 34.1718 169.945 29.7775C169.055 25.3831 171.053 21.2729 174.398 20.5733L264.99 1.88086L268.226 17.7749Z" fill="white"/>
<path fill-rule="evenodd" clip-rule="evenodd" d="M265.413 1.23438L268.867 18.1993L177.745 37.0013C177.744 37.0014 177.744 37.0015 177.743 37.0016M177.743 37.0016C175.871 37.3925 174.006 36.7412 172.514 35.4451C171.023 34.149 169.881 32.191 169.413 29.8854C168.491 25.3337 170.53 20.8229 174.287 20.0369L174.289 20.0366L265.413 1.23438M264.567 2.52476L174.508 21.1072C174.508 21.1072 174.508 21.1073 174.508 21.1073C171.576 21.7209 169.619 25.4302 170.477 29.667C170.901 31.7558 171.93 33.4925 173.224 34.6177C174.518 35.7426 176.051 36.239 177.524 35.931L177.525 35.9307L267.585 17.348L264.567 2.52476Z" fill="#3FB1B5"/>
<path d="M268.194 17.7864C271.543 17.0954 273.533 12.9779 272.64 8.58973C271.746 4.20153 268.307 1.20434 264.958 1.89533C261.609 2.58633 259.618 6.70383 260.512 11.092C261.406 15.4802 264.845 18.4774 268.194 17.7864Z" fill="white"/>
<path fill-rule="evenodd" clip-rule="evenodd" d="M261.633 5.3482C260.885 6.89514 260.619 8.89771 261.044 10.9841C261.469 13.0705 262.496 14.8065 263.788 15.9326C265.08 17.0581 266.61 17.5572 268.085 17.2529C269.56 16.9485 270.772 15.8835 271.52 14.3372C272.268 12.7903 272.533 10.7877 272.108 8.70132C271.683 6.61491 270.657 4.87891 269.364 3.75288C268.073 2.62732 266.542 2.12825 265.067 2.43258C263.592 2.73691 262.38 3.80192 261.633 5.3482ZM260.656 4.86993C261.518 3.08766 262.975 1.74842 264.849 1.36175C266.723 0.975093 268.587 1.62913 270.075 2.92647C271.563 4.22333 272.703 6.18003 273.172 8.48182C273.641 10.7836 273.358 13.0339 272.496 14.8155C271.635 16.5978 270.177 17.937 268.303 18.3237C266.429 18.7104 264.566 18.0563 263.077 16.759C261.589 15.4621 260.449 13.5054 259.98 11.2036C259.512 8.90183 259.795 6.65155 260.656 4.86993Z" fill="#3FB1B5"/>
<path d="M216.535 25.733C216.535 25.733 187.235 58.8766 190.428 66.1787C194.598 70.3545 197.986 72.1909 197.487 73.7432C196.944 75.4266 189.928 85.5927 189.928 85.5927L189.233 78.0501L182.522 80.2801C182.522 80.2801 189.603 69.8735 190.059 66.6816C187.148 64.4516 181.219 59.8167 181.414 56.5811C181.632 53.1487 192.014 40.9493 199.55 32.5323L188.191 36.3145L185.954 25.7549L206.392 21.9727L216.535 25.733Z" fill="#FE5244"/>
<path d="M212.559 27.1757C215.966 27.1757 218.727 24.3959 218.727 20.9668C218.727 17.5377 215.966 14.7578 212.559 14.7578C209.152 14.7578 206.391 17.5377 206.391 20.9668C206.391 24.3959 209.152 27.1757 212.559 27.1757Z" fill="white"/>
<path fill-rule="evenodd" clip-rule="evenodd" d="M212.56 15.3041C209.453 15.3041 206.934 17.8392 206.934 20.9665C206.934 24.0937 209.453 26.6289 212.56 26.6289C215.666 26.6289 218.185 24.0937 218.185 20.9665C218.185 17.8392 215.666 15.3041 212.56 15.3041ZM205.848 20.9665C205.848 17.2355 208.853 14.2109 212.56 14.2109C216.266 14.2109 219.271 17.2355 219.271 20.9665C219.271 24.6974 216.266 27.722 212.56 27.722C208.853 27.722 205.848 24.6974 205.848 20.9665Z" fill="#FE5244"/>
<path d="M254.892 27.8974C254.392 30.4771 246.53 35.4181 236.235 39.4408C225.049 43.8133 215.254 45.4748 214.341 43.1356C214.341 43.1137 214.341 43.1137 214.32 43.0918C213.538 40.7307 221.835 35.3306 232.955 30.98C244.141 26.6075 253.936 24.9459 254.848 27.2852C254.913 27.4601 254.935 27.6569 254.892 27.8974Z" fill="#9A3B82"/>
<path d="M247.353 9.53362L246.159 26.8925L245.594 35.2003C242.879 36.6432 239.686 38.0861 236.233 39.4416C230.368 41.7372 224.895 43.2675 220.877 43.9016V28.0293L237.362 24.6188C237.362 24.6188 238.274 18.694 240.012 13.7312C241.728 8.74656 247.353 9.53362 247.353 9.53362Z" fill="#A0505A"/>
<path fill-rule="evenodd" clip-rule="evenodd" d="M237.921 23.4716C238.154 23.5289 238.297 23.7656 238.24 24.0002C238.199 24.1662 238.101 24.298 238.016 24.3919C237.925 24.4914 237.813 24.5871 237.693 24.6783C237.455 24.8604 237.138 25.0618 236.787 25.2785C236.685 25.3414 236.579 25.406 236.471 25.4726C235.817 25.8734 235.048 26.3448 234.283 26.9127C232.486 28.2469 230.846 30.0187 230.846 32.4228C230.846 32.6642 230.651 32.86 230.411 32.86C230.172 32.86 229.977 32.6642 229.977 32.4228C229.977 29.5798 231.92 27.5802 233.767 26.209C234.566 25.616 235.371 25.1227 236.024 24.7227C236.131 24.657 236.234 24.5938 236.333 24.533C236.687 24.3142 236.969 24.1339 237.168 23.9816C237.268 23.9057 237.334 23.846 237.375 23.8013C237.39 23.7849 237.398 23.7737 237.403 23.7675C237.47 23.5478 237.696 23.4163 237.921 23.4716Z" fill="#73325A"/>
<path d="M246.159 26.8906L245.594 35.1984C242.879 36.6413 239.686 38.0843 236.233 39.4397C230.369 41.7353 224.895 43.2657 220.877 43.8997V36.7288C224.091 34.8267 228.283 32.8154 232.953 30.9789C237.818 29.055 242.423 27.6558 246.159 26.8906Z" fill="#73325A"/>
<path d="M235.365 18.211L216.969 22.4523C215.991 22.671 215.079 21.8839 215.079 20.7908V9.55343C215.079 8.04492 215.991 6.73316 217.316 6.29591L235.495 0.327439C236.647 -0.0442239 237.798 0.874001 237.798 2.16389V14.9753C237.776 16.5276 236.777 17.8831 235.365 18.211Z" fill="#A0505A"/>
<path fill-rule="evenodd" clip-rule="evenodd" d="M222.359 5.07674C222.428 5.30794 222.298 5.55189 222.068 5.62162C220.884 5.98111 220.075 7.07852 220.075 8.32934V19.1076C220.075 19.8781 220.775 20.4357 221.503 20.2763C221.738 20.225 221.969 20.3747 222.02 20.6107C222.071 20.8466 221.922 21.0795 221.688 21.1308C220.418 21.4087 219.206 20.4359 219.206 19.1076V8.32934C219.206 6.6943 220.265 5.25566 221.818 4.78436C222.047 4.71464 222.29 4.84554 222.359 5.07674Z" fill="#73325A"/>
<path fill-rule="evenodd" clip-rule="evenodd" d="M227.658 3.45955C227.727 3.69075 227.597 3.9347 227.367 4.00443C226.193 4.36101 225.374 5.49476 225.374 6.79961V17.9058C225.374 18.7107 226.086 19.275 226.802 19.1182C227.037 19.0669 227.268 19.2166 227.319 19.4526C227.37 19.6886 227.221 19.9215 226.987 19.9728C225.705 20.2533 224.505 19.2434 224.505 17.9058V6.79961C224.505 5.13114 225.554 3.64138 227.116 3.16718C227.346 3.09745 227.589 3.22835 227.658 3.45955Z" fill="#73325A"/>
<path fill-rule="evenodd" clip-rule="evenodd" d="M233.586 1.63905C233.658 1.86922 233.532 2.11504 233.303 2.18811C232.131 2.56266 231.304 3.73737 231.304 5.09446V16.5942C231.304 17.4333 232.027 18.0045 232.732 17.8503C232.966 17.799 233.198 17.9487 233.249 18.1847C233.3 18.4207 233.151 18.6536 232.917 18.7049C231.623 18.9879 230.435 17.9413 230.435 16.5942V5.09446C230.435 3.39079 231.476 1.85455 233.04 1.3546C233.269 1.28153 233.513 1.40888 233.586 1.63905Z" fill="#73325A"/>
<path d="M456.839 305.179C449.432 314.58 441.135 320.286 437.878 317.684C434.62 315.083 437.617 305.135 445.023 295.734C451.93 286.989 461.052 281.961 464.896 283.426L465.657 283.863C468.936 286.487 464.245 295.8 456.839 305.179Z" fill="#9A3B82"/>
<path d="M490.352 320.986L485.422 323.61C483.467 324.659 481.034 323.916 479.992 321.948L474.801 312.241L466.938 309.531C467.807 309.858 471.195 311.607 470.131 317.969L451.669 311.039L445.327 308.656L439.311 304.786C440.723 301.901 442.656 298.796 445.067 295.757C447.087 293.199 449.28 290.969 451.474 289.133L457.751 293.549L464.18 294.249L474.627 295.364C476.299 295.539 477.907 296.107 479.318 297.003L487.659 302.972C488.875 303.846 489.679 305.158 489.874 306.645L491.568 318.582C491.72 319.565 491.221 320.527 490.352 320.986Z" fill="#A0505A"/>
<path fill-rule="evenodd" clip-rule="evenodd" d="M477.858 301.295C477.997 301.098 478.268 301.052 478.464 301.192L485.695 306.373C485.696 306.373 485.696 306.373 485.696 306.373C486.838 307.188 487.594 308.453 487.807 309.856C487.807 309.856 487.807 309.856 487.807 309.856L489.285 319.502L489.285 319.508C489.416 320.535 488.919 321.548 487.989 322.029C487.775 322.14 487.513 322.055 487.404 321.84C487.294 321.625 487.378 321.362 487.591 321.251C488.18 320.947 488.508 320.3 488.424 319.624L486.948 309.988C486.77 308.811 486.136 307.759 485.193 307.087L477.96 301.905C477.764 301.765 477.719 301.492 477.858 301.295Z" fill="#73325A"/>
<path fill-rule="evenodd" clip-rule="evenodd" d="M473.381 303.024C473.52 302.827 473.792 302.781 473.987 302.921L481.219 308.102C481.219 308.102 481.219 308.102 481.219 308.102C482.361 308.916 483.118 310.182 483.33 311.585L484.808 321.231L484.809 321.236C484.939 322.263 484.442 323.276 483.512 323.758C483.299 323.868 483.037 323.784 482.927 323.569C482.817 323.354 482.901 323.09 483.115 322.98C483.704 322.675 484.032 322.029 483.948 321.353L482.471 311.716C482.293 310.54 481.66 309.488 480.717 308.815L480.716 308.815L473.483 303.633C473.288 303.493 473.242 303.22 473.381 303.024Z" fill="#73325A"/>
<path fill-rule="evenodd" clip-rule="evenodd" d="M461.271 307.574C461.348 307.346 461.594 307.223 461.821 307.301L467.077 309.093C467.305 309.171 467.426 309.419 467.349 309.648C467.272 309.876 467.026 309.999 466.799 309.921L461.543 308.129C461.315 308.051 461.194 307.803 461.271 307.574Z" fill="#73325A"/>
<path d="M464.18 294.249C462.421 297.594 459.858 301.398 456.86 305.202C455.145 307.366 453.407 309.334 451.669 311.039L445.327 308.656L439.311 304.786C440.723 301.901 442.656 298.796 445.067 295.757C447.087 293.199 449.28 290.969 451.474 289.133L457.751 293.549L464.18 294.249Z" fill="#73325A"/>
<path d="M274.523 114.646L320.981 135.394L337.553 184.191L303.888 159.968L288.185 140.663L274.523 114.646Z" fill="#FE5244"/>
<path d="M288.186 140.663C288.186 140.663 303.389 143.287 309.514 160.339L312.751 157.06C312.751 157.06 306.864 140.466 291.313 136.203L288.186 140.663Z" fill="#9A3B82"/>
<path d="M378.798 161.849C373.585 158.875 368.764 157.236 367.222 157.826C367.33 157.564 367.395 157.257 367.374 156.951C367.287 155.989 366.505 155.268 365.571 155.268C365.527 155.268 365.484 155.268 365.419 155.268C364.42 155.355 363.681 156.23 363.746 157.236C363.746 157.301 363.768 157.367 363.768 157.411L358.251 160.974C357.013 161.783 355.493 161.827 354.19 161.105C352.887 160.384 352.126 159.072 352.126 157.585V149.606C352.126 146.129 350.411 142.916 347.522 140.992C344.633 139.068 341.006 138.762 337.835 140.117L327.323 144.84L323.326 133.056L276.629 112.221C276.347 112.089 275.999 112.221 275.869 112.527C275.739 112.811 275.869 113.161 276.173 113.292L322.392 133.93L338.878 182.487C338.964 182.727 339.182 182.88 339.421 182.88C339.486 182.88 339.551 182.859 339.616 182.859C339.92 182.749 340.072 182.421 339.985 182.115L327.714 145.955L338.313 141.188C341.136 139.964 344.351 140.248 346.892 141.954C349.455 143.659 350.975 146.501 350.975 149.606V157.585C350.975 159.509 351.974 161.215 353.647 162.133C354.429 162.57 355.276 162.789 356.123 162.789C357.079 162.789 358.034 162.504 358.881 161.958L364.355 158.438C364.68 158.744 365.115 158.919 365.571 158.919C365.614 158.919 365.679 158.919 365.723 158.919C366.114 158.897 366.461 158.744 366.722 158.504C366.722 160.056 370.675 163.532 376.105 166.636C377.278 167.314 378.451 167.926 379.558 168.451C380.232 167.883 380.796 167.205 381.252 166.396C381.709 165.609 381.991 164.756 382.121 163.882C381.079 163.226 379.971 162.526 378.798 161.849ZM365.614 158.001C365.115 158.045 364.702 157.673 364.659 157.192C364.615 156.711 364.984 156.274 365.462 156.23C365.94 156.186 366.375 156.558 366.418 157.039C366.461 157.52 366.092 157.957 365.614 158.001Z" fill="#FFCF2D"/>
<path d="M285.167 169.412L277.131 214.406L304.519 193.155V165.105L285.167 169.412Z" fill="#A0505A"/>
<path d="M285.167 169.412L284.167 175.053L296.287 199.539L304.519 193.155V165.105L285.167 169.412Z" fill="#73325A"/>
<path d="M288.64 141.123C288.64 141.123 274.935 137.69 270.657 145.692C266.378 153.693 278.888 155.902 279.41 153.103C279.649 151.879 256.887 151.901 260.709 169.238C264.684 187.296 282.602 181.087 282.602 181.087L284.688 169.413L288.64 141.123Z" fill="white"/>
<path fill-rule="evenodd" clip-rule="evenodd" d="M288.746 140.698C288.746 140.698 288.746 140.698 288.641 141.122L288.746 140.698L289.126 140.793L285.117 169.482L282.986 181.417L282.744 181.501L282.603 181.087C282.744 181.501 282.744 181.501 282.744 181.501L282.743 181.501L282.74 181.502L282.728 181.506C282.719 181.509 282.705 181.514 282.687 181.52C282.65 181.532 282.597 181.549 282.529 181.57C282.392 181.613 282.192 181.672 281.938 181.741C281.429 181.878 280.701 182.053 279.814 182.206C278.045 182.511 275.633 182.728 273.086 182.367C270.538 182.006 267.84 181.064 265.523 179.038C263.203 177.009 261.296 173.923 260.286 169.332C259.309 164.901 260.023 161.524 261.691 158.989C263.35 156.467 265.918 154.831 268.559 153.802C269.525 153.426 270.504 153.129 271.46 152.898C270.738 152.34 270.131 151.644 269.751 150.799C269.104 149.36 269.156 147.577 270.275 145.484C272.53 141.267 277.241 140.113 281.238 139.969C283.252 139.897 285.126 140.079 286.495 140.278C287.18 140.378 287.74 140.482 288.13 140.562C288.325 140.602 288.478 140.635 288.582 140.659C288.635 140.671 288.675 140.681 288.702 140.687C288.716 140.691 288.727 140.693 288.734 140.695L288.742 140.697L288.745 140.698L288.746 140.698ZM272.489 153.565C271.312 153.805 270.079 154.147 268.873 154.618C266.332 155.608 263.941 157.152 262.415 159.472C260.897 161.779 260.2 164.906 261.134 169.143C262.111 173.581 263.935 176.491 266.092 178.377C268.253 180.266 270.78 181.157 273.208 181.501C275.637 181.846 277.954 181.639 279.668 181.344C280.524 181.197 281.226 181.028 281.713 180.896C281.926 180.839 282.097 180.788 282.222 180.75L284.259 169.343L288.155 141.46C288.096 141.448 288.03 141.434 287.957 141.419C287.581 141.342 287.037 141.241 286.371 141.144C285.036 140.949 283.216 140.773 281.269 140.843C277.344 140.984 273.064 142.114 271.04 145.899C270.019 147.807 270.031 149.301 270.542 150.439C270.953 151.352 271.711 152.091 272.637 152.645C273.866 152.41 275.027 152.282 276.03 152.233C277.068 152.182 277.951 152.213 278.578 152.301C278.887 152.344 279.16 152.404 279.362 152.487C279.46 152.528 279.576 152.587 279.67 152.68C279.772 152.779 279.881 152.956 279.837 153.185C279.738 153.714 279.36 154.079 278.902 154.308C278.447 154.535 277.868 154.655 277.244 154.687C275.992 154.753 274.444 154.474 273.056 153.846C272.864 153.76 272.675 153.666 272.489 153.565ZM274.033 153.3C274.761 153.199 275.448 153.137 276.073 153.106C277.076 153.057 277.902 153.089 278.459 153.167C278.635 153.191 278.775 153.219 278.88 153.247C278.806 153.343 278.69 153.438 278.516 153.525C278.204 153.681 277.754 153.785 277.199 153.814C276.27 153.863 275.127 153.695 274.033 153.3Z" fill="#9A3B82"/>
<path d="M304.3 167.008C304.3 167.008 283.84 193.855 301.824 205.267C316.246 214.406 319.96 201.529 316.094 199.758C311.902 197.834 302.28 234.126 331.906 234.017C361.596 233.907 352.517 196.588 337.553 184.214C330.407 178.311 306.559 161.805 306.559 161.805L304.3 167.008Z" fill="white"/>
<path fill-rule="evenodd" clip-rule="evenodd" d="M306.805 161.445L306.559 161.805C306.805 161.445 306.805 161.445 306.806 161.445L306.874 161.492C306.919 161.524 306.987 161.57 307.075 161.632C307.252 161.754 307.511 161.934 307.845 162.166C308.511 162.629 309.471 163.297 310.645 164.117C312.993 165.757 316.198 168.005 319.627 170.438C326.478 175.3 334.241 180.912 337.828 183.876C345.414 190.148 351.476 202.692 351.909 213.697C352.126 219.209 350.934 224.392 347.751 228.21C344.559 232.04 339.424 234.426 331.907 234.454C324.408 234.482 319.331 232.203 316.034 228.742C312.746 225.291 311.278 220.718 310.886 216.246C310.665 213.724 310.784 211.222 311.117 208.948C308.631 209.006 305.465 208.091 301.593 205.638L301.593 205.638C296.985 202.714 294.823 198.782 294.195 194.54C293.569 190.318 294.464 185.815 295.909 181.712C297.356 177.605 299.368 173.864 301.014 171.153C301.838 169.797 302.572 168.696 303.1 167.934C303.364 167.553 303.577 167.256 303.725 167.054C303.799 166.953 303.856 166.875 303.895 166.823C303.906 166.808 303.915 166.796 303.923 166.785L306.372 161.145L306.805 161.445ZM312.005 208.884C311.66 211.143 311.53 213.647 311.751 216.169C312.133 220.515 313.552 224.874 316.661 228.137C319.761 231.39 324.591 233.607 331.904 233.58C339.233 233.553 344.097 231.234 347.086 227.648C350.084 224.051 351.253 219.111 351.041 213.732C350.617 202.957 344.657 190.654 337.277 184.552C333.719 181.613 325.985 176.02 319.126 171.153C315.7 168.722 312.496 166.475 310.149 164.835C308.976 164.016 308.017 163.348 307.351 162.885C307.11 162.718 306.907 162.577 306.746 162.466L304.677 167.232L304.645 167.274L304.416 167.097C304.645 167.274 304.645 167.274 304.645 167.274L304.644 167.275L304.642 167.278L304.632 167.292C304.622 167.304 304.608 167.323 304.59 167.348C304.552 167.398 304.497 167.473 304.425 167.571C304.282 167.768 304.073 168.059 303.813 168.434C303.292 169.185 302.568 170.27 301.755 171.609C300.127 174.29 298.148 177.974 296.728 182.004C295.306 186.04 294.458 190.388 295.054 194.411C295.647 198.412 297.672 202.115 302.056 204.898C305.934 207.355 308.969 208.17 311.259 208.067C311.508 206.646 311.839 205.331 312.218 204.178C312.74 202.59 313.362 201.28 314.008 200.419C314.33 199.99 314.678 199.645 315.048 199.443C315.43 199.234 315.859 199.17 316.274 199.36C317.464 199.905 317.99 201.258 317.958 202.661C317.925 204.083 317.33 205.68 316.127 206.911C315.136 207.924 313.766 208.664 312.005 208.884ZM312.158 207.975C312.394 206.69 312.698 205.501 313.043 204.452C313.549 202.91 314.135 201.701 314.701 200.946C314.986 200.567 315.245 200.33 315.462 200.212C315.667 200.1 315.805 200.106 315.914 200.156L315.914 200.156C316.657 200.497 317.117 201.417 317.089 202.641C317.062 203.846 316.552 205.229 315.508 206.297C314.729 207.093 313.624 207.736 312.158 207.975Z" fill="#9A3B82"/>
<path d="M303.693 160.274L305.235 161.258C306.734 162.22 307.168 164.209 306.234 165.718L305.93 166.177C304.974 167.685 302.998 168.144 301.499 167.182L299.848 166.133C298.024 167.445 287.056 174.812 280.279 167.488C273.698 160.383 288.902 139.592 288.902 139.592C301.803 143.658 306.842 155.202 306.842 155.202L303.693 160.274Z" fill="#A0505A"/>
<path fill-rule="evenodd" clip-rule="evenodd" d="M284.26 144.162C284.343 143.936 284.594 143.82 284.818 143.905L284.667 144.314C284.818 143.905 284.819 143.905 284.819 143.905L284.819 143.905L284.82 143.905L284.824 143.906L284.834 143.91C284.842 143.914 284.854 143.918 284.869 143.924C284.899 143.936 284.941 143.954 284.993 143.977C285.098 144.023 285.245 144.092 285.42 144.184C285.767 144.367 286.23 144.647 286.685 145.032C287.59 145.801 288.51 147.036 288.313 148.78C288.136 150.349 287.264 152.322 286.537 153.966C286.512 154.023 286.487 154.08 286.462 154.136C286.083 154.994 285.752 155.752 285.561 156.346C285.465 156.643 285.413 156.874 285.401 157.04C285.393 157.153 285.405 157.2 285.409 157.212C285.731 157.56 286.111 157.771 286.418 157.895C286.572 157.958 286.704 157.997 286.796 158.02C286.841 158.032 286.877 158.04 286.899 158.044C286.91 158.046 286.918 158.048 286.923 158.048L286.926 158.049L286.925 158.049L286.925 158.049C286.925 158.049 286.926 158.049 286.926 158.049L286.926 158.049C286.927 158.049 286.927 158.049 286.926 158.049L286.926 158.049C287.163 158.085 287.326 158.307 287.29 158.546C287.255 158.785 287.034 158.949 286.797 158.914L286.861 158.481C286.797 158.914 286.797 158.914 286.796 158.914L286.796 158.914L286.795 158.914L286.794 158.913L286.789 158.913C286.786 158.912 286.781 158.911 286.776 158.91C286.765 158.908 286.75 158.906 286.732 158.902C286.695 158.895 286.645 158.884 286.583 158.868C286.46 158.837 286.289 158.786 286.093 158.706C285.702 158.548 285.196 158.27 284.76 157.794C284.541 157.554 284.516 157.232 284.534 156.977C284.554 156.707 284.631 156.398 284.735 156.076C284.943 155.429 285.295 154.626 285.668 153.781C285.682 153.75 285.695 153.719 285.709 153.688C286.462 151.984 287.288 150.114 287.45 148.681C287.601 147.343 286.913 146.37 286.125 145.701C285.732 145.367 285.326 145.121 285.017 144.958C284.863 144.877 284.734 144.817 284.646 144.778C284.601 144.759 284.567 144.745 284.545 144.736C284.534 144.731 284.526 144.728 284.521 144.726L284.516 144.724L284.516 144.724C284.515 144.724 284.515 144.724 284.515 144.724L284.515 144.724C284.515 144.724 284.515 144.724 284.515 144.724L284.515 144.724M284.26 144.162C284.176 144.388 284.291 144.64 284.515 144.724L284.26 144.162Z" fill="#73325A"/>
<path fill-rule="evenodd" clip-rule="evenodd" d="M283.796 160.34C283.584 160.722 283.584 160.722 283.585 160.722L283.585 160.722L283.586 160.723L283.588 160.724L283.597 160.728C283.603 160.732 283.612 160.737 283.624 160.743C283.648 160.756 283.681 160.773 283.724 160.794C283.811 160.837 283.936 160.897 284.096 160.965C284.417 161.103 284.88 161.278 285.459 161.434C286.616 161.747 288.242 161.986 290.118 161.69C290.355 161.653 290.517 161.429 290.48 161.19C290.443 160.952 290.221 160.789 289.984 160.826C288.255 161.099 286.753 160.878 285.684 160.59C285.15 160.445 284.725 160.284 284.436 160.161C284.292 160.099 284.182 160.047 284.109 160.01C284.073 159.992 284.046 159.978 284.029 159.969C284.02 159.965 284.014 159.961 284.011 159.96L284.007 159.958C284.007 159.957 284.007 159.957 284.007 159.957L284.007 159.958C283.797 159.84 283.533 159.916 283.416 160.127C283.3 160.338 283.375 160.604 283.584 160.722L283.796 160.34Z" fill="#73325A"/>
<path d="M295.153 155.965C295.461 155.152 295.356 154.358 294.919 154.19C294.482 154.023 293.878 154.545 293.57 155.357C293.263 156.17 293.368 156.964 293.805 157.132C294.242 157.3 294.845 156.777 295.153 155.965Z" fill="#73325A"/>
<path d="M285.126 151.333C285.383 150.656 285.291 149.992 284.921 149.85C284.551 149.709 284.043 150.142 283.787 150.819C283.531 151.496 283.623 152.16 283.992 152.302C284.362 152.444 284.87 152.01 285.126 151.333Z" fill="#73325A"/>
<path fill-rule="evenodd" clip-rule="evenodd" d="M305.153 163.77C304.4 163.288 303.409 163.511 302.929 164.27C302.8 164.473 302.532 164.533 302.329 164.404C302.127 164.274 302.067 164.004 302.196 163.8C302.932 162.635 304.46 162.29 305.619 163.032C305.821 163.162 305.881 163.432 305.752 163.636C305.624 163.839 305.355 163.899 305.153 163.77Z" fill="#73325A"/>
<path fill-rule="evenodd" clip-rule="evenodd" d="M294.128 150.081C294.191 149.848 294.43 149.71 294.661 149.773L294.548 150.195C294.661 149.773 294.661 149.773 294.662 149.773L294.662 149.773L294.663 149.774L294.666 149.775L294.675 149.777C294.683 149.779 294.692 149.782 294.705 149.786C294.729 149.793 294.763 149.804 294.805 149.819C294.89 149.848 295.009 149.893 295.155 149.956C295.447 150.083 295.846 150.285 296.29 150.592C297.178 151.206 298.242 152.24 298.964 153.912C299.06 154.134 298.959 154.392 298.739 154.488C298.519 154.584 298.263 154.482 298.168 154.261C297.521 152.764 296.576 151.851 295.798 151.313C295.408 151.043 295.059 150.867 294.811 150.759C294.687 150.705 294.589 150.669 294.523 150.646C294.491 150.635 294.466 150.627 294.451 150.622C294.444 150.62 294.438 150.618 294.435 150.618L294.433 150.617C294.202 150.553 294.066 150.314 294.128 150.081Z" fill="#73325A"/>
<path d="M298.501 144.883C298.501 144.883 295.612 154.524 303.887 161.105C308.753 164.975 309.035 160.318 309.035 160.318C309.035 160.318 308.405 150.851 298.501 144.883Z" fill="white"/>
<path fill-rule="evenodd" clip-rule="evenodd" d="M298.246 144.219L298.724 144.507C303.765 147.545 306.453 151.478 307.878 154.658C308.59 156.246 308.987 157.646 309.206 158.651C309.316 159.154 309.381 159.558 309.419 159.84C309.438 159.98 309.45 160.09 309.458 160.166C309.462 160.204 309.464 160.233 309.466 160.253C309.467 160.264 309.467 160.272 309.468 160.277L309.468 160.284L309.468 160.287L309.469 160.287C309.469 160.288 309.469 160.288 309.035 160.317C309.469 160.344 309.469 160.344 309.469 160.344L309.469 160.346L309.468 160.351C309.468 160.354 309.468 160.359 309.467 160.365C309.466 160.376 309.465 160.392 309.463 160.411C309.459 160.45 309.453 160.505 309.443 160.572C309.424 160.706 309.391 160.891 309.334 161.1C309.222 161.509 309.009 162.054 308.592 162.471C308.156 162.909 307.526 163.174 306.68 163.046C305.862 162.922 304.861 162.436 303.618 161.447C299.368 158.067 297.98 153.891 297.659 150.568C297.499 148.909 297.604 147.463 297.749 146.43C297.822 145.913 297.905 145.499 297.97 145.212C298.002 145.068 298.031 144.956 298.051 144.879C298.061 144.841 298.07 144.811 298.075 144.79C298.078 144.78 298.081 144.772 298.082 144.766L298.084 144.759L298.085 144.757L298.085 144.756C298.085 144.756 298.085 144.756 298.501 144.882L298.085 144.756L298.246 144.219ZM298.781 145.568C298.727 145.822 298.665 146.154 298.609 146.553C298.471 147.533 298.372 148.908 298.524 150.483C298.827 153.626 300.132 157.56 304.157 160.761C305.347 161.707 306.206 162.09 306.809 162.181C307.384 162.268 307.737 162.094 307.979 161.852C308.242 161.589 308.403 161.212 308.496 160.869C308.542 160.701 308.568 160.553 308.584 160.447C308.591 160.394 308.596 160.353 308.598 160.325C308.599 160.322 308.599 160.319 308.599 160.317C308.598 160.301 308.596 160.28 308.593 160.253C308.587 160.187 308.576 160.087 308.558 159.958C308.523 159.698 308.462 159.316 308.358 158.838C308.149 157.882 307.77 156.542 307.086 155.018C305.769 152.078 303.321 148.452 298.781 145.568ZM309.035 160.317L309.469 160.344L309.47 160.316L309.469 160.288L309.035 160.317Z" fill="#9A3B82"/>
</svg>
