<svg width="10" height="20" viewBox="0 0 10 20" fill="none" xmlns="http://www.w3.org/2000/svg">
<path d="M9.63586 0.837799L7.32148 0.833984C4.72134 0.833984 3.04102 2.60489 3.04102 5.34584V7.42611H0.714013C0.512931 7.42611 0.350098 7.59357 0.350098 7.80013V10.8142C0.350098 11.0208 0.513117 11.188 0.714013 11.188H3.04102V18.7935C3.04102 19 3.20386 19.1673 3.40494 19.1673H6.44103C6.64211 19.1673 6.80494 18.9999 6.80494 18.7935V11.188H9.52576C9.72684 11.188 9.88967 11.0208 9.88967 10.8142L9.89079 7.80013C9.89079 7.70095 9.85235 7.60597 9.78421 7.53578C9.71607 7.46559 9.62324 7.42611 9.52669 7.42611H6.80494V5.66264C6.80494 4.81505 7.00157 4.38476 8.07641 4.38476L9.63549 4.38419C9.83639 4.38419 9.99922 4.21673 9.99922 4.01037V1.21163C9.99922 1.00545 9.83657 0.83818 9.63586 0.837799Z" fill="white"/>
</svg>
