<svg width="116" height="159" viewBox="0 0 116 159" fill="none" xmlns="http://www.w3.org/2000/svg">
<path d="M81.9073 4.53668C80.6208 4.53668 79.6559 3.56454 79.6559 2.26834C79.6559 0.972146 80.6208 -1.54646e-07 81.9073 -9.84111e-08C83.1938 -4.21761e-08 84.1587 0.972147 84.1587 2.26834C84.1587 3.56454 83.0866 4.53668 81.9073 4.53668Z" fill="white"/>
<path d="M81.9073 23.8707C80.6208 23.8707 79.6559 22.8985 79.6559 21.6023C79.6559 20.3061 80.6208 19.334 81.9073 19.334C83.1938 19.334 84.1587 20.3061 84.1587 21.6023C84.1587 22.7905 83.0866 23.8707 81.9073 23.8707Z" fill="white"/>
<path d="M81.9073 43.0992C80.6208 43.0992 79.6559 42.127 79.6559 40.8308C79.6559 39.5346 80.6208 38.5625 81.9073 38.5625C83.1938 38.5625 84.1587 39.5346 84.1587 40.8308C84.1587 42.127 83.0866 43.0992 81.9073 43.0992Z" fill="white"/>
<path d="M81.9073 62.4332C80.6208 62.4332 79.6559 61.461 79.6559 60.1648C79.6559 58.8686 80.6208 57.8965 81.9073 57.8965C83.1938 57.8965 84.1587 58.8686 84.1587 60.1648C84.1587 61.461 83.0866 62.4332 81.9073 62.4332Z" fill="white"/>
<path d="M81.9073 81.7691C80.6208 81.7691 79.6559 80.797 79.6559 79.5008C79.6559 78.2046 80.6208 77.2324 81.9073 77.2324C83.1938 77.2324 84.1587 78.2046 84.1587 79.5008C84.1587 80.6889 83.0866 81.7691 81.9073 81.7691Z" fill="white"/>
<path d="M81.9073 101.103C80.6208 101.103 79.6559 100.131 79.6559 98.8347C79.6559 97.5386 80.6208 96.5664 81.9073 96.5664C83.1938 96.5664 84.1587 97.5386 84.1587 98.8347C84.1587 100.131 83.0866 101.103 81.9073 101.103Z" fill="white"/>
<path d="M81.9073 120.33C80.6208 120.33 79.6559 119.358 79.6559 118.061C79.6559 116.765 80.6208 115.793 81.9073 115.793C83.1938 115.793 84.1587 116.765 84.1587 118.061C84.1587 119.358 83.0866 120.33 81.9073 120.33Z" fill="white"/>
<path d="M81.9073 139.666C80.6208 139.666 79.6559 138.693 79.6559 137.397C79.6559 136.101 80.6208 135.129 81.9073 135.129C83.1938 135.129 84.1587 136.101 84.1587 137.397C84.1587 138.693 83.0866 139.666 81.9073 139.666Z" fill="white"/>
<path d="M81.9073 159C80.6208 159 79.6559 158.027 79.6559 156.731C79.6559 155.435 80.6208 154.463 81.9073 154.463C83.1938 154.463 84.1587 155.435 84.1587 156.731C84.1587 157.919 83.0866 159 81.9073 159Z" fill="white"/>
<path d="M65.9337 4.53668C64.6472 4.53668 63.6823 3.56454 63.6823 2.26834C63.6823 0.972146 64.6472 -1.54646e-07 65.9337 -9.84113e-08C67.2202 -4.21763e-08 68.1851 0.972147 68.1851 2.26834C68.1851 3.56454 67.2202 4.53668 65.9337 4.53668Z" fill="white"/>
<path d="M65.9337 23.8707C64.6472 23.8707 63.6823 22.8985 63.6823 21.6023C63.6823 20.3061 64.6472 19.334 65.9337 19.334C67.2202 19.334 68.1851 20.3061 68.1851 21.6023C68.1851 22.7905 67.2202 23.8707 65.9337 23.8707Z" fill="white"/>
<path d="M65.9337 43.0992C64.6472 43.0992 63.6823 42.127 63.6823 40.8308C63.6823 39.5346 64.6472 38.5625 65.9337 38.5625C67.2202 38.5625 68.1851 39.5346 68.1851 40.8308C68.1851 42.127 67.2202 43.0992 65.9337 43.0992Z" fill="white"/>
<path d="M65.9337 62.4332C64.6472 62.4332 63.6823 61.461 63.6823 60.1648C63.6823 58.8686 64.6472 57.8965 65.9337 57.8965C67.2202 57.8965 68.1851 58.8686 68.1851 60.1648C68.1851 61.461 67.2202 62.4332 65.9337 62.4332Z" fill="white"/>
<path d="M65.9337 81.7691C64.6472 81.7691 63.6823 80.797 63.6823 79.5008C63.6823 78.2046 64.6472 77.2324 65.9337 77.2324C67.2202 77.2324 68.1851 78.2046 68.1851 79.5008C68.1851 80.6889 67.2202 81.7691 65.9337 81.7691Z" fill="white"/>
<path d="M65.9337 101.103C64.6472 101.103 63.6823 100.131 63.6823 98.8347C63.6823 97.5386 64.6472 96.5664 65.9337 96.5664C67.2202 96.5664 68.1851 97.5386 68.1851 98.8347C68.1851 100.131 67.2202 101.103 65.9337 101.103Z" fill="white"/>
<path d="M65.9337 120.33C64.6472 120.33 63.6823 119.358 63.6823 118.061C63.6823 116.765 64.6472 115.793 65.9337 115.793C67.2202 115.793 68.1851 116.765 68.1851 118.061C68.1851 119.358 67.2202 120.33 65.9337 120.33Z" fill="white"/>
<path d="M65.9337 139.666C64.6472 139.666 63.6823 138.693 63.6823 137.397C63.6823 136.101 64.6472 135.129 65.9337 135.129C67.2202 135.129 68.1851 136.101 68.1851 137.397C68.1851 138.693 67.2202 139.666 65.9337 139.666Z" fill="white"/>
<path d="M65.9337 159C64.6472 159 63.6823 158.027 63.6823 156.731C63.6823 155.435 64.6472 154.463 65.9337 154.463C67.2202 154.463 68.1851 155.435 68.1851 156.731C68.1851 157.919 67.2202 159 65.9337 159Z" fill="white"/>
<path d="M113.749 4.53668C112.462 4.53668 111.497 3.56454 111.497 2.26834C111.497 0.972146 112.462 -1.54646e-07 113.749 -9.84112e-08C115.035 -4.21762e-08 116 0.972147 116 2.26834C116 3.56454 115.035 4.53668 113.749 4.53668Z" fill="white"/>
<path d="M113.749 23.8726C112.462 23.8726 111.497 22.9005 111.497 21.6043C111.497 20.3081 112.462 19.3359 113.749 19.3359C115.035 19.3359 116 20.3081 116 21.6043C116 22.7925 115.035 23.8726 113.749 23.8726Z" fill="white"/>
<path d="M113.749 43.0992C112.462 43.0992 111.497 42.127 111.497 40.8308C111.497 39.5346 112.462 38.5625 113.749 38.5625C115.035 38.5625 116 39.6427 116 40.8308C116 42.127 115.035 43.0992 113.749 43.0992Z" fill="white"/>
<path d="M113.749 62.4332C112.462 62.4332 111.497 61.461 111.497 60.1648C111.497 58.8686 112.462 57.8965 113.749 57.8965C115.035 57.8965 116 58.9766 116 60.1648C116 61.353 115.035 62.4332 113.749 62.4332Z" fill="white"/>
<path d="M113.749 81.7691C112.462 81.7691 111.497 80.797 111.497 79.5008C111.497 78.2046 112.462 77.2324 113.749 77.2324C115.035 77.2324 116 78.2046 116 79.5008C116 80.6889 115.035 81.7691 113.749 81.7691Z" fill="white"/>
<path d="M113.749 101.103C112.462 101.103 111.497 100.131 111.497 98.8347C111.497 97.5386 112.462 96.5664 113.749 96.5664C115.035 96.5664 116 97.5386 116 98.8347C116 100.131 115.035 101.103 113.749 101.103Z" fill="white"/>
<path d="M113.749 120.33C112.462 120.33 111.497 119.358 111.497 118.061C111.497 116.765 112.462 115.793 113.749 115.793C115.035 115.793 116 116.765 116 118.061C116 119.358 115.035 120.33 113.749 120.33Z" fill="white"/>
<path d="M113.749 139.666C112.462 139.666 111.497 138.693 111.497 137.397C111.497 136.101 112.462 135.129 113.749 135.129C115.035 135.129 116 136.101 116 137.397C116 138.693 115.035 139.666 113.749 139.666Z" fill="white"/>
<path d="M113.749 159C112.462 159 111.497 158.027 111.497 156.731C111.497 155.435 112.462 154.463 113.749 154.463C115.035 154.463 116 155.435 116 156.731C116 157.919 115.035 159 113.749 159Z" fill="white"/>
<path d="M97.7745 4.53668C96.488 4.53668 95.5231 3.56454 95.5231 2.26834C95.5231 0.972146 96.5952 -1.4996e-07 97.7745 -9.84112e-08C99.061 -4.21762e-08 100.026 0.972146 100.026 2.26834C100.026 3.56454 99.061 4.53668 97.7745 4.53668Z" fill="white"/>
<path d="M97.7745 23.8707C96.488 23.8707 95.5231 22.8985 95.5231 21.6023C95.5231 20.3061 96.488 19.334 97.7745 19.334C99.061 19.334 100.026 20.3061 100.026 21.6023C100.026 22.7905 99.061 23.8707 97.7745 23.8707Z" fill="white"/>
<path d="M97.7745 43.0992C96.488 43.0992 95.5231 42.127 95.5231 40.8308C95.5231 39.5346 96.488 38.5625 97.7745 38.5625C99.061 38.5625 100.026 39.5346 100.026 40.8308C100.026 42.127 99.061 43.0992 97.7745 43.0992Z" fill="white"/>
<path d="M97.7745 62.4332C96.488 62.4332 95.5231 61.461 95.5231 60.1648C95.5231 58.8686 96.488 57.8965 97.7745 57.8965C99.061 57.8965 100.026 58.8686 100.026 60.1648C100.026 61.461 99.061 62.4332 97.7745 62.4332Z" fill="white"/>
<path d="M97.7745 81.7691C96.488 81.7691 95.5231 80.797 95.5231 79.5008C95.5231 78.2046 96.488 77.2324 97.7745 77.2324C99.061 77.2324 100.026 78.2046 100.026 79.5008C100.026 80.6889 99.061 81.7691 97.7745 81.7691Z" fill="white"/>
<path d="M97.7745 101.103C96.488 101.103 95.5231 100.131 95.5231 98.8347C95.5231 97.5386 96.488 96.5664 97.7745 96.5664C99.061 96.5664 100.026 97.5386 100.026 98.8347C100.026 100.131 99.061 101.103 97.7745 101.103Z" fill="white"/>
<path d="M97.7745 120.33C96.488 120.33 95.5231 119.358 95.5231 118.061C95.5231 116.765 96.488 115.793 97.7745 115.793C99.061 115.793 100.026 116.765 100.026 118.061C100.026 119.358 99.061 120.33 97.7745 120.33Z" fill="white"/>
<path d="M97.7745 139.666C96.488 139.666 95.5231 138.693 95.5231 137.397C95.5231 136.101 96.488 135.129 97.7745 135.129C99.061 135.129 100.026 136.101 100.026 137.397C100.026 138.693 99.061 139.666 97.7745 139.666Z" fill="white"/>
<path d="M97.7745 159C96.488 159 95.5231 158.027 95.5231 156.731C95.5231 155.435 96.488 154.463 97.7745 154.463C99.061 154.463 100.026 155.435 100.026 156.731C100.026 157.919 99.061 159 97.7745 159Z" fill="white"/>
<path d="M50.0665 4.53668C48.78 4.53668 47.8151 3.56454 47.8151 2.26834C47.8151 0.972146 48.78 -1.54646e-07 50.0665 -9.84112e-08C51.353 -4.21762e-08 52.3179 0.972147 52.3179 2.26834C52.3179 3.56454 51.2458 4.53668 50.0665 4.53668Z" fill="white"/>
<path d="M50.0665 23.8707C48.78 23.8707 47.8151 22.8985 47.8151 21.6023C47.8151 20.3061 48.78 19.334 50.0665 19.334C51.353 19.334 52.3179 20.3061 52.3179 21.6023C52.3179 22.7905 51.2458 23.8707 50.0665 23.8707Z" fill="white"/>
<path d="M50.0665 43.0992C48.78 43.0992 47.8151 42.127 47.8151 40.8308C47.8151 39.5346 48.78 38.5625 50.0665 38.5625C51.353 38.5625 52.3179 39.5346 52.3179 40.8308C52.3179 42.127 51.2458 43.0992 50.0665 43.0992Z" fill="white"/>
<path d="M50.0665 62.4332C48.78 62.4332 47.8151 61.461 47.8151 60.1648C47.8151 58.8686 48.78 57.8965 50.0665 57.8965C51.353 57.8965 52.3179 58.8686 52.3179 60.1648C52.3179 61.461 51.2458 62.4332 50.0665 62.4332Z" fill="white"/>
<path d="M50.0665 81.7691C48.78 81.7691 47.8151 80.797 47.8151 79.5008C47.8151 78.2046 48.78 77.2324 50.0665 77.2324C51.353 77.2324 52.3179 78.2046 52.3179 79.5008C52.3179 80.6889 51.2458 81.7691 50.0665 81.7691Z" fill="white"/>
<path d="M50.0665 101.103C48.78 101.103 47.8151 100.131 47.8151 98.8347C47.8151 97.5386 48.78 96.5664 50.0665 96.5664C51.353 96.5664 52.3179 97.5386 52.3179 98.8347C52.3179 100.131 51.2458 101.103 50.0665 101.103Z" fill="white"/>
<path d="M50.0665 120.33C48.78 120.33 47.8151 119.358 47.8151 118.061C47.8151 116.765 48.78 115.793 50.0665 115.793C51.353 115.793 52.3179 116.765 52.3179 118.061C52.3179 119.358 51.2458 120.33 50.0665 120.33Z" fill="white"/>
<path d="M50.0665 139.666C48.78 139.666 47.8151 138.693 47.8151 137.397C47.8151 136.101 48.78 135.129 50.0665 135.129C51.353 135.129 52.3179 136.101 52.3179 137.397C52.3179 138.693 51.2458 139.666 50.0665 139.666Z" fill="white"/>
<path d="M50.0665 159C48.78 159 47.8151 158.027 47.8151 156.731C47.8151 155.435 48.78 154.463 50.0665 154.463C51.353 154.463 52.3179 155.435 52.3179 156.731C52.3179 157.919 51.2458 159 50.0665 159Z" fill="white"/>
<path d="M34.0924 4.53668C32.8059 4.53668 31.841 3.56454 31.841 2.26834C31.841 0.972146 32.8059 -1.54646e-07 34.0924 -9.8411e-08C35.3789 -4.21761e-08 36.3437 0.972147 36.3437 2.26834C36.3437 3.56454 35.3789 4.53668 34.0924 4.53668Z" fill="white"/>
<path d="M34.0924 23.8707C32.8059 23.8707 31.841 22.8985 31.841 21.6023C31.841 20.3061 32.8059 19.334 34.0924 19.334C35.3789 19.334 36.3437 20.3061 36.3437 21.6023C36.3437 22.7905 35.3789 23.8707 34.0924 23.8707Z" fill="white"/>
<path d="M34.0924 43.0992C32.8059 43.0992 31.841 42.127 31.841 40.8308C31.841 39.5346 32.8059 38.5625 34.0924 38.5625C35.3789 38.5625 36.3437 39.5346 36.3437 40.8308C36.3437 42.127 35.3789 43.0992 34.0924 43.0992Z" fill="white"/>
<path d="M31.841 60.1648C31.841 61.4176 32.849 62.4332 34.0924 62.4332C35.3358 62.4332 36.3437 61.4176 36.3437 60.1648C36.3437 58.9121 35.3358 57.8965 34.0924 57.8965C32.849 57.8965 31.841 58.9121 31.841 60.1648Z" fill="white"/>
<path d="M34.0924 81.7691C32.8059 81.7691 31.841 80.797 31.841 79.5008C31.841 78.2046 32.8059 77.2324 34.0924 77.2324C35.3789 77.2324 36.3437 78.2046 36.3437 79.5008C36.3437 80.6889 35.3789 81.7691 34.0924 81.7691Z" fill="white"/>
<path d="M34.0924 101.103C32.8059 101.103 31.841 100.131 31.841 98.8347C31.841 97.5385 32.8059 96.5664 34.0924 96.5664C35.3789 96.5664 36.3437 97.5385 36.3437 98.8347C36.3437 100.131 35.3789 101.103 34.0924 101.103Z" fill="white"/>
<path d="M34.0924 120.33C32.8059 120.33 31.841 119.358 31.841 118.061C31.841 116.765 32.8059 115.793 34.0924 115.793C35.3789 115.793 36.3437 116.765 36.3437 118.061C36.3437 119.358 35.3789 120.33 34.0924 120.33Z" fill="white"/>
<path d="M31.841 137.397C31.841 138.65 32.849 139.666 34.0924 139.666C35.3358 139.666 36.3437 138.65 36.3437 137.397C36.3437 136.144 35.3358 135.129 34.0924 135.129C32.849 135.129 31.841 136.144 31.841 137.397Z" fill="white"/>
<path d="M34.0924 159C32.8059 159 31.841 158.027 31.841 156.731C31.841 155.435 32.8059 154.463 34.0924 154.463C35.3789 154.463 36.3437 155.435 36.3437 156.731C36.3437 157.919 35.3789 159 34.0924 159Z" fill="white"/>
<path d="M18.1182 4.53668C16.8317 4.53668 15.8669 3.56454 15.8669 2.26834C15.8669 0.972146 16.8317 -1.54646e-07 18.1182 -9.84115e-08C19.4047 -4.21765e-08 20.3696 0.972147 20.3696 2.26834C20.3696 3.56454 19.4047 4.53668 18.1182 4.53668Z" fill="white"/>
<path d="M18.1182 23.8707C16.8317 23.8707 15.8669 22.8985 15.8669 21.6023C15.8669 20.3061 16.8317 19.334 18.1182 19.334C19.4047 19.334 20.3696 20.3061 20.3696 21.6023C20.3696 22.7905 19.4047 23.8707 18.1182 23.8707Z" fill="white"/>
<path d="M18.1182 43.0992C16.8317 43.0992 15.8669 42.127 15.8669 40.8308C15.8669 39.5346 16.8317 38.5625 18.1182 38.5625C19.4047 38.5625 20.3696 39.5346 20.3696 40.8308C20.3696 42.127 19.4047 43.0992 18.1182 43.0992Z" fill="white"/>
<path d="M18.1182 62.4332C16.8317 62.4332 15.8669 61.461 15.8669 60.1648C15.8669 58.8686 16.8317 57.8965 18.1182 57.8965C19.4047 57.8965 20.3696 58.8686 20.3696 60.1648C20.3696 61.461 19.4047 62.4332 18.1182 62.4332Z" fill="white"/>
<path d="M18.1182 81.7691C16.8317 81.7691 15.8669 80.797 15.8669 79.5008C15.8669 78.2046 16.8317 77.2324 18.1182 77.2324C19.4047 77.2324 20.3696 78.2046 20.3696 79.5008C20.3696 80.6889 19.4047 81.7691 18.1182 81.7691Z" fill="white"/>
<path d="M18.1182 101.103C16.8317 101.103 15.8669 100.131 15.8669 98.8347C15.8669 97.5385 16.8317 96.5664 18.1182 96.5664C19.4047 96.5664 20.3696 97.5385 20.3696 98.8347C20.3696 100.131 19.4047 101.103 18.1182 101.103Z" fill="white"/>
<path d="M18.1182 120.33C16.8317 120.33 15.8669 119.358 15.8669 118.061C15.8669 116.765 16.8317 115.793 18.1182 115.793C19.4047 115.793 20.3696 116.765 20.3696 118.061C20.3696 119.358 19.4047 120.33 18.1182 120.33Z" fill="white"/>
<path d="M18.1182 139.666C16.8317 139.666 15.8669 138.693 15.8669 137.397C15.8669 136.101 16.8317 135.129 18.1182 135.129C19.4047 135.129 20.3696 136.101 20.3696 137.397C20.3696 138.693 19.4047 139.666 18.1182 139.666Z" fill="white"/>
<path d="M18.1182 159C16.8317 159 15.8669 158.027 15.8669 156.731C15.8669 155.435 16.8317 154.463 18.1182 154.463C19.4047 154.463 20.3696 155.435 20.3696 156.731C20.3696 157.919 19.4047 159 18.1182 159Z" fill="white"/>
<path d="M2.25154 4.53668C0.965032 4.53668 0.000152909 3.56454 0.000152966 2.26834C0.000153022 0.972146 0.965033 -1.54646e-07 2.25154 -9.84113e-08C3.53805 -4.21762e-08 4.50293 0.972147 4.50293 2.26834C4.50293 3.56454 3.43084 4.53668 2.25154 4.53668Z" fill="white"/>
<path d="M2.25154 23.8707C0.965032 23.8707 0.000152909 22.8985 0.000152966 21.6023C0.000153022 20.3061 0.965033 19.334 2.25154 19.334C3.53805 19.334 4.50293 20.3061 4.50293 21.6023C4.50293 22.7905 3.43084 23.8707 2.25154 23.8707Z" fill="white"/>
<path d="M2.25154 43.0992C0.965032 43.0992 0.000152909 42.127 0.000152966 40.8308C0.000153022 39.5346 0.965033 38.5625 2.25154 38.5625C3.53805 38.5625 4.50293 39.5346 4.50293 40.8308C4.50293 42.127 3.43084 43.0992 2.25154 43.0992Z" fill="white"/>
<path d="M2.25154 62.4332C0.965032 62.4332 0.000152909 61.461 0.000152966 60.1648C0.000153022 58.8686 0.965033 57.8965 2.25154 57.8965C3.53805 57.8965 4.50293 58.8686 4.50293 60.1648C4.50293 61.461 3.43084 62.4332 2.25154 62.4332Z" fill="white"/>
<path d="M2.25154 81.7691C0.965026 81.7691 0.000144803 80.797 0.000144859 79.5008C0.000144916 78.2046 0.965026 77.2324 2.25154 77.2324C3.53805 77.2324 4.50293 78.2046 4.50293 79.5008C4.50293 80.6889 3.43084 81.7691 2.25154 81.7691Z" fill="white"/>
<path d="M2.25154 101.103C0.965026 101.103 0.000144803 100.131 0.000144859 98.8347C0.000144916 97.5385 0.965026 96.5664 2.25154 96.5664C3.53805 96.5664 4.50293 97.5385 4.50293 98.8347C4.50293 100.131 3.43084 101.103 2.25154 101.103Z" fill="white"/>
<path d="M2.25154 120.33C0.965026 120.33 0.000144803 119.358 0.000144859 118.061C0.000144916 116.765 0.965026 115.793 2.25154 115.793C3.53805 115.793 4.50293 116.765 4.50293 118.061C4.50293 119.358 3.43084 120.33 2.25154 120.33Z" fill="white"/>
<path d="M2.25154 139.666C0.965026 139.666 0.000144803 138.693 0.000144859 137.397C0.000144916 136.101 0.965026 135.129 2.25154 135.129C3.53805 135.129 4.50293 136.101 4.50293 137.397C4.50293 138.693 3.43084 139.666 2.25154 139.666Z" fill="white"/>
<path d="M2.25154 159C0.965026 159 0.000144803 158.027 0.000144859 156.731C0.000144916 155.435 0.965026 154.463 2.25154 154.463C3.53805 154.463 4.50293 155.435 4.50293 156.731C4.50293 157.919 3.43084 159 2.25154 159Z" fill="white"/>
</svg>
