<svg width="122" height="287" viewBox="0 0 122 287" fill="none" xmlns="http://www.w3.org/2000/svg">
<path d="M143.598 0C64.2155 0 0 64.2155 0 143.598C0 222.784 64.2155 287.197 143.598 287.197C222.784 287.197 287.197 222.981 287.197 143.598C287 64.2155 222.784 0 143.598 0ZM143.598 277.939C69.337 277.939 9.25806 217.86 9.25806 143.598C9.25806 69.337 69.337 9.25806 143.598 9.25806C217.86 9.25806 277.939 69.337 277.939 143.598C277.939 217.663 217.663 277.939 143.598 277.939Z" fill="#FFCF2D"/>
<path d="M143.6 30.9258C81.5509 30.9258 31.124 81.3527 31.124 143.401C31.124 205.45 81.5509 255.877 143.6 255.877C205.648 255.877 256.075 205.647 256.075 143.598C256.075 81.3527 205.648 30.9258 143.6 30.9258ZM143.6 238.74C91.006 238.74 48.2613 195.995 48.2613 143.401C48.2613 90.8077 91.006 48.063 143.6 48.063C196.193 48.063 238.938 90.8077 238.938 143.401C238.938 195.995 196.193 238.74 143.6 238.74Z" fill="#FFCF2D"/>
</svg>
