<svg width="224" height="284" viewBox="0 0 224 284" fill="none" xmlns="http://www.w3.org/2000/svg">
<path d="M142.097 0C63.5443 0 0 63.5443 0 142.097C0 220.456 63.5443 284.195 142.097 284.195C220.456 284.195 284.195 220.651 284.195 142.097C284 63.5443 220.456 0 142.097 0ZM142.097 275.034C68.6122 275.034 9.16129 215.583 9.16129 142.097C9.16129 68.6122 68.6122 9.16129 142.097 9.16129C215.583 9.16129 275.034 68.6122 275.034 142.097C275.034 215.388 215.388 275.034 142.097 275.034Z" fill="white"/>
<path d="M142.099 30.6035C80.6986 30.6035 30.7988 80.5033 30.7988 141.903C30.7988 203.304 80.6986 253.203 142.099 253.203C203.499 253.203 253.399 203.499 253.399 142.098C253.399 80.5033 203.499 30.6035 142.099 30.6035ZM142.099 236.245C90.0548 236.245 47.757 193.947 47.757 141.903C47.757 89.8595 90.0548 47.5616 142.099 47.5616C194.143 47.5616 236.441 89.8595 236.441 141.903C236.441 193.947 194.143 236.245 142.099 236.245Z" fill="white"/>
<path d="M142.098 79.5273C107.597 79.5273 79.5283 107.596 79.5283 142.097C79.5283 176.598 107.402 204.667 142.098 204.667C176.599 204.667 204.668 176.598 204.668 142.097C204.473 107.596 176.599 79.5273 142.098 79.5273ZM142.098 175.623C123.58 175.623 108.572 160.614 108.572 142.097C108.572 123.579 123.58 108.571 142.098 108.571C160.616 108.571 175.624 123.579 175.624 142.097C175.624 160.614 160.616 175.623 142.098 175.623Z" fill="white"/>
</svg>
