<svg width="18" height="18" viewBox="0 0 18 18" fill="none" xmlns="http://www.w3.org/2000/svg">
<path d="M17.329 17.3327L17.3332 17.332V11.2195C17.3332 8.22921 16.6894 5.92574 13.1936 5.92574C11.513 5.92574 10.3853 6.84796 9.92483 7.72227H9.87622V6.2049H6.56163V17.332H10.013V11.8223C10.013 10.3716 10.288 8.9688 12.0846 8.9688C13.8547 8.9688 13.8811 10.6244 13.8811 11.9153V17.3327H17.329Z" fill="white"/>
<path d="M0.9415 6.2056H4.39706V17.3327H0.9415V6.2056Z" fill="white"/>
<path d="M2.66789 0.666016C1.56303 0.666016 0.666504 1.56254 0.666504 2.6674C0.666504 3.77227 1.56303 4.68754 2.66789 4.68754C3.77275 4.68754 4.66928 3.77227 4.66928 2.6674C4.66859 1.56254 3.77206 0.666016 2.66789 0.666016Z" fill="white"/>
</svg>
