<svg width="16" height="14" viewBox="0 0 16 14" fill="none" xmlns="http://www.w3.org/2000/svg">
<path fill-rule="evenodd" clip-rule="evenodd" d="M7.99974 12.2715C4.9337 10.5252 3.22366 8.78955 2.39675 7.28361C1.55041 5.74228 1.62425 4.4441 2.09389 3.52273C3.05921 1.62892 5.80427 1.02333 7.47678 3.13865L7.9997 3.80001L8.52266 3.13868C10.1955 1.02327 12.9407 1.62896 13.906 3.52273C14.3756 4.44409 14.4494 5.74226 13.603 7.28359C12.776 8.78954 11.0659 10.5252 7.99974 12.2715ZM7.99977 1.73726C5.64696 -0.498482 2.17604 0.425546 0.905976 2.91723C0.208948 4.2847 0.199427 6.05212 1.22802 7.92536C2.24749 9.78198 4.28009 11.7417 7.67724 13.6194L7.99973 13.7976L8.32222 13.6194C11.7195 11.7417 13.7522 9.78199 14.7717 7.92537C15.8004 6.05214 15.7909 4.28472 15.0939 2.91723C13.8238 0.425498 10.3528 -0.498448 7.99977 1.73726Z" fill="#FF3F3A"/>
</svg>
